<?xml version="1.0" standalone="no"?>
<!DOCTYPE svg PUBLIC "-//W3C//DTD SVG 1.1//EN" "http://www.w3.org/Graphics/SVG/1.1/DTD/svg11.dtd" >
<svg xmlns="http://www.w3.org/2000/svg">
<metadata>
This is a custom SVG webfont generated by Font Squirrel.
Copyright   : Greetings Bold version 303  by Keith Bates                                                                                                             KType  2002 2007        wwwktypecom        keithktypecom 
</metadata>
<defs>
<font id="webfontX51jHXmN" horiz-adv-x="542" >
<font-face units-per-em="2048" ascent="1638" descent="-410" />
<missing-glyph horiz-adv-x="487" />
<glyph unicode=" "  horiz-adv-x="487" />
<glyph unicode="&#x09;" horiz-adv-x="487" />
<glyph unicode="&#xa0;" horiz-adv-x="487" />
<glyph unicode="!" horiz-adv-x="495" d="M143 123q0 59 35 98t84 39t82 -41t33 -96q0 -53 -34 -94t-83 -41t-83 40t-34 95zM150 1294l317 121v-20q-70 -31 -88 -97q-8 -27 -10 -133l-31 -854h-158z" />
<glyph unicode="&#x22;" horiz-adv-x="731" d="M139 1321h213q-47 -12 -53 -119l-12 -235h-78l-19 235q-8 107 -51 119zM393 1321h213q-16 -18 -24 -37q-23 -43 -27 -82l-14 -235h-76l-19 235q-8 107 -53 119z" />
<glyph unicode="#" horiz-adv-x="1087" d="M59 467v100h260v199h-253l2 102h254l-3 381h113v-381h178v381h109l2 -381h223v-102h-223v-199h227v-100h-227v-406h-109v406h-180v-406h-113v406h-260zM428 565h186v205h-186v-205z" />
<glyph unicode="$" horiz-adv-x="1015" d="M84 231l100 86q125 -178 248 -186v475l-237 297q-66 82 -66 182q0 115 96 189q90 72 207 61v64h103v-84l79 -37q45 -16 103 -21q74 0 168 80l-154 -264q-68 78 -196 123v-360l206 -250q123 -166 123 -299q0 -135 -98 -219q-90 -72 -231 -86v-88h-103v83q-217 12 -348 254 zM348 1110q0 -41 84 -149v241q-84 -10 -84 -92zM535 145q102 37 102 142q0 68 -102 194v-336z" />
<glyph unicode="%" horiz-adv-x="1400" d="M51 1004q0 147 60 260q74 135 211 135q133 0 204 -142q57 -109 58 -260q0 -188 -76 -295q-90 -129 -191 -129q-121 0 -208 160q-58 103 -58 271zM233 1001q0 -276 82 -276q45 0 74 115q16 88 17 157q0 268 -93 269q-80 -1 -80 -265zM348 0l539 1438h153l-528 -1438h-164z M801 415.5q0 147.5 59 260.5q74 135 211 135q133 0 205 -141q55 -113 55 -260q0 -139 -59 -269q-76 -156 -205 -155q-133 0 -207 157q-59 125 -59 272.5zM983 403q0 -272 86 -272q47 0 70 121q14 72 14 158q0 119 -6 157q-18 115 -80 115q-47 0 -68 -117q-16 -82 -16 -162z " />
<glyph unicode="&#x26;" horiz-adv-x="1273" d="M66 397q0 246 176 326q-143 74 -144 266q0 170 127 262q109 78 275 78q102 0 192 -31q45 -18 119 -36q98 -2 174 73q-74 -119 -190 -282q-113 125 -226 127q-248 2 -247 -207q0 -94 81 -152q72 -53 172 -53v-131q-281 -12 -280 -227q0 -129 72.5 -205t185.5 -76 q236 0 244 334q-41 10 -72 10q-111 0 -166 -106q2 233 191 233q51 0 124 -31q80 -29 113 -28q109 0 180 96q-4 -135 -49 -191q-39 -45 -121 -45q-23 -199 -140.5 -309t-301.5 -110q-215 0 -340 94q-149 106 -149 321z" />
<glyph unicode="'" horiz-adv-x="444" d="M109 1321h213q-14 -18 -25 -37q-23 -43 -27 -82l-14 -235h-76l-18 235q-8 107 -53 119z" />
<glyph unicode="(" horiz-adv-x="628" d="M68 559q0 612 596 938q-389 -434 -390 -938q0 -518 394 -930q-334 166 -480 422q-120 213 -120 508z" />
<glyph unicode=")" horiz-adv-x="700" d="M-51 -371q391 414 391 930q0 504 -389 938q596 -326 596 -938q0 -295 -121 -508q-145 -256 -477 -422z" />
<glyph unicode="*" horiz-adv-x="911" d="M162 1092l74 155l192 -86l2 205h170v-205l193 90l69 -170l-211 -73l160 -170l-123 -109l-176 189l-184 -193l-117 125l164 160z" />
<glyph unicode="+" horiz-adv-x="1087" d="M66 633l49 162h313v376h166v-376h364l-49 -162h-315v-377h-166v377h-362z" />
<glyph unicode="," horiz-adv-x="399" d="M100 92q0 43 31 75t76 32q47 0 77.5 -35t30.5 -86q0 -102 -79 -160q-39 -31 -99 -31v21q70 20 76 80h-20q-39 0 -66 31.5t-27 72.5z" />
<glyph unicode="-" horiz-adv-x="653" d="M53 594v172h514v-172h-514z" />
<glyph unicode="." horiz-adv-x="389" d="M94 100q0 45 32 76t77 31t75.5 -31t30.5 -78q0 -43 -31.5 -74.5t-74.5 -31.5q-45 0 -77 31.5t-32 76.5z" />
<glyph unicode="/" horiz-adv-x="897" d="M10 0l590 1366h203l-590 -1366h-203z" />
<glyph unicode="0" horiz-adv-x="1107" d="M86 655.5q0 241.5 111 436.5q133 231 356 231t356 -231q113 -193 113 -436.5t-113 -436.5q-133 -231 -356 -231t-356 231q-111 195 -111 436.5zM344 737q0 -158 57 -342q74 -248 195 -248q98 0 147 172q33 113 33 250q0 156 -53 346q-70 254 -188 254q-100 0 -154 -176 q-37 -123 -37 -256z" />
<glyph unicode="1" horiz-adv-x="634" d="M72 1221l354 116v-1337h-201v1100q0 68 -49 96q-28 17 -104 25z" />
<glyph unicode="2" horiz-adv-x="1011" d="M35 0l618 934q53 78 54 133q0 41 -38 74t-83 33q-135 0 -269 -123l-194 286q96 -90 196 -90q61 0 156 43q98 43 164 43q121 0 209 -84q84 -82 88 -207q0 -100 -62 -190l-487 -719h326q217 0 262 131l-66 -264h-874z" />
<glyph unicode="3" horiz-adv-x="1034" d="M96 1337q88 -82 183 -82q37 0 129 37q90 39 153 39q154 0 260 -96q106 -94 107 -246q0 -186 -150 -266q178 -82 183 -307q0 -219 -142 -332q-127 -102 -332 -102q-131 0 -227 65q-70 49 -147 158l100 98q117 -160 270 -160q242 0 242 267q0 135 -92 180q-72 41 -254 37 l51 149h39q90 0 159.5 57.5t69.5 139.5q0 96 -49 157q-47 55 -102 56q-88 0 -152 -31q-53 -25 -131 -90z" />
<glyph unicode="4" horiz-adv-x="1030" d="M37 272l559 1049h207v-913h180v-136h-178v-274l-395 2q74 0 122 59q45 51 46 125v90zM254 408h324v624z" />
<glyph unicode="5" horiz-adv-x="1050" d="M61 -23l172 289q72 -78 117 -102q66 -35 168 -35q106 0 166 84q51 76 51 207q0 104 -53 182q-59 84 -160 84q-125 -2 -176 -84l-201 -2l23 711h717l-2 -135h-490l-22 -396q76 61 180 62q178 0 295 -110.5t117 -297.5q0 -451 -441 -450q-53 0 -155.5 38.5t-143.5 38.5 q-35 0 -80 -18q-53 -23 -82 -66z" />
<glyph unicode="6" horiz-adv-x="1103" d="M80 565q0 281 100 490q131 272 393 276q59 0 136 -39q78 -37 102 -37q43 0 92 21q63 20 92 63l-151 -282q-45 57 -113.5 94t-128.5 37q-119 0 -190 -129q-63 -115 -66 -275q90 66 217 66q176 0 293 -121q117 -119 117 -303q0 -201 -117 -326q-117 -127 -313 -127 q-231 0 -357 193q-106 161 -106 399zM354 424q0 -115 47 -203q55 -98 148 -98q188 0 188 264q0 129 -43 211q-49 100 -147 100q-92 0 -146 -84q-47 -77 -47 -190z" />
<glyph unicode="7" horiz-adv-x="987" d="M37 993l80 320h780v-119l-455 -1194h-245l446 1178h-334q-74 0 -151 -48q-86 -53 -121 -137z" />
<glyph unicode="8" horiz-adv-x="983" d="M43 375q-4 258 180 344q-139 66 -139 272q0 168 117 258q106 78 270 78q383 0 383 -336q0 -211 -137 -272q174 -76 174 -344q0 -389 -420 -391q-201 -2 -314.5 102.5t-113.5 288.5zM281 387q0 -256 192 -256q186 0 186 260q0 33 -4 70q-23 176 -180 176q-98 0 -137 -39 q-57 -51 -57 -211zM305 997q0 -221 168 -221q162 0 162 223q0 184 -160 185q-70 0 -117 -43q-53 -50 -53 -144z" />
<glyph unicode="9" horiz-adv-x="1085" d="M31 -14l188 295q131 -137 254 -138q217 0 240 385q-90 -66 -217 -65q-193 0 -308 135q-102 125 -102 299q0 182 107 303q121 139 321 139q231 0 356 -192q109 -168 109 -399q0 -326 -113 -527q-129 -231 -368 -231q-49 0 -111 16q-66 25 -100 35q-61 20 -86 20 q-113 1 -170 -75zM322 905q0 -274 192 -274q94 0 145 76q45 66 46 180q0 287 -187 289q-196 3 -196 -271z" />
<glyph unicode=":" horiz-adv-x="462" d="M96 100q0 45 32 76t77 31t75.5 -31t30.5 -76t-31.5 -75.5t-74.5 -30.5q-45 0 -77 30.5t-32 75.5zM96 606q0 45 32 76t77 31t75.5 -31t30.5 -78q0 -43 -31.5 -74.5t-74.5 -31.5q-45 0 -77 31.5t-32 76.5z" />
<glyph unicode=";" horiz-adv-x="462" d="M98 92q0 43 31 75t76 32q47 0 77.5 -35t30.5 -86q0 -102 -80 -160q-41 -31 -98 -31v21q70 20 76 80h-21q-39 0 -65.5 31.5t-26.5 72.5zM98 608q0 43 32 72t77 29q41 0 72.5 -30t31.5 -71q0 -43 -30.5 -73.5t-75.5 -30.5q-43 0 -75 30.5t-32 73.5z" />
<glyph unicode="&#x3c;" horiz-adv-x="948" d="M227 606v156l568 289v-209l-322 -160l322 -158v-209z" />
<glyph unicode="=" horiz-adv-x="1112" d="M74 510v147h915v-147h-915zM74 770v150h915v-150h-915z" />
<glyph unicode="&#x3e;" horiz-adv-x="923" d="M229 315v209l322 158l-322 160v209l568 -289v-156z" />
<glyph unicode="?" horiz-adv-x="1112" d="M33 1411q94 -63 192 -63q43 0 133 32q92 33 156 33q416 0 420 -440q0 -135 -90 -244q-106 -121 -293 -125l-2 -289h-221v437q74 -18 161 -19q102 0 168 84q61 76 62 178q0 113 -60 191q-66 86 -178 86q-137 0 -282 -142zM307 131q0 53 38 92t91 39q55 0 92 -38t37 -95 q0 -53 -39 -92t-90 -39q-53 0 -91 39t-38 94z" />
<glyph unicode="@" horiz-adv-x="1579" d="M125 541q0 260 160 426q162 166 397 166q332 0 332 -236v-696h-156v37q-63 -37 -176 -37q-111 0 -190 86q-80 90 -80 198q0 164 155 246q63 35 293 94v49q-23 98 -47 123q-33 33 -131 33q-201 0 -317 -153q-102 -137 -103 -324q0 -197 149.5 -334t342.5 -137 q231 0 385 170q154 162 153.5 401.5t-162.5 409.5q-162 174 -393 174q-188 0 -313 -70q-90 -49 -223 -192v84q217 285 549 284q287 0 487.5 -200.5t200.5 -487.5q0 -289 -201 -485.5t-487 -196.5q-250 0 -433 156q-192 166 -192 412zM569 492q0 -78 35 -136q41 -66 109 -65 q66 0 105.5 38t39.5 101v299q-131 -35 -188 -74q-101 -63 -101 -163z" />
<glyph unicode="A" horiz-adv-x="954" d="M39 0l410 1346l479 -1346h-238l-102 315q-35 -25 -78 -24q-31 0 -76 32.5t-98 32.5t-70 -47q-10 -23 -33 -96q-10 -37 -10 -59q0 -109 144 -154h-328zM297 414q35 25 72 24q33 0 73 -18q43 -16 45 -17q43 0 58 27l-133 395z" />
<glyph unicode="B" horiz-adv-x="1110" d="M10 1311h545q399 0 399 -322v-12q0 -106 -34 -166q-31 -51 -105 -88q172 -76 172 -326q0 -217 -110 -313q-102 -84 -310 -84h-399v1120q0 68 -45 122.5t-113 68.5zM393 133h142q129 0 182 80q37 56 37 166v22q0 244 -219 244h-142v-512zM393 770h139q203 0 203 211 q0 94 -56 145.5t-153 51.5h-133v-408z" />
<glyph unicode="C" horiz-adv-x="1038" d="M29 629q0 262 112 461q139 246 389 245h9q68 0 149 -41q86 -41 123 -41q49 0 80 17.5t82 68.5l-164 -280q-104 125 -248 125q-147 -4 -217 -189q-51 -135 -51 -321q0 -229 61 -371q72 -166 209 -166q74 0 131 35q47 31 109 109l82 -80q-76 -113 -150 -162 q-80 -55 -190 -55q-246 0 -389 211q-127 182 -127 434z" />
<glyph unicode="D" horiz-adv-x="1191" d="M18 1313h523q248 0 389 -213q121 -182 121 -445q0 -252 -119 -438q-137 -217 -379 -217h-373v1110q0 74 -45 131.5t-117 71.5zM406 133h131h3q147 0 218 174q49 127 49 305q0 158 -47 330q-63 236 -182 236h-172v-1045z" />
<glyph unicode="E" horiz-adv-x="1015" d="M23 1313h868l80 -320q-61 109 -103 137q-66 47 -180 48l-282 2v-408h362v-127l-362 -2v-508h522v-135h-748v1120q0 72 -44.5 127.5t-112.5 65.5z" />
<glyph unicode="F" horiz-adv-x="997" d="M10 1313h848l82 -320q-92 184 -260 185h-287v-408h344v-125h-344v-645h-225v1120q0 68 -43 122.5t-115 70.5z" />
<glyph unicode="G" horiz-adv-x="1071" d="M53 637q0 264 121 463q141 233 391 233q53 0 146 -37q96 -37 125 -36q106 0 176 75l-187 -282q-117 129 -229 129q-162 0 -240 -191q-57 -135 -57 -329q0 -518 336 -519l92 -2v506l-139 -2v125h362v-770h-420q-225 0 -360 213q-117 184 -117 424z" />
<glyph unicode="H" horiz-adv-x="1130" d="M6 1313h385v-535q100 31 172 31q76 0 168 -33v537h225v-1315h-225v643q-92 31 -170 31t-170 -31v-641h-225v1100q0 178 -160 213z" />
<glyph unicode="I" d="M23 1313h360v-1313h-201v1092q1 178 -159 221z" />
<glyph unicode="J" horiz-adv-x="507" d="M-47 -260q147 61 147 217v1356h371q-158 -43 -158 -215v-1075q0 -283 -360 -283z" />
<glyph unicode="K" horiz-adv-x="991" d="M66 -12v1325h227v-586l270 332q53 66 53 123q0 100 -122 131h444l-442 -537l329 -594q113 -205 185 -284q109 -127 276 -199l6 -10q-295 20 -446 147q-106 88 -268 377l-226 399l-57 -63v-561h-229z" />
<glyph unicode="L" horiz-adv-x="993" d="M31 1313h366v-1188h303q209 0 269 127l-62 -252h-729v1104q0 166 -147 209z" />
<glyph unicode="M" horiz-adv-x="1331" d="M14 0l369 1335l274 -717l213 717l437 -1335h-234l-229 707l-209 -725l-275 743l-133 -494q-12 -43 -12 -75q0 -115 129 -156h-330z" />
<glyph unicode="N" horiz-adv-x="952" d="M82 0v1333l551 -792v573q0 170 -158 199h297v-1333l-553 790v-770h-137z" />
<glyph unicode="O" horiz-adv-x="1128" d="M70 655.5q0 239.5 118 438.5q139 240 369 239q233 0 371 -239q119 -199 119 -438.5t-119 -438.5q-137 -240 -371 -240q-229 0 -369 240q-118 199 -118 438.5zM330 721q0 -170 59 -348q80 -225 215 -226q104 0 158 172q37 119 37 269q0 178 -58 350q-78 231 -209 231 q-109 0 -163 -176q-39 -122 -39 -272z" />
<glyph unicode="P" horiz-adv-x="1044" d="M4 1313h483q459 0 459 -381q0 -248 -172 -324q-111 -47 -387 -47l-2 -561h-225v1106q0 187 -156 207zM387 692l90 -2h10q121 0 177 47q63 55 63 195q0 125 -52 186q-51 59 -148 60h-7h-133v-486z" />
<glyph unicode="Q" horiz-adv-x="1161" d="M53 651q0 240 117 443q141 240 370.5 239.5t370.5 -239.5q117 -203 117 -443q0 -201 -92 -389q-115 -233 -309 -274q8 -2 86 -39q61 -29 102 -29q102 0 152 80q-6 -213 -154 -213q-63 0 -169.5 63.5t-164.5 63.5q-102 0 -160 -80q20 125 136 154q-182 45 -303 276 q-99 194 -99 387zM311 719q0 -174 62 -350q80 -229 215 -230q104 0 157 176q35 123 35 269q0 178 -55 352q-78 233 -209 233q-111 0 -164 -178q-41 -129 -41 -272z" />
<glyph unicode="R" horiz-adv-x="1116" d="M18 1313h551q408 0 408 -385q0 -289 -262 -357l211 -385q229 -418 467 -485l2 -8q-233 18 -363 90q-178 106 -350 412l-199 354h-77l-3 -549h-229v1098q0 84 -43 143.5t-113 71.5zM406 694q197 0 245 21q102 43 103 213q0 119 -54 179q-52 58 -152 58h-7h-135v-471z" />
<glyph unicode="S" horiz-adv-x="927" d="M35 233l96 84q131 -186 283 -186q84 0 134 40t50 101q0 76 -111 211l-337 412q-61 74 -66 192q0 111 82 179.5t219 68.5q76 0 153.5 -39t114.5 -39q92 0 178 80l-184 -274q-115 147 -235 147q-111 0 -111 -112q0 -41 64 -117l364 -453q88 -109 88 -248t-106.5 -218.5 t-282.5 -79.5q-115 0 -221 67t-172 184z" />
<glyph unicode="T" horiz-adv-x="1011" d="M14 1004l80 309h871v-137h-316v-1176h-225v1178h-127q-92 0 -169 -47t-114 -127z" />
<glyph unicode="U" horiz-adv-x="1077" d="M86 522v789h219v-781q0 -168 29 -254q45 -137 172 -137q197 0 196 393v586q0 59 -36 115q-47 68 -121 80l381 -2v-762q0 -258 -80 -391q-100 -162 -338 -162q-240 0 -340 156q-82 120 -82 370z" />
<glyph unicode="V" horiz-adv-x="1032" d="M20 1315h240l268 -764l181 549q12 37 12 69q0 113 -123 146h344l-446 -1335z" />
<glyph unicode="W" horiz-adv-x="1400" d="M23 1311h233l229 -705l211 727l273 -743l129 487q12 43 12 78q0 127 -133 156h338l-369 -1334l-274 717l-213 -717z" />
<glyph unicode="X" horiz-adv-x="999" d="M20 0l369 629l-350 686l252 2l233 -463l146 242q33 51 32 98q0 96 -108 119h362l-356 -608l358 -705h-249l-244 477l-281 -477h-164z" />
<glyph unicode="Y" horiz-adv-x="1032" d="M43 1313h250l254 -492l127 244q35 70 35 119q0 104 -131 129h376l-344 -670v-643h-221v645z" />
<glyph unicode="Z" horiz-adv-x="997" d="M68 0l598 1180h-549v137h868l-600 -1184h342q111 0 176 41q51 33 88 111l-76 -285h-847z" />
<glyph unicode="[" horiz-adv-x="487" d="M178 119v1171q0 88 38 145.5t106 57.5l69 2l-2 -152q-29 4 -55 0q-2 -2 -2 -1277q25 -4 59 0v-150h-67q-70 -2 -111 64q-35 57 -35 139z" />
<glyph unicode="\" horiz-adv-x="792" d="M10 1366h203l590 -1366h-203z" />
<glyph unicode="]" horiz-adv-x="555" d="M178 66q33 -2 58 0v1277q-27 4 -56 0l-2 152l70 -2q68 0 105.5 -57.5t37.5 -145.5v-1171q0 -82 -35 -139q-41 -66 -110 -64h-68v150z" />
<glyph unicode="^" horiz-adv-x="1011" d="M135 754l260 501h211l266 -501h-159l-209 385l-209 -385h-160z" />
<glyph unicode="_" horiz-adv-x="956" d="M2 -244l2 97l1020 -5v-92h-1022z" />
<glyph unicode="`" horiz-adv-x="540" d="M225 1571h262l93 -260h-93l-172 198q-53 62 -90 62z" />
<glyph unicode="a" horiz-adv-x="864" d="M51 340q0 186 164 285q84 49 328 114q0 76 -31 127q-37 61 -111 62q-123 0 -184 -99l-145 240q59 -53 141 -53q16 0 90 28.5t121 28.5q131 0 217 -80t86 -207v-786h-186v33q-63 -33 -179 -33q-129 0 -221 104q-90 107 -90 236zM246 336q0 -82 37 -141q43 -70 123 -70 q59 0 97 44t38 118v319q-127 -37 -191 -78q-104 -69 -104 -192z" />
<glyph unicode="b" horiz-adv-x="964" d="M106 -2v1325l285 82q-100 -70 -100 -186v-172q63 45 135 45q213 0 315 -164q86 -137 86 -373q0 -233 -59 -362q-94 -199 -334 -199q-84 0 -143 53v-49h-185zM291 274q0 -147 153 -147h4q90 0 141 110q52 112 52 320q0 184 -55.5 291.5t-157.5 107.5q-57 0 -97 -46 t-40 -113v-523z" />
<glyph unicode="c" horiz-adv-x="890" d="M63 549q0 195 103 350q121 178 311 178q53 0 121 -28q61 -27 94 -27q66 0 131 57l-143 -245q-72 96 -158 96q-117 0 -186 -129q-59 -115 -60 -258q0 -158 52 -273q61 -135 166 -139q98 0 194 90l78 -108q-143 -119 -272 -119q-219 0 -334 172q-97 150 -97 383z" />
<glyph unicode="d" horiz-adv-x="937" d="M84 557q0 231 90 371q109 164 322 164q66 0 122 -48v175q0 119 -100 186l287 -84v-1321h-187v49q-68 -55 -141 -55h-5q-192 0 -290 138q-98 140 -98 425zM270 557q0 -205 55.5 -317.5t149.5 -112.5q53 0 94 35q49 43 49 123v512q0 162 -126 161q-102 0 -162 -109.5 t-60 -291.5z" />
<glyph unicode="e" horiz-adv-x="976" d="M80 532q0 197 88 353q106 190 297 190q156 0 266 -125q127 -145 127 -399l-559 -98q10 -119 78 -211q72 -96 145 -97q63 0 100 21.5t80 81.5l148 -248q-57 51 -111 51q-25 0 -106 -28q-74 -25 -150 -29q-193 4 -305 180q-98 157 -98 358zM295 582l356 65q-8 98 -57 193 q-53 96 -117 96h-2q-78 0 -131 -125q-43 -100 -49 -229z" />
<glyph unicode="f" horiz-adv-x="495" d="M94 0v1196q0 98 72 160q63 53 143 53q84 0 142 -57q61 -57 61 -127q-23 102 -109 102q-104 0 -108 -129v-115h147v-137h-147v-946h-201z" />
<glyph unicode="g" horiz-adv-x="985" d="M100 555q0 156 84 307q115 207 322 209h10q81 0 137 -31v29h191v-1155q0 -188 -174 -274l-64 -29l-258 -109l-94 328q90 -123 192 -123q25 0 60 10q90 37 117 66q31 41 30 141v74q-70 -29 -139 -29q-231 0 -340 232q-74 155 -74 354zM307 535q0 -190 62 -306 q66 -123 178 -123q106 2 106 72v608q0 70 -16 99q-20 37 -88 41q-102 0 -168 -92q-74 -104 -74 -299z" />
<glyph unicode="h" horiz-adv-x="980" d="M117 0v1321l299 86q-111 -61 -111 -240v-137q66 51 162 51h13q209 0 292 -129q70 -100 70 -327v-625h-191v631q0 180 -24 239q-37 90 -158 91q-76 0 -120 -44.5t-44 -119.5v-797h-188z" />
<glyph unicode="i" horiz-adv-x="520" d="M61 1069h316v-1071h-187v881q0 157 -129 190zM150 1265.5q0 55.5 35.5 94.5t82.5 39t82 -39t35 -94q0 -57 -35 -96.5t-82 -39.5q-49 0 -83.5 40t-34.5 95.5z" />
<glyph unicode="j" horiz-adv-x="497" d="M-55 -489q137 31 170 124q12 33 12 150v1284h317q-125 -27 -125 -184v-1071q0 -125 -51 -185q-83 -104 -323 -118zM109 1265.5q0 55.5 37.5 95.5t86.5 40q51 0 88 -40t37 -95q0 -57 -36.5 -97.5t-88.5 -40.5q-49 0 -86.5 41t-37.5 96.5z" />
<glyph unicode="k" horiz-adv-x="899" d="M117 0v1323l286 78q-102 -66 -102 -236v-518l361 422l178 2l-369 -436l291 -529q150 -276 371 -352q-199 0 -330 86q-106 68 -197 207l-149 258l-109 180l-47 -51v-434h-184z" />
<glyph unicode="l" horiz-adv-x="499" d="M156 0v1321l297 84q-63 -41 -84 -86q-25 -53 -25 -162v-1157h-188z" />
<glyph unicode="m" horiz-adv-x="1480" d="M111 0v1069h188v-45q99 51 171 51h5q184 -4 266 -108q27 49 119 82q74 27 144 26h4q348 0 348 -340l2 -735h-326q70 18 101 49q39 41 38 133v559q0 106 -44 158q-42 49 -125 49h-7q-94 0 -143 -71q-37 -50 -37 -115v-12q2 -14 2 -105l-2 -645h-186v731q0 215 -168 215 q-162 0 -162 -211v-735h-188z" />
<glyph unicode="n" horiz-adv-x="976" d="M111 -2v1071h188v-45q78 51 195 51q350 0 350 -352v-723h-326q137 39 137 190v535q0 217 -178 221q-176 0 -176 -221v-727h-190z" />
<glyph unicode="o" horiz-adv-x="964" d="M72 537q0 188 92 350q113 193 299 192q184 0 297 -192q94 -162 94 -350q0 -193 -94 -351q-115 -195 -297 -194q-184 0 -299 194q-92 161 -92 351zM289 588q0 -137 45 -271q61 -180 166 -180q82 0 121 135q27 88 26 209q0 133 -41 273q-57 184 -162 184q-86 0 -127 -139 q-28 -98 -28 -211z" />
<glyph unicode="p" horiz-adv-x="937" d="M109 -391v1462h186v-47q76 53 141 53q242 0 334 -198q59 -129 59 -363q0 -266 -100 -398q-99 -130 -295 -130h-6q-80 4 -133 39v-293q0 -150 100 -207zM295 295q0 -180 127 -180q102 0 161.5 109.5t59.5 289.5q0 211 -57 324q-54 107 -146 106h-4q-51 0 -92 -37 q-49 -47 -49 -129v-483z" />
<glyph unicode="q" horiz-adv-x="950" d="M80 518q0 233 59 365q92 199 332 198q94 0 143 -55v45h187v-1341q0 -147 100 -199l-285 84l-2 412q-57 -37 -133 -37q-227 0 -325 162q-76 124 -76 366zM266 518q0 -180 59.5 -286.5t161.5 -106.5q55 0 91 40t36 114v522q0 76 -49 114q-39 33 -92 33q-94 0 -147 -108 q-60 -115 -60 -322z" />
<glyph unicode="r" horiz-adv-x="651" d="M119 0v1071l186 -2v-55q45 57 172 57h84v-131h-82q-78 0 -126 -50t-48 -124v-586q0 -135 125 -180h-311z" />
<glyph unicode="s" horiz-adv-x="792" d="M39 172l88 88q113 -143 221 -143q59 0 97 34.5t38 84.5q0 55 -49 120l-287 363q-57 70 -57 153q0 205 254 205q49 0 116.5 -26.5t90.5 -26.5q88 0 141 51l-141 -211q-100 98 -195 99q-31 0 -53 -20.5t-22 -45.5q0 -29 30 -68l301 -391q72 -96 72 -194q0 -254 -329 -254 h-5q-176 0 -311 182z" />
<glyph unicode="t" horiz-adv-x="583" d="M96 952v121h33v141l299 111q-72 -72 -76 -80q-37 -53 -37 -145v-27h158v-121h-158v-739q0 -109 111 -109q82 0 109 111q-2 -223 -187 -223q-219 0 -219 272v688h-33z" />
<glyph unicode="u" horiz-adv-x="976" d="M88 344v725h320q-133 -41 -134 -199v-542q0 -201 179 -201q186 0 186 205v737h188v-1069h-188v57q-70 -59 -190 -63h-9q-352 0 -352 350z" />
<glyph unicode="v" horiz-adv-x="903" d="M45 1069h213l211 -604l133 412q8 31 8 61q0 100 -102 131h297l-365 -1098z" />
<glyph unicode="w" horiz-adv-x="1212" d="M35 1069l217 2l180 -547l168 559l207 -557l65 228q23 80 35 127q8 23 8 49q0 53 -29.5 93t-74.5 48h293l-326 -1100l-209 541l-166 -541z" />
<glyph unicode="x" horiz-adv-x="888" d="M37 0l301 512l-293 559l231 -2l183 -358l106 180q18 39 19 72q0 86 -105 106h350l-297 -502l275 -532q59 -117 151 -199q94 -86 181 -94q-215 2 -330 68q-111 63 -215 245l-182 314l-217 -369h-158z" />
<glyph unicode="y" horiz-adv-x="907" d="M66 1069h210l213 -631l121 400q10 45 11 75q0 131 -115 156h317l-485 -1554h-137l186 596z" />
<glyph unicode="z" horiz-adv-x="935" d="M45 -2l487 948h-430v123l725 2l-491 -944h264q172 0 234 125l-62 -252z" />
<glyph unicode="{" horiz-adv-x="471" d="M4 707q135 27 135 190q0 53 -2 100t-2 105q0 147 19 198q18 49 77 60q4 0 175 4q-102 -16 -117 -227l-4 -293q-8 -106 -146 -129v-6q100 -16 133 -97q16 -37 17 -135q0 -45 -2 -84t-2 -88q0 -293 121 -305h-148q-68 6 -96.5 50t-28.5 157v8v37l4 174q2 66 2 111 q0 158 -135 170z" />
<glyph unicode="|" horiz-adv-x="690" d="M395 -342v1706h131v-1706h-131z" />
<glyph unicode="}" d="M94 0q121 12 121 305q0 51 -2 90v84q0 102 14 133q33 80 135 97v6q-137 23 -147 129q-2 98 -2 293q-14 211 -119 227q170 -4 174 -4q59 -10 78 -60q18 -51 19 -198q0 -57 -2.5 -104.5t-2.5 -100.5q0 -164 136 -190q-135 -12 -136 -170q0 -43 2 -111l5 -211v-8 q0 -113 -29 -157t-96 -50h-148z" />
<glyph unicode="~" horiz-adv-x="1073" d="M260 1284q72 164 184 164q55 0 148 -45q86 -41 117 -41q55 0 104 90l78 -63q-33 -68 -57 -99q-55 -66 -129 -65q-43 0 -142 45q-92 41 -123 41q-53 0 -104 -88z" />
<glyph unicode="&#xa1;" horiz-adv-x="530" d="M84 -12q70 33 88 96q6 39 8 133l31 854h160l30 -983l-317 -119v19zM172 1260q0 55 35 95t84 40q47 0 82 -39t35 -96q0 -59 -35 -97.5t-86 -38.5q-49 0 -82 41.5t-33 94.5z" />
<glyph unicode="&#xa2;" horiz-adv-x="815" d="M41 549q0 180 88 330q102 170 268 194v92h101v-92q35 -6 92 -31q47 -20 80 -20q61 0 131 57l-146 -245q-72 96 -157 96v-797q90 12 168 88l77 -108q-135 -111 -245 -117v-123h-101v127q-184 29 -276 193q-80 141 -80 356zM252 543q0 -119 35 -230q39 -119 110 -161v747 q-68 -45 -108 -154q-37 -93 -37 -202z" />
<glyph unicode="&#xa3;" horiz-adv-x="1112" d="M92 0q76 190 105 276q43 137 45 248l-90 2v140l86 2q0 45 -13 139q-12 98 -12 137q0 389 352 389q39 0 119 -28.5t113 -28.5q119 0 188 65l-182 -268q-82 104 -207 105q-131 0 -131 -230q0 -39 2 -59l8 -74q8 -63 8 -147h248v-144h-248q-6 -231 -77 -391h258 q207 0 286 160l-78 -293h-780z" />
<glyph unicode="&#xa4;" horiz-adv-x="1239" d="M47 680v104h141q37 236 150 379q135 172 352 172q66 0 156 -39q92 -39 139 -39q63 0 158 78l-187 -284q-111 133 -247 133q-221 0 -263 -400h359l-47 -102h-318l2 -92l271 -2l-47 -103h-215q8 -131 69 -229q70 -119 193 -119q133 0 237 133l84 -92q-88 -106 -153 -145 q-82 -47 -191 -47q-211 0 -344 147q-117 129 -158 352h-139v103l129 2v90h-131z" />
<glyph unicode="&#xa5;" horiz-adv-x="1056" d="M49 1313h250l254 -492l127 244q31 57 31 104q0 106 -138 144h388l-340 -660h294v-73h-299v-68h299v-74h-299v-438h-221v438h-284v74h284v68h-284v73h280z" />
<glyph unicode="&#xa6;" horiz-adv-x="483" d="M190 -10v708h121v-714zM193 813v705h118v-705h-118z" />
<glyph unicode="&#xa7;" horiz-adv-x="1038" d="M47 621q0 152 158 280q-72 88 -72 182q0 160 150 230q113 53 280 53q123 0 244 -27v-204q-143 47 -205 41q-43 -6 -63 -7q-35 0 -74 -18q-49 -20 -49 -49q0 -41 80 -92l163 -105q129 -88 168 -127q74 -82 74 -184q0 -141 -141 -264q92 -96 92 -215q0 -104 -70 -187 q-111 -133 -401 -133q-131 0 -254 41v193q188 -47 231 -43q14 0 29.5 1t25 2t13.5 1q49 0 94 24q55 27 55 78q0 47 -153 146l-160 100q-121 80 -153 115q-62 64 -62 168zM287 698q0 -49 108 -120l219 -142q43 39 43 92q0 45 -36 78q-10 10 -82 56l-203 133q-49 -42 -49 -97z " />
<glyph unicode="&#xa8;" horiz-adv-x="735" d="M205 1491q0 41 28.5 68.5t67.5 27.5q41 2 68.5 -26.5t27.5 -69.5q0 -39 -27.5 -67.5t-68.5 -28.5q-39 0 -67.5 28.5t-28.5 67.5zM565 1491q0 41 29 68.5t70 27.5q39 2 67.5 -26.5t28.5 -69.5q0 -39 -29 -67.5t-69 -28.5q-39 0 -68 28.5t-29 67.5z" />
<glyph unicode="&#xa9;" horiz-adv-x="1630" d="M41 688q0 307 240 526q207 184 495 185q307 0 527 -238q186 -201 186 -477q0 -319 -242 -534q-207 -184 -483 -185q-322 0 -537 238q-186 204 -186 485zM147 684q0 -279 205 -465q176 -160 412 -160q279 0 459 205q158 182 157 422q0 270 -202 461q-174 160 -422 160 q-262 0 -451 -207q-158 -180 -158 -416zM367 698q0 168 94 299q109 154 276 154q55 0 116.5 -26.5t94.5 -26.5q47 0 92 57l-100 -172q-70 82 -168 82q-123 -4 -197 -129q-63 -106 -63 -238q0 -172 53 -295q68 -152 209 -151q104 0 191 55l24 -57q-145 -72 -256 -70 q-195 4 -289 170q-77 137 -77 348z" />
<glyph unicode="&#xaa;" horiz-adv-x="892" d="M98 496v147h654v-147h-654zM193 944q0 80 59 139q45 41 264 101v45q-4 117 -151 117q-49 0 -70 -15.5t-39 -62.5l37 123l125 2q66 0 119 -31q70 -39 69 -119v-493h-90v36q-51 -39 -139 -36q-86 0 -137 67q-47 59 -47 127zM285 950q0 -59 26 -104q35 -53 88 -51 q117 0 117 110v232q-45 -12 -133 -47q-98 -54 -98 -140z" />
<glyph unicode="&#xab;" horiz-adv-x="741" d="M82 408v165l321 410l-170 -491l170 -478zM328 408v165l321 410l-170 -491l170 -478z" />
<glyph unicode="&#xac;" horiz-adv-x="1130" d="M68 385v96h886v-481h-215v385h-671z" />
<glyph unicode="&#xad;" horiz-adv-x="1069" d="M82 641l45 154h829l-47 -154h-827z" />
<glyph unicode="&#x2212;" horiz-adv-x="1069" d="M82 641l45 154h829l-47 -154h-827z" />
<glyph unicode="&#xae;" horiz-adv-x="1630" d="M41 688q0 307 240 526q207 184 495 185q307 0 527 -238q186 -201 186 -477q0 -319 -242 -534q-207 -184 -483 -185q-322 0 -537 238q-186 204 -186 485zM147 684q0 -279 205 -465q176 -160 412 -160q129 0 252 54q88 41 131 77q-127 -18 -225 150l-162 278h-92v-421h-123 v825q0 57 -45 90q-35 29 -72 29h391q143 0 214 -65.5t69 -196.5q0 -215 -205 -252l178 -318q41 -72 92 -71q25 0 45 18q4 2 11 8q158 182 157 422q0 270 -202 461q-174 160 -422 160q-262 0 -451 -207q-158 -180 -158 -416zM668 678h141q170 0 174 201q2 96 -43 150t-135 54 l-137 -2v-403z" />
<glyph unicode="&#xaf;" horiz-adv-x="747" d="M223 1475v188h475q55 0 84 43h19v-174h-467q-68 0 -92 -57h-19z" />
<glyph unicode="&#x2c9;" horiz-adv-x="747" d="M223 1475v188h475q55 0 84 43h19v-174h-467q-68 0 -92 -57h-19z" />
<glyph unicode="&#xb0;" horiz-adv-x="847" d="M268 1061q0 104 72 174t176 70q96 0 168 -72t72 -170q0 -104 -70 -174q-72 -72 -172 -72q-104 0 -174 70q-72 72 -72 174zM340 1061q0 -72 50 -123t122 -51t122 50t50 122q0 74 -50 125t-126 51q-68 0 -118 -52t-50 -122z" />
<glyph unicode="&#xb1;" horiz-adv-x="1087" d="M66 682l49 162l313 2v377h166v-377h364l-49 -162l-315 -2v-377h-166v377h-362zM72 49l45 156h829l-47 -154z" />
<glyph unicode="&#xb2;" horiz-adv-x="862" d="M184 588l391 641q31 53 31 78q0 35 -59 34q-57 0 -158 -81l-78 208q66 -39 142 -24q96 20 110 20q113 0 170 -57q49 -47 49 -121q0 -57 -24 -96l-299 -485h184q84 0 123 20q49 27 82 100l-57 -237h-607z" />
<glyph unicode="&#xb3;" horiz-adv-x="825" d="M168 1448q86 -35 123 -35q16 0 57 19q57 25 131 24q113 0 185 -57q86 -63 86 -178q0 -119 -80 -170q100 -61 100 -211q0 -143 -100 -217q-88 -63 -230 -64q-150 0 -254 146l76 92q78 -104 182 -105q154 0 154 156q0 127 -149 127h-89v121h80q51 0 95.5 32.5t44.5 81.5 q0 74 -43 99q-27 14 -109 14q-78 -2 -143 -80z" />
<glyph unicode="&#xb4;" horiz-adv-x="679" d="M377 1401l90 260h262q-35 -2 -88 -62l-172 -198h-92z" />
<glyph unicode="&#xb5;" horiz-adv-x="1101" d="M86 983h186v-537q0 -90 11 -135q37 -143 96 -184q84 -55 141 -55q113 0 180 159q51 117 52 230v522h186v-981h-186v188q-84 -213 -248 -213q-96 0 -160 58q-33 33 -72 96l-6 -504h-176z" />
<glyph unicode="&#x3bc;" horiz-adv-x="1101" d="M86 983h186v-537q0 -90 11 -135q37 -143 96 -184q84 -55 141 -55q113 0 180 159q51 117 52 230v522h186v-981h-186v188q-84 -213 -248 -213q-96 0 -160 58q-33 33 -72 96l-6 -504h-176z" />
<glyph unicode="&#xb6;" horiz-adv-x="1026" d="M63 979q0 135 74 238q104 150 342 149h385v-1581h-170v1425h-100v-1425h-170v815q-160 0 -260.5 106.5t-100.5 272.5z" />
<glyph unicode="&#xb7;" horiz-adv-x="569" d="M123 492q0 57 39 95t96 38q53 0 92 -39t39 -92q0 -55 -39 -95.5t-92 -40.5q-57 0 -96 39.5t-39 94.5z" />
<glyph unicode="&#x2219;" horiz-adv-x="569" d="M123 492q0 57 39 95t96 38q53 0 92 -39t39 -92q0 -55 -39 -95.5t-92 -40.5q-57 0 -96 39.5t-39 94.5z" />
<glyph unicode="&#xb8;" horiz-adv-x="645" d="M408 -305l20 43q53 -29 80 -29q74 0 74 62q0 49 -60 49q-14 0 -30 -10l-43 22l24 148h68l-19 -105q68 0 74 -2q96 -29 96 -109q0 -55 -39 -89.5t-94 -34.5q-77 0 -151 55z" />
<glyph unicode="&#xb9;" horiz-adv-x="602" d="M133 1315l291 160v-887h-135v708q0 -2 2 7q2 6 4 8q0 2 -162 4z" />
<glyph unicode="&#xba;" horiz-adv-x="864" d="M147 494v147h656v-147h-656zM254 1075q0 137 70 232q70 98 165 98q96 0 168 -98q70 -94 70 -231.5t-70 -233.5q-72 -96 -168 -97q-94 0 -165 97q-70 96 -70 233zM356 1063q10 -111 59.5 -187.5t104.5 -72.5q49 4 81 71.5t32 165.5q0 94 -37 191q-45 125 -123 119 q-55 -6 -90 -90q-35 -88 -27 -197z" />
<glyph unicode="&#xbb;" horiz-adv-x="763" d="M33 14l170 478l-170 491l321 -410v-165zM279 14l170 478l-170 491l321 -410v-165z" />
<glyph unicode="&#xbc;" horiz-adv-x="1447" d="M182 -35l961 1526h180l-963 -1526h-178zM203 1335l276 142v-916h-172v774h-104zM782 176l381 692l156 2v-583h117v-111h-117v-176h-266q92 31 92 111v65h-363zM963 289l182 -2l2 346z" />
<glyph unicode="&#xbd;" horiz-adv-x="1564" d="M174 1300l305 177v-916h-172v739h-133zM182 -35l967 1526h180l-967 -1526h-180zM934 -2l405 635q27 39 27 74q0 59 -74 59q-68 0 -155 -94l-78 207q70 -45 125 -45q14 0 65 20t74 20q104 2 166 -51q49 -45 49 -123q0 -70 -43 -141l-289 -444h185q82 0 122 22q47 25 82 99 l-57 -238h-604z" />
<glyph unicode="&#xbe;" horiz-adv-x="1619" d="M106 1448q53 -35 123 -35q20 0 60 19q59 25 129 24q111 0 186 -57q86 -63 86 -178q0 -119 -82 -170q102 -61 103 -211q0 -143 -101 -217q-88 -63 -229 -64q-150 0 -254 146l76 92q84 -115 180 -115q154 -2 154 166q0 131 -150 133h-88v111h82q51 0 95 34.5t44 83.5 q0 127 -151 127q-86 0 -144 -94zM301 -35l971 1526h180l-971 -1526h-180zM901 176l381 692l156 2v-583h118v-111h-118v-176h-264l6 14q86 0 86 88v74h-365zM1085 289l181 -2l2 340z" />
<glyph unicode="&#xbf;" horiz-adv-x="972" d="M45 430q0 172 111 285q109 111 274 121v251h221l2 -436q-119 29 -168 29q-102 0 -157 -80q-51 -70 -52 -188q0 -268 228 -269q96 0 153 33q29 16 125 98l176 -284h-20q-47 66 -184 65q-47 0 -127 -32.5t-131 -32.5q-231 0 -341 104.5t-110 335.5zM416 1274q0 55 38 93 t91 38t90 -39t37 -92q0 -55 -37 -93t-90 -38q-55 0 -92 38t-37 93z" />
<glyph unicode="&#xc0;" horiz-adv-x="937" d="M29 0l411 1325l478 -1325h-236l-104 315q-31 -25 -76 -24q-33 0 -78 32.5t-96 32.5q-55 0 -72 -47q-27 -76 -33 -96q-8 -31 -8 -59q0 -109 143 -154h-329zM225 1661h262l93 -260h-93l-172 198q-51 58 -90 62zM287 414q33 25 73 24q33 0 72 -18q45 -16 47 -17q41 0 56 27 l-132 375z" />
<glyph unicode="&#xc1;" horiz-adv-x="935" d="M18 -10l420 1360l488 -1360h-242l-106 323q-31 -25 -78 -24q-31 0 -78 33q-45 33 -98 32q-55 0 -72 -47l-35 -98q-10 -37 -10 -64q0 -109 147 -155h-336zM283 414q33 27 73 26q33 0 74 -18q43 -18 47 -19q43 0 58 27l-134 385zM344 1477l90 260h262q-37 -4 -88 -64 l-172 -196h-92z" />
<glyph unicode="&#xc2;" horiz-adv-x="931" d="M29 0l411 1327l480 -1327h-238l-104 315q-31 -25 -76 -24q-33 0 -78 32.5t-96 32.5q-53 0 -70 -47q-6 -14 -18.5 -48t-16.5 -48q-8 -31 -8 -59q0 -109 143 -154h-329zM188 1423l25 23l49 51l230 252l204 -233l62 -68l28 -25h-184l-110 131l-62 -69q-23 -27 -22 -35 q0 -16 24 -27h-244zM287 414q33 27 73 26q33 0 74 -18t45 -19q41 0 56 27l-132 375z" />
<glyph unicode="&#xc3;" horiz-adv-x="933" d="M29 0l411 1325l478 -1325h-236l-104 315q-31 -25 -76 -24q-33 0 -78 32.5t-96 32.5q-55 0 -72 -47q-27 -76 -33 -96q-8 -31 -8 -59q0 -109 143 -154h-329zM195 1546q66 72 151 72q53 0 166 -59q45 -25 78 -25q74 0 94 68l27 -117q-74 -74 -158 -74q-43 0 -145 59 q-53 29 -86 29q-82 0 -101 -78zM287 414q33 25 73 24q33 0 72 -18q45 -16 47 -17q41 0 56 27l-132 375z" />
<glyph unicode="&#xc4;" horiz-adv-x="972" d="M29 0l411 1325l478 -1325h-236l-104 315q-31 -25 -76 -24q-33 0 -78 32.5t-96 32.5q-55 0 -72 -47q-27 -76 -33 -96q-8 -31 -8 -59q0 -109 143 -154h-329zM195 1491q0 41 28.5 68.5t69.5 27.5q39 2 66.5 -26.5t27.5 -69.5q0 -39 -27.5 -67.5t-68.5 -28.5 q-39 0 -67.5 28.5t-28.5 67.5zM287 414q33 25 73 24q33 0 72 -18q45 -16 47 -17q41 0 56 27l-132 375zM555 1491q0 41 28.5 68.5t69.5 27.5q39 2 68 -26.5t29 -69.5q0 -39 -29 -67.5t-70 -28.5q-39 0 -67.5 28.5t-28.5 67.5z" />
<glyph unicode="&#xc5;" horiz-adv-x="972" d="M29 0l411 1325l478 -1325h-236l-104 315q-31 -25 -76 -24q-33 0 -78 32.5t-96 32.5q-55 0 -72 -47q-27 -76 -33 -96q-8 -31 -8 -59q0 -109 143 -154h-329zM287 414q33 25 73 24q33 0 72 -18q45 -16 47 -17q41 0 56 27l-132 375zM342 1554q0 59 41 100.5t102 41.5 q57 0 97.5 -41t40.5 -99q0 -59 -41 -100t-101 -41q-57 0 -98 41t-41 98zM406 1554q0 -31 22.5 -53t52.5 -22q33 0 55.5 22.5t22.5 52.5q0 35 -22.5 57.5t-55 22.5t-54 -23.5t-21.5 -56.5z" />
<glyph unicode="&#xc6;" horiz-adv-x="1624" d="M59 0l410 1325l279 -768v563q0 72 -44.5 126t-111.5 67h866l80 -320q-143 172 -272 176h-293v-387h362v-147l-362 -2v-490h522v-143h-784l-103 315q-31 -25 -78 -24q-31 0 -75.5 32.5t-98 32.5t-69.5 -47q-25 -76 -33 -96q-10 -37 -10 -63q0 -98 143 -150h-328zM317 414 q35 25 74 24q31 0 72 -18q43 -16 47 -17q41 0 55 27l-131 375z" />
<glyph unicode="&#xc7;" horiz-adv-x="1052" d="M29 629q0 262 112 461q141 250 398 245q68 0 149 -41q86 -41 123 -41q49 0 80 17.5t82 68.5l-164 -280q-104 125 -248 125q-147 -4 -217 -189q-51 -135 -51 -321q0 -229 61 -371q72 -166 209 -166q74 0 131 35q47 31 109 109l82 -80q-76 -113 -150 -162q-80 -55 -190 -55 q-246 0 -389 211q-127 182 -127 434zM442 -297l23 43q53 -29 80 -29q72 0 71 60q0 51 -59 51q-14 0 -31 -10l-43 20l27 150h68l-19 -105q66 0 72 -2q96 -29 96 -108q0 -55 -39 -90t-94 -35q-78 0 -152 55z" />
<glyph unicode="&#xc8;" horiz-adv-x="995" d="M2 1305h885l82 -328q-59 106 -105 139q-63 51 -182 51h-291v-417h371v-132l-371 -2v-522h533v-137h-762v1149q0 76 -45 132.5t-115 66.5zM256 1632h262l92 -260h-92l-172 199q-51 61 -90 61z" />
<glyph unicode="&#xc9;" horiz-adv-x="1005" d="M12 1313h867l82 -320q-59 104 -103 137q-66 47 -180 48l-285 2v-408h363v-127l-363 -2v-508h522v-135h-747v1120q0 72 -45 127.5t-111 65.5zM377 1401l90 260h262q-35 -2 -88 -62l-172 -198h-92z" />
<glyph unicode="&#xca;" horiz-adv-x="1003" d="M14 1313h869l80 -320q-61 109 -103 137q-66 49 -180 50h-285v-408h365v-127l-365 -2v-508h525v-135h-750v1120q0 74 -44 129.5t-112 63.5zM162 1397l24 22q4 2 47 51l232 252l205 -233l61 -68l27 -24h-183l-110 131l-64 -70q-20 -23 -20 -35q0 -16 22 -26h-241z" />
<glyph unicode="&#xcb;" horiz-adv-x="980" d="M12 1313h867l82 -320q-59 104 -103 137q-66 47 -180 48l-285 2v-408h363v-127l-363 -2v-508h522v-135h-747v1120q0 72 -45 127.5t-111 65.5zM205 1491q0 41 28.5 68.5t67.5 27.5q41 2 68.5 -26.5t27.5 -69.5q0 -39 -27.5 -67.5t-68.5 -28.5q-39 0 -67.5 28.5t-28.5 67.5z M565 1491q0 41 29 68.5t70 27.5q39 2 67.5 -26.5t28.5 -69.5q0 -39 -29 -67.5t-69 -28.5q-39 0 -68 28.5t-29 67.5z" />
<glyph unicode="&#xcc;" d="M-18 1655h262l92 -260h-92l-172 196q-51 60 -90 64zM23 1313h360v-1313h-201v1092q1 178 -159 221z" />
<glyph unicode="&#xcd;" d="M16 1305h369v-1348h-205v1120q0 185 -164 228zM104 1477l91 260h262q-37 -2 -88 -64l-172 -196h-93z" />
<glyph unicode="&#xce;" d="M-66 1401l6 5l5 5q2 2 5 6t7 6l49 52l230 251l204 -233q31 -35 64 -68l26 -24h-184l-110 131l-62 -70q-20 -23 -20 -35q0 -16 22 -26h-242zM23 1313h360v-1313h-201v1092q1 178 -159 221z" />
<glyph unicode="&#xcf;" d="M-45 1491q0 41 28.5 68.5t67.5 27.5q41 2 68.5 -26.5t27.5 -69.5q0 -39 -28.5 -67.5t-67.5 -28.5t-67.5 28.5t-28.5 67.5zM23 1313h360v-1313h-201v1092q1 178 -159 221zM315 1491q0 41 29 68.5t70 27.5q39 2 66.5 -26.5t27.5 -69.5q0 -39 -27.5 -67.5t-68.5 -28.5 q-39 0 -68 28.5t-29 67.5z" />
<glyph unicode="&#xd0;" horiz-adv-x="1161" d="M12 606v146h125v368q0 76 -39 133q-33 49 -80 60h482q246 0 387 -209q123 -184 123 -449q0 -258 -123 -446q-137 -209 -375 -209h-373l-2 608zM365 143h141q131 -2 196.5 112t65.5 339q0 328 -80 463q-66 109 -196 108l-125 2v-417h211v-144h-211z" />
<glyph unicode="&#xd1;" horiz-adv-x="1017" d="M82 0v1313l551 -752v553q0 170 -158 199h297v-1313l-553 750v-750h-137zM147 1532q66 72 152 72q57 0 166 -60q47 -25 80 -24q74 0 92 67l29 -119q-76 -72 -158 -71q-45 0 -146 57q-51 31 -86 31q-82 0 -100 -78z" />
<glyph unicode="&#xd2;" horiz-adv-x="1165" d="M61 631q0 244 119 448q143 246 379 246q231 0 377 -246q119 -205 119 -448q0 -246 -119 -451q-145 -246 -377 -246q-236 0 -379 246q-119 205 -119 451zM326 696q0 -178 61 -356q84 -233 217 -234q109 0 162 179q37 123 37 274q0 186 -58 361q-78 238 -213 237 q-111 0 -167 -180q-39 -125 -39 -281zM352 1653h262l93 -260h-93l-172 198q-53 62 -90 62z" />
<glyph unicode="&#xd3;" horiz-adv-x="1169" d="M61 631q0 244 119 448q143 246 377 246t379 -246q119 -205 119 -448q0 -246 -119 -451q-145 -246 -378.5 -246t-377.5 246q-119 205 -119 451zM326 696q0 -178 61 -356q80 -233 217 -234q109 0 162 179q37 123 37 274q0 186 -58 361q-78 238 -213 237q-113 0 -167 -180 q-39 -125 -39 -281zM403 1477l93 260h262q-39 -4 -90 -64l-172 -196h-93z" />
<glyph unicode="&#xd4;" horiz-adv-x="1159" d="M70 655q0 242 118 441q139 240 371 239q229 0 371 -239q117 -199 117 -441q0 -238 -117 -438q-141 -240 -371 -240q-231 0 -371 240q-118 198 -118 438zM236 1391l22 22l49 51l230 252l204 -233l62 -68l28 -24h-184l-110 131l-62 -72q-23 -23 -22 -33q0 -16 24 -26h-241z M330 723q0 -174 61 -348q76 -227 213 -228q109 0 160 172q35 123 35 269q0 178 -58 350q-78 231 -209 231q-109 0 -163 -176q-39 -123 -39 -270z" />
<glyph unicode="&#xd5;" horiz-adv-x="1167" d="M70 655.5q0 239.5 118 438.5q139 240 369 239q233 0 371 -239q119 -199 119 -438.5t-119 -438.5q-137 -240 -371 -240q-229 0 -369 240q-118 199 -118 438.5zM283 1546q66 72 153 72q53 0 166 -59q45 -25 78 -25q74 0 94 68l27 -117q-74 -74 -158 -74q-43 0 -145 59 q-53 29 -86 29q-82 0 -101 -78zM330 721q0 -170 59 -348q80 -225 215 -226q104 0 158 172q37 119 37 269q0 178 -58 350q-78 231 -209 231q-109 0 -163 -176q-39 -122 -39 -272z" />
<glyph unicode="&#xd6;" horiz-adv-x="1189" d="M70 655.5q0 239.5 118 438.5q139 240 369 239q233 0 371 -239q119 -199 119 -438.5t-119 -438.5q-137 -240 -371 -240q-229 0 -369 240q-118 199 -118 438.5zM274 1491q0 41 29 68.5t70 27.5q39 2 67.5 -26.5t28.5 -69.5q0 -39 -28.5 -67.5t-69.5 -28.5q-39 0 -68 28.5 t-29 67.5zM330 721q0 -170 59 -348q80 -225 215 -226q104 0 158 172q37 119 37 269q0 178 -58 350q-78 231 -209 231q-109 0 -163 -176q-39 -122 -39 -272zM637 1491q0 41 27.5 68.5t68.5 27.5q41 2 68.5 -26.5t27.5 -69.5q0 -39 -28.5 -67.5t-69.5 -28.5q-39 0 -66.5 28.5 t-27.5 67.5z" />
<glyph unicode="&#xd7;" horiz-adv-x="1038" d="M92 422l297 295l-295 291l115 114l293 -293l295 295l114 -114l-295 -295l295 -295l-114 -113l-293 293l-295 -295z" />
<glyph unicode="&#xd8;" horiz-adv-x="1191" d="M66 657q0 240 120 445q141 236 369 235q180 0 291 -129l74 129l65 -4l-100 -176q158 -207 157 -500q0 -240 -120 -444q-141 -236 -367 -236q-152 0 -274 117l-43 -74l-70 -2l72 125q-174 180 -174 514zM326 725q0 -229 49 -338l338 588q-78 197 -178 196 q-109 0 -166 -180q-43 -131 -43 -266zM410 330q92 -184 188 -185q104 0 160 181q39 123 39 260q0 180 -52 327z" />
<glyph unicode="&#xd9;" horiz-adv-x="1073" d="M78 494v809h223v-803q0 -172 29 -258q47 -141 176 -142q201 0 201 402v602q0 63 -37 119q-45 70 -125 80h389v-783q0 -268 -82 -401q-102 -166 -344 -166q-246 0 -348 160q-82 125 -82 381zM262 1659h262l92 -260h-92l-172 198q-51 58 -90 62z" />
<glyph unicode="&#xda;" horiz-adv-x="1085" d="M78 494v809h223v-803q0 -178 27 -260q47 -139 178 -140q199 0 199 402v602q0 59 -37 119q-47 72 -125 80h391v-783q0 -268 -82 -401q-102 -166 -344 -166q-246 0 -348 158q-82 127 -82 383zM344 1477l90 260h262q-37 -4 -88 -64l-172 -196h-92z" />
<glyph unicode="&#xdb;" horiz-adv-x="1081" d="M86 522v791h219v-783q0 -168 29 -254q45 -137 172 -137q197 0 196 393v586q0 61 -36 117q-43 66 -121 78l381 -2v-762q0 -258 -80 -391q-98 -162 -338 -162t-340 156q-82 120 -82 370zM205 1397l24 22q20 20 47 51l232 252l205 -231l61 -68l27 -26h-183l-110 133l-62 -72 q-23 -27 -22 -35q0 -18 25 -26h-244z" />
<glyph unicode="&#xdc;" horiz-adv-x="1110" d="M86 522v789h219v-781q0 -168 29 -254q45 -137 172 -137q197 0 196 393v586q0 59 -36 115q-47 68 -121 80l381 -2v-762q0 -258 -80 -391q-100 -162 -338 -162q-240 0 -340 156q-82 120 -82 370zM236 1491q0 41 27.5 68.5t68.5 27.5q41 2 68.5 -26.5t27.5 -69.5 q0 -39 -28.5 -67.5t-67.5 -28.5q-41 0 -68.5 28.5t-27.5 67.5zM596 1491q0 41 28.5 68.5t67.5 27.5q41 2 68.5 -26.5t27.5 -69.5q0 -39 -28.5 -67.5t-67.5 -28.5q-41 0 -68.5 28.5t-27.5 67.5z" />
<glyph unicode="&#xdd;" horiz-adv-x="1017" d="M43 1313h250l254 -492l127 244q35 70 35 119q0 104 -131 129h376l-344 -670v-643h-221v645zM365 1436l86 247h241q-35 -4 -82 -59l-159 -188h-86z" />
<glyph unicode="&#xde;" horiz-adv-x="1044" d="M4 1313h383v-244h100q459 0 459 -381q0 -246 -172 -321q-106 -49 -387 -50l-2 -317h-225v1106q0 187 -156 207zM387 449l90 -3q129 0 187 48q63 55 63 194q0 125 -52 186.5t-155 59.5h-133v-485z" />
<glyph unicode="&#xdf;" horiz-adv-x="1165" d="M203 -272v1249q0 211 94 287q59 51 117 59q33 6 135 6q180 -4 260 -65q92 -72 92 -238q0 -147 -131 -242q-33 -25 -33 -30q0 -2 56 -27q125 -57 180 -125q59 -78 59 -213q0 -178 -102 -287q-125 -137 -330 -137q-68 0 -147 27v168q119 -29 149 -29q168 0 180 195 q12 223 -61 260l-129 55q-92 37 -100 111q-8 76 92 143q100 70 100 152q0 45 -41 92q-39 45 -92 45q-92 0 -125 -58q-23 -45 -23 -149v-1057q0 -63 58 -96q72 -43 317 -96h-575z" />
<glyph unicode="&#xe0;" horiz-adv-x="890" d="M29 340q0 186 161 285q88 49 330 114q0 76 -31 129q-37 61 -112 62q-121 0 -182 -101l-148 242q59 -55 143 -55q16 0 90 28.5t121 28.5q131 0 217.5 -80t86.5 -207v-786h-187v33q-63 -33 -178 -33q-129 0 -221 104q-90 107 -90 236zM176 1473h262l92 -261h-92l-172 199 q-53 62 -90 62zM223 336q0 -82 37 -141q43 -70 121 -70q61 0 99 44t38 118v319q-127 -37 -190 -78q-105 -69 -105 -192z" />
<glyph unicode="&#xe1;" horiz-adv-x="897" d="M29 340q0 186 161 285q88 49 330 114q0 76 -31 129q-37 61 -112 62q-121 0 -182 -101l-148 242q59 -55 143 -55q16 0 90 28.5t121 28.5q131 0 217.5 -80t86.5 -207v-786h-187v33q-63 -33 -178 -33q-129 0 -221 104q-90 107 -90 236zM223 336q0 -82 37 -141 q43 -70 121 -70q61 0 99 44t38 118v319q-127 -37 -190 -78q-105 -69 -105 -192zM293 1235l92 260h262q-37 0 -90 -61l-172 -199h-92z" />
<glyph unicode="&#xe2;" horiz-adv-x="890" d="M29 340q0 186 161 285q88 49 330 114q0 76 -31 129q-37 61 -112 62q-121 0 -182 -101l-148 242q59 -55 143 -55q16 0 90 28.5t121 28.5q131 0 217.5 -80t86.5 -207v-786h-187v33q-63 -33 -178 -33q-129 0 -221 104q-90 107 -90 236zM111 1204l24 23l49 51l230 252 l204 -234l62 -67l29 -25h-185l-110 131l-62 -69q-23 -27 -22 -35q0 -18 24 -27h-243zM223 336q0 -82 37 -141q43 -70 121 -70q61 0 99 44t38 118v319q-127 -37 -190 -78q-105 -69 -105 -192z" />
<glyph unicode="&#xe3;" horiz-adv-x="880" d="M29 340q0 186 161 285q88 49 330 114q0 76 -31 129q-37 61 -112 62q-121 0 -182 -101l-148 242q59 -55 143 -55q16 0 90 28.5t121 28.5q131 0 217.5 -80t86.5 -207v-786h-187v33q-63 -33 -178 -33q-129 0 -221 104q-90 107 -90 236zM102 1315q63 70 152 69q59 0 166 -57 q45 -27 80 -27q72 0 92 70l26 -119q-72 -72 -155 -71q-45 0 -146 57q-51 31 -86 31q-84 0 -100 -80zM223 336q0 -82 37 -141q43 -70 121 -70q61 0 99 44t38 118v319q-127 -37 -190 -78q-105 -69 -105 -192z" />
<glyph unicode="&#xe4;" horiz-adv-x="890" d="M29 340q0 186 161 285q88 49 330 114q0 76 -31 129q-37 61 -112 62q-121 0 -182 -101l-148 242q59 -55 143 -55q16 0 90 28.5t121 28.5q131 0 217.5 -80t86.5 -207v-786h-187v33q-63 -33 -178 -33q-129 0 -221 104q-90 107 -90 236zM123 1315q0 41 28.5 68.5t69.5 27.5 q39 2 67.5 -26.5t28.5 -69.5q0 -39 -28.5 -67.5t-69.5 -28.5q-39 0 -67.5 28.5t-28.5 67.5zM223 336q0 -82 37 -141q43 -70 121 -70q61 0 99 44t38 118v319q-127 -37 -190 -78q-105 -69 -105 -192zM485 1315q0 41 28 68.5t69 27.5q41 2 68.5 -26.5t27.5 -69.5 q0 -39 -28.5 -67.5t-67.5 -28.5q-41 0 -69 28.5t-28 67.5z" />
<glyph unicode="&#xe5;" horiz-adv-x="890" d="M39 340q0 186 164 285q84 49 327 114q2 76 -30 129q-37 59 -111 60q-123 0 -184 -99l-146 242q59 -55 142 -55q16 0 90 28.5t121 28.5q131 0 217 -80t86 -207v-786h-187v33q-63 -33 -178 -33q-127 0 -219 104.5t-92 235.5zM233 336q0 -82 37 -141q43 -70 123 -70 q59 0 97 44t38 118v319q-127 -37 -190 -78q-101 -69 -105 -192zM260 1319q0 59 41 100t102 41q57 0 97.5 -41t40.5 -98q0 -59 -41 -101t-101 -42q-57 0 -98 41t-41 100zM324 1319q0 -33 22.5 -55.5t52.5 -22.5q33 0 55.5 22.5t22.5 55.5t-22.5 55.5t-55 22.5t-54 -22.5 t-21.5 -55.5z" />
<glyph unicode="&#xe6;" horiz-adv-x="1521" d="M51 340q0 188 168 287q74 45 326 112l-2 35q0 66 -42 110t-100 44q-115 0 -178 -101l-151 242q100 -51 137 -51q35 0 96 26q68 29 119 29q186 0 268 -141q100 143 264 143q156 0 267 -125q129 -143 129 -399l-568 -100q10 -117 82 -220q74 -102 150 -102q106 0 178 115 l147 -244q-80 49 -147 49q-45 0 -113 -26q-63 -25 -106 -29q-143 0 -248 106v-100h-184v33q-74 -35 -178 -33q-145 4 -236 121q-78 102 -78 219zM248 346q0 -111 51 -170q47 -53 109 -53q57 0 96 43t39 110v320q-59 -18 -154 -57q-143 -82 -141 -193zM788 588l355 65 q-10 106 -60 197q-53 96 -112 96q-84 4 -133 -121q-40 -98 -50 -237z" />
<glyph unicode="&#xe7;" horiz-adv-x="772" d="M57 549q0 195 103 350q117 178 309 178q53 0 121 -28q61 -27 96 -27q66 0 131 57l-143 -245q-72 96 -160 96q-113 0 -184 -129q-59 -115 -60 -258q0 -158 52 -273q61 -135 165 -139q98 0 195 90l78 -108q-143 -119 -273 -119q-221 0 -333 172q-97 150 -97 383zM373 -291 l22 43q53 -29 80 -28q72 0 72 61q0 51 -60 51q-14 0 -30 -10l-43 20l24 148h70l-19 -105q66 0 72 -2q96 -29 96 -108q0 -53 -38.5 -88t-94.5 -35q-75 0 -151 53z" />
<glyph unicode="&#xe8;" horiz-adv-x="942" d="M49 535q0 195 88 350q109 190 297 190q156 0 266 -125q129 -143 129 -399l-561 -98q10 -119 78 -211q72 -96 146 -97q63 0 100 21.5t80 81.5l147 -248q-57 51 -110 51q-25 0 -107 -28q-74 -25 -149 -29q-193 4 -306 180q-98 158 -98 361zM246 1464h262l90 -260h-92 l-172 199q-51 57 -88 61zM264 582l357 65q-8 98 -58 193q-51 94 -117 98q-80 0 -133 -127q-43 -100 -49 -229z" />
<glyph unicode="&#xe9;" horiz-adv-x="937" d="M49 535q0 195 88 350q109 190 297 190q156 0 266 -125q129 -143 129 -399l-561 -98q10 -119 78 -211q72 -96 146 -97q63 0 100 21.5t80 81.5l147 -248q-57 51 -110 51q-25 0 -107 -28q-74 -25 -149 -29q-193 4 -306 180q-98 158 -98 361zM264 582l357 65q-8 98 -58 193 q-51 94 -117 98q-80 0 -133 -127q-43 -100 -49 -229zM291 1237l92 260h262q-39 0 -90 -61l-172 -199h-92z" />
<glyph unicode="&#xea;" horiz-adv-x="944" d="M49 535q0 195 88 350q109 190 297 190q156 0 266 -125q129 -143 129 -399l-561 -98q10 -119 78 -211q72 -96 146 -97q63 0 100 21.5t80 81.5l147 -248q-57 51 -110 51q-25 0 -107 -28q-74 -25 -149 -29q-193 4 -306 180q-98 158 -98 361zM139 1237l25 25q8 4 47 49 l231 254l205 -234l62 -67l26 -27h-182l-111 133l-63 -72q-20 -23 -21 -34q0 -16 23 -27h-242zM264 582l357 65q-8 98 -58 193q-51 94 -117 98q-80 0 -133 -127q-43 -100 -49 -229z" />
<glyph unicode="&#xeb;" horiz-adv-x="944" d="M49 535q0 195 88 350q109 190 297 190q156 0 266 -125q129 -143 129 -399l-561 -98q10 -119 78 -211q72 -96 146 -97q63 0 100 21.5t80 81.5l147 -248q-57 51 -110 51q-25 0 -107 -28q-74 -25 -149 -29q-193 4 -306 180q-98 158 -98 361zM170 1325q0 41 28.5 68.5 t69.5 27.5q39 0 68 -27.5t29 -68.5t-29 -68.5t-70 -27.5q-39 0 -67.5 27.5t-28.5 68.5zM264 582l357 65q-8 98 -58 193q-51 94 -117 98q-80 0 -133 -127q-43 -100 -49 -229zM532 1325q0 41 28 68.5t69 27.5t68.5 -27.5t27.5 -68.5t-28.5 -68.5t-67.5 -27.5q-41 0 -69 27.5 t-28 68.5z" />
<glyph unicode="&#xec;" horiz-adv-x="473" d="M10 1468h221l78 -247h-78l-147 188q-41 55 -74 59zM35 1069h313v-1071h-186v881q0 155 -127 190z" />
<glyph unicode="&#xed;" horiz-adv-x="458" d="M35 1069h313v-1071h-186v881q0 155 -127 190zM55 1217l78 245h221q-31 0 -75 -57l-146 -188h-78z" />
<glyph unicode="&#xee;" horiz-adv-x="483" d="M-57 1174l18 22q8 4 41 49l197 238l174 -221l51 -64l25 -24h-156l-94 124l-54 -65q-18 -25 -18 -33q0 -18 20 -26h-204zM35 1069h313v-1071h-186v881q0 155 -127 190z" />
<glyph unicode="&#xef;" horiz-adv-x="481" d="M-25 1296q0 35 22.5 62.5t55.5 27.5q35 2 56.5 -25.5t21.5 -64t-21.5 -63.5t-56.5 -27t-56.5 26.5t-21.5 63.5zM35 1069h313v-1071h-186v881q0 155 -127 190zM268 1296.5q0 36.5 21.5 63t56.5 26.5q35 2 56.5 -25.5t21.5 -64.5q0 -35 -22.5 -62.5t-55.5 -27.5 q-35 0 -56.5 27t-21.5 63.5z" />
<glyph unicode="&#xf0;" horiz-adv-x="966" d="M49 506q0 195 74 348q109 225 340 225q86 0 143 -39q0 86 -37 109l-14 -33l-115 53l17 35q-49 20 -105 21q-102 0 -145 -78l90 283l215 -89l47 109l113 -53l-45 -105q180 -92 180 -262v-1036h-205v43q-68 -45 -147 -43q-209 4 -322 207q-84 151 -84 305zM266 526 q0 -188 78 -301q68 -94 154 -94q68 0 88 43q16 33 16 102v605q0 66 -106 65q-102 0 -166 -119q-64 -115 -64 -301z" />
<glyph unicode="&#xf1;" horiz-adv-x="962" d="M72 -2v1071l190 2l-2 -45q82 51 195 51q350 0 350 -354v-723h-326q137 39 137 190v535q0 221 -178 221q-176 0 -176 -221v-727h-190zM150 1309q66 72 153 71q53 0 166 -59q47 -25 78 -25q72 0 94 68l27 -119q-76 -72 -158 -71q-43 0 -145 59q-53 29 -86 29 q-82 0 -101 -78z" />
<glyph unicode="&#xf2;" horiz-adv-x="968" d="M39 537q0 188 92 350q113 193 299 192q184 0 297 -192q94 -162 94 -350q0 -193 -94 -351q-115 -195 -297 -194q-184 0 -299 194q-92 161 -92 351zM256 588q0 -137 45 -271q61 -180 166 -180q84 0 121 135q27 88 26 209q0 135 -41 275q-57 184 -161 184q-88 0 -127 -141 q-29 -98 -29 -211zM262 1497h262l90 -260h-92l-172 197q-51 59 -88 63z" />
<glyph unicode="&#xf3;" horiz-adv-x="968" d="M39 537q0 188 92 350q113 193 299 192q184 0 297 -192q94 -162 94 -350q0 -193 -94 -351q-115 -195 -297 -194q-184 0 -299 194q-92 161 -92 351zM256 588q0 -137 45 -271q61 -180 166 -180q84 0 121 135q27 88 26 209q0 135 -41 275q-57 184 -161 184q-88 0 -127 -141 q-29 -98 -29 -211zM328 1229l90 260h262q-37 0 -88 -62l-172 -198h-92z" />
<glyph unicode="&#xf4;" horiz-adv-x="878" d="M39 537q0 188 92 350q113 193 299 192q184 0 297 -192q94 -162 94 -350q0 -193 -94 -351q-115 -195 -297 -194q-184 0 -299 194q-92 161 -92 351zM164 1176l24 22q20 20 48 51l231 252l205 -233l61 -68l27 -24h-182l-111 131l-64 -70q-20 -23 -20 -35q0 -16 23 -26h-242z M256 588q0 -137 45 -271q61 -180 166 -180q84 0 121 135q27 88 26 209q0 135 -41 275q-57 184 -161 184q-88 0 -127 -141q-29 -98 -29 -211z" />
<glyph unicode="&#xf5;" horiz-adv-x="897" d="M39 537q0 188 92 350q113 193 299 192q184 0 297 -192q94 -162 94 -350q0 -193 -94 -351q-115 -195 -297 -194q-184 0 -299 194q-92 161 -92 351zM211 1311q66 72 151 71q57 0 166 -59q45 -25 80 -25q72 0 92 68l27 -119q-72 -72 -156 -71q-43 0 -145 59q-53 29 -86 29 q-84 0 -102 -78zM256 588q0 -137 45 -271q61 -180 166 -180q84 0 121 135q27 88 26 209q0 135 -41 275q-57 184 -161 184q-88 0 -127 -141q-29 -98 -29 -211z" />
<glyph unicode="&#xf6;" horiz-adv-x="989" d="M39 537q0 188 92 350q113 193 299 192q184 0 297 -192q94 -162 94 -350q0 -193 -94 -351q-115 -195 -297 -194q-184 0 -299 194q-92 161 -92 351zM199 1313q0 41 27.5 68.5t68.5 27.5q41 2 68.5 -26.5t27.5 -69.5q0 -39 -28.5 -67.5t-67.5 -28.5q-41 0 -68.5 28.5 t-27.5 67.5zM256 588q0 -137 45 -271q61 -180 166 -180q84 0 121 135q27 88 26 209q0 135 -41 275q-57 184 -161 184q-88 0 -127 -141q-29 -98 -29 -211zM559 1313q0 41 28.5 68.5t69.5 27.5q39 2 67 -26.5t28 -69.5q0 -39 -28 -67.5t-69 -28.5q-39 0 -67.5 28.5t-28.5 67.5 z" />
<glyph unicode="&#xf7;" horiz-adv-x="1048" d="M61 635l52 158h831l-47 -158h-836zM412 438q0 41 29.5 70t70.5 29q43 0 71.5 -29t28.5 -70t-29.5 -69.5t-70.5 -28.5t-70.5 28.5t-29.5 69.5zM412 979q0 41 29.5 69.5t72.5 28.5q41 0 70.5 -28.5t29.5 -69.5q0 -43 -29.5 -71.5t-72.5 -28.5q-41 0 -70.5 29.5t-29.5 70.5z " />
<glyph unicode="&#xf8;" horiz-adv-x="1019" d="M76 537q0 201 98 362q113 190 297 191q123 0 217 -89l55 101h48l-70 -135q145 -174 145 -430q0 -197 -96 -361q-113 -193 -299 -192q-119 0 -213 86l-37 -70h-53l55 102q-147 181 -147 435zM297 590q0 -166 39 -271l254 490q-53 127 -137 127q-88 0 -127 -137 q-29 -98 -29 -209zM360 270q57 -131 150 -131q84 0 123 135q27 86 26 207q0 145 -45 279z" />
<glyph unicode="&#xf9;" horiz-adv-x="972" d="M74 344v727h319q-133 -43 -133 -201v-542q0 -201 178 -201q186 0 187 205v739h188v-1071h-188v57q-70 -59 -191 -63q-360 -4 -360 350zM274 1454h263l92 -260h-92l-172 199q-52 57 -91 61z" />
<glyph unicode="&#xfa;" horiz-adv-x="972" d="M74 344v727h319q-133 -43 -133 -201v-542q0 -201 178 -201q186 0 187 205v739h188v-1071h-188v57q-70 -59 -191 -63q-360 -4 -360 350zM315 1208l91 260h262q-37 -4 -88 -63l-172 -197h-93z" />
<glyph unicode="&#xfb;" horiz-adv-x="978" d="M74 344v727h319q-133 -43 -133 -201v-542q0 -201 178 -201q186 0 187 205v739h188v-1071h-188v57q-70 -59 -191 -63q-360 -4 -360 350zM123 1249l24 23q20 20 48 51l231 252l205 -234l61 -67l27 -25h-182l-111 131l-61 -69q-23 -27 -23 -35q0 -16 23 -27h-242z" />
<glyph unicode="&#xfc;" horiz-adv-x="978" d="M74 344v727h319q-133 -43 -133 -201v-542q0 -201 178 -201q186 0 187 205v739h188v-1071h-188v57q-70 -59 -191 -63q-360 -4 -360 350zM201 1278q0 41 27.5 68.5t68.5 29.5q41 0 68.5 -28.5t27.5 -69.5q0 -39 -28.5 -67.5t-67.5 -28.5q-41 0 -68.5 28.5t-27.5 67.5z M561 1278q0 41 27.5 68.5t68.5 29.5q41 0 69 -28.5t28 -69.5q0 -39 -29 -67.5t-68 -28.5q-41 0 -68.5 28.5t-27.5 67.5z" />
<glyph unicode="&#xfd;" horiz-adv-x="829" d="M78 1069h211l213 -631l121 400q10 45 10 75q0 131 -115 156h318l-486 -1554h-137l186 596zM315 1188l84 248h238q-35 -4 -80 -60l-158 -188h-84z" />
<glyph unicode="&#xfe;" horiz-adv-x="937" d="M109 -391v1702h186v-287q76 53 141 53q242 0 334 -198q59 -129 59 -363q0 -266 -100 -398t-301 -130q-80 4 -133 39v-293q0 -150 100 -207zM295 295q0 -180 127 -180q102 0 161.5 109.5t59.5 289.5q0 211 -57 324q-55 109 -150 106q-51 0 -92 -37q-49 -47 -49 -129v-483z " />
<glyph unicode="&#xff;" horiz-adv-x="884" d="M47 1069h213l211 -631l121 400q10 45 10 75q0 131 -115 156h320l-488 -1554h-135l185 596zM158 1272q0 41 34.5 68.5t83.5 27.5q45 0 80 -27.5t35 -68.5t-36 -68.5t-81 -27.5q-49 0 -82.5 27.5t-33.5 68.5zM477 1272q0 41 35 68.5t84 27.5q47 0 81 -27.5t34 -68.5 t-35 -68.5t-82 -27.5q-49 0 -83 27.5t-34 68.5z" />
<glyph unicode="&#x152;" horiz-adv-x="1734" d="M66 655.5q0 237.5 116 438.5q141 240 371 239q244 0 385 -264v51q0 68 -39 123t-98 70h848l80 -320l-9 2q-102 182 -264 183l-293 2v-398h363v-137l-363 -2v-508h523v-135h-748v244q-141 -266 -385 -267q-229 0 -371 240q-116 201 -116 438.5zM324 721q0 -172 61 -348 q80 -225 215 -226q104 0 158 172q35 123 35 269q0 174 -56 350q-78 231 -209 231q-111 0 -166 -176q-38 -122 -38 -272z" />
<glyph unicode="&#x153;" horiz-adv-x="1615" d="M80 537q0 188 94 350q113 193 297 192q178 0 289 -178q106 174 287 174q156 0 266 -125q129 -143 129 -399l-568 -100q8 -113 82 -213q74 -98 150 -99q115 0 178 105l148 -244q-84 53 -142 53q-35 0 -104 -28q-68 -27 -121 -31q-188 2 -303 178q-113 -180 -291 -180 q-182 0 -297 194q-94 158 -94 351zM299 588q0 -137 45 -271q57 -180 166 -180q80 0 121 135q27 88 26 209q0 137 -43 273q-57 184 -161 184q-84 0 -125 -139q-29 -98 -29 -211zM879 588l354 65q-10 106 -59 197q-53 96 -115 96q-82 2 -131 -121q-39 -98 -49 -237z" />
<glyph unicode="&#x178;" horiz-adv-x="1067" d="M43 1313h250l254 -492l127 244q35 70 35 119q0 104 -131 129h376l-344 -670v-643h-221v645zM205 1491q0 41 28.5 68.5t67.5 27.5q41 2 68.5 -26.5t27.5 -69.5q0 -39 -27.5 -67.5t-68.5 -28.5q-39 0 -67.5 28.5t-28.5 67.5zM565 1491q0 41 29 68.5t70 27.5 q39 2 67.5 -26.5t28.5 -69.5q0 -39 -29 -67.5t-69 -28.5q-39 0 -68 28.5t-29 67.5z" />
<glyph unicode="&#x2c6;" horiz-adv-x="755" d="M213 1460l23 25q6 2 49 51l229 252l207 -234l61 -67l27 -27h-182l-113 133l-61 -71q-20 -23 -21 -33q0 -18 23 -29h-242z" />
<glyph unicode="&#x2dc;" horiz-adv-x="718" d="M195 1546q66 72 151 72q53 0 166 -59q45 -25 78 -25q74 0 94 68l27 -117q-74 -74 -158 -74q-43 0 -145 59q-53 29 -86 29q-82 0 -101 -78z" />
<glyph unicode="&#x2000;" horiz-adv-x="892" />
<glyph unicode="&#x2001;" horiz-adv-x="1787" />
<glyph unicode="&#x2002;" horiz-adv-x="892" />
<glyph unicode="&#x2003;" horiz-adv-x="1787" />
<glyph unicode="&#x2004;" horiz-adv-x="595" />
<glyph unicode="&#x2005;" horiz-adv-x="446" />
<glyph unicode="&#x2006;" horiz-adv-x="296" />
<glyph unicode="&#x2007;" horiz-adv-x="296" />
<glyph unicode="&#x2008;" horiz-adv-x="223" />
<glyph unicode="&#x2009;" horiz-adv-x="356" />
<glyph unicode="&#x200a;" horiz-adv-x="98" />
<glyph unicode="&#x2010;" horiz-adv-x="653" d="M53 594v172h514v-172h-514z" />
<glyph unicode="&#x2011;" horiz-adv-x="653" d="M53 594v172h514v-172h-514z" />
<glyph unicode="&#x2013;" horiz-adv-x="1058" d="M156 395l2 150l716 2v-152h-718z" />
<glyph unicode="&#x2014;" horiz-adv-x="1357" d="M2 395v142l1172 2v-144h-1172z" />
<glyph unicode="&#x2018;" horiz-adv-x="438" d="M92 1192q0 74 45 122t117 50v-18q-66 -20 -70 -74q8 2 19 2q35 0 59.5 -28.5t24.5 -65.5q0 -41 -29 -69t-68 -28q-43 0 -70.5 32t-27.5 77z" />
<glyph unicode="&#x2019;" horiz-adv-x="374" d="M92 1257q0 41 27.5 69t68.5 28q43 0 71 -32t28 -77q0 -72 -46 -121t-116 -51v21q66 18 70 71q-8 -2 -21 -2q-35 0 -58.5 28.5t-23.5 65.5z" />
<glyph unicode="&#x201a;" horiz-adv-x="380" d="M94 102q0 43 31 75t76 32q47 0 77.5 -35t30.5 -86q0 -100 -80 -160q-41 -31 -98 -30v20q70 20 76 80h-21q-39 0 -65.5 31.5t-26.5 72.5z" />
<glyph unicode="&#x201c;" horiz-adv-x="714" d="M123 1192q0 74 45 122t117 50v-18q-66 -20 -70 -74q8 2 18 2q35 0 59.5 -28.5t24.5 -65.5q0 -41 -28.5 -69t-67.5 -28q-43 0 -70.5 32t-27.5 77zM369 1192q0 72 45 121t114 51v-18q-66 -23 -67 -74q8 2 18 2q35 0 58.5 -28.5t23.5 -65.5q0 -41 -27.5 -69t-66.5 -28 q-43 0 -70.5 32t-27.5 77z" />
<glyph unicode="&#x201d;" horiz-adv-x="653" d="M123 1257q0 41 27.5 69t68.5 28q43 0 70.5 -32t27.5 -77q0 -72 -46 -121t-115 -51v21q66 18 69 71q-8 -2 -20 -2q-35 0 -58.5 28.5t-23.5 65.5zM369 1257q0 41 28.5 69t67.5 28q43 0 70.5 -32t27.5 -77q0 -74 -45 -122t-117 -50v21q66 18 70 71q-8 -2 -18 -2 q-35 0 -59.5 28.5t-24.5 65.5z" />
<glyph unicode="&#x201e;" horiz-adv-x="643" d="M123 92q0 41 27.5 68.5t68.5 27.5q43 0 70.5 -32.5t27.5 -77.5q0 -70 -47 -120t-114 -50v18q68 23 69 74q-8 -2 -20 -2q-35 0 -58.5 28.5t-23.5 65.5zM369 92q0 41 28.5 68.5t67.5 27.5q43 0 70.5 -32.5t27.5 -77.5q0 -72 -45 -121t-117 -49v18q68 23 70 74q-8 -2 -18 -2 q-35 0 -59.5 28.5t-24.5 65.5z" />
<glyph unicode="&#x2022;" horiz-adv-x="1069" d="M342 694q0 121 82 203t205 82q115 0 198 -84q82 -82 82 -201t-84 -202q-82 -82 -200.5 -82t-200.5 81.5t-82 202.5z" />
<glyph unicode="&#x2026;" horiz-adv-x="1339" d="M252 115q0 43 29.5 73.5t74.5 30.5q43 0 73 -30.5t30 -73.5t-30 -76t-73 -33t-73.5 32t-30.5 77zM666 115q0 43 29.5 73.5t72.5 30.5t72.5 -30.5t29.5 -73.5t-29.5 -76t-72.5 -33t-72.5 32t-29.5 77zM1077 115q0 43 30 73.5t75 30.5q43 0 72.5 -30.5t29.5 -73.5 t-29.5 -76t-72.5 -33t-74 32t-31 77z" />
<glyph unicode="&#x202f;" horiz-adv-x="356" />
<glyph unicode="&#x2039;" horiz-adv-x="466" d="M82 406v167l287 408l-152 -489l150 -476z" />
<glyph unicode="&#x203a;" horiz-adv-x="497" d="M45 49l152 475l-152 488l287 -406v-168z" />
<glyph unicode="&#x205f;" horiz-adv-x="446" />
<glyph unicode="&#x20ac;" horiz-adv-x="1239" d="M47 680v104h141q37 236 150 379q135 172 352 172q66 0 156 -39q92 -39 139 -39q63 0 158 78l-187 -284q-111 133 -247 133q-221 0 -263 -400h359l-47 -102h-318l2 -92l271 -2l-47 -103h-215q8 -131 69 -229q70 -119 193 -119q133 0 237 133l84 -92q-88 -106 -153 -145 q-82 -47 -191 -47q-211 0 -344 147q-117 129 -158 352h-139v103l129 2v90h-131z" />
<glyph unicode="&#x2122;" horiz-adv-x="1136" d="M147 1219l27 100h348v-33h-135v-491h-70v491h-71q-70 1 -99 -67zM477 795l135 524l117 -344l90 344l168 -524h-72l-110 340l-88 -342l-113 344l-72 -265q-6 -23 14.5 -50t55.5 -27h-125z" />
</font>
</defs>
</svg>
