<?xml version="1.0" encoding="UTF-8"?>
<svg width="201px" height="50px" viewBox="0 0 201 50" version="1.1" xmlns="http://www.w3.org/2000/svg" xmlns:xlink="http://www.w3.org/1999/xlink">
    <!-- Generator: Sketch 53.2 (72643) - https://sketchapp.com -->
    <title>allianz</title>
    <desc>Created with Sketch.</desc>
    <g id="layout" stroke="none" stroke-width="1" fill="none" fill-rule="evenodd">
        <g id="Artboard-Copy-17" transform="translate(-216.000000, -922.000000)" fill="#768093" fill-rule="nonzero">
            <g id="Comapnes" transform="translate(100.000000, 811.000000)">
                <g id="allianz" transform="translate(116.000000, 111.000000)">
                    <path d="M18.2996319,26.2827869 L11.4434356,26.2827869 L15.0934969,14.397541 L18.2996319,26.2827869 Z M7.88791411,39.397541 L10.2267485,31.6106557 L19.4628834,31.6106557 L21.6537423,39.397541 L30.2116564,39.397541 L21.7071779,9.60655738 C21.2180368,7.84836066 20.1493252,7.03688525 18.2996319,7.03688525 L6.19030675,7.03688525 L6.19030675,9.83606557 L7.20969325,9.83606557 C8.47570552,9.83606557 9.15803681,10.3278689 9.15803681,11.295082 C9.15803681,11.9262295 9.01417178,12.4590164 8.51269939,13.9098361 L0,39.3770492 L7.88791411,39.397541 Z" id="Shape"></path>
                    <path d="M40.0725767,39.3770492 L40.0725767,9.51229508 C40.0725767,7.95901639 39.1559509,7.05327869 37.6433129,7.05327869 L30.1582209,7.05327869 L30.1582209,9.83606557 L30.647362,9.83606557 C31.9092638,9.83606557 32.4436196,10.3688525 32.4436196,11.6393443 L32.4436196,39.3770492 L40.0725767,39.3770492 Z" id="Shape"></path>
                    <path d="M53.0533129,39.3770492 L53.0533129,9.51229508 C53.0533129,7.95901639 52.1243558,7.05327869 50.6199387,7.05327869 L43.1348466,7.05327869 L43.1348466,9.83606557 L43.6116564,9.83606557 C44.8817791,9.83606557 45.416135,10.3688525 45.416135,11.6393443 L45.416135,39.3770492 L53.0533129,39.3770492 Z" id="Shape"></path>
                    <path d="M66.3669939,9.98770492 C66.3669939,7.81967213 64.7557055,6.50819672 61.9934969,6.50819672 C59.2312883,6.50819672 57.6076687,7.81967213 57.6076687,9.98770492 C57.6076687,12.1557377 59.2518405,13.4795082 61.9934969,13.4795082 C64.7351534,13.4795082 66.3669939,12.1803279 66.3669939,9.98770492 L66.3669939,9.98770492 Z M66.2231288,39.3770492 L66.2231288,17.6229508 C66.2231288,16.0737705 65.2941718,15.1639344 63.7856442,15.1639344 L56.3868712,15.1639344 L56.3868712,17.9221311 L56.8225767,17.9221311 C58.088589,17.9221311 58.6188344,18.5 58.6188344,19.7622951 L58.6188344,39.3770492 L66.2231288,39.3770492 Z" id="Shape"></path>
                    <path d="M82.9402454,27.7336066 L82.9402454,32.4467213 C81.6701227,33.7581967 80.1204908,34.5409836 78.829816,34.5409836 C77.5391411,34.5409836 76.9801227,33.8688525 76.9801227,32.0532787 C76.9801227,30.2377049 77.3623926,29.442623 78.7270552,28.9139344 C80.0897978,28.3644697 81.5098578,27.9685702 82.9607975,27.7336066 L82.9402454,27.7336066 Z M72.6847239,22.0737705 C75.2167485,20.8442623 77.9912883,20.1803279 80.1739264,20.1803279 C82.2291411,20.1803279 82.9525767,20.9098361 82.9525767,23.0286885 L82.9525767,23.5696721 C79.8409816,24.0614754 78.8709202,24.2581967 77.1157669,24.6434426 C76.1318841,24.8660574 75.1691867,25.1732161 74.2384663,25.5614754 C71.1720859,26.7909836 69.7169939,29.1516393 69.7169939,32.7827869 C69.7169939,37.3893443 71.7064417,39.6147541 75.8374233,39.6147541 C77.2440302,39.6227971 78.6392123,39.3626641 79.9478528,38.8483607 C81.012454,38.3770492 81.6454601,37.9795082 83.2074233,36.7663934 L83.2074233,37.102459 C83.2074233,38.602459 83.980184,39.3770492 85.4928221,39.3770492 L92.4435583,39.3770492 L92.4435583,36.7663934 L92.0736196,36.7663934 C90.7623926,36.7663934 90.277362,36.1803279 90.277362,34.6352459 L90.277362,23.0860656 C90.277362,16.9385246 88.1358282,14.7868852 81.9537423,14.7868852 C79.9923627,14.7957208 78.0383394,15.0267103 76.1292638,15.4754098 C74.2220245,15.9057377 73.2519632,16.295082 70.9747853,17.4139344 L72.6847239,22.0737705 Z" id="Shape"></path>
                    <path d="M103.496503,39.3770492 L103.496503,22.9836066 C104.766626,21.5737705 106.073742,20.9344262 107.58227,20.9344262 C109.193558,20.9344262 109.575828,21.5696721 109.575828,24.0081967 L109.575828,39.3770492 L117.147239,39.3770492 L117.147239,22.897541 C117.147239,19.0614754 116.86773,17.8483607 115.646933,16.5491803 C114.623436,15.4262295 113.069693,14.852459 111.067914,14.852459 C108.100184,14.852459 106.012086,15.7704918 103.204663,18.3893443 L103.204663,17.4180328 C103.204663,15.9098361 102.41546,15.1393443 100.861718,15.1393443 L93.6684663,15.1393443 L93.6684663,17.897541 L94.1041718,17.897541 C95.370184,17.897541 95.9086503,18.4754098 95.9086503,19.7377049 L95.9086503,39.3770492 L103.496503,39.3770492 Z" id="Shape"></path>
                    <path d="M139.672393,34.2868852 L129.067485,34.2868852 L139.183252,20.1352459 L139.183252,15.1352459 L123.337546,15.1352459 C121.537178,15.1352459 120.710982,15.954918 120.710982,17.7581967 L120.710982,22.1598361 L123.530736,22.1598361 L123.530736,21.7213115 C123.530736,20.6065574 124.114417,20.0819672 125.322883,20.0819672 L130.777423,20.0819672 L120.563006,34.3893443 L120.563006,39.3770492 L139.672393,39.3770492 L139.672393,34.2868852 Z" id="Shape"></path>
                    <path d="M179.490123,38.7581967 L179.490123,11.3565574 C179.490123,9.17213115 178.713252,8.43852459 176.584049,8.43852459 L170.171779,8.43852459 L170.171779,11.5 L170.554049,11.5 C172.021472,11.5 172.309202,11.8278689 172.309202,13.5942623 L172.309202,38.7581967 L179.490123,38.7581967 Z M182.663374,38.7581967 L189.807301,38.7581967 L189.807301,17.4180328 C189.807301,15.2745902 188.985215,14.5040984 186.884785,14.5040984 L182.663374,14.5040984 L182.663374,38.7581967 Z M169.135951,38.7581967 L169.135951,14.5040984 L164.902209,14.5040984 C162.81,14.5040984 161.987914,15.2745902 161.987914,17.4180328 L161.987914,38.7581967 L169.135951,38.7581967 Z M196.564847,24.8237705 C196.564847,36.897541 187.858957,45.6762295 175.897607,45.6762295 C163.936258,45.6762295 155.222147,36.8852459 155.222147,24.8319672 C155.222147,12.7786885 163.932147,3.97540984 175.893497,3.97540984 C187.854847,3.97540984 196.560736,12.807377 196.560736,24.8319672 L196.564847,24.8237705 Z M200.790368,24.8319672 C200.794479,10.6311475 190.144356,0 175.893497,0 C161.642638,0 150.988405,10.6311475 150.988405,24.8319672 C150.988405,39.0327869 161.638528,49.6557377 175.893497,49.6557377 C190.148466,49.6557377 200.794479,39.045082 200.794479,24.8319672 L200.790368,24.8319672 Z" id="Shape"></path>
                </g>
            </g>
        </g>
    </g>
</svg>