<?xml version="1.0" encoding="UTF-8"?>
<svg width="500px" height="500px" viewBox="0 0 500 500" version="1.1" xmlns="http://www.w3.org/2000/svg" xmlns:xlink="http://www.w3.org/1999/xlink">
    <!-- Generator: Sketch 59 (86127) - https://sketch.com -->
    <title>allianz</title>
    <desc>Created with Sketch.</desc>
    <g id="allianz" stroke="none" stroke-width="1" fill="none" fill-rule="evenodd">
        <g id="Allianz-Care-Positive-SVG" transform="translate(0.000000, 188.000000)" fill="#101131" fill-rule="nonzero">
            <path d="M45.4929898,65.5315687 L28.4484465,65.5315687 L37.5225199,35.8977703 L45.4929898,65.5315687 Z M19.6093997,98.2309324 L25.4237553,78.8156852 L48.3848398,78.8156852 L53.8313276,98.2309324 L75.1063511,98.2309324 L53.9641687,23.952284 C52.7481612,19.5685255 50.0913379,17.5452524 45.4929898,17.5452524 L15.3891381,17.5452524 L15.3891381,24.5245228 L17.9233388,24.5245228 C21.0706525,24.5245228 22.766932,25.750749 22.766932,28.162327 C22.766932,29.7359839 22.4092827,31.0643956 21.1626195,34.6817627 L0,98.1798397 L19.6093997,98.2309324 Z" id="Shape"></path>
            <path d="M99.6206554,98.1798397 L99.6206554,23.7172573 C99.6206554,19.8444264 97.3419185,17.5861266 93.5814916,17.5861266 L74.97351,17.5861266 L74.97351,24.5245228 L76.1895176,24.5245228 C79.3266128,24.5245228 80.6550244,25.8529345 80.6550244,29.0206853 L80.6550244,98.1798397 L99.6206554,98.1798397 Z" id="Shape"></path>
            <path d="M131.89084,98.1798397 L131.89084,23.7172573 C131.89084,19.8444264 129.581447,17.5861266 125.841458,17.5861266 L107.233476,17.5861266 L107.233476,24.5245228 L108.418828,24.5245228 C111.57636,24.5245228 112.904772,25.8529345 112.904772,29.0206853 L112.904772,98.1798397 L131.89084,98.1798397 Z" id="Shape"></path>
            <path d="M164.988727,24.9026092 C164.988727,19.4969956 160.983055,16.2270593 154.116189,16.2270593 C147.249322,16.2270593 143.212995,19.4969956 143.212995,24.9026092 C143.212995,30.3082228 147.300415,33.6088148 154.116189,33.6088148 C160.931962,33.6088148 164.988727,30.3695341 164.988727,24.9026092 L164.988727,24.9026092 Z M164.631078,98.1798397 L164.631078,43.93977 C164.631078,40.0771577 162.321685,37.8086393 158.571477,37.8086393 L140.178085,37.8086393 L140.178085,44.6857243 L141.261251,44.6857243 C144.408565,44.6857243 145.726758,46.12654 145.726758,49.2738538 L145.726758,98.1798397 L164.631078,98.1798397 Z" id="Shape"></path>
            <path d="M206.189926,69.1489358 L206.189926,80.9002696 C203.032393,84.170206 199.179999,86.1219493 195.971374,86.1219493 C192.762749,86.1219493 191.373026,84.4461069 191.373026,79.9192887 C191.373026,75.3924706 192.323352,73.4100716 195.715911,72.0918785 C199.103696,70.7218835 202.633974,69.7347768 206.241018,69.1489358 L206.189926,69.1489358 Z M180.69464,55.0371166 C186.989268,51.9715513 193.88679,50.316146 199.312841,50.316146 C204.422116,50.316146 206.220581,52.1350481 206.220581,57.418039 L206.220581,58.7668878 C198.485138,59.9931139 196.07356,60.4836044 191.710239,61.4441482 C189.2643,61.9991996 186.871029,62.7650463 184.557253,63.7331037 C176.934214,66.798669 173.316846,72.6845545 173.316846,81.7381908 C173.316846,93.2238424 178.262625,98.7729668 188.532269,98.7729668 C192.029102,98.7925694 195.497533,98.1439729 198.75082,96.8616466 C201.397425,95.6865132 202.971082,94.6953137 206.854131,91.6706226 L206.854131,92.5085438 C206.854131,96.2485335 208.775219,98.1798397 212.535646,98.1798397 L229.815216,98.1798397 L229.815216,91.6706226 L228.895546,91.6706226 C225.635828,91.6706226 224.430039,90.2093698 224.430039,86.356976 L224.430039,57.5610988 C224.430039,42.233272 219.106174,36.8685326 203.737473,36.8685326 C198.861472,36.8905627 194.003759,37.4664948 189.257786,38.5852492 C184.516379,39.6581971 182.1048,40.6289595 176.443723,43.4186239 L180.69464,55.0371166 Z" id="Shape"></path>
            <path d="M257.2929,98.1798397 L257.2929,57.305635 C260.450432,53.7904534 263.699932,52.1963594 267.45014,52.1963594 C271.455812,52.1963594 272.406137,53.7802348 272.406137,59.8602728 L272.406137,98.1798397 L291.228708,98.1798397 L291.228708,57.0910454 C291.228708,47.5264815 290.533847,44.5017904 287.498937,41.2625096 C284.954518,38.4626266 281.091906,37.0320295 276.115471,37.0320295 C268.737677,37.0320295 263.546653,39.3209849 256.567383,45.8506391 L256.567383,43.4288425 C256.567383,39.6684157 254.605421,37.747328 250.742809,37.747328 L232.860344,37.747328 L232.860344,44.624413 L233.943511,44.624413 C237.090824,44.624413 238.429455,46.0652287 238.429455,49.2125425 L238.429455,98.1798397 L257.2929,98.1798397 Z" id="Shape"></path>
            <path d="M347.226369,85.4883991 L320.862507,85.4883991 L346.010361,50.2037419 L346.010361,37.7371095 L306.617847,37.7371095 C302.142121,37.7371095 300.088192,39.7808197 300.088192,44.2769822 L300.088192,55.2517062 L307.098118,55.2517062 L307.098118,54.1583212 C307.098118,51.3788753 308.549153,50.0709008 311.553407,50.0709008 L325.113424,50.0709008 L299.720324,85.7438629 L299.720324,98.1798397 L347.226369,98.1798397 L347.226369,85.4883991 Z" id="Shape"></path>
            <path d="M446.213474,96.6368384 L446.213474,28.3156053 C446.213474,22.8691175 444.282168,21.0399969 438.988958,21.0399969 L423.048019,21.0399969 L423.048019,28.6732546 L423.998344,28.6732546 C427.646367,28.6732546 428.361665,29.4907387 428.361665,33.8949342 L428.361665,96.6368384 L446.213474,96.6368384 Z M454.102196,96.6368384 L471.862038,96.6368384 L471.862038,43.4288425 C471.862038,38.0845402 469.818327,36.1634526 464.596648,36.1634526 L454.102196,36.1634526 L454.102196,96.6368384 Z M420.472944,96.6368384 L420.472944,36.1634526 L409.947836,36.1634526 C404.746593,36.1634526 402.702883,38.0845402 402.702883,43.4288425 L402.702883,96.6368384 L420.472944,96.6368384 Z M488.661336,61.8937645 C488.661336,91.9976162 467.018444,113.885753 437.28246,113.885753 C407.546476,113.885753 385.883148,91.9669606 385.883148,61.9142016 C385.883148,31.8614426 407.536258,9.91199464 437.272242,9.91199464 C467.008226,9.91199464 488.651117,31.9329724 488.651117,61.9142016 L488.661336,61.8937645 Z M499.166006,61.9142016 C499.176225,26.5069217 472.699959,0 437.272242,0 C401.844525,0 375.35804,26.5069217 375.35804,61.9142016 C375.35804,97.3214814 401.834306,123.807966 437.272242,123.807966 C472.710177,123.807966 499.176225,97.352137 499.176225,61.9142016 L499.166006,61.9142016 Z" id="Shape"></path>
        </g>
    </g>
</svg>