<?xml version="1.0" encoding="UTF-8"?>
<svg width="500px" height="500px" viewBox="0 0 500 500" version="1.1" xmlns="http://www.w3.org/2000/svg" xmlns:xlink="http://www.w3.org/1999/xlink">
    <!-- Generator: Sketch 59 (86127) - https://sketch.com -->
    <title>allianz</title>
    <desc>Created with Sketch.</desc>
    <g id="allianz" stroke="none" stroke-width="1" fill="none" fill-rule="evenodd">
        <g id="Allianz-Care-Positive-SVG" transform="translate(0.000000, 188.000000)" fill="#101131" fill-rule="nonzero">
            <path d="M45.5214724,65.5725971 L28.4662577,65.5725971 L37.5460123,35.9202454 L45.5214724,65.5725971 Z M19.6216769,98.2924335 L25.4396728,78.8650307 L48.4151329,78.8650307 L53.8650307,98.2924335 L75.1533742,98.2924335 L53.997955,23.9672802 C52.7811861,19.5807771 50.1226994,17.5562372 45.5214724,17.5562372 L15.398773,17.5562372 L15.398773,24.5398773 L17.9345603,24.5398773 C21.0838446,24.5398773 22.7811861,25.7668712 22.7811861,28.1799591 C22.7811861,29.7546012 22.4233129,31.0838446 21.1758691,34.7034765 L0,98.2413088 L19.6216769,98.2924335 Z" id="Shape"></path>
            <path d="M99.6830266,98.2413088 L99.6830266,23.7321063 C99.6830266,19.8568507 97.402863,17.597137 93.6400818,17.597137 L75.0204499,17.597137 L75.0204499,24.5398773 L76.2372188,24.5398773 C79.3762781,24.5398773 80.7055215,25.8691207 80.7055215,29.0388548 L80.7055215,98.2413088 L99.6830266,98.2413088 Z" id="Shape"></path>
            <path d="M131.973415,98.2413088 L131.973415,23.7321063 C131.973415,19.8568507 129.662577,17.597137 125.920245,17.597137 L107.300613,17.597137 L107.300613,24.5398773 L108.486708,24.5398773 C111.646217,24.5398773 112.97546,25.8691207 112.97546,29.0388548 L112.97546,98.2413088 L131.973415,98.2413088 Z" id="Shape"></path>
            <path d="M165.092025,24.9182004 C165.092025,19.5092025 161.083845,16.2372188 154.212679,16.2372188 C147.341513,16.2372188 143.302658,19.5092025 143.302658,24.9182004 C143.302658,30.3271984 147.392638,33.6298569 154.212679,33.6298569 C161.03272,33.6298569 165.092025,30.3885481 165.092025,24.9182004 L165.092025,24.9182004 Z M164.734151,98.2413088 L164.734151,43.9672802 C164.734151,40.1022495 162.423313,37.8323108 158.670757,37.8323108 L140.265849,37.8323108 L140.265849,44.7137014 L141.349693,44.7137014 C144.498978,44.7137014 145.817996,46.1554192 145.817996,49.3047035 L145.817996,98.2413088 L164.734151,98.2413088 Z" id="Shape"></path>
            <path d="M206.319018,69.192229 L206.319018,80.9509202 C203.159509,84.2229039 199.304703,86.1758691 196.09407,86.1758691 C192.883436,86.1758691 191.492843,84.4989775 191.492843,79.9693252 C191.492843,75.4396728 192.443763,73.4560327 195.838446,72.1370143 C199.228353,70.7661616 202.76084,69.7784369 206.370143,69.192229 L206.319018,69.192229 Z M180.807771,55.0715746 C187.106339,52.00409 194.00818,50.3476483 199.437628,50.3476483 C204.550102,50.3476483 206.349693,52.1676892 206.349693,57.4539877 L206.349693,58.803681 C198.609407,60.0306748 196.196319,60.5214724 191.830266,61.4826176 C189.382796,62.0380165 186.988027,62.8043427 184.672802,63.7730061 C177.04499,66.8404908 173.425358,72.7300613 173.425358,81.7893661 C173.425358,93.2822086 178.374233,98.8348073 188.650307,98.8348073 C192.149329,98.8544221 195.619931,98.2054195 198.875256,96.9222904 C201.523517,95.7464213 203.09816,94.7546012 206.98364,91.7280164 L206.98364,92.5664622 C206.98364,96.3087935 208.90593,98.2413088 212.668712,98.2413088 L229.9591,98.2413088 L229.9591,91.7280164 L229.038855,91.7280164 C225.777096,91.7280164 224.570552,90.2658487 224.570552,86.4110429 L224.570552,57.597137 C224.570552,42.2597137 219.243354,36.8916155 203.865031,36.8916155 C198.985977,36.9136594 194.125223,37.489952 189.376278,38.609407 C184.631902,39.6830266 182.218814,40.6543967 176.554192,43.4458078 L180.807771,55.0715746 Z" id="Shape"></path>
            <path d="M257.453988,98.2413088 L257.453988,57.3415133 C260.613497,53.8241309 263.865031,52.2290389 267.617587,52.2290389 C271.625767,52.2290389 272.576687,53.8139059 272.576687,59.8977505 L272.576687,98.2413088 L291.411043,98.2413088 L291.411043,57.1267894 C291.411043,47.5562372 290.715746,44.5296524 287.678937,41.2883436 C285.132924,38.4867076 281.267894,37.0552147 276.288344,37.0552147 C268.90593,37.0552147 263.711656,39.3456033 256.728016,45.8793456 L256.728016,43.4560327 C256.728016,39.6932515 254.764826,37.7709611 250.899796,37.7709611 L233.006135,37.7709611 L233.006135,44.6523517 L234.08998,44.6523517 C237.239264,44.6523517 238.578732,46.0940695 238.578732,49.2433538 L238.578732,98.2413088 L257.453988,98.2413088 Z" id="Shape"></path>
            <path d="M347.443763,85.5419223 L321.063395,85.5419223 L346.226994,50.2351738 L346.226994,37.7607362 L306.809816,37.7607362 C302.331288,37.7607362 300.276074,39.805726 300.276074,44.3047035 L300.276074,55.2862986 L307.290389,55.2862986 L307.290389,54.192229 C307.290389,51.4110429 308.742331,50.1022495 311.748466,50.1022495 L325.316973,50.1022495 L299.907975,85.797546 L299.907975,98.2413088 L347.443763,98.2413088 L347.443763,85.5419223 Z" id="Shape"></path>
            <path d="M446.492843,96.6973415 L446.492843,28.3333333 C446.492843,22.8834356 444.560327,21.0531697 439.263804,21.0531697 L423.312883,21.0531697 L423.312883,28.6912065 L424.263804,28.6912065 C427.91411,28.6912065 428.629857,29.5092025 428.629857,33.9161554 L428.629857,96.6973415 L446.492843,96.6973415 Z M454.386503,96.6973415 L472.157464,96.6973415 L472.157464,43.4560327 C472.157464,38.1083845 470.112474,36.1860941 464.887526,36.1860941 L454.386503,36.1860941 L454.386503,96.6973415 Z M420.736196,96.6973415 L420.736196,36.1860941 L410.204499,36.1860941 C405,36.1860941 402.95501,38.1083845 402.95501,43.4560327 L402.95501,96.6973415 L420.736196,96.6973415 Z M488.96728,61.9325153 C488.96728,92.0552147 467.310838,113.957055 437.556237,113.957055 C407.801636,113.957055 386.124744,92.0245399 386.124744,61.9529652 C386.124744,31.8813906 407.791411,9.91820041 437.546012,9.91820041 C467.300613,9.91820041 488.957055,31.9529652 488.957055,61.9529652 L488.96728,61.9325153 Z M499.478528,61.9529652 C499.488753,26.5235174 472.99591,0 437.546012,0 C402.096115,0 375.593047,26.5235174 375.593047,61.9529652 C375.593047,97.3824131 402.08589,123.885481 437.546012,123.885481 C473.006135,123.885481 499.488753,97.4130879 499.488753,61.9529652 L499.478528,61.9529652 Z" id="Shape"></path>
        </g>
    </g>
</svg>