<?xml version="1.0" encoding="UTF-8"?>
<svg width="77px" height="50px" viewBox="0 0 77 50" version="1.1" xmlns="http://www.w3.org/2000/svg" xmlns:xlink="http://www.w3.org/1999/xlink">
    <!-- Generator: Sketch 53.2 (72643) - https://sketchapp.com -->
    <title>citi</title>
    <desc>Created with Sketch.</desc>
    <g id="layout" stroke="none" stroke-width="1" fill="none" fill-rule="evenodd">
        <g id="Artboard-Copy-17" transform="translate(-823.000000, -811.000000)" fill="#768093">
            <g id="Comapnes" transform="translate(100.000000, 811.000000)">
                <g id="citi" transform="translate(723.000000, 0.000000)">
                    <path d="M23.444947,40.176753 L23.3072238,40.3103773 C21.0872989,42.5780154 18.517905,43.779841 15.870356,43.779841 C10.3439744,43.779841 6.33238332,39.6231422 6.33238332,33.8877923 C6.33238332,28.1627955 10.3439744,24.0002034 15.870356,24.0002034 C18.517905,24.0002034 21.0872989,25.2069666 23.3072238,27.4806563 L23.444947,27.618263 L26.9990502,23.3094644 L26.9040581,23.1925624 C23.9483413,19.6906085 20.4018627,17.985819 16.0419142,17.985819 C11.6668749,17.985819 7.66751498,19.4620612 4.78518684,22.1243618 C1.65346444,25.0074055 -2.38311127e-06,29.0733226 -2.38311127e-06,33.8877923 C-2.38311127e-06,38.699874 1.65346444,42.7758245 4.78518684,45.6596651 C7.66751498,48.3342289 11.6668749,49.8023486 16.0419142,49.8023486 C20.4018627,49.8023486 23.9483413,48.0985142 26.9040581,44.5951266 L26.9990502,44.4863479 L23.444947,40.176753 L23.444947,40.176753 Z" id="Shape"></path>
                    <polygon id="Shape" points="30.590484 49.2159286 36.8691784 49.2159286 36.8691784 18.4851195 30.590484 18.4851195"></polygon>
                    <path d="M61.4632462,42.5337392 C59.7881759,43.5563901 58.229225,44.0705027 56.8292824,44.0705027 C54.800771,44.0705027 53.8840493,42.9970461 53.8840493,40.6059766 L53.8840493,24.3001023 L60.2785449,24.3001023 L60.2785449,18.5131506 L53.8840493,18.5131506 L53.8840493,8.95110236 L47.7300521,12.2531768 L47.7300521,18.5131506 L42.4211352,18.5131506 L42.4211352,24.3001023 L47.7300521,24.3001023 L47.7300521,41.6461468 C47.7300521,46.3720647 50.5221536,49.6005577 54.6900529,49.6844909 C57.5201193,49.7400727 59.2261655,48.8948477 60.2623423,48.2768932 L60.3230214,48.2316632 L61.834636,42.3063084 L61.4632449,42.5337411 L61.4632462,42.5337392 Z" id="Shape"></path>
                    <polygon id="Shape" points="66.6635125 49.2159286 72.9463342 49.2159286 72.9463342 18.4851195 66.6635125 18.4851195"></polygon>
                    <path d="M76.7071028,13.0323088 C70.9595987,4.86989585 61.4146384,1.03323906e-06 51.7033601,1.03323906e-06 C41.9960532,1.03323906e-06 32.4491845,4.86989585 26.7112148,13.0323088 L26.4168665,13.4522953 L33.6537423,13.4522953 L33.733961,13.3651765 C38.6595738,8.268008 45.0894927,5.57242098 51.7033601,5.57242098 C58.3180217,5.57242098 64.746673,8.268008 69.6818131,13.3651765 L69.7618728,13.4522953 L76.9965284,13.4522953 L76.7071028,13.0323088 L76.7071028,13.0323088 Z" id="Shape"></path>
                </g>
            </g>
        </g>
    </g>
</svg>