<?xml version="1.0" encoding="UTF-8"?>
<svg width="500px" height="500px" viewBox="0 0 500 500" version="1.1" xmlns="http://www.w3.org/2000/svg" xmlns:xlink="http://www.w3.org/1999/xlink">
    <!-- Generator: Sketch 59 (86127) - https://sketch.com -->
    <title>citi</title>
    <desc>Created with Sketch.</desc>
    <g id="citi" stroke="none" stroke-width="1" fill="none" fill-rule="evenodd">
        <g id="citi-color" transform="translate(154.000000, 188.000000)" fill="#101131">
            <path d="M58.4065063,99.8271274 L58.0634076,100.159144 C52.5330878,105.793541 46.1321638,108.779716 39.5365384,108.779716 C25.7691094,108.779716 15.7753561,98.4515714 15.7753561,84.2009549 C15.7753561,69.9760625 25.7691094,59.6332752 39.5365384,59.6332752 C46.1321638,59.6332752 52.5330878,62.6317181 58.0634076,68.281152 L58.4065063,68.6230634 L67.2605572,57.9169967 L67.023911,57.6265306 C59.6605718,48.9252301 50.8255157,44.6893417 39.9639276,44.6893417 C29.0647448,44.6893417 19.1014619,48.3573589 11.9209502,54.9723738 C4.11914265,62.1358689 -5.936853e-06,72.238448 -5.936853e-06,84.2009549 C-5.936853e-06,96.1575281 4.11914265,106.285037 11.9209502,113.450512 C19.1014619,120.095998 29.0647448,123.743833 39.9639276,123.743833 C50.8255157,123.743833 59.6605718,119.510317 67.023911,110.805455 L67.2605572,110.535172 L58.4065063,99.8271274 L58.4065063,99.8271274 Z" id="Shape"></path>
            <polygon id="Shape" points="76.2076065 122.286756 91.8492116 122.286756 91.8492116 45.929953 76.2076065 45.929953"></polygon>
            <path d="M153.11843,105.683528 C148.945463,108.224508 145.061774,109.501923 141.57421,109.501923 C136.520743,109.501923 134.236988,106.834706 134.236988,100.893619 L134.236988,60.3784336 L150.167079,60.3784336 L150.167079,45.9996019 L134.236988,45.9996019 L134.236988,22.2407928 L118.906031,30.445453 L118.906031,45.9996019 L105.680354,45.9996019 L105.680354,60.3784336 L118.906031,60.3784336 L118.906031,103.478128 C118.906031,115.220611 125.861768,123.242443 136.24492,123.450992 C143.295236,123.589096 147.545371,121.488966 150.126715,119.953536 L150.27788,119.841153 L154.043644,105.118431 L153.118427,105.683533 L153.11843,105.683528 Z" id="Shape"></path>
            <polygon id="Shape" points="166.073434 122.286756 181.725321 122.286756 181.725321 45.929953 166.073434 45.929953"></polygon>
            <path d="M191.094221,32.3813613 C176.775928,12.1002241 152.997337,2.56728779e-06 128.804413,2.56728779e-06 C104.621382,2.56728779e-06 80.8380373,12.1002241 66.5434961,32.3813613 L65.8102097,33.4249012 L83.838855,33.4249012 L84.0386975,33.2084371 C96.3094795,20.5435091 112.327818,13.8457874 128.804413,13.8457874 C145.282986,13.8457874 161.298167,20.5435091 173.592683,33.2084371 L173.792129,33.4249012 L191.815244,33.4249012 L191.094221,32.3813613 L191.094221,32.3813613 Z" id="Shape"></path>
        </g>
    </g>
</svg>