<?xml version="1.0" encoding="UTF-8" standalone="no"?>
<svg width="300px" height="194px" viewBox="0 0 300 194" version="1.1" xmlns="http://www.w3.org/2000/svg" xmlns:xlink="http://www.w3.org/1999/xlink">
    <!-- Generator: Sketch 39.1 (31720) - http://www.bohemiancoding.com/sketch -->
    <title>citi</title>
    <desc>Created with Sketch.</desc>
    <defs></defs>
    <g id="Page-1" stroke="none" stroke-width="1" fill="none" fill-rule="evenodd">
        <g id="citi" transform="translate(0.000009, -0.000004)" fill="#7F7F7F">
            <path d="M91.3439493,156.123087 L90.8073654,156.642338 C82.1583076,165.454167 72.1476818,170.124348 61.8325557,170.124348 C40.3011989,170.124348 24.6716233,153.971808 24.6716233,131.684777 C24.6716233,109.437977 40.3011989,93.2625354 61.8325557,93.2625354 C72.1476818,93.2625354 82.1583076,97.9519037 90.8073654,106.787248 L91.3439493,107.321975 L105.191105,90.5783884 L104.821006,90.1241184 C93.3052257,76.5158545 79.4877767,69.8912025 62.5009645,69.8912025 C45.4553566,69.8912025 29.873435,75.6277412 18.6435851,85.9731911 C6.44206924,97.1764281 -9.28484909e-06,112.9762 -9.28484909e-06,131.684777 C-9.28484909e-06,150.384074 6.44206924,166.222835 18.6435851,177.429168 C29.873435,187.822272 45.4553566,193.527247 62.5009645,193.527247 C79.4877767,193.527247 93.3052257,186.906307 104.821006,173.292472 L105.191105,172.869768 L91.3439493,156.123087 L91.3439493,156.123087 Z" id="Shape"></path>
            <polygon id="Shape" points="119.183704 191.248474 143.646149 191.248474 143.646149 71.8314374 119.183704 71.8314374"></polygon>
            <path d="M239.467193,165.282114 C232.940945,169.256039 226.867111,171.253833 221.412789,171.253833 C213.509497,171.253833 209.937854,167.082481 209.937854,157.79101 L209.937854,94.4279145 L234.851473,94.4279145 L234.851473,71.9403637 L209.937854,71.9403637 L209.937854,34.7831427 L185.961242,47.6146938 L185.961242,71.9403637 L165.27715,71.9403637 L165.27715,94.4279145 L185.961242,94.4279145 L185.961242,161.833013 C185.961242,180.197486 196.83956,192.743107 213.078128,193.069263 C224.104361,193.285249 230.751294,190.000784 234.788347,187.599471 L235.024759,187.423711 L240.914166,164.398339 L239.467188,165.282121 L239.467193,165.282114 Z" id="Shape"></path>
            <polygon id="Shape" points="259.727971 191.248474 284.206497 191.248474 284.206497 71.8314374 259.727971 71.8314374"></polygon>
            <path d="M298.858842,50.6423276 C276.465969,18.9239577 239.277812,4.0150699e-06 201.441663,4.0150699e-06 C163.620987,4.0150699e-06 126.425394,18.9239577 104.069668,50.6423276 L102.922856,52.2743556 L131.118476,52.2743556 L131.431017,51.93582 C150.621716,32.1287022 175.673348,21.6539043 201.441663,21.6539043 C227.213072,21.6539043 252.259765,32.1287022 271.487584,51.93582 L271.799504,52.2743556 L299.986474,52.2743556 L298.858842,50.6423276 L298.858842,50.6423276 Z" id="Shape"></path>
        </g>
    </g>
</svg>