<?xml version="1.0" encoding="UTF-8"?>
<svg width="500px" height="500px" viewBox="0 0 500 500" version="1.1" xmlns="http://www.w3.org/2000/svg" xmlns:xlink="http://www.w3.org/1999/xlink">
    <!-- Generator: Sketch 59 (86127) - https://sketch.com -->
    <title>citi</title>
    <desc>Created with Sketch.</desc>
    <g id="citi" stroke="none" stroke-width="1" fill="none" fill-rule="evenodd">
        <g id="citi-color" transform="translate(1.000000, 89.000000)" fill="#101131">
            <path d="M151.668508,259.228508 L150.777558,260.090679 C136.416567,274.721938 119.794812,282.476358 102.667462,282.476358 C66.9165583,282.476358 40.9650375,255.6565 40.9650375,218.650867 C40.9650375,181.712033 66.9165583,154.85415 102.667462,154.85415 C119.794812,154.85415 136.416567,162.640429 150.777558,177.310733 L151.668508,178.1986 L174.660479,150.397363 L174.045962,149.643088 C154.925033,127.047775 131.982387,116.048129 103.777296,116.048129 C75.4745792,116.048129 49.6021833,125.573142 30.9560158,142.750842 C10.6964833,161.352821 -1.54166667e-05,187.586938 -1.54166667e-05,218.650867 C-1.54166667e-05,249.699388 10.6964833,275.998242 30.9560158,294.605363 C49.6021833,311.862188 75.4745792,321.334792 103.777296,321.334792 C131.982387,321.334792 154.925033,310.341308 174.045962,287.736746 L174.660479,287.034883 L151.668508,259.228508 L151.668508,259.228508 Z" id="Shape"></path>
            <polygon id="Shape" points="197.893946 317.551092 238.511663 317.551092 238.511663 119.269717 197.893946 119.269717"></polygon>
            <path d="M397.613988,274.436258 C386.777733,281.034608 376.692671,284.351767 367.636254,284.351767 C354.513542,284.351767 348.583146,277.425608 348.583146,261.997946 L348.583146,156.789158 L389.949996,156.789158 L389.949996,119.450579 L348.583146,119.450579 L348.583146,57.7543167 L308.772112,79.0599667 L308.772112,119.450579 L274.428017,119.450579 L274.428017,156.789158 L308.772112,156.789158 L308.772112,268.709333 C308.772112,299.201908 326.834592,320.032796 353.797292,320.57435 C372.105371,320.932975 383.142013,315.479412 389.845179,311.492246 L390.237721,311.200412 L400.016558,272.968829 L397.613979,274.436271 L397.613988,274.436258 Z" id="Shape"></path>
            <polygon id="Shape" points="431.255208 317.551092 471.899625 317.551092 471.899625 119.269717 431.255208 119.269717"></polygon>
            <path d="M496.228542,84.0870833 C459.047167,31.4215496 397.299538,6.66666667e-06 334.475975,6.66666667e-06 C271.678104,6.66666667e-06 209.918129,31.4215496 172.798433,84.0870833 L170.894254,86.7969208 L217.710575,86.7969208 L218.229521,86.2348125 C250.093971,53.3468542 291.689979,35.9543833 334.475975,35.9543833 C377.267108,35.9543833 418.854917,53.3468542 450.781,86.2348125 L451.298917,86.7969208 L498.100875,86.7969208 L496.228542,84.0870833 L496.228542,84.0870833 Z" id="Shape"></path>
        </g>
    </g>
</svg>