<?xml version="1.0" encoding="UTF-8"?>
<svg width="500px" height="500px" viewBox="0 0 500 500" version="1.1" xmlns="http://www.w3.org/2000/svg" xmlns:xlink="http://www.w3.org/1999/xlink">
    <!-- Generator: Sketch 59 (86127) - https://sketch.com -->
    <title>cocacola</title>
    <desc>Created with Sketch.</desc>
    <g id="cocacola" stroke="none" stroke-width="1" fill="none" fill-rule="evenodd">
        <g transform="translate(0.000000, 168.000000)" fill="#101131">
            <path d="M192.005625,143.443125 C173.400625,131.458125 148.15125,129.355 107.430625,140.6525 C64.02,150.85375 49.54625,157.393125 30.538125,144.265625 C23.235625,137.816875 20.6175,127.43375 22.5725,112.4775 C27.106875,88.09625 39.360625,64.633125 61.12625,38.606875 C73.275625,25.068125 84.545,13.449375 99.42625,8.78375 C110.83125,5.856875 109.765,14.82 108.385,16.101875 C106.92875,16.101875 104.4825,16.33125 102.591875,17.565 C101.0575,18.755 96.845625,22.5975 96.619375,27.76625 C96.293125,35.67875 104.481875,34.031875 108.01375,29.6875 C111.820625,24.791875 117.446875,15.416875 113.02125,6.679375 C111.16625,3.569375 107.96125,1.42 103.981875,0.688125 C90.355625,-0.090625 77.665,6.405 65.953125,13.58625 C40.339375,31.379375 19.85,56.034375 8.25625,83.021875 C1.571875,99.305 -4.473125,122.63 4.588125,141.614375 C11.5975,154.786875 26.15,161.78375 43.511875,160.320625 C55.68875,159.04125 70.413125,155.105625 80.31625,152.729375 C90.219375,150.349375 140.9125,132.92375 157.56875,163.251875 C157.56875,163.251875 163.1075,152.5 176.949375,152.270625 C188.329375,151.220625 204.74625,155.565 216.701875,164.345625 C212.71875,158.355625 201.42625,149.5275 192.005625,143.443125 L192.005625,143.443125 L192.005625,143.443125 Z" id="path5"></path>
            <path d="M112.6,41.67125 C103.11875,35.450625 84.0625,47.343125 68.799375,67.7425 C54.841875,86.040625 48.815,107.3075 55.37375,117.141875 C65.130625,128.71375 83.243125,111.881875 90.945625,102.8725 L91.939375,101.819375 C97.1775,96.193125 101.224375,89.423125 105.14125,82.9275 C105.14125,82.9275 108.74125,76.98125 108.913125,76.70625 C111.138125,76.29625 113.818125,75.655625 116.838125,74.78625 C116.795,74.9225 105.28375,94.27125 106.458125,103.875 C106.82375,106.805 106.544375,117.508125 116.994375,120.755 C130.921875,123.089375 142.043125,112.293125 151.854375,102.6875 C151.854375,102.6875 153.52625,101.088125 154.471875,100.175 C154.2325,101.133125 153.920625,102.41125 153.920625,102.41125 C149.843125,116.59125 155.339375,119.56625 158.7775,120.664375 C169.168125,123.685 181.58125,108.589375 181.62125,108.589375 C181.299375,113.344375 180.358125,117.278125 185.370625,120.434375 C190.101875,122.128125 194.89,119.54625 198.529375,117.121875 C211.63875,107.8825 222.2,93.421875 230.730625,80.921875 L225.289375,80.921875 C225.225,80.921875 211.8625,100.289375 203.185625,104.49875 C203.171875,104.49875 201.593125,105.309375 200.683125,104.668125 C199.556875,103.706875 200.00125,101.709375 200.696875,100.294375 C200.740625,100.201875 234.19875,42.171875 234.19875,42.171875 L218.40125,42.171875 C218.40125,42.171875 216.675625,44.96375 216.535,45.146875 C216.42875,45.055625 216.175625,44.575625 216,44.345625 C206.2125,30.806875 184.048125,51.631875 167.36125,75.781875 C160.936875,85.068125 152.7575,95.52375 144.27625,103.070625 C144.27625,103.070625 131.711875,114.588125 126.343125,106.313125 C124.380625,102.83625 124.984375,97.753125 126.09125,94.415 C132.341875,76.621875 143.1125,60.47375 155.36875,50.73 C158.82875,48.033125 162.589375,47.253125 164.455625,48.396875 C166.23375,49.450625 166.520625,52.055625 165.395625,53.84 C162.54125,53.74875 160.254375,54.61625 158.395,56.5375 C154.7325,60.38 153.46,64.085625 154.624375,67.5625 C160.28125,75.6125 171.563125,59.694375 171.0175,49.9975 C170.8225,46.520625 168.9675,43.228125 166.199375,41.625625 C162.07375,39.156875 155.78,39.79625 151.706875,41.764375 C146.254375,43.821875 137.623125,51.0025 132.585,56.58375 C126.2425,63.583125 115.365,71.358125 111.963125,70.4875 C113.0775,67.513125 122.265625,48.714375 112.6,41.67125 L112.6,41.67125 L112.6,41.67125 Z M188.763125,69.48125 C191.83625,65.228125 200.780625,53.838125 202.96125,51.9175 C210.295,45.465625 213.22625,48.304375 213.48,50.315625 C206.635625,62.57375 198.5575,76.616875 190.9625,89.241875 C190.978125,89.196875 188.585625,92.855 188.585625,92.855 C185.23125,97.976875 181.85375,102.368125 176.344375,105.4325 C175.55875,105.6625 174.26375,105.754375 173.401875,105.111875 C172.364375,104.425625 171.955,103.281875 172.071875,102.091875 C172.401875,98.159375 176.40625,86.131875 188.763125,69.48125 L188.763125,69.48125 L188.763125,69.48125 Z M102.8225,76.845 C102.8225,76.845 102.685,77.258125 102.616875,77.393125 C102.599375,77.393125 95.729375,88.598125 95.729375,88.598125 C91.583125,94.13375 86.40625,101.088125 79.935,104.425625 C78.016875,105.06625 75.365625,105.47875 74.014375,103.7875 C71.15,100.35625 72.62625,95.599375 73.825625,91.7575 L74.25,90.385 C77.68875,81.055 83.145,72.82 88.455625,65.18125 C88.521875,65.13625 88.670625,65.090625 88.724375,65.090625 C88.736875,65.13625 88.758125,65.13625 88.7675,65.228125 C92.1,71.630625 98.34875,74.6025 103.021875,75.976875 C103.05,75.976875 103.08,76.0225 103.08,76.114375 C103.080625,76.250625 103.004375,76.435 102.8225,76.845 L102.8225,76.845 L102.8225,76.845 Z M109.33125,63.6275 C109.30125,63.71875 106.27125,70.670625 106.27125,70.670625 C105.833125,71.03625 105.140625,70.85375 104.346875,70.670625 L102.986875,70.440625 C98.71625,69.115 95.495,66.27875 94.501875,62.894375 C93.131875,56.3075 98.75875,51.13875 101.238125,49.264375 C103.616875,47.61625 107.315,46.7475 109.4625,48.440625 C110.786875,49.99625 111.28875,52.008125 111.28875,54.205 C111.289375,57.1775 110.371875,60.51625 109.33125,63.6275 L109.33125,63.6275 L109.33125,63.6275 Z" id="path7"></path>
            <path d="M309.04375,84.849375 C307.520625,81.556875 303.904375,79.4525 300.050625,79.680625 C287.53625,80.825 275.295625,91.11625 268.86875,105.889375 C265.49625,113.483125 263.655625,119.74875 262.44875,129.72 C266.34,125.23875 274.2775,117.875 283.285,113.849375 C283.285,113.849375 284.510625,104.29 290.760625,95.781875 C293.125625,92.25875 297.85875,86.5875 303.173125,88.09625 C307.81625,89.6525 306.184375,102.505625 300.013125,114.944375 C295.446875,124.09375 288.459375,133.244375 281.389375,139.555 C275.13875,144.86125 265.890625,151.264375 257.799375,146.325 C252.703125,143.3075 250.10375,136.99375 250.653125,128.851875 C253.088125,105.75375 263.6025,86.085 278.649375,63.6725 C294.164375,42.860625 311.266875,21.5 334.30625,10.10875 C339.005625,7.730625 343.3575,7.181875 347.119375,8.645625 C347.119375,8.645625 325.491875,20.538125 315.1825,42.54 C312.56,48.12125 308.9125,55.66625 312.585625,62.345 C314.505,65.820625 317.913125,66.095625 320.656875,65.9125 C333.29375,62.984375 341.458125,51.18375 348.12875,40.39 C351.99625,32.2025 355.43375,24.060625 355.43375,15.00375 C355.43375,13.90625 355.376875,12.443125 355.28375,11.344375 C361.32125,8.14375 373.70125,13.814375 373.70125,13.814375 C383.375625,17.0175 403.975,32.79875 410.92375,35.81625 C414.313125,31.883125 419.883125,25.9375 423.019375,22.96375 L418.479375,20.173125 C411.210625,15.73625 403.5275,11.5275 395.965,7.365625 C378.790625,-2.01 364.81125,1.2825 357.69625,3.844375 C354.9,4.85 352.344375,5.719375 352.344375,5.719375 C347.064375,-0.04375 338.405,0.50375 332.024375,2.06 C309.078125,8.64625 287.77375,24.700625 264.933125,52.5575 C248.140625,74.37625 237.724375,93.221875 232.1725,111.8375 C227.893125,124.369375 226.5925,142.803125 237.0375,153.735625 C245.918125,163.018125 257.69375,161.0075 266.009375,157.669375 C284.02625,148.795625 300.219375,129.675 308.288125,107.67375 C310.235,101.13375 312.39625,91.894375 309.04375,84.849375 L309.04375,84.849375 L309.04375,84.849375 Z M350.4725,15.919375 C348.0875,43.2725 326.825625,59.32875 321.565,60.6075 C318.376875,61.246875 312.936875,59.83 317.793125,48.350625 C324.945,32.88875 337.155,19.7625 350.255625,13.038125 C350.574375,14.181875 350.56625,14.911875 350.4725,15.919375 L350.4725,15.919375 L350.4725,15.919375 Z" id="path9"></path>
            <path d="M476.596875,19.394375 C465.16,25.890625 453.304375,30.0975 438.9525,28.634375 C434.975,33.118125 431.1025,37.7375 427.533125,42.49375 C447.67625,47.616875 469.03125,36.2275 480.940625,25.388125 C493.539375,14.455625 500,0.68875 500,0.68875 C500,0.68875 490.55625,11.4825 476.596875,19.394375 L476.596875,19.394375 L476.596875,19.394375 Z" id="path11"></path>
            <polygon id="polygon13" points="260.455625 42.1725 245.453125 42.1725 236.990625 55.9225 251.99 55.9225"></polygon>
            <path d="M438.8925,144.71625 C437.279375,145.81375 435.013125,144.97 435.860625,142.455 C437.97125,136.05125 446.3625,123.00125 446.3625,123.00125 L469.735,81.5475 L453.725,81.5475 C452.964375,82.7975 451.336875,85.668125 451.336875,85.668125 C450.59625,84.434375 448.38125,81.690625 447.469375,81.098125 C443.558125,78.62625 437.819375,79.795 433.860625,82.035625 C416.64875,92.1 404.090625,111.984375 394.186875,127.49125 C394.186875,127.49125 383.76125,144.72875 377.97375,146.010625 C373.455625,146.376875 373.921875,140.290625 374.1175,138.8725 C375.864375,128.625 379.92125,118.883125 384.00875,110.055 C392.321875,104.291875 401.809375,96.745 410.43125,88.46625 C429.1425,70.58 444.916875,50.316875 447.2225,45.78875 C447.2225,45.78875 444.726875,46.2925 441.78,46.383125 C427.385,66.463125 397.9275,95.646875 388.996875,99.99125 C392.953125,90.475625 418.51375,45.05625 440.265625,23.33 L443.68875,20.035625 C448.98125,14.866875 454.465625,9.56125 458.739375,8.691875 C459.190625,8.64625 459.771875,8.691875 460.27375,9.745625 C460.464375,13.77 458.96625,16.74375 457.2475,20.128125 L454.83875,25.06875 C454.83875,25.06875 458.250625,24.428125 460.49125,23.694375 C463.09125,18.8025 465.970625,13.311875 464.909375,6.7725 C464.555,4.668125 463.031875,3.0675 461.04125,2.70125 C454.5525,1.46625 447.480625,6.2675 441.790625,10.156875 L441.560625,10.293125 C412.31,33.209375 387.61,66.234375 366.015625,111.335 C364.450625,112.5225 358.40375,113.941875 357.375625,113.255 C359.508125,108.865 362.193125,102.963125 363.536875,96.559375 C363.769375,94.729375 363.985625,92.855 363.985625,91.025625 C363.985625,87.08875 363.040625,83.385 359.51375,80.824375 C355.37875,78.765625 350.268125,79.726875 346.8225,81.28125 C331.38625,87.685 319.849375,103.5125 311.524375,116.546875 C307.046875,124.828125 302.5825,133.6975 301.34625,143.85375 C300.475625,151.81125 302.248125,156.934375 306.7725,159.496875 C311.425625,161.87375 317.281875,159.403125 319.5825,158.215 C335.220625,149.981875 346.146875,133.470625 354.76,118.375 C355.1025,118.33 359.805,118.19375 363.361875,117.2775 C363.409375,117.2775 363.429375,117.2775 363.508125,117.325625 C363.304375,118.00875 361.46625,123.499375 361.46625,123.499375 C356.0075,139.5075 353.483125,150.395 358.639375,156.843125 C366.0075,165.94625 378.205625,156.524375 388.12875,144.080625 C385.99875,158.991875 393.726875,161.325625 399.6175,160.183125 C406.384375,158.354375 413.925,151.125625 417.424375,147.421875 C416.300625,151.76625 416.60625,159.543125 422.761875,160.32 C426.98125,161.1 430.13875,158.805 433.7925,156.8375 C446.898125,149.70125 462.58625,125.921875 466.659375,119.046875 L461.31875,119.046875 C455.52875,127.7975 448.160625,139.270625 438.8925,144.71625 L438.8925,144.71625 L438.8925,144.71625 Z M321.25625,143.12375 C320.425,141.88875 320.149375,140.538125 320.121875,139.078125 C319.9625,130.109375 329.611875,114.0475 336.423125,105.2975 L336.4375,105.2975 C339.291875,111.5475 345.755625,115.565 349.6575,117.258125 C344.81125,128.05375 328.190625,151.17375 321.25625,143.12375 L321.25625,143.12375 L321.25625,143.12375 Z M352.3925,112.431875 C351.930625,112.75375 343.78,110.008125 342.205,102.46125 C340.86875,95.96375 345.343125,90.886875 349.671875,88.3275 C351.53,86.863125 354.32875,86.36125 356.381875,87.09 C358.2875,88.3725 358.80375,90.66125 358.80375,93.1275 C358.80375,94.64 358.603125,96.19375 358.42625,97.61125 C358.42625,97.61125 358.3925,97.886875 358.386875,97.9325 C357.02875,103.008125 354.950625,107.994375 352.3925,112.431875 L352.3925,112.431875 L352.3925,112.431875 Z M417.765,140.2425 C417.758125,140.2425 416.21875,141.614375 416.21875,141.614375 C414.02,143.58 411.7575,145.684375 409.02625,144.631875 C408.271875,144.3575 407.74125,143.3525 407.61375,142.5725 C407.489375,136.94625 410.023125,131.733125 412.48,126.656875 L413.11,125.329375 C420.1775,113.52875 428.3925,99.62375 440.4575,89.97375 C442.490625,88.506875 444.696875,87.274375 447.025625,88.235625 C447.56125,88.7375 448.185,89.6075 448.185,90.475625 C448.185,90.75125 447.940625,91.4825 447.799375,91.71 C444.43,97.155625 441.220625,102.8725 438.1,108.360625 C432.00125,119.201875 425.674375,130.406875 417.765,140.2425 L417.765,140.2425 L417.765,140.2425 Z" id="path15"></path>
        </g>
    </g>
</svg>