<?xml version="1.0" encoding="UTF-8"?>
<svg width="151px" height="50px" viewBox="0 0 151 50" version="1.1" xmlns="http://www.w3.org/2000/svg" xmlns:xlink="http://www.w3.org/1999/xlink">
    <!-- Generator: Sketch 53.2 (72643) - https://sketchapp.com -->
    <title>cocacola</title>
    <desc>Created with Sketch.</desc>
    <g id="layout" stroke="none" stroke-width="1" fill="none" fill-rule="evenodd">
        <g id="Artboard-Copy-17" transform="translate(-634.000000, -922.000000)" fill="#768093">
            <g id="Comapnes" transform="translate(100.000000, 811.000000)">
                <g id="cocacola" transform="translate(534.000000, 111.000000)">
                    <path d="M57.9856988,43.4676136 C52.3669888,39.8357955 44.7416775,39.1984848 32.4440488,42.6219697 C19.33404,45.7132576 14.9629675,47.6948864 9.22251375,43.7168561 C7.01715875,41.7626894 6.226485,38.6162879 6.816895,34.0840909 C8.18627625,26.6958333 11.8869088,19.5857955 18.4601275,11.699053 C22.1292388,7.59640152 25.53259,4.07556818 30.0267275,2.66174242 C33.4710375,1.77481061 33.14903,4.49090909 32.73227,4.87935606 C32.2924825,4.87935606 31.553715,4.94886364 30.9827463,5.32272727 C30.519365,5.68333333 29.2473788,6.84772727 29.1790513,8.41401515 C29.0805238,10.8117424 31.5535263,10.3126894 32.6201525,8.99621212 C33.7698288,7.51268939 35.4689563,4.6717803 34.1324175,2.02405303 C33.5722075,1.08162879 32.6042975,0.43030303 31.4025263,0.208522727 C27.2873988,-0.0274621212 23.45483,1.94090909 19.9178438,4.11704545 C12.1824913,9.50890152 5.9947,16.9801136 2.4933875,25.1581439 C0.47470625,30.0924242 -1.35088375,37.1606061 1.38561375,42.913447 C3.502445,46.9051136 7.8973,49.0253788 13.1405863,48.5820076 C16.8180025,48.1943182 21.2647638,47.0017045 24.2555075,46.2816288 C27.2462513,45.5604167 42.555575,40.2799242 47.5857625,49.4702652 C47.5857625,49.4702652 49.258465,46.2121212 53.4387113,46.1426136 C56.8754713,45.8244318 61.8333675,47.1409091 65.4439663,49.8017045 C64.2410625,47.986553 60.8307275,45.3113636 57.9856988,43.4676136 L57.9856988,43.4676136 L57.9856988,43.4676136 Z" id="path5"></path>
                    <path d="M34.0052,12.6276515 C31.1418625,10.7426136 25.386875,14.3464015 20.7774112,20.5280303 C16.5622462,26.0729167 14.74213,32.5174242 16.7228725,35.4975379 C19.6694487,39.0041667 25.1394237,33.9035985 27.4655787,31.1734848 L27.7656912,30.8543561 C29.347605,29.1494318 30.5697612,27.0979167 31.7526575,25.1295455 C31.7526575,25.1295455 32.8398575,23.3276515 32.8917637,23.2443182 C33.5637137,23.1200758 34.3730737,22.925947 35.2851137,22.6625 C35.27209,22.7037879 31.7956925,28.5670455 32.1503537,31.4772727 C32.2607725,32.3651515 32.1764012,35.6085227 35.3323012,36.5924242 C39.5384062,37.2998106 42.8970237,34.0282197 45.8600212,31.1174242 C45.8600212,31.1174242 46.3649275,30.6327652 46.6505062,30.3560606 C46.578215,30.6464015 46.4840287,31.0337121 46.4840287,31.0337121 C45.2526237,35.3306818 46.9124912,36.232197 47.950805,36.5649621 C51.0887737,37.480303 54.8375375,32.9058712 54.8496175,32.9058712 C54.7524112,34.3467803 54.4681537,35.5388258 55.9819287,36.4952652 C57.4107662,37.0085227 58.85678,36.2261364 59.9558712,35.4914773 C63.9149025,32.6916667 67.1044,28.3096591 69.6806487,24.5217803 L68.0373912,24.5217803 C68.01795,24.5217803 63.982475,30.3907197 61.3620587,31.6662879 C61.3579062,31.6662879 60.8811237,31.9119318 60.6063037,31.7176136 C60.2661762,31.4263258 60.4003775,30.8210227 60.6104562,30.3922348 C60.6236687,30.3642045 70.7280225,12.7793561 70.7280225,12.7793561 L65.9571775,12.7793561 C65.9571775,12.7793561 65.4360387,13.6253788 65.39357,13.6808712 C65.3614825,13.6532197 65.2850387,13.5077652 65.232,13.4380682 C62.276175,9.33541667 55.5825337,15.6460227 50.5430975,22.9642045 C48.6029362,25.7782197 46.132765,28.9465909 43.5714275,31.2335227 C43.5714275,31.2335227 39.7769862,34.7236742 38.1556237,32.2160985 C37.5629487,31.1625 37.7452812,29.6221591 38.0795575,28.6106061 C39.9672462,23.21875 43.219975,18.3253788 46.9213625,15.3727273 C47.9662825,14.5554924 49.1019912,14.3191288 49.6655987,14.6657197 C50.2025925,14.9850379 50.2892287,15.7744318 49.9494787,16.3151515 C49.0874575,16.2875 48.3968212,16.5503788 47.83529,17.1325758 C46.729215,18.2969697 46.34492,19.4198864 46.6965612,20.4734848 C48.4049375,22.9128788 51.8120637,18.0892045 51.647285,15.1507576 C51.588395,14.0971591 51.028185,13.0994318 50.1922112,12.6138258 C48.9462725,11.8657197 47.04556,12.0594697 45.8154762,12.6558712 C44.1688212,13.2793561 41.5621837,15.455303 40.04067,17.1465909 C38.125235,19.2676136 34.84023,21.6236742 33.8128637,21.3598485 C34.149405,20.4585227 36.9242187,14.7619318 34.0052,12.6276515 L34.0052,12.6276515 L34.0052,12.6276515 Z M57.0064638,21.0549242 C57.9345475,19.7660985 60.6357487,16.3145833 61.2942975,15.7325758 C63.50909,13.7774621 64.3943275,14.6376894 64.47096,15.2471591 C62.4039587,18.9617424 59.964365,23.2172348 57.670675,27.0429924 C57.6753937,27.0293561 56.9528587,28.1378788 56.9528587,28.1378788 C55.9398375,29.6899621 54.9198325,31.0206439 53.2560012,31.9492424 C53.0187425,32.0189394 52.6276525,32.0467803 52.3673662,31.8520833 C52.0540412,31.6441288 51.93041,31.2975379 51.9657062,30.9369318 C52.0653663,29.7452652 53.2746875,26.1005682 57.0064638,21.0549242 L57.0064638,21.0549242 L57.0064638,21.0549242 Z M31.052395,23.2863636 C31.052395,23.2863636 31.01087,23.411553 30.9902962,23.4524621 C30.9850112,23.4524621 28.9102712,26.8479167 28.9102712,26.8479167 C27.6581037,28.5253788 26.0946875,30.6327652 24.14037,31.6441288 C23.5610962,31.8382576 22.7604187,31.9632576 22.3523412,31.4507576 C21.4873,30.4109848 21.9331275,28.9695076 22.2953387,27.805303 L22.4235,27.3893939 C23.4620025,24.5621212 25.10979,22.0666667 26.7135987,19.7518939 C26.7336062,19.7382576 26.7785287,19.7244318 26.7947612,19.7244318 C26.7985362,19.7382576 26.8049537,19.7382576 26.807785,19.7660985 C27.8142,21.70625 29.7013225,22.6068182 31.1126062,23.0232955 C31.1211,23.0232955 31.13016,23.0371212 31.13016,23.0649621 C31.1303487,23.10625 31.1073212,23.1621212 31.052395,23.2863636 L31.052395,23.2863636 L31.052395,23.2863636 Z M33.0180375,19.2810606 C33.0089775,19.3087121 32.0939175,21.4153409 32.0939175,21.4153409 C31.9616037,21.5261364 31.7524687,21.4708333 31.5127562,21.4153409 L31.1020362,21.3456439 C29.8123075,20.9439394 28.83949,20.0844697 28.5395663,19.0589015 C28.1258262,17.0628788 29.8251425,15.4965909 30.5739137,14.9285985 C31.2922962,14.4291667 32.40913,14.1659091 33.057675,14.6789773 C33.4576362,15.1503788 33.6092025,15.7600379 33.6092025,16.4257576 C33.6093912,17.3265152 33.3323062,18.3382576 33.0180375,19.2810606 L33.0180375,19.2810606 L33.0180375,19.2810606 Z" id="path7"></path>
                    <path d="M93.3312125,25.7119318 C92.8712288,24.7142045 91.7791213,24.0765152 90.6152888,24.1456439 C86.8359475,24.4924242 83.1392788,27.6109848 81.1983625,32.0876894 C80.1798675,34.3888258 79.6239988,36.2875 79.2595225,39.3090909 C80.43468,37.9511364 82.831805,35.719697 85.55207,34.4998106 C85.55207,34.4998106 85.9222088,31.6030303 87.8097088,29.0248106 C88.5239388,27.957197 89.9533425,26.2386364 91.5582838,26.6958333 C92.9605075,27.1674242 92.4676813,31.0623106 90.6039638,34.8316288 C89.2249563,37.6041667 87.1147313,40.3770833 84.9795913,42.2893939 C83.0919025,43.8973485 80.2989688,45.8376894 77.8554113,44.3409091 C76.3163438,43.4265152 75.5313325,41.5132576 75.6972438,39.0460227 C76.4326138,32.0465909 79.607955,26.0863636 84.1521113,19.294697 C88.8376413,12.9880682 94.0025963,6.51515152 100.960488,3.06325758 C102.379699,2.34261364 103.693965,2.17632576 104.830051,2.61988636 C104.830051,2.61988636 98.2985463,6.22367424 95.185115,12.8909091 C94.39312,14.582197 93.291575,16.8685606 94.4008588,18.8924242 C94.98051,19.9456439 96.0097638,20.0289773 96.8383763,19.9734848 C100.654713,19.0861742 103.120354,15.5102273 105.134883,12.2393939 C106.302868,9.75833333 107.340993,7.29109848 107.340993,4.54659091 C107.340993,4.21401515 107.323816,3.77064394 107.295693,3.43768939 C109.119018,2.46780303 112.857778,4.18617424 112.857778,4.18617424 C115.779439,5.15681818 122.00045,9.93901515 124.098973,10.8534091 C125.122564,9.66155303 126.804704,7.85984848 127.751851,6.95871212 L126.380771,6.11306818 C124.185609,4.76856061 121.865305,3.49318182 119.58143,2.23200758 C114.394769,-0.609090909 110.172998,0.388636364 108.024268,1.16496212 C107.1798,1.46969697 106.408001,1.73314394 106.408001,1.73314394 C104.813441,-0.0132575758 102.19831,0.152651515 100.271361,0.624242424 C93.3415938,2.62007576 86.9076725,7.48503788 80.0098038,15.9265152 C74.9384688,22.5382576 71.7927613,28.249053 70.116095,33.8901515 C68.8237238,37.6876894 68.430935,43.2736742 71.585325,46.586553 C74.2672738,49.3994318 77.8235125,48.7901515 80.3348313,47.7785985 C85.7759275,45.0895833 90.6662513,39.2954545 93.1030138,32.6284091 C93.69097,30.6465909 94.3436675,27.8467803 93.3312125,25.7119318 L93.3312125,25.7119318 L93.3312125,25.7119318 Z M105.842695,4.82405303 C105.122425,13.1128788 98.7013388,17.9784091 97.11263,18.3659091 C96.1498163,18.5596591 94.5069363,18.130303 95.9735238,14.6517045 C98.13339,9.96628788 101.82081,5.98863636 105.777199,3.95094697 C105.873461,4.29753788 105.871008,4.51875 105.842695,4.82405303 L105.842695,4.82405303 L105.842695,4.82405303 Z" id="path9"></path>
                    <path d="M143.932256,5.87708333 C140.47832,7.84564394 136.897921,9.12045455 132.563655,8.67708333 C131.36245,10.0357955 130.192955,11.4356061 129.115004,12.8768939 C135.198228,14.4293561 141.647438,10.9780303 145.244069,7.69337121 C149.048891,4.38049242 151,0.208712121 151,0.208712121 C151,0.208712121 148.147987,3.47954545 143.932256,5.87708333 L143.932256,5.87708333 L143.932256,5.87708333 Z" id="path11"></path>
                    <polygon id="polygon13" points="78.6575987 12.7795455 74.1268438 12.7795455 71.5711687 16.9462121 76.10098 16.9462121"></polygon>
                    <path d="M132.545535,43.8534091 C132.058371,44.1859848 131.373964,43.930303 131.629909,43.1681818 C132.267317,41.2276515 134.801475,37.2731061 134.801475,37.2731061 L141.85997,24.7113636 L137.02495,24.7113636 C136.795241,25.0901515 136.303736,25.9600379 136.303736,25.9600379 C136.080067,25.5861742 135.411137,24.7547348 135.135751,24.5751894 C133.954554,23.8261364 132.221451,24.180303 131.025909,24.8592803 C125.827922,27.9090909 122.035369,33.9346591 119.044436,38.6337121 C119.044436,38.6337121 115.895897,43.857197 114.148072,44.2456439 C112.783599,44.3566288 112.924406,42.5123106 112.983485,42.0825758 C113.511041,38.9772727 114.736217,36.0251894 115.970642,33.35 C118.481206,31.6035985 121.346431,29.3166667 123.950237,26.8079545 C129.601035,21.3878788 134.364896,15.2475379 135.061195,13.8753788 C135.061195,13.8753788 134.307516,14.0280303 133.41756,14.0554924 C129.07027,20.1403409 120.174105,28.9839015 117.477056,30.3003788 C118.671844,27.4168561 126.391152,13.6534091 132.960219,7.06969697 L133.994002,6.07140152 C135.592337,4.50511364 137.248619,2.89734848 138.539291,2.63390152 C138.675569,2.62007576 138.851106,2.63390152 139.002672,2.9532197 C139.060241,4.17272727 138.607807,5.07386364 138.088745,6.09943182 L137.361302,7.59659091 C137.361302,7.59659091 138.391689,7.40246212 139.068357,7.18011364 C139.853557,5.69772727 140.723129,4.03390152 140.402631,2.05227273 C140.29561,1.41458333 139.835626,0.929545455 139.234457,0.818560606 C137.274855,0.444318182 135.139149,1.89924242 133.420769,3.07784091 L133.351309,3.11912879 C124.51762,10.063447 117.05822,20.0710227 110.536719,33.7378788 C110.064089,34.0977273 108.237932,34.5278409 107.927439,34.319697 C108.571454,32.9893939 109.382324,31.200947 109.788136,29.2604167 C109.858351,28.7058712 109.923659,28.1378788 109.923659,27.5835227 C109.923659,26.3905303 109.638269,25.2681818 108.573152,24.4922348 C107.324382,23.8683712 105.780974,24.1596591 104.740395,24.6306818 C100.078647,26.5712121 96.5945112,31.3674242 94.0803612,35.3172348 C92.7281562,37.8267045 91.379915,40.5143939 91.0065675,43.5920455 C90.7436387,46.0034091 91.2789337,47.5558712 92.645295,48.3323864 C94.0505387,49.0526515 95.8191262,48.3039773 96.513915,47.9439394 C101.236629,45.449053 104.536356,40.4456439 107.13752,35.8712121 C107.240955,35.8575758 108.66111,35.8162879 109.735286,35.5386364 C109.749631,35.5386364 109.755671,35.5386364 109.779454,35.5532197 C109.717921,35.7602273 109.162807,37.424053 109.162807,37.424053 C107.514265,42.275 106.751904,45.5742424 108.309091,47.5282197 C110.534265,50.2867424 114.218099,47.4316288 117.214882,43.6607955 C116.571622,48.1793561 118.905516,48.886553 120.684485,48.5403409 C122.728081,47.9861742 125.00535,45.7956439 126.062161,44.6732955 C125.722789,45.9897727 125.815087,48.3464015 127.674086,48.5818182 C128.948337,48.8181818 129.901902,48.1227273 131.005335,47.5265152 C134.963234,45.3640152 139.701047,38.1581439 140.931131,36.0748106 L139.318262,36.0748106 C137.569682,38.7265152 135.344509,42.2032197 132.545535,43.8534091 L132.545535,43.8534091 L132.545535,43.8534091 Z M97.0193875,43.3708333 C96.76835,42.9965909 96.6851112,42.5873106 96.6768062,42.1448864 C96.628675,39.4270833 99.5427862,34.5598485 101.599784,31.9083333 L101.604125,31.9083333 C102.466146,33.8022727 104.418199,35.019697 105.596565,35.5327652 C104.132997,38.8041667 99.1135687,45.8102273 97.0193875,43.3708333 L97.0193875,43.3708333 L97.0193875,43.3708333 Z M106.422535,34.0702652 C106.283049,34.167803 103.82156,33.3357955 103.34591,31.0488636 C102.942362,29.0799242 104.293624,27.5414773 105.600906,26.7659091 C106.16206,26.3221591 107.007282,26.1700758 107.627326,26.3909091 C108.202825,26.7795455 108.358732,27.4731061 108.358732,28.2204545 C108.358732,28.6787879 108.298144,29.1496212 108.244727,29.5791667 C108.244727,29.5791667 108.234535,29.6626894 108.232836,29.6765152 C107.822682,31.2145833 107.195089,32.7255682 106.422535,34.0702652 L106.422535,34.0702652 L106.422535,34.0702652 Z M126.16503,42.4977273 C126.162954,42.4977273 125.698062,42.913447 125.698062,42.913447 C125.03404,43.5090909 124.350765,44.1467803 123.525927,43.8278409 C123.298106,43.744697 123.137857,43.4401515 123.099352,43.2037879 C123.061791,41.4988636 123.826984,39.9191288 124.56896,38.3808712 L124.75922,37.9785985 C126.893605,34.4026515 129.374535,30.1890152 133.018165,27.2647727 C133.632169,26.8202652 134.298456,26.4467803 135.001739,26.7380682 C135.163497,26.8901515 135.35187,27.1537879 135.35187,27.4168561 C135.35187,27.5003788 135.278069,27.7219697 135.235411,27.7909091 C134.21786,29.4410985 133.248629,31.1734848 132.3062,32.836553 C130.464377,36.1217803 128.553661,39.5172348 126.16503,42.4977273 L126.16503,42.4977273 L126.16503,42.4977273 Z" id="path15"></path>
                </g>
            </g>
        </g>
    </g>
</svg>