<?xml version="1.0" encoding="UTF-8" standalone="no"?>
<svg width="300px" height="99px" viewBox="0 0 300 99" version="1.1" xmlns="http://www.w3.org/2000/svg" xmlns:xlink="http://www.w3.org/1999/xlink">
    <!-- Generator: Sketch 39.1 (31720) - http://www.bohemiancoding.com/sketch -->
    <title>cocacola</title>
    <desc>Created with Sketch.</desc>
    <defs></defs>
    <g id="Page-1" stroke="none" stroke-width="1" fill="none" fill-rule="evenodd">
        <g id="cocacola" fill="#7F7F7F">
            <path d="M115.203375,86.065875 C104.040375,78.874875 88.89075,77.613 64.458375,84.3915 C38.412,90.51225 29.72775,94.435875 18.322875,86.559375 C13.941375,82.690125 12.3705,76.46025 13.5435,67.4865 C16.264125,52.85775 23.616375,38.779875 36.67575,23.164125 C43.965375,15.040875 50.727,8.069625 59.65575,5.27025 C66.49875,3.514125 65.859,8.892 65.031,9.661125 C64.15725,9.661125 62.6895,9.79875 61.555125,10.539 C60.6345,11.253 58.107375,13.5585 57.971625,16.65975 C57.775875,21.40725 62.689125,20.419125 64.80825,17.8125 C67.092375,14.875125 70.468125,9.250125 67.81275,4.007625 C66.69975,2.141625 64.77675,0.852 62.389125,0.412875 C54.213375,-0.054375 46.599,3.843 39.571875,8.15175 C24.203625,18.827625 11.91,33.620625 4.95375,49.813125 C0.943125,59.583 -2.683875,73.578 2.752875,84.968625 C6.9585,92.872125 15.69,97.07025 26.107125,96.192375 C33.41325,95.42475 42.247875,93.063375 48.18975,91.637625 C54.131625,90.209625 84.5475,79.75425 94.54125,97.951125 C94.54125,97.951125 97.8645,91.5 106.169625,91.362375 C112.997625,90.732375 122.84775,93.339 130.021125,98.607375 C127.63125,95.013375 120.85575,89.7165 115.203375,86.065875 L115.203375,86.065875 L115.203375,86.065875 Z" id="path5"></path>
            <path d="M67.56,25.00275 C61.87125,21.270375 50.4375,28.405875 41.279625,40.6455 C32.905125,51.624375 29.289,64.3845 33.22425,70.285125 C39.078375,77.22825 49.945875,67.129125 54.567375,61.7235 L55.163625,61.091625 C58.3065,57.715875 60.734625,53.653875 63.08475,49.7565 C63.08475,49.7565 65.24475,46.18875 65.347875,46.02375 C66.682875,45.77775 68.290875,45.393375 70.102875,44.87175 C70.077,44.9535 63.17025,56.56275 63.874875,62.325 C64.09425,64.083 63.926625,70.504875 70.196625,72.453 C78.553125,73.853625 85.225875,67.375875 91.112625,61.6125 C91.112625,61.6125 92.11575,60.652875 92.683125,60.105 C92.5395,60.679875 92.352375,61.44675 92.352375,61.44675 C89.905875,69.95475 93.203625,71.73975 95.2665,72.398625 C101.500875,74.211 108.94875,65.153625 108.97275,65.153625 C108.779625,68.006625 108.214875,70.366875 111.222375,72.260625 C114.061125,73.276875 116.934,71.72775 119.117625,70.273125 C126.98325,64.7295 133.32,56.053125 138.438375,48.553125 L135.173625,48.553125 C135.135,48.553125 127.1175,60.173625 121.911375,62.69925 C121.903125,62.69925 120.955875,63.185625 120.409875,62.800875 C119.734125,62.224125 120.00075,61.025625 120.418125,60.176625 C120.444375,60.121125 140.51925,25.303125 140.51925,25.303125 L131.04075,25.303125 C131.04075,25.303125 130.005375,26.97825 129.921,27.088125 C129.85725,27.033375 129.705375,26.745375 129.6,26.607375 C123.7275,18.484125 110.428875,30.979125 100.41675,45.469125 C96.562125,51.040875 91.6545,57.31425 86.56575,61.842375 C86.56575,61.842375 79.027125,68.752875 75.805875,63.787875 C74.628375,61.70175 74.990625,58.651875 75.65475,56.649 C79.405125,45.973125 85.8675,36.28425 93.22125,30.438 C95.29725,28.819875 97.553625,28.351875 98.673375,29.038125 C99.74025,29.670375 99.912375,31.233375 99.237375,32.304 C97.52475,32.24925 96.152625,32.76975 95.037,33.9225 C92.8395,36.228 92.076,38.451375 92.774625,40.5375 C96.16875,45.3675 102.937875,35.816625 102.6105,29.9985 C102.4935,27.912375 101.3805,25.936875 99.719625,24.975375 C97.24425,23.494125 93.468,23.87775 91.024125,25.058625 C87.752625,26.293125 82.573875,30.6015 79.551,33.95025 C75.7455,38.149875 69.219,42.814875 67.177875,42.2925 C67.8465,40.507875 73.359375,29.228625 67.56,25.00275 L67.56,25.00275 L67.56,25.00275 Z M113.257875,41.68875 C115.10175,39.136875 120.468375,32.302875 121.77675,31.1505 C126.177,27.279375 127.93575,28.982625 128.088,30.189375 C123.981375,37.54425 119.1345,45.970125 114.5775,53.545125 C114.586875,53.518125 113.151375,55.713 113.151375,55.713 C111.13875,58.786125 109.11225,61.420875 105.806625,63.2595 C105.33525,63.3975 104.55825,63.452625 104.041125,63.067125 C103.418625,62.655375 103.173,61.969125 103.243125,61.255125 C103.441125,58.895625 105.84375,51.679125 113.257875,41.68875 L113.257875,41.68875 L113.257875,41.68875 Z M61.6935,46.107 C61.6935,46.107 61.611,46.354875 61.570125,46.435875 C61.559625,46.435875 57.437625,53.158875 57.437625,53.158875 C54.949875,56.48025 51.84375,60.652875 47.961,62.655375 C46.810125,63.03975 45.219375,63.28725 44.408625,62.2725 C42.69,60.21375 43.57575,57.359625 44.295375,55.0545 L44.55,54.231 C46.61325,48.633 49.887,43.692 53.073375,39.10875 C53.113125,39.08175 53.202375,39.054375 53.234625,39.054375 C53.242125,39.08175 53.254875,39.08175 53.2605,39.136875 C55.26,42.978375 59.00925,44.7615 61.813125,45.586125 C61.83,45.586125 61.848,45.6135 61.848,45.668625 C61.848375,45.750375 61.802625,45.861 61.6935,46.107 L61.6935,46.107 L61.6935,46.107 Z M65.59875,38.1765 C65.58075,38.23125 63.76275,42.402375 63.76275,42.402375 C63.499875,42.62175 63.084375,42.51225 62.608125,42.402375 L61.792125,42.264375 C59.22975,41.469 57.297,39.76725 56.701125,37.736625 C55.879125,33.7845 59.25525,30.68325 60.742875,29.558625 C62.170125,28.56975 64.389,28.0485 65.6775,29.064375 C66.472125,29.99775 66.77325,31.204875 66.77325,32.523 C66.773625,34.3065 66.223125,36.30975 65.59875,38.1765 L65.59875,38.1765 L65.59875,38.1765 Z" id="path7"></path>
            <path d="M185.42625,50.909625 C184.512375,48.934125 182.342625,47.6715 180.030375,47.808375 C172.52175,48.495 165.177375,54.66975 161.32125,63.533625 C159.29775,68.089875 158.193375,71.84925 157.46925,77.832 C159.804,75.14325 164.5665,70.725 169.971,68.309625 C169.971,68.309625 170.706375,62.574 174.456375,57.469125 C175.875375,55.35525 178.71525,51.9525 181.903875,52.85775 C184.68975,53.7915 183.710625,61.503375 180.007875,68.966625 C177.268125,74.45625 173.075625,79.946625 168.833625,83.733 C165.08325,86.91675 159.534375,90.758625 154.679625,87.795 C151.621875,85.9845 150.06225,82.19625 150.391875,77.311125 C151.852875,63.45225 158.1615,51.651 167.189625,38.2035 C176.498625,25.716375 186.760125,12.9 200.58375,6.06525 C203.403375,4.638375 206.0145,4.309125 208.271625,5.187375 C208.271625,5.187375 195.295125,12.322875 189.1095,25.524 C187.536,28.87275 185.3475,33.39975 187.551375,37.407 C188.703,39.492375 190.747875,39.657375 192.394125,39.5475 C199.97625,37.790625 204.874875,30.71025 208.87725,24.234 C211.19775,19.3215 213.26025,14.436375 213.26025,9.00225 C213.26025,8.34375 213.226125,7.465875 213.17025,6.806625 C216.79275,4.88625 224.22075,8.288625 224.22075,8.288625 C230.025375,10.2105 242.385,19.67925 246.55425,21.48975 C248.587875,19.129875 251.929875,15.5625 253.811625,13.77825 L251.087625,12.103875 C246.726375,9.44175 242.1165,6.9165 237.579,4.419375 C227.274375,-1.206 218.88675,0.7695 214.61775,2.306625 C212.94,2.91 211.406625,3.431625 211.406625,3.431625 C208.238625,-0.02625 203.043,0.30225 199.214625,1.236 C185.446875,5.18775 172.66425,14.820375 158.959875,31.5345 C148.884375,44.62575 142.634625,55.933125 139.3035,67.1025 C136.735875,74.621625 135.9555,85.681875 142.2225,92.241375 C147.550875,97.810875 154.61625,96.6045 159.605625,94.601625 C170.41575,89.277375 180.131625,77.805 184.972875,64.60425 C186.141,60.68025 187.43775,55.136625 185.42625,50.909625 L185.42625,50.909625 L185.42625,50.909625 Z M210.2835,9.551625 C208.8525,25.9635 196.095375,35.59725 192.939,36.3645 C191.026125,36.748125 187.762125,35.898 190.675875,29.010375 C194.967,19.73325 202.293,11.8575 210.153375,7.822875 C210.344625,8.509125 210.33975,8.947125 210.2835,9.551625 L210.2835,9.551625 L210.2835,9.551625 Z" id="path9"></path>
            <path d="M285.958125,11.636625 C279.096,15.534375 271.982625,18.0585 263.3715,17.180625 C260.985,19.870875 258.6615,22.6425 256.519875,25.49625 C268.60575,28.570125 281.41875,21.7365 288.564375,15.232875 C296.123625,8.673375 300,0.41325 300,0.41325 C300,0.41325 294.33375,6.8895 285.958125,11.636625 L285.958125,11.636625 L285.958125,11.636625 Z" id="path11"></path>
            <polygon id="polygon13" points="156.273375 25.3035 147.271875 25.3035 142.194375 33.5535 151.194 33.5535"></polygon>
            <path d="M263.3355,86.82975 C262.367625,87.48825 261.007875,86.982 261.516375,85.473 C262.78275,81.63075 267.8175,73.80075 267.8175,73.80075 L281.841,48.9285 L272.235,48.9285 C271.778625,49.6785 270.802125,51.400875 270.802125,51.400875 C270.35775,50.660625 269.02875,49.014375 268.481625,48.658875 C266.134875,47.17575 262.691625,47.877 260.316375,49.221375 C249.98925,55.26 242.454375,67.190625 236.512125,76.49475 C236.512125,76.49475 230.25675,86.83725 226.78425,87.606375 C224.073375,87.826125 224.353125,84.174375 224.4705,83.3235 C225.518625,77.175 227.95275,71.329875 230.40525,66.033 C235.393125,62.575125 241.085625,58.047 246.25875,53.07975 C257.4855,42.348 266.950125,30.190125 268.3335,27.47325 C268.3335,27.47325 266.836125,27.7755 265.068,27.829875 C256.431,39.877875 238.7565,57.388125 233.398125,59.99475 C235.771875,54.285375 251.10825,27.03375 264.159375,13.998 L266.21325,12.021375 C269.38875,8.920125 272.679375,5.73675 275.243625,5.215125 C275.514375,5.18775 275.863125,5.215125 276.16425,5.847375 C276.278625,8.262 275.37975,10.04625 274.3485,12.076875 L272.90325,15.04125 C272.90325,15.04125 274.950375,14.656875 276.29475,14.216625 C277.85475,11.2815 279.582375,7.987125 278.945625,4.0635 C278.733,2.800875 277.819125,1.8405 276.62475,1.62075 C272.7315,0.87975 268.488375,3.7605 265.074375,6.094125 L264.936375,6.175875 C247.386,19.925625 232.566,39.740625 219.609375,66.801 C218.670375,67.5135 215.04225,68.365125 214.425375,67.953 C215.704875,65.319 217.315875,61.777875 218.122125,57.935625 C218.261625,56.837625 218.391375,55.713 218.391375,54.615375 C218.391375,52.25325 217.824375,50.031 215.70825,48.494625 C213.22725,47.259375 210.160875,47.836125 208.0935,48.76875 C198.83175,52.611 191.909625,62.1075 186.914625,69.928125 C184.228125,74.896875 181.5495,80.2185 180.80775,86.31225 C180.285375,91.08675 181.348875,94.160625 184.0635,95.698125 C186.855375,97.12425 190.369125,95.641875 191.7495,94.929 C201.132375,89.989125 207.688125,80.082375 212.856,71.025 C213.0615,70.998 215.883,70.91625 218.017125,70.3665 C218.045625,70.3665 218.057625,70.3665 218.104875,70.395375 C217.982625,70.80525 216.87975,74.099625 216.87975,74.099625 C213.6045,83.7045 212.089875,90.237 215.183625,94.105875 C219.6045,99.56775 226.923375,93.914625 232.87725,86.448375 C231.59925,95.395125 236.236125,96.795375 239.7705,96.109875 C243.830625,95.012625 248.355,90.675375 250.454625,88.453125 C249.780375,91.05975 249.96375,95.725875 253.657125,96.192 C256.18875,96.66 258.08325,95.283 260.2755,94.1025 C268.138875,89.82075 277.55175,75.553125 279.995625,71.428125 L276.79125,71.428125 C273.31725,76.6785 268.896375,83.562375 263.3355,86.82975 L263.3355,86.82975 L263.3355,86.82975 Z M192.75375,85.87425 C192.255,85.13325 192.089625,84.322875 192.073125,83.446875 C191.9775,78.065625 197.767125,68.4285 201.853875,63.1785 L201.8625,63.1785 C203.575125,66.9285 207.453375,69.339 209.7945,70.354875 C206.88675,76.83225 196.914375,90.70425 192.75375,85.87425 L192.75375,85.87425 L192.75375,85.87425 Z M211.4355,67.459125 C211.158375,67.65225 206.268,66.004875 205.323,61.47675 C204.52125,57.57825 207.205875,54.532125 209.803125,52.9965 C210.918,52.117875 212.59725,51.81675 213.829125,52.254 C214.9725,53.0235 215.28225,54.39675 215.28225,55.8765 C215.28225,56.784 215.161875,57.71625 215.05575,58.56675 C215.05575,58.56675 215.0355,58.732125 215.032125,58.7595 C214.21725,61.804875 212.970375,64.796625 211.4355,67.459125 L211.4355,67.459125 L211.4355,67.459125 Z M250.659,84.1455 C250.654875,84.1455 249.73125,84.968625 249.73125,84.968625 C248.412,86.148 247.0545,87.410625 245.41575,86.779125 C244.963125,86.6145 244.64475,86.0115 244.56825,85.5435 C244.493625,82.16775 246.013875,79.039875 247.488,75.994125 L247.866,75.197625 C252.1065,68.11725 257.0355,59.77425 264.2745,53.98425 C265.494375,53.104125 266.818125,52.364625 268.215375,52.941375 C268.53675,53.2425 268.911,53.7645 268.911,54.285375 C268.911,54.45075 268.764375,54.8895 268.679625,55.026 C266.658,58.293375 264.732375,61.7235 262.86,65.016375 C259.20075,71.521125 255.404625,78.244125 250.659,84.1455 L250.659,84.1455 L250.659,84.1455 Z" id="path15"></path>
        </g>
    </g>
</svg>