<?xml version="1.0" encoding="UTF-8"?>
<svg width="500px" height="500px" viewBox="0 0 500 500" version="1.1" xmlns="http://www.w3.org/2000/svg" xmlns:xlink="http://www.w3.org/1999/xlink">
    <!-- Generator: Sketch 59 (86127) - https://sketch.com -->
    <title>cocacola</title>
    <desc>Created with Sketch.</desc>
    <g id="cocacola" stroke="none" stroke-width="1" fill="none" fill-rule="evenodd">
        <g transform="translate(62.000000, 188.000000)" fill="#101131">
            <path d="M144.295136,107.799682 C130.313197,98.7927727 111.337909,97.2122424 80.7357424,105.702485 C48.112,113.368879 37.2347576,118.283318 22.9498636,108.417803 C17.4619242,103.57147 15.4943636,95.7683939 16.9635758,84.5285455 C20.3712273,66.2056667 29.5801061,48.5727727 45.937303,29.0136515 C55.0677424,18.8390758 63.5368485,10.1074091 74.7203333,6.60112121 C83.2913636,4.4015303 82.4900606,11.1374545 81.4529697,12.100803 C80.3585758,12.100803 78.5201818,12.2731818 77.0993485,13.2003636 C75.9462424,14.0946667 72.7809545,16.9823636 72.6109242,20.8667576 C72.3657424,26.8131212 78.5197121,25.5754697 81.1739697,22.3106061 C84.0348939,18.6314697 88.2631061,11.5860152 84.9371818,5.01965152 C83.5431212,2.68243939 81.1345152,1.06715152 78.1439545,0.517136364 C67.9036212,-0.0681060606 58.3664242,4.81345455 49.5647727,10.2102727 C30.3156515,23.5820758 14.9175758,42.1106818 6.20469697,62.392197 C1.18128788,74.6292121 -3.36162121,92.158303 3.44804545,106.425348 C8.71569697,116.324682 19.6521212,121.582939 32.6998333,120.483379 C41.8509394,119.521909 52.9165303,116.564227 60.3588788,114.778439 C67.8012273,112.989833 105.897879,99.8942121 118.415303,122.686258 C118.415303,122.686258 122.577758,114.606061 132.980136,114.433682 C141.532379,113.644591 153.869909,116.909455 162.854742,123.508227 C159.861364,119.006652 151.374879,112.372182 144.295136,107.799682 L144.295136,107.799682 L144.295136,107.799682 Z" id="path5"></path>
            <path d="M84.6206061,31.3165758 C77.495303,26.6416818 63.1742424,35.5790758 51.7037727,50.9095152 C41.2145,64.6608333 36.6852121,80.6432121 41.6142121,88.0338939 C48.9466515,96.7303333 62.5584697,84.0809242 68.3470152,77.3102424 L69.0938333,76.518803 C73.0303636,72.2905909 76.0716515,67.2028333 79.0152424,62.3212727 C79.0152424,62.3212727 81.720697,57.8525758 81.8498636,57.6459091 C83.5219848,57.3377879 85.5360455,56.8563485 87.8056212,56.203 C87.7732121,56.3053939 79.1223333,70.8462727 80.0048939,78.0636364 C80.2796667,80.2655758 80.0697121,88.3091364 87.9230455,90.7492121 C98.3897727,92.5035303 106.747561,84.3899848 114.120864,77.1712121 C114.120864,77.1712121 115.377303,75.9692576 116.087955,75.2830303 C115.908061,76.0030758 115.673682,76.9636061 115.673682,76.9636061 C112.609379,87.6200909 116.739894,89.8558485 119.323697,90.6811061 C127.132409,92.9511515 136.461061,81.6065606 136.491121,81.6065606 C136.249227,85.1800152 135.541864,88.1362879 139.308833,90.5082576 C142.864439,91.7811364 146.462788,89.8408182 149.197833,88.0188636 C159.049727,81.0753333 166.986667,70.2079545 173.397561,60.8140152 L169.308379,60.8140152 C169.26,60.8140152 159.217879,75.3689848 152.697076,78.5323939 C152.686742,78.5323939 151.500288,79.1415909 150.816409,78.6596818 C149.970015,77.9372879 150.30397,76.4361364 150.826742,75.3727424 C150.859621,75.3032273 176.003909,31.692803 176.003909,31.692803 L164.131848,31.692803 C164.131848,31.692803 162.835015,33.7909394 162.729333,33.9285606 C162.649485,33.8599848 162.459258,33.4992576 162.327273,33.3264091 C154.971818,23.1518333 138.314955,38.8021364 125.774515,56.9512273 C120.9465,63.9299848 114.799576,71.7875455 108.425788,77.4591364 C108.425788,77.4591364 98.9834697,86.1147121 94.9487727,79.8959242 C93.4739242,77.283 93.9276515,73.4629545 94.7594848,70.954303 C99.4569242,57.5825 107.551212,45.4469394 116.76197,38.1243636 C119.362212,36.0976212 122.188379,35.5114394 123.590894,36.3709848 C124.927182,37.1628939 125.142773,39.1205909 124.297318,40.4615758 C122.152212,40.393 120.433591,41.0449394 119.036242,42.4887879 C116.283818,45.3764848 115.327515,48.1613182 116.202561,50.7742424 C120.453788,56.8239394 128.932288,44.8612273 128.522242,37.5738788 C128.375697,34.9609545 126.981636,32.4865909 124.901348,31.2822879 C121.800879,29.4269848 117.07103,29.9074848 114.010015,31.3865606 C109.912379,32.932803 103.425864,38.3291515 99.6396364,42.5235455 C94.8731515,47.7836818 86.6985455,53.6267121 84.1419848,52.9724242 C84.9794545,50.7371364 91.8844697,36.6095909 84.6206061,31.3165758 L84.6206061,31.3165758 L84.6206061,31.3165758 Z M141.858348,52.2162121 C144.167848,49.0199242 150.889682,40.4601667 152.528455,39.0167879 C158.039879,34.1681061 160.242758,36.3014697 160.433455,37.8129545 C155.289803,47.0251212 149.21897,57.5787424 143.511212,67.0666212 C143.522955,67.032803 141.724955,69.7819394 141.724955,69.7819394 C139.204091,73.6311061 136.665848,76.931197 132.52547,79.2341212 C131.935061,79.4069697 130.961848,79.4760152 130.314136,78.9931667 C129.534439,78.4774394 129.226788,77.6178939 129.314621,76.7235909 C129.562621,73.7682576 132.57197,64.7294091 141.858348,52.2162121 L141.858348,52.2162121 L141.858348,52.2162121 Z M77.2726667,57.7501818 C77.2726667,57.7501818 77.1693333,58.0606515 77.1181364,58.1621061 C77.1049848,58.1621061 71.9420758,66.5828333 71.9420758,66.5828333 C68.8261061,70.7429394 64.9356061,75.9692576 60.0723636,78.4774394 C58.6308636,78.9588788 56.6384091,79.2688788 55.6229242,77.9978788 C53.470303,75.4192424 54.5797273,71.8443788 55.4810758,68.9571515 L55.8,67.925697 C58.3842727,60.9140606 62.4847273,54.7253333 66.4757424,48.984697 C66.5255303,48.9508788 66.6373182,48.9165909 66.6777121,48.9165909 C66.6871061,48.9508788 66.7030758,48.9508788 66.7101212,49.0199242 C69.2145455,53.8315 73.9105758,56.0649091 77.4225,57.0977727 C77.4436364,57.0977727 77.4661818,57.1320606 77.4661818,57.2011061 C77.4666515,57.3035 77.4093485,57.4420606 77.2726667,57.7501818 L77.2726667,57.7501818 L77.2726667,57.7501818 Z M82.1640909,47.8170303 C82.1415455,47.8856061 79.8644545,53.1100455 79.8644545,53.1100455 C79.535197,53.3848182 79.0147727,53.2476667 78.4182576,53.1100455 L77.396197,52.937197 C74.1867576,51.9409697 71.7659394,49.8094848 71.0195909,47.2660758 C69.9900152,42.3159394 74.218697,38.4315455 76.0819848,37.0229242 C77.8696515,35.7843333 80.6488485,35.1314545 82.2627273,36.4038636 C83.2580152,37.5729394 83.6351818,39.0848939 83.6351818,40.7358788 C83.6356515,42.9697576 82.9461364,45.4788788 82.1640909,47.8170303 L82.1640909,47.8170303 L82.1640909,47.8170303 Z" id="path7"></path>
            <path d="M232.251061,63.7655909 C231.106409,61.2912273 228.388742,59.7097576 225.492591,59.881197 C216.087848,60.7412121 206.888833,68.4752424 202.058939,79.5774697 C199.524455,85.2842879 198.141197,89.993 197.234212,97.4865455 C200.158545,94.1188182 206.123697,88.5848485 212.89297,85.5595303 C212.89297,85.5595303 213.814045,78.3755152 218.511015,71.9815303 C220.288348,69.3338485 223.845364,65.0718182 227.839197,66.2056667 C231.328576,67.3752121 230.102197,77.0345303 225.464409,86.3824394 C222.032803,93.2583333 216.781591,100.135167 211.468379,104.877697 C206.770939,108.865424 199.820833,113.67747 193.740136,109.965455 C189.910227,107.697758 187.956758,102.952879 188.369621,96.8341364 C190.199561,79.4755455 198.101273,64.6941818 209.409227,47.8508485 C221.068985,32.2104091 233.921773,16.1575758 251.236212,7.59687879 C254.767864,5.80968182 258.038364,5.39728788 260.86547,6.49731818 C260.86547,6.49731818 244.612076,15.4347121 236.864424,31.9694545 C234.893576,36.1638485 232.152424,41.8340303 234.912833,46.8532121 C236.355273,49.465197 238.91653,49.6718636 240.9785,49.5342424 C250.475303,47.3337121 256.610955,38.4653636 261.62403,30.353697 C264.530515,24.2006667 267.113848,18.0819242 267.113848,11.2755455 C267.113848,10.4507576 267.071106,9.35119697 267.001121,8.5254697 C271.538394,6.12015152 280.842152,10.3817121 280.842152,10.3817121 C288.112591,12.7889091 303.593333,24.6487576 308.815424,26.9164545 C311.362591,23.9606515 315.54853,19.4924242 317.90547,17.2576061 L314.493591,15.1604091 C309.031015,11.8260303 303.25703,8.66309091 297.573697,5.53537879 C284.666894,-1.51054545 274.161182,0.963818182 268.814152,2.88910606 C266.712727,3.64484848 264.792136,4.29819697 264.792136,4.29819697 C260.824136,-0.0328787879 254.316485,0.378575758 249.521348,1.54812121 C232.276894,6.49778788 216.266333,18.5628939 199.101258,39.4977576 C186.481439,55.8948788 178.65347,70.0576515 174.481152,84.0475758 C171.265136,93.4654697 170.287697,107.318712 178.137273,115.534652 C184.811197,122.510591 193.660758,120.999576 199.910076,118.490924 C213.45003,111.822167 225.619409,97.4527273 231.683197,80.9184545 C233.146303,76.0035455 234.770515,69.0600152 232.251061,63.7655909 L232.251061,63.7655909 L232.251061,63.7655909 Z M263.385394,11.9636515 C261.59303,32.5199394 245.614409,44.5864545 241.66097,45.5474545 C239.265045,46.0279545 235.176803,44.9631515 238.826348,36.3362273 C244.201091,24.7163939 253.377091,14.8518182 263.222409,9.79834848 C263.461955,10.6578939 263.455848,11.2065 263.385394,11.9636515 L263.385394,11.9636515 L263.385394,11.9636515 Z" id="path9"></path>
            <path d="M358.169773,14.5751667 C349.574788,19.457197 340.665106,22.6187273 329.879455,21.5191667 C326.890303,24.8887727 323.980061,28.360303 321.297621,31.934697 C336.435485,35.784803 352.484091,27.2255152 361.434167,19.0795606 C370.902318,10.8636212 375.757576,0.517606061 375.757576,0.517606061 C375.757576,0.517606061 368.660455,8.62927273 358.169773,14.5751667 L358.169773,14.5751667 L358.169773,14.5751667 Z" id="path11"></path>
            <polygon id="polygon13" points="195.736348 31.6932727 184.461742 31.6932727 178.102045 42.0266061 189.374303 42.0266061"></polygon>
            <path d="M329.834364,108.756455 C328.622076,109.581242 326.918955,108.947152 327.555864,107.057091 C329.14203,102.244576 335.448182,92.437303 335.448182,92.437303 L353.01297,61.2841818 L340.981212,61.2841818 C340.409591,62.2235758 339.1865,64.3808939 339.1865,64.3808939 C338.629909,63.4537121 336.965303,61.3917424 336.280015,60.9464697 C333.340652,59.0888182 329.027894,59.9671515 326.052833,61.6510152 C313.117848,69.2145455 303.680227,84.1579545 296.237409,95.8116061 C296.237409,95.8116061 288.402394,108.765848 284.053,109.729197 C280.657561,110.004439 281.007955,105.43053 281.15497,104.364788 C282.467773,96.6636364 285.516576,89.3424697 288.588394,82.708 C294.835833,78.3769242 301.965833,72.7053333 308.445303,66.4837273 C322.507091,53.0419394 334.361773,37.8138939 336.094485,34.4109394 C336.094485,34.4109394 334.218985,34.7895152 332.004364,34.8576212 C321.186303,49.9480455 299.048545,71.8800758 292.337045,75.1449394 C295.310227,67.993803 314.519424,33.8604545 330.866288,17.5328485 L333.438818,15.0570758 C337.416212,11.1726818 341.537803,7.18542424 344.749591,6.53207576 C345.088712,6.49778788 345.52553,6.53207576 345.902697,7.32398485 C346.045955,10.3483636 344.920091,12.5831818 343.628424,15.1265909 L341.818212,18.8395455 C341.818212,18.8395455 344.382288,18.3581061 346.066152,17.8066818 C348.020091,14.1303636 350.183985,10.0040758 349.386439,5.08963636 C349.120121,3.50816667 347.97547,2.30527273 346.479485,2.0300303 C341.603091,1.10190909 336.28847,4.71012121 332.012348,7.63304545 L331.8395,7.73543939 C309.857212,24.9573485 291.294788,49.7761364 275.066288,83.6699394 C273.890167,84.5623636 269.345848,85.6290455 268.573197,85.1128485 C270.175803,81.813697 272.193621,77.3783485 273.20347,72.5658333 C273.378197,71.1905606 273.540712,69.7819394 273.540712,68.4071364 C273.540712,65.4485152 272.83053,62.6650909 270.18003,60.7407424 C267.072515,59.1935606 263.231803,59.9159545 260.642364,61.0840909 C249.041788,65.8966061 240.371652,77.7912121 234.115288,87.5867424 C230.750379,93.8102273 227.395333,100.475697 226.466273,108.108273 C225.811985,114.088455 227.144045,117.938561 230.544182,119.864318 C234.041076,121.650576 238.442136,119.793864 240.171091,118.90097 C251.923379,112.713652 260.134621,100.305197 266.607515,88.9606061 C266.864909,88.9267879 270.398909,88.8243939 273.071955,88.1358182 C273.107652,88.1358182 273.122682,88.1358182 273.181864,88.1719848 C273.028742,88.6853636 271.647364,92.8116515 271.647364,92.8116515 C267.54503,104.842 265.647924,113.024121 269.522924,117.869985 C275.060182,124.711121 284.227258,117.630439 291.684636,108.278773 C290.083909,119.484803 295.891712,121.238652 300.318606,120.380045 C305.404015,119.005712 311.070909,113.573197 313.700742,110.789773 C312.856227,114.054636 313.085909,119.899076 317.711955,120.482909 C320.882879,121.069091 323.255788,119.344364 326.001636,117.865758 C335.850712,112.502758 347.640576,94.632197 350.701591,89.4655303 L346.68803,89.4655303 C342.336758,96.0417576 336.7995,104.663985 329.834364,108.756455 L329.834364,108.756455 L329.834364,108.756455 Z M241.428939,107.559667 C240.804242,106.631545 240.597106,105.61653 240.576439,104.519318 C240.456667,97.7791667 247.708318,85.7084242 252.827076,79.1326667 L252.837879,79.1326667 C254.982985,83.8296364 259.840591,86.8488485 262.772909,88.1212576 C259.130879,96.2343333 246.640227,113.609364 241.428939,107.559667 L241.428939,107.559667 L241.428939,107.559667 Z M264.828303,84.4942576 C264.481197,84.7361515 258.355879,82.6727727 257.172242,77.0011818 C256.16803,72.1182121 259.530591,68.3028636 262.783712,66.3794545 C264.180121,65.2789545 266.283424,64.9017879 267.826379,65.4494545 C269.258485,66.4132727 269.646455,68.133303 269.646455,69.9867273 C269.646455,71.1233939 269.495682,72.2910606 269.362758,73.3563333 C269.362758,73.3563333 269.337394,73.5634697 269.333167,73.5977576 C268.312515,77.4121667 266.750773,81.1594091 264.828303,84.4942576 L264.828303,84.4942576 L264.828303,84.4942576 Z M313.956727,105.394364 C313.951561,105.394364 312.794697,106.425348 312.794697,106.425348 C311.142303,107.902545 309.442,109.484015 307.389424,108.693045 C306.8225,108.486848 306.423727,107.731576 306.327909,107.145394 C306.234439,102.917182 308.138591,98.9994394 309.98497,95.1845606 L310.458424,94.1869242 C315.769758,85.3185758 321.943455,74.8687576 331.010485,67.6166364 C332.538409,66.5142576 334.196439,65.5880152 335.94653,66.3104091 C336.349061,66.6875758 336.817818,67.3413939 336.817818,67.993803 C336.817818,68.2009394 336.634167,68.7504848 336.528015,68.9214545 C333.995879,73.0139242 331.583985,77.3102424 329.238788,81.4346515 C324.655485,89.5820152 319.900742,98.0027424 313.956727,105.394364 L313.956727,105.394364 L313.956727,105.394364 Z" id="path15"></path>
        </g>
    </g>
</svg>