<?xml version="1.0" encoding="UTF-8" standalone="no"?>
<svg width="300px" height="100px" viewBox="0 0 300 100" version="1.1" xmlns="http://www.w3.org/2000/svg" xmlns:xlink="http://www.w3.org/1999/xlink">
    <!-- Generator: Sketch 39.1 (31720) - http://www.bohemiancoding.com/sketch -->
    <title>google copy</title>
    <desc>Created with Sketch.</desc>
    <defs></defs>
    <g id="Page-1" stroke="none" stroke-width="1" fill="none" fill-rule="evenodd">
        <g id="google-copy" fill="#7F7F7F">
            <g id="Group">
                <path d="M128.611111,52.4222222 C128.611111,66.6111111 117.511111,77.0666667 103.888889,77.0666667 C90.2666667,77.0666667 79.1666667,66.6111111 79.1666667,52.4222222 C79.1666667,38.1333333 90.2666667,27.7777778 103.888889,27.7777778 C117.511111,27.7777778 128.611111,38.1333333 128.611111,52.4222222 L128.611111,52.4222222 Z M117.788889,52.4222222 C117.788889,43.5555556 111.355556,37.4888889 103.888889,37.4888889 C96.4222222,37.4888889 89.9888889,43.5555556 89.9888889,52.4222222 C89.9888889,61.2 96.4222222,67.3555556 103.888889,67.3555556 C111.355556,67.3555556 117.788889,61.1888889 117.788889,52.4222222 L117.788889,52.4222222 Z" id="Shape"></path>
                <path d="M181.944444,52.4222222 C181.944444,66.6111111 170.844444,77.0666667 157.222222,77.0666667 C143.6,77.0666667 132.5,66.6111111 132.5,52.4222222 C132.5,38.1444444 143.6,27.7777778 157.222222,27.7777778 C170.844444,27.7777778 181.944444,38.1333333 181.944444,52.4222222 L181.944444,52.4222222 Z M171.122222,52.4222222 C171.122222,43.5555556 164.688889,37.4888889 157.222222,37.4888889 C149.755556,37.4888889 143.322222,43.5555556 143.322222,52.4222222 C143.322222,61.2 149.755556,67.3555556 157.222222,67.3555556 C164.688889,67.3555556 171.122222,61.1888889 171.122222,52.4222222 L171.122222,52.4222222 Z" id="Shape"></path>
                <path d="M233.055556,29.2666667 L233.055556,73.5111111 C233.055556,91.7111111 222.322222,99.1444444 209.633333,99.1444444 C197.688889,99.1444444 190.5,91.1555556 187.788889,84.6222222 L197.211111,80.7 C198.888889,84.7111111 203,89.4444444 209.622222,89.4444444 C217.744444,89.4444444 222.777778,84.4333333 222.777778,75 L222.777778,71.4555556 L222.4,71.4555556 C219.977778,74.4444444 215.311111,77.0555556 209.422222,77.0555556 C197.1,77.0555556 185.811111,66.3222222 185.811111,52.5111111 C185.811111,38.6 197.1,27.7777778 209.422222,27.7777778 C215.3,27.7777778 219.966667,30.3888889 222.4,33.2888889 L222.777778,33.2888889 L222.777778,29.2777778 L233.055556,29.2777778 L233.055556,29.2666667 Z M223.544444,52.5111111 C223.544444,43.8333333 217.755556,37.4888889 210.388889,37.4888889 C202.922222,37.4888889 196.666667,43.8333333 196.666667,52.5111111 C196.666667,61.1 202.922222,67.3555556 210.388889,67.3555556 C217.755556,67.3555556 223.544444,61.1 223.544444,52.5111111 L223.544444,52.5111111 Z" id="Shape"></path>
                <polygon id="Shape" points="250 3.33333333 250 75.5555556 239.444444 75.5555556 239.444444 3.33333333"></polygon>
                <path d="M291.133333,60.5333333 L299.533333,66.1333333 C296.822222,70.1444444 290.288889,77.0555556 279,77.0555556 C265,77.0555556 254.544444,66.2333333 254.544444,52.4111111 C254.544444,37.7555556 265.088889,27.7666667 277.788889,27.7666667 C290.577778,27.7666667 296.833333,37.9444444 298.877778,43.4444444 L300,46.2444444 L267.055556,59.8888889 C269.577778,64.8333333 273.5,67.3555556 279,67.3555556 C284.511111,67.3555556 288.333333,64.6444444 291.133333,60.5333333 L291.133333,60.5333333 Z M265.277778,51.6666667 L287.3,42.5222222 C286.088889,39.4444444 282.444444,37.3 278.155556,37.3 C272.655556,37.3 265,42.1555556 265.277778,51.6666667 L265.277778,51.6666667 Z" id="Shape"></path>
                <path d="M39.2111111,46.0111111 L39.2111111,35.5555556 L74.4444444,35.5555556 C74.7888889,37.3777778 74.9666667,39.5333333 74.9666667,41.8666667 C74.9666667,49.7111111 72.8222222,59.4111111 65.9111111,66.3222222 C59.1888889,73.3222222 50.6,77.0555556 39.2222222,77.0555556 C18.1333333,77.0555556 0.4,59.8777778 0.4,38.7888889 C0.4,17.7 18.1333333,0.522222222 39.2222222,0.522222222 C50.8888889,0.522222222 59.2,5.1 65.4444444,11.0666667 L58.0666667,18.4444444 C53.5888889,14.2444444 47.5222222,10.9777778 39.2111111,10.9777778 C23.8111111,10.9777778 11.7666667,23.3888889 11.7666667,38.7888889 C11.7666667,54.1888889 23.8111111,66.6 39.2111111,66.6 C49.2,66.6 54.8888889,62.5888889 58.5333333,58.9444444 C61.4888889,55.9888889 63.4333333,51.7666667 64.2,46 L39.2111111,46.0111111 L39.2111111,46.0111111 Z" id="Shape"></path>
            </g>
        </g>
    </g>
</svg>