<?xml version="1.0" encoding="UTF-8"?>
<svg width="500px" height="500px" viewBox="0 0 500 500" version="1.1" xmlns="http://www.w3.org/2000/svg" xmlns:xlink="http://www.w3.org/1999/xlink">
    <!-- Generator: Sketch 59 (86127) - https://sketch.com -->
    <title>google</title>
    <desc>Created with Sketch.</desc>
    <g id="google" stroke="none" stroke-width="1" fill="none" fill-rule="evenodd">
        <g id="google-color" transform="translate(63.000000, 188.000000)" fill="#101131">
            <path d="M160.118251,65.264614 C160.118251,82.9294958 146.298974,95.9464525 129.339581,95.9464525 C112.380187,95.9464525 98.5609103,82.9294958 98.5609103,65.264614 C98.5609103,47.4752343 112.380187,34.5827755 129.339581,34.5827755 C146.298974,34.5827755 160.118251,47.4752343 160.118251,65.264614 L160.118251,65.264614 Z M146.644801,65.264614 C146.644801,54.2257921 138.635431,46.6729139 129.339581,46.6729139 C120.04373,46.6729139 112.03436,54.2257921 112.03436,65.264614 C112.03436,76.1927711 120.04373,83.8563141 129.339581,83.8563141 C138.635431,83.8563141 146.644801,76.178938 146.644801,65.264614 L146.644801,65.264614 Z" id="Shape"></path>
            <path d="M226.51718,65.264614 C226.51718,82.9294958 212.697903,95.9464525 195.73851,95.9464525 C178.779116,95.9464525 164.959839,82.9294958 164.959839,65.264614 C164.959839,47.4890674 178.779116,34.5827755 195.73851,34.5827755 C212.697903,34.5827755 226.51718,47.4752343 226.51718,65.264614 L226.51718,65.264614 Z M213.04373,65.264614 C213.04373,54.2257921 205.03436,46.6729139 195.73851,46.6729139 C186.44266,46.6729139 178.433289,54.2257921 178.433289,65.264614 C178.433289,76.1927711 186.44266,83.8563141 195.73851,83.8563141 C205.03436,83.8563141 213.04373,76.178938 213.04373,65.264614 L213.04373,65.264614 Z" id="Shape"></path>
            <path d="M290.149487,36.4364123 L290.149487,91.5198572 C290.149487,114.178492 276.786702,123.432842 260.98929,123.432842 C246.118697,123.432842 237.168675,113.486836 233.793396,105.352967 L245.523873,100.46988 C247.612673,105.463632 252.730924,111.356537 260.975457,111.356537 C271.087461,111.356537 277.35386,105.117805 277.35386,93.373494 L277.35386,88.9607318 L276.883534,88.9607318 C273.867916,92.6818385 268.05801,95.9326194 260.726461,95.9326194 C245.385542,95.9326194 231.331102,82.5698349 231.331102,65.3752789 C231.331102,48.0562249 245.385542,34.5827755 260.726461,34.5827755 C268.044177,34.5827755 273.854083,37.8335564 276.883534,41.4439982 L277.35386,41.4439982 L277.35386,36.4502454 L290.149487,36.4502454 L290.149487,36.4364123 Z M278.308344,65.3752789 C278.308344,54.5716198 271.101294,46.6729139 261.929942,46.6729139 C252.634092,46.6729139 244.846051,54.5716198 244.846051,65.3752789 C244.846051,76.0682731 252.634092,83.8563141 261.929942,83.8563141 C271.101294,83.8563141 278.308344,76.0682731 278.308344,65.3752789 L278.308344,65.3752789 Z" id="Shape"></path>
            <polygon id="Shape" points="311.24498 4.14993307 311.24498 94.0651495 298.103525 94.0651495 298.103525 4.14993307"></polygon>
            <path d="M362.455154,75.3627845 L372.912985,82.334672 C369.537706,87.3284248 361.403838,95.9326194 347.349398,95.9326194 C329.919679,95.9326194 316.902722,82.45917 316.902722,65.2507809 C316.902722,47.0049085 330.030344,34.5689424 345.841589,34.5689424 C361.763498,34.5689424 369.551539,47.2400714 372.096832,54.087461 L373.493976,57.5734047 L332.478804,74.5604641 C335.61892,80.7161981 340.502008,83.8563141 347.349398,83.8563141 C354.21062,83.8563141 358.96921,80.4810353 362.455154,75.3627845 L362.455154,75.3627845 Z M330.265506,64.3239625 L357.682731,52.9393128 C356.174922,49.1075413 351.637662,46.437751 346.298081,46.437751 C339.450692,46.437751 329.919679,52.4828202 330.265506,64.3239625 L330.265506,64.3239625 Z" id="Shape"></path>
            <path d="M48.817046,57.2829094 L48.817046,44.2659527 L92.6818385,44.2659527 C93.1106649,46.5345828 93.3319946,49.2182062 93.3319946,52.1231593 C93.3319946,61.8893351 90.6622044,73.9656403 82.0580098,82.5698349 C73.6889781,91.2846943 62.9959839,95.9326194 48.8308791,95.9326194 C22.5756359,95.9326194 0.497991968,74.546631 0.497991968,48.2913878 C0.497991968,22.0361446 22.5756359,0.65015618 48.8308791,0.65015618 C63.3556448,0.65015618 73.7028112,6.34939759 81.4770192,13.7777778 L72.291834,22.962963 C66.7170906,17.7340473 59.1642124,13.6671129 48.817046,13.6671129 C29.6443552,13.6671129 14.6492637,29.118697 14.6492637,48.2913878 C14.6492637,67.4640785 29.6443552,82.9156627 48.817046,82.9156627 C61.253012,82.9156627 68.3355645,77.9219099 72.8728246,73.3846497 C76.552432,69.7050424 78.9732262,64.4484605 79.9277108,57.2690763 L48.817046,57.2829094 L48.817046,57.2829094 Z" id="Shape"></path>
        </g>
    </g>
</svg>