<?xml version="1.0" encoding="UTF-8"?>
<svg width="150px" height="50px" viewBox="0 0 150 50" version="1.1" xmlns="http://www.w3.org/2000/svg" xmlns:xlink="http://www.w3.org/1999/xlink">
    <!-- Generator: Sketch 53.2 (72643) - https://sketchapp.com -->
    <title>google</title>
    <desc>Created with Sketch.</desc>
    <g id="layout" stroke="none" stroke-width="1" fill="none" fill-rule="evenodd">
        <g id="Artboard-Copy-17" transform="translate(-100.000000, -821.000000)" fill="#768093">
            <g id="Comapnes" transform="translate(100.000000, 811.000000)">
                <g id="google" transform="translate(0.000000, 10.000000)">
                    <path d="M64.3055556,26.2111111 C64.3055556,33.3055556 58.7555556,38.5333333 51.9444444,38.5333333 C45.1333333,38.5333333 39.5833333,33.3055556 39.5833333,26.2111111 C39.5833333,19.0666667 45.1333333,13.8888889 51.9444444,13.8888889 C58.7555556,13.8888889 64.3055556,19.0666667 64.3055556,26.2111111 L64.3055556,26.2111111 Z M58.8944444,26.2111111 C58.8944444,21.7777778 55.6777778,18.7444444 51.9444444,18.7444444 C48.2111111,18.7444444 44.9944444,21.7777778 44.9944444,26.2111111 C44.9944444,30.6 48.2111111,33.6777778 51.9444444,33.6777778 C55.6777778,33.6777778 58.8944444,30.5944444 58.8944444,26.2111111 L58.8944444,26.2111111 Z" id="Shape"></path>
                    <path d="M90.9722222,26.2111111 C90.9722222,33.3055556 85.4222222,38.5333333 78.6111111,38.5333333 C71.8,38.5333333 66.25,33.3055556 66.25,26.2111111 C66.25,19.0722222 71.8,13.8888889 78.6111111,13.8888889 C85.4222222,13.8888889 90.9722222,19.0666667 90.9722222,26.2111111 L90.9722222,26.2111111 Z M85.5611111,26.2111111 C85.5611111,21.7777778 82.3444444,18.7444444 78.6111111,18.7444444 C74.8777778,18.7444444 71.6611111,21.7777778 71.6611111,26.2111111 C71.6611111,30.6 74.8777778,33.6777778 78.6111111,33.6777778 C82.3444444,33.6777778 85.5611111,30.5944444 85.5611111,26.2111111 L85.5611111,26.2111111 Z" id="Shape"></path>
                    <path d="M116.527778,14.6333333 L116.527778,36.7555556 C116.527778,45.8555556 111.161111,49.5722222 104.816667,49.5722222 C98.8444444,49.5722222 95.25,45.5777778 93.8944444,42.3111111 L98.6055556,40.35 C99.4444444,42.3555556 101.5,44.7222222 104.811111,44.7222222 C108.872222,44.7222222 111.388889,42.2166667 111.388889,37.5 L111.388889,35.7277778 L111.2,35.7277778 C109.988889,37.2222222 107.655556,38.5277778 104.711111,38.5277778 C98.55,38.5277778 92.9055556,33.1611111 92.9055556,26.2555556 C92.9055556,19.3 98.55,13.8888889 104.711111,13.8888889 C107.65,13.8888889 109.983333,15.1944444 111.2,16.6444444 L111.388889,16.6444444 L111.388889,14.6388889 L116.527778,14.6388889 L116.527778,14.6333333 Z M111.772222,26.2555556 C111.772222,21.9166667 108.877778,18.7444444 105.194444,18.7444444 C101.461111,18.7444444 98.3333333,21.9166667 98.3333333,26.2555556 C98.3333333,30.55 101.461111,33.6777778 105.194444,33.6777778 C108.877778,33.6777778 111.772222,30.55 111.772222,26.2555556 L111.772222,26.2555556 Z" id="Shape"></path>
                    <polygon id="Shape" points="125 1.66666667 125 37.7777778 119.722222 37.7777778 119.722222 1.66666667"></polygon>
                    <path d="M145.566667,30.2666667 L149.766667,33.0666667 C148.411111,35.0722222 145.144444,38.5277778 139.5,38.5277778 C132.5,38.5277778 127.272222,33.1166667 127.272222,26.2055556 C127.272222,18.8777778 132.544444,13.8833333 138.894444,13.8833333 C145.288889,13.8833333 148.416667,18.9722222 149.438889,21.7222222 L150,23.1222222 L133.527778,29.9444444 C134.788889,32.4166667 136.75,33.6777778 139.5,33.6777778 C142.255556,33.6777778 144.166667,32.3222222 145.566667,30.2666667 L145.566667,30.2666667 Z M132.638889,25.8333333 L143.65,21.2611111 C143.044444,19.7222222 141.222222,18.65 139.077778,18.65 C136.327778,18.65 132.5,21.0777778 132.638889,25.8333333 L132.638889,25.8333333 Z" id="Shape"></path>
                    <path d="M19.6055556,23.0055556 L19.6055556,17.7777778 L37.2222222,17.7777778 C37.3944444,18.6888889 37.4833333,19.7666667 37.4833333,20.9333333 C37.4833333,24.8555556 36.4111111,29.7055556 32.9555556,33.1611111 C29.5944444,36.6611111 25.3,38.5277778 19.6111111,38.5277778 C9.06666667,38.5277778 0.2,29.9388889 0.2,19.3944444 C0.2,8.85 9.06666667,0.261111111 19.6111111,0.261111111 C25.4444444,0.261111111 29.6,2.55 32.7222222,5.53333333 L29.0333333,9.22222222 C26.7944444,7.12222222 23.7611111,5.48888889 19.6055556,5.48888889 C11.9055556,5.48888889 5.88333333,11.6944444 5.88333333,19.3944444 C5.88333333,27.0944444 11.9055556,33.3 19.6055556,33.3 C24.6,33.3 27.4444444,31.2944444 29.2666667,29.4722222 C30.7444444,27.9944444 31.7166667,25.8833333 32.1,23 L19.6055556,23.0055556 L19.6055556,23.0055556 Z" id="Shape"></path>
                </g>
            </g>
        </g>
    </g>
</svg>