<?xml version="1.0" encoding="UTF-8"?>
<svg width="500px" height="500px" viewBox="0 0 500 500" version="1.1" xmlns="http://www.w3.org/2000/svg" xmlns:xlink="http://www.w3.org/1999/xlink">
    <!-- Generator: Sketch 59 (86127) - https://sketch.com -->
    <title>google</title>
    <desc>Created with Sketch.</desc>
    <g id="google" stroke="none" stroke-width="1" fill="none" fill-rule="evenodd">
        <g id="google-color" transform="translate(0.000000, 167.000000)" fill="#101131">
            <path d="M214.351852,87.3703704 C214.351852,111.018519 195.851852,128.444444 173.148148,128.444444 C150.444444,128.444444 131.944444,111.018519 131.944444,87.3703704 C131.944444,63.5555556 150.444444,46.2962963 173.148148,46.2962963 C195.851852,46.2962963 214.351852,63.5555556 214.351852,87.3703704 L214.351852,87.3703704 Z M196.314815,87.3703704 C196.314815,72.5925926 185.592593,62.4814815 173.148148,62.4814815 C160.703704,62.4814815 149.981481,72.5925926 149.981481,87.3703704 C149.981481,102 160.703704,112.259259 173.148148,112.259259 C185.592593,112.259259 196.314815,101.981481 196.314815,87.3703704 L196.314815,87.3703704 Z" id="Shape"></path>
            <path d="M303.240741,87.3703704 C303.240741,111.018519 284.740741,128.444444 262.037037,128.444444 C239.333333,128.444444 220.833333,111.018519 220.833333,87.3703704 C220.833333,63.5740741 239.333333,46.2962963 262.037037,46.2962963 C284.740741,46.2962963 303.240741,63.5555556 303.240741,87.3703704 L303.240741,87.3703704 Z M285.203704,87.3703704 C285.203704,72.5925926 274.481481,62.4814815 262.037037,62.4814815 C249.592593,62.4814815 238.87037,72.5925926 238.87037,87.3703704 C238.87037,102 249.592593,112.259259 262.037037,112.259259 C274.481481,112.259259 285.203704,101.981481 285.203704,87.3703704 L285.203704,87.3703704 Z" id="Shape"></path>
            <path d="M388.425926,48.7777778 L388.425926,122.518519 C388.425926,152.851852 370.537037,165.240741 349.388889,165.240741 C329.481481,165.240741 317.5,151.925926 312.981481,141.037037 L328.685185,134.5 C331.481481,141.185185 338.333333,149.074074 349.37037,149.074074 C362.907407,149.074074 371.296296,140.722222 371.296296,125 L371.296296,119.092593 L370.666667,119.092593 C366.62963,124.074074 358.851852,128.425926 349.037037,128.425926 C328.5,128.425926 309.685185,110.537037 309.685185,87.5185185 C309.685185,64.3333333 328.5,46.2962963 349.037037,46.2962963 C358.833333,46.2962963 366.611111,50.6481481 370.666667,55.4814815 L371.296296,55.4814815 L371.296296,48.7962963 L388.425926,48.7962963 L388.425926,48.7777778 Z M372.574074,87.5185185 C372.574074,73.0555556 362.925926,62.4814815 350.648148,62.4814815 C338.203704,62.4814815 327.777778,73.0555556 327.777778,87.5185185 C327.777778,101.833333 338.203704,112.259259 350.648148,112.259259 C362.925926,112.259259 372.574074,101.833333 372.574074,87.5185185 L372.574074,87.5185185 Z" id="Shape"></path>
            <polygon id="Shape" points="416.666667 5.55555556 416.666667 125.925926 399.074074 125.925926 399.074074 5.55555556"></polygon>
            <path d="M485.222222,100.888889 L499.222222,110.222222 C494.703704,116.907407 483.814815,128.425926 465,128.425926 C441.666667,128.425926 424.240741,110.388889 424.240741,87.3518519 C424.240741,62.9259259 441.814815,46.2777778 462.981481,46.2777778 C484.296296,46.2777778 494.722222,63.2407407 498.12963,72.4074074 L500,77.0740741 L445.092593,99.8148148 C449.296296,108.055556 455.833333,112.259259 465,112.259259 C474.185185,112.259259 480.555556,107.740741 485.222222,100.888889 L485.222222,100.888889 Z M442.12963,86.1111111 L478.833333,70.8703704 C476.814815,65.7407407 470.740741,62.1666667 463.592593,62.1666667 C454.425926,62.1666667 441.666667,70.2592593 442.12963,86.1111111 L442.12963,86.1111111 Z" id="Shape"></path>
            <path d="M65.3518519,76.6851852 L65.3518519,59.2592593 L124.074074,59.2592593 C124.648148,62.2962963 124.944444,65.8888889 124.944444,69.7777778 C124.944444,82.8518519 121.37037,99.0185185 109.851852,110.537037 C98.6481481,122.203704 84.3333333,128.425926 65.3703704,128.425926 C30.2222222,128.425926 0.666666667,99.7962963 0.666666667,64.6481481 C0.666666667,29.5 30.2222222,0.87037037 65.3703704,0.87037037 C84.8148148,0.87037037 98.6666667,8.5 109.074074,18.4444444 L96.7777778,30.7407407 C89.3148148,23.7407407 79.2037037,18.2962963 65.3518519,18.2962963 C39.6851852,18.2962963 19.6111111,38.9814815 19.6111111,64.6481481 C19.6111111,90.3148148 39.6851852,111 65.3518519,111 C82,111 91.4814815,104.314815 97.5555556,98.2407407 C102.481481,93.3148148 105.722222,86.2777778 107,76.6666667 L65.3518519,76.6851852 L65.3518519,76.6851852 Z" id="Shape"></path>
        </g>
    </g>
</svg>