<?xml version="1.0" encoding="UTF-8"?>
<svg width="500px" height="500px" viewBox="0 0 500 500" version="1.1" xmlns="http://www.w3.org/2000/svg" xmlns:xlink="http://www.w3.org/1999/xlink">
    <!-- Generator: Sketch 59 (86127) - https://sketch.com -->
    <title>ibm</title>
    <desc>Created with Sketch.</desc>
    <g id="ibm" stroke="none" stroke-width="1" fill="none" fill-rule="evenodd">
        <g id="IBM_logo" transform="translate(0.000000, 151.000000)" fill="#101131" fill-rule="nonzero">
            <polygon id="path1242" points="0.618046972 13.2429913 97.617115 13.2429913 97.617115 0.618046972 0.618046972 0.618046972"></polygon>
            <polygon id="path1244" points="0.618046972 39.7106489 97.617115 39.7106489 97.617115 27.1386588 0.618046972 27.1386588"></polygon>
            <polygon id="path1246" points="28.315259 53.5592583 69.9140253 53.5592583 69.9140253 66.1841965 28.315259 66.1841965"></polygon>
            <polygon id="path1248" points="28.315259 80.0328059 69.9140253 80.0328059 69.9140253 92.604796 28.315259 92.604796"></polygon>
            <polygon id="path1250" points="28.315259 106.435754 69.9140253 106.435754 69.9140253 119.066576 28.315259 119.066576"></polygon>
            <polygon id="path1252" points="28.315259 132.885766 69.9140253 132.885766 69.9140253 145.557769 28.315259 145.557769"></polygon>
            <polygon id="path1254" points="0.618046972 171.978368 97.617115 171.978368 97.617115 159.35343 0.618046972 159.35343"></polygon>
            <polygon id="path1256" points="0.618046972 198.3872 97.617115 198.3872 97.617115 185.81521 0.618046972 185.81521"></polygon>
            <path d="M111.418073,27.1386588 L260.917127,27.1386588 C262.19374,29.4153832 264.652838,36.6985476 265.223487,39.7047713 L111.418073,39.7047713 L111.418073,27.1386588" id="path1266"></path>
            <polygon id="path1268" points="139.186466 53.5592583 180.702869 53.5592583 180.702869 66.1841965 139.186466 66.1841965"></polygon>
            <path d="M222.258691,53.5610198 L266.581287,53.5610198 C266.728363,56.4789926 265.510576,63.3385847 264.692838,66.1859642 L222.258691,66.1859642 L222.258691,53.5610198" id="path1272"></path>
            <path d="M139.187646,106.438109 L245.952511,106.438109 C249.27641,108.744246 254.765261,115.350865 257.465564,119.068931 L139.187646,119.068931 L139.187646,106.438109" id="path1276"></path>
            <polygon id="path1278" points="139.186466 132.885766 180.702869 132.885766 180.702869 145.557769 139.186466 145.557769"></polygon>
            <path d="M222.258691,132.882824 L264.439871,132.882824 C265.357622,134.841867 266.710712,142.801582 266.846021,145.548943 L222.258691,145.548943 L222.258691,132.882824" id="path1282"></path>
            <path d="M111.418073,159.35343 L265.094062,159.35343 C264.876392,162.52437 262.499655,169.589864 261.211274,171.972485 L111.418073,171.972485 L111.418073,159.35343" id="path1286"></path>
            <path d="M111.418073,185.819913 L250.363005,185.819913 C238.049865,196.144598 227.178061,198.39191 208.105341,198.39191 L111.418073,198.39191 L111.418073,185.819913" id="path1290"></path>
            <polygon id="path1294" points="277.709 0.623343634 356.91785 0.623343634 361.100669 13.242398 277.709 13.242398"></polygon>
            <polygon id="path1298" points="277.709 27.1386588 365.683536 27.1386588 369.836942 39.7047713 277.709 39.7047713"></polygon>
            <polygon id="path1302" points="305.392684 53.5610198 374.476868 53.5610198 378.653808 66.1859642 305.392684 66.1859642"></polygon>
            <polygon id="path1306" points="393.856095 80.0345674 471.653017 80.0345674 471.653017 92.6006799 430.107201 92.6006799 430.107201 81.4994376 426.283246 92.6006799 389.70269 92.6006799"></polygon>
            <polygon id="path1310" points="387.410669 92.6000865 350.777164 92.6000865 346.96497 81.45767 346.96497 92.6000865 305.389742 92.6000865 305.389742 80.0339802 383.245496 80.0339802"></polygon>
            <polygon id="path1312" points="305.393271 106.435754 346.962622 106.435754 346.962622 119.066576 305.393271 119.066576"></polygon>
            <polygon id="path1314" points="305.393271 132.885766 346.962622 132.885766 346.962622 145.557769 305.393271 145.557769"></polygon>
            <polygon id="path1316" points="277.707826 159.35343 346.962622 159.35343 346.962622 171.978368 277.707826 171.978368"></polygon>
            <polygon id="path1318" points="277.707826 185.821094 346.962622 185.821094 346.962622 198.393084 277.707826 198.393084"></polygon>
            <polygon id="path1322" points="420.240805 0.623343634 499.355527 0.623343634 499.355527 13.242398 416.005038 13.242398"></polygon>
            <polygon id="path1326" points="411.442764 27.1386588 499.358468 27.1386588 499.358468 39.7047713 407.259946 39.7047713"></polygon>
            <polygon id="path1330" points="402.641781 53.5610198 471.649488 53.5610198 471.649488 66.1859642 398.458963 66.1859642"></polygon>
            <polygon id="path1332" points="430.107201 106.435754 471.653017 106.435754 471.653017 119.066576 430.107201 119.066576"></polygon>
            <polygon id="path1334" points="430.107201 132.885766 471.653017 132.885766 471.653017 145.557769 430.107201 145.557769"></polygon>
            <polygon id="path1336" points="430.107201 159.35343 499.379643 159.35343 499.379643 171.978368 430.107201 171.978368"></polygon>
            <polygon id="path1338" points="430.107201 185.821094 499.379643 185.821094 499.379643 198.393084 430.107201 198.393084"></polygon>
            <polygon id="path1342" points="355.466509 106.438109 421.650372 106.438109 417.373425 119.068931 359.766991 119.068931"></polygon>
            <polygon id="path1346" points="364.428098 132.882824 412.680551 132.882824 408.391837 145.548943 368.710928 145.548943"></polygon>
            <polygon id="path1350" points="373.374983 159.35343 403.707782 159.35343 399.430836 171.972485 377.681342 171.972485"></polygon>
            <polygon id="path1354" points="382.355397 185.819913 394.792078 185.819913 390.473951 198.39191 386.632344 198.39191"></polygon>
            <path d="M139.187646,92.6224475 L245.952511,92.6224475 C249.417603,90.2221755 255.806553,83.568492 258.37743,80.0328059 L139.187646,80.0328059 L139.187646,92.6224475" id="path1358"></path>
            <path d="M111.418073,13.2441656 L250.363005,13.2441656 C238.049865,2.92536465 227.178061,0.672175525 208.105341,0.672175525 L111.418073,0.672175525 L111.418073,13.2441656" id="path1362"></path>
        </g>
    </g>
</svg>