<?xml version="1.0" encoding="UTF-8"?>
<svg width="500px" height="500px" viewBox="0 0 500 500" version="1.1" xmlns="http://www.w3.org/2000/svg" xmlns:xlink="http://www.w3.org/1999/xlink">
    <!-- Generator: Sketch 59 (86127) - https://sketch.com -->
    <title>ibm</title>
    <desc>Created with Sketch.</desc>
    <g id="ibm" stroke="none" stroke-width="1" fill="none" fill-rule="evenodd">
        <g id="IBM_logo" transform="translate(94.000000, 188.000000)" fill="#101131" fill-rule="nonzero">
            <polygon id="path1242" points="0.385114696 8.25191421 60.826745 8.25191421 60.826745 0.385114696 0.385114696 0.385114696"></polygon>
            <polygon id="path1244" points="0.385114696 24.744324 60.826745 24.744324 60.826745 16.9105211 0.385114696 16.9105211"></polygon>
            <polygon id="path1246" points="17.643679 33.3736082 43.5645183 33.3736082 43.5645183 41.2404039 17.643679 41.2404039"></polygon>
            <polygon id="path1248" points="17.643679 49.8696881 43.5645183 49.8696881 43.5645183 57.703491 17.643679 57.703491"></polygon>
            <polygon id="path1250" points="17.643679 66.3217764 43.5645183 66.3217764 43.5645183 74.1922383 17.643679 74.1922383"></polygon>
            <polygon id="path1252" points="17.643679 82.8031911 43.5645183 82.8031911 43.5645183 90.6993133 17.643679 90.6993133"></polygon>
            <polygon id="path1254" points="0.385114696 107.1624 60.826745 107.1624 60.826745 99.2956047 0.385114696 99.2956047"></polygon>
            <polygon id="path1256" points="0.385114696 123.618155 60.826745 123.618155 60.826745 115.784352 0.385114696 115.784352"></polygon>
            <path d="M69.4263369,16.9105211 L162.581527,16.9105211 C163.377004,18.3291835 164.909306,22.8674367 165.264886,24.7406615 L69.4263369,24.7406615 L69.4263369,16.9105211" id="path1266"></path>
            <polygon id="path1268" points="86.7292552 33.3736082 112.598773 33.3736082 112.598773 41.2404039 86.7292552 41.2404039"></polygon>
            <path d="M138.492853,33.3747058 L166.110953,33.3747058 C166.202598,35.1929401 165.443776,39.4672588 164.934231,41.2415053 L138.492853,41.2415053 L138.492853,33.3747058" id="path1272"></path>
            <path d="M86.7299908,66.3232437 L153.256841,66.3232437 C155.328015,67.7602337 158.748203,71.8769211 160.430803,74.1937056 L86.7299908,74.1937056 L86.7299908,66.3232437" id="path1276"></path>
            <polygon id="path1278" points="86.7292552 82.8031911 112.598773 82.8031911 112.598773 90.6993133 86.7292552 90.6993133"></polygon>
            <path d="M138.492853,82.801358 L164.776603,82.801358 C165.348468,84.0220676 166.191599,88.9818904 166.275913,90.6938138 L138.492853,90.6938138 L138.492853,82.801358" id="path1282"></path>
            <path d="M69.4263369,99.2956047 L165.18424,99.2956047 C165.048606,101.271466 163.567624,105.674086 162.764814,107.158734 L69.4263369,107.158734 L69.4263369,99.2956047" id="path1286"></path>
            <path d="M69.4263369,115.787283 L156.005089,115.787283 C148.332579,122.220755 141.558188,123.62109 129.67368,123.62109 L69.4263369,123.62109 L69.4263369,115.787283" id="path1290"></path>
            <polygon id="path1294" points="173.044804 0.388415129 222.401073 0.388415129 225.007452 8.2515445 173.044804 8.2515445"></polygon>
            <polygon id="path1298" points="173.044804 16.9105211 227.863108 16.9105211 230.45116 24.7406615 173.044804 24.7406615"></polygon>
            <polygon id="path1302" points="190.294938 33.3747058 233.34237 33.3747058 235.945087 41.2415053 190.294938 41.2415053"></polygon>
            <polygon id="path1306" points="245.417868 49.8707857 293.894342 49.8707857 293.894342 57.7009261 268.006497 57.7009261 268.006497 50.7835691 265.623731 57.7009261 242.829817 57.7009261"></polygon>
            <polygon id="path1310" points="241.401623 57.7005564 218.574716 57.7005564 216.199278 50.7575431 216.199278 57.7005564 190.293105 57.7005564 190.293105 49.8704198 238.806239 49.8704198"></polygon>
            <polygon id="path1312" points="190.295304 66.3217764 216.197815 66.3217764 216.197815 74.1922383 190.295304 74.1922383"></polygon>
            <polygon id="path1314" points="190.295304 82.8031911 216.197815 82.8031911 216.197815 90.6993133 190.295304 90.6993133"></polygon>
            <polygon id="path1316" points="173.044072 99.2956047 216.197815 99.2956047 216.197815 107.1624 173.044072 107.1624"></polygon>
            <polygon id="path1318" points="173.044072 115.788018 216.197815 115.788018 216.197815 123.621821 173.044072 123.621821"></polygon>
            <polygon id="path1322" points="261.858592 0.388415129 311.156208 0.388415129 311.156208 8.2515445 259.21922 8.2515445"></polygon>
            <polygon id="path1326" points="256.376396 16.9105211 311.158041 16.9105211 311.158041 24.7406615 253.770016 24.7406615"></polygon>
            <polygon id="path1330" points="250.892366 33.3747058 293.892143 33.3747058 293.892143 41.2415053 248.285987 41.2415053"></polygon>
            <polygon id="path1332" points="268.006497 66.3217764 293.894342 66.3217764 293.894342 74.1922383 268.006497 74.1922383"></polygon>
            <polygon id="path1334" points="268.006497 82.8031911 293.894342 82.8031911 293.894342 90.6993133 268.006497 90.6993133"></polygon>
            <polygon id="path1336" points="268.006497 99.2956047 311.171235 99.2956047 311.171235 107.1624 268.006497 107.1624"></polygon>
            <polygon id="path1338" points="268.006497 115.788018 311.171235 115.788018 311.171235 123.621821 268.006497 123.621821"></polygon>
            <polygon id="path1342" points="221.496719 66.3232437 262.736915 66.3232437 260.071883 74.1937056 224.176417 74.1937056"></polygon>
            <polygon id="path1346" points="227.080825 82.801358 257.14768 82.801358 254.475315 90.6938138 229.749523 90.6938138"></polygon>
            <polygon id="path1350" points="232.655768 99.2956047 251.556608 99.2956047 248.891576 107.158734 235.339128 107.158734"></polygon>
            <polygon id="path1354" points="238.251604 115.787283 246.001094 115.787283 243.310401 123.62109 240.916636 123.62109"></polygon>
            <path d="M86.7299908,57.7144899 L153.256841,57.7144899 C155.415994,56.218843 159.397048,52.0728292 160.999002,49.8696881 L86.7299908,49.8696881 L86.7299908,57.7144899" id="path1358"></path>
            <path d="M69.4263369,8.25264592 L156.005089,8.25264592 C148.332579,1.82284028 141.558188,0.418843041 129.67368,0.418843041 L69.4263369,0.418843041 L69.4263369,8.25264592" id="path1362"></path>
        </g>
    </g>
</svg>