<?xml version="1.0" encoding="UTF-8"?>
<svg width="101px" height="40px" viewBox="0 0 101 40" version="1.1" xmlns="http://www.w3.org/2000/svg" xmlns:xlink="http://www.w3.org/1999/xlink">
    <!-- Generator: Sketch 53.2 (72643) - https://sketchapp.com -->
    <title>ibm</title>
    <desc>Created with Sketch.</desc>
    <g id="layout" stroke="none" stroke-width="1" fill="none" fill-rule="evenodd">
        <g id="Artboard-Copy-17" transform="translate(-637.000000, -816.000000)" fill="#768093" fill-rule="nonzero">
            <g id="Comapnes" transform="translate(100.000000, 811.000000)">
                <g id="ibm" transform="translate(537.000000, 5.000000)">
                    <polygon id="path1242" points="0 2.553395 19.6423714 2.553395 19.6423714 0 0 0"></polygon>
                    <polygon id="path1244" points="0 7.90647875 19.6423714 7.90647875 19.6423714 5.36379375 0 5.36379375"></polygon>
                    <polygon id="path1246" points="5.60870259 10.70736 14.0324786 10.70736 14.0324786 13.2607537 5.60870259 13.2607537"></polygon>
                    <polygon id="path1248" points="5.60870259 16.061635 14.0324786 16.061635 14.0324786 18.60432 5.60870259 18.60432"></polygon>
                    <polygon id="path1250" points="5.60870259 21.4016313 14.0324786 21.4016313 14.0324786 23.956215 5.60870259 23.956215"></polygon>
                    <polygon id="path1252" points="5.60870259 26.7511463 14.0324786 26.7511463 14.0324786 29.3140587 5.60870259 29.3140587"></polygon>
                    <polygon id="path1254" points="0 34.657625 19.6423714 34.657625 19.6423714 32.1042312 0 32.1042312"></polygon>
                    <polygon id="path1256" points="0 39.9988112 19.6423714 39.9988112 19.6423714 37.4561262 0 37.4561262"></polygon>
                    <path d="M22.4370739,5.36379375 L52.710725,5.36379375 C52.96924,5.82426125 53.4672088,7.29728125 53.5827656,7.90529 L22.4370739,7.90529 L22.4370739,5.36379375" id="path1266"></path>
                    <polygon id="path1268" points="28.0601907 10.70736 36.467288 10.70736 36.467288 13.2607537 28.0601907 13.2607537"></polygon>
                    <path d="M44.8823677,10.7077163 L53.8577208,10.7077163 C53.887504,11.2978762 53.6409013,12.6852288 53.4753088,13.2611113 L44.8823677,13.2611113 L44.8823677,10.7077163" id="path1272"></path>
                    <path d="M28.0604298,21.4021075 L49.6803809,21.4021075 C50.3534727,21.8685237 51.4649683,23.2047125 52.0117813,23.9566912 L28.0604298,23.9566912 L28.0604298,21.4021075" id="path1276"></path>
                    <polygon id="path1278" points="28.0601907 26.7511463 36.467288 26.7511463 36.467288 29.3140587 28.0601907 29.3140587"></polygon>
                    <path d="M44.8823677,26.7505513 L53.4240829,26.7505513 C53.6099279,27.1467675 53.8839295,28.75662 53.9113297,29.3122738 L44.8823677,29.3122738 L44.8823677,26.7505513" id="path1282"></path>
                    <path d="M22.4370739,32.1042312 L53.5565569,32.1042312 C53.5124786,32.7455537 53.0311879,34.17455 52.77029,34.656435 L22.4370739,34.656435 L22.4370739,32.1042312" id="path1286"></path>
                    <path d="M22.4370739,37.4570775 L50.5735087,37.4570775 C48.0800903,39.545245 45.8785431,39.9997637 42.0163056,39.9997637 L22.4370739,39.9997637 L22.4370739,37.4570775" id="path1290"></path>
                    <polygon id="path1294" points="56.1110897 0.00107125 72.150931 0.00107125 72.9979543 2.553275 56.1110897 2.553275"></polygon>
                    <polygon id="path1298" points="56.1110897 5.36379375 73.9259878 5.36379375 74.767055 7.90529 56.1110897 7.90529"></polygon>
                    <polygon id="path1302" points="61.7170527 10.7077163 75.7066428 10.7077163 76.5524759 13.2611113 61.7170527 13.2611113"></polygon>
                    <polygon id="path1306" points="79.6309484 16.0619912 95.3848733 16.0619912 95.3848733 18.6034875 86.9718199 18.6034875 86.9718199 16.3582612 86.1974665 18.6034875 78.7898812 18.6034875"></polygon>
                    <polygon id="path1310" points="78.3257456 18.6033675 70.9074382 18.6033675 70.1354666 16.3498137 70.1354666 18.6033675 61.716457 18.6033675 61.716457 16.0618725 77.4822954 16.0618725"></polygon>
                    <polygon id="path1312" points="61.7171716 21.4016313 70.134991 21.4016313 70.134991 23.956215 61.7171716 23.956215"></polygon>
                    <polygon id="path1314" points="61.7171716 26.7511463 70.134991 26.7511463 70.134991 29.3140587 61.7171716 29.3140587"></polygon>
                    <polygon id="path1316" points="56.1108519 32.1042312 70.134991 32.1042312 70.134991 34.657625 56.1108519 34.657625"></polygon>
                    <polygon id="path1318" points="56.1108519 37.4573162 70.134991 37.4573162 70.134991 40.0000013 56.1108519 40.0000013"></polygon>
                    <polygon id="path1322" points="84.9738684 0.00107125 100.994649 0.00107125 100.994649 2.553275 84.1161231 2.553275"></polygon>
                    <polygon id="path1326" points="83.1922597 5.36379375 100.995244 5.36379375 100.995244 7.90529 82.3452364 7.90529"></polygon>
                    <polygon id="path1330" points="81.4100553 10.7077163 95.3841587 10.7077163 95.3841587 13.2611113 80.563032 13.2611113"></polygon>
                    <polygon id="path1332" points="86.9718199 21.4016313 95.3848733 21.4016313 95.3848733 23.956215 86.9718199 23.956215"></polygon>
                    <polygon id="path1334" points="86.9718199 26.7511463 95.3848733 26.7511463 95.3848733 29.3140587 86.9718199 29.3140587"></polygon>
                    <polygon id="path1336" points="86.9718199 32.1042312 100.999532 32.1042312 100.999532 34.657625 86.9718199 34.657625"></polygon>
                    <polygon id="path1338" points="86.9718199 37.4573162 100.999532 37.4573162 100.999532 40.0000013 86.9718199 40.0000013"></polygon>
                    <polygon id="path1342" points="71.8570335 21.4021075 85.2593067 21.4021075 84.3932223 23.9566912 72.7278838 23.9566912"></polygon>
                    <polygon id="path1346" points="73.6717607 26.7505513 83.4429124 26.7505513 82.5744451 29.3122738 74.5390365 29.3122738"></polygon>
                    <polygon id="path1350" points="75.4835104 32.1042312 81.6259212 32.1042312 80.7598368 34.656435 76.3555509 34.656435"></polygon>
                    <polygon id="path1354" points="77.3020499 37.4570775 79.8204855 37.4570775 78.946062 39.9997637 78.1681342 39.9997637"></polygon>
                    <path d="M28.0604298,18.60789 L49.6803809,18.60789 C50.3820643,18.122435 51.6758305,16.7767275 52.1964348,16.061635 L28.0604298,16.061635 L28.0604298,18.60789" id="path1358"></path>
                    <path d="M22.4370739,2.5536325 L50.5735087,2.5536325 C48.0800903,0.466655 45.8785431,0.0109475 42.0163056,0.0109475 L22.4370739,0.0109475 L22.4370739,2.5536325" id="path1362"></path>
                </g>
            </g>
        </g>
    </g>
</svg>