<?xml version="1.0" encoding="UTF-8"?>
<svg width="85px" height="50px" viewBox="0 0 85 50" version="1.1" xmlns="http://www.w3.org/2000/svg" xmlns:xlink="http://www.w3.org/1999/xlink">
    <!-- Generator: Sketch 53.2 (72643) - https://sketchapp.com -->
    <title>mlbam</title>
    <desc>Created with Sketch.</desc>
    <g id="layout" stroke="none" stroke-width="1" fill="none" fill-rule="evenodd">
        <g id="Artboard-Copy-17" transform="translate(-483.000000, -922.000000)" fill-rule="nonzero">
            <g id="Comapnes" transform="translate(100.000000, 811.000000)">
                <g id="mlbam" transform="translate(383.000000, 111.000000)">
                    <path d="M65.2063032,19.1864865 L64.2966223,21.6184685 L61.3297606,20.1878378 L60.4689096,20.0923423 L52.4992553,20.0684685 C52.2121543,20.0207207 51.949016,19.7585586 51.8301064,19.4959459 C51.5185904,18.7333333 51.662367,17.7792793 51.6384043,16.8972973 L52.0932447,16.8972973 C52.2840426,13.2495495 52.2600798,9.62567568 49.5084309,7.16981982 C46.6130053,4.42837838 41.922633,4.02297297 38.2133777,5.26261261 C36.0359309,5.90630631 34.240984,8.14774775 34.0257713,10.3887387 C33.9303723,11.0324324 33.953883,11.7234234 33.858484,12.390991 C32.1354255,13.7261261 30.3409309,15.0851351 28.6893085,16.468018 L34.4806117,16.468018 L35.1027394,17.3265766 L33.3317553,21.0698198 C33.3317553,21.2603604 33.2838298,21.4513514 33.3796809,21.618018 C33.7147074,21.9995495 34.2174734,21.9279279 34.6958245,21.9279279 L35.7009043,21.9279279 L36.0119681,24.4072072 C30.8188298,27.2675676 29.4787234,32.8711712 29.5026862,38.4734234 L33.2119415,38.4981982 L35.0548138,41.9072072 L4.37614362,41.8833333 C2.94018617,41.6923423 1.52864362,40.7626126 0.858138298,39.4031532 C0.571037234,38.7364865 0.355824468,38.0675676 0.379335106,37.2810811 L0.403297872,4.16531532 C0.594547872,2.63963964 1.67151596,1.08963964 3.15539894,0.517567568 C3.60978723,0.327027027 4.11255319,0.183783784 4.66279255,0.15990991 L50.3462234,0.15990991 L65.2063032,19.1864865 L65.2063032,19.1864865 Z" id="Shape" fill="#768093"></path>
                    <path d="M79.4447074,0.160810811 C80.9760638,0.351801802 82.5318351,1.42432432 83.1060372,2.9027027 L83.441516,4.0472973 L83.4889894,10.1265766 L83.4650266,37.9022523 C83.32125,39.3567568 82.3161702,40.7635135 80.9516489,41.4310811 C80.2585372,41.740991 79.5405585,41.9792793 78.6788032,41.9081081 L69.4418351,41.9081081 L69.4418351,37.854955 L76.8594415,37.8310811 C77.792633,37.6878378 78.6548404,37.2108108 79.2285904,36.4004505 L81.1428989,32.7765766 C81.5737766,31.727027 80.2580851,31.25 79.8511702,30.4396396 C79.0377926,29.5572072 78.9894149,28.2463964 77.8165957,27.5783784 L74.562633,25.7423423 C74.6101064,25.313964 74.8972074,24.8608108 74.7294681,24.3599099 C74.2515691,23.9783784 74.0363564,23.0486486 73.2460372,23.2153153 L73.1746011,23.2153153 L73.2460372,22.4761261 C72.7197606,22.0468468 72.5520213,21.0216216 71.6911702,21.1648649 C71.9543085,20.1157658 70.9971543,19.4959459 70.5423138,18.7094595 C70.3266489,18.4707207 69.9920745,18.4468468 69.7049734,18.4707207 L58.9597074,0.16036036 L79.4447074,0.16036036 L79.4447074,0.160810811 L79.4447074,0.160810811 Z" id="Shape" fill="#768093"></path>
                    <path d="M12.7988298,30.5108108 C13.2536702,31.2743243 13.4449202,32.3468468 13.1338564,33.2522523 C12.7988298,34.3968468 11.6499734,35.3990991 10.4776064,35.5653153 C9.04164894,35.7324324 7.70154255,35.1121622 7.0075266,33.8486486 C6.4093617,32.7522523 6.50521277,31.1072072 7.34255319,30.1774775 C8.18034574,29.1761261 9.37667553,28.7945946 10.6688564,29.009009 C11.5485442,29.2130819 12.3130897,29.7521477 12.7988298,30.5108108 L12.7988298,30.5108108 Z" id="Shape" fill="#FFFFFF"></path>
                    <path d="M16.7712234,44.0536036 C17.1302128,44.481982 17.1618617,45.0310811 17.1383511,45.6265766 L17.1383511,48.022973 C17.0714362,48.8279279 16.858484,49.5117117 15.8859574,49.7031532 C15.3592287,49.7743243 14.8089894,49.6792793 14.4020745,49.3459459 C14.0670479,48.9878378 13.9354787,48.5585586 13.9594415,48.0342342 L13.9594415,44.7211712 C14.0313298,44.3157658 14.3306383,43.9337838 14.7131383,43.7189189 C15.3836436,43.4806306 16.2449468,43.5045045 16.7712234,44.0536036 Z M39.1221543,43.9337838 C39.5530319,44.3869369 39.6249202,44.9585586 39.5765426,45.6027027 L38.5954255,45.6027027 C38.6193883,45.2445946 38.5954255,44.9112613 38.4281383,44.6252252 C38.2603989,44.4581081 37.9732979,44.4103604 37.7815957,44.5301802 L37.5903457,44.8162162 L37.566383,48.3918919 C37.6143085,48.559009 37.6861968,48.7972973 37.9014096,48.8220721 C38.1645479,48.8459459 38.4281383,48.7972973 38.5235372,48.5351351 C38.6433511,48.2018018 38.5714628,47.7837838 38.5954255,47.4265766 C38.3797606,47.4027027 38.1645479,47.4265766 37.9493351,47.4265766 L37.9493351,46.6040541 L39.6244681,46.6040541 L39.6244681,49.6324324 L39.1456649,49.6324324 L38.9304521,49.2031532 C38.6668617,49.5612613 38.3083245,49.7522523 37.853484,49.7274775 C37.4705319,49.7274775 37.1594681,49.5612613 36.872367,49.2981982 C36.5613032,48.8936937 36.4894149,48.4166667 36.5373404,47.8914414 L36.5613032,44.7216216 C36.6092287,44.3635135 36.8484043,44.0292793 37.1594681,43.7918919 C37.7341223,43.4572072 38.5958777,43.4806306 39.1221543,43.9337838 Z M62.7177926,43.9815315 C62.9569681,44.2918919 63.1965957,44.6977477 63.052367,45.0310811 L62.1666489,45.1261261 C62.1191755,44.863964 62.0237766,44.5779279 61.7606383,44.481982 C61.5214628,44.4346847 61.2583245,44.5067568 61.1380585,44.745045 C60.8749202,45.9364865 62.478617,46.2941441 62.9334574,47.2481982 C63.2205585,47.7725225 63.3159574,48.559009 62.9574202,49.0833333 C62.5505053,49.6797297 61.8085638,49.7747748 61.1145479,49.6797297 C60.707633,49.5846847 60.3490957,49.2027027 60.1813564,48.8454955 L60.013617,48.0581081 L60.9956383,47.9157658 C61.0431117,48.2018018 61.0670745,48.4878378 61.3067021,48.7022523 C61.4504787,48.8454955 61.713617,48.8220721 61.9044149,48.7734234 C62.1675532,48.6545045 62.2398936,48.3914414 62.191516,48.1292793 C61.7615426,46.8896396 59.8707447,46.4373874 60.1099202,44.9108108 C60.1573936,44.5297297 60.2536968,44.1954955 60.5407979,43.9333333 C61.1140957,43.4572072 62.1666489,43.3855856 62.7177926,43.9815315 Z M2.98765957,47.1522523 C3.27476064,45.9837838 3.4899734,44.8162162 3.72960106,43.6481982 L5.09367021,43.6481982 L5.09367021,49.6324324 L4.20840426,49.6324324 L4.20840426,45.0072072 C3.8591966,46.5426017 3.54008448,48.0846367 3.25125,49.6324324 L2.74803191,49.6324324 C2.43696809,48.0824324 2.12635638,46.5567568 1.83880319,45.0072072 L1.79087766,45.0072072 L1.79087766,49.6324324 L0.905611702,49.6324324 L0.905611702,43.6481982 L2.26968085,43.6481982 L2.98765957,47.1522523 Z M9.78359043,49.6324324 L8.77851064,49.6324324 C8.68265957,49.2031532 8.68265957,48.75 8.58680851,48.3207207 L7.46236702,48.3207207 L7.27111702,49.6085586 L6.26603723,49.6324324 L7.39047872,43.6481982 L8.65914894,43.6481982 L9.78359043,49.6324324 Z M12.5596543,48.8220721 C12.5121809,49.131982 12.2725532,49.4653153 11.9614894,49.5846847 C11.6264628,49.7518018 11.1960372,49.7036036 10.7891223,49.727027 L10.7891223,48.8216216 C11.0762234,48.8216216 11.41125,48.8454955 11.5310638,48.5346847 L11.5550266,43.6472973 L12.5840691,43.6472973 L12.5596543,48.8220721 Z M21.342234,44.3396396 C21.6293351,44.9828829 21.6772606,45.9126126 21.2943085,46.5328829 C21.1749468,46.7 21.0311702,46.8427928 20.8399202,46.9382883 L21.7012234,49.631982 L20.6482181,49.631982 L19.9542021,47.2004505 C19.8108777,47.1045045 19.6132979,47.2243243 19.4215957,47.1765766 L19.4215957,49.631982 L18.3749202,49.631982 L18.3749202,43.6477477 C19.4274734,43.7427928 20.743617,43.3373874 21.342234,44.3396396 Z M25.7929787,48.7022523 L27.4201862,48.7261261 L27.4201862,49.6324324 L24.7639362,49.6324324 L24.7639362,43.6477477 L25.7929787,43.6477477 L25.7929787,48.7022523 Z M31.4165426,44.5540541 L29.693484,44.5540541 L29.6695213,46.0797297 L31.0096277,46.0797297 L31.0096277,46.986036 L29.693484,46.986036 C29.6695213,47.5581081 29.693484,48.1297297 29.6695213,48.7027027 C30.2916489,48.75 30.9137766,48.7265766 31.5359043,48.7265766 L31.5359043,49.6328829 L28.6404787,49.6328829 L28.6404787,43.6486486 L31.4160904,43.6486486 L31.4160904,44.5540541 L31.4165426,44.5540541 Z M35.6046011,49.6085586 L34.623484,49.6085586 L34.432234,48.3207207 C34.0972074,48.2495495 33.6902926,48.3445946 33.3313032,48.3207207 L33.1160904,49.6324324 L32.1105585,49.6324324 L33.2114894,43.6481982 L34.5036702,43.6481982 L35.6046011,49.6085586 Z M41.9818617,48.4400901 C42.0297872,48.6072072 42.2088298,48.7734234 42.3765691,48.8220721 C42.6397074,48.8459459 42.9268085,48.7972973 43.0461702,48.5351351 C43.1424734,46.9382883 43.0222074,45.2693694 43.0461702,43.6477477 L44.0996277,43.6477477 L44.0996277,48.4635135 C44.0033245,48.8927928 43.7881117,49.3459459 43.3576862,49.5369369 C42.8069947,49.822973 41.9212766,49.7981982 41.4429255,49.3936937 C41.0360106,49.0594595 40.9401596,48.6072072 40.9401596,48.1058559 L40.9401596,43.6481982 L41.9814096,43.6481982 L41.9814096,48.4400901 L41.9818617,48.4400901 Z M47.9766223,44.5540541 L46.2653191,44.5540541 L46.2653191,46.0797297 L47.5936702,46.0797297 L47.5936702,46.986036 L46.2653191,46.986036 L46.2653191,48.713964 L48.1199468,48.713964 L48.1199468,49.6324324 L45.2245213,49.6324324 L45.2245213,43.6481982 L47.9770745,43.6481982 L47.9770745,44.5540541 L47.9766223,44.5540541 Z M54.1025,44.3396396 C54.3656383,44.863964 54.3896011,45.7216216 53.9831383,46.1995495 L53.599734,46.5094595 C53.9582713,46.6283784 54.2462766,46.9864865 54.3416755,47.3436937 C54.4854521,47.9878378 54.3891489,48.7031532 54.0071011,49.2036036 C53.2891223,49.9189189 52.1163032,49.513964 51.1591489,49.6328829 L51.1591489,43.6486486 C52.1881915,43.7427928 53.503883,43.3373874 54.1025,44.3396396 Z M58.9366489,49.6085586 L57.9315691,49.6085586 L57.739867,48.3202703 L56.6149734,48.3202703 L56.4241755,49.6324324 L55.4430585,49.6324324 L56.5435372,43.6477477 L57.8361702,43.6477477 L58.9366489,49.6085586 Z M66.9289096,44.5540541 L65.2058511,44.5540541 L65.2058511,46.0797297 L66.5224468,46.0797297 L66.5224468,46.986036 L65.2058511,46.986036 L65.2058511,48.713964 L67.0487234,48.713964 L67.0487234,49.6324324 L64.1532979,49.6324324 L64.1532979,43.6481982 L66.9289096,43.6481982 L66.9289096,44.5540541 Z M71.0450798,44.3396396 C71.3091223,44.863964 71.3330851,45.7216216 70.9257181,46.1995495 L70.5662766,46.5094595 C70.9017553,46.6283784 71.2128191,46.9864865 71.2842553,47.3436937 C71.4280319,47.9878378 71.3565957,48.7031532 70.9496809,49.2036036 C70.2317021,49.9189189 69.058883,49.513964 68.1017287,49.6328829 L68.1017287,43.6486486 C69.1303191,43.7427928 70.4708777,43.3373874 71.0450798,44.3396396 Z M75.8073404,49.6085586 L74.8262234,49.6085586 L74.6345213,48.3202703 L73.5105319,48.3202703 L73.3188298,49.6324324 L72.3128457,49.6324324 L73.4142287,43.6477477 L74.7068617,43.6477477 L75.8073404,49.6085586 Z M77.8419149,48.713964 L79.4447074,48.713964 L79.4447074,49.6324324 L76.8124202,49.6324324 L76.8124202,43.6477477 L77.8419149,43.6477477 L77.8419149,48.713964 Z M81.646117,48.713964 L83.2737766,48.713964 L83.2737766,49.6324324 L80.6175266,49.6324324 L80.6175266,43.6477477 L81.646117,43.6477477 L81.646117,48.713964 Z M16.029734,44.7923423 C15.9578457,44.5067568 15.6707447,44.481982 15.4550798,44.481982 C15.2394149,44.5063063 15.0843351,44.6252252 15.0364096,44.8162162 C15.0124468,46.0558559 15.0364096,47.1837838 15.0364096,48.3765766 C15.0364096,48.6153153 15.271516,48.7972973 15.6467819,48.7972973 C15.8140691,48.7734234 15.9818085,48.6783784 16.029734,48.5112613 L16.029734,44.7923423 Z M20.3371543,44.6977477 C20.1214894,44.4346847 19.7326596,44.5540541 19.4215957,44.5306306 L19.4215957,46.2945946 C19.7566223,46.2945946 20.1454521,46.3896396 20.3846277,46.0797297 C20.552367,45.6981982 20.6002926,45.054955 20.3371543,44.6977477 Z M53.1453457,44.8162162 C52.9785106,44.4581081 52.5467287,44.5301802 52.2117021,44.5306306 L52.2117021,46.0797297 C52.5467287,46.1036036 52.9057181,46.1036036 53.121383,45.8175676 C53.2891223,45.5554054 53.2656117,45.1022523 53.1453457,44.8162162 Z M70.0879255,44.8162162 C69.9206383,44.4581081 69.5137234,44.5301802 69.1542819,44.5306306 L69.1542819,46.0797297 C69.4897606,46.1036036 69.8482979,46.1036036 70.0639628,45.8175676 C70.2317021,45.5554054 70.2081915,45.1022523 70.0879255,44.8162162 Z M57.5730319,47.3792793 L57.1900798,44.8878378 L56.8066755,47.3792793 L57.5730319,47.3792793 Z M74.4667819,47.3792793 L74.0607713,44.8878378 L73.677367,47.3792793 L74.4667819,47.3792793 Z M33.4750798,47.3914414 L34.2405319,47.3914414 L33.8575798,44.9112613 L33.4750798,47.3914414 Z M7.62965426,47.3792793 L8.39601064,47.3792793 L8.01305851,44.959009 L7.62965426,47.3792793 Z M53.1453457,47.1765766 C52.9061702,46.9382883 52.5467287,46.9621622 52.2121543,46.9621622 L52.2121543,48.7734234 L52.7144681,48.7734234 C52.9536436,48.75 53.2167819,48.6072072 53.2891223,48.368018 C53.3845213,47.9869369 53.408484,47.4864865 53.1453457,47.1765766 Z M70.1114362,47.1765766 C69.8722606,46.9382883 69.4897606,46.9621622 69.1542819,46.9621622 L69.1542819,48.7734234 L69.6814628,48.7734234 C69.8962234,48.75 70.160266,48.6072072 70.2317021,48.368018 C70.3271011,47.9869369 70.351516,47.4864865 70.1114362,47.1765766 Z" id="Combined-Shape" fill="#768093"></path>
                    <path d="M84.4393617,41.6324324 C84.6627128,41.8567568 84.7748404,42.1279279 84.7748404,42.4445946 C84.7748404,42.7648649 84.6627128,43.0373874 84.4393617,43.2626126 C84.2151064,43.4878378 83.9429255,43.6013514 83.6232713,43.6013514 C83.303617,43.6013514 83.0314362,43.4878378 82.8080851,43.2626126 C82.584734,43.0373874 82.4744149,42.7648649 82.4744149,42.4445946 C82.4744149,42.1279279 82.5856383,41.8567568 82.8098936,41.6324324 C83.0341489,41.4072072 83.3063298,41.2945946 83.6232713,41.2945946 C83.9420213,41.2945946 84.2142021,41.4072072 84.4393617,41.6324324 Z M84.5718351,41.5031532 C84.3226487,41.2492889 83.9796264,41.1087122 83.6232713,41.1144144 C83.2685866,41.1091353 82.9274046,41.2497622 82.680133,41.5031532 C82.424627,41.7496005 82.2827574,42.0903243 82.2881383,42.4445946 C82.2881383,42.8157658 82.4178989,43.1315315 82.676516,43.3923423 C82.9360372,43.6545045 83.2520745,43.7846847 83.6232713,43.7846847 C83.9944681,43.7846847 84.3105053,43.6545045 84.5718351,43.3923423 C84.8331649,43.1310811 84.964734,42.8153153 84.964734,42.4445946 C84.964734,42.0765766 84.8331649,41.7626126 84.5718351,41.5031532 Z M83.8222074,42.3828829 C83.7675,42.404955 83.6852128,42.4153153 83.5757979,42.4153153 L83.3425,42.4153153 L83.3425,41.8846847 L83.5631383,41.8846847 C83.7069149,41.8846847 83.8113564,41.9031532 83.8755585,41.9391892 C83.941117,41.9761261 83.9736702,42.0472973 83.9736702,42.1540541 C83.9736702,42.2666667 83.9225798,42.3432432 83.8222074,42.3828829 L83.8222074,42.3828829 Z M83.0829787,43.1738739 L83.3425,43.1738739 L83.3425,42.5959459 L83.5464096,42.5959459 C83.6843085,42.5959459 83.7806117,42.6117117 83.8353191,42.6432432 C83.9271011,42.6977477 83.9741223,42.8094595 83.9741223,42.9792793 L83.9741223,43.0954955 L83.9795479,43.1427928 C83.9804521,43.1490991 83.9822606,43.1540541 83.9831649,43.1585586 L83.9867819,43.1734234 L84.2295745,43.1734234 L84.2205319,43.154955 C84.2117691,43.1303718 84.2073334,43.1044656 84.2074202,43.0783784 C84.2049484,43.0423954 84.203742,43.0063373 84.2038032,42.9702703 L84.2038032,42.8630631 C84.2009396,42.7806873 84.1728574,42.7011545 84.1233245,42.6351351 C84.0695213,42.5576577 83.9854255,42.5103604 83.8696809,42.4918919 C83.9605585,42.4779279 84.0319947,42.4540541 84.0835372,42.4216216 C84.1798404,42.359009 84.2273138,42.2630631 84.2273138,42.131982 C84.2273138,41.9481982 84.1513564,41.8238739 83.9994415,41.7617117 C83.9139894,41.7265766 83.7806117,41.709009 83.5975,41.709009 L83.0825266,41.709009 L83.0825266,43.1738739 L83.0829787,43.1738739 L83.0829787,43.1738739 Z" id="Shape" fill="#768093"></path>
                </g>
            </g>
        </g>
    </g>
</svg>