<?xml version="1.0" encoding="UTF-8"?>
<svg width="500px" height="500px" viewBox="0 0 500 500" version="1.1" xmlns="http://www.w3.org/2000/svg" xmlns:xlink="http://www.w3.org/1999/xlink">
    <!-- Generator: Sketch 59 (86127) - https://sketch.com -->
    <title>orange</title>
    <desc>Created with Sketch.</desc>
    <g id="orange" stroke="none" stroke-width="1" fill="none" fill-rule="evenodd">
        <g id="Orange_logo" transform="translate(1.000000, 0.000000)" fill="#101131" fill-rule="nonzero">
            <path d="M0,0 L497.417692,0 C497.41256,166.242188 497.422826,332.484376 497.41256,498.726565 C331.611796,498.736831 165.800765,498.726565 0,498.731697 L0,0 L0,0 Z M430.675467,360.735488 C430.654937,361.792852 430.649803,362.855348 430.670334,363.917844 C433.046836,363.902446 435.433603,363.912712 437.810105,363.912712 C437.825504,370.528933 437.810105,377.145154 437.82037,383.766509 C439.118978,383.756243 440.417584,383.756243 441.716191,383.761377 C441.716191,377.145154 441.711058,370.528933 441.721323,363.912712 C444.102958,363.912712 446.494858,363.907578 448.876493,363.912712 C448.87136,362.855348 448.87136,361.803117 448.876493,360.745753 C442.809485,360.735488 436.742476,360.756019 430.675467,360.735488 L430.675467,360.735488 Z M453.413917,360.740621 C453.398518,368.414206 453.398518,376.087791 453.413917,383.761377 C454.707391,383.761377 456.000865,383.761377 457.299471,383.761377 C457.325135,377.473656 457.258408,371.191068 457.340534,364.903348 C459.94288,371.134607 462.293717,377.468523 464.778009,383.745978 C465.609528,383.75111 466.44618,383.75111 467.293097,383.75111 C469.797919,377.447992 472.184686,371.098678 474.756236,364.826356 C474.802431,371.134607 474.766501,377.447992 474.7819,383.761377 C476.070241,383.756243 477.363714,383.756243 478.657189,383.771642 C478.703384,376.098056 478.662322,368.424471 478.677719,360.750887 C476.706711,360.735488 474.735704,360.740621 472.76983,360.750887 C470.57811,366.515058 468.340195,372.263831 466.117678,378.017736 C463.879763,372.253565 461.600786,366.504792 459.36287,360.740621 C457.376464,360.745753 455.390057,360.740621 453.413917,360.740621 L453.413917,360.740621 Z M59.0429759,385.280695 C49.3624526,385.670789 39.6152041,390.059361 33.8510325,398.040917 C28.8927154,404.728998 26.9114426,413.228969 26.9525053,421.456901 C26.8036535,429.202345 28.3640346,437.178766 32.5010972,443.815519 C35.8528367,449.246057 40.9856695,453.506307 46.8884278,455.898208 C54.0025334,458.787993 61.9789562,459.306409 69.4728921,457.761427 C76.422747,456.329366 83.0030393,452.685054 87.5301972,447.156993 C91.6159321,442.265404 93.9821689,436.116271 94.9471402,429.854214 C95.9891056,422.58099 95.7119333,415.02546 93.5664085,407.972949 C91.5543381,401.36186 87.4737357,395.341047 81.8019558,391.363102 C75.2370623,386.70249 66.998866,384.85467 59.0429759,385.280695 L59.0429759,385.280695 Z M125.297581,395.099804 C125.307846,392.4102 125.307846,389.720595 125.297581,387.036123 C119.502612,387.036123 113.707644,387.005327 107.912676,387.056655 C107.943474,410.236528 107.917809,433.4164 107.928075,456.596273 C114.138802,456.621937 120.349531,456.596273 126.560258,456.611672 C126.591055,441.223439 126.524327,425.830073 126.596188,410.446973 C127.355847,408.183394 129.429512,406.54602 131.498043,405.473259 C136.245913,403.214812 141.625122,403.019765 146.783619,402.973569 C146.783619,397.224796 146.778486,391.476023 146.788753,385.732384 C138.658346,384.972724 130.533071,388.996865 125.297581,395.099804 L125.297581,395.099804 Z M170.897668,387.616133 C164.574018,389.63847 158.933034,393.744736 155.124473,399.20607 C159.235872,401.613368 163.388333,403.95394 167.53053,406.304778 C171.061919,401.921338 176.282009,398.8981 181.928125,398.451543 C185.967665,398.102511 190.807927,398.307824 193.692578,401.587705 C195.735446,403.933409 195.140036,407.213289 195.217029,410.062011 C185.731554,411.180969 176.158821,412.74135 167.320084,416.503716 C162.330969,418.669772 157.465045,421.775136 154.518798,426.487075 C151.228653,431.773894 150.895019,438.533834 152.72744,444.390396 C154.215961,449.220393 157.798679,453.34719 162.407962,455.415722 C167.689648,457.874348 173.730992,457.740895 179.361709,456.842649 C184.977029,455.90334 190.356237,453.711621 195.114372,450.585726 C195.643054,452.592664 196.171737,454.594469 196.705551,456.60654 C202.141221,456.601406 207.57689,456.60654 213.012561,456.60654 C212.81238,440.530506 212.940702,424.444209 212.920169,408.368176 C213.243538,403.630571 212.350425,398.615794 209.378515,394.802099 C205.513492,389.643602 199.112849,387.200374 192.948318,386.21487 C185.618632,385.16264 177.991242,385.347422 170.897668,387.616133 L170.897668,387.616133 Z M261.630753,386.122478 C255.117188,387.467281 249.414611,391.132123 244.096996,394.971483 C243.563181,392.251081 242.947241,389.540946 242.464756,386.815411 C237.388383,387.508344 232.306879,388.211542 227.230508,388.925006 C227.220242,411.453009 227.230508,433.975879 227.230508,456.498749 C233.302648,456.503312 239.369657,456.498749 245.446931,456.498749 C245.446931,439.894036 245.446931,423.294454 245.446931,406.694872 C249.748244,403.112156 254.670631,399.847674 260.347544,399.139342 C263.206533,398.821107 266.563405,398.990491 268.647335,401.254071 C270.705601,403.661369 271.034102,407.002844 271.131627,410.046613 C271.141892,425.532369 271.136759,441.012993 271.136759,456.498749 C277.244831,456.509015 283.352901,456.498749 289.460971,456.498749 C289.460971,440.027489 289.460971,423.556229 289.460971,407.084969 C289.389112,403.779423 288.937423,400.448215 287.797935,397.337719 C286.314545,393.15446 283.239979,389.535813 279.179908,387.698258 C273.723707,385.2191 267.441119,385.01892 261.630753,386.122478 L261.630753,386.122478 Z M309.237777,396.244426 C303.653255,403.805088 301.697645,413.470212 301.877294,422.729843 C301.954287,431.178485 303.827771,440.022356 309.181316,446.756633 C313.426169,452.233365 320.04239,455.610769 326.879323,456.329366 C331.868437,456.806719 337.20145,456.596273 341.661881,454.055521 C344.762112,452.325756 346.943566,449.420574 348.775988,446.448663 C348.919706,449.374377 348.817051,452.305225 348.847847,455.230939 C348.729792,459.106228 348.165181,463.325417 345.485842,466.333257 C343.042613,469.048526 339.234052,470.008365 335.702663,470.018631 C331.991625,470.069959 327.982882,469.941638 324.769728,467.852575 C323.168285,466.820876 322.347031,465.014119 321.874811,463.238158 C315.848866,464.208265 309.828052,465.183502 303.802107,466.153607 C304.8954,471.779192 308.816884,476.552727 313.780334,479.252596 C321.530911,483.564176 330.744346,484.04153 339.388036,483.210011 C346.881972,482.460618 354.796801,480.32536 360.14008,474.684376 C364.929012,469.623403 366.427799,462.416905 366.535589,455.651832 C366.535589,432.70807 366.535589,409.769439 366.535589,386.825678 C361.366827,386.856474 356.198064,386.748685 351.034435,386.882139 C350.634073,389.443422 350.131056,391.994439 349.684499,394.555723 C348.083056,391.234781 344.962293,388.930138 341.615686,387.57507 C337.216848,385.773447 332.366321,385.347422 327.649247,385.619461 C320.319563,386.173807 313.523692,390.326269 309.237777,396.244426 L309.237777,396.244426 Z M385.439812,395.720876 C380.409636,401.710893 378.166588,409.558994 377.60711,417.25311 C377.068163,425.650425 377.853486,434.407037 381.687711,442.019028 C384.659621,447.952583 389.761658,452.813376 395.936455,455.266869 C403.866682,458.464624 412.767014,458.433827 421.030875,456.683531 C429.12022,454.912704 436.732211,450.051911 440.848742,442.722226 C436.357513,440.253334 431.871418,437.758778 427.40072,435.253955 C425.393782,438.133474 422.950554,440.828211 419.783596,442.424522 C416.216277,444.241544 412.053551,444.472522 408.157731,443.907911 C404.385098,443.358697 400.817779,441.2799 398.759513,438.030817 C396.218761,434.037473 395.520696,429.161282 395.489899,424.505803 C410.826804,424.516068 426.16884,424.505803 441.51601,424.510935 C442.034427,418.387466 441.449283,412.145941 439.688723,406.258582 C437.753644,399.873338 433.821894,393.960314 428.144981,390.351933 C421.18486,385.845306 412.489841,384.870069 404.410762,385.819642 C397.178601,386.692223 390.115823,390.028565 385.439812,395.720876 Z" id="Shape"></path>
            <path d="M399.745017,402.054791 C401.962401,399.544836 405.267945,398.194901 408.568357,397.994722 C412.77728,397.681619 417.371164,398.86217 420.245551,402.131784 C422.786303,404.959975 423.633222,408.871193 423.730745,412.582232 C414.40952,412.577099 405.088296,412.592498 395.767072,412.571967 C396.069909,408.804467 397.168335,404.918913 399.745017,402.054791 Z" id="Shape"></path>
            <path d="M331.575865,398.785177 C335.866914,397.994722 340.537791,399.375453 343.576428,402.552677 C347.148879,406.207254 348.601471,411.406813 348.909441,416.401059 C349.053161,420.06077 348.899176,423.746143 348.319165,427.36479 C347.667297,431.178485 346.384088,435.079438 343.632889,437.897363 C341.128067,440.448381 337.483756,441.613534 333.967765,441.526276 C330.693018,441.628933 327.243755,440.586967 324.975042,438.118075 C321.92614,434.971649 320.914971,430.485553 320.422219,426.266365 C320.021858,421.970183 319.903803,417.622674 320.468415,413.336759 C321.00223,409.569259 322.167383,405.740166 324.682471,402.804186 C326.432766,400.725389 328.90166,399.272797 331.575865,398.785177 Z" id="Shape"></path>
            <path d="M58.2935816,400.992296 C62.7386155,400.33016 67.7123301,401.064155 71.1923914,404.118191 C74.4620055,406.936116 76.053183,411.191235 76.7666471,415.348829 C77.5211739,420.02484 77.4903762,424.839436 76.5818652,429.48465 C75.7503469,433.565252 73.9333234,437.681785 70.5456538,440.253334 C66.7678889,443.065922 61.7017826,443.569143 57.1951561,442.640101 C53.514914,441.890708 50.2452998,439.493674 48.3666837,436.239459 C45.656548,431.527518 45.0611393,425.932731 45.174061,420.584318 C45.348578,415.779987 46.1954951,410.780608 48.9312946,406.72567 C51.0511542,403.57411 54.5414805,401.485048 58.2935816,400.992296 Z" id="Shape"></path>
            <path d="M178.340275,425.013953 C183.534702,422.863296 189.134622,421.90859 194.683214,421.205391 C194.703746,426.625662 194.672949,432.051067 194.698613,437.476471 C190.058532,441.644332 184.140376,444.919078 177.760265,444.801023 C175.619874,444.857484 173.500013,443.943841 172.04229,442.388592 C169.265426,439.262697 168.865066,434.314646 171.015723,430.742195 C172.617167,427.975598 175.48642,426.256098 178.340275,425.013953 Z" id="Shape"></path>
        </g>
    </g>
</svg>