<?xml version="1.0" encoding="UTF-8"?>
<svg width="50px" height="50px" viewBox="0 0 50 50" version="1.1" xmlns="http://www.w3.org/2000/svg" xmlns:xlink="http://www.w3.org/1999/xlink">
    <!-- Generator: Sketch 53.2 (72643) - https://sketchapp.com -->
    <title>orange</title>
    <desc>Created with Sketch.</desc>
    <g id="layout" stroke="none" stroke-width="1" fill="none" fill-rule="evenodd">
        <g id="Artboard-Copy-17" transform="translate(-100.000000, -922.000000)" fill="#768093" fill-rule="nonzero">
            <g id="Comapnes" transform="translate(100.000000, 811.000000)">
                <g id="orange" transform="translate(0.000000, 111.000000)">
                    <path d="M0,0 L49.9407363,0 C49.940221,16.6467928 49.9412517,33.2935855 49.940221,49.9403783 C33.2938243,49.9414063 16.6463968,49.9403783 0,49.9408922 L0,0 L0,0 Z M43.2398169,36.1225329 C43.2377557,36.2284129 43.2372402,36.3348067 43.2393016,36.4412007 C43.4779024,36.4396587 43.7175338,36.4406867 43.9561346,36.4406867 C43.9576806,37.1032072 43.9561346,37.7657278 43.9571652,38.4287624 C44.0875454,38.4277343 44.2179255,38.4277343 44.3483055,38.4282484 C44.3483055,37.7657278 44.3477902,37.1032072 44.3488208,36.4406867 C44.5879369,36.4406867 44.8280838,36.4401726 45.0671999,36.4406867 C45.0666846,36.3348067 45.0666846,36.2294408 45.0671999,36.1235608 C44.4580723,36.1225329 43.8489446,36.1245888 43.2398169,36.1225329 L43.2398169,36.1225329 Z M45.5227573,36.1230468 C45.5212112,36.8914474 45.5212112,37.6598479 45.5227573,38.4282484 C45.652622,38.4282484 45.7824868,38.4282484 45.9128669,38.4282484 C45.9154435,37.7986225 45.9087442,37.1695107 45.9169896,36.5398849 C46.1782652,37.1638568 46.4142892,37.7981086 46.6637121,38.4267064 C46.7471966,38.4272204 46.8311964,38.4272204 46.9162269,38.4272204 C47.1677111,37.7960526 47.4073425,37.1602591 47.6655261,36.5321751 C47.6701641,37.1638568 47.6665567,37.7960526 47.6681028,38.4282484 C47.7974522,38.4277343 47.9273169,38.4277343 48.0571818,38.4292763 C48.0618198,37.6608758 48.0576971,36.8924753 48.059243,36.1240749 C47.8613538,36.1225329 47.6634646,36.1230468 47.4660909,36.1240749 C47.2460422,36.7012747 47.0213555,37.2769326 46.7982149,37.8531045 C46.5735282,37.2759046 46.3447189,36.7002467 46.1200322,36.1230468 C45.920597,36.1235608 45.7211617,36.1230468 45.5227573,36.1230468 L45.5227573,36.1230468 Z M5.92791478,38.5803866 C4.95599024,38.6194489 3.97736649,39.0589021 3.39864367,39.8581414 C2.90082863,40.5278578 2.70190884,41.3790091 2.70603153,42.2029195 C2.69108681,42.9785157 2.84774908,43.7772409 3.26311016,44.4418174 C3.5996248,44.9856086 4.11496121,45.4122121 4.70759815,45.651727 C5.42185435,45.9410979 6.2226872,45.9930099 6.97507836,45.8383018 C7.6728438,45.6949013 8.33350515,45.3299753 8.78803179,44.7764186 C9.19823958,44.2865954 9.43580976,43.6708471 9.53269288,43.0437911 C9.6373062,42.3154811 9.6094781,41.5589021 9.39406741,40.8526933 C9.19205554,40.1906867 8.78236306,39.5877879 8.21291636,39.1894532 C7.55380106,38.7227591 6.72668615,38.5377262 5.92791478,38.5803866 L5.92791478,38.5803866 Z M12.5798772,39.5636308 C12.5809078,39.2943051 12.5809078,39.0249795 12.5798772,38.7561678 C11.9980623,38.7561678 11.4162475,38.7530839 10.8344327,38.7582237 C10.8375248,41.0793586 10.834948,43.4004934 10.8359788,45.7216283 C11.4595358,45.7241982 12.0830929,45.7216283 12.7066499,45.7231703 C12.709742,44.1822574 12.7030425,42.6408305 12.7102573,41.1004317 C12.786527,40.8737664 12.994723,40.7098067 13.2024036,40.6023849 C13.6790897,40.3762336 14.2191623,40.3567024 14.7370753,40.3520764 C14.7370753,39.7764186 14.73656,39.2007607 14.7375908,38.6256168 C13.9212979,38.5495476 13.1055203,38.9525082 12.5798772,39.5636308 L12.5798772,39.5636308 Z M17.1581259,38.8142475 C16.5232314,39.0167558 15.9568766,39.42794 15.5744971,39.974815 C15.9872815,40.2158717 16.4041887,40.4502467 16.8200652,40.6856497 C17.1746166,40.2467105 17.6987137,39.9439762 18.2655838,39.8992599 C18.6711536,39.8643092 19.1571158,39.8848684 19.4467348,40.2133018 C19.6518388,40.4481908 19.5920596,40.7766242 19.5997897,41.0618832 C18.647448,41.1739309 17.6863456,41.3301809 16.7989364,41.7069284 C16.2980293,41.9238282 15.8094905,42.2347862 15.5136873,42.70662 C15.1833567,43.2360197 15.1498599,43.9129317 15.333835,44.4993832 C15.4832825,44.9830387 15.8429873,45.3962788 16.3057594,45.6034129 C16.8360406,45.8496093 17.4425916,45.8362459 18.0079156,45.7462993 C18.5716937,45.6522409 19.1117662,45.4327713 19.589483,45.1197574 C19.6425627,45.3207237 19.6956423,45.5211761 19.7492373,45.7226563 C20.2949786,45.7221422 20.8407198,45.7226563 21.3864611,45.7226563 C21.3663629,44.11287 21.3792464,42.5020559 21.377185,40.8922697 C21.4096512,40.4178659 21.3199827,39.9157072 21.0216029,39.5338199 C20.6335546,39.0172697 19.9909301,38.7726151 19.3720111,38.6739309 C18.6361107,38.568565 17.8703207,38.5870683 17.1581259,38.8142475 L17.1581259,38.8142475 Z M26.2677276,38.6646792 C25.6137657,38.7993421 25.0412269,39.1663239 24.5073384,39.5507813 C24.4537434,39.2783717 24.391903,39.0069901 24.3434615,38.7340666 C23.8337937,38.8034539 23.3236107,38.8738692 22.813943,38.9453125 C22.8129123,41.2011718 22.813943,43.4565172 22.813943,45.7118626 C23.4235859,45.7123766 24.0327136,45.7118626 24.6428719,45.7118626 C24.6428719,44.0491366 24.6428719,42.3869243 24.6428719,40.7247121 C25.0747237,40.3659539 25.5689314,40.0390625 26.1388934,39.9681332 C26.4259359,39.9362664 26.7629658,39.9532278 26.9721925,40.1798932 C27.1788423,40.4209499 27.2118239,40.7555511 27.2216153,41.0603413 C27.2226459,42.6110197 27.2221306,44.1611842 27.2221306,45.7118626 C27.835381,45.7128907 28.4486313,45.7118626 29.0618815,45.7118626 C29.0618815,44.0625 29.0618815,42.4131374 29.0618815,40.7637747 C29.0546669,40.4327713 29.0093173,40.0991982 28.8949127,39.7877262 C28.7459803,39.3688322 28.4372939,39.0064762 28.0296628,38.8224712 C27.4818602,38.5742187 26.8510884,38.5541736 26.2677276,38.6646792 L26.2677276,38.6646792 Z M31.0474728,39.6782484 C30.4867868,40.4353413 30.2904435,41.4031661 30.3084803,42.3303866 C30.3162104,43.176398 30.5043082,44.0619861 31.0418041,44.7363282 C31.4679873,45.284745 32.1322559,45.6229441 32.818684,45.6949013 C33.319591,45.7427014 33.8550256,45.7216283 34.3028529,45.467208 C34.6141161,45.2939967 34.833134,45.0030839 35.0171092,44.7054893 C35.0315385,44.998458 35.0212319,45.2919408 35.0243239,45.5849095 C35.0124711,45.9729646 34.9557842,46.3954564 34.6867785,46.6966488 C34.4414784,46.9685445 34.0590988,47.0646587 33.7045474,47.0656867 C33.3319591,47.0708264 32.9294814,47.057977 32.6068807,46.848787 C32.4460958,46.745477 32.363642,46.5645559 32.316231,46.3867187 C31.7112261,46.4838611 31.1067364,46.5815172 30.5017315,46.6786595 C30.6114982,47.2419818 31.0052152,47.7199836 31.5035455,47.9903371 C32.2817034,48.4220805 33.2067323,48.4698808 34.0745588,48.3866159 C34.82695,48.3115749 35.6215988,48.0977591 36.158064,47.5328947 C36.6388728,47.0261103 36.7893511,46.3044818 36.8001731,45.6270559 C36.8001731,43.3295642 36.8001731,41.0325863 36.8001731,38.7350946 C36.2812294,38.7381784 35.7622856,38.7273849 35.2438573,38.7407484 C35.2036609,38.9972245 35.153158,39.2526726 35.1083237,39.5091488 C34.9475388,39.1766037 34.6342142,38.9458264 34.2982149,38.8101357 C33.8565715,38.6297287 33.3695786,38.5870683 32.8959844,38.6143092 C32.1600842,38.6698191 31.4777786,39.0856291 31.0474728,39.6782484 L31.0474728,39.6782484 Z M38.6981571,39.6258224 C38.1931274,40.2256374 37.9679255,41.0115132 37.9117538,41.7819696 C37.8576435,42.6228413 37.93649,43.4996916 38.3214462,44.2619243 C38.619826,44.8560855 39.1320704,45.3428249 39.7520201,45.5885074 C40.5482149,45.9087171 41.4418082,45.9056332 42.2714999,45.7303659 C43.0836701,45.5530428 43.847914,45.0663034 44.2612137,44.3323396 C43.8102943,44.0851151 43.3598904,43.8353208 42.9110323,43.5844984 C42.7095358,43.8728413 42.4642356,44.1426809 42.1462731,44.3025288 C41.7881142,44.4844778 41.3701765,44.5076068 40.9790361,44.4510691 C40.6002639,44.3960732 40.242105,44.1879112 40.0354551,43.8625617 C39.7803636,43.462685 39.7102778,42.9744038 39.7071859,42.5082237 C41.2470111,42.5092516 42.7873516,42.5082237 44.3282074,42.5087376 C44.3802565,41.8955592 44.321508,41.2705592 44.1447478,40.6810238 C43.9504658,40.0416324 43.5557182,39.4495271 42.9857561,39.0881989 C42.2869599,38.6369243 41.4139801,38.5392682 40.6028405,38.6343545 C39.8767315,38.7217311 39.1676286,39.0558183 38.6981571,39.6258224 Z" id="Shape"></path>
                    <path d="M40.1343997,40.2600739 C40.3570251,40.0087376 40.6889017,39.8735608 41.0202631,39.8535157 C41.4428389,39.8221629 41.9040649,39.9403783 42.1926533,40.2677837 C42.4477449,40.5509868 42.5327755,40.9426397 42.5425668,41.3142475 C41.6067158,41.3137336 40.6708649,41.3152755 39.735014,41.3132196 C39.7654189,40.935958 39.8757008,40.546875 40.1343997,40.2600739 Z" id="Shape"></path>
                    <path d="M33.2902169,39.9326686 C33.7210381,39.8535157 34.1899942,39.9917763 34.4950734,40.3099301 C34.8537475,40.6758841 34.9995877,41.1965461 35.0305079,41.6966488 C35.0449373,42.0631168 35.0294773,42.4321546 34.9712442,42.7945107 C34.9057966,43.176398 34.7769624,43.567023 34.5007421,43.8491982 C34.2492579,44.1046463 33.8833691,44.2213199 33.5303636,44.2125822 C33.201579,44.2228618 32.855273,44.1185238 32.6274942,43.8712993 C32.3213844,43.5562295 32.2198631,43.1070107 32.1703908,42.6845189 C32.1301946,42.2543174 32.1183418,41.8189762 32.1750289,41.3898026 C32.2286239,41.0125411 32.3456053,40.6291118 32.5981201,40.3351151 C32.7738497,40.1269532 33.0217266,39.9814967 33.2902169,39.9326686 Z" id="Shape"></path>
                    <path d="M5.85267559,40.1536801 C6.29895699,40.0873766 6.79831794,40.1608758 7.14771609,40.4666941 C7.47598536,40.7488692 7.63573958,41.1749589 7.70737137,41.5912829 C7.78312586,42.0595189 7.78003377,42.5416324 7.68881926,43.0067845 C7.60533483,43.4153988 7.42290567,43.8276111 7.08278364,44.0851151 C6.70349604,44.3667763 6.19485897,44.4171463 5.74239367,44.3241159 C5.37289736,44.2490749 5.0446281,44.0090461 4.85601504,43.6831826 C4.58391741,43.2113487 4.52413839,42.6511103 4.53547573,42.1155428 C4.55299723,41.6344572 4.6380277,41.1338405 4.91270198,40.7277961 C5.12553588,40.4122121 5.47596464,40.2030222 5.85267559,40.1536801 Z" id="Shape"></path>
                    <path d="M17.9053636,42.5591078 C18.426884,42.34375 18.9891161,42.2481497 19.5461947,42.1777343 C19.5482561,42.7204975 19.5451641,43.2637747 19.5477408,43.8070518 C19.0818766,44.2244038 18.4876938,44.5523232 17.8471306,44.5405016 C17.6322354,44.5461554 17.4194013,44.454667 17.2730459,44.2989309 C16.9942488,43.985917 16.9540526,43.49044 17.1699786,43.1327097 C17.3307636,42.8556743 17.6188365,42.6834909 17.9053636,42.5591078 Z" id="Shape"></path>
                </g>
            </g>
        </g>
    </g>
</svg>