<?xml version="1.0" encoding="UTF-8"?>
<svg width="50px" height="50px" viewBox="0 0 50 50" version="1.1" xmlns="http://www.w3.org/2000/svg" xmlns:xlink="http://www.w3.org/1999/xlink">
    <!-- Generator: Sketch 53.2 (72643) - https://sketchapp.com -->
    <title>spotify</title>
    <desc>Created with Sketch.</desc>
    <g id="layout" stroke="none" stroke-width="1" fill="none" fill-rule="evenodd">
        <g id="Artboard-Copy-17" transform="translate(-851.000000, -922.000000)" fill="#768093" fill-rule="nonzero">
            <g id="Comapnes" transform="translate(100.000000, 811.000000)">
                <path d="M775.990328,111 C762.210656,111 751,122.211475 751,135.992295 C751,149.781639 762.210656,161 775.990328,161 C789.780656,161 801,149.781639 801,135.992295 C801,122.211475 789.780656,111 775.990328,111 Z M763.308197,145.17541 C766.205574,144.293443 769.17623,143.84623 772.137213,143.84623 C777.166066,143.84623 782.130656,145.120656 786.496557,147.533115 C786.75623,147.67459 786.992295,148.142459 787.098197,148.724918 C787.204098,149.307213 787.161967,149.906066 786.991967,150.217541 C786.777377,150.617213 786.341967,150.875574 785.882459,150.875574 C785.654754,150.875574 785.45459,150.824426 785.254426,150.71623 C781.246557,148.513279 776.71082,147.348689 772.137213,147.348689 C769.374098,147.348689 766.661475,147.757705 764.077049,148.563279 C763.951148,148.601475 763.821639,148.620984 763.692131,148.620984 C763.12623,148.621148 762.635082,148.260656 762.470328,147.725738 C762.247869,146.994426 762.708033,145.371639 763.308197,145.17541 Z M762.218033,135.967705 C765.447377,135.089836 768.784754,134.64459 772.137377,134.64459 C778.164426,134.64459 784.149344,136.102951 789.449016,138.864098 C789.820492,139.052623 790.094262,139.372295 790.219672,139.764098 C790.346885,140.160984 790.308525,140.587705 790.11,140.968525 C789.637049,141.894098 789.084262,142.516066 788.734098,142.516066 C788.485902,142.516066 788.246393,142.456557 788.007869,142.337377 C783.086721,139.774754 777.747213,138.47541 772.137213,138.47541 C769.016721,138.47541 765.955246,138.885738 763.040656,139.694262 C762.905082,139.730984 762.765902,139.749508 762.627377,139.749508 C761.92623,139.749672 761.308361,139.276066 761.12541,138.599836 C760.891148,137.720328 761.426393,136.182951 762.218033,135.967705 Z M761.938852,129.951803 C761.79082,129.988361 761.639508,130.006721 761.489016,130.006721 C760.641639,130.006885 759.907377,129.434262 759.703443,128.61541 C759.447869,127.578852 760.096393,126.374754 761.035574,126.138197 C764.688197,125.240984 768.423279,124.786066 772.137213,124.786066 C779.326721,124.786066 786.212131,126.402459 792.60459,129.591311 C793.048525,129.810328 793.379508,130.188361 793.536885,130.655738 C793.694262,131.123607 793.659508,131.627213 793.439836,132.072131 C793.140492,132.671311 792.493607,133.316393 791.780656,133.316393 C791.505738,133.316393 791.223443,133.251967 790.973443,133.13459 C785.101475,130.196721 778.764098,128.707049 772.137377,128.707049 C768.731803,128.707213 765.300656,129.125902 761.938852,129.951803 Z" id="spotify"></path>
            </g>
        </g>
    </g>
</svg>