<?xml version="1.0" encoding="UTF-8" standalone="no"?>
<svg width="299px" height="25px" viewBox="0 0 299 25" version="1.1" xmlns="http://www.w3.org/2000/svg" xmlns:xlink="http://www.w3.org/1999/xlink">
    <!-- Generator: Sketch 39.1 (31720) - http://www.bohemiancoding.com/sketch -->
    <title>victoriassecret copy</title>
    <desc>Created with Sketch.</desc>
    <defs></defs>
    <g id="Page-1" stroke="none" stroke-width="1" fill="none" fill-rule="evenodd">
        <g id="victoriassecret-copy" fill="#7F7F7F">
            <path d="M31.0320813,12.064869 C31.0314326,10.0955234 31.0327301,8.74652885 31.0359738,8.01790149 C31.0391852,7.28932278 31.0482352,6.75204423 31.0631078,6.40608206 C31.0837867,5.94934583 31.1587498,5.61048748 31.2880295,5.389507 C31.4172767,5.16855896 31.6628772,5.02297946 32.0248148,4.95273605 C32.177336,4.92312061 32.3065994,4.90508536 32.4126052,4.89861408 C32.5185785,4.89219146 32.6168155,4.88961268 32.7073161,4.89089396 C32.7570752,4.88768264 32.8049043,4.86320855 32.8508034,4.81745545 C32.89667,4.7717348 32.9212252,4.72405167 32.9244689,4.67442229 C32.9257664,4.5977887 32.892145,4.54240166 32.8236532,4.50822876 C32.755129,4.47410451 32.6439656,4.45735054 32.490147,4.45796685 C32.017711,4.46054563 31.4735233,4.47082832 30.8576,4.48884735 C30.2416605,4.50689882 29.8758466,4.51719773 29.7601583,4.51976029 C29.6334736,4.51719773 29.2663784,4.50689882 28.6588565,4.48884735 C28.0513183,4.47082832 27.4980805,4.46051319 26.9991269,4.45791819 C26.8453082,4.4573181 26.7341287,4.47408829 26.6656369,4.50821254 C26.5971127,4.54240166 26.5635074,4.5977887 26.5648049,4.67442229 C26.5660862,4.72405167 26.5867813,4.7717348 26.6268417,4.81745545 C26.6669182,4.86320855 26.7186236,4.88768264 26.7819578,4.89089396 C26.8788973,4.89091018 27.0030031,4.8986303 27.1542268,4.91408677 C27.3054666,4.92955946 27.4605827,4.95275227 27.6195752,4.98364899 C27.909761,5.04101471 28.1204588,5.18145287 28.2516685,5.40497969 C28.382862,5.62852273 28.4617176,5.96223974 28.488219,6.40608206 C28.5179317,6.75204423 28.5360319,7.28932278 28.5425032,8.01790149 C28.5489582,8.74652885 28.5515532,10.0955234 28.5502557,12.064869 L28.5502557,16.7032046 C28.5515532,17.9819882 28.5412057,19.1119323 28.5192292,20.0930694 C28.4972691,21.0742065 28.455895,21.8408344 28.3951396,22.3929206 C28.3576581,22.7813759 28.2930263,23.0944627 28.2012606,23.3321809 C28.1094787,23.5698991 27.9362625,23.7206524 27.6816119,23.7844245 C27.5536459,23.816635 27.4140511,23.8449854 27.2628113,23.8694595 C27.1115715,23.8939335 26.9719767,23.9068275 26.8440107,23.9081087 C26.7670852,23.9113363 26.7115198,23.9358104 26.6772495,23.9815472 C26.6429955,24.0273003 26.6261929,24.0749672 26.6268417,24.1245642 C26.6320154,24.27402 26.776784,24.3461772 27.0611636,24.3410196 C27.5303882,24.3371596 28.0655421,24.3217031 28.666609,24.294634 C29.2676759,24.2675811 29.6321923,24.2521247 29.7601583,24.2482484 C29.861639,24.2521247 30.2558844,24.2675811 30.9429107,24.294634 C31.6299369,24.3217031 32.3731936,24.3371596 33.1726807,24.3410196 C33.3264831,24.3397383 33.4376464,24.3191081 33.5061544,24.2791775 C33.5746462,24.239247 33.6082677,24.1877038 33.6069702,24.1245642 C33.6076189,24.0749672 33.5908163,24.0273003 33.5565623,23.9815472 C33.5222921,23.9358104 33.4667266,23.91132 33.3898173,23.9081087 C33.2547314,23.9068275 33.0673075,23.8939335 32.8275295,23.8694595 C32.5877352,23.8449854 32.3615323,23.816635 32.1489045,23.7844245 C31.7604654,23.7206524 31.5058148,23.5698991 31.3849689,23.3321809 C31.2641068,23.0944627 31.1878462,22.7813759 31.156171,22.3929206 C31.0967131,21.8408344 31.0605128,21.0742065 31.0475865,20.0930694 C31.0346601,19.1119323 31.0294863,17.9819882 31.0320813,16.7032046 L31.0320813,12.064869 L31.0320813,12.064869 Z M68.2160483,5.66394448 L71.6285707,5.72578657 C72.8998288,5.76317079 73.7620176,5.91262658 74.2150884,6.17417015 C74.6681429,6.43572994 74.9020984,6.77072823 74.9169872,7.17913259 L74.9479975,7.45744634 C74.9628539,7.63912879 74.987409,7.76281298 75.0216793,7.82849892 C75.0559171,7.89423351 75.1037461,7.92514645 75.1651666,7.92127017 C75.2297821,7.92065386 75.286645,7.89100598 75.3357878,7.8323752 C75.384882,7.77376063 75.4107509,7.69002323 75.4133459,7.58113054 C75.4172059,7.37113015 75.4327111,6.9330617 75.4598775,6.26692518 C75.4870114,5.60083732 75.5025166,5.03906846 75.5064091,4.58166726 C75.5089716,4.50115738 75.5038141,4.43029766 75.4909039,4.36907188 C75.4779614,4.30789475 75.4417611,4.27566809 75.3823194,4.27244056 C75.320899,4.27373806 75.2265383,4.28663197 75.0992373,4.31108985 C74.9719039,4.33559638 74.8077377,4.36393053 74.606755,4.39612475 C74.3915159,4.42836763 74.123939,4.45670179 73.8040404,4.48115966 C73.4840931,4.50566619 73.1001952,4.5185601 72.6523144,4.51982516 L62.3527429,4.51982516 C62.1762991,4.52049013 61.8777119,4.51145629 61.4569651,4.49275607 C61.0362183,4.47410451 60.6212778,4.44189407 60.212176,4.39612475 C59.8476434,4.34268397 59.5762064,4.27954438 59.3978326,4.20672219 C59.2194425,4.13394865 59.0876003,4.09401809 59.0022735,4.08689806 C58.9538118,4.09787815 58.9033877,4.16100153 58.8510498,4.27630063 C58.7986957,4.39164838 58.7560404,4.49342104 58.7230839,4.58166726 C58.6849536,4.77752489 58.5828241,5.24394372 58.4167279,5.98090752 C58.2506155,6.71788754 58.156271,7.19977906 58.1336458,7.42651719 C58.1375221,7.50319944 58.1607798,7.55860269 58.2034513,7.59271072 C58.2461066,7.62688363 58.2848857,7.6436376 58.3197884,7.64297263 C58.3818252,7.64621638 58.4361093,7.63204119 58.4826571,7.60046329 C58.5291887,7.5689016 58.5679678,7.50062066 58.598978,7.39560425 C58.6384058,7.30863931 58.6836561,7.20427165 58.7347127,7.08250127 C58.7857694,6.96076333 58.8853038,6.78683345 59.0332999,6.56067919 C59.218145,6.25727503 59.5154509,6.04469587 59.9252177,5.92290927 C60.3349682,5.80117133 60.9580115,5.73546917 61.7943313,5.72578657 L65.7342389,5.66394448 L65.7342389,16.7032046 C65.7368177,17.9819882 65.7316439,19.1119323 65.7187175,20.0930694 C65.7057912,21.0742065 65.6695909,21.8408344 65.6101492,22.3929206 C65.5707052,22.7826734 65.4944446,23.1009177 65.3813513,23.3476374 C65.2682255,23.5943732 65.0756279,23.7502841 64.8035421,23.8153537 C64.6768574,23.8475479 64.5424364,23.8758983 64.4002466,23.9003724 C64.2580569,23.9248627 64.1236196,23.9377404 63.9969512,23.9390379 C63.9200419,23.9409679 63.8644602,23.9602845 63.8302062,23.9970037 C63.7959522,24.033723 63.7791496,24.0762485 63.7797983,24.1245642 C63.7785008,24.2012302 63.8121061,24.2566335 63.8806141,24.2907739 C63.9491221,24.3249144 64.0602854,24.3416684 64.214104,24.3410196 C64.6768737,24.3371596 65.2327064,24.3217031 65.8816024,24.294634 C66.5304984,24.2675811 66.9156937,24.2521247 67.0372208,24.2482484 C67.152893,24.2521247 67.5497334,24.2675811 68.2277096,24.294634 C68.9056858,24.3217031 69.6360161,24.3371596 70.4187168,24.3410196 C70.572503,24.3397383 70.6836501,24.3191081 70.7521743,24.2791775 C70.8206661,24.239247 70.8542713,24.1877038 70.8529901,24.1245642 C70.8555688,24.0749672 70.8426425,24.0273003 70.814211,23.9815472 C70.7857633,23.9358104 70.7263054,23.91132 70.6358372,23.9081087 C70.498805,23.9068275 70.3075048,23.8939335 70.0619043,23.8694595 C69.8163037,23.8449854 69.5939771,23.816635 69.3949244,23.7844245 C68.9903152,23.7206524 68.721457,23.5698991 68.5883335,23.3321809 C68.4551775,23.0944627 68.3724457,22.7813759 68.3401542,22.3929206 C68.28068,21.8408344 68.2444798,21.0742065 68.2315696,20.0930694 C68.2186271,19.1119323 68.2134533,17.9819882 68.2160483,16.7032046 L68.2160483,5.66394448 L68.2160483,5.66394448 Z M77.5505068,14.3531076 C77.5438085,15.9700522 77.9122499,17.563512 78.6558471,19.1334708 C79.3994282,20.703462 80.5583876,22.010596 82.1326931,23.0548889 C83.7069986,24.0991818 85.7368887,24.6412773 88.2223473,24.6811755 C91.555998,24.6012819 94.2032711,23.5473388 96.1641991,21.5193625 C98.1250623,19.4913699 99.1281433,16.9686406 99.1734099,13.9511259 C99.1074482,10.8614864 98.0759519,8.45212609 96.0788723,6.72302889 C94.0817602,4.99398033 91.5146239,4.11528087 88.3774635,4.08689806 C85.8705474,4.13521372 83.8180646,4.70862764 82.2200149,5.80710739 C80.6219489,6.90561958 79.4426998,8.23948205 78.6822675,9.8086786 C77.9218189,11.3779076 77.5445708,12.8927227 77.5505068,14.3531076 L77.5505068,14.3531076 L77.5505068,14.3531076 Z M80.3735912,13.6418992 C80.4155978,10.7822415 81.1536807,8.63958241 82.5878399,7.21392181 C84.0219829,5.78829364 85.9001629,5.07578771 88.2223473,5.07642024 C90.4488736,5.08289152 92.3477325,5.89717011 93.9189077,7.51928844 C95.4900667,9.14143921 96.3108815,11.532748 96.381352,14.6932635 C96.3355664,17.1979738 95.8790248,19.0945458 95.0117596,20.3829633 C94.1444295,21.6714133 93.1409916,22.5372189 92.0013973,22.9804449 C90.8617706,23.4236709 89.8606195,23.6298112 88.997928,23.598882 C86.4805346,23.5666716 84.4265759,22.6725157 82.8360192,20.9163818 C81.2454464,19.1602479 80.4246478,16.7354312 80.3735912,13.6418992 L80.3735912,13.6418992 L80.3735912,13.6418992 Z M104.714643,16.7032046 C104.717871,17.9819882 104.7114,19.1119323 104.695262,20.0930694 C104.679092,21.0742065 104.633841,21.8408344 104.559527,22.3929206 C104.508471,22.7813759 104.439963,23.0944627 104.354003,23.3321809 C104.268044,23.5698991 104.098704,23.7206524 103.845999,23.7844245 C103.718033,23.816635 103.578422,23.8449854 103.427199,23.8694595 C103.275959,23.8939335 103.136348,23.9068275 103.008382,23.9081087 C102.931473,23.9113363 102.875891,23.9358104 102.841637,23.9815472 C102.807383,24.0273003 102.79058,24.0749672 102.791229,24.1245642 C102.796403,24.27402 102.941172,24.3461772 103.225551,24.3410196 C103.702528,24.3371596 104.253187,24.3217031 104.877528,24.294634 C105.501853,24.2675811 105.850864,24.2521247 105.924546,24.2482484 C106.025362,24.2521247 106.413152,24.2675811 107.087901,24.294634 C107.762649,24.3217031 108.491682,24.3371596 109.275015,24.3410196 C109.428818,24.3397383 109.539981,24.3191081 109.608489,24.2791775 C109.676981,24.239247 109.710586,24.1877038 109.709321,24.1245642 C109.711884,24.0749672 109.698957,24.0273003 109.670542,23.9815472 C109.642078,23.9358104 109.58262,23.91132 109.492152,23.9081087 C109.356417,23.9068275 109.170291,23.8939335 108.93374,23.8694595 C108.69719,23.8449854 108.480021,23.816635 108.282266,23.7844245 C107.876375,23.7206524 107.602343,23.5698991 107.460153,23.3321809 C107.317964,23.0944627 107.230058,22.7813759 107.196469,22.3929206 C107.136995,21.8421156 107.100811,21.0806615 107.087884,20.1085258 C107.074958,19.1364226 107.069784,18.0116198 107.072379,16.7341337 L107.072379,16.1156965 C107.072363,15.9662408 107.134416,15.8940835 107.258506,15.8992249 L109.618804,15.961067 C109.707975,15.9598019 109.77778,15.9701008 109.828204,15.9919961 C109.878612,16.0139077 109.932896,16.0551357 109.991073,16.1156965 C110.299992,16.497713 110.721387,17.0478692 111.25526,17.7661652 C111.7891,18.4844775 112.35009,19.2124399 112.938247,19.9500524 C113.698274,20.9382771 114.36527,21.7525557 114.939203,22.3929206 C115.513104,23.0332693 116.087036,23.5074083 116.660969,23.8153537 C116.984112,23.9995987 117.361555,24.1335818 117.793298,24.2173354 C118.225025,24.3010891 118.81962,24.3423009 119.577117,24.3410196 L121.283362,24.3410196 C121.527649,24.3416684 121.69827,24.3249144 121.795242,24.2907739 C121.892181,24.2566335 121.938697,24.2012302 121.934853,24.1245642 C121.934188,24.0749672 121.912212,24.0273003 121.868924,23.9815472 C121.825603,23.9358104 121.764848,23.91132 121.686674,23.9081087 C121.611678,23.9100388 121.49792,23.9061787 121.345415,23.8965123 C121.192861,23.886846 120.986056,23.8597931 120.724967,23.8153537 C120.390795,23.7915121 119.981045,23.6613729 119.495683,23.4249522 C119.010288,23.1885314 118.406642,22.7105162 117.684729,21.9909227 C116.894276,21.1643989 116.024351,20.1735955 115.074938,19.0185123 C114.125492,17.8634453 113.092698,16.586608 111.976524,15.1880164 C113.229066,14.1128268 115.219723,13.0859529 115.71999,12.1073783 C116.220209,11.1288362 116.460635,10.156068 116.441254,9.1890899 C116.405054,8.2723899 116.174958,7.50834078 115.751,6.89697498 C115.32701,6.2856254 114.926293,5.85401202 114.548866,5.60210238 C113.821115,5.12154081 113.011929,4.80715655 112.121341,4.65896582 C111.230705,4.51082376 110.343977,4.4438241 109.461125,4.45796685 C108.969941,4.46054563 108.331392,4.47082832 107.545496,4.48884735 C106.759568,4.50689882 106.260631,4.51719773 106.048635,4.51976029 C105.923897,4.51719773 105.521899,4.50689882 104.842625,4.48884735 C104.163352,4.47082832 103.489884,4.46051319 102.822256,4.45791819 C102.668421,4.4573181 102.557258,4.47408829 102.48875,4.50821254 C102.420242,4.54240166 102.386636,4.5977887 102.387934,4.67442229 C102.391161,4.72405167 102.415716,4.7717348 102.461616,4.81745545 C102.507498,4.86320855 102.555327,4.88768264 102.605087,4.89089396 C102.738875,4.89155893 102.897867,4.89798155 103.082064,4.91021049 C103.26626,4.92247186 103.4175,4.93664705 103.535767,4.95273605 C103.972019,5.01136683 104.26287,5.15696256 104.408287,5.389507 C104.553705,5.62208388 104.635139,5.96095846 104.65259,6.40608206 C104.682319,6.75204423 104.700419,7.28932278 104.706891,8.01790149 C104.713346,8.74652885 104.715925,10.0955234 104.714643,12.064869 L104.714643,16.7032046 L104.714643,16.7032046 Z M107.072379,5.84948698 C107.073661,5.77283717 107.094339,5.70969757 107.134416,5.66008442 C107.174476,5.61048748 107.226182,5.57055691 107.289532,5.54026029 C107.442702,5.50678479 107.70251,5.47327685 108.068973,5.43975269 C108.435435,5.40627719 108.827086,5.38824194 109.243973,5.38563072 C110.716246,5.39597828 111.866674,5.84692442 112.695258,6.73848535 C113.523809,7.63009494 113.945205,8.90049345 113.959428,10.5496647 C113.949081,11.5578708 113.791386,12.4017973 113.486344,13.0814278 C113.181269,13.7610908 111.676623,14.257125 111.200959,14.5695631 C110.87133,14.7782984 110.530087,14.9097189 110.177216,14.9638409 C109.588345,15.1047818 109.028636,15.0118159 108.460639,14.913579 C107.885425,14.8369292 107.484709,14.7428766 107.258506,14.6314214 C107.196453,14.5863332 107.149921,14.5373688 107.118911,14.4845281 C107.087884,14.4317199 107.072363,14.367299 107.072379,14.2912655 L107.072379,5.84948698 L107.072379,5.84948698 Z M128.597321,12.064869 C128.596656,10.0955234 128.597954,8.74652885 128.601197,8.01790149 C128.604409,7.28932278 128.613459,6.75204423 128.628331,6.40608206 C128.64901,5.94934583 128.723989,5.61048748 128.853253,5.389507 C128.9825,5.16855896 129.228101,5.02297946 129.590038,4.95273605 C129.742559,4.92312061 129.871823,4.90508536 129.977829,4.89861408 C130.083818,4.89219146 130.182055,4.88961268 130.27254,4.89089396 C130.322299,4.88768264 130.370128,4.86320855 130.416027,4.81745545 C130.46191,4.7717348 130.486465,4.72405167 130.489709,4.67442229 C130.49099,4.5977887 130.457385,4.54240166 130.388877,4.50822876 C130.320369,4.47410451 130.209205,4.45735054 130.055387,4.45796685 C129.582934,4.46054563 129.038747,4.47082832 128.422823,4.48884735 C127.806884,4.50689882 127.44107,4.51719773 127.325398,4.51976029 C127.198713,4.51719773 126.831618,4.50689882 126.22408,4.48884735 C125.616542,4.47082832 125.063304,4.46051319 124.564367,4.45791819 C124.410532,4.4573181 124.299352,4.47408829 124.23086,4.50821254 C124.162336,4.54240166 124.128731,4.5977887 124.130028,4.67442229 C124.131326,4.72405167 124.152005,4.7717348 124.192081,4.81745545 C124.232142,4.86320855 124.283847,4.88768264 124.347181,4.89089396 C124.444137,4.89091018 124.568227,4.8986303 124.719466,4.91408677 C124.870706,4.92955946 125.025806,4.95275227 125.184799,4.98364899 C125.475001,5.04101471 125.685682,5.18145287 125.816892,5.40497969 C125.948085,5.62852273 126.026941,5.96223974 126.053442,6.40608206 C126.083171,6.75204423 126.101255,7.28932278 126.107743,8.01790149 C126.114182,8.74652885 126.116777,10.0955234 126.115495,12.064869 L126.115495,16.7032046 C126.116777,17.9819882 126.106445,19.1119323 126.084469,20.0930694 C126.062492,21.0742065 126.021118,21.8408344 125.960379,22.3929206 C125.922881,22.7813759 125.85825,23.0944627 125.766484,23.3321809 C125.674702,23.5698991 125.501502,23.7206524 125.246852,23.7844245 C125.118869,23.816635 124.979275,23.8449854 124.828051,23.8694595 C124.676795,23.8939335 124.5372,23.9068275 124.409234,23.9081087 C124.332325,23.9113363 124.276743,23.9358104 124.242489,23.9815472 C124.208235,24.0273003 124.191416,24.0749672 124.192081,24.1245642 C124.197239,24.27402 124.342024,24.3461772 124.626403,24.3410196 C125.095612,24.3371596 125.630766,24.3217031 126.231832,24.294634 C126.832899,24.2675811 127.197416,24.2521247 127.325398,24.2482484 C127.426862,24.2521247 127.821108,24.2675811 128.50815,24.294634 C129.19516,24.3217031 129.938417,24.3371596 130.73792,24.3410196 C130.891707,24.3397383 131.00287,24.3191081 131.071378,24.2791775 C131.139886,24.239247 131.173491,24.1877038 131.17221,24.1245642 C131.172842,24.0749672 131.15604,24.0273003 131.121802,23.9815472 C131.087532,23.9358104 131.03195,23.91132 130.955057,23.9081087 C130.819955,23.9068275 130.632531,23.8939335 130.392753,23.8694595 C130.152959,23.8449854 129.926756,23.816635 129.714128,23.7844245 C129.325689,23.7206524 129.071038,23.5698991 128.950192,23.3321809 C128.82933,23.0944627 128.75307,22.7813759 128.721411,22.3929206 C128.661937,21.8408344 128.625736,21.0742065 128.612826,20.0930694 C128.599884,19.1119323 128.594726,17.9819882 128.597321,16.7032046 L128.597321,12.064869 L128.597321,12.064869 Z M137.442006,21.4343276 C137.193178,22.1068867 136.899764,22.6557455 136.561749,23.0809362 C136.223718,23.506127 135.751915,23.7612317 135.146323,23.8462666 C135.029353,23.8623719 134.89104,23.876547 134.731398,23.8887922 C134.571757,23.9010211 134.441196,23.90746 134.339732,23.9081087 C134.2751,23.90939 134.218237,23.9300203 134.169111,23.9699508 C134.12,24.0098814 134.094147,24.0614246 134.091552,24.1245642 C134.096726,24.27402 134.272521,24.3461772 134.618938,24.3410196 C135.205148,24.3371596 135.770015,24.3217031 136.31357,24.294634 C136.857109,24.2675811 137.212575,24.2521247 137.379969,24.2482484 C137.577108,24.2521247 137.942906,24.2675811 138.477411,24.294634 C139.0119,24.3217031 139.463024,24.3371596 139.830784,24.3410196 C139.956155,24.3416684 140.054392,24.3249144 140.125495,24.2907739 C140.196582,24.2566335 140.232766,24.2012302 140.234064,24.1245642 C140.235994,24.0614246 140.216612,24.0098814 140.175903,23.9699508 C140.135178,23.9300203 140.061496,23.90939 139.954858,23.9081087 L139.706679,23.9081087 C139.464306,23.91132 139.251029,23.8585118 139.066833,23.7496353 C138.882636,23.6407589 138.785681,23.4565138 138.775998,23.1969003 C138.777279,22.9611121 138.813479,22.6905347 138.884566,22.3851843 C138.955669,22.0798339 139.053906,21.7628708 139.179293,21.4343276 L140.730438,17.2289029 C140.792475,17.0794471 140.885538,17.0072899 141.009628,17.0124313 L147.307272,17.0124313 C147.381586,17.01115 147.434573,17.0214651 147.466264,17.0433604 C147.497907,17.0652557 147.527652,17.1065 147.555451,17.1670446 L150.00625,23.1969003 C150.087019,23.4120583 150.088317,23.5769867 150.010126,23.6916533 C149.931903,23.8063199 149.84789,23.8784771 149.758071,23.9081087 C149.696002,23.9351616 149.64947,23.9583544 149.61846,23.9776872 C149.587417,23.9970037 149.571912,24.0356692 149.571928,24.093635 C149.579032,24.1670897 149.673376,24.2134591 149.85501,24.2327919 C150.036612,24.2521247 150.262814,24.2675811 150.533635,24.2791775 C151.516005,24.3088092 152.420849,24.3268444 153.248135,24.3332833 C154.075389,24.3397383 154.607947,24.3423009 154.845812,24.3410196 C155.007367,24.3416684 155.149556,24.3249144 155.272365,24.2907739 C155.395141,24.2566335 155.459772,24.2012302 155.46626,24.1245642 C155.461719,24.0479144 155.424221,23.9925111 155.353799,23.9583544 C155.283329,23.924214 155.207068,23.90746 155.125017,23.9081087 C154.982795,23.90939 154.817348,23.8990911 154.628643,23.8771958 C154.439905,23.8552843 154.243431,23.8140562 154.039221,23.7534954 C153.746424,23.6993896 153.409041,23.4906543 153.02709,23.1273219 C152.645106,22.7639894 152.206907,22.0141155 151.712511,20.8777325 C151.276551,19.8372348 150.723313,18.4974363 150.052782,16.8583045 C149.382217,15.2191889 148.697137,13.5402076 147.997525,11.8213444 C147.297881,10.1025137 146.686483,8.60326863 146.163298,7.32360922 C145.640098,6.04396602 145.307905,5.24337606 145.166688,4.92180689 C145.034846,4.62484157 144.926262,4.39164838 144.840951,4.22219487 C144.755624,4.05277381 144.647056,3.96645762 144.515214,3.96321387 C144.427957,3.9516499 144.338754,4.01349199 144.247637,4.14874015 C144.156504,4.28405319 144.028538,4.56235073 143.863739,4.98364899 L137.442006,21.4343276 L137.442006,21.4343276 Z M141.381913,15.930154 C141.288834,15.930154 141.257807,15.8683119 141.28885,15.7446277 L143.832712,8.53972356 C143.987812,8.13774183 144.142928,8.13774183 144.298045,8.53972356 L146.997039,15.7446277 C147.014474,15.8064698 147.018351,15.8528555 147.008668,15.8837684 C146.998969,15.9146976 146.964067,15.930154 146.903976,15.930154 L141.381913,15.930154 L141.381913,15.930154 Z M166.08719,24.6811755 C166.847898,24.6889118 167.614412,24.6270535 168.386749,24.495633 C169.159086,24.3642124 169.84029,24.1168278 170.430377,23.7534954 C171.391435,23.1086379 172.059712,22.3961482 172.435241,21.6159938 C172.810721,20.8358557 172.990393,20.0537713 172.974255,19.2697569 C172.995567,18.1591456 172.665953,17.1026237 171.985398,16.1002238 C171.304827,15.097824 170.145348,14.0413184 168.506979,12.9306908 L167.731398,12.4050086 C166.403228,11.5256604 165.476424,10.7642063 164.950985,10.12063 C164.42553,9.47707003 164.173475,8.75426519 164.194802,7.95219933 C164.221936,7.02195668 164.5787,6.31590581 165.265094,5.8340143 C165.951455,5.35217144 166.804578,5.1099444 167.824477,5.1073494 C169.032401,5.14213862 169.904921,5.319961 170.442022,5.64075167 C170.979089,5.96159099 171.285445,6.21669571 171.361073,6.40608206 C171.443789,6.56264166 171.526521,6.77523704 171.609253,7.04385199 C171.691968,7.31251559 171.743674,7.5328311 171.764369,7.70483095 C171.77663,7.81370742 171.798607,7.89744483 171.830298,7.95605939 C171.861941,8.01470639 171.922696,8.04433805 172.012548,8.04497058 C172.103016,8.04561933 172.162474,7.99795242 172.190922,7.90193742 C172.219353,7.80597107 172.23228,7.65779657 172.229701,7.45744634 C172.234859,6.56457169 172.255554,5.89201255 172.291754,5.43975269 C172.327938,4.98754149 172.348617,4.73243676 172.353791,4.67442229 C172.355721,4.59906998 172.336339,4.54882429 172.29563,4.52368523 C172.254905,4.4985786 172.181223,4.48698219 172.074585,4.48889601 C171.972455,4.49149101 171.850961,4.48633344 171.710068,4.47343954 C171.56916,4.46057807 171.370107,4.42449135 171.112878,4.36521182 C170.77809,4.28470194 170.361869,4.213826 169.864212,4.15261643 C169.366556,4.09143931 168.84175,4.05922887 168.28981,4.05598512 C166.463335,4.06889524 165.005269,4.5069637 163.915596,5.37019047 C162.825923,6.23344968 162.267512,7.44456866 162.240362,9.00354739 C162.219034,9.89901704 162.502116,10.7906266 163.089608,11.6783275 C163.6771,12.566077 164.696983,13.5504416 166.149243,14.6314214 L167.390156,15.5590852 C168.592273,16.4165381 169.46867,17.1676933 170.019329,17.8125509 C170.569971,18.4574246 170.841425,19.2317564 170.833672,20.1355949 C170.831726,21.1469962 170.486607,21.9767475 169.798299,22.6248325 C169.109976,23.2729014 168.090092,23.6078997 166.738665,23.6298112 C165.785359,23.6414076 164.89216,23.448145 164.059084,23.0500233 C163.225975,22.6518854 162.681787,21.9793263 162.426504,21.0323296 C162.381903,20.8435758 162.354753,20.6644884 162.34507,20.4950511 C162.335371,20.32563 162.331495,20.1851919 162.333425,20.0737366 C162.328251,19.8624387 162.245535,19.7593686 162.085246,19.7645261 C161.935303,19.7696675 161.862919,19.9139819 161.868093,20.197437 C161.848046,20.4216126 161.818317,20.7772249 161.778906,21.2642416 C161.739478,21.7512744 161.717502,22.3233422 161.712977,22.9804449 C161.706505,23.321217 161.7272,23.5518639 161.77503,23.6723205 C161.822842,23.7927934 161.936601,23.8920035 162.116272,23.9699508 C162.690837,24.2295806 163.333262,24.4138094 164.043562,24.5226858 C164.753846,24.6315623 165.43505,24.6843868 166.08719,24.6811755 L166.08719,24.6811755 L166.08719,24.6811755 Z M193.754886,24.7739305 C194.599607,24.7778068 195.423001,24.6772992 196.225083,24.4724402 C197.027132,24.2675811 197.765215,23.9351616 198.439331,23.4751978 C199.4857,22.677657 200.192757,21.7912212 200.560517,20.8158904 C200.928245,19.8405434 201.100163,19.0159497 201.076273,18.3420931 C201.116334,17.1367804 200.819028,15.9759071 200.184372,14.8594732 C199.549683,13.7430555 198.337202,12.4816909 196.546944,11.0753468 L195.678316,10.3950675 C194.217639,9.27414102 193.214575,8.33874081 192.669089,7.58885066 C192.123604,6.83900917 191.865077,6.04276583 191.893525,5.20010443 C191.918729,4.06308893 192.287121,3.18309197 192.998703,2.56011354 C193.710284,1.93718378 194.613831,1.62151824 195.709327,1.61311692 C197.107934,1.66016752 198.087725,1.89079815 198.648732,2.30500882 C199.209722,2.71925192 199.522533,3.03491746 199.587181,3.25200544 C199.683472,3.44207298 199.770064,3.69589642 199.846989,4.01347577 C199.923899,4.33108756 199.971728,4.59263114 199.990477,4.7981227 C200.002738,4.92312061 200.024714,5.02104943 200.05639,5.09189293 C200.088049,5.16276887 200.148804,5.19883937 200.238656,5.20010443 C200.315549,5.20141815 200.371131,5.14473362 200.405401,5.03005084 C200.439639,4.91538427 200.456441,4.73499933 200.455809,4.48889601 C200.460966,3.44207298 200.481661,2.65225227 200.517862,2.11946631 C200.554046,1.58672902 200.574725,1.28395738 200.579915,1.21113519 C200.582477,1.1345016 200.561798,1.07908213 200.517862,1.04492544 C200.473893,1.01080119 200.391177,0.994063435 200.269682,0.994679748 C200.15268,0.995993467 200.014367,0.985678341 199.854742,0.963750591 C199.695101,0.941871496 199.471477,0.900643433 199.183886,0.8400664 C198.799955,0.746030084 198.373402,0.671310301 197.904194,0.615874612 C197.434953,0.560503798 196.899815,0.532153422 196.298765,0.530839703 C194.307475,0.555994985 192.744701,1.0700645 191.610443,2.0730969 C190.476168,3.07616175 189.898375,4.41740375 189.877048,6.09685537 C189.83955,7.12825437 190.100656,8.1731798 190.660365,9.23159924 C191.220074,10.2900511 192.303275,11.4818536 193.910002,12.8070066 L195.306031,13.9511259 C196.621907,15.0102265 197.550009,15.9456267 198.090336,16.7573265 C198.630632,17.5690425 198.891737,18.4889863 198.873653,19.5171415 C198.874935,20.5543469 198.507823,21.4871521 197.772335,22.3156058 C197.036831,23.1440758 195.925182,23.5821281 194.437387,23.6298112 C193.365798,23.6414076 192.398934,23.4017593 191.536761,22.9108664 C190.674572,22.4199735 190.111003,21.6082575 189.846021,20.4757346 C189.80142,20.2560516 189.774269,20.0460512 189.764587,19.8456848 C189.754888,19.6453508 189.751012,19.4739997 189.752958,19.3316153 C189.755537,19.2091961 189.74261,19.1215987 189.714179,19.068758 C189.685731,19.0159497 189.626273,18.9901781 189.535789,18.9914594 C189.459528,18.9908269 189.402649,19.0307574 189.365168,19.1112835 C189.32767,19.1918258 189.301817,19.3167913 189.28761,19.4862286 C189.267579,19.7426146 189.237834,20.1574902 189.198406,20.7308393 C189.158995,21.3042046 189.137018,21.9819213 189.132493,22.7639894 C189.124741,23.1646899 189.147999,23.4378298 189.202299,23.5834256 C189.256583,23.7290213 189.388425,23.8475479 189.597842,23.9390379 C190.23639,24.2443883 190.905965,24.4608438 191.606567,24.5884042 C192.307152,24.7159647 193.023258,24.7778068 193.754886,24.7739305 L193.754886,24.7739305 L193.754886,24.7739305 Z M208.964717,16.7032046 C208.967944,17.9819882 208.961489,19.1119323 208.945335,20.0930694 C208.929165,21.0742065 208.883931,21.8408344 208.809617,22.3929206 C208.758544,22.783306 208.690036,23.100269 208.604077,23.3437773 C208.518117,23.5872856 208.348777,23.7341626 208.096089,23.7844245 C207.968107,23.8031085 207.828512,23.8275826 207.677272,23.857863 C207.526032,23.8881435 207.386438,23.9048974 207.258472,23.9081087 C207.181546,23.9113363 207.125964,23.9358104 207.091727,23.9815472 C207.057456,24.0273003 207.040654,24.0749672 207.041303,24.1245642 C207.046476,24.27402 207.191245,24.3461772 207.475625,24.3410196 C207.6986,24.3403871 207.950655,24.333932 208.231808,24.3217031 C208.512943,24.3094579 208.788273,24.2952827 209.05778,24.2791775 C209.360908,24.2643698 209.623311,24.255336 209.844989,24.2521247 C210.066667,24.2488971 210.197228,24.2475996 210.236656,24.2482484 C210.435709,24.2469671 210.720088,24.2495459 211.089778,24.2559847 C211.459469,24.2624398 211.929975,24.2804588 212.501329,24.3101067 C213.059724,24.3274932 213.734457,24.3468259 214.525559,24.3680725 C215.316628,24.3893353 216.889652,24.4009317 217.913412,24.4028617 C218.426573,24.4170531 218.788495,24.3886865 218.999209,24.3178268 C219.20989,24.2469671 219.354659,24.0485469 219.433531,23.7225662 C219.516895,23.3850054 219.59833,22.916024 219.677834,22.3156058 C219.757322,21.7152039 219.799977,21.3389776 219.8058,21.1869592 C219.807746,21.0890304 219.796133,20.9988217 219.770946,20.9163656 C219.745726,20.8339095 219.695318,20.7901026 219.619706,20.784945 C219.544078,20.7823825 219.485901,20.8107166 219.445208,20.86998 C219.404467,20.9292595 219.369564,21.0349084 219.3405,21.186943 C219.265488,21.7036075 219.128472,22.1004479 218.92942,22.3774479 C218.730334,22.6544642 218.453724,22.8657621 218.099555,23.011374 C217.71822,23.1447246 216.597601,23.2258832 216.068951,23.2548823 C215.540252,23.2838652 215.085251,23.2954617 214.703932,23.2896716 C213.391268,23.3122156 212.518764,23.1820764 212.086388,22.89927 C211.653996,22.6164637 211.44072,22.0456934 211.446542,21.1869592 C211.432967,20.8261893 211.429091,20.1252798 211.434913,19.0842307 C211.44072,18.0431815 211.444596,17.2495007 211.446542,16.7032046 L211.446542,14.507721 C211.444596,14.4594215 211.456225,14.416896 211.481445,14.3801767 C211.506649,14.3434575 211.557057,14.3241409 211.632685,14.3221947 C211.961634,14.3215621 212.614406,14.3305798 213.590985,14.3492475 C214.567565,14.3679478 215.290127,14.400142 215.758719,14.4458789 C216.272513,14.510316 216.6254,14.6133861 216.817365,14.7551056 C217.009314,14.8968412 217.121759,15.0617535 217.154732,15.2498585 C217.214189,15.4192958 217.250373,15.5751905 217.263316,15.7175586 C217.276226,15.8599431 217.2814,15.9926449 217.278837,16.1156965 C217.278821,16.2754512 217.340858,16.3579236 217.464964,16.3630649 C217.556729,16.3559935 217.621361,16.3005741 217.658859,16.1968552 C217.696324,16.0931525 217.714424,15.9836273 217.713159,15.8683119 C217.714424,15.7491366 217.727351,15.508207 217.751938,15.1454909 C217.776477,14.7828234 217.804909,14.4568427 217.837233,14.1675813 C217.873417,13.737898 217.91737,13.406776 217.969091,13.1741991 C218.02078,12.9416546 218.049212,12.7883226 218.054402,12.7142353 C218.049212,12.5647795 217.997506,12.4926385 217.899286,12.4977799 C217.853387,12.5003586 217.797805,12.5338666 217.732541,12.5982875 C217.667244,12.6627083 217.588405,12.7425857 217.49599,12.8379195 C217.358958,12.9712863 217.183163,13.0601813 216.968605,13.1046206 C216.754015,13.1490762 216.485157,13.1838655 216.162014,13.2089883 C215.916689,13.2292293 215.455947,13.2437451 214.779771,13.2525032 C214.103579,13.26131 213.442908,13.266646 212.797759,13.2685435 C212.152593,13.2704574 211.753888,13.2712196 211.601658,13.2708304 C211.527328,13.2708466 211.482078,13.2476538 211.46594,13.201252 C211.44977,13.1548825 211.443299,13.0853041 211.446542,12.9925329 L211.446542,5.84948698 C211.445245,5.75673195 211.455576,5.68715351 211.477569,5.64075167 C211.499529,5.59438226 211.540903,5.57120566 211.601658,5.57117323 C211.739339,5.57120566 212.091319,5.57464404 212.65758,5.58148835 C213.223842,5.5883651 213.798715,5.59868023 214.382217,5.61240129 C214.965703,5.62617101 215.352147,5.64334667 215.54155,5.66394448 C216.262814,5.75157439 217.417037,5.85464455 217.672985,5.97317118 C217.928917,6.09171402 218.091786,6.2566425 218.161592,6.46792416 C218.222331,6.63027385 218.263705,6.80035989 218.285681,6.97814983 C218.307641,7.15597221 218.317989,7.29511287 218.316708,7.39560425 C218.311518,7.61721726 218.383918,7.73060254 218.533877,7.73574388 C218.596546,7.73188382 218.649549,7.70097088 218.692869,7.64297263 C218.736157,7.58500682 218.76587,7.52316472 218.782056,7.45744634 C218.813699,7.26548121 218.843444,6.96914842 218.871243,6.56841554 C218.899026,6.16773131 218.921002,5.8868712 218.937172,5.72578657 C218.97334,5.36118906 219.017293,5.08545409 219.069014,4.89861408 C219.120704,4.71182273 219.149135,4.57524463 219.154325,4.48889601 C219.154958,4.42449135 219.145908,4.36780682 219.127175,4.31882619 C219.108426,4.26989422 219.076102,4.24412262 219.030235,4.24151141 C218.968182,4.24475516 218.906129,4.26150913 218.844093,4.29177331 C218.78204,4.32206994 218.719987,4.34654403 218.657966,4.36521182 C218.544192,4.38326329 218.376149,4.40903488 218.153839,4.44251038 C217.931496,4.47603454 217.685896,4.50180613 217.417054,4.51982516 C217.144725,4.52957263 215.83798,4.53414632 214.828038,4.53356245 C213.818064,4.53301101 212.832224,4.53072416 211.870517,4.5266857 C210.90881,4.52269588 210.364184,4.52042526 210.236656,4.51982516 C210.114496,4.5172626 209.72283,4.5069637 209.061672,4.48889601 C208.400483,4.47087698 207.737379,4.46057807 207.072329,4.45796685 C206.91851,4.45735054 206.807347,4.47410451 206.738839,4.50822876 C206.670331,4.54240166 206.63671,4.5977887 206.638007,4.67442229 C206.641235,4.72405167 206.66579,4.7717348 206.711689,4.81745545 C206.757572,4.86320855 206.805401,4.88768264 206.855176,4.89089396 C206.988948,4.89155893 207.147941,4.89798155 207.332153,4.91021049 C207.516334,4.92247186 207.667573,4.93664705 207.785857,4.95273605 C208.222109,5.01136683 208.512943,5.15696256 208.658361,5.389507 C208.803778,5.62208388 208.885212,5.96095846 208.90268,6.40608206 C208.932409,6.75204423 208.950493,7.28932278 208.956964,8.01790149 C208.963419,8.74652885 208.965998,10.0955234 208.964717,12.064869 L208.964717,16.7032046 L208.964717,16.7032046 Z M267.645275,16.7032046 C267.648502,17.9819882 267.642031,19.1119323 267.625894,20.0930694 C267.609723,21.0742065 267.564473,21.8408344 267.490159,22.3929206 C267.439102,22.783306 267.370594,23.100269 267.284635,23.3437773 C267.198675,23.5872856 267.029335,23.7341626 266.776631,23.7844245 C266.648665,23.8031085 266.509054,23.8275826 266.357831,23.857863 C266.206591,23.8881435 266.06698,23.9048974 265.939014,23.9081087 C265.862104,23.9113363 265.806523,23.9358104 265.772269,23.9815472 C265.738015,24.0273003 265.721212,24.0749672 265.721861,24.1245642 C265.727035,24.27402 265.871803,24.3461772 266.156183,24.3410196 C266.379158,24.3403871 266.631214,24.333932 266.912366,24.3217031 C267.193502,24.3094579 267.468831,24.2952827 267.738338,24.2791775 C268.04145,24.2643698 268.303854,24.255336 268.525548,24.2521247 C268.747226,24.2488971 268.87777,24.2475996 268.917214,24.2482484 C269.116267,24.2469671 269.400647,24.2495459 269.770337,24.2559847 C270.140011,24.2624398 270.610533,24.2804588 271.181871,24.3101067 C271.740282,24.3274932 272.415015,24.3468259 273.206117,24.3680725 C273.997186,24.3893353 275.644168,24.4009317 276.667928,24.4028617 C277.181089,24.4170531 277.543027,24.3886865 277.753725,24.3178268 C277.964406,24.2469671 278.109191,24.0485469 278.188047,23.7225662 C278.271395,23.3850054 278.352845,22.916024 278.43235,22.3156058 C278.511838,21.7152039 278.554493,21.3389776 278.560316,21.1869592 C278.562262,21.0890304 278.550633,20.9988217 278.525462,20.9163656 C278.500241,20.8339095 278.449833,20.7901026 278.374222,20.784945 C278.298594,20.7823825 278.240417,20.8107166 278.199724,20.86998 C278.158983,20.9292595 278.12408,21.0349084 278.095016,21.186943 C278.020004,21.7036075 277.882988,22.1004479 277.683919,22.3774479 C277.48485,22.6544642 277.208223,22.8657621 276.854071,23.011374 C276.472735,23.1447246 275.27816,23.2258832 274.749493,23.2548823 C274.220794,23.2838652 273.76581,23.2954617 273.384491,23.2896716 C272.071826,23.3122156 271.199322,23.1820764 270.766947,22.89927 C270.334555,22.6164637 270.121278,22.0456934 270.127101,21.1869592 C270.113526,20.8261893 270.109633,20.1252798 270.115472,19.0842307 C270.121278,18.0431815 270.125154,17.2495007 270.127101,16.7032046 L270.127101,14.507721 C270.125154,14.4594215 270.136783,14.416896 270.162003,14.3801767 C270.187207,14.3434575 270.237615,14.3241409 270.313243,14.3221947 C270.642192,14.3215621 271.294964,14.3305798 272.271544,14.3492475 C273.248107,14.3679478 273.970685,14.400142 274.439261,14.4458789 C274.953071,14.510316 275.305958,14.6133861 275.497924,14.7551056 C275.689856,14.8968412 275.802317,15.0617535 275.83529,15.2498585 C275.894732,15.4192958 275.930932,15.5751905 275.943874,15.7175586 C275.956784,15.8599431 275.961958,15.9926449 275.959379,16.1156965 C275.959363,16.2754512 276.021416,16.3579236 276.145522,16.3630649 C276.237288,16.3559935 276.301919,16.3005741 276.339417,16.1968552 C276.376883,16.0931525 276.394983,15.9836273 276.393701,15.8683119 C276.394983,15.7491366 276.407909,15.508207 276.43248,15.1454909 C276.457036,14.7828234 276.485467,14.4568427 276.517791,14.1675813 C276.553975,13.737898 276.597928,13.406776 276.649633,13.1741991 C276.701322,12.9416546 276.72977,12.7883226 276.73496,12.7142353 C276.72977,12.5647795 276.678065,12.4926385 276.579844,12.4977799 C276.533945,12.5003586 276.478363,12.5338666 276.413083,12.5982875 C276.347802,12.6627083 276.268947,12.7425857 276.176549,12.8379195 C276.039516,12.9712863 275.863721,13.0601813 275.649163,13.1046206 C275.434573,13.1490762 275.165699,13.1838655 274.842556,13.2089883 C274.597248,13.2292293 274.136505,13.2437451 273.46033,13.2525032 C272.784137,13.26131 272.123467,13.266646 271.478317,13.2685435 C270.833151,13.2704574 270.434446,13.2712196 270.282217,13.2708304 C270.20787,13.2708466 270.162636,13.2476538 270.146482,13.201252 C270.130328,13.1548825 270.123857,13.0853041 270.127101,12.9925329 L270.127101,5.84948698 C270.125803,5.75673195 270.136134,5.68715351 270.158111,5.64075167 C270.180087,5.59438226 270.221445,5.57120566 270.282217,5.57117323 C270.419898,5.57120566 270.771861,5.57464404 271.338138,5.58148835 C271.904384,5.5883651 272.479274,5.59868023 273.062776,5.61240129 C273.646261,5.62617101 274.032705,5.64334667 274.222108,5.66394448 C274.943372,5.75157439 275.949681,5.85464455 276.205629,5.97317118 C276.461561,6.09171402 276.624429,6.2566425 276.694251,6.46792416 C276.75499,6.63027385 276.796348,6.80035989 276.818341,6.97814983 C276.840285,7.15597221 276.850632,7.29511287 276.849351,7.39560425 C276.844177,7.61721726 276.916561,7.73060254 277.06652,7.73574388 C277.129189,7.73188382 277.182192,7.70097088 277.225512,7.64297263 C277.2688,7.58500682 277.298529,7.52316472 277.314699,7.45744634 C277.346358,7.26548121 277.376087,6.96914842 277.403886,6.56841554 C277.431669,6.16773131 277.453645,5.8868712 277.469816,5.72578657 C277.505983,5.36118906 277.549936,5.08545409 277.601658,4.89861408 C277.653347,4.71182273 277.681778,4.57524463 277.686968,4.48889601 C277.687601,4.42449135 277.678551,4.36780682 277.659834,4.31882619 C277.641069,4.26989422 277.608745,4.24412262 277.562879,4.24151141 C277.500826,4.24475516 277.438773,4.26150913 277.376752,4.29177331 C277.314683,4.32206994 277.25263,4.34654403 277.19061,4.36521182 C277.076835,4.38326329 276.908809,4.40903488 276.686482,4.44251038 C276.464139,4.47603454 276.218555,4.50180613 275.949697,4.51982516 C275.677368,4.52957263 274.518538,4.53414632 273.50858,4.53356245 C272.498606,4.53301101 271.512782,4.53072416 270.551075,4.5266857 C269.589368,4.52269588 269.044742,4.52042526 268.917214,4.51982516 C268.795055,4.5172626 268.403388,4.5069637 267.742214,4.48889601 C267.081041,4.47087698 266.417937,4.46057807 265.752887,4.45796685 C265.599053,4.45735054 265.487889,4.47410451 265.419381,4.50822876 C265.350873,4.54240166 265.317268,4.5977887 265.318565,4.67442229 C265.321793,4.72405167 265.346348,4.7717348 265.392247,4.81745545 C265.43813,4.86320855 265.485959,4.88768264 265.535718,4.89089396 C265.669507,4.89155893 265.828499,4.89798155 266.012696,4.91021049 C266.196892,4.92247186 266.348132,4.93664705 266.466399,4.95273605 C266.902651,5.01136683 267.193502,5.15696256 267.338919,5.389507 C267.484336,5.62208388 267.565771,5.96095846 267.583222,6.40608206 C267.612951,6.75204423 267.631051,7.28932278 267.637522,8.01790149 C267.643977,8.74652885 267.646572,10.0955234 267.645275,12.064869 L267.645275,16.7032046 L267.645275,16.7032046 Z M291.630374,5.66394448 L295.04288,5.72578657 C296.314155,5.76317079 297.176327,5.91262658 297.629414,6.17417015 C298.082469,6.43572994 298.316424,6.77072823 298.331313,7.17913259 L298.362323,7.45744634 C298.37718,7.63912879 298.401735,7.76281298 298.436005,7.82849892 C298.470243,7.89423351 298.518072,7.92514645 298.579492,7.92127017 C298.644092,7.92065386 298.700971,7.89100598 298.750114,7.8323752 C298.799208,7.77376063 298.825077,7.69002323 298.827672,7.58113054 C298.831532,7.37113015 298.847037,6.9330617 298.874203,6.26692518 C298.901337,5.60083732 298.916842,5.03906846 298.920735,4.58166726 C298.923297,4.50115738 298.91814,4.43029766 298.90523,4.36907188 C298.892287,4.30789475 298.856087,4.27566809 298.796645,4.27244056 C298.735225,4.27373806 298.640864,4.28663197 298.513563,4.31108985 C298.38623,4.33559638 298.222064,4.36393053 298.021081,4.39612475 C297.805842,4.42836763 297.538265,4.45670179 297.218366,4.48115966 C296.898419,4.50566619 296.514521,4.5185601 296.06664,4.51982516 L285.767069,4.51982516 C285.590625,4.52049013 285.292038,4.51145629 284.871291,4.49275607 C284.450544,4.47410451 284.035604,4.44189407 283.626502,4.39612475 C283.261969,4.34268397 282.990532,4.27954438 282.812142,4.20672219 C282.633768,4.13394865 282.501926,4.09401809 282.416599,4.08689806 C282.368138,4.09787815 282.317714,4.16100153 282.265376,4.27630063 C282.213022,4.39164838 282.170366,4.49342104 282.137393,4.58166726 C282.099263,4.77752489 281.99715,5.24394372 281.831054,5.98090752 C281.664941,6.71788754 281.570597,7.19977906 281.547972,7.42651719 C281.551848,7.50319944 281.575106,7.55860269 281.617777,7.59271072 C281.660432,7.62688363 281.699212,7.6436376 281.734098,7.64297263 C281.796151,7.64621638 281.850435,7.63204119 281.896983,7.60046329 C281.943515,7.5689016 281.982294,7.50062066 282.013304,7.39560425 C282.052732,7.30863931 282.097982,7.20427165 282.149039,7.08250127 C282.200095,6.96076333 282.29963,6.78683345 282.447626,6.56067919 C282.632471,6.25727503 282.929777,6.04469587 283.339543,5.92290927 C283.749294,5.80117133 284.372337,5.73546917 285.208657,5.72578657 L289.148565,5.66394448 L289.148565,16.7032046 C289.151143,17.9819882 289.145953,19.1119323 289.133043,20.0930694 C289.120117,21.0742065 289.083917,21.8408344 289.024459,22.3929206 C288.985031,22.7826734 288.90877,23.1009177 288.795661,23.3476374 C288.682551,23.5943732 288.489954,23.7502841 288.217868,23.8153537 C288.091183,23.8475479 287.956762,23.8758983 287.814572,23.9003724 C287.672383,23.9248627 287.537945,23.9377404 287.411277,23.9390379 C287.334368,23.9409679 287.278786,23.9602845 287.244532,23.9970037 C287.210262,24.033723 287.193459,24.0762485 287.194124,24.1245642 C287.192827,24.2012302 287.226432,24.2566335 287.29494,24.2907739 C287.363448,24.3249144 287.474611,24.3416684 287.62843,24.3410196 C288.091199,24.3371596 288.647032,24.3217031 289.295928,24.294634 C289.944824,24.2675811 290.33002,24.2521247 290.451547,24.2482484 C290.567219,24.2521247 290.964059,24.2675811 291.642035,24.294634 C292.320012,24.3217031 293.050342,24.3371596 293.833043,24.3410196 C293.986829,24.3397383 294.097976,24.3191081 294.1665,24.2791775 C294.234992,24.239247 294.268597,24.1877038 294.267316,24.1245642 C294.269878,24.0749672 294.256952,24.0273003 294.228537,23.9815472 C294.200089,23.9358104 294.140631,23.91132 294.050163,23.9081087 C293.913131,23.9068275 293.721814,23.8939335 293.47623,23.8694595 C293.23063,23.8449854 293.008303,23.816635 292.80925,23.7844245 C292.404641,23.7206524 292.135783,23.5698991 292.002659,23.3321809 C291.869503,23.0944627 291.786772,22.7813759 291.754464,22.3929206 C291.695006,21.8408344 291.658806,21.0742065 291.645895,20.0930694 C291.632953,19.1119323 291.627779,17.9819882 291.630374,16.7032046 L291.630374,5.66394448 L291.630374,5.66394448 Z" id="text2396"></path>
            <path d="M48.5131858,24.8654854 C49.3302378,24.8680641 50.1420674,24.8241113 50.9486907,24.7336269 C51.7552816,24.6431425 52.4207694,24.4906214 52.9451702,24.2760473 C53.1449204,24.1933155 53.2819688,24.1028311 53.3563156,24.0045941 C53.4306299,23.9063571 53.4979864,23.7383146 53.5584012,23.5004667 C53.6925303,22.9776066 53.8214369,22.3248505 53.9451373,21.5421661 C54.0688215,20.7594816 54.1350264,20.2850994 54.1437521,20.1189869 C54.1414328,20.0220475 54.1182238,19.9367206 54.0741088,19.8630388 C54.0299614,19.7893571 53.9788561,19.7505942 53.9208092,19.7467017 C53.8406561,19.7447717 53.7849123,19.7719057 53.7535614,19.8281361 C53.7221781,19.8843665 53.6943143,19.9813222 53.6699375,20.1189869 C53.6269254,20.3910889 53.5247149,20.7465553 53.3632896,21.1854022 C53.201832,21.6242492 52.9881175,22.0029894 52.7221786,22.3216068 C52.241909,22.8483431 51.6762963,23.1908994 51.0253405,23.349243 C50.3743523,23.5075867 49.5927221,23.5786735 48.6804336,23.5625196 C46.0196178,23.4804365 43.8918962,22.520027 42.2972848,20.6812748 C40.7026411,18.8425388 39.8850052,16.6179426 39.844361,14.0075023 C39.8228712,12.66965 39.9634066,11.4209846 40.2659674,10.2614899 C40.5684958,9.10202764 41.1619885,8.05500999 42.0464132,7.12043693 C42.4575423,6.65057973 43.0916792,6.23307665 43.948824,5.86789527 C44.8059363,5.50274632 46.0114922,5.31014866 47.5654756,5.29008606 C48.6635823,5.30044984 49.631047,5.44263963 50.4678696,5.71665542 C51.3046436,5.99070364 51.9445869,6.33454115 52.3876831,6.74816795 C52.7111175,7.03837005 52.9631568,7.41968909 53.1437688,7.89212508 C53.3243484,8.3645935 53.4161141,8.86224964 53.4190173,9.38509349 C53.4167142,9.57123609 53.4283268,9.71083088 53.4539038,9.80387785 C53.4794483,9.89695726 53.5328729,9.94348885 53.6141937,9.94347264 C53.685021,9.94541889 53.7454196,9.90276357 53.7953734,9.81550669 C53.8452947,9.72826604 53.8778133,9.58477875 53.8929291,9.38506106 C53.9056609,9.16404814 53.914938,8.77629026 53.9207605,8.22173874 C53.9265506,7.66723588 53.935844,7.1553559 53.9486243,6.68611501 C53.9776559,6.21692278 54.0032004,5.87566405 54.0252904,5.66237126 C54.0473317,5.44909469 54.0589443,5.29399478 54.0601282,5.19702287 C54.0630152,5.11753478 54.043277,5.05162177 54.0008974,4.99925143 C53.9584853,4.94691352 53.8760292,4.91977955 53.7535128,4.91781708 C53.3528123,4.89908443 52.9486248,4.85127155 52.540999,4.7743298 C52.1333083,4.69745292 51.7012732,4.61082857 51.2448451,4.51452163 C50.6327657,4.40660207 50.0102576,4.32776272 49.3772884,4.27797116 C48.744303,4.22822825 48.1775226,4.20367306 47.6769633,4.20428937 C45.8117259,4.22305447 44.280984,4.49578898 43.0847214,5.02250912 C41.8884588,5.54927791 40.9291197,6.21755531 40.2067203,7.02735752 C39.1405321,8.2482564 38.4088556,9.52147697 38.0116422,10.8470517 C37.614445,12.1726426 37.4262913,13.2985158 37.4471973,14.2246551 C37.4216527,15.5062932 37.6190836,16.8363929 38.0395222,18.2149705 C38.4599609,19.5935481 39.2566746,20.8693636 40.4297282,22.042401 C41.3780223,22.9743791 42.5057444,23.6775592 43.8129271,24.1519576 C45.1200935,24.6263399 46.6868572,24.8641879 48.5131858,24.8654854 L48.5131858,24.8654854 L48.5131858,24.8654854 Z" id="text2406"></path>
            <path d="M234.635106,24.8654854 C235.452142,24.8680641 236.263971,24.8241113 237.070595,24.7336269 C237.877186,24.6431425 238.542673,24.4906214 239.067074,24.2760473 C239.266824,24.1933155 239.403857,24.1028311 239.478203,24.0045941 C239.552518,23.9063571 239.61989,23.7383146 239.680305,23.5004667 C239.814418,22.9776066 239.943341,22.3248505 240.067058,21.5421661 C240.190726,20.7594816 240.256914,20.2850994 240.265656,20.1189869 C240.263337,20.0220475 240.240128,19.9367206 240.196013,19.8630388 C240.151865,19.7893571 240.10076,19.7505942 240.042713,19.7467017 C239.962544,19.7447717 239.9068,19.7719057 239.875466,19.8281361 C239.844098,19.8843665 239.816218,19.9813222 239.791842,20.1189869 C239.74883,20.3910889 239.646603,20.7465553 239.485178,21.1854022 C239.32372,21.6242492 239.110022,22.0029894 238.844083,22.3216068 C238.363813,22.8483431 237.7982,23.1908994 237.147245,23.349243 C236.496256,23.5075867 235.714626,23.5786735 234.802338,23.5625196 C232.141522,23.4804365 230.0138,22.520027 228.419189,20.6812748 C226.824545,18.8425388 226.006909,16.6179426 225.966265,14.0075023 C225.944775,12.66965 226.085311,11.4209846 226.387855,10.2614899 C226.690416,9.10202764 227.283893,8.05500999 228.168317,7.12043693 C228.579463,6.65057973 229.213583,6.23307665 230.070728,5.86789527 C230.92784,5.50274632 232.133396,5.31014866 233.68738,5.29008606 C234.785486,5.30044984 235.752951,5.44263963 236.589758,5.71665542 C237.426548,5.99070364 238.066491,6.33454115 238.509587,6.74816795 C238.833022,7.03837005 239.085061,7.41968909 239.265673,7.89212508 C239.446253,8.3645935 239.538002,8.86224964 239.540938,9.38509349 C239.538618,9.57123609 239.550247,9.71083088 239.575808,9.80387785 C239.601352,9.89695726 239.654777,9.94348885 239.736098,9.94347264 C239.806925,9.94541889 239.867324,9.90276357 239.917277,9.81550669 C239.967199,9.72826604 239.999717,9.58477875 240.014833,9.38506106 C240.027565,9.16404814 240.036842,8.77629026 240.042665,8.22173874 C240.048455,7.66723588 240.057748,7.1553559 240.070528,6.68611501 C240.099544,6.21692278 240.125105,5.87566405 240.147194,5.66237126 C240.169236,5.44909469 240.180848,5.29399478 240.182032,5.19702287 C240.184919,5.11753478 240.165165,5.05162177 240.122801,4.99925143 C240.080389,4.94691352 239.997933,4.91977955 239.875417,4.91781708 C239.474716,4.89908443 239.070545,4.85127155 238.662887,4.7743298 C238.255229,4.69745292 237.823177,4.61082857 237.366749,4.51452163 C236.75467,4.40660207 236.132145,4.32776272 235.499193,4.27797116 C234.866207,4.22822825 234.299443,4.20367306 233.798884,4.20428937 C231.93363,4.22305447 230.402872,4.49578898 229.206625,5.02250912 C228.010363,5.54927791 227.051024,6.21755531 226.328624,7.02735752 C225.262452,8.2482564 224.53076,9.52147697 224.133546,10.8470517 C223.736349,12.1726426 223.548195,13.2985158 223.569101,14.2246551 C223.543541,15.5062932 223.740988,16.8363929 224.161426,18.2149705 C224.581849,19.5935481 225.378595,20.8693636 226.551616,22.042401 C227.49991,22.9743791 228.627649,23.6775592 229.934831,24.1519576 C231.241998,24.6263399 232.808761,24.8641879 234.635106,24.8654854 L234.635106,24.8654854 L234.635106,24.8654854 Z" id="text2409"></path>
            <path d="M154.153044,8.52155856 L154.07847,8.42682484 C154.990045,7.78738439 155.582581,7.14594902 155.856045,6.50253497 C156.129526,5.85913714 156.266266,5.3124355 156.266266,4.86244627 C156.266266,4.55456573 156.170965,4.40061735 155.980362,4.40061735 C155.947211,4.40061735 155.872621,4.41641441 155.756608,4.4479761 C155.640579,4.47957023 155.537006,4.49535107 155.445841,4.49535107 C154.155363,4.52621535 153.940238,2.92630049 154.482463,2.3875136 C154.735216,2.12700803 155.077059,1.99673903 155.507991,1.99672281 C156.021785,1.99673903 156.467233,2.20594469 156.844286,2.6243398 C157.221356,3.04276734 157.409883,3.62696673 157.409883,4.37692175 C157.409883,5.21376062 157.169553,5.96176939 156.68891,6.62094807 C156.208252,7.28015918 155.362963,7.91369601 154.153044,8.52155856 L154.153044,8.52155856 L154.153044,8.52155856 Z" id="text2413"></path>
            <path d="M246.833066,16.9770419 C246.83631,18.2558255 246.829839,19.3857697 246.813685,20.3669068 C246.797531,21.3480438 246.752281,22.1146555 246.677966,22.6667418 C246.626893,23.0552133 246.558385,23.3683001 246.472426,23.6060021 C246.386467,23.8437203 246.217127,23.9944736 245.964439,24.0582457 C245.836456,24.0904561 245.696862,24.1188065 245.545638,24.1432968 C245.394382,24.1677709 245.254787,24.1806648 245.126821,24.1819461 C245.049912,24.1851574 244.994314,24.2096477 244.960076,24.2553846 C244.925822,24.3011215 244.909003,24.3488046 244.909668,24.3984016 C244.914826,24.5478573 245.059611,24.6199983 245.34399,24.614857 C245.820951,24.6109969 246.37161,24.5955243 246.995951,24.5684714 C247.620292,24.5414185 247.969287,24.525962 248.042985,24.5220858 C248.143801,24.525962 248.531591,24.5414185 249.20634,24.5684714 C249.881072,24.5955243 250.610121,24.6109969 251.393454,24.614857 C251.547257,24.6135757 251.658404,24.5929455 251.726928,24.5530149 C251.79542,24.5130681 251.829025,24.4615249 251.827744,24.3984016 C251.830323,24.3488046 251.817396,24.3011215 251.788965,24.2553846 C251.760517,24.2096477 251.701059,24.1851574 251.610591,24.1819461 C251.47484,24.1806648 251.288714,24.1677709 251.05218,24.1432968 C250.815613,24.1188065 250.59846,24.0904561 250.400689,24.0582457 C249.994814,23.9944736 249.720766,23.8437203 249.578592,23.6060021 C249.436386,23.3683001 249.348497,23.0552133 249.314892,22.6667418 C249.255434,22.1159368 249.219234,21.3544989 249.206324,20.3823632 C249.193381,19.4102438 249.188223,18.2854572 249.190802,17.0079711 L249.190802,16.3895177 C249.190802,16.2400619 249.252839,16.1679209 249.376945,16.1730623 L251.737227,16.2349044 C251.826414,16.2336231 251.896219,16.2439382 251.946627,16.2658335 C251.997035,16.287745 252.051319,16.3289731 252.109512,16.3895177 C252.418431,16.7715504 252.839826,17.3217066 253.373683,18.0400026 C253.907523,18.7582986 254.468513,19.4862773 255.05667,20.2238898 C255.816713,21.2121145 256.483709,22.0263931 257.057642,22.6667418 C257.631543,23.3070905 258.205459,23.7812294 258.779409,24.0891749 C259.102535,24.2734199 259.479977,24.4074192 259.911737,24.4911728 C260.343448,24.5749102 260.938059,24.6161383 261.695556,24.614857 L263.401801,24.614857 C263.646088,24.6155058 263.816709,24.5987518 263.913681,24.5646113 C264.010604,24.5304546 264.057136,24.4750676 264.053276,24.3984016 C264.052611,24.3488046 264.030634,24.3011215 263.987363,24.2553846 C263.944026,24.2096477 263.883271,24.1851574 263.805097,24.1819461 C263.730101,24.1838761 263.616359,24.1800161 263.463854,24.1703497 C263.3113,24.1606833 263.104479,24.1336142 262.84339,24.0891749 C262.509235,24.0653333 262.099468,23.9352103 261.614122,23.6987733 C261.128727,23.4623526 260.525065,22.9843536 259.803169,22.2647601 C259.012699,21.4382363 258.142774,20.4474329 257.193361,19.2923497 C256.243915,18.1372827 255.211121,16.8604453 254.094963,15.4618538 C255.347489,14.3866642 257.338162,13.3597902 257.838413,12.3811995 C258.338632,11.4026736 258.579058,10.4299054 258.559693,9.46292728 C258.523477,8.54622728 258.293397,7.78217817 257.869439,7.17081237 C257.445433,6.55946279 257.044732,6.12783318 256.667306,5.87593977 C255.939538,5.39536197 255.130368,5.08099393 254.239764,4.93280321 C253.349144,4.78466114 252.462416,4.71764526 251.579565,4.73180423 C251.088364,4.7343668 250.449815,4.7446657 249.663919,4.76268473 C248.878007,4.7807362 248.379054,4.79103511 248.167075,4.79359767 C248.04232,4.79103511 247.640322,4.7807362 246.961048,4.76268473 C246.281775,4.74464948 245.608323,4.73435058 244.940695,4.73175558 C244.78686,4.73115548 244.675697,4.74792567 244.607189,4.78204992 C244.538681,4.81622283 244.505059,4.87160986 244.506357,4.94825968 C244.5096,4.99788905 244.534156,5.04555596 244.580038,5.09127662 C244.625921,5.13704593 244.67375,5.16152003 244.723526,5.16471512 C244.857298,5.16539631 245.01629,5.17181893 245.200503,5.18403165 C245.384683,5.19630925 245.535923,5.21048443 245.654206,5.22657343 C246.090458,5.28520422 246.381293,5.43079994 246.526726,5.66334439 C246.672144,5.89592127 246.753578,6.23477962 246.771029,6.67990323 C246.800758,7.02588161 246.818842,7.56314394 246.825314,8.29173887 C246.831769,9.02036623 246.834364,10.3693446 246.833066,12.3387064 L246.833066,16.9770419 L246.833066,16.9770419 Z M249.190802,6.12330815 C249.1921,6.04665833 249.212779,5.98353496 249.252855,5.93390558 C249.292915,5.88432486 249.344621,5.84437808 249.407971,5.81408145 C249.561125,5.78060595 249.820949,5.74711423 250.187412,5.71359007 C250.553858,5.68009835 250.945525,5.66207932 251.362396,5.6594681 C252.834685,5.66979945 253.985113,6.12074559 254.813697,7.01232274 C255.642248,7.90393233 256.063627,9.17433083 256.077867,10.823502 C256.06752,11.8317082 255.909809,12.6756185 255.604767,13.3552652 C255.299692,14.0349282 253.795062,14.5309624 253.319399,14.8434004 C252.989769,15.0521358 252.64851,15.1835563 252.295639,15.237662 C251.706784,15.3786192 251.147075,15.2856533 250.579079,15.1874164 C250.003848,15.1107665 249.603148,15.0166978 249.376945,14.9052588 C249.314892,14.8601544 249.26836,14.8112062 249.23735,14.7583655 C249.206307,14.7055411 249.190802,14.6411364 249.190802,14.5651029 L249.190802,6.12330815 L249.190802,6.12330815 Z" id="path2418"></path>
            <path d="M6.95662755,5.34333222 C6.72596448,4.75121808 6.53468054,4.23797572 6.38279194,3.80355649 C6.23088712,3.36920213 6.15212887,3.05123353 6.14650096,2.84965068 C6.1421219,2.74202305 6.16588237,2.63436298 6.21776615,2.5266867 C6.26964993,2.41904285 6.37591519,2.32640135 6.53656191,2.24877841 C6.68158998,2.18996922 6.8641158,2.14989269 7.08415558,2.12859747 C7.30417915,2.10733469 7.50170731,2.09732772 7.67674007,2.09856034 C7.88176129,2.10358816 7.98178233,2.0334745 7.97678695,1.88823559 C7.97678695,1.74304533 7.70674476,1.67294789 7.16666037,1.67794327 C6.57032935,1.68167358 6.00024027,1.69669214 5.45640935,1.7229503 C4.91256221,1.74925711 4.55250595,1.76427568 4.37624057,1.76800599 C4.162445,1.76427568 3.71237467,1.74925711 3.02601337,1.72293408 C2.33965207,1.69667592 1.61953955,1.68164114 0.865675807,1.67787839 C0.623140612,1.67542936 0.433105513,1.68796646 0.295586727,1.71547346 C0.158067942,1.74304533 0.0880515963,1.80063812 0.0855539088,1.88823559 C0.084305065,1.94960734 0.101805097,1.99967462 0.138070223,2.03846987 C0.17431913,2.07729756 0.236826194,2.09732772 0.325591416,2.09856034 C0.423731075,2.09607887 0.580014955,2.10107425 0.794410617,2.11357891 C1.0088225,2.126116 1.23260882,2.16116472 1.46576957,2.21872507 C1.97398412,2.34143613 2.38279395,2.55424236 2.69221527,2.85717618 C3.00163659,3.16014244 3.31293928,3.7184567 3.62610714,4.5321352 L10.9772558,22.9492238 C11.2491631,23.6577723 11.4554494,24.1485031 11.5960984,24.4213997 C11.7367474,24.6942964 11.8905174,24.8244844 12.0574246,24.8119797 C12.1886991,24.8294959 12.3312133,24.6742663 12.4849995,24.3462907 C12.6387532,24.0182989 12.9163047,23.4124151 13.3176215,22.5286229 C13.6664219,21.7793977 14.1689924,20.6264392 14.8253652,19.0697635 C15.4817056,17.5131203 16.2693205,15.6315993 17.1882425,13.4252167 C17.9770901,11.5218003 18.6871956,9.80804607 19.3185592,8.28390521 C19.9498902,6.75979679 20.3599651,5.75958645 20.5487514,5.28324175 C20.947538,4.28867553 21.2750919,3.59639439 21.531413,3.20644697 C21.7876855,2.81651577 22.0102068,2.56737954 22.1990092,2.45908695 C22.4952934,2.28635725 22.7803379,2.1812111 23.0541429,2.14361603 C23.3279154,2.10608584 23.5229458,2.09106728 23.6392343,2.09856034 C23.8792556,2.10358816 23.9992743,2.0334745 23.9993068,1.88823559 C23.994279,1.74304533 23.8242416,1.67294789 23.4892271,1.67794327 C23.022273,1.68167358 22.5459608,1.69669214 22.0602903,1.7229503 C21.5745711,1.74925711 21.2707777,1.76427568 21.14891,1.76800599 C20.9438564,1.76427568 20.5587908,1.74925711 19.9937133,1.72293408 C19.4286196,1.69667592 18.8335212,1.68164114 18.2084343,1.67787839 C17.9708621,1.67667821 17.8008247,1.69421067 17.6983222,1.73050824 C17.5957873,1.76683824 17.5457686,1.8294264 17.5482988,1.91828893 C17.550764,1.99154903 17.5832826,2.04036747 17.6458059,2.06476047 C17.7082967,2.08918591 17.7858061,2.10045794 17.8783503,2.09856034 C18.0477227,2.09607887 18.2339951,2.10107425 18.4371836,2.11357891 C18.6403235,2.126116 18.8341051,2.16116472 19.0185123,2.21872507 C19.1660218,2.2982456 19.2685405,2.40214291 19.3260684,2.53043323 C19.3835477,2.6587722 19.4110547,2.78521358 19.4085732,2.90975737 C19.4066919,3.04747078 19.3804337,3.21520509 19.329815,3.41299276 C19.2791638,3.61079664 19.2154079,3.82360286 19.138531,4.05142765 C18.8836534,4.86375999 18.359885,6.32701565 17.5671774,8.44122709 C16.7744535,10.5554547 15.9217203,12.773158 15.0090101,15.0943532 C14.0962513,17.4155483 13.3324292,19.2927551 12.7175277,20.7259575 L6.95662755,5.34333222 L6.95662755,5.34333222 Z" id="path2420"></path>
        </g>
    </g>
</svg>