<?xml version="1.0" encoding="UTF-8" standalone="no"?>
<svg width="299px" height="69px" viewBox="0 0 299 69" version="1.1" xmlns="http://www.w3.org/2000/svg" xmlns:xlink="http://www.w3.org/1999/xlink">
    <!-- Generator: Sketch 39.1 (31720) - http://www.bohemiancoding.com/sketch -->
    <title>wework</title>
    <desc>Created with Sketch.</desc>
    <defs></defs>
    <g id="Page-1" stroke="none" stroke-width="1" fill="none" fill-rule="evenodd">
        <g id="wework" fill="#7F7F7F">
            <path d="M29.0163934,52.3770492 C27.295082,49.4262295 23.1147541,41.0655738 21.8852459,37.8688525 C21.147541,36.3934426 20.9016393,35.1639344 20.9016393,34.6721311 C20.9016393,33.6885246 22.8688525,33.1967213 26.0655738,33.1967213 C27.7868852,33.1967213 29.2622951,33.442623 30.7377049,33.6885246 C32.704918,33.9344262 34.4262295,36.8852459 34.4262295,38.6065574 C34.4262295,39.3442623 34.4262295,40.0819672 34.1803279,41.3114754 C33.6885246,43.0327869 30.2459016,49.9180328 29.0163934,52.3770492 M72.295082,29.5081967 C70.0819672,29.7540984 67.6229508,29.7540984 64.6721311,29.7540984 C62.2131148,29.7540984 59.7540984,29.7540984 56.557377,29.5081967 C55.5737705,30 55.5737705,32.2131148 56.0655738,32.704918 L57.7868852,33.1967213 C59.5081967,33.442623 60.2459016,33.9344262 60.2459016,34.4262295 C60.2459016,35.1639344 60,36.3934426 59.5081967,38.1147541 C57.7868852,42.295082 56.3114754,46.9672131 53.852459,52.3770492 C51.6393443,47.704918 48.9344262,41.8032787 46.9672131,37.3770492 C46.4754098,35.6557377 46.2295082,35.1639344 46.2295082,34.4262295 C46.2295082,33.9344262 47.704918,33.442623 49.9180328,32.9508197 L51.3934426,32.704918 C52.1311475,32.4590164 52.1311475,29.7540984 51.147541,29.5081967 C44.7540984,29.7540984 39.8360656,29.7540984 33.442623,29.7540984 L13.2786885,30 C9.09836066,30 5.90163934,29.7540984 1.72131148,29.5081967 C0.737704918,30 0.737704918,32.2131148 1.47540984,32.9508197 L3.44262295,33.442623 C4.91803279,33.6885246 6.14754098,34.1803279 7.37704918,36.8852459 C12.295082,46.4754098 17.2131148,57.0491803 22.1311475,67.6229508 C22.6229508,68.1147541 23.3606557,68.3606557 24.3442623,68.3606557 C25.3278689,68.3606557 26.0655738,68.1147541 26.557377,67.6229508 C29.0163934,62.9508197 34.9180328,50.6557377 37.3770492,45.7377049 C40.5737705,51.6393443 45.7377049,62.704918 47.704918,67.6229508 C48.442623,68.1147541 48.9344262,68.1147541 49.9180328,68.1147541 L50.1639344,68.1147541 C51.147541,68.1147541 51.8852459,68.1147541 52.3770492,67.6229508 C56.557377,57.7868852 61.2295082,47.4590164 65.6557377,38.1147541 C67.3770492,34.6721311 68.1147541,33.6885246 71.3114754,32.9508197 L72.7868852,32.704918 C73.5245902,31.9672131 73.2786885,30 72.295082,29.5081967" id="Shape"></path>
            <path d="M81.8852459,39.5901639 C80.9016393,39.5901639 80.4098361,39.3442623 80.4098361,38.6065574 C80.4098361,35.6557377 84.0983607,32.704918 88.2786885,32.704918 C91.7213115,32.704918 93.6885246,34.4262295 93.6885246,37.3770492 C93.6885246,38.3606557 93.442623,39.0983607 92.9508197,39.3442623 C92.4590164,39.5901639 91.9672131,39.5901639 91.4754098,39.5901639 C90.4918033,39.5901639 89.5081967,39.3442623 88.7704918,39.3442623 L85.0819672,39.3442623 C83.6065574,39.3442623 82.6229508,39.5901639 81.8852459,39.5901639 M89.0163934,28.5245902 C76.4754098,28.5245902 67.3770492,37.6229508 67.3770492,49.1803279 C67.3770492,59.5081967 74.7540984,68.1147541 88.0327869,68.1147541 L88.2786885,68.1147541 C94.1803279,68.1147541 101.557377,65.4098361 105.737705,57.5409836 C105.737705,56.0655738 104.508197,55.3278689 103.52459,55.3278689 L103.032787,55.3278689 C100.327869,59.7540984 96.6393443,60.2459016 93.6885246,60.2459016 C84.5901639,60.2459016 79.6721311,53.6065574 79.6721311,46.4754098 C79.6721311,45 79.9180328,45 82.1311475,45 L101.311475,45 C104.508197,44.7540984 105,43.5245902 105,41.8032787 C105,34.6721311 99.3442623,28.5245902 89.0163934,28.5245902 M133.032787,52.1311475 C131.311475,49.1803279 127.377049,40.8196721 125.901639,37.6229508 C125.409836,36.147541 124.918033,35.1639344 124.918033,34.6721311 C124.918033,33.442623 126.885246,33.1967213 130.081967,33.1967213 L130.327869,33.1967213 C132.04918,33.1967213 133.52459,33.1967213 135,33.442623 C136.967213,33.9344262 138.688525,36.8852459 138.688525,38.3606557 C138.688525,39.0983607 138.688525,39.8360656 138.196721,41.0655738 C137.704918,43.0327869 134.508197,49.6721311 133.032787,52.1311475 M176.557377,29.5081967 C174.344262,29.5081967 171.639344,29.7540984 168.934426,29.7540984 L168.442623,29.7540984 C165.983607,29.7540984 163.770492,29.5081967 160.57377,29.5081967 C159.590164,29.7540984 159.590164,31.9672131 160.327869,32.704918 L162.04918,32.9508197 C163.52459,33.442623 164.508197,33.9344262 164.508197,34.4262295 C164.508197,34.9180328 164.016393,36.147541 163.52459,37.8688525 C162.04918,42.295082 160.327869,46.7213115 157.868852,52.1311475 C155.655738,47.704918 152.95082,41.557377 151.229508,37.1311475 C150.491803,35.6557377 150.245902,35.1639344 150.245902,34.4262295 C150.245902,33.9344262 151.721311,33.442623 153.934426,32.9508197 L155.409836,32.704918 C156.147541,32.2131148 156.393443,29.5081967 155.163934,29.5081967 C148.770492,29.5081967 143.852459,29.7540984 137.459016,29.7540984 L117.540984,29.7540984 C113.114754,29.7540984 109.918033,29.7540984 105.983607,29.5081967 C105,30 105,31.9672131 105.737705,32.704918 L107.459016,33.1967213 C109.180328,33.6885246 110.163934,33.9344262 111.639344,36.6393443 C116.311475,46.2295082 121.229508,57.0491803 126.147541,67.3770492 C126.639344,68.1147541 127.377049,68.1147541 128.360656,68.1147541 C129.344262,68.1147541 130.081967,68.1147541 130.819672,67.3770492 C133.032787,62.9508197 138.934426,50.4098361 141.639344,45.7377049 C144.590164,51.6393443 149.754098,62.4590164 151.967213,67.3770492 C152.459016,68.1147541 153.196721,68.1147541 154.180328,68.1147541 C155.163934,68.1147541 155.901639,68.1147541 156.393443,67.3770492 C160.57377,57.5409836 165.245902,47.4590164 169.918033,37.8688525 C171.393443,34.4262295 172.131148,33.442623 175.327869,32.9508197 L176.803279,32.704918 C177.540984,31.7213115 177.540984,29.7540984 176.557377,29.5081967" id="Shape"></path>
            <path d="M195.245902,63.6885246 C189.590164,63.6885246 186.147541,56.557377 186.147541,46.9672131 C186.147541,36.8852459 189.590164,32.704918 194.262295,32.704918 C199.918033,32.704918 202.622951,40.3278689 202.622951,49.4262295 C202.868852,57.7868852 200.901639,63.6885246 195.245902,63.6885246 M194.754098,28.2786885 C182.95082,28.2786885 171.639344,35.6557377 171.885246,48.9344262 C171.885246,61.7213115 182.213115,68.1147541 194.016393,68.1147541 L194.262295,68.1147541 C206.557377,68.1147541 217.131148,61.7213115 217.131148,47.9508197 C217.131148,34.9180328 206.557377,28.2786885 194.754098,28.2786885" id="Shape"></path>
            <path d="M230.901639,27.0491803 C227.704918,28.7704918 220.819672,31.4754098 216.393443,32.4590164 C215.655738,33.1967213 215.655738,34.6721311 216.393443,35.4098361 L218.114754,36.147541 C219.836066,37.3770492 220.327869,38.3606557 220.327869,42.0491803 L220.327869,56.0655738 C220.327869,62.704918 219.590164,63.442623 216.393443,63.6885246 L213.934426,63.9344262 C213.196721,64.4262295 213.196721,66.6393443 213.934426,67.1311475 C217.377049,66.8852459 221.803279,66.8852459 225.737705,66.8852459 C230.409836,66.8852459 234.590164,66.8852459 239.262295,67.1311475 C240.245902,66.6393443 240.245902,64.4262295 239.262295,63.9344262 L236.311475,63.6885246 C232.868852,63.442623 232.377049,62.704918 232.377049,56.0655738 L232.377049,41.8032787 C232.377049,38.3606557 232.868852,36.3934426 234.344262,36.147541 C234.836066,36.147541 235.819672,36.3934426 238.032787,38.1147541 C239.508197,39.3442623 240.737705,39.8360656 241.967213,39.8360656 C245.163934,39.8360656 248.360656,38.1147541 248.360656,33.6885246 C248.360656,30.2459016 245.655738,28.2786885 242.95082,28.2786885 C238.770492,28.2786885 235.819672,31.2295082 233.114754,32.9508197 C232.377049,32.704918 232.131148,32.4590164 232.131148,31.7213115 C232.131148,30.9836066 232.377049,29.7540984 232.622951,27.7868852 C232.131148,27.295082 231.639344,27.0491803 230.901639,27.0491803" id="Shape"></path>
            <path d="M261.639344,0.245901639 C256.47541,2.45901639 250.327869,4.67213115 246.393443,5.6557377 C245.655738,6.14754098 245.655738,7.86885246 246.393443,8.36065574 L248.114754,9.3442623 C250.081967,10.3278689 250.081967,11.3114754 250.081967,15 L250.081967,55.8196721 C250.081967,62.4590164 249.590164,63.1967213 246.147541,63.442623 L244.180328,63.6885246 C243.442623,64.1803279 243.442623,66.3934426 244.42623,66.8852459 C247.868852,66.6393443 251.803279,66.6393443 256.47541,66.6393443 C261.147541,66.6393443 265.327869,66.6393443 268.52459,66.8852459 C269.508197,66.3934426 269.262295,64.1803279 268.52459,63.6885246 L267.04918,63.442623 C263.360656,63.1967213 263.114754,62.4590164 263.114754,55.8196721 L263.114754,50.4098361 C263.114754,48.6885246 263.606557,48.1967213 264.344262,48.1967213 C265.327869,48.1967213 266.065574,48.6885246 266.803279,49.6721311 L273.934426,59.7540984 C274.672131,60.7377049 275.655738,62.2131148 275.655738,62.704918 C275.655738,62.9508197 274.918033,63.1967213 273.934426,63.442623 L272.704918,63.6885246 C271.967213,64.4262295 271.967213,66.3934426 272.95082,66.8852459 C275.901639,66.6393443 279.344262,66.6393443 285.245902,66.6393443 C291.147541,66.6393443 294.836066,66.6393443 298.032787,66.8852459 C299.016393,66.3934426 299.016393,64.1803279 298.278689,63.6885246 L296.803279,63.442623 C294.098361,62.9508197 292.377049,62.4590164 290.901639,61.2295082 C288.442623,59.0163934 279.590164,46.4754098 277.868852,43.5245902 C277.377049,42.7868852 277.131148,42.295082 277.131148,42.0491803 C277.131148,41.8032787 277.131148,41.3114754 277.622951,40.8196721 C279.098361,39.3442623 280.57377,38.1147541 284.508197,35.4098361 C286.967213,33.442623 289.180328,32.4590164 291.147541,32.2131148 L294.344262,31.4754098 C295.081967,30.7377049 294.836066,28.7704918 293.852459,28.2786885 C287.95082,29.0163934 279.590164,29.5081967 274.918033,29.5081967 L272.704918,29.5081967 C271.721311,30 271.47541,31.9672131 272.459016,32.704918 L274.918033,33.1967213 C275.901639,33.1967213 276.885246,33.6885246 276.885246,34.1803279 C276.885246,34.6721311 276.393443,35.6557377 274.42623,37.8688525 L270.245902,42.295082 C268.278689,44.5081967 266.065574,45 264.344262,45 C263.360656,45 263.114754,44.7540984 263.114754,43.5245902 L263.114754,14.5081967 C263.114754,8.60655738 263.114754,4.67213115 263.360656,0.983606557 C262.868852,0.491803279 262.131148,0.245901639 261.639344,0.245901639" id="Shape"></path>
        </g>
    </g>
</svg>