<?xml version="1.0" encoding="UTF-8"?>
<svg width="217px" height="50px" viewBox="0 0 217 50" version="1.1" xmlns="http://www.w3.org/2000/svg" xmlns:xlink="http://www.w3.org/1999/xlink">
    <!-- Generator: Sketch 53.2 (72643) - https://sketchapp.com -->
    <title>wework</title>
    <desc>Created with Sketch.</desc>
    <g id="layout" stroke="none" stroke-width="1" fill="none" fill-rule="evenodd">
        <g id="Artboard-Copy-17" transform="translate(-335.000000, -811.000000)" fill="#768093">
            <g id="Comapnes" transform="translate(100.000000, 811.000000)">
                <g id="wework" transform="translate(235.000000, 0.000000)">
                    <path d="M21.0575658,38.0357143 C19.8083882,35.8928571 16.7746711,29.8214286 15.8824013,27.5 C15.3470395,26.4285714 15.1685855,25.5357143 15.1685855,25.1785714 C15.1685855,24.4642857 16.5962171,24.1071429 18.9161184,24.1071429 C20.1652961,24.1071429 21.2360197,24.2857143 22.3067434,24.4642857 C23.734375,24.6428571 24.9835526,26.7857143 24.9835526,28.0357143 C24.9835526,28.5714286 24.9835526,29.1071429 24.8050987,30 C24.4481908,31.25 21.9498355,36.25 21.0575658,38.0357143 M52.4654605,21.4285714 C50.859375,21.6071429 49.0748355,21.6071429 46.9333882,21.6071429 C45.1488487,21.6071429 43.3643092,21.6071429 41.0444079,21.4285714 C40.3305921,21.7857143 40.3305921,23.3928571 40.6875,23.75 L41.9366776,24.1071429 C43.1858553,24.2857143 43.7212171,24.6428571 43.7212171,25 C43.7212171,25.5357143 43.5427632,26.4285714 43.1858553,27.6785714 C41.9366776,30.7142857 40.8659539,34.1071429 39.0814145,38.0357143 C37.4753289,34.6428571 35.5123355,30.3571429 34.0847039,27.1428571 C33.7277961,25.8928571 33.5493421,25.5357143 33.5493421,25 C33.5493421,24.6428571 34.6200658,24.2857143 36.2261513,23.9285714 L37.296875,23.75 C37.8322368,23.5714286 37.8322368,21.6071429 37.1184211,21.4285714 C32.4786184,21.6071429 28.9095395,21.6071429 24.2697368,21.6071429 L9.63651316,21.7857143 C6.60279605,21.7857143 4.28289474,21.6071429 1.24917763,21.4285714 C0.535361842,21.7857143 0.535361842,23.3928571 1.07072368,23.9285714 L2.49835526,24.2857143 C3.56907895,24.4642857 4.46134868,24.8214286 5.35361842,26.7857143 C8.92269737,33.75 12.4917763,41.4285714 16.0608553,49.1071429 C16.4177632,49.4642857 16.953125,49.6428571 17.6669408,49.6428571 C18.3807566,49.6428571 18.9161184,49.4642857 19.2730263,49.1071429 C21.0575658,45.7142857 25.3404605,36.7857143 27.125,33.2142857 C29.4449013,37.5 33.1924342,45.5357143 34.6200658,49.1071429 C35.1554276,49.4642857 35.5123355,49.4642857 36.2261513,49.4642857 L36.4046053,49.4642857 C37.1184211,49.4642857 37.6537829,49.4642857 38.0106908,49.1071429 C41.0444079,41.9642857 44.4350329,34.4642857 47.6472039,27.6785714 C48.8963816,25.1785714 49.4317434,24.4642857 51.7516447,23.9285714 L52.8223684,23.75 C53.3577303,23.2142857 53.1792763,21.7857143 52.4654605,21.4285714" id="Shape"></path>
                    <path d="M59.4251645,28.75 C58.7113487,28.75 58.3544408,28.5714286 58.3544408,28.0357143 C58.3544408,25.8928571 61.03125,23.75 64.0649671,23.75 C66.5633224,23.75 67.9909539,25 67.9909539,27.1428571 C67.9909539,27.8571429 67.8125,28.3928571 67.4555921,28.5714286 C67.0986842,28.75 66.7417763,28.75 66.3848684,28.75 C65.6710526,28.75 64.9572368,28.5714286 64.421875,28.5714286 L61.7450658,28.5714286 C60.6743421,28.5714286 59.9605263,28.75 59.4251645,28.75 M64.6003289,20.7142857 C55.4991776,20.7142857 48.8963816,27.3214286 48.8963816,35.7142857 C48.8963816,43.2142857 54.25,49.4642857 63.8865132,49.4642857 L64.0649671,49.4642857 C68.3478618,49.4642857 73.7014803,47.5 76.7351974,41.7857143 C76.7351974,40.7142857 75.8429276,40.1785714 75.1291118,40.1785714 L74.7722039,40.1785714 C72.8092105,43.3928571 70.1324013,43.75 67.9909539,43.75 C61.3881579,43.75 57.8190789,38.9285714 57.8190789,33.75 C57.8190789,32.6785714 57.9975329,32.6785714 59.6036184,32.6785714 L73.5230263,32.6785714 C75.8429276,32.5 76.1998355,31.6071429 76.1998355,30.3571429 C76.1998355,25.1785714 72.0953947,20.7142857 64.6003289,20.7142857 M96.5435855,37.8571429 C95.2944079,35.7142857 92.4391447,29.6428571 91.3684211,27.3214286 C91.0115132,26.25 90.6546053,25.5357143 90.6546053,25.1785714 C90.6546053,24.2857143 92.0822368,24.1071429 94.4021382,24.1071429 L94.5805921,24.1071429 C95.8297697,24.1071429 96.9004934,24.1071429 97.9712171,24.2857143 C99.3988487,24.6428571 100.648026,26.7857143 100.648026,27.8571429 C100.648026,28.3928571 100.648026,28.9285714 100.291118,29.8214286 C99.9342105,31.25 97.6143092,36.0714286 96.5435855,37.8571429 M128.129934,21.4285714 C126.523849,21.4285714 124.560855,21.6071429 122.597862,21.6071429 L122.240954,21.6071429 C120.456414,21.6071429 118.850329,21.4285714 116.530428,21.4285714 C115.816612,21.6071429 115.816612,23.2142857 116.351974,23.75 L117.601151,23.9285714 C118.671875,24.2857143 119.385691,24.6428571 119.385691,25 C119.385691,25.3571429 119.028783,26.25 118.671875,27.5 C117.601151,30.7142857 116.351974,33.9285714 114.567434,37.8571429 C112.961349,34.6428571 110.998355,30.1785714 109.749178,26.9642857 C109.213816,25.8928571 109.035362,25.5357143 109.035362,25 C109.035362,24.6428571 110.106086,24.2857143 111.712171,23.9285714 L112.782895,23.75 C113.318257,23.3928571 113.496711,21.4285714 112.604441,21.4285714 C107.964638,21.4285714 104.395559,21.6071429 99.7557566,21.6071429 L85.3009868,21.6071429 C82.0888158,21.6071429 79.7689145,21.6071429 76.9136513,21.4285714 C76.1998355,21.7857143 76.1998355,23.2142857 76.7351974,23.75 L77.984375,24.1071429 C79.2335526,24.4642857 79.9473684,24.6428571 81.0180921,26.6071429 C84.4087171,33.5714286 87.9777961,41.4285714 91.546875,48.9285714 C91.9037829,49.4642857 92.4391447,49.4642857 93.1529605,49.4642857 C93.8667763,49.4642857 94.4021382,49.4642857 94.9375,48.9285714 C96.5435855,45.7142857 100.82648,36.6071429 102.789474,33.2142857 C104.930921,37.5 108.678454,45.3571429 110.284539,48.9285714 C110.641447,49.4642857 111.176809,49.4642857 111.890625,49.4642857 C112.604441,49.4642857 113.139803,49.4642857 113.496711,48.9285714 C116.530428,41.7857143 119.921053,34.4642857 123.311678,27.5 C124.382401,25 124.917763,24.2857143 127.237664,23.9285714 L128.308388,23.75 C128.84375,23.0357143 128.84375,21.6071429 128.129934,21.4285714" id="Shape"></path>
                    <path d="M141.692434,46.25 C137.587993,46.25 135.089638,41.0714286 135.089638,34.1071429 C135.089638,26.7857143 137.587993,23.75 140.978618,23.75 C145.083059,23.75 147.046053,29.2857143 147.046053,35.8928571 C147.224507,41.9642857 145.796875,46.25 141.692434,46.25 M141.335526,20.5357143 C132.769737,20.5357143 124.560855,25.8928571 124.739309,35.5357143 C124.739309,44.8214286 132.234375,49.4642857 140.800164,49.4642857 L140.978618,49.4642857 C149.901316,49.4642857 157.574836,44.8214286 157.574836,34.8214286 C157.574836,25.3571429 149.901316,20.5357143 141.335526,20.5357143" id="Shape"></path>
                    <path d="M167.568257,19.6428571 C165.248355,20.8928571 160.251645,22.8571429 157.039474,23.5714286 C156.504112,24.1071429 156.504112,25.1785714 157.039474,25.7142857 L158.288651,26.25 C159.537829,27.1428571 159.894737,27.8571429 159.894737,30.5357143 L159.894737,40.7142857 C159.894737,45.5357143 159.359375,46.0714286 157.039474,46.25 L155.254934,46.4285714 C154.719572,46.7857143 154.719572,48.3928571 155.254934,48.75 C157.753289,48.5714286 160.965461,48.5714286 163.820724,48.5714286 C167.211349,48.5714286 170.245066,48.5714286 173.635691,48.75 C174.349507,48.3928571 174.349507,46.7857143 173.635691,46.4285714 L171.494243,46.25 C168.995888,46.0714286 168.63898,45.5357143 168.63898,40.7142857 L168.63898,30.3571429 C168.63898,27.8571429 168.995888,26.4285714 170.066612,26.25 C170.42352,26.25 171.137336,26.4285714 172.743421,27.6785714 C173.814145,28.5714286 174.706414,28.9285714 175.598684,28.9285714 C177.918586,28.9285714 180.238487,27.6785714 180.238487,24.4642857 C180.238487,21.9642857 178.275493,20.5357143 176.3125,20.5357143 C173.278783,20.5357143 171.137336,22.6785714 169.174342,23.9285714 C168.63898,23.75 168.460526,23.5714286 168.460526,23.0357143 C168.460526,22.5 168.63898,21.6071429 168.817434,20.1785714 C168.460526,19.8214286 168.103618,19.6428571 167.568257,19.6428571" id="Shape"></path>
                    <path d="M189.875,0.178571429 C186.127467,1.78571429 181.666118,3.39285714 178.810855,4.10714286 C178.275493,4.46428571 178.275493,5.71428571 178.810855,6.07142857 L180.060033,6.78571429 C181.487664,7.5 181.487664,8.21428571 181.487664,10.8928571 L181.487664,40.5357143 C181.487664,45.3571429 181.130757,45.8928571 178.632401,46.0714286 L177.20477,46.25 C176.669408,46.6071429 176.669408,48.2142857 177.383224,48.5714286 C179.881579,48.3928571 182.736842,48.3928571 186.127467,48.3928571 C189.518092,48.3928571 192.551809,48.3928571 194.871711,48.5714286 C195.585526,48.2142857 195.407072,46.6071429 194.871711,46.25 L193.800987,46.0714286 C191.124178,45.8928571 190.945724,45.3571429 190.945724,40.5357143 L190.945724,36.6071429 C190.945724,35.3571429 191.302632,35 191.837993,35 C192.551809,35 193.087171,35.3571429 193.622533,36.0714286 L198.797697,43.3928571 C199.333059,44.1071429 200.046875,45.1785714 200.046875,45.5357143 C200.046875,45.7142857 199.511513,45.8928571 198.797697,46.0714286 L197.905428,46.25 C197.370066,46.7857143 197.370066,48.2142857 198.083882,48.5714286 C200.225329,48.3928571 202.723684,48.3928571 207.006579,48.3928571 C211.289474,48.3928571 213.966283,48.3928571 216.286184,48.5714286 C217,48.2142857 217,46.6071429 216.464638,46.25 L215.393914,46.0714286 C213.430921,45.7142857 212.181743,45.3571429 211.11102,44.4642857 C209.32648,42.8571429 202.902138,33.75 201.652961,31.6071429 C201.296053,31.0714286 201.117599,30.7142857 201.117599,30.5357143 C201.117599,30.3571429 201.117599,30 201.474507,29.6428571 C202.54523,28.5714286 203.615954,27.6785714 206.471217,25.7142857 C208.255757,24.2857143 209.861842,23.5714286 211.289474,23.3928571 L213.609375,22.8571429 C214.144737,22.3214286 213.966283,20.8928571 213.252467,20.5357143 C208.969572,21.0714286 202.902138,21.4285714 199.511513,21.4285714 L197.905428,21.4285714 C197.191612,21.7857143 197.013158,23.2142857 197.726974,23.75 L199.511513,24.1071429 C200.225329,24.1071429 200.939145,24.4642857 200.939145,24.8214286 C200.939145,25.1785714 200.582237,25.8928571 199.154605,27.5 L196.120888,30.7142857 C194.693257,32.3214286 193.087171,32.6785714 191.837993,32.6785714 C191.124178,32.6785714 190.945724,32.5 190.945724,31.6071429 L190.945724,10.5357143 C190.945724,6.25 190.945724,3.39285714 191.124178,0.714285714 C190.76727,0.357142857 190.231908,0.178571429 189.875,0.178571429" id="Shape"></path>
                </g>
            </g>
        </g>
    </g>
</svg>