<?xml version="1.0" encoding="UTF-8"?>
<svg width="500px" height="500px" viewBox="0 0 500 500" version="1.1" xmlns="http://www.w3.org/2000/svg" xmlns:xlink="http://www.w3.org/1999/xlink">
    <!-- Generator: Sketch 59 (86127) - https://sketch.com -->
    <title>wework</title>
    <desc>Created with Sketch.</desc>
    <g id="wework" stroke="none" stroke-width="1" fill="none" fill-rule="evenodd">
        <g id="wework-color" transform="translate(0.000000, 168.000000)">
            <rect id="Rectangle" fill="#FFFFFF" opacity="0" x="0" y="0" width="500" height="164"></rect>
            <path d="M48.5223971,87.5870388 C45.6439498,82.6525577 38.6534349,68.671528 36.5974012,63.3258402 C35.3637809,60.8585997 34.9525742,58.8025659 34.9525742,57.9801524 C34.9525742,56.3353254 38.2422282,55.5129119 43.587916,55.5129119 C46.4663633,55.5129119 48.9336038,55.9241186 51.4008443,56.3353254 C54.6904984,56.7465322 57.5689457,61.6810132 57.5689457,64.5594605 C57.5689457,65.7930808 57.5689457,67.026701 57.1577389,69.0827348 C56.3353254,71.9611821 50.5784308,83.4749712 48.5223971,87.5870388 M120.894786,49.3448106 C117.193925,49.7560173 113.081858,49.7560173 108.147377,49.7560173 C104.035309,49.7560173 99.9232414,49.7560173 94.5775536,49.3448106 C92.9327266,50.1672241 92.9327266,53.8680849 93.7551401,54.6904984 L96.6335874,55.5129119 C99.5120347,55.9241186 100.745655,56.7465322 100.745655,57.5689457 C100.745655,58.8025659 100.334448,60.8585997 99.5120347,63.737047 C96.6335874,70.7275618 94.1663468,78.5404902 90.0542793,87.5870388 C86.3534185,79.7741104 81.8301442,69.9051483 78.5404902,62.5034267 C77.7180766,59.6249794 77.3068699,58.8025659 77.3068699,57.5689457 C77.3068699,56.7465322 79.7741104,55.9241186 83.4749712,55.1017051 L85.9422117,54.6904984 C87.175832,54.2792916 87.175832,49.7560173 85.531005,49.3448106 C74.8396294,49.7560173 66.6154943,49.7560173 55.9241186,49.7560173 L22.2051648,50.1672241 C15.2146499,50.1672241 9.86896211,49.7560173 2.87844728,49.3448106 C1.23362026,50.1672241 1.23362026,53.8680849 2.46724053,55.1017051 L5.75689457,55.9241186 C8.2241351,56.3353254 10.2801689,57.1577389 12.3362026,61.6810132 C20.5603377,77.7180766 28.7844728,95.3999671 37.0086079,113.081858 C37.8310214,113.904271 39.0646417,114.315478 40.7094687,114.315478 C42.3542957,114.315478 43.587916,113.904271 44.4103295,113.081858 C48.5223971,105.268929 58.3913592,84.7085915 62.5034267,76.4844564 C67.8491145,86.3534185 76.4844564,104.857722 79.7741104,113.081858 C81.0077307,113.904271 81.8301442,113.904271 83.4749712,113.904271 L83.886178,113.904271 C85.531005,113.904271 86.7646253,113.904271 87.5870388,113.081858 C94.5775536,96.6335874 102.390482,79.3629037 109.792204,63.737047 C112.670651,57.9801524 113.904271,56.3353254 119.249959,55.1017051 L121.717199,54.6904984 C122.95082,53.4568781 122.539613,50.1672241 120.894786,49.3448106" id="Shape" fill="#101131"></path>
            <path d="M136.931849,66.2042875 C135.287022,66.2042875 134.464609,65.7930808 134.464609,64.5594605 C134.464609,59.6249794 140.63271,54.6904984 147.623225,54.6904984 C153.38012,54.6904984 156.669774,57.5689457 156.669774,62.5034267 C156.669774,64.1482537 156.258567,65.381874 155.436153,65.7930808 C154.61374,66.2042875 153.791326,66.2042875 152.968913,66.2042875 C151.324086,66.2042875 149.679259,65.7930808 148.445638,65.7930808 L142.277537,65.7930808 C139.810297,65.7930808 138.16547,66.2042875 136.931849,66.2042875 M148.856845,47.6999836 C127.885301,47.6999836 112.670651,62.9146335 112.670651,82.241351 C112.670651,99.5120347 125.006853,113.904271 147.212018,113.904271 L147.623225,113.904271 C157.492187,113.904271 169.82839,109.380997 176.818905,96.2223806 C176.818905,93.7551401 174.762871,92.5215198 173.118044,92.5215198 L172.29563,92.5215198 C167.772356,99.9232414 161.604255,100.745655 156.669774,100.745655 C141.455124,100.745655 133.230989,89.6430725 133.230989,77.7180766 C133.230989,75.2508361 133.642195,75.2508361 137.343056,75.2508361 L169.417183,75.2508361 C174.762871,74.8396294 175.585284,72.7835956 175.585284,69.9051483 C175.585284,57.9801524 166.127529,47.6999836 148.856845,47.6999836 M222.462854,87.175832 C219.584407,82.241351 213.005099,68.2603213 210.537858,62.9146335 C209.715445,60.4473929 208.893031,58.8025659 208.893031,57.9801524 C208.893031,55.9241186 212.182685,55.5129119 217.528373,55.5129119 L217.93958,55.5129119 C220.818027,55.5129119 223.285268,55.5129119 225.752508,55.9241186 C229.042162,56.7465322 231.92061,61.6810132 231.92061,64.1482537 C231.92061,65.381874 231.92061,66.6154943 231.098196,68.671528 C230.275783,71.9611821 224.930095,83.0637645 222.462854,87.175832 M295.24645,49.3448106 C291.545589,49.3448106 287.022315,49.7560173 282.499041,49.7560173 L281.676627,49.7560173 C277.564559,49.7560173 273.863699,49.3448106 268.518011,49.3448106 C266.873184,49.7560173 266.873184,53.4568781 268.106804,54.6904984 L270.985251,55.1017051 C273.452492,55.9241186 275.097319,56.7465322 275.097319,57.5689457 C275.097319,58.3913592 274.274905,60.4473929 273.452492,63.3258402 C270.985251,70.7275618 268.106804,78.1292834 263.994737,87.175832 C260.293876,79.7741104 255.770601,69.4939416 252.892154,62.09222 C251.658534,59.6249794 251.247327,58.8025659 251.247327,57.5689457 C251.247327,56.7465322 253.714568,55.9241186 257.415428,55.1017051 L259.882669,54.6904984 C261.116289,53.8680849 261.527496,49.3448106 259.471462,49.3448106 C248.780087,49.3448106 240.555952,49.7560173 229.864576,49.7560173 L196.556829,49.7560173 C189.155107,49.7560173 183.809419,49.7560173 177.230111,49.3448106 C175.585284,50.1672241 175.585284,53.4568781 176.818905,54.6904984 L179.697352,55.5129119 C182.575799,56.3353254 184.220626,56.7465322 186.687867,61.2698065 C194.500795,77.3068699 202.72493,95.3999671 210.949065,112.670651 C211.771479,113.904271 213.005099,113.904271 214.649926,113.904271 C216.294753,113.904271 217.528373,113.904271 218.761994,112.670651 C222.462854,105.268929 232.331816,84.2973847 236.855091,76.4844564 C241.789572,86.3534185 250.424914,104.446516 254.125774,112.670651 C254.948188,113.904271 256.181808,113.904271 257.826635,113.904271 C259.471462,113.904271 260.705083,113.904271 261.527496,112.670651 C268.518011,96.2223806 276.330939,79.3629037 284.143868,63.3258402 C286.611108,57.5689457 287.844728,55.9241186 293.190416,55.1017051 L295.657657,54.6904984 C296.891277,53.0456714 296.891277,49.7560173 295.24645,49.3448106" id="Shape" fill="#101131"></path>
            <path d="M326.498163,106.502549 C317.040408,106.502549 311.283513,94.5775536 311.283513,78.5404902 C311.283513,61.6810132 317.040408,54.6904984 324.853336,54.6904984 C334.311092,54.6904984 338.834366,67.4379078 338.834366,82.6525577 C339.245573,96.6335874 335.955919,106.502549 326.498163,106.502549 M325.67575,47.2887768 C305.937826,47.2887768 287.022315,59.6249794 287.433522,81.8301442 C287.433522,103.212895 304.704205,113.904271 324.44213,113.904271 L324.853336,113.904271 C345.413674,113.904271 363.095564,103.212895 363.095564,80.1853172 C363.095564,58.3913592 345.413674,47.2887768 325.67575,47.2887768" id="Shape" fill="#101131"></path>
            <path d="M386.123143,45.232743 C380.777455,48.1111903 369.263666,52.6344646 361.861944,54.2792916 C360.628324,55.5129119 360.628324,57.9801524 361.861944,59.2137727 L364.740391,60.4473929 C367.618839,62.5034267 368.441252,64.1482537 368.441252,70.3163551 L368.441252,93.7551401 C368.441252,104.857722 367.207632,106.091343 361.861944,106.502549 L357.749877,106.913756 C356.516256,107.73617 356.516256,111.437031 357.749877,112.259444 C363.506771,111.848237 370.908493,111.848237 377.487801,111.848237 C385.300729,111.848237 392.291244,111.848237 400.104172,112.259444 C401.748999,111.437031 401.748999,107.73617 400.104172,106.913756 L395.169691,106.502549 C389.412797,106.091343 388.590383,104.857722 388.590383,93.7551401 L388.590383,69.9051483 C388.590383,64.1482537 389.412797,60.8585997 391.880037,60.4473929 C392.702451,60.4473929 394.347278,60.8585997 398.048139,63.737047 C400.515379,65.7930808 402.571413,66.6154943 404.627447,66.6154943 C409.973134,66.6154943 415.318822,63.737047 415.318822,56.3353254 C415.318822,50.5784308 410.795548,47.2887768 406.272274,47.2887768 C399.281759,47.2887768 394.347278,52.2232579 389.824004,55.1017051 C388.590383,54.6904984 388.179176,54.2792916 388.179176,53.0456714 C388.179176,51.8120511 388.590383,49.7560173 389.00159,46.4663633 C388.179176,45.6439498 387.356763,45.232743 386.123143,45.232743" id="Shape" fill="#101131"></path>
            <path d="M437.523987,0.411206755 C428.888645,4.11206755 418.608476,7.81292834 412.029168,9.45775536 C410.795548,10.2801689 410.795548,13.1586162 412.029168,13.9810297 L414.907616,15.6258567 C418.19727,17.2706837 418.19727,18.9155107 418.19727,25.083612 L418.19727,93.3439333 C418.19727,104.446516 417.374856,105.680136 411.617962,106.091343 L408.328307,106.502549 C407.094687,107.324963 407.094687,111.025824 408.739514,111.848237 C414.496409,111.437031 421.075717,111.437031 428.888645,111.437031 C436.701574,111.437031 443.692088,111.437031 449.037776,111.848237 C450.682603,111.025824 450.271396,107.324963 449.037776,106.502549 L446.570536,106.091343 C440.402434,105.680136 439.991228,104.446516 439.991228,93.3439333 L439.991228,84.2973847 C439.991228,81.4189374 440.813641,80.5965239 442.047261,80.5965239 C443.692088,80.5965239 444.925709,81.4189374 446.159329,83.0637645 L458.084325,99.9232414 C459.317945,101.568068 460.962772,104.035309 460.962772,104.857722 C460.962772,105.268929 459.729152,105.680136 458.084325,106.091343 L456.028291,106.502549 C454.794671,107.73617 454.794671,111.025824 456.439498,111.848237 C461.373979,111.437031 467.130873,111.437031 476.999836,111.437031 C486.868798,111.437031 493.036899,111.437031 498.382587,111.848237 C500.027414,111.025824 500.027414,107.324963 498.793794,106.502549 L496.326553,106.091343 C491.803279,105.268929 488.924831,104.446516 486.457591,102.390482 C482.345523,98.6896211 467.54208,77.7180766 464.663633,72.7835956 C463.841219,71.5499753 463.430013,70.7275618 463.430013,70.3163551 C463.430013,69.9051483 463.430013,69.0827348 464.252426,68.2603213 C466.719667,65.7930808 469.186907,63.737047 475.766215,59.2137727 C479.878283,55.9241186 483.579144,54.2792916 486.868798,53.8680849 L492.214485,52.6344646 C493.448106,51.4008443 493.036899,48.1111903 491.392072,47.2887768 C481.52311,48.5223971 467.54208,49.3448106 459.729152,49.3448106 L456.028291,49.3448106 C454.383464,50.1672241 453.972257,53.4568781 455.617084,54.6904984 L459.729152,55.5129119 C461.373979,55.5129119 463.018806,56.3353254 463.018806,57.1577389 C463.018806,57.9801524 462.196392,59.6249794 458.906738,63.3258402 L451.916223,70.7275618 C448.626569,74.4284226 444.925709,75.2508361 442.047261,75.2508361 C440.402434,75.2508361 439.991228,74.8396294 439.991228,72.7835956 L439.991228,24.2611985 C439.991228,14.3922364 439.991228,7.81292834 440.402434,1.64482702 C439.580021,0.82241351 438.346401,0.411206755 437.523987,0.411206755" id="Shape" fill="#101131"></path>
        </g>
    </g>
</svg>