<?xml version="1.0" encoding="UTF-8"?>
<svg width="500px" height="500px" viewBox="0 0 500 500" version="1.1" xmlns="http://www.w3.org/2000/svg" xmlns:xlink="http://www.w3.org/1999/xlink">
    <!-- Generator: Sketch 59 (86127) - https://sketch.com -->
    <title>wework</title>
    <desc>Created with Sketch.</desc>
    <g id="wework" stroke="none" stroke-width="1" fill="none" fill-rule="evenodd">
        <g id="wework-color" transform="translate(30.000000, 188.000000)" fill="#101131">
            <path d="M41.5729536,78.0249 C39.0376565,73.6786765 32.8805065,61.3643765 31.0695801,56.6559677 C29.9830242,54.4828559 29.6208389,52.6719295 29.6208389,51.9475589 C29.6208389,50.4988177 32.5183213,49.7744471 37.2267301,49.7744471 C39.7620271,49.7744471 41.9351389,50.1366324 44.1082506,50.4988177 C47.005733,50.861003 49.54103,55.2072265 49.54103,57.7425236 C49.54103,58.8290795 49.54103,59.9156353 49.1788447,61.7265618 C48.4544741,64.2618588 43.38388,74.403047 41.5729536,78.0249 M105.317565,44.3416677 C102.057897,44.703853 98.4360445,44.703853 94.089821,44.703853 C90.4679681,44.703853 86.8461152,44.703853 82.1377064,44.3416677 C80.6889652,45.0660383 80.6889652,48.325706 81.4133358,49.0500766 L83.9486328,49.7744471 C86.4839299,50.1366324 87.5704857,50.861003 87.5704857,51.5853736 C87.5704857,52.6719295 87.2083005,54.4828559 86.4839299,57.018153 C83.9486328,63.175303 81.7755211,70.0568235 78.1536681,78.0249 C74.8940005,71.1433794 70.9099623,62.4509324 68.0124799,55.9315971 C67.2881094,53.3963001 66.9259241,52.6719295 66.9259241,51.5853736 C66.9259241,50.861003 69.0990358,50.1366324 72.3587035,49.4122618 L74.5318152,49.0500766 C75.6183711,48.6878913 75.6183711,44.703853 74.1696299,44.3416677 C64.7528123,44.703853 57.5091065,44.703853 48.0922888,44.703853 L18.3930948,45.0660383 C12.2359449,45.0660383 7.52753606,44.703853 1.37038608,44.3416677 C-0.0783550883,45.0660383 -0.0783550883,48.325706 1.00820079,49.4122618 L3.90568313,50.1366324 C6.07879489,50.4988177 7.88972135,51.2231883 9.70064781,55.2072265 C16.9443537,69.3324529 24.1880595,84.9064205 31.4317654,100.480388 C32.156136,101.204759 33.2426918,101.566944 34.691433,101.566944 C36.1401742,101.566944 37.2267301,101.204759 37.9511006,100.480388 C41.5729536,93.5988676 50.2654006,75.4896029 53.8872535,68.2458971 C58.5956623,76.9383441 66.2015535,93.2366823 69.0990358,100.480388 C70.1855917,101.204759 70.9099623,101.204759 72.3587035,101.204759 L72.7208887,101.204759 C74.1696299,101.204759 75.2561858,101.204759 75.9805564,100.480388 C82.1377064,85.9929764 89.0192269,70.7811941 95.5385622,57.018153 C98.0738592,51.9475589 99.1604151,50.4988177 103.868824,49.4122618 L106.041936,49.0500766 C107.128492,47.9635207 106.766306,45.0660383 105.317565,44.3416677" id="Shape"></path>
            <path d="M119.442792,59.1912647 C117.99405,59.1912647 117.26968,58.8290795 117.26968,57.7425236 C117.26968,53.3963001 122.702459,49.0500766 128.859609,49.0500766 C133.930203,49.0500766 136.827686,51.5853736 136.827686,55.9315971 C136.827686,57.3803383 136.4655,58.4668942 135.74113,58.8290795 C135.016759,59.1912647 134.292389,59.1912647 133.568018,59.1912647 C132.119277,59.1912647 130.670536,58.8290795 129.58398,58.8290795 L124.1512,58.8290795 C121.978089,58.8290795 120.529347,59.1912647 119.442792,59.1912647 M129.946165,42.8929266 C111.474715,42.8929266 98.0738592,56.2937824 98.0738592,73.3164912 C98.0738592,88.5282735 108.939418,101.204759 128.497424,101.204759 L128.859609,101.204759 C137.552056,101.204759 148.417615,97.2207205 154.574765,85.6307911 C154.574765,83.4576794 152.763838,82.3711235 151.315097,82.3711235 L150.590727,82.3711235 C146.606688,88.8904588 141.173909,89.6148293 136.827686,89.6148293 C123.42683,89.6148293 116.183124,79.8358264 116.183124,69.3324529 C116.183124,67.1593412 116.545309,67.1593412 119.804977,67.1593412 L148.05543,67.1593412 C152.763838,66.7971559 153.488209,64.9862294 153.488209,62.4509324 C153.488209,51.9475589 145.157947,42.8929266 129.946165,42.8929266 M194.777332,77.6627147 C192.242035,73.3164912 186.447071,61.0021912 184.273959,56.2937824 C183.549588,54.1206707 182.825218,52.6719295 182.825218,51.9475589 C182.825218,50.1366324 185.7227,49.7744471 190.431109,49.7744471 L190.793294,49.7744471 C193.328591,49.7744471 195.501703,49.7744471 197.674815,50.1366324 C200.572297,50.861003 203.107594,55.2072265 203.107594,57.3803383 C203.107594,58.4668942 203.107594,59.55345 202.383224,61.3643765 C201.658853,64.2618588 196.950444,74.0408617 194.777332,77.6627147 M258.884129,44.3416677 C255.624462,44.3416677 251.640423,44.703853 247.656385,44.703853 L246.932015,44.703853 C243.310162,44.703853 240.050494,44.3416677 235.342085,44.3416677 C233.893344,44.703853 233.893344,47.9635207 234.9799,49.0500766 L237.515197,49.4122618 C239.688309,50.1366324 241.13705,50.861003 241.13705,51.5853736 C241.13705,52.3097442 240.412679,54.1206707 239.688309,56.6559677 C237.515197,63.175303 234.9799,69.6946382 231.358047,77.6627147 C228.098379,71.1433794 224.114341,62.0887471 221.579044,55.5694118 C220.492488,53.3963001 220.130303,52.6719295 220.130303,51.5853736 C220.130303,50.861003 222.303415,50.1366324 225.563082,49.4122618 L227.736194,49.0500766 C228.82275,48.325706 229.184935,44.3416677 227.374009,44.3416677 C217.957191,44.3416677 210.713485,44.703853 201.296668,44.703853 L171.959659,44.703853 C165.440324,44.703853 160.731915,44.703853 154.93695,44.3416677 C153.488209,45.0660383 153.488209,47.9635207 154.574765,49.0500766 L157.110062,49.7744471 C159.645359,50.4988177 161.0941,50.861003 163.267212,54.8450412 C170.148732,68.9702677 177.392438,84.9064205 184.636144,100.118203 C185.360515,101.204759 186.447071,101.204759 187.895812,101.204759 C189.344553,101.204759 190.431109,101.204759 191.517665,100.118203 C194.777332,93.5988676 203.469779,75.1274176 207.453818,68.2458971 C211.800041,76.9383441 219.405932,92.874497 222.6656,100.118203 C223.389971,101.204759 224.476526,101.204759 225.925268,101.204759 C227.374009,101.204759 228.460565,101.204759 229.184935,100.118203 C235.342085,85.6307911 242.223606,70.7811941 249.105126,56.6559677 C251.278238,51.5853736 252.364794,50.1366324 257.073203,49.4122618 L259.246314,49.0500766 C260.33287,47.6013354 260.33287,44.703853 258.884129,44.3416677" id="Shape"></path>
            <path d="M286.410211,94.6854234 C278.07995,94.6854234 273.009356,84.1820499 273.009356,70.0568235 C273.009356,55.2072265 278.07995,49.0500766 284.96147,49.0500766 C293.291732,49.0500766 297.27577,60.2778206 297.27577,73.6786765 C297.637956,85.9929764 294.740473,94.6854234 286.410211,94.6854234 M285.685841,42.5307413 C268.300947,42.5307413 251.640423,53.3963001 252.002609,72.9543059 C252.002609,91.7879411 267.214391,101.204759 284.599285,101.204759 L284.96147,101.204759 C303.070735,101.204759 318.644702,91.7879411 318.644702,71.5055647 C318.644702,52.3097442 303.070735,42.5307413 285.685841,42.5307413" id="Shape"></path>
            <path d="M338.927079,40.7198148 C334.21867,43.2551119 324.077482,47.2391501 317.558147,48.6878913 C316.471591,49.7744471 316.471591,51.9475589 317.558147,53.0341148 L320.093444,54.1206707 C322.628741,55.9315971 323.353111,57.3803383 323.353111,62.8131177 L323.353111,83.4576794 C323.353111,93.2366823 322.266555,94.3232381 317.558147,94.6854234 L313.936294,95.0476087 C312.849738,95.7719793 312.849738,99.0316469 313.936294,99.7560175 C319.006888,99.3938322 325.526223,99.3938322 331.321188,99.3938322 C338.202708,99.3938322 344.359858,99.3938322 351.241379,99.7560175 C352.69012,99.0316469 352.69012,95.7719793 351.241379,95.0476087 L346.895155,94.6854234 C341.824561,94.3232381 341.100191,93.2366823 341.100191,83.4576794 L341.100191,62.4509324 C341.100191,57.3803383 341.824561,54.4828559 343.997673,54.1206707 C344.722044,54.1206707 346.170785,54.4828559 349.430452,57.018153 C351.603564,58.8290795 353.414491,59.55345 355.225417,59.55345 C359.933826,59.55345 364.642235,57.018153 364.642235,50.4988177 C364.642235,45.4282236 360.658196,42.5307413 356.674158,42.5307413 C350.517008,42.5307413 346.170785,46.8769648 342.186747,49.4122618 C341.100191,49.0500766 340.738005,48.6878913 340.738005,47.6013354 C340.738005,46.5147795 341.100191,44.703853 341.462376,41.8063707 C340.738005,41.0820001 340.013635,40.7198148 338.927079,40.7198148" id="Shape"></path>
            <path d="M384.20024,1.24161792 C376.594349,4.50128555 367.539717,7.76095319 361.744752,9.20969436 C360.658196,9.93406494 360.658196,12.469362 361.744752,13.1937326 L364.280049,14.6424737 C367.177532,16.0912149 367.177532,17.5399561 367.177532,22.9727355 L367.177532,83.0954941 C367.177532,92.874497 366.453161,93.9610528 361.382567,94.3232381 L358.485085,94.6854234 C357.398529,95.409794 357.398529,98.6694617 358.84727,99.3938322 C363.917864,99.0316469 369.712829,99.0316469 376.594349,99.0316469 C383.47587,99.0316469 389.63302,99.0316469 394.341429,99.3938322 C395.79017,98.6694617 395.427985,95.409794 394.341429,94.6854234 L392.168317,94.3232381 C386.735538,93.9610528 386.373352,92.874497 386.373352,83.0954941 L386.373352,75.1274176 C386.373352,72.5921206 387.097723,71.86775 388.184279,71.86775 C389.63302,71.86775 390.719576,72.5921206 391.806132,74.0408617 L402.309505,88.8904588 C403.396061,90.3391999 404.844802,92.5123117 404.844802,93.2366823 C404.844802,93.5988676 403.758246,93.9610528 402.309505,94.3232381 L400.498579,94.6854234 C399.412023,95.7719793 399.412023,98.6694617 400.860764,99.3938322 C405.206987,99.0316469 410.277582,99.0316469 418.970029,99.0316469 C427.662476,99.0316469 433.095255,99.0316469 437.803664,99.3938322 C439.252405,98.6694617 439.252405,95.409794 438.165849,94.6854234 L435.992737,94.3232381 C432.008699,93.5988676 429.473402,92.874497 427.30029,91.0635705 C423.678437,87.8039029 410.639767,69.3324529 408.10447,64.9862294 C407.380099,63.8996736 407.017914,63.175303 407.017914,62.8131177 C407.017914,62.4509324 407.017914,61.7265618 407.742284,61.0021912 C409.915396,58.8290795 412.088508,57.018153 417.883473,53.0341148 C421.505326,50.1366324 424.764993,48.6878913 427.662476,48.325706 L432.370884,47.2391501 C433.45744,46.1525942 433.095255,43.2551119 431.646514,42.5307413 C422.954067,43.6172972 410.639767,44.3416677 403.758246,44.3416677 L400.498579,44.3416677 C399.049837,45.0660383 398.687652,47.9635207 400.136393,49.0500766 L403.758246,49.7744471 C405.206987,49.7744471 406.655729,50.4988177 406.655729,51.2231883 C406.655729,51.9475589 405.931358,53.3963001 403.033876,56.6559677 L396.876726,63.175303 C393.979243,66.4349706 390.719576,67.1593412 388.184279,67.1593412 C386.735538,67.1593412 386.373352,66.7971559 386.373352,64.9862294 L386.373352,22.2483649 C386.373352,13.5559179 386.373352,7.76095319 386.735538,2.32817379 C386.011167,1.60380321 384.924611,1.24161792 384.20024,1.24161792" id="Shape"></path>
        </g>
    </g>
</svg>