<?xml version="1.0" encoding="UTF-8"?>
<svg width="30px" height="30px" viewBox="0 0 30 30" version="1.1" xmlns="http://www.w3.org/2000/svg" xmlns:xlink="http://www.w3.org/1999/xlink">
    <!-- Generator: Sketch 58 (84663) - https://sketch.com -->
    <title>5d8bee9a7d9974436d2087fd_instagram</title>
    <desc>Created with Sketch.</desc>
    <g id="Site" stroke="none" stroke-width="1" fill="none" fill-rule="evenodd">
        <g id="View-Copy-13" transform="translate(-870.000000, -1964.000000)" fill="#101131" fill-rule="nonzero">
            <g id="5d8bee9a7d9974436d2087fd_instagram" transform="translate(870.000000, 1964.000000)">
                <path d="M15,7.29910714 C16.3839289,7.29910714 17.6674104,7.64508963 18.8504464,8.33705357 C20.0334825,9.02901752 20.9709825,9.96651752 21.6629464,11.1495536 C22.3549104,12.3325896 22.7008929,13.6160711 22.7008929,15 C22.7008929,16.3839289 22.3549104,17.6674104 21.6629464,18.8504464 C20.9709825,20.0334825 20.0334825,20.9709825 18.8504464,21.6629464 C17.6674104,22.3549104 16.3839289,22.7008929 15,22.7008929 C13.6160711,22.7008929 12.3325896,22.3549104 11.1495536,21.6629464 C9.96651752,20.9709825 9.02901752,20.0334825 8.33705357,18.8504464 C7.64508963,17.6674104 7.29910714,16.3839289 7.29910714,15 C7.29910714,13.6160711 7.64508963,12.3325896 8.33705357,11.1495536 C9.02901752,9.96651752 9.96651752,9.02901752 11.1495536,8.33705357 C12.3325896,7.64508963 13.6160711,7.29910714 15,7.29910714 Z M15,20.0223214 C16.3839289,20.0223214 17.5669639,19.5312503 18.5491071,18.5491071 C19.5312503,17.5669639 20.0223214,16.3839289 20.0223214,15 C20.0223214,13.6160711 19.5312503,12.4330361 18.5491071,11.4508929 C17.5669639,10.4687497 16.3839289,9.97767857 15,9.97767857 C13.6160711,9.97767857 12.4330361,10.4687497 11.4508929,11.4508929 C10.4687497,12.4330361 9.97767857,13.6160711 9.97767857,15 C9.97767857,16.3839289 10.4687497,17.5669639 11.4508929,18.5491071 C12.4330361,19.5312503 13.6160711,20.0223214 15,20.0223214 Z M24.84375,6.96428571 C24.7991068,7.4553568 24.609375,7.87946463 24.2745536,8.23660714 C23.9397321,8.59374966 23.5267854,8.77232143 23.0357143,8.77232143 C22.5446432,8.77232143 22.1205354,8.59374966 21.7633929,8.23660714 C21.4062503,7.87946463 21.2276786,7.4553568 21.2276786,6.96428571 C21.2276786,6.47321463 21.4062503,6.0491068 21.7633929,5.69196429 C22.1205354,5.33482177 22.5446432,5.15625 23.0357143,5.15625 C23.5267854,5.15625 23.9508932,5.33482177 24.3080357,5.69196429 C24.6651782,6.0491068 24.84375,6.47321463 24.84375,6.96428571 Z M29.9330357,8.77232143 C29.9776789,10.0223218 30,12.0982146 30,15 C30,17.9017854 29.9665179,19.9888393 29.8995536,21.2611607 C29.8325893,22.5334821 29.6428575,23.6383929 29.3303571,24.5758929 C28.9285714,25.6919646 28.3147318,26.6629468 27.4888393,27.4888393 C26.6629468,28.3147318 25.6919646,28.9285714 24.5758929,29.3303571 C23.6383929,29.6428575 22.5334821,29.8325893 21.2611607,29.8995536 C19.9888393,29.9665179 17.9017854,30 15,30 C12.0982146,30 10.0111607,29.9665179 8.73883929,29.8995536 C7.46651786,29.8325893 6.36160714,29.6205354 5.42410714,29.2633929 C4.30803537,28.9062503 3.33705323,28.3147318 2.51116071,27.4888393 C1.6852682,26.6629468 1.07142857,25.6919646 0.669642857,24.5758929 C0.357142517,23.6383929 0.167410714,22.5334821 0.100446429,21.2611607 C0.0334821429,19.9888393 0,17.9017854 0,15 C0,12.0982146 0.0334821429,10.0111607 0.100446429,8.73883929 C0.167410714,7.46651786 0.357142517,6.36160714 0.669642857,5.42410714 C1.07142857,4.30803537 1.6852682,3.33705323 2.51116071,2.51116071 C3.33705323,1.6852682 4.30803537,1.07142857 5.42410714,0.669642857 C6.36160714,0.357142517 7.46651786,0.167410714 8.73883929,0.100446429 C10.0111607,0.0334821429 12.0982146,0 15,0 C17.9017854,0 19.9888393,0.0334821429 21.2611607,0.100446429 C22.5334821,0.167410714 23.6383929,0.357142517 24.5758929,0.669642857 C25.6919646,1.07142857 26.6629468,1.6852682 27.4888393,2.51116071 C28.3147318,3.33705323 28.9285714,4.30803537 29.3303571,5.42410714 C29.6428575,6.36160714 29.8437503,7.47767891 29.9330357,8.77232143 Z M26.71875,23.8392857 C26.9866071,23.0803575 27.1651789,21.8750003 27.2544643,20.2232143 C27.2991075,19.2410711 27.3214286,17.8571432 27.3214286,16.0714286 L27.3214286,13.9285714 C27.3214286,12.0982146 27.2991075,10.7142857 27.2544643,9.77678571 C27.1651789,8.08035748 26.9866071,6.87500034 26.71875,6.16071429 C26.1830357,4.77678537 25.2232146,3.81696429 23.8392857,3.28125 C23.1249997,3.01339286 21.9196425,2.83482109 20.2232143,2.74553571 C19.2410711,2.70089252 17.8571432,2.67857143 16.0714286,2.67857143 L13.9285714,2.67857143 C12.1428568,2.67857143 10.7589289,2.70089252 9.77678571,2.74553571 C8.12499966,2.83482109 6.91964252,3.01339286 6.16071429,3.28125 C4.77678537,3.81696429 3.81696429,4.77678537 3.28125,6.16071429 C3.01339286,6.87500034 2.83482109,8.08035748 2.74553571,9.77678571 C2.70089252,10.7589289 2.67857143,12.1428568 2.67857143,13.9285714 L2.67857143,16.0714286 C2.67857143,17.8571432 2.70089252,19.2410711 2.74553571,20.2232143 C2.83482109,21.8750003 3.01339286,23.0803575 3.28125,23.8392857 C3.86160748,25.2232146 4.82142857,26.1830357 6.16071429,26.71875 C6.91964252,26.9866071 8.12499966,27.1651789 9.77678571,27.2544643 C10.7589289,27.2991075 12.1428568,27.3214286 13.9285714,27.3214286 L16.0714286,27.3214286 C17.9017854,27.3214286 19.2857143,27.2991075 20.2232143,27.2544643 C21.9196425,27.1651789 23.1249997,26.9866071 23.8392857,26.71875 C25.2232146,26.1383925 26.1830357,25.1785714 26.71875,23.8392857 Z" id=""></path>
            </g>
        </g>
    </g>
</svg>