<?xml version="1.0" encoding="UTF-8" standalone="no"?>
<svg width="500px" height="500px" viewBox="0 0 500 500" version="1.1" xmlns="http://www.w3.org/2000/svg" xmlns:xlink="http://www.w3.org/1999/xlink" xmlns:sketch="http://www.bohemiancoding.com/sketch/ns">
    <!-- Generator: Sketch 3.0.4 (8053) - http://www.bohemiancoding.com/sketch -->
    <title>icon-docs</title>
    <desc>Created with Sketch.</desc>
    <defs></defs>
    <g id="Page-2" stroke="none" stroke-width="1" fill="none" fill-rule="evenodd" sketch:type="MSPage">
        <g id="icon-docs" sketch:type="MSArtboardGroup">
            <g id="Doc-2" sketch:type="MSLayerGroup">
                <path d="M-0.0322580645,16.0967742 L-0.0322580645,483.83871 C-0.0322580645,491.903226 8.03225806,499.967742 16.0967742,499.967742 L483.83871,499.967742 C491.903226,499.967742 499.967742,491.903226 499.967742,483.83871 L499.967742,16.0967742 C499.967742,8.03225806 491.903226,-0.0322580645 483.83871,-0.0322580645 L16.0967742,-0.0322580645 C8.03225806,-0.0322580645 -0.0322580645,8.03225806 -0.0322580645,16.0967742 Z" id="bg_1_" fill="#347AEC" sketch:type="MSShapeGroup"></path>
                <path d="M354.806452,16.0967742 L354.806452,32.2258065 C354.806452,53.1935484 334.645161,58.8387097 322.548387,48.3548387 C302.387097,30.6129032 275.774194,40.2903226 274.16129,72.5483871 C275.774194,104.806452 302.387097,114.483871 322.548387,96.7419355 C334.645161,86.2580645 354.806452,91.9032258 354.806452,112.870968 L354.806452,387.064516 C354.806452,408.032258 374.967742,413.677419 387.064516,403.193548 C407.225806,385.451613 433.83871,395.129032 435.451613,427.387097 C433.83871,459.645161 407.225806,469.322581 387.064516,451.580645 C374.967742,441.096774 354.806452,446.741935 354.806452,467.709677 L354.806452,483.83871 L483.83871,483.83871 L483.83871,16.0967742 L354.806452,16.0967742 L354.806452,16.0967742 Z M459.645161,258.032258 L427.387097,258.032258 L427.387097,290.290323 L411.258065,290.290323 L411.258065,258.032258 L379,258.032258 L379,241.903226 L411.258065,241.903226 L411.258065,209.645161 L427.387097,209.645161 L427.387097,241.903226 L459.645161,241.903226 L459.645161,258.032258 L459.645161,258.032258 Z" id="side_1_" fill="#FFFFFF" sketch:type="MSShapeGroup"></path>
                <rect id="Rectangle-path" fill="#EBF2FD" sketch:type="MSShapeGroup" x="52.3870968" y="173.354839" width="250" height="24.1935484"></rect>
                <rect id="Rectangle-path" fill="#EBF2FD" sketch:type="MSShapeGroup" x="52.3870968" y="229.806452" width="250" height="24.1935484"></rect>
                <rect id="Rectangle-path" fill="#EBF2FD" sketch:type="MSShapeGroup" x="52.3870968" y="286.258065" width="250" height="24.1935484"></rect>
                <rect id="Rectangle-path" fill="#EBF2FD" sketch:type="MSShapeGroup" x="52.3870968" y="342.709677" width="145.16129" height="24.1935484"></rect>
            </g>
        </g>
    </g>
</svg>