<?xml version="1.0" encoding="UTF-8"?>
<svg width="500px" height="500px" viewBox="0 0 500 500" version="1.1" xmlns="http://www.w3.org/2000/svg" xmlns:xlink="http://www.w3.org/1999/xlink">
    <!-- Generator: Sketch 59 (86127) - https://sketch.com -->
    <title>icon-sheets</title>
    <desc>Created with Sketch.</desc>
    <g id="icon-sheets" stroke="none" stroke-width="1" fill="none" fill-rule="evenodd">
        <g fill-rule="nonzero">
            <path d="M16.1290323,0 C8.06451613,0 0,8.06451613 0,16 C0,24.1935484 0,475.66129 0,483.870968 C0,491.790323 8.06451613,500 16.1290323,500 C24.1935484,500 475.806452,500 483.870968,500 C491.935484,500 500,491.935484 500,483.870968 C500,475.806452 500,24.1935484 500,16.1290323 C500,8.06451613 491.935484,0 483.870968,0 C475.806452,0 24.1935484,0 16.1290323,0 Z" id="bg" fill="#0F9E59"></path>
            <path d="M354.83871,16.1290323 L354.83871,32.2580645 C354.83871,53.0564516 334.637097,59.0241935 322.580645,48.3870968 C302.725806,30.8709677 275.524194,40.7016129 274.193548,72.5806452 C275.516129,104.459677 302.733871,114.290323 322.580645,96.7741935 C334.645161,86.1290323 354.83871,92.0967742 354.83871,112.903226 L354.83871,387.096774 C354.83871,407.903226 375.032258,413.870968 387.096774,403.225806 C406.943548,385.709677 434.16129,395.540323 435.483871,427.419355 C434.153226,459.298387 406.951613,469.129032 387.096774,451.612903 C375.040323,440.975806 354.83871,446.943548 354.83871,467.741935 L354.83871,483.870968 L483.870968,483.870968 L483.870968,16.1290323 L354.83871,16.1290323 Z M459.677419,258.064516 L427.419355,258.064516 L427.419355,290.322581 L411.290323,290.322581 L411.290323,258.064516 L379.032258,258.064516 L379.032258,241.935484 L411.290323,241.935484 L411.290323,209.677419 L427.419355,209.677419 L427.419355,241.935484 L459.677419,241.935484 L459.677419,258.064516 Z" id="side" fill="#FFFFFF"></path>
            <path d="M48.3870968,161.290323 L48.3870968,338.709677 L306.451613,338.709677 L306.451613,161.290323 L48.3870968,161.290323 Z M129.032258,314.516129 L72.5806452,314.516129 L72.5806452,282.258065 L129.032258,282.258065 L129.032258,314.516129 Z M129.032258,266.129032 L72.5806452,266.129032 L72.5806452,233.870968 L129.032258,233.870968 L129.032258,266.129032 Z M129.032258,217.741935 L72.5806452,217.741935 L72.5806452,185.483871 L129.032258,185.483871 L129.032258,217.741935 Z M282.258065,314.516129 L153.225806,314.516129 L153.225806,282.258065 L282.258065,282.258065 L282.258065,314.516129 Z M282.258065,266.129032 L153.225806,266.129032 L153.225806,233.870968 L282.258065,233.870968 L282.258065,266.129032 Z M282.258065,217.741935 L153.225806,217.741935 L153.225806,185.483871 L282.258065,185.483871 L282.258065,217.741935 Z" id="icon_4_" fill="#E6F5EE"></path>
        </g>
    </g>
</svg>