<?xml version="1.0" encoding="UTF-8"?>
<svg width="960px" height="540px" viewBox="0 0 960 540" version="1.1" xmlns="http://www.w3.org/2000/svg" xmlns:xlink="http://www.w3.org/1999/xlink">
    <!-- Generator: Sketch 53.2 (72643) - https://sketchapp.com -->
    <title>google</title>
    <desc>Created with Sketch.</desc>
    <defs>
        <linearGradient x1="54.9102758%" y1="-0.269077427%" x2="54.9102758%" y2="100.005657%" id="linearGradient-1">
            <stop stop-color="#196EEF" offset="0%"></stop>
            <stop stop-color="#186DEE" offset="50%"></stop>
            <stop stop-color="#1065E7" offset="100%"></stop>
        </linearGradient>
        <linearGradient x1="51.1860952%" y1="-0.216790593%" x2="51.1860952%" y2="100.059363%" id="linearGradient-2">
            <stop stop-color="#DE5744" offset="0%"></stop>
            <stop stop-color="#DB4632" offset="50%"></stop>
            <stop stop-color="#D13D29" offset="100%"></stop>
        </linearGradient>
        <linearGradient x1="54.3092848%" y1="-0.129717078%" x2="54.3092848%" y2="100.048066%" id="linearGradient-3">
            <stop stop-color="#1A6FEF" offset="0%"></stop>
            <stop stop-color="#1E72EF" offset="25%"></stop>
            <stop stop-color="#166BEC" offset="50%"></stop>
            <stop stop-color="#1267E9" offset="75%"></stop>
            <stop stop-color="#1063E5" stop-opacity="0.87" offset="100%"></stop>
        </linearGradient>
        <linearGradient x1="49.3305106%" y1="-0.220706834%" x2="49.3305106%" y2="100.107931%" id="linearGradient-4">
            <stop stop-color="#0AA561" offset="0%"></stop>
            <stop stop-color="#009B58" offset="50%"></stop>
            <stop stop-color="#00914B" offset="100%"></stop>
        </linearGradient>
        <linearGradient x1="52.7085715%" y1="-0.216790593%" x2="52.7085715%" y2="99.8460816%" id="linearGradient-5">
            <stop stop-color="#DE5644" offset="0%"></stop>
            <stop stop-color="#DA4531" offset="50%"></stop>
            <stop stop-color="#CE3A28" offset="100%"></stop>
        </linearGradient>
        <linearGradient x1="51.6002965%" y1="-0.0147340868%" x2="51.6002965%" y2="99.8460816%" id="linearGradient-6">
            <stop stop-color="#FFC01A" offset="0%"></stop>
            <stop stop-color="#FFBA03" offset="50%"></stop>
            <stop stop-color="#FFB300" offset="100%"></stop>
        </linearGradient>
    </defs>
    <g id="google" stroke="none" stroke-width="1" fill="none" fill-rule="evenodd">
        <rect fill="#FFFFFF" x="0" y="0" width="960" height="540"></rect>
        <g transform="translate(100.000000, 160.000000)">
            <path d="M117.4656,126.868256 L150.105067,126.868256 L150.105067,172.634302 C139.921067,175.90186 127.061867,177.692442 113.696,177.692442 C59.5232,177.692442 27.6842667,131.380116 27.6842667,86.1502326 C27.6842667,41.7903488 56.4832,10.6726744 96.6618667,10.6726744 C122.0864,10.6726744 136.881067,19.2715116 150.1152,31.249186 L150.1152,46.180814 L174.931733,21.4060465 C159.2352,10.804186 136.506133,0.728372093 104.018667,0.728372093 C32.7002667,0.728372093 0.101333333,51.6638372 0.101333333,93.525 C0.101333333,153.109884 43.5733333,189.002442 98.2021333,189.002442 C124.690667,189.002442 148.210133,184.966047 175.3776,177.419302 L175.3776,130.135814 C175.3776,127.718023 176.4416,126.058953 178.032533,124.602209 L186.605333,116.043837 L128.389333,116.043837 L117.4656,126.868256 Z" id="path4423" fill="url(#linearGradient-1)"></path>
            <path d="M263.679467,64.6733721 C222.629333,64.6733721 197.194667,94.6175581 197.194667,126.402907 C197.194667,153.838256 217.684267,186.412674 259.200533,186.412674 C299.136,186.412674 323.6384,156.407791 323.6384,124.066047 C323.6384,93.9397674 299.693333,64.6834884 263.679467,64.6834884 L263.679467,64.6733721 Z M256.869867,73.4037209 C285.810667,73.4037209 298.700267,111.046395 298.700267,137.895 C298.700267,177.823953 268.695467,178.613023 265.108267,178.613023 C251.3776,178.613023 241.781333,170.327791 234.5968,159.462907 C228.2736,149.447791 222.092267,130.843953 222.092267,112.665 C222.092267,94.5568605 228.0304,85.7152326 237.373333,79.2104651 C245.013867,74.3344186 252.168,73.4037209 256.859733,73.4037209 L256.869867,73.4037209 Z" id="path4425" fill="url(#linearGradient-2)"></path>
            <path d="M532.020267,64.6632558 C496.168533,64.6632558 476.773333,87.3237209 476.773333,112.624535 C476.773333,131.88593 490.5952,153.615698 519.1104,153.615698 L526.325333,153.615698 C526.325333,153.615698 524.359467,158.380465 524.349333,162.983372 C524.349333,169.771395 526.791467,173.585233 531.979733,179.452674 C482.914133,182.436977 463.194667,202.19407 463.194667,223.42814 C463.194667,242.02186 481.029333,260.322209 518.512533,260.322209 C562.8864,260.322209 585.8688,235.729535 585.8688,211.592093 C585.8688,194.576512 577.377067,185.249302 555.874133,169.164419 C549.550933,164.258023 548.3248,161.132093 548.3248,157.459884 C548.3248,152.199419 551.476267,148.719419 552.631467,147.404302 C554.668267,145.259651 558.194667,142.811512 559.512,141.638023 C566.737067,135.527791 576.941333,126.483837 576.941333,108.436395 C576.941333,96.0540698 571.783467,85.4016279 560.0288,75.4269767 L574.3776,75.4269767 L585.159467,64.6632558 L532.0304,64.6632558 L532.020267,64.6632558 Z M522.130133,72.715814 C528.635733,72.715814 534.0672,75.0122093 539.802667,79.7769767 C546.1664,85.5027907 556.330133,100.889651 556.330133,119.928488 C556.330133,140.474651 540.339733,146.099302 531.685867,146.099302 C527.450133,146.099302 522.373333,144.915698 518.0768,141.981977 C508.5312,135.80093 499.056533,119.35186 499.056533,99.7768605 C499.056533,82.1138372 509.5952,72.715814 522.130133,72.715814 L522.130133,72.715814 Z M536.326933,187.252326 C539.062933,187.252326 541.0288,187.474884 541.0288,187.474884 C541.0288,187.474884 547.483733,192.077791 551.993067,195.517326 C562.4912,203.802558 569.037333,210.135349 569.037333,221.415 C569.037333,236.923256 554.627733,249.083023 531.290667,249.083023 C505.6736,249.083023 486.096,237.176163 486.096,217.732674 C486.096,201.627558 499.512533,187.768256 536.326933,187.252326 L536.326933,187.252326 Z" id="path4429" fill="url(#linearGradient-3)"></path>
            <path d="M592.9216,182.86186 L642.1392,182.86186 L649.637867,175.375814 L635.522133,173.615581 C631.722133,173.150233 629.4624,169.872558 629.4624,166.696047 L629.4624,18.2801163 C629.4624,15.3565116 630.820267,13.8593023 631.813333,12.9083721 L640.690133,4.04651163 L598.717867,4.04651163 L587.794133,14.9518605 L604.1088,14.9518605 L604.1088,168.688953 C604.1088,170.87407 603.419733,172.361163 601.940267,173.888721 L592.9216,182.86186 Z" id="path4433" fill="url(#linearGradient-4)"></path>
            <path d="M708.826667,64.6733721 C681.345067,64.6733721 652.150933,85.5837209 652.150933,123.125233 C652.150933,154.131628 673.096533,186.412674 712.231467,186.412674 C721.989867,186.412674 730.0256,185.158256 737.554667,181.708605 C745.630933,177.99593 753.4032,171.966628 759.077867,164.389535 C748.366933,169.781512 739.632,173.322209 728.029333,173.322209 C705.9792,173.322209 684.719467,157.439651 677.2816,128.24407 L755.176533,96.8127907 C750.677333,80.7987209 737.9904,64.6733721 708.8368,64.6733721 L708.826667,64.6733721 Z M703.739733,73.262093 C718.483733,73.262093 729.144,85.3712791 729.144,94.8502326 C729.144,97.9154651 727.218667,99.5340698 723.408533,101.031279 L675.528533,120.363488 C675.528533,120.363488 674.231467,114.344302 674.231467,107.839535 C674.231467,80.5559302 693.991467,73.262093 703.739733,73.262093 L703.739733,73.262093 Z" id="path4435" fill="url(#linearGradient-5)"></path>
            <path d="M402.972267,64.6733721 C361.922133,64.6733721 336.487467,94.6175581 336.487467,126.402907 C336.487467,153.838256 356.977067,186.412674 398.493333,186.412674 C438.4288,186.412674 462.9312,156.407791 462.9312,124.066047 C462.9312,93.9397674 438.986133,64.6834884 402.972267,64.6834884 L402.972267,64.6733721 Z M396.162667,73.4037209 C425.103467,73.4037209 437.993067,111.046395 437.993067,137.895 C437.993067,177.823953 407.988267,178.613023 404.401067,178.613023 C390.6704,178.613023 381.074133,170.327791 373.8896,159.462907 C367.5664,149.447791 361.385067,130.843953 361.385067,112.665 C361.385067,94.5568605 367.3232,85.7152326 376.666133,79.2104651 C384.306667,74.3344186 391.4608,73.4037209 396.152533,73.4037209 L396.162667,73.4037209 Z" id="path4439" fill="url(#linearGradient-6)"></path>
        </g>
    </g>
</svg>