<?xml version="1.0" encoding="UTF-8"?>
<svg width="960px" height="540px" viewBox="0 0 960 540" version="1.1" xmlns="http://www.w3.org/2000/svg" xmlns:xlink="http://www.w3.org/1999/xlink">
    <!-- Generator: Sketch 53.2 (72643) - https://sketchapp.com -->
    <title>top100</title>
    <desc>Created with Sketch.</desc>
    <g id="top100" stroke="none" stroke-width="1" fill="none" fill-rule="evenodd">
        <rect fill="#313746" x="0" y="0" width="960" height="540"></rect>
        <g id="Group-2" transform="translate(310.000000, 100.000000)">
            <rect id="mask" fill-rule="nonzero" x="0" y="0" width="340" height="340"></rect>
            <g id="top100" transform="translate(4.000000, 48.000000)">
                <polygon id="T-1" fill="#FFFFFF" points="27.7594938 92.967033 27.7594938 24.532967 0.645569784 24.532967 0.645569784 2.58241758 79.9215192 2.58241758 79.9215192 24.532967 52.8075951 24.532967 52.8075951 92.967033"></polygon>
                <polygon id="Path" fill="#E94B35" points="34.0860761 232.417582 34.0860761 164.758242 18.8506331 168.244505 14.0734179 148.876374 40.5417723 141.387363 58.7468356 141.387363 58.7468356 232.417582"></polygon>
                <path d="M159.735443,94.7747253 C145.877146,94.7747253 134.321565,90.2555397 125.068355,81.217033 C115.815144,72.1785262 111.188608,61.1172815 111.188608,48.032967 L111.188608,47.7747253 C111.188608,34.6904108 115.858181,23.5861262 125.197469,14.4615385 C134.536756,5.33695071 146.135374,0.774725275 159.993671,0.774725275 C173.851968,0.774725275 185.407549,5.29391085 194.66076,14.3324176 C203.91397,23.3709243 208.540506,34.432169 208.540506,47.5164835 L208.540506,47.7747253 C208.540506,60.8590398 203.870933,71.9633243 194.531646,81.0879121 C185.192359,90.2124998 173.59374,94.7747253 159.735443,94.7747253 L159.735443,94.7747253 Z M159.993671,72.1785714 C166.707629,72.1785714 172.216434,69.8328989 176.520253,65.1414835 C180.824072,60.4500681 182.97595,54.7472863 182.97595,48.032967 L182.97595,47.7747253 C182.97595,41.060406 180.781035,35.3145843 176.391139,30.5370879 C172.001244,25.7595915 166.449401,23.3708791 159.735443,23.3708791 C153.021486,23.3708791 147.534199,25.7165516 143.273418,30.407967 C139.012637,35.0993824 136.882279,40.8021642 136.882279,47.5164835 L136.882279,47.7747253 C136.882279,54.4890446 139.055675,60.2348662 143.402532,65.0123626 C147.749389,69.7898591 153.279713,72.1785714 159.993671,72.1785714 L159.993671,72.1785714 Z" id="O-O" fill="#FFFFFF"></path>
                <path d="M159.735443,234.225275 C145.877146,234.225275 134.321565,229.706089 125.068355,220.667582 C115.815144,211.629076 111.188608,200.567831 111.188608,187.483516 L111.188608,187.225275 C111.188608,174.14096 115.858181,163.036676 125.197469,153.912088 C134.536756,144.7875 146.135374,140.225275 159.993671,140.225275 C173.851968,140.225275 185.407549,144.74446 194.66076,153.782967 C203.91397,162.821474 208.540506,173.882718 208.540506,186.967033 L208.540506,187.225275 C208.540506,200.309589 203.870933,211.413874 194.531646,220.538462 C185.192359,229.663049 173.59374,234.225275 159.735443,234.225275 Z M159.993671,211.629121 C166.707629,211.629121 172.216434,209.283448 176.520253,204.592033 C180.824072,199.900618 182.97595,194.197836 182.97595,187.483516 L182.97595,187.225275 C182.97595,180.510955 180.781035,174.765134 176.391139,169.987637 C172.001244,165.210141 166.449401,162.821429 159.735443,162.821429 C153.021486,162.821429 147.534199,165.167101 143.273418,169.858516 C139.012637,174.549932 136.882279,180.252714 136.882279,186.967033 L136.882279,187.225275 C136.882279,193.939594 139.055675,199.685416 143.402532,204.462912 C147.749389,209.240409 153.279713,211.629121 159.993671,211.629121 Z" id="Combined-Shape" fill="#E94B35"></path>
                <path d="M255.322785,92.967033 L255.322785,2.58241758 L294.056962,2.58241758 C305.591197,2.58241758 314.736675,5.40152859 321.493671,11.0398352 C328.250667,16.6781417 331.629114,24.446837 331.629114,34.3461538 L331.629114,34.6043956 C331.629114,44.9341176 328.056998,52.939532 320.912658,58.6208791 C313.768319,64.3022262 304.386134,67.1428571 292.765823,67.1428571 L280.370886,67.1428571 L280.370886,92.967033 L255.322785,92.967033 Z M280.370886,47.5164835 L292.249367,47.5164835 C296.639263,47.5164835 300.125304,46.4620069 302.707595,44.353022 C305.289886,42.2440371 306.581013,39.3818862 306.581013,35.7664835 L306.581013,35.5082418 C306.581013,31.634596 305.311405,28.6863654 302.772152,26.6634615 C300.232899,24.6405577 296.682301,23.6291209 292.120253,23.6291209 L280.370886,23.6291209 L280.370886,47.5164835 Z" id="P-O" fill="#FFFFFF"></path>
                <path d="M290.570886,234.225275 C276.712589,234.225275 265.157008,229.706089 255.903798,220.667582 C246.650587,211.629076 242.024051,200.567831 242.024051,187.483516 L242.024051,187.225275 C242.024051,174.14096 246.693624,163.036676 256.032912,153.912088 C265.372199,144.7875 276.970817,140.225275 290.829114,140.225275 C304.687411,140.225275 316.242992,144.74446 325.496203,153.782967 C334.749414,162.821474 339.37595,173.882718 339.37595,186.967033 L339.37595,187.225275 C339.37595,200.309589 334.706376,211.413874 325.367089,220.538462 C316.027802,229.663049 304.429183,234.225275 290.570886,234.225275 Z M290.829114,211.629121 C297.543072,211.629121 303.051877,209.283448 307.355696,204.592033 C311.659515,199.900618 313.811393,194.197836 313.811393,187.483516 L313.811393,187.225275 C313.811393,180.510955 311.616478,174.765134 307.226582,169.987637 C302.836687,165.210141 297.284844,162.821429 290.570886,162.821429 C283.856929,162.821429 278.369642,165.167101 274.108861,169.858516 C269.84808,174.549932 267.717722,180.252714 267.717722,186.967033 L267.717722,187.225275 C267.717722,193.939594 269.891118,199.685416 274.237975,204.462912 C278.584832,209.240409 284.115156,211.629121 290.829114,211.629121 Z" id="Combined-Shape" fill="#E94B35"></path>
            </g>
        </g>
    </g>
</svg>