<?xml version="1.0" encoding="UTF-8"?>
<svg width="960px" height="540px" viewBox="0 0 960 540" version="1.1" xmlns="http://www.w3.org/2000/svg" xmlns:xlink="http://www.w3.org/1999/xlink">
    <!-- Generator: Sketch 53.2 (72643) - https://sketchapp.com -->
    <title>citi</title>
    <desc>Created with Sketch.</desc>
    <defs>
        <linearGradient x1="50%" y1="100%" x2="50%" y2="0%" id="linearGradient-1">
            <stop stop-color="#004785" offset="0%"></stop>
            <stop stop-color="#0066B3" offset="18.910526%"></stop>
            <stop stop-color="#00B3F0" offset="88.1238672%"></stop>
            <stop stop-color="#00BDF2" offset="100%"></stop>
        </linearGradient>
    </defs>
    <g id="citi" stroke="none" stroke-width="1" fill="none" fill-rule="evenodd">
        <polygon id="Background" fill="url(#linearGradient-1)" points="-6.31088724e-30 0 960 0 960 540 -6.31088724e-30 540"></polygon>
        <g id="Logo-2" transform="translate(180.000000, 100.000000)">
            <path d="M163.584545,273.9584 L162.654545,274.91584 C147.447273,290.43616 129.799091,298.6424 111.616364,298.6424 C73.6554545,298.6424 46.1018182,270.232 46.1018182,231.08304 C46.1018182,191.9368 73.6554545,163.52096 111.616364,163.52096 C129.799091,163.52096 147.447273,171.7272 162.654545,187.26384 L163.584545,188.21312 L188.034545,158.76368 L187.396364,157.9912 C167.108182,134.0552 142.707273,122.41088 112.808182,122.41088 C82.7509091,122.41088 55.2736364,132.4504 35.4245455,150.67712 C13.9581818,170.39984 2.61272727,198.19824 2.61272727,231.08304 C2.61272727,263.97056 13.9581818,291.76896 35.4245455,311.49712 C55.2736364,329.72112 82.7509091,339.76064 112.808182,339.76064 C142.707273,339.76064 167.108182,328.12176 187.396364,304.1776 L188.034545,303.40784 L163.584545,273.9584" id="Fill-1" fill="#FFFFFE"></path>
            <polygon id="Fill-3" fill="#FFFFFE" points="212.705455 125.80272 255.801818 125.80272 255.801818 335.74048 212.705455 335.74048"></polygon>
            <path d="M424.767273,290.088 C413.271818,297.07024 402.550909,300.60352 392.890909,300.60352 C378.93,300.60352 372.703636,293.2976 372.703636,276.92048 L372.703636,165.54736 L416.558182,165.54736 L416.558182,126.0176 L372.703636,126.0176 L372.703636,60.65328 L330.400909,83.24832 L330.400909,126.0176 L293.931818,126.0176 L293.931818,165.54736 L330.400909,165.54736 L330.400909,284.02784 C330.400909,316.3224 349.611818,338.38704 378.218182,338.93648 C397.663636,339.30368 409.358182,333.59984 416.457273,329.28048 L416.877273,329.0248 L427.284545,288.55392 L424.767273,290.088" id="Fill-4" fill="#FFFFFE"></path>
            <polygon id="Fill-5" fill="#FFFFFE" points="460.461818 125.80272 503.588182 125.80272 503.588182 335.74048 460.461818 335.74048"></polygon>
            <path d="M530.710909,91.84352 C494.749091,38.07184 428.337273,0.11152 357.411818,0.13872 C287.588182,0.16592 221.19,36.97296 184.047273,91.84352 L233.607273,91.84352 C267.430909,57.09008 311.274545,38.18336 357.411818,38.15888 C402.709091,38.13712 447.272727,57.09008 481.150909,91.84352 L530.710909,91.84352" id="Fill-6" fill="#D82332"></path>
            <path d="M593.929091,79.98976 C593.929091,90.75008 585.711818,98.94544 574.925455,98.94544 C564.133636,98.94544 555.913636,90.75008 555.913636,79.98976 C555.913636,69.22944 564.133636,61.0368 574.925455,61.0368 C585.711818,61.0368 593.929091,69.22944 593.929091,79.98976 L593.929091,79.98976 Z M597.567273,79.98976 C597.567273,67.16496 587.784545,57.40832 574.925455,57.40832 C562.066364,57.40832 552.275455,67.16496 552.275455,79.98976 C552.275455,92.81728 562.066364,102.57392 574.925455,102.57392 C587.784545,102.57392 597.567273,92.81728 597.567273,79.98976 L597.567273,79.98976 Z M585.275455,74.67488 C585.275455,69.54224 581.571818,67.22752 577.183636,67.22752 L566.326364,67.22752 L566.326364,91.87616 L570.529091,91.87616 L570.529091,82.36704 L575.296364,82.36704 L580.129091,91.87616 L585.081818,91.87616 L580.006364,81.93184 C583.202727,80.99072 585.275455,78.55088 585.275455,74.67488 L585.275455,74.67488 Z M581.007273,74.8 C581.007273,77.23984 579.313636,78.30336 577.055455,78.30336 L570.529091,78.30336 L570.529091,71.29392 L577.055455,71.29392 C579.313636,71.29392 581.007273,72.48256 581.007273,74.8 L581.007273,74.8 Z" id="Fill-7" fill="#FFFFFE"></path>
        </g>
    </g>
</svg>