<?xml version="1.0" encoding="UTF-8"?>
<svg width="960px" height="540px" viewBox="0 0 960 540" version="1.1" xmlns="http://www.w3.org/2000/svg" xmlns:xlink="http://www.w3.org/1999/xlink">
    <!-- Generator: Sketch 53.2 (72643) - https://sketchapp.com -->
    <title>wework</title>
    <desc>Created with Sketch.</desc>
    <g id="wework" stroke="none" stroke-width="1" fill="none" fill-rule="evenodd">
        <rect fill="#FFFFFF" x="0" y="0" width="960" height="540"></rect>
        <rect id="Rectangle" fill="#F4F4F4" fill-rule="nonzero" x="0" y="0" width="960" height="540"></rect>
        <g id="WeWork" transform="translate(100.000000, 189.000000)" fill="#252429">
            <path d="M756.385475,152.650794 L752.578428,151.874603 C745.979547,150.839683 741.157288,149.546032 737.604044,146.7 C731.258967,141.525397 708.924293,111.253968 704.60964,104.009524 C703.340624,102.198413 702.833018,100.904762 702.833018,100.128571 C702.833018,99.352381 703.086821,98.5761905 704.355837,97.2825397 C707.90908,94.1777778 711.716127,90.8142857 721.360645,84.3460317 C728.213329,79.6888889 733.543195,77.6190476 738.365454,76.584127 L746.487153,75.031746 C748.263775,73.2206349 748.009972,68.3047619 745.471941,67.2698413 C730.497557,69.3396825 709.685702,70.3746032 697.756956,70.3746032 L691.665681,70.3746032 C689.12765,71.4095238 688.873847,76.0666667 691.158075,78.1365079 L697.503153,79.1714286 C699.787381,79.4301587 702.325412,80.2063492 702.325412,81.2412698 C702.325412,82.5349206 701.056396,85.1222222 696.234137,90.0380952 L685.574406,100.904762 C680.498344,106.079365 675.168479,107.114286 670.853826,107.114286 C668.061992,107.114286 667.300582,106.338095 667.300582,104.009524 L667.300582,34.152381 C667.300582,20.1809524 667.554386,10.6079365 668.061992,1.55238095 C667.046779,0.517460317 665.270158,0 663.747339,0 C650.80338,4.91587302 635.32139,10.3492063 625.169266,12.4190476 C623.392644,13.7126984 623.392644,17.852381 625.169266,19.1460317 L629.483919,21.4746032 C634.559981,24.0619048 634.559981,26.6492063 634.559981,35.4460317 L634.559981,133.504762 C634.559981,149.028571 633.544769,150.839683 624.407857,151.874603 L619.585598,152.392063 C617.555173,153.685714 617.555173,158.860317 619.839401,160.153968 C628.72251,159.636508 639.128437,159.377778 650.80338,159.377778 C662.478323,159.377778 673.138054,159.636508 681.259754,160.153968 C683.543982,158.860317 683.543982,153.685714 681.513557,152.392063 L677.452707,151.874603 C668.569598,150.839683 667.554386,149.287302 667.554386,133.504762 L667.554386,120.568254 C667.554386,116.428571 668.823401,115.134921 670.600023,115.134921 C673.138054,115.134921 675.168479,115.911111 676.945101,118.498413 L694.965122,142.560317 C696.995547,145.147619 699.279775,148.769841 699.279775,149.804762 C699.279775,150.580952 697.756956,151.098413 695.218925,151.615873 L691.919484,152.392063 C689.889059,154.461905 690.396666,159.119048 692.934697,160.153968 C700.041184,159.636508 709.178096,159.377778 724.152479,159.377778 C738.87306,159.377778 748.009972,159.636508 755.877868,160.153968 C757.908293,159.636508 758.415899,154.203175 756.385475,152.650794 L756.385475,152.650794 Z" id="Path"></path>
            <path d="M595.313918,86.6746032 C596.864938,86.6746032 599.191469,86.9333333 605.137047,91.0730159 C608.497591,93.6603175 611.599632,95.2126984 615.21868,95.2126984 C623.490789,95.2126984 631.762898,91.0730159 631.762898,80.7238095 C631.762898,72.1857143 624.524802,67.5285714 617.54521,67.5285714 C606.688068,67.5285714 599.449972,74.7730159 592.470381,78.6539683 C590.402353,78.1365079 589.885346,77.6190476 589.885346,76.0666667 C589.885346,73.9968254 590.402353,70.8920635 590.91936,66.4936508 C589.885346,65.2 588.334326,64.4238095 586.266299,64.4238095 C578.252693,68.8222222 560.415959,75.031746 548.524802,77.8777778 C546.715278,79.1714286 546.715278,83.3111111 548.524802,84.6047619 L552.14385,86.6746032 C557.055415,89.2619048 557.055415,92.1079365 557.055415,100.904762 L557.055415,134.539683 C557.055415,150.063492 556.021401,152.133333 547.490789,152.909524 L542.579224,153.426984 C540.511197,154.720635 540.511197,159.895238 542.837727,161.188889 C551.36834,160.671429 562.742489,160.412698 573.341129,160.412698 C585.490789,160.412698 595.830925,160.671429 608.239088,161.188889 C610.565619,159.895238 610.565619,154.720635 608.497591,153.426984 L600.225483,152.909524 C591.69487,152.133333 590.660857,150.322222 590.660857,134.798413 L590.660857,100.387302 C590.402353,91.5904762 591.69487,86.6746032 595.313918,86.6746032 L595.313918,86.6746032 Z" id="Path"></path>
            <path d="M493.722081,67.5285714 C524.225483,67.5285714 551.626843,83.5698413 551.36834,114.87619 C551.36834,147.47619 523.708476,162.74127 492.171061,162.74127 C461.667659,162.74127 434.783306,147.734921 434.524802,116.946032 C434.266299,85.1222222 463.21868,67.5285714 493.722081,67.5285714 Z M495.014598,152.650794 C509.749292,152.650794 514.660857,138.161905 514.402353,117.980952 C513.885346,96.247619 506.905755,77.6190476 492.171061,77.6190476 C480.796911,77.6190476 471.490789,87.7095238 471.490789,112.030159 C471.490789,135.574603 480.021401,152.650794 495.014598,152.650794 Z" id="Path"></path>
            <path d="M447.191469,78.3952381 C438.660857,79.947619 436.851333,82.2761905 432.973782,90.2968254 C421.082625,113.065079 409.191469,137.644444 398.334326,161.188889 C396.783306,162.48254 394.973782,162.74127 392.388748,162.74127 C389.803714,162.74127 387.99419,162.48254 386.44317,161.188889 C381.273102,149.287302 367.830925,123.155556 360.075823,108.925397 C353.354734,120.309524 337.84453,150.063492 331.898952,161.188889 C330.347932,162.48254 328.538408,162.74127 325.953374,162.74127 C323.36834,162.74127 321.558816,162.48254 320.007795,161.188889 C307.858136,136.092063 295.191469,110.477778 282.524802,87.1920635 C278.905755,80.7238095 276.320721,79.6888889 271.926163,78.6539683 L267.273102,77.6190476 C265.463578,75.8079365 265.463578,70.8920635 268.048612,69.8571429 C278.388748,70.3746032 286.660857,70.6333333 297.518,70.6333333 L349.477183,70.6333333 C365.504394,70.6333333 378.429564,70.3746032 394.973782,69.8571429 C397.817319,70.115873 397.558816,76.584127 395.749292,77.6190476 L391.871741,78.1365079 C385.926163,79.1714286 382.307115,80.4650794 382.307115,81.5 C382.307115,83.3111111 382.824122,84.6047619 384.375142,88.4857143 C389.028204,99.352381 396.266299,113.84127 401.953374,124.449206 C408.157455,111.512698 412.29351,100.646032 416.429564,90.2968254 C417.980585,86.415873 418.756095,83.3111111 418.756095,81.7587302 C418.756095,80.7238095 416.688068,79.6888889 412.29351,78.6539683 L407.898952,77.8777778 C406.347932,76.3253968 406.347932,71.1507937 408.932966,70.115873 C417.463578,70.6333333 423.667659,70.8920635 430.130244,70.8920635 C437.626843,70.8920635 444.347932,70.6333333 450.035006,70.115873 C452.361537,70.8920635 452.878544,75.8079365 450.810517,77.8777778 L447.191469,78.3952381 Z M351.54521,98.0587302 C352.320721,95.2126984 352.320721,93.1428571 352.320721,91.331746 C352.320721,87.7095238 347.926163,80.7238095 342.756095,79.6888889 C339.137047,79.1714286 335.000993,78.9126984 330.347932,78.9126984 C322.075823,78.9126984 317.164258,79.6888889 317.164258,82.2761905 C317.164258,83.5698413 317.939768,86.1571429 319.490789,89.5206349 C323.109836,97.2825397 333.449972,117.204762 337.84453,124.449206 C341.463578,118.498413 350.252693,102.457143 351.54521,98.0587302 Z" id="Path"></path>
            <path d="M259.259496,132.211111 C262.103034,131.952381 265.980585,133.763492 265.980585,137.644444 C255.640449,156.531746 236.511197,163 221.000993,163 C186.361537,163 167.490789,141.784127 167.490789,117.463492 C167.490789,89.2619048 191.014598,67.5285714 223.06902,67.5285714 C249.69487,67.5285714 264.171061,82.5349206 264.171061,99.6111111 C264.171061,103.750794 262.878544,106.855556 254.864938,106.855556 L205.490789,106.855556 C199.54521,106.855556 199.028204,107.373016 199.028204,110.995238 C199.028204,127.553968 211.177864,143.853968 235.21868,143.853968 C242.456775,143.853968 252.279904,142.560317 259.259496,132.211111 Z M221.259496,77.8777778 C210.402353,77.8777778 201.096231,86.6746032 201.096231,93.9190476 C201.096231,97.0238095 204.715278,97.2825397 212.987387,97.2825397 L222.552013,97.2825397 C226.171061,97.2825397 230.307115,96.7650794 233.150653,95.2126984 C234.44317,94.4365079 234.960176,92.3666667 234.960176,90.0380952 C234.960176,82.7936508 230.048612,77.8777778 221.259496,77.8777778 Z" id="Path"></path>
            <path d="M181.191469,78.3952381 C172.660857,79.947619 171.109836,82.2761905 166.973782,90.2968254 C155.082625,113.065079 143.191469,137.644444 132.334326,161.188889 C130.783306,162.48254 128.973782,162.74127 126.388748,162.74127 C123.803714,162.74127 121.99419,162.48254 120.44317,161.188889 C115.014598,149.287302 101.572421,123.155556 93.8173193,108.925397 C87.3547342,120.309524 71.8445302,150.063492 65.8989519,161.188889 C64.3479315,162.48254 62.5384077,162.74127 59.9533737,162.74127 C57.3683397,162.74127 55.5588159,162.48254 54.0077955,161.188889 C41.8581356,136.092063 29.1914689,110.477778 16.5248023,87.1920635 C12.9057547,80.7238095 10.3207206,79.6888889 5.92616282,78.6539683 L1.2731016,77.6190476 C-0.536422213,75.8079365 -0.536422213,70.8920635 2.0486118,69.8571429 C12.3887479,70.3746032 20.6608567,70.6333333 31.5179996,70.6333333 L83.4771832,70.6333333 C99.5043941,70.6333333 112.429564,70.3746032 128.973782,69.8571429 C131.817319,70.115873 131.558816,76.584127 129.749292,77.6190476 L125.871741,78.1365079 C119.926163,79.1714286 116.307115,80.4650794 116.307115,81.5 C116.307115,83.3111111 116.824122,84.6047619 118.375142,88.4857143 C123.028204,99.352381 130.266299,113.84127 135.953374,124.449206 C142.415959,111.512698 146.29351,100.646032 150.429564,90.2968254 C151.980585,86.415873 152.756095,83.3111111 152.756095,81.7587302 C152.756095,80.7238095 150.688068,79.6888889 146.29351,78.6539683 L141.898952,77.8777778 C140.347932,76.3253968 140.347932,71.1507937 142.932966,70.115873 C151.463578,70.6333333 157.667659,70.8920635 164.130244,70.8920635 C171.626843,70.8920635 178.347932,70.6333333 184.035006,70.115873 C186.361537,70.8920635 186.878544,75.8079365 184.810517,77.8777778 L181.191469,78.3952381 Z M85.5452104,98.0587302 C86.3207206,95.2126984 86.3207206,93.1428571 86.3207206,91.331746 C86.3207206,87.7095238 81.9261628,80.7238095 76.7560948,79.6888889 C73.1370472,79.1714286 69.0009928,78.9126984 64.3479315,78.9126984 C56.0758227,78.9126984 51.1642581,79.6888889 51.1642581,82.2761905 C51.1642581,83.5698413 51.9397683,86.1571429 53.4907887,89.5206349 C57.1098363,97.2825397 67.4499723,117.204762 71.8445302,124.449206 C75.4635778,118.498413 84.2526934,102.457143 85.5452104,98.0587302 Z" id="Path"></path>
        </g>
    </g>
</svg>