<?xml version="1.0" standalone="no"?>
<!DOCTYPE svg PUBLIC "-//W3C//DTD SVG 1.1//EN" "http://www.w3.org/Graphics/SVG/1.1/DTD/svg11.dtd" >
<svg xmlns="http://www.w3.org/2000/svg" xmlns:xlink="http://www.w3.org/1999/xlink" version="1.1">
<metadata>
Created by FontForge 20170731 at Tue Aug 25 14:23:37 2015
 By Aleksey,,,
Copyright (c) 2013 Schick Toikka. All rights reserved. Noe Display is a trademark of Schick Toikka. Unauthorised copying or modification of any of its data is illegal.
</metadata>
<defs>
<font id="NoeDisplay-RegularItalic" horiz-adv-x="280" >
  <font-face 
    font-family="Noe Display Regular"
    font-weight="400"
    font-style="italic"
    font-stretch="normal"
    units-per-em="1000"
    panose-1="2 10 5 0 9 4 0 0 0 2"
    ascent="750"
    descent="-250"
    x-height="495"
    cap-height="703"
    bbox="-298 -250 1199 967"
    underline-thickness="17"
    underline-position="-132"
    slope="-12"
    unicode-range="U+0020-FB02"
  />
<missing-glyph horiz-adv-x="600" 
d="M543 -250h-486v1000h486v-1000zM292 250l-217 469v-936zM301 231l-216 -464h431zM310 251l215 -463v926zM86 733l215 -463l215 463h-430z" />
    <glyph glyph-name="fi" unicode="fi" horiz-adv-x="538" 
d="M496 495l-92 -333q-18 -63 -18 -85q0 -29 24 -29q26 0 50 35q33 50 48 136h2q-5 -82 -49 -154.5t-104 -72.5q-27 0 -44 16.5t-17 49.5q0 32 14 83l83 300q5 20 -14 20h-170l-60 -296q-23 -116 -57.5 -202t-88 -142.5t-119.5 -56.5q-45 0 -69 20l56 156h2l33 -130
q6 -22 18 -22q13 0 25 12q9 9 17 21.5t15 29.5t13 31.5t12.5 38.5t11 40t11 45.5t10 45.5t10.5 51l10 50l64 308h-86v18h90q30 112 88 173t164 61q64 0 116 -20l-56 -144h-2l-44 131q-4 13 -7.5 15.5t-16.5 2.5q-37 0 -65.5 -20t-46 -57t-27 -68t-17.5 -74h172q13 0 28 3z
" />
    <glyph glyph-name="fl" unicode="fl" horiz-adv-x="519" 
d="M440 51q-44 -59 -95 -59q-29 0 -45 17.5t-16 46.5q0 27 14 85l119 513q2 11 -6 18q-28 26 -68 26q-21 0 -38 -8.5t-29.5 -27.5t-21.5 -36t-17.5 -47.5t-12.5 -48.5t-11 -51h127v-18h-131l-60 -296q-23 -116 -57.5 -202t-88 -142.5t-119.5 -56.5q-45 0 -69 20l56 156h2
l33 -130q6 -22 18 -22q13 0 25 12q9 9 17 21.5t15 29.5t13 31.5t12.5 38.5t11 40t11 45.5t10 45.5t10.5 51l10 50l58 280l6 28h-86v18h90q29 113 79.5 173.5t132.5 60.5q39 0 87 -31l97 38l-132 -561q-15 -62 -15 -81q0 -30 23 -30q26 0 49 35q34 51 48 136h2
q-9 -103 -58 -168z" />
    <glyph glyph-name="f_b" unicode="fb" horiz-adv-x="718" 
d="M271 -8l146 662q2 11 -6 18q-28 26 -68 26q-21 0 -38 -8.5t-29.5 -27.5t-21.5 -36t-17.5 -47.5t-12.5 -48.5t-11 -51h127v-18h-131l-60 -296q-23 -116 -57.5 -202t-88 -142.5t-119.5 -56.5q-45 0 -69 20l56 156h2l33 -130q6 -22 18 -22q13 0 25 12q9 9 17 21.5t15 29.5
t13 31.5t12.5 38.5t11 40t11 45.5t10 45.5t10.5 51l10 50l58 280l6 28h-86v18h90q29 113 79.5 173.5t132.5 60.5q39 0 87 -31l97 38l-99 -425h2q63 200 165 200q44 0 72 -37t28 -117q0 -136 -82.5 -242.5t-168.5 -106.5q-27 0 -48 13.5t-28 38.5zM469 368q-53 -94 -101 -318
q12 -28 53 -28q83 0 136 132q40 100 40 189q0 98 -47 98q-41 0 -81 -73z" />
    <glyph glyph-name="f_h" unicode="fh" horiz-adv-x="755" 
d="M527 720l-103 -440h2q36 102 91 158.5t116 56.5q37 0 58.5 -21t21.5 -56q0 -31 -27 -117l-48 -152q-16 -50 -16 -71q0 -30 25 -30q27 0 51 36q31 47 47 135h2q-9 -105 -56 -166t-103 -61q-27 0 -44 16t-17 49q0 31 24 105l51 159q19 59 19 86q0 16 -9.5 25.5t-24.5 9.5
q-66 0 -119 -94q-56 -98 -112 -348h-88l153 654q2 11 -6 18q-28 26 -70 26q-21 0 -38 -8.5t-30 -27t-22.5 -36.5t-18 -47.5t-13 -48.5t-11.5 -51h128v-18h-131l-60 -296q-23 -116 -57.5 -202t-88 -142.5t-119.5 -56.5q-45 0 -69 20l56 156h2l33 -130q6 -22 18 -22
q13 0 25 12q9 9 17 21.5t15 29.5t13 31.5t12.5 38.5t11 40t11 45.5t10 45.5t10.5 51l10 50l58 280l6 28h-86v18h90q60 234 214 234q41 0 89 -31z" />
    <glyph glyph-name="f_j" unicode="fj" horiz-adv-x="512" 
d="M149 165q-23 -116 -57.5 -202t-88 -142.5t-119.5 -56.5q-45 0 -69 20l56 156h2l33 -130q6 -22 18 -22q13 0 25 12q9 9 17 21.5t15 29.5t13 31.5t12.5 38.5t11 40t11 45.5t10 45.5t10.5 51l10 50l52 252l12 56h-86v18h90q30 112 88 173t164 61q64 0 116 -20l-56 -144h-2
l-44 131q-4 13 -7.5 15.5t-16.5 2.5q-37 0 -65.5 -20t-46 -57t-27 -68t-17.5 -74h172q13 0 28 3l84 13l-88 -386q-12 -51 -27.5 -97.5t-39.5 -92.5t-52 -79.5t-66 -54.5t-81 -21q-41 0 -64 20l57 156h2l34 -135q4 -17 17 -17q8 0 16 5q65 47 126 343l62 305q3 20 -14 20
h-170z" />
    <glyph glyph-name="f_k" unicode="fk" horiz-adv-x="723" 
d="M546 -8q-36 0 -48 20t-19 71l-22 158q-5 38 -41 20l-60 -261h-87l150 653q2 11 -6 18q-29 27 -70 27q-21 0 -38 -8.5t-29.5 -27.5t-21.5 -36t-17.5 -47.5t-12.5 -48.5t-11 -51h127v-18h-131l-60 -296q-23 -116 -57.5 -202t-88 -142.5t-119.5 -56.5q-45 0 -69 20l56 156h2
l33 -130q6 -22 18 -22q13 0 25 12q9 9 17 21.5t15 29.5t13 31.5t12.5 38.5t11 40t11 45.5t10 45.5t10.5 51l10 50l58 280l6 28h-86v18h90q29 113 79.5 173.5t132.5 60.5q39 0 87 -31l97 38l-105 -452l177 133q18 14 18 20q0 5 -15 17l-51 39v2h217v-2l-95 -49
q-43 -23 -56 -33l-83 -62l32 -219q6 -36 15.5 -51t26.5 -15q31 0 56.5 47t40.5 124h2q-9 -107 -57.5 -167t-99.5 -60z" />
    <glyph glyph-name="g_f" unicode="gf" horiz-adv-x="717" 
d="M147 -236q-47 0 -91 13.5t-76 45t-32 73.5q0 48 43 80t103 44q-33 10 -52 29t-19 43q0 34 31 59t88 34q-36 17 -57.5 50t-21.5 77q0 82 60.5 132t140.5 50q57 0 103 -36q13 -10 22 0l118 138h2l-34 -160h-89q27 -37 27 -84q0 -82 -60 -132t-140 -50q-32 0 -60 11
q-25 -5 -42 -18.5t-17 -28.5q0 -26 58 -40l111 -25q59 -13 89 -48t30 -82q0 -43 -26 -79.5t-70 -61.5q26 -19 62 -19q33 0 55 24q11 12 21 28t19 40t15.5 44t14 54.5t12.5 55.5t13.5 64t12.5 64l59 282l6 28h-76v18h80q29 112 79.5 172t132.5 60q64 0 113 -20l-55 -144h-2
l-40 131q-4 13 -7.5 15.5t-16.5 2.5q-25 0 -45 -19t-34 -56.5t-22 -66.5t-17 -75h127v-18h-131l-61 -298q-81 -401 -253 -401q-47 0 -78 26q-58 -26 -123 -26zM207 -6q-101 22 -106 24q-82 -39 -82 -116q0 -56 42 -89.5t99 -33.5q64 0 107 33.5t43 86.5q0 72 -103 95z
M266 481q-53 0 -84.5 -64.5t-31.5 -137.5q0 -96 58 -96q54 0 85.5 64.5t31.5 137.5q0 44 -15 70t-44 26z" />
    <glyph glyph-name="q_f" unicode="qf" horiz-adv-x="722" 
d="M128 -8q-49 0 -75.5 37.5t-26.5 106.5q0 144 79 251.5t169 107.5q70 0 84 -58l94 58h2l-158 -653q-6 -26 -1 -32q1 -2 3 -4q22 -24 57 -24q32 2 51 21q10 10 19.5 25.5t16.5 30.5t15 40t12.5 41.5t12 49.5t11 50t12 56.5t11.5 56.5l59 282l6 28h-86v18h90
q29 112 79.5 172t132.5 60q64 0 113 -20l-55 -144h-2l-40 131q-4 13 -7.5 15.5t-16.5 2.5q-25 0 -45 -19t-34 -56.5t-22 -66.5t-17 -75h127v-18h-131l-61 -298q-80 -397 -253 -397q-12 0 -32 4h-239v2l104 44q18 9 22 27l84 347h-2q-71 -200 -162 -200zM263 151
q46 108 91 283q-12 30 -58 30q-71 0 -124 -107q-53 -106 -53 -221q0 -89 49 -89q23 0 48 26.5t47 77.5z" />
    <glyph glyph-name="g_j" unicode="gj" horiz-adv-x="702" 
d="M344 -236q-48 0 -74 26q-55 -26 -123 -26q-47 0 -91 13.5t-76 45t-32 73.5q0 48 43 80t103 44q-33 10 -52 29t-19 43q0 34 31 59t88 34q-36 17 -57.5 50t-21.5 77q0 82 60.5 132t140.5 50q57 0 103 -36q13 -10 22 0l118 138h2l-25 -117l203 16l-91 -386
q-14 -58 -28.5 -104.5t-37 -93t-48 -77.5t-61 -50.5t-77.5 -19.5zM567 447l-84 29l-8 -40h-89q27 -37 27 -84q0 -82 -60 -132t-140 -50q-32 0 -60 11q-25 -5 -42 -18.5t-17 -28.5q0 -26 58 -40l111 -25q59 -13 89 -48t30 -82q0 -43 -26 -80t-70 -61q24 -19 60 -19
q32 0 54 17q20 15 36.5 45.5t31 82.5t22.5 85t22 99q4 19 6 28l61 291q4 15 -12 20zM122 13l-21 5q-82 -39 -82 -116q0 -56 42 -89.5t99 -33.5q64 0 107 33.5t43 86.5q0 72 -103 95q-70 15 -85 19zM266 481q-53 0 -84.5 -64.5t-31.5 -137.5q0 -96 58 -96q54 0 85.5 64.5
t31.5 137.5q0 44 -15 70t-44 26zM665 564q-23 0 -38 15t-15 39q0 26 19.5 46t48.5 20q23 0 38 -15t15 -39q0 -26 -19.5 -46t-48.5 -20z" />
    <glyph glyph-name=".notdef" horiz-adv-x="600" 
d="M543 -250h-486v1000h486v-1000zM292 250l-217 469v-936zM301 231l-216 -464h431zM310 251l215 -463v926zM86 733l215 -463l215 463h-430z" />
    <glyph glyph-name=".null" horiz-adv-x="0" 
 />
    <glyph glyph-name="nonmarkingreturn" horiz-adv-x="333" 
 />
    <glyph glyph-name="space" unicode=" " horiz-adv-x="195" 
 />
    <glyph glyph-name="exclam" unicode="!" horiz-adv-x="240" 
d="M282 703l-169 -489h-2l41 489h130zM85 116q24 0 39.5 -15.5t15.5 -40.5q0 -27 -20 -47.5t-50 -20.5q-24 0 -39.5 15.5t-15.5 40.5q0 27 20 47.5t50 20.5z" />
    <glyph glyph-name="quotedbl" unicode="&#x22;" horiz-adv-x="351" 
d="M229 673q0 -21 -15 -51l-68 -143h-2l-9 151v10q0 33 14 53t41 20q18 0 28.5 -11.5t10.5 -28.5zM388 673q0 -21 -15 -51l-68 -143h-2l-9 151v10q0 33 14 53t41 20q18 0 28.5 -11.5t10.5 -28.5z" />
    <glyph glyph-name="numbersign" unicode="#" horiz-adv-x="588" 
d="M511 216h-140l-55 -190l-16 5l53 185h-152l-55 -190l-16 5l53 185h-128v17h133l58 204h-128v17h133l57 199l18 -5l-56 -194h151l57 199l18 -5l-56 -194h133v-17h-138l-59 -204h135v-17zM265 437l-59 -204h152l58 204h-151z" />
    <glyph glyph-name="dollar" unicode="$" horiz-adv-x="523" 
d="M471 201q0 -86 -74 -147.5t-177 -63.5l-18 -95l-16 3l18 92q-119 2 -189 36l50 199h2l53 -192q4 -17 20 -21q28 -7 62 -7h5l60 312l-58 43q-91 67 -91 164q0 81 62 135t155 54h9l15 74l17 -3l-14 -72q80 -3 165 -26l-43 -199h-2l-55 187q-3 16 -19 19q-24 4 -49 6
l-55 -282l78 -57q89 -63 89 -159zM288 302l-6 4l-59 -300q63 6 106.5 45t43.5 107q0 81 -85 144zM200 568q0 -72 89 -140l52 270q-61 -4 -101 -38t-40 -92z" />
    <glyph glyph-name="percent" unicode="%" horiz-adv-x="641" 
d="M284 699q-28 0 -51 -38t-33.5 -85.5t-10.5 -88.5q0 -56 39 -56q29 0 52 41t33 89t10 84q0 54 -39 54zM287 713q45 0 71.5 -30.5t26.5 -77.5q0 -77 -44 -132.5t-116 -55.5q-46 0 -72 30.5t-26 78.5q0 77 44 132t116 55zM458 272q-28 0 -51 -38t-33.5 -85.5t-10.5 -88.5
q0 -56 39 -56q29 0 52 41t33 89t10 84q0 54 -39 54zM461 286q45 0 71.5 -30.5t26.5 -77.5q0 -77 -44 -132.5t-116 -55.5q-46 0 -72 30.5t-26 78.5q0 77 44 132t116 55zM23 -10l-13 13l651 710l14 -12z" />
    <glyph glyph-name="ampersand" unicode="&#x26;" horiz-adv-x="645" 
d="M301 451q-83 -21 -134.5 -71t-51.5 -128q0 -77 55 -133.5t148 -56.5q107 0 165 51t58 117q0 44 -21.5 72t-66.5 28q-36 0 -60.5 -21.5t-24.5 -49.5q0 -20 15 -34.5t36 -14.5q15 0 29 7l1 -1q-24 -24 -68 -24q-34 0 -60 20.5t-26 50.5q0 53 73 100l209 134q28 17 28 41
q0 13 -11 22t-29 9q-11 0 -26 -5l-1 2q30 25 67 25q34 0 57 -16.5t23 -45.5q0 -26 -16.5 -45t-49.5 -39l-165 -102v-2h5q57 0 87 -39t30 -90q0 -96 -73 -159t-194 -63q-124 0 -199 63.5t-75 155.5q0 90 60 155.5t161 82.5v2q-106 23 -106 108q0 63 57.5 109.5t142.5 46.5
q71 0 127 -25l-58 -133h-2l-43 128q-3 15 -20 15q-54 0 -86 -40t-33 -97q0 -67 66 -108v-2z" />
    <glyph glyph-name="quotesingle" unicode="'" horiz-adv-x="192" 
d="M214 622l-68 -143h-2l-9 151v10q0 33 14 53t41 20q18 0 28.5 -11.5t10.5 -28.5q0 -21 -15 -51z" />
    <glyph glyph-name="parenleft" unicode="(" horiz-adv-x="318" 
d="M128 130q0 -186 95 -282l-3 -2q-170 102 -170 318q0 160 62.5 299.5t171.5 215.5q44 30 123 59l1 -2q-65 -47 -100 -84q-85 -88 -132.5 -239.5t-47.5 -282.5z" />
    <glyph glyph-name="parenright" unicode=")" horiz-adv-x="318" 
d="M206 454q0 186 -95 282l3 2q170 -102 170 -318q0 -160 -62.5 -299.5t-171.5 -215.5q-44 -30 -123 -59l-1 2q65 47 100 84q85 88 132.5 239.5t47.5 282.5z" />
    <glyph glyph-name="asterisk" unicode="*" horiz-adv-x="348" 
d="M376 565h-142l113 -82l-73 -54l-43 134l-44 -133l-73 54l114 81h-138l28 87l111 -83l-41 134h91l-46 -134l115 81z" />
    <glyph glyph-name="plus" unicode="+" horiz-adv-x="540" 
d="M510 314h-211v-211h-18v211h-211v17h211v212h18v-212h211v-17z" />
    <glyph glyph-name="comma" unicode="," horiz-adv-x="225" 
d="M49 4q-36 9 -36 50q0 29 19.5 48t46.5 19q24 0 40.5 -17t16.5 -42q0 -80 -91 -145q-38 -26 -70 -36l-1 2q31 16 50 41q24 30 32 65q3 13 -7 15z" />
    <glyph glyph-name="hyphen" unicode="-" horiz-adv-x="351" 
d="M306 234h-260v18h260v-18z" />
    <glyph glyph-name="period" unicode="." horiz-adv-x="225" 
d="M81 116q24 0 39.5 -15.5t15.5 -40.5q0 -27 -20 -47.5t-50 -20.5q-24 0 -39.5 15.5t-15.5 40.5q0 27 20 47.5t50 20.5z" />
    <glyph glyph-name="slash" unicode="/" horiz-adv-x="380" 
d="M447 732l-480 -885l-15 8l480 883z" />
    <glyph glyph-name="zero" unicode="0" horiz-adv-x="590" 
d="M239 5q61 0 118.5 73t93.5 192.5t36 245.5q0 89 -27.5 135.5t-71.5 46.5q-61 0 -118.5 -73.5t-93 -192.5t-35.5 -245q0 -88 27.5 -135t70.5 -47zM236 -10q-86 0 -139.5 65.5t-53.5 167.5q0 133 44.5 245.5t125 178.5t178.5 66q87 0 140.5 -65t53.5 -168
q0 -134 -44.5 -246t-125 -178t-179.5 -66z" />
    <glyph glyph-name="one" unicode="1" horiz-adv-x="358" 
d="M201 79q-2 -8 -0.5 -12t9.5 -9l89 -56v-2h-322v2l114 56q16 8 18 21l110 522q4 18 -9 21l-106 28v2l229 61h2z" />
    <glyph glyph-name="two" unicode="2" horiz-adv-x="498" 
d="M511 552q0 -33 -11 -66.5t-25.5 -60.5t-46 -61t-53 -55.5t-68.5 -58.5t-71.5 -54.5t-81 -58.5t-79.5 -57h230q22 0 29.5 3t19.5 16l89 92h2l-55 -191h-420l1 2q144 132 252 235q91 88 137.5 163.5t46.5 173.5q0 54 -24.5 88.5t-69.5 34.5q-24 0 -46 -5q-9 -2 -12 -4.5
t-10 -13.5l-95 -155h-2l-24 149q99 45 206 45q84 0 132.5 -45t48.5 -116z" />
    <glyph glyph-name="three" unicode="3" horiz-adv-x="487" 
d="M493 562q0 -66 -55.5 -120t-141.5 -70v-2q67 -10 104.5 -52.5t37.5 -105.5q0 -90 -83.5 -156t-197.5 -66q-94 0 -182 35l90 167h2l20 -163q2 -15 12 -17q24 -6 47 -6q87 0 136 55t49 140q0 67 -33 111t-104 52v2q102 13 149.5 70.5t47.5 138.5q0 52 -25 87t-68 35
q-21 0 -43 -4q-14 -2 -25 -19l-95 -154h-2l-24 148q101 45 201 45q85 0 134 -43.5t49 -107.5z" />
    <glyph glyph-name="four" unicode="4" horiz-adv-x="542" 
d="M506 180h-147l-21 -102q-2 -12 8 -21l68 -55v-2h-282v2l96 55q16 9 18 21l21 102h-287v2l419 521h71l-107 -505h35q15 0 28 13l127 161h2zM17 198h254l90 430z" />
    <glyph glyph-name="five" unicode="5" horiz-adv-x="495" 
d="M356 613q-97 1 -176 7l-55 -248q73 48 159 48q75 0 127 -53t52 -127q0 -107 -87 -178.5t-206 -71.5q-104 0 -185 35l90 167h2l20 -163q1 -11 5 -14t17 -5q24 -4 45 -4q87 0 139.5 65.5t52.5 149.5q0 77 -34.5 118t-95.5 41q-62 0 -125 -38l-2 1l80 361q16 -5 188 -5h54
q65 0 93 27l19 18h2l-24 -77q-9 -29 -23.5 -40.5t-41.5 -12.5q-28 -1 -90 -1z" />
    <glyph glyph-name="six" unicode="6" horiz-adv-x="550" 
d="M508 255q0 -113 -72.5 -189t-192.5 -76q-94 0 -147 70t-53 182q0 58 13 120t42 125.5t70.5 113t104.5 81t138 31.5q87 0 174 -31l-89 -167h-2l-26 165q-1 8 -4 10t-13 4q-13 2 -38 2q-91 0 -157.5 -100.5t-96.5 -239.5q66 79 174 79q70 0 122.5 -51t52.5 -129zM292 403
q-76 0 -136 -60q-15 -77 -15 -144q0 -88 29 -139.5t77 -51.5q78 0 118.5 67t40.5 160q0 86 -26 127t-88 41z" />
    <glyph glyph-name="seven" unicode="7" horiz-adv-x="452" 
d="M162 0h-122v2q94 169 212.5 345t190.5 272v2h-267q-15 0 -21 -3t-19 -15l-75 -73h-1l57 173h430v-2l-66 -61q-18 -16 -26 -29q-90 -149 -293 -611z" />
    <glyph glyph-name="eight" unicode="8" horiz-adv-x="518" 
d="M475 196q0 -62 -38.5 -110.5t-94 -72t-115.5 -23.5q-94 0 -153 46.5t-59 119.5q0 77 60.5 127.5t145.5 71.5l-28 23q-73 61 -73 146q0 88 68.5 138.5t158.5 50.5q76 0 128.5 -42.5t52.5 -105.5q0 -73 -50.5 -117.5t-132.5 -63.5l33 -25q97 -74 97 -163zM307 287l-80 63
q-131 -66 -131 -191q0 -66 35 -109.5t101 -43.5q61 0 103 45.5t42 111.5q0 69 -70 124zM209 571q0 -79 59 -126l70 -55q111 58 111 179q0 62 -29 95.5t-82 33.5q-54 0 -91.5 -36.5t-37.5 -90.5z" />
    <glyph glyph-name="nine" unicode="9" horiz-adv-x="547" 
d="M337 713q97 0 151 -69.5t54 -182.5q0 -58 -13 -120t-42 -125.5t-70.5 -113t-104.5 -81t-138 -31.5q-87 0 -174 31l89 167h2l26 -165q1 -8 4 -10t13 -4q13 -2 38 -2q91 0 157 100t96 239q-68 -80 -165 -80q-79 0 -131 51t-52 131q0 113 71.5 189t188.5 76zM293 300
q78 0 135 60q16 82 16 144q0 88 -30 139.5t-80 51.5q-76 0 -115.5 -67t-39.5 -160q0 -82 30 -125t84 -43z" />
    <glyph glyph-name="colon" unicode=":" horiz-adv-x="225" 
d="M81 116q24 0 39.5 -15.5t15.5 -40.5q0 -27 -20 -47.5t-50 -20.5q-24 0 -39.5 15.5t-15.5 40.5q0 27 20 47.5t50 20.5zM150 445q24 0 39.5 -15.5t15.5 -40.5q0 -27 -20 -47.5t-50 -20.5q-24 0 -39.5 15.5t-15.5 40.5q0 27 20 47.5t50 20.5z" />
    <glyph glyph-name="semicolon" unicode=";" horiz-adv-x="225" 
d="M49 4q10 -2 7 -15q-8 -35 -32 -65q-19 -25 -50 -41l1 -2q32 10 70 36q91 65 91 145q0 25 -16.5 42t-40.5 17q-27 0 -46.5 -19t-19.5 -48q0 -41 36 -50zM150 445q24 0 39.5 -15.5t15.5 -40.5q0 -27 -20 -47.5t-50 -20.5q-24 0 -39.5 15.5t-15.5 40.5q0 27 20 47.5t50 20.5
z" />
    <glyph glyph-name="less" unicode="&#x3c;" horiz-adv-x="540" 
d="M70 324l390 179l7 -16l-357 -164l357 -164l-7 -16l-390 179v2z" />
    <glyph glyph-name="equal" unicode="=" horiz-adv-x="540" 
d="M510 404h-440v17h440v-17zM70 226v17h440v-17h-440z" />
    <glyph glyph-name="greater" unicode="&#x3e;" horiz-adv-x="540" 
d="M120 143l-7 16l357 164l-357 164l7 16l390 -179v-2z" />
    <glyph glyph-name="question" unicode="?" horiz-adv-x="427" 
d="M474 575q0 -38 -17.5 -71t-48 -59t-61.5 -47t-69.5 -46t-61.5 -45q-43 -37 -43 -68q0 -17 12 -26l-1 -2q-28 2 -42.5 22t-14.5 46q0 37 25 68t61 54.5t72.5 48.5t61.5 60t25 78q0 107 -91 107q-25 0 -44 -4q-18 -4 -27 -18l-99 -154h-2l-21 149q93 45 208 45
q82 0 130 -37.5t48 -100.5zM137 116q24 0 39.5 -15.5t15.5 -40.5q0 -27 -20 -47.5t-50 -20.5q-24 0 -39.5 15.5t-15.5 40.5q0 27 20 47.5t50 20.5z" />
    <glyph glyph-name="at" unicode="@" horiz-adv-x="1007" 
d="M957 335q0 -153 -74 -248t-177 -95q-69 0 -111.5 35t-42.5 105q0 29 7 60h-2q-34 -99 -73.5 -149.5t-90.5 -50.5q-45 0 -72 37.5t-27 110.5q0 84 34 166t92.5 135.5t123.5 53.5q68 0 82 -57l99 57l2 -1l-73 -264q-17 -61 -17 -111q0 -53 21 -81t60 -28q89 0 155 90.5
t66 232.5q0 158 -108.5 256.5t-281.5 98.5q-212 0 -346.5 -139t-134.5 -357q0 -191 120.5 -297.5t307.5 -106.5q113 0 247 77l8 -15q-125 -79 -256 -79q-193 0 -319 111t-126 309q0 227 140 370.5t360 143.5q179 0 293 -104t114 -266zM535 162q17 35 45.5 125.5t41.5 146.5
q-14 30 -57 30q-56 0 -102 -67q-33 -48 -54.5 -120t-21.5 -137q0 -93 48 -93q52 0 100 115z" />
    <glyph glyph-name="A" unicode="A" horiz-adv-x="611" 
d="M515 82q3 -24 15 -38l34 -42v-2h-239v2l83 54q12 7 9 25l-21 165h-237l-78 -143q-6 -13 -5 -17t13 -16l70 -68v-2h-225v2l95 68q22 16 33 36l273 498q8 16 7.5 21t-7.5 16l-42 60v2h143zM352 598l-183 -334h225z" />
    <glyph glyph-name="B" unicode="B" horiz-adv-x="615" 
d="M558 216q0 -100 -86 -158t-215 -58h-289v2l96 47q15 7 18 20l119 565q2 13 -9 20l-76 47v2h278q205 0 205 -143q0 -74 -58.5 -128.5t-143.5 -59.5v-3q73 -5 117 -47.5t44 -105.5zM301 355h-62l-66 -313q-4 -16 1 -20t29 -4h26q110 0 166 61.5t56 152.5q0 123 -150 123z
M304 662l-62 -290h60q81 0 137 52t56 150q0 56 -33 83.5t-89 27.5h-47q-18 0 -22 -23z" />
    <glyph glyph-name="C" unicode="C" horiz-adv-x="571" 
d="M146 230q0 -63 14.5 -112t50 -81.5t88.5 -32.5q17 0 38 3q19 2 29 16l139 205h2l-43 -214q-92 -24 -170 -24q-122 0 -188.5 77t-66.5 197q0 117 48 219.5t136 166t195 63.5q98 0 186 -25l-47 -214h-2l-60 198q-3 10 -6.5 14.5t-6.5 6t-10 2.5q-21 3 -40 3q-69 0 -126 -48
t-90.5 -121t-51.5 -151t-18 -148z" />
    <glyph glyph-name="D" unicode="D" horiz-adv-x="662" 
d="M659 434q0 -177 -121.5 -305.5t-286.5 -128.5h-283v2l96 47q15 7 18 20l119 565q2 13 -9 20l-76 47v2h274q116 0 192.5 -73.5t76.5 -195.5zM324 685q-9 0 -13.5 -4t-6.5 -16l-131 -623q-4 -16 -0.5 -20t22.5 -4h21q124 0 204 80t113 207q21 77 21 170q0 103 -49 156.5
t-129 53.5h-52z" />
    <glyph glyph-name="E" unicode="E" horiz-adv-x="588" 
d="M621 703l-45 -216h-2l-47 180q-3 11 -8.5 14.5t-16.5 3.5h-178q-10 0 -13.5 -4.5t-6.5 -18.5l-62 -294h123q15 1 32 19l82 89h2l-49 -234h-2l-45 90q-9 18 -25 18h-122l-65 -309q-3 -14 -1 -18.5t12 -4.5h178q25 0 37 13l127 182h2l-45 -213h-515v2l96 47q15 7 18 20
l119 565q2 13 -9 20l-76 47v2h505z" />
    <glyph glyph-name="F" unicode="F" horiz-adv-x="556" 
d="M621 703l-45 -216h-2l-46 180q-4 18 -26 18h-177q-10 0 -14 -4.5t-7 -17.5l-62 -295h123q15 1 32 19l82 89h2l-49 -234h-2l-45 90q-9 18 -25 18h-122l-58 -274q-3 -15 9 -20l104 -54l-1 -2h-324v2l96 47q15 7 18 20l119 565q2 12 -9 20l-76 47v2h505z" />
    <glyph glyph-name="G" unicode="G" horiz-adv-x="642" 
d="M634 691l-44 -211h-2l-59 192q-4 12 -8 15.5t-15 5.5q-23 4 -48 4q-70 0 -126 -34t-90 -86t-56.5 -117.5t-31 -124t-8.5 -110.5q0 -103 41.5 -161t119.5 -58q47 0 98 18l45 212q2 13 1.5 16.5t-7.5 7.5l-69 48v2h277v-2l-88 -47q-13 -6 -17 -25l-52 -246l-85 19
q-63 -19 -108 -19q-127 0 -195 77t-68 204q0 120 50.5 220.5t144.5 161t213 60.5q98 0 187 -22z" />
    <glyph glyph-name="H" unicode="H" horiz-adv-x="730" 
d="M695 634l-119 -565q-4 -14 8 -20l76 -47v-2h-295v2l96 47q15 7 18 20l59 282h-300l-59 -282q-4 -14 8 -20l76 -47v-2h-295v2l96 47q16 8 18 20l119 565q2 13 -9 20l-76 47v2h295v-2l-96 -47q-11 -5 -13.5 -8.5t-3.5 -11.5l-56 -265h300l56 265q2 8 0.5 12t-9.5 8l-76 47
v2h295v-2l-96 -47q-11 -5 -13.5 -8.5t-3.5 -11.5z" />
    <glyph glyph-name="I" unicode="I" horiz-adv-x="333" 
d="M298 634l-119 -565q-4 -14 8 -20l76 -47v-2h-295v2l96 47q16 8 18 20l119 565q2 13 -9 20l-76 47v2h295v-2l-96 -47q-15 -7 -17 -20z" />
    <glyph glyph-name="J" unicode="J" horiz-adv-x="306" 
d="M289 634l-127 -603q-22 -103 -90 -164t-175 -78l-1 2q129 56 165 223l131 620q2 13 -9 20l-76 47v2h295v-2l-96 -47q-11 -5 -13.5 -8.5t-3.5 -11.5z" />
    <glyph glyph-name="K" unicode="K" horiz-adv-x="636" 
d="M298 634l-119 -565q-4 -14 8 -20l76 -47v-2h-295v2l96 47q16 8 18 20l119 565q2 13 -9 20l-76 47v2h295v-2l-96 -47q-15 -7 -17 -20zM521 58l58 -56v-2h-144l-187 353l313 264q17 15 2 26l-74 58v2h262v-2l-123 -60q-28 -13 -48 -30l-248 -211l164 -310q11 -18 25 -32z
" />
    <glyph glyph-name="L" unicode="L" horiz-adv-x="550" 
d="M298 634l-125 -593q-3 -14 -1 -18.5t12 -4.5h158q27 0 36 13l135 193h2l-47 -224h-500v2l96 47q16 8 18 20l119 565q2 13 -9 20l-76 47v2h295v-2l-96 -47q-15 -7 -17 -20z" />
    <glyph glyph-name="M" unicode="M" horiz-adv-x="854" 
d="M701 549q6 30 19 70l-375 -624h-2l-114 555q-7 33 -11 72l-110 -521q-3 -12 -1 -17t11 -13l78 -69v-2h-238v2l109 69q12 8 16 13t6 17l110 521q3 13 1.5 16.5t-8.5 8.5l-72 54v2h176l115 -563l337 563h181v-2l-96 -47q-15 -7 -17 -20l-119 -565q-3 -14 8 -20l76 -47v-2
h-295v2l96 47q15 7 18 20z" />
    <glyph glyph-name="N" unicode="N" horiz-adv-x="676" 
d="M648 602l-127 -602h-64l-241 601l-105 -500q-4 -19 10 -30l80 -69v-2h-241v2l110 69q18 11 22 30l107 507q5 23 -6 34l-71 59v2h156l244 -608l107 507q4 18 -10 30l-80 69v2h241v-2l-110 -69q-18 -11 -22 -30z" />
    <glyph glyph-name="O" unicode="O" horiz-adv-x="666" 
d="M405 713q119 0 189 -77.5t70 -201.5q0 -119 -49 -221.5t-133 -162.5t-182 -60q-119 0 -189 77.5t-70 201.5q0 119 49 221.5t133 162.5t182 60zM295 5q72 0 134 73t96 181.5t34 219.5q0 219 -149 219q-72 0 -134 -73t-96 -181.5t-34 -219.5q0 -219 149 -219z" />
    <glyph glyph-name="P" unicode="P" horiz-adv-x="603" 
d="M116 703h290q95 0 151 -44t56 -131q0 -113 -92.5 -184t-223.5 -71h-75l-42 -199q-4 -18 10 -23l109 -49v-2h-331v2l96 47q15 7 18 20l119 565q2 13 -9 20l-76 47v2zM304 664l-78 -373h57q92 0 158 63t66 194q0 70 -35.5 103.5t-94.5 33.5h-50q-11 0 -16 -4.5t-7 -16.5z
" />
    <glyph glyph-name="Q" unicode="Q" horiz-adv-x="666" 
d="M405 713q119 0 189 -77.5t70 -201.5q0 -119 -49 -221.5t-133 -162.5t-182 -60q-52 0 -98 16l-89 -63l200 -78q58 -22 117 -22q70 0 129 45l41 31l2 -1l-64 -80q-60 -74 -157 -74q-63 0 -129 28l-180 76q-26 11 -52 11q-14 0 -29 -3l-1 1l194 137q-68 31 -105.5 98.5
t-37.5 156.5q0 119 49 221.5t133 162.5t182 60zM295 5q72 0 134 73t96 181.5t34 219.5q0 219 -149 219q-72 0 -134 -73t-96 -181.5t-34 -219.5q0 -219 149 -219z" />
    <glyph glyph-name="R" unicode="R" horiz-adv-x="617" 
d="M257 326h-36l-52 -249q-5 -23 6 -30l67 -45v-2h-274v2l92 51q3 2 5 3.5t3 4.5t1.5 5t1.5 7.5t2 8.5l115 544q5 23 -6 30l-67 45v2h286q93 0 148 -44.5t55 -116.5q0 -87 -67.5 -146t-159.5 -67v-2l20 -32l14 -26l89 -191q9 -20 34 -40l42 -36v-2h-145l-147 310
q-7 16 -27 16zM292 659l-67 -317h88q77 0 130.5 57.5t53.5 151.5q0 136 -119 136h-61q-19 0 -25 -28z" />
    <glyph glyph-name="S" unicode="S" horiz-adv-x="509" 
d="M466 201q0 -88 -76 -149.5t-181 -61.5q-127 0 -199 36l50 199h2l53 -192q4 -17 20 -21q28 -7 62 -7q70 0 120.5 39.5t50.5 113.5q0 81 -85 144l-79 58q-91 67 -91 164q0 81 62 135t155 54q96 0 192 -27l-43 -199h-2l-55 187q-3 16 -19 19q-34 6 -51 6q-67 0 -112 -34.5
t-45 -96.5q0 -76 104 -151l78 -57q89 -63 89 -159z" />
    <glyph glyph-name="T" unicode="T" horiz-adv-x="595" 
d="M671 703l-48 -228h-2l-47 191q-3 12 -6.5 15.5t-15.5 3.5h-114l-130 -616q-2 -8 -0.5 -12t9.5 -8l81 -47v-2h-305v2l101 47q15 7 17 20l130 616h-114q-12 0 -16.5 -3t-13.5 -16l-127 -191h-2l48 228h555z" />
    <glyph glyph-name="U" unicode="U" horiz-adv-x="645" 
d="M623 607l-76 -359q-27 -126 -87 -192t-185 -66q-91 0 -140 49t-49 125q0 30 5 51l87 416q2 12 -9 20l-68 50v2h286v-2l-95 -50q-15 -7 -17 -20l-85 -405q-8 -36 -8 -74q0 -136 132 -136q165 0 214 231l76 360q4 19 -10 30l-81 64v2h242v-2l-110 -64q-18 -10 -22 -30z" />
    <glyph glyph-name="V" unicode="V" horiz-adv-x="582" 
d="M584 597l-319 -597h-52l-84 621q-3 23 -15 38l-34 42v2h239v-2l-82 -54q-13 -8 -10 -25l70 -524l266 497q6 13 4.5 20t-10.5 16l-72 70v2h225v-2l-90 -65q-25 -19 -36 -39z" />
    <glyph glyph-name="W" unicode="W" horiz-adv-x="946" 
d="M948 597l-318 -597h-56l-55 476l-255 -476h-56l-79 621q-3 23 -15 38l-34 42v2h238v-2l-82 -54q-12 -7 -9 -24l67 -530l222 414l-13 114q-2 19 -15 38l-28 42v2h232v-2l-83 -54q-11 -7 -10 -22l61 -531l267 501q6 13 4.5 20t-10.5 16l-72 70v2h225v-2l-90 -65
q-25 -19 -36 -39z" />
    <glyph glyph-name="X" unicode="X" horiz-adv-x="640" 
d="M572 611l-187 -210l138 -325q8 -18 25 -33l47 -41v-2h-251v2l67 40q12 7 13.5 12.5t-3.5 14.5l-106 250l-202 -228q-16 -19 -5 -26l83 -63l-1 -2h-249v2l105 57q28 15 44 33l217 245l-122 290q-8 18 -25 33l-47 41v2h251v-2l-67 -40q-12 -7 -13.5 -12.5t3.5 -14.5
l91 -216l171 194q10 12 11 16.5t-5 9.5l-83 63v2h249v-2l-104 -57q-29 -15 -45 -33z" />
    <glyph glyph-name="Y" unicode="Y" horiz-adv-x="585" 
d="M568 593l-200 -270q-10 -13 -15 -36l-46 -218q-2 -8 -0.5 -12t9.5 -8l81 -47v-2h-305v2l101 47q13 7 17 20l43 207q4 16 -1 30l-111 317q-6 20 -19 33l-42 45v2h245v-2l-76 -51q-11 -8 -8 -18l106 -307l206 278q11 15 2 24l-69 74v2h227v-2l-102 -69q-28 -19 -43 -39z
" />
    <glyph glyph-name="Z" unicode="Z" horiz-adv-x="551" 
d="M638 703v-2l-548 -683h245q27 0 36 13l145 198h2l-48 -229h-501v2l545 683h-223q-27 0 -36 -13l-142 -201h-2l49 232h478z" />
    <glyph glyph-name="bracketleft" unicode="[" horiz-adv-x="340" 
d="M242 653l-151 -721q-1 -9 0 -11t9 -4l149 -43v-2l-249 -15l181 871l243 -15v-2l-167 -43q-9 -2 -11.5 -4t-3.5 -11z" />
    <glyph glyph-name="backslash" unicode="\" horiz-adv-x="380" 
d="M151 738l112 -889l-17 -2l-113 888z" />
    <glyph glyph-name="bracketright" unicode="]" horiz-adv-x="340" 
d="M356 728l-181 -871l-243 15v2l167 43q9 2 11.5 4t3.5 11l151 721q1 9 0 11t-9 4l-149 43v2z" />
    <glyph glyph-name="asciicircum" unicode="^" horiz-adv-x="540" 
d="M291 714l179 -390l-16 -8l-164 358l-164 -358l-16 8l179 390h2z" />
    <glyph glyph-name="underscore" unicode="_" horiz-adv-x="500" 
d="M445 -91h-490v17h490v-17z" />
    <glyph glyph-name="grave" unicode="`" horiz-adv-x="344" 
d="M175 703l119 -161l-1 -2l-242 161l-1 2h125z" />
    <glyph glyph-name="a" unicode="a" horiz-adv-x="492" 
d="M351 78q0 -32 26 -32q33 0 60 53q23 44 41 121h2q-13 -96 -54 -162t-98 -66q-59 0 -59 71q0 39 23 129h-2q-35 -100 -74.5 -150t-90.5 -50q-45 0 -72 37.5t-27 110.5q0 84 34 166t92.5 135.5t123.5 53.5q69 0 82 -57l99 57l2 -1l-100 -368q-8 -32 -8 -48zM354 434
q-14 30 -57 30q-56 0 -102 -67q-33 -48 -54.5 -120t-21.5 -137q0 -93 48 -93q46 0 91 94q46 97 96 293z" />
    <glyph glyph-name="b" unicode="b" horiz-adv-x="453" 
d="M256 720l-97 -425h2q63 200 165 200q44 0 72 -37t28 -117q0 -136 -82.5 -242.5t-168.5 -106.5q-27 0 -48 13.5t-28 38.5l-91 -52h-2l143 657q3 12 1.5 15.5t-10.5 6.5l-88 31v2zM204 368q-53 -94 -101 -318q12 -28 53 -28q83 0 136 132q40 100 40 189q0 98 -47 98
q-41 0 -81 -73z" />
    <glyph glyph-name="c" unicode="c" horiz-adv-x="404" 
d="M179 -8q-66 0 -110.5 48.5t-44.5 137.5q0 123 80.5 220t197.5 97q58 0 107 -23l-61 -162h-2l-33 151q-3 13 -6 16t-12 3q-52 0 -93.5 -50.5t-61.5 -117t-20 -128.5q0 -67 26 -99t68 -32q51 0 95 46t62 134h2q-14 -122 -66.5 -181.5t-127.5 -59.5z" />
    <glyph glyph-name="d" unicode="d" horiz-adv-x="487" 
d="M406 30q-33 -38 -72 -38q-63 0 -64 70q0 41 23 130h-2q-68 -200 -165 -200q-43 0 -71.5 40t-28.5 108q0 142 78 248.5t172 106.5q58 0 75 -47l47 201q3 12 1.5 15.5t-10.5 6.5l-88 31v2l204 16l-146 -600q-6 -28 -6 -40q0 -34 26 -34q61 0 98 174h2q-16 -128 -73 -190z
M262 147q39 90 86 289l1 5q-18 24 -52 24q-60 0 -109 -74q-34 -53 -51.5 -121.5t-17.5 -129.5q0 -93 48 -93q25 0 51 29t44 71z" />
    <glyph glyph-name="e" unicode="e" horiz-adv-x="427" 
d="M185 -8q-68 0 -114.5 49t-46.5 137q0 77 36.5 150.5t100 120t135.5 46.5q53 0 87 -27.5t34 -68.5q0 -71 -79 -118t-172 -47q-22 0 -42 3q-4 -24 -4 -52q0 -61 25.5 -97t76.5 -36q52 0 99.5 45t65.5 130h2q-11 -86 -45.5 -141t-74 -74.5t-84.5 -19.5zM323 415q0 65 -39 65
q-50 0 -96.5 -72.5t-62.5 -161.5q6 -1 19 -1q77 0 128 48t51 122z" />
    <glyph glyph-name="f" unicode="f" horiz-adv-x="265" 
d="M341 463h-131l-61 -298q-23 -116 -57.5 -202t-88 -142.5t-119.5 -56.5q-45 0 -69 20l56 156h2l33 -130q6 -22 18 -22q13 0 25 12q9 9 17 21.5t15 29.5t13 31.5t12.5 38.5t11 40t11 45.5t10 45.5t10.5 51l10 50l59 282l6 28h-86v18h90q29 112 79.5 172t132.5 60
q64 0 113 -20l-55 -144h-2l-40 131q-4 13 -7.5 15.5t-16.5 2.5q-25 0 -45 -19t-34 -56.5t-22 -66.5t-17 -75h127v-18z" />
    <glyph glyph-name="g" unicode="g" horiz-adv-x="452" 
d="M475 436h-89q27 -37 27 -84q0 -82 -60 -132t-140 -50q-32 0 -60 11q-25 -5 -42 -18.5t-17 -28.5q0 -26 58 -40l111 -25q59 -13 89 -48t30 -82q0 -73 -69.5 -124t-165.5 -51q-47 0 -91 13.5t-76 45t-32 73.5q0 48 43 80t103 44q-33 10 -52 29t-19 43q0 34 31 59t88 34
q-36 17 -57.5 50t-21.5 77q0 82 60.5 132t140.5 50q57 0 103 -36q13 -10 22 0l118 138h2zM207 -6q-98 21 -106 24q-82 -39 -82 -116q0 -56 42 -89.5t99 -33.5q64 0 107 33.5t43 86.5q0 72 -103 95zM266 481q-53 0 -84.5 -64.5t-31.5 -137.5q0 -96 58 -96q54 0 85.5 64.5
t31.5 137.5q0 44 -15 70t-44 26z" />
    <glyph glyph-name="h" unicode="h" horiz-adv-x="490" 
d="M448 418q0 -31 -27 -117l-48 -152q-16 -50 -16 -71q0 -30 25 -30q27 0 51 36q31 47 47 135h2q-9 -105 -56 -166t-103 -61q-27 0 -44 16t-17 49q0 31 24 105l51 159q19 59 19 86q0 16 -9.5 25.5t-24.5 9.5q-66 0 -119 -94q-56 -98 -112 -348h-88l158 649q3 12 1.5 15.5
t-10.5 6.5l-88 31v2l204 16l-109 -440h2q36 102 91 158.5t116 56.5q37 0 58.5 -21t21.5 -56z" />
    <glyph glyph-name="i" unicode="i" horiz-adv-x="273" 
d="M241 495l-92 -333q-18 -63 -18 -85q0 -29 24 -29q26 0 50 35q33 50 48 136h2q-5 -82 -49 -154.5t-104 -72.5q-27 0 -44 16.5t-17 49.5q0 32 14 83l78 286q4 15 -12 20l-86 30v2zM281 630q0 -26 -19.5 -46t-48.5 -20q-23 0 -38 15t-15 39q0 26 19.5 46t48.5 20
q23 0 38 -15t15 -39z" />
    <glyph glyph-name="j" unicode="j" horiz-adv-x="250" 
d="M235 495l-91 -386q-15 -65 -37 -122t-54 -109.5t-77 -83t-98 -30.5q-41 0 -64 20l57 156h2l34 -135q4 -17 17 -17q8 0 16 5q62 45 126 343l61 291q4 15 -12 20l-86 30v2zM160 618q0 26 19.5 46t48.5 20q23 0 38 -15t15 -39q0 -26 -19.5 -46t-48.5 -20q-23 0 -38 15
t-15 39z" />
    <glyph glyph-name="k" unicode="k" horiz-adv-x="458" 
d="M297 114q5 -36 15 -51t27 -15q28 0 54 42q28 48 43 129h2q-9 -107 -57.5 -167t-99.5 -60q-36 0 -48 20t-19 71l-22 158q-3 21 -12 25.5t-28 -4.5l-61 -262h-87l150 649q3 12 1.5 15.5t-10.5 6.5l-88 31v2l203 16l-106 -452l176 133q18 14 18 20q0 5 -15 17l-51 39v2h217
v-2l-95 -49q-43 -23 -56 -33l-83 -62z" />
    <glyph glyph-name="l" unicode="l" horiz-adv-x="243" 
d="M126 159q-15 -62 -15 -81q0 -30 23 -30q26 0 49 35q34 51 48 136h2q-9 -103 -58 -168q-44 -59 -95 -59q-29 0 -45 17.5t-16 46.5q0 27 14 85l118 508q3 12 1.5 15.5t-10.5 6.5l-88 31v2l204 16z" />
    <glyph glyph-name="m" unicode="m" horiz-adv-x="753" 
d="M632 149q-16 -50 -16 -71q0 -30 25 -30q27 0 51 36q31 47 47 135h2q-9 -105 -56.5 -166t-103.5 -61q-60 0 -60 66q0 32 24 104l51 159q19 59 19 87q0 34 -33 34q-41 0 -80 -46q-36 -43 -65.5 -121t-76.5 -275h-90l80 311q21 81 21 100q0 31 -30 31q-47 0 -89 -58
q-73 -100 -136 -384h-88l104 424q3 12 1.5 15.5t-10.5 6.5l-88 31v2l206 16l-57 -214h2q34 95 89.5 154.5t109.5 59.5q33 0 55.5 -19.5t22.5 -55.5q0 -12 -3.5 -29.5t-7.5 -30l-12 -37.5t-11 -35h2q35 100 89 153.5t108 53.5q36 0 57.5 -21.5t21.5 -55.5q0 -31 -27 -117z
" />
    <glyph glyph-name="n" unicode="n" horiz-adv-x="519" 
d="M446 301l-48 -152q-16 -50 -16 -71q0 -30 25 -30q27 0 51 36q31 47 47 135h2q-9 -105 -56 -166t-103 -61q-27 0 -44 16t-17 49q0 31 24 105l51 159q19 59 19 87q0 34 -36 34q-64 0 -117 -94q-56 -98 -112 -348h-88l104 424q3 12 1.5 15.5t-10.5 6.5l-88 31v2l206 16
l-57 -215h2q36 102 91 158.5t116 56.5q37 0 58.5 -21t21.5 -56q0 -31 -27 -117z" />
    <glyph glyph-name="o" unicode="o" horiz-adv-x="460" 
d="M174 -10q-66 0 -107 44t-41 133q0 82 34 157.5t94 123t130 47.5q67 0 108.5 -45t41.5 -133q0 -126 -77 -226.5t-183 -100.5zM182 4q42 0 79 60.5t57 142.5t20 154q0 120 -59 120q-42 0 -79 -60.5t-57 -142.5t-20 -154q0 -120 59 -120z" />
    <glyph glyph-name="p" unicode="p" horiz-adv-x="479" 
d="M454 353q0 -157 -79.5 -259t-176.5 -102q-53 0 -79 23l-42 -174q-3 -12 -1.5 -15.5t10.5 -6.5l119 -45v-2h-293v2l54 34q17 11 21 27l145 589q3 12 1.5 15.5t-10.5 6.5l-88 31v2l206 16l-57 -214h2q75 214 171 214q41 0 69 -38t28 -104zM123 29l-2 -8q19 -11 46 -11
q74 0 129 87q63 101 65 260q0 84 -44 84q-20 0 -46 -26.5t-52 -80.5q-42 -85 -96 -305z" />
    <glyph glyph-name="q" unicode="q" horiz-adv-x="457" 
d="M274 495q70 0 84 -58l94 58h2l-158 -653q-5 -17 9 -25l64 -43v-2h-287v2l104 44q18 9 22 27l84 347h-2q-71 -200 -162 -200q-49 0 -75.5 37.5t-26.5 106.5q0 144 79 251.5t169 107.5zM263 151q46 108 91 283q-12 30 -58 30q-71 0 -124 -107q-53 -106 -53 -221
q0 -89 49 -89q23 0 48 26.5t47 77.5z" />
    <glyph glyph-name="r" unicode="r" horiz-adv-x="366" 
d="M311 436q-3 10 -9 10q-11 0 -26 -15q-25 -25 -53 -80q-24 -48 -44 -114t-57 -237h-88l94 423q3 13 1.5 16.5t-12.5 7.5l-86 30v2l205 16l-50 -202h1q41 106 78.5 154t89.5 48q29 0 49 -12l-65 -173h-2z" />
    <glyph glyph-name="s" unicode="s" horiz-adv-x="373" 
d="M366 467l-56 -156h-2l-33 156q-3 14 -16 15q-6 1 -15 1q-50 0 -77 -25t-27 -62q0 -54 92 -120q45 -33 69 -63.5t24 -69.5q0 -54 -47.5 -102.5t-136.5 -48.5q-32 0 -74 11.5t-68 26.5l62 161h3l28 -168q1 -8 3.5 -10.5t10.5 -4.5q16 -4 38 -4q51 0 76.5 28t25.5 70
q0 29 -19.5 53t-68.5 63q-47 38 -69.5 68t-22.5 70q0 57 48 98t126 41q68 0 126 -28z" />
    <glyph glyph-name="t" unicode="t" horiz-adv-x="286" 
d="M348 479v-18h-128l-72 -302q-16 -66 -16 -81q0 -30 24 -30q25 0 46 29q38 52 52 142h2q-10 -110 -64 -175q-43 -52 -91 -52q-26 0 -43.5 17t-17.5 44q0 28 15 88l77 320h-86v18h84q12 0 16 6l124 192h2l-47 -198h123z" />
    <glyph glyph-name="u" unicode="u" horiz-adv-x="524" 
d="M389 76q0 -29 24 -29q30 0 54 39q27 42 46 133h2q-15 -126 -71 -187q-35 -40 -78 -40q-27 0 -44 17.5t-17 53.5q0 46 26 144h-2q-35 -101 -89.5 -158t-110.5 -57q-37 0 -58.5 21t-21.5 56q0 31 27 117l48 152q16 50 16 71q0 30 -25 30q-27 0 -51 -36q-31 -47 -47 -135h-2
q9 105 56 166t103 61q27 0 44 -16t17 -48t-24 -106l-51 -159q-19 -59 -19 -87q0 -36 38 -36q53 0 108 96q50 85 112 348h88l-92 -368q-6 -22 -6 -43z" />
    <glyph glyph-name="v" unicode="v" horiz-adv-x="426" 
d="M431 495q2 -69 -19.5 -155t-58 -164t-92.5 -131t-116 -53q-47 0 -70 29.5t-23 75.5q0 40 26 123l34 109q16 52 16 78q0 30 -23 30q-26 0 -49 -34t-50 -104l-2 1q30 104 72 149.5t86 45.5q61 0 61 -67q0 -32 -30 -127l-33 -103q-17 -51 -17 -87q0 -29 13.5 -50.5
t42.5 -21.5q40 0 79 45t62.5 109t23.5 121q0 76 -34 121l-13 17v2z" />
    <glyph glyph-name="w" unicode="w" horiz-adv-x="649" 
d="M588 314q0 77 -34 121l-13 17v2l114 41q2 -68 -19 -154t-57 -164t-91.5 -131.5t-115.5 -53.5q-34 0 -56.5 22t-22.5 69q0 38 16 90h-2q-54 -181 -160 -181q-48 0 -71.5 29t-23.5 74q0 42 25 122l35 112q16 52 16 78q0 30 -23 30q-48 0 -99 -138l-2 1q30 104 71.5 149.5
t86.5 45.5q61 0 61 -67q0 -32 -30 -127l-35 -110q-18 -56 -18 -90q0 -28 13.5 -44.5t33.5 -16.5q62 0 112 135q43 115 71 305l91 15q-16 -125 -72 -324q-11 -40 -11 -64q0 -67 52 -67q53 0 105.5 90.5t52.5 183.5z" />
    <glyph glyph-name="x" unicode="x" horiz-adv-x="471" 
d="M494 476l-62 -165h-2l-24 128q-2 9 -8 9t-17 -8q-48 -37 -111 -154l34 -176q12 -59 37 -59q28 0 55 42.5t44 113.5h2q-11 -94 -57.5 -154.5t-94.5 -60.5q-28 0 -43.5 18t-23.5 63l-21 111l-26 -52q-39 -76 -70.5 -108t-71.5 -32q-36 0 -56 19l62 165h2l24 -128q2 -9 8 -9
t17 8q48 37 109 149l-35 183q-10 58 -38 58t-55.5 -41t-44.5 -110h-2q11 91 58 150t95 59q29 0 44.5 -18t23.5 -62l22 -117q25 53 28 58q38 75 70.5 107t71.5 32q36 0 56 -19z" />
    <glyph glyph-name="y" unicode="y" horiz-adv-x="425" 
d="M360 338q0 72 -47 114v2l118 41q-14 -134 -66 -265t-125 -235q-75 -106 -156.5 -168.5t-142.5 -62.5q-15 0 -23 4l48 140h2l61 -80q10 -13 25 -3q44 28 102 88q6 7 6 22v25q0 124 -16 255.5t-33 181.5q-12 36 -32 36q-36 0 -79 -137l-2 1q49 198 131 198q47 0 70 -74
q20 -65 31.5 -175.5t8.5 -221.5h2q44 66 72 131q45 104 45 183z" />
    <glyph glyph-name="z" unicode="z" horiz-adv-x="375" 
d="M341 399l-250 -277q31 -4 81.5 -24.5t79.5 -20.5q15 0 27 4.5t27.5 17.5t29.5 43.5t26 76.5h2q-7 -47 -25.5 -92.5t-36.5 -71.5q-41 -63 -93 -63q-30 0 -72 19q-62 28 -84 28q-42 0 -49 -54h-2q-2 12 -2 20q0 40 44 90l241 265q-35 5 -82 30q-48 23 -76 23t-49.5 -24
t-40.5 -96h-2q19 108 54 155t75 47q31 0 87 -28q50 -25 73 -25q25 0 44 17t24 50h2q-1 -32 -12.5 -55t-40.5 -55z" />
    <glyph glyph-name="braceleft" unicode="{" horiz-adv-x="351" 
d="M254 566l-16 -169q-4 -37 -32 -65t-63 -38l-1 -2q30 -9 46 -43.5t4 -70.5l-52 -162q-10 -23 -6.5 -50t14 -50t40.5 -37t73 -11l-1 -2q-35 -8 -66 -8q-69 0 -114 53.5t-21 127.5l52 159q12 37 -6 63.5t-62 30.5l1 2q45 4 73.5 27t31.5 56l15 166q6 63 41 107t79 61t91 17
q32 0 64 -8l-1 -2q-80 6 -129 -45.5t-55 -106.5z" />
    <glyph glyph-name="bar" unicode="|" horiz-adv-x="218" 
d="M221 746l-208 -996l-17 4l208 996z" />
    <glyph glyph-name="braceright" unicode="}" horiz-adv-x="351" 
d="M204 43q-6 -63 -41 -107t-79 -61t-91 -17q-32 0 -64 8l1 2q80 -6 129 45.5t55 106.5l16 169q4 37 32 65t63 38l1 2q-30 9 -46 43.5t-4 70.5l52 162q10 23 6.5 50t-14 50t-40.5 37t-73 11l1 2q35 8 66 8q69 0 114 -53.5t21 -127.5l-52 -159q-12 -37 6 -63.5t62 -30.5
l-1 -2q-45 -4 -73.5 -27t-31.5 -56z" />
    <glyph glyph-name="asciitilde" unicode="~" horiz-adv-x="502" 
d="M379 277q-46 0 -116.5 33t-110.5 33q-61 0 -97 -59l-15 9q40 67 112 67q46 0 116.5 -33t110.5 -33q62 0 98 59l15 -9q-40 -67 -113 -67z" />
    <glyph glyph-name="uni00A0" unicode="&#xa0;" horiz-adv-x="195" 
 />
    <glyph glyph-name="exclamdown" unicode="&#xa1;" horiz-adv-x="231" 
d="M116 272l-41 -489h-130l169 489h2zM142 370q-24 0 -39.5 15.5t-15.5 40.5q0 27 20 47.5t50 20.5q24 0 39.5 -15.5t15.5 -40.5q0 -27 -20 -47.5t-50 -20.5z" />
    <glyph glyph-name="cent" unicode="&#xa2;" horiz-adv-x="438" 
d="M176 -8q-64 0 -108 48.5t-44 137.5q0 116 72.5 210.5t180.5 105.5l22 111l17 -3l-21 -107h7q58 0 107 -23l-61 -162h-2l-33 151q-2 9 -4.5 13t-5.5 5t-8 1h-3l-84 -427h5q52 0 96 46.5t62 133.5h2q-13 -111 -62.5 -171t-113.5 -68l-20 -102l-17 3l19 97h-3zM120 184
q0 -111 71 -129l83 422q-68 -14 -111 -107.5t-43 -185.5z" />
    <glyph glyph-name="sterling" unicode="&#xa3;" horiz-adv-x="557" 
d="M429 297h-187q0 -5 0.5 -14t0.5 -14q0 -66 -38.5 -117.5t-98.5 -68.5v-2h238q22 0 29.5 3t20.5 16l88 92h2l-55 -192h-434v2l68 58q48 41 69 79.5t21 90.5q0 25 -7 67h-97v17h95q-16 94 -16 129q0 117 73.5 193.5t195.5 76.5q77 0 167 -26l-52 -198h-2l-58 191
q-2 8 -5.5 10.5t-12.5 3.5q-22 2 -45 2q-56 0 -95 -39t-54 -91t-15 -109q0 -24 2.5 -48t6.5 -52t6 -43h189v-17z" />
    <glyph glyph-name="currency" unicode="&#xa4;" horiz-adv-x="731" 
d="M111 65l-11 12l111 111q-63 65 -63 164q0 100 64 164l-112 113l11 12l113 -113q66 57 161 57t161 -58l114 114l11 -12l-113 -113q65 -65 65 -164q0 -97 -64 -163l112 -112l-11 -12l-113 112q-65 -57 -162 -57q-96 0 -162 57zM166 352q0 -97 62.5 -156t156.5 -59t157 59
t63 156t-63 156.5t-157 59.5t-156.5 -59.5t-62.5 -156.5z" />
    <glyph glyph-name="yen" unicode="&#xa5;" horiz-adv-x="565" 
d="M494 274h-165l-19 -90h163v-18h-167l-20 -97q-2 -8 -0.5 -12t9.5 -8l81 -47v-2h-305v2l101 47q13 7 17 20l20 97h-149v18h153l18 90h-150v18h153q0 5 -3 14l-111 317q-6 20 -19 33l-42 45v2h245v-2l-76 -51q-11 -8 -8 -18l106 -307l206 278q11 15 2 24l-69 74v2h227v-2
l-102 -69q-28 -19 -43 -39l-200 -270q-10 -14 -14 -31h161v-18z" />
    <glyph glyph-name="brokenbar" unicode="&#xa6;" horiz-adv-x="218" 
d="M13 -250l-17 4l91 434l17 -4zM132 320l-17 4l89 426l17 -4z" />
    <glyph glyph-name="section" unicode="&#xa7;" horiz-adv-x="484" 
d="M439 286q0 -108 -134 -162q47 -49 47 -107q0 -77 -61.5 -126t-142.5 -49q-66 0 -135 16l61 197h2l36 -185q3 -13 11 -14q12 -2 28 -2q48 0 84 38t36 90q0 59 -70 114l-43 34q-48 38 -70 70t-22 69q0 107 133 161q-46 48 -46 108q0 77 61.5 126t142.5 49q66 0 135 -16
l-61 -197h-2l-36 185q-3 13 -11 14q-12 2 -28 2q-48 0 -84 -38t-36 -90q0 -59 70 -114l43 -34q48 -38 70 -70t22 -69zM208 422l-3 3q-26 -13 -44 -46.5t-18 -66.5q0 -50 50 -90q67 -54 104 -89l3 -3q27 13 44.5 46t17.5 67q0 50 -50 90q-67 54 -104 89z" />
    <glyph glyph-name="dieresis" unicode="&#xa8;" horiz-adv-x="370" 
d="M110 676q21 0 34 -13t13 -34q0 -23 -17 -40.5t-43 -17.5q-20 0 -33 13t-13 34q0 23 17 40.5t42 17.5zM273 676q21 0 34 -13t13 -34q0 -23 -17 -40.5t-43 -17.5q-20 0 -33 13t-13 34q0 23 17 40.5t42 17.5z" />
    <glyph glyph-name="copyright" unicode="&#xa9;" horiz-adv-x="813" 
d="M334 353q0 -92 31 -143t82 -51q9 0 14 1q9 2 15 11l76 108h1v-124q-47 -11 -105 -11q-99 0 -154 57.5t-55 150.5q0 91 56.5 149.5t143.5 58.5q67 0 114 -13v-118h-1l-79 105q-7 10 -18 11q-7 1 -17 1q-47 0 -75.5 -54.5t-28.5 -138.5zM426 713q157 0 258 -100.5
t101 -260.5q0 -155 -99.5 -258.5t-259.5 -103.5q-162 0 -260.5 103.5t-98.5 258.5q0 153 104.5 257t254.5 104zM426 696q-143 0 -242 -99t-99 -245q0 -148 93.5 -246.5t247.5 -98.5q152 0 246.5 98.5t94.5 246.5q0 152 -96 248t-245 96z" />
    <glyph glyph-name="ordfeminine" unicode="&#xaa;" horiz-adv-x="344" 
d="M293 456q-5 -16 -5 -28q0 -24 19 -24q43 0 70 119h2q-8 -60 -32 -102q-31 -56 -73 -56t-42 50q0 21 17 83h-2q-47 -133 -113 -133q-31 0 -50 26t-19 76q0 90 52.5 168t120.5 78q48 0 57 -39l67 39h2zM162 403q36 0 68 75q22 51 61 189q-11 24 -39 24q-39 0 -70 -46
q-23 -34 -37.5 -83t-14.5 -95q0 -64 32 -64z" />
    <glyph glyph-name="guillemotleft" unicode="&#xab;" horiz-adv-x="433" 
d="M32 251l244 199l1 -1l-141 -208l58 -190l-2 -1l-160 199v2zM202 251l244 199l1 -1l-141 -208l58 -190l-2 -1l-160 199v2z" />
    <glyph glyph-name="logicalnot" unicode="&#xac;" horiz-adv-x="540" 
d="M511 109h-18v208h-443v17h461v-225z" />
    <glyph glyph-name="uni00AD" unicode="&#xad;" horiz-adv-x="351" 
d="M306 234h-260v18h260v-18z" />
    <glyph glyph-name="registered" unicode="&#xae;" horiz-adv-x="813" 
d="M426 713q157 0 258 -100.5t101 -260.5q0 -155 -99.5 -258.5t-259.5 -103.5q-162 0 -260.5 103.5t-98.5 258.5q0 153 104.5 257t254.5 104zM426 696q-143 0 -242 -99t-99 -245q0 -148 93.5 -246.5t247.5 -98.5q152 0 246.5 98.5t94.5 246.5q0 152 -96 248t-245 96z
M253 161v2l49 24q7 3 7 11v310q0 8 -7 11l-49 24v2h197q56 0 91.5 -26.5t35.5 -77.5q0 -35 -24.5 -63t-66.5 -38v-1l18 -22l81 -113q9 -12 18 -20l28 -21v-2h-103l-109 161q-7 10 -17 10h-16v-134q0 -7 7 -11l48 -24v-2h-188zM386 517v-168h25q83 0 83 89q0 53 -20 71.5
t-55 18.5h-23q-10 0 -10 -11z" />
    <glyph glyph-name="macron" unicode="&#xaf;" horiz-adv-x="349" 
d="M298 591h-246v18h246v-18z" />
    <glyph glyph-name="degree" unicode="&#xb0;" horiz-adv-x="324" 
d="M63 589q0 54 37 88t90 34t90 -34t37 -88q0 -53 -37 -86t-90 -33t-90 33t-37 86zM81 589q0 -44 33 -73t76 -29q44 0 76.5 29t32.5 73q0 45 -32.5 75t-76.5 30q-43 0 -76 -30t-33 -75z" />
    <glyph glyph-name="plusminus" unicode="&#xb1;" horiz-adv-x="540" 
d="M510 366h-211v-163h-18v163h-211v17h211v161h18v-161h211v-17zM510 106h-440v17h440v-17z" />
    <glyph glyph-name="twosuperior" unicode="&#xb2;" 
d="M223 713q108 0 108 -74q0 -13 -3.5 -25t-12.5 -23.5t-17 -21t-23.5 -20t-24.5 -17t-28.5 -17t-27.5 -14.5t-29 -14t-26 -12v-2h99q19 0 27 7l46 38h2l-30 -97h-231v1q108 82 125 96q90 70 90 135q0 46 -53 46q-8 0 -16 -2q-7 -1 -11 -8l-53 -86h-1l-14 91q59 19 104 19z
" />
    <glyph glyph-name="threesuperior" unicode="&#xb3;" 
d="M312 514q0 -50 -46.5 -73.5t-113.5 -23.5q-45 0 -97 18l64 94h2l4 -88q0 -6 8 -8q9 -2 20 -2q40 0 68 24t28 64q0 51 -76 54v2q96 12 96 78q0 46 -49 46q-12 0 -19 -1q-5 -1 -12 -10l-54 -85h-2l-13 91q59 19 100 19q50 0 79.5 -18.5t29.5 -48.5q0 -61 -88 -69v-2
q33 -3 52 -20t19 -41z" />
    <glyph glyph-name="acute" unicode="&#xb4;" horiz-adv-x="344" 
d="M196 703h125v-2l-241 -161l-2 2z" />
    <glyph glyph-name="mu" unicode="&#xb5;" horiz-adv-x="547" 
d="M389 76q0 -29 24 -29q31 0 57.5 45t42.5 127h2q-15 -126 -71 -187q-35 -40 -78 -40q-27 0 -44 17.5t-17 53.5q0 53 26 144h-2q-35 -100 -89.5 -157.5t-110.5 -57.5q-8 0 -14 1l-41 -152q-3 -12 -1.5 -15.5t10.5 -6.5l119 -45v-2h-293v2l54 34q17 11 21 27l140 503
q14 49 14 71q0 30 -23 30q-27 0 -51 -36q-31 -47 -47 -135h-2q9 105 56 166t103 61q59 0 59 -64q0 -32 -22 -106l-46 -159q-19 -65 -19 -87q0 -36 33 -36q50 0 108 96q34 56 69 176q19 67 43 172h88l-92 -368q-6 -22 -6 -43z" />
    <glyph glyph-name="paragraph" unicode="&#xb6;" horiz-adv-x="602" 
d="M483 0h-97l-48 -250l-19 3l48 247h-74q-93 0 -152.5 54t-59.5 175q0 62 12 125.5t40 126.5t67.5 112t99 79.5t130.5 30.5h187v-17h-97l-130 -669h93v-17zM293 17h77l131 669h-77z" />
    <glyph glyph-name="periodcentered" unicode="&#xb7;" horiz-adv-x="205" 
d="M139 488q24 0 39.5 -15.5t15.5 -40.5q0 -27 -20 -47.5t-50 -20.5q-24 0 -39.5 15.5t-15.5 40.5q0 27 20 47.5t50 20.5z" />
    <glyph glyph-name="cedilla" unicode="&#xb8;" horiz-adv-x="365" 
d="M276 -125q0 -46 -37.5 -78.5t-92.5 -32.5q-45 0 -69 25t-22 60l2 1q3 -25 21.5 -40.5t43.5 -15.5q31 0 55.5 20.5t24.5 52.5q0 21 -14.5 34t-39.5 13q-19 0 -39 -7l-1 2l86 91h2l-23 -63q13 3 26 3q34 0 55.5 -18.5t21.5 -46.5z" />
    <glyph glyph-name="onesuperior" unicode="&#xb9;" horiz-adv-x="240" 
d="M263 423v-2h-206v2l73 31q8 3 9 8l42 193q2 7 -5 9l-67 24v2l143 25l-55 -253q-1 -4 6 -8z" />
    <glyph glyph-name="ordmasculine" unicode="&#xba;" horiz-adv-x="332" 
d="M179 365q-46 0 -74.5 30.5t-28.5 91.5q0 87 53 156.5t126 69.5q45 0 74 -31t29 -92q0 -86 -53 -155.5t-126 -69.5zM184 379q43 0 75.5 81t32.5 161q0 78 -41 78q-43 0 -75 -81.5t-32 -160.5q0 -78 40 -78z" />
    <glyph glyph-name="guillemotright" unicode="&#xbb;" horiz-adv-x="433" 
d="M235 249l-244 -199l-1 1l141 208l-58 190l2 1l160 -199v-2zM405 249l-244 -199l-1 1l141 208l-58 190l2 1l160 -199v-2z" />
    <glyph glyph-name="onequarter" unicode="&#xbc;" horiz-adv-x="456" 
d="M419 361v-17h-335v17h335zM351 423v-2h-206v2l73 31q8 3 9 8l42 193q2 7 -5 9l-67 24v2l143 25l-55 -253q-1 -4 6 -8zM126 1l54 27q8 4 9 10l7 34h-141v2l200 213h46l-43 -201h15q13 0 18 8l61 84h2l-29 -106h-70l-7 -34q-1 -5 5 -10l39 -27v-2h-166v2zM86 86h113l35 158
z" />
    <glyph glyph-name="onehalf" unicode="&#xbd;" horiz-adv-x="456" 
d="M84 344v17h335v-17h-335zM197 690l143 25l-55 -253q-1 -4 6 -8l60 -32v-1h-206v1l73 32q8 3 9 8l42 193q2 7 -5 9l-67 25v1zM221 291q108 0 108 -74q0 -13 -3.5 -25t-12.5 -23.5t-17 -21t-23.5 -20t-24.5 -17t-28.5 -17t-27.5 -14.5t-29 -14t-26 -12v-2h99q19 0 27 7
l46 38h2l-30 -97h-231v1q108 82 125 96q90 70 90 135q0 46 -53 46q-8 0 -16 -2q-7 -1 -11 -8l-53 -86h-1l-14 91q59 19 104 19z" />
    <glyph glyph-name="threequarters" unicode="&#xbe;" horiz-adv-x="456" 
d="M84 344v17h335v-17h-335zM400 514q0 -50 -46.5 -73.5t-113.5 -23.5q-45 0 -97 18l64 94h2l4 -88q0 -6 8 -8q9 -2 20 -2q40 0 68 24t28 64q0 51 -76 54v2q96 12 96 78q0 46 -49 46q-12 0 -19 -1q-5 -1 -12 -10l-53 -85h-2l-14 91q59 19 100 19q50 0 79.5 -18.5t29.5 -48.5
q0 -61 -88 -69v-2q33 -3 52 -20t19 -41zM126 1l54 27q8 4 9 10l7 34h-141v2l200 213h46l-43 -201h15q13 0 18 8l61 84h2l-29 -106h-70l-7 -34q-1 -5 5 -10l39 -27v-2h-166v2zM86 86h113l35 158z" />
    <glyph glyph-name="questiondown" unicode="&#xbf;" horiz-adv-x="427" 
d="M257 275q28 -2 42.5 -22t14.5 -46q0 -37 -25 -68t-61 -54.5t-72.5 -48.5t-61.5 -60t-25 -78q0 -107 91 -107q25 0 44 4q18 4 27 18l99 154h2l21 -149q-93 -45 -208 -45q-82 0 -130 37.5t-48 100.5q0 38 17.5 71t48 59t61.5 47t69.5 46t61.5 45q43 37 43 68q0 17 -12 26z
M304 370q-24 0 -39.5 15.5t-15.5 40.5q0 27 20 47.5t50 20.5q24 0 39.5 -15.5t15.5 -40.5q0 -27 -20 -47.5t-50 -20.5z" />
    <glyph glyph-name="Agrave" unicode="&#xc0;" horiz-adv-x="611" 
d="M515 82q3 -24 15 -38l34 -42v-2h-239v2l83 54q12 7 9 25l-21 165h-237l-78 -143q-6 -13 -5 -17t13 -16l70 -68v-2h-225v2l95 68q22 16 33 36l273 498q8 16 7.5 21t-7.5 16l-42 60v2h143zM352 598l-183 -334h225zM366 919l119 -161l-1 -2l-242 161l-1 2h125z" />
    <glyph glyph-name="Aacute" unicode="&#xc1;" horiz-adv-x="611" 
d="M515 82q3 -24 15 -38l34 -42v-2h-239v2l83 54q12 7 9 25l-21 165h-237l-78 -143q-6 -13 -5 -17t13 -16l70 -68v-2h-225v2l95 68q22 16 33 36l273 498q8 16 7.5 21t-7.5 16l-42 60v2h143zM352 598l-183 -334h225zM436 919h125v-2l-241 -161l-2 2z" />
    <glyph glyph-name="Acircumflex" unicode="&#xc2;" horiz-adv-x="611" 
d="M515 82q3 -24 15 -38l34 -42v-2h-239v2l83 54q12 7 9 25l-21 165h-237l-78 -143q-6 -13 -5 -17t13 -16l70 -68v-2h-225v2l95 68q22 16 33 36l273 498q8 16 7.5 21t-7.5 16l-42 60v2h143zM352 598l-183 -334h225zM396 836l-160 -83l-1 2l177 173h2l105 -173l-2 -2z" />
    <glyph glyph-name="Atilde" unicode="&#xc3;" horiz-adv-x="611" 
d="M515 82q3 -24 15 -38l34 -42v-2h-239v2l83 54q12 7 9 25l-21 165h-237l-78 -143q-6 -13 -5 -17t13 -16l70 -68v-2h-225v2l95 68q22 16 33 36l273 498q8 16 7.5 21t-7.5 16l-42 60v2h143zM352 598l-183 -334h225zM447 777q-22 0 -61.5 23.5t-60.5 23.5q-41 0 -70 -48l-2 1
q10 48 35.5 79t60.5 31q22 0 61 -23.5t60 -23.5q42 0 71 48l2 -1q-10 -48 -35.5 -79t-60.5 -31z" />
    <glyph glyph-name="Adieresis" unicode="&#xc4;" horiz-adv-x="611" 
d="M515 82q3 -24 15 -38l34 -42v-2h-239v2l83 54q12 7 9 25l-21 165h-237l-78 -143q-6 -13 -5 -17t13 -16l70 -68v-2h-225v2l95 68q22 16 33 36l273 498q8 16 7.5 21t-7.5 16l-42 60v2h143zM352 598l-183 -334h225zM317 892q21 0 34 -13t13 -34q0 -23 -17 -40.5t-43 -17.5
q-20 0 -33 13t-13 34q0 23 17 40.5t42 17.5zM480 892q21 0 34 -13t13 -34q0 -23 -17 -40.5t-43 -17.5q-20 0 -33 13t-13 34q0 23 17 40.5t42 17.5z" />
    <glyph glyph-name="Aring" unicode="&#xc5;" horiz-adv-x="611" 
d="M515 82q3 -24 15 -38l34 -42v-2h-239v2l83 54q12 7 9 25l-21 165h-237l-78 -143q-6 -13 -5 -17t13 -16l70 -68v-2h-225v2l95 68q22 16 33 36l273 498q8 16 7.5 21t-7.5 16l-42 60v2h143zM352 598l-183 -334h225zM384 758q-30 0 -49.5 19.5t-19.5 48.5q0 39 27.5 66
t66.5 27q30 0 49.5 -19.5t19.5 -48.5q0 -39 -27.5 -66t-66.5 -27zM386 776q29 0 51 22t22 52q0 22 -14.5 36.5t-37.5 14.5q-29 0 -51 -22t-22 -52q0 -22 14.5 -36.5t37.5 -14.5z" />
    <glyph glyph-name="AE" unicode="&#xc6;" horiz-adv-x="894" 
d="M790 0h-514v2l96 47q15 7 17 20l37 176h-237l-110 -136q-14 -17 -15.5 -23.5t7.5 -16.5l70 -67v-2h-225v2l86 58q33 22 47 39l411 505q13 16 14.5 21.5t-6.5 15.5l-50 60v2h509l-45 -216h-2l-47 180q-3 11 -8.5 14.5t-16.5 3.5h-178q-10 0 -14 -4.5t-7 -18.5l-62 -294
h124q17 1 32 19l83 89h2l-49 -234h-2l-46 90q-9 18 -25 18h-122l-64 -309q-3 -14 -1 -18.5t12 -4.5h178q25 0 37 13l127 182h2zM430 263l79 375l-305 -375h226z" />
    <glyph glyph-name="Ccedilla" unicode="&#xc7;" horiz-adv-x="571" 
d="M464 14q-92 -24 -170 -24l-19 -53q14 3 26 3q34 0 55.5 -18.5t21.5 -46.5q0 -46 -37.5 -78.5t-92.5 -32.5q-45 0 -69 25t-22 60l2 1q3 -25 21.5 -40.5t43.5 -15.5q31 0 55.5 20.5t24.5 52.5q0 21 -14.5 34t-39.5 13q-19 0 -39 -7l-1 2l76 81q-119 3 -183 79.5t-64 194.5
q0 117 48 219.5t136 166t195 63.5q98 0 186 -25l-47 -214h-2l-60 198q-3 10 -6.5 14.5t-6.5 6t-10 2.5q-21 3 -40 3q-69 0 -126 -48t-90.5 -121t-51.5 -151t-18 -148q0 -63 14.5 -112t50 -81.5t88.5 -32.5q17 0 38 3q19 2 29 16l139 205h2z" />
    <glyph glyph-name="Egrave" unicode="&#xc8;" horiz-adv-x="588" 
d="M621 703l-45 -216h-2l-47 180q-3 11 -8.5 14.5t-16.5 3.5h-178q-10 0 -13.5 -4.5t-6.5 -18.5l-62 -294h123q15 1 32 19l82 89h2l-49 -234h-2l-45 90q-9 18 -25 18h-122l-65 -309q-3 -14 -1 -18.5t12 -4.5h178q25 0 37 13l127 182h2l-45 -213h-515v2l96 47q15 7 18 20
l119 565q2 13 -9 20l-76 47v2h505zM395 919l119 -161l-1 -2l-242 161l-1 2h125z" />
    <glyph glyph-name="Eacute" unicode="&#xc9;" horiz-adv-x="588" 
d="M621 703l-45 -216h-2l-47 180q-3 11 -8.5 14.5t-16.5 3.5h-178q-10 0 -13.5 -4.5t-6.5 -18.5l-62 -294h123q15 1 32 19l82 89h2l-49 -234h-2l-45 90q-9 18 -25 18h-122l-65 -309q-3 -14 -1 -18.5t12 -4.5h178q25 0 37 13l127 182h2l-45 -213h-515v2l96 47q15 7 18 20
l119 565q2 13 -9 20l-76 47v2h505zM465 919h125v-2l-241 -161l-2 2z" />
    <glyph glyph-name="Ecircumflex" unicode="&#xca;" horiz-adv-x="588" 
d="M621 703l-45 -216h-2l-47 180q-3 11 -8.5 14.5t-16.5 3.5h-178q-10 0 -13.5 -4.5t-6.5 -18.5l-62 -294h123q15 1 32 19l82 89h2l-49 -234h-2l-45 90q-9 18 -25 18h-122l-65 -309q-3 -14 -1 -18.5t12 -4.5h178q25 0 37 13l127 182h2l-45 -213h-515v2l96 47q15 7 18 20
l119 565q2 13 -9 20l-76 47v2h505zM425 836l-160 -83l-1 2l177 173h2l105 -173l-2 -2z" />
    <glyph glyph-name="Edieresis" unicode="&#xcb;" horiz-adv-x="588" 
d="M621 703l-45 -216h-2l-47 180q-3 11 -8.5 14.5t-16.5 3.5h-178q-10 0 -13.5 -4.5t-6.5 -18.5l-62 -294h123q15 1 32 19l82 89h2l-49 -234h-2l-45 90q-9 18 -25 18h-122l-65 -309q-3 -14 -1 -18.5t12 -4.5h178q25 0 37 13l127 182h2l-45 -213h-515v2l96 47q15 7 18 20
l119 565q2 13 -9 20l-76 47v2h505zM346 892q21 0 34 -13t13 -34q0 -23 -17 -40.5t-43 -17.5q-20 0 -33 13t-13 34q0 23 17 40.5t42 17.5zM509 892q21 0 34 -13t13 -34q0 -23 -17 -40.5t-43 -17.5q-20 0 -33 13t-13 34q0 23 17 40.5t42 17.5z" />
    <glyph glyph-name="Igrave" unicode="&#xcc;" horiz-adv-x="333" 
d="M298 634l-119 -565q-4 -14 8 -20l76 -47v-2h-295v2l96 47q16 8 18 20l119 565q2 13 -9 20l-76 47v2h295v-2l-96 -47q-15 -7 -17 -20zM258 919l119 -161l-1 -2l-242 161l-1 2h125z" />
    <glyph glyph-name="Iacute" unicode="&#xcd;" horiz-adv-x="333" 
d="M298 634l-119 -565q-4 -14 8 -20l76 -47v-2h-295v2l96 47q16 8 18 20l119 565q2 13 -9 20l-76 47v2h295v-2l-96 -47q-15 -7 -17 -20zM328 919h125v-2l-241 -161l-2 2z" />
    <glyph glyph-name="Icircumflex" unicode="&#xce;" horiz-adv-x="333" 
d="M298 634l-119 -565q-4 -14 8 -20l76 -47v-2h-295v2l96 47q16 8 18 20l119 565q2 13 -9 20l-76 47v2h295v-2l-96 -47q-15 -7 -17 -20zM288 836l-160 -83l-1 2l177 173h2l105 -173l-2 -2z" />
    <glyph glyph-name="Idieresis" unicode="&#xcf;" horiz-adv-x="333" 
d="M298 634l-119 -565q-4 -14 8 -20l76 -47v-2h-295v2l96 47q16 8 18 20l119 565q2 13 -9 20l-76 47v2h295v-2l-96 -47q-15 -7 -17 -20zM209 892q21 0 34 -13t13 -34q0 -23 -17 -40.5t-43 -17.5q-20 0 -33 13t-13 34q0 23 17 40.5t42 17.5zM372 892q21 0 34 -13t13 -34
q0 -23 -17 -40.5t-43 -17.5q-20 0 -33 13t-13 34q0 23 17 40.5t42 17.5z" />
    <glyph glyph-name="Eth" unicode="&#xd0;" horiz-adv-x="662" 
d="M40 347v18h104l57 269q2 13 -9 20l-76 47v2h274q116 0 192.5 -73.5t76.5 -195.5q0 -177 -121.5 -305.5t-286.5 -128.5h-283v2l96 47q15 7 18 20l58 278h-100zM324 685q-9 0 -13.5 -4t-6.5 -16l-63 -300h117v-18h-121l-64 -305q-4 -16 -0.5 -20t22.5 -4h21q124 0 204 80
t113 207q21 77 21 170q0 103 -49 156.5t-129 53.5h-52z" />
    <glyph glyph-name="Ntilde" unicode="&#xd1;" horiz-adv-x="676" 
d="M648 602l-127 -602h-64l-241 601l-105 -500q-4 -19 10 -30l80 -69v-2h-241v2l110 69q18 11 22 30l107 507q5 23 -6 34l-71 59v2h156l244 -608l107 507q4 18 -10 30l-80 69v2h241v-2l-110 -69q-18 -11 -22 -30zM490 777q-22 0 -61.5 23.5t-60.5 23.5q-41 0 -70 -48l-2 1
q10 48 35.5 79t60.5 31q22 0 61 -23.5t60 -23.5q42 0 71 48l2 -1q-10 -48 -35.5 -79t-60.5 -31z" />
    <glyph glyph-name="Ograve" unicode="&#xd2;" horiz-adv-x="666" 
d="M405 713q119 0 189 -77.5t70 -201.5q0 -119 -49 -221.5t-133 -162.5t-182 -60q-119 0 -189 77.5t-70 201.5q0 119 49 221.5t133 162.5t182 60zM295 5q72 0 134 73t96 181.5t34 219.5q0 219 -149 219q-72 0 -134 -73t-96 -181.5t-34 -219.5q0 -219 149 -219zM426 919
l119 -161l-1 -2l-242 161l-1 2h125z" />
    <glyph glyph-name="Oacute" unicode="&#xd3;" horiz-adv-x="666" 
d="M405 713q119 0 189 -77.5t70 -201.5q0 -119 -49 -221.5t-133 -162.5t-182 -60q-119 0 -189 77.5t-70 201.5q0 119 49 221.5t133 162.5t182 60zM295 5q72 0 134 73t96 181.5t34 219.5q0 219 -149 219q-72 0 -134 -73t-96 -181.5t-34 -219.5q0 -219 149 -219zM496 919h125
v-2l-241 -161l-2 2z" />
    <glyph glyph-name="Ocircumflex" unicode="&#xd4;" horiz-adv-x="666" 
d="M405 713q119 0 189 -77.5t70 -201.5q0 -119 -49 -221.5t-133 -162.5t-182 -60q-119 0 -189 77.5t-70 201.5q0 119 49 221.5t133 162.5t182 60zM295 5q72 0 134 73t96 181.5t34 219.5q0 219 -149 219q-72 0 -134 -73t-96 -181.5t-34 -219.5q0 -219 149 -219zM456 836
l-160 -83l-1 2l177 173h2l105 -173l-2 -2z" />
    <glyph glyph-name="Otilde" unicode="&#xd5;" horiz-adv-x="666" 
d="M405 713q119 0 189 -77.5t70 -201.5q0 -119 -49 -221.5t-133 -162.5t-182 -60q-119 0 -189 77.5t-70 201.5q0 119 49 221.5t133 162.5t182 60zM295 5q72 0 134 73t96 181.5t34 219.5q0 219 -149 219q-72 0 -134 -73t-96 -181.5t-34 -219.5q0 -219 149 -219zM507 777
q-22 0 -61.5 23.5t-60.5 23.5q-41 0 -70 -48l-2 1q10 48 35.5 79t60.5 31q22 0 61 -23.5t60 -23.5q42 0 71 48l2 -1q-10 -48 -35.5 -79t-60.5 -31z" />
    <glyph glyph-name="Odieresis" unicode="&#xd6;" horiz-adv-x="666" 
d="M405 713q119 0 189 -77.5t70 -201.5q0 -119 -49 -221.5t-133 -162.5t-182 -60q-119 0 -189 77.5t-70 201.5q0 119 49 221.5t133 162.5t182 60zM295 5q72 0 134 73t96 181.5t34 219.5q0 219 -149 219q-72 0 -134 -73t-96 -181.5t-34 -219.5q0 -219 149 -219zM377 892
q21 0 34 -13t13 -34q0 -23 -17 -40.5t-43 -17.5q-20 0 -33 13t-13 34q0 23 17 40.5t42 17.5zM540 892q21 0 34 -13t13 -34q0 -23 -17 -40.5t-43 -17.5q-20 0 -33 13t-13 34q0 23 17 40.5t42 17.5z" />
    <glyph glyph-name="multiply" unicode="&#xd7;" horiz-adv-x="540" 
d="M141 161l-12 12l149 149l-150 150l12 12l150 -150l150 150l12 -12l-150 -150l149 -149l-12 -12l-149 149z" />
    <glyph glyph-name="Oslash" unicode="&#xd8;" horiz-adv-x="666" 
d="M405 713q50 0 92 -15l36 81l16 -7l-35 -80q71 -31 110.5 -99t39.5 -159q0 -119 -49 -221.5t-133 -162.5t-182 -60q-48 0 -90 14l-38 -86l-17 7l38 85q-72 30 -112 98t-40 161q0 119 49 221.5t133 162.5t182 60zM146 224q0 -135 58 -188l283 640q-33 22 -77 22
q-72 0 -134 -73t-96 -181.5t-34 -219.5zM295 5q72 0 134 73t96 181.5t34 219.5q0 132 -57 186l-283 -640q32 -20 76 -20z" />
    <glyph glyph-name="Ugrave" unicode="&#xd9;" horiz-adv-x="645" 
d="M623 607l-76 -359q-27 -126 -87 -192t-185 -66q-91 0 -140 49t-49 125q0 30 5 51l87 416q2 12 -9 20l-68 50v2h286v-2l-95 -50q-15 -7 -17 -20l-85 -405q-8 -36 -8 -74q0 -136 132 -136q165 0 214 231l76 360q4 19 -10 30l-81 64v2h242v-2l-110 -64q-18 -10 -22 -30z
M447 919l119 -161l-1 -2l-242 161l-1 2h125z" />
    <glyph glyph-name="Uacute" unicode="&#xda;" horiz-adv-x="645" 
d="M623 607l-76 -359q-27 -126 -87 -192t-185 -66q-91 0 -140 49t-49 125q0 30 5 51l87 416q2 12 -9 20l-68 50v2h286v-2l-95 -50q-15 -7 -17 -20l-85 -405q-8 -36 -8 -74q0 -136 132 -136q165 0 214 231l76 360q4 19 -10 30l-81 64v2h242v-2l-110 -64q-18 -10 -22 -30z
M517 919h125v-2l-241 -161l-2 2z" />
    <glyph glyph-name="Ucircumflex" unicode="&#xdb;" horiz-adv-x="645" 
d="M623 607l-76 -359q-27 -126 -87 -192t-185 -66q-91 0 -140 49t-49 125q0 30 5 51l87 416q2 12 -9 20l-68 50v2h286v-2l-95 -50q-15 -7 -17 -20l-85 -405q-8 -36 -8 -74q0 -136 132 -136q165 0 214 231l76 360q4 19 -10 30l-81 64v2h242v-2l-110 -64q-18 -10 -22 -30z
M477 836l-160 -83l-1 2l177 173h2l105 -173l-2 -2z" />
    <glyph glyph-name="Udieresis" unicode="&#xdc;" horiz-adv-x="645" 
d="M623 607l-76 -359q-27 -126 -87 -192t-185 -66q-91 0 -140 49t-49 125q0 30 5 51l87 416q2 12 -9 20l-68 50v2h286v-2l-95 -50q-15 -7 -17 -20l-85 -405q-8 -36 -8 -74q0 -136 132 -136q165 0 214 231l76 360q4 19 -10 30l-81 64v2h242v-2l-110 -64q-18 -10 -22 -30z
M398 892q21 0 34 -13t13 -34q0 -23 -17 -40.5t-43 -17.5q-20 0 -33 13t-13 34q0 23 17 40.5t42 17.5zM561 892q21 0 34 -13t13 -34q0 -23 -17 -40.5t-43 -17.5q-20 0 -33 13t-13 34q0 23 17 40.5t42 17.5z" />
    <glyph glyph-name="Yacute" unicode="&#xdd;" horiz-adv-x="585" 
d="M568 593l-200 -270q-10 -13 -15 -36l-46 -218q-2 -8 -0.5 -12t9.5 -8l81 -47v-2h-305v2l101 47q13 7 17 20l43 207q4 16 -1 30l-111 317q-6 20 -19 33l-42 45v2h245v-2l-76 -51q-11 -8 -8 -18l106 -307l206 278q11 15 2 24l-69 74v2h227v-2l-102 -69q-28 -19 -43 -39z
M471 919h125v-2l-241 -161l-2 2z" />
    <glyph glyph-name="Thorn" unicode="&#xde;" horiz-adv-x="587" 
d="M271 137h-78l-14 -68q-4 -14 8 -20l76 -47v-2h-295v2l96 47q16 8 18 20l119 565q2 13 -9 20l-76 47v2h295v-2l-96 -47q-11 -5 -13.5 -8.5t-3.5 -11.5l-14 -67h96q95 0 151 -44t56 -131q0 -113 -92.5 -184t-223.5 -71zM197 155h60q92 0 158 63t66 194q0 70 -35.5 103.5
t-94.5 33.5h-71z" />
    <glyph glyph-name="germandbls" unicode="&#xdf;" horiz-adv-x="503" 
d="M482 133q0 -56 -51.5 -98.5t-132.5 -42.5q-85 0 -152 35l77 135h2l22 -138q1 -7 4 -9.5t13 -4.5q18 -3 39 -3q47 0 73.5 25t26.5 63q0 55 -58 106l-31 28q-83 75 -83 124q0 55 56 90l53 33q36 22 55 62.5t19 83.5q0 32 -18 54t-52 22q-47 0 -75 -40.5t-44 -117.5
l-81 -394q-35 -168 -98 -271q-68 -111 -160 -111q-46 0 -72 20l57 155h2l32 -126q6 -25 19 -25q37 0 66 84.5t63 246.5l73 344h-88v18h91q24 118 78 175t145 57q59 0 99 -27.5t40 -75.5q0 -38 -25.5 -65t-71.5 -56l-57 -36q-40 -26 -40 -62q0 -32 73 -97l45 -40
q35 -31 51 -57t16 -64z" />
    <glyph glyph-name="agrave" unicode="&#xe0;" horiz-adv-x="492" 
d="M351 78q0 -32 26 -32q33 0 60 53q23 44 41 121h2q-13 -96 -54 -162t-98 -66q-59 0 -59 71q0 39 23 129h-2q-35 -100 -74.5 -150t-90.5 -50q-45 0 -72 37.5t-27 110.5q0 84 34 166t92.5 135.5t123.5 53.5q69 0 82 -57l99 57l2 -1l-100 -368q-8 -32 -8 -48zM354 434
q-14 30 -57 30q-56 0 -102 -67q-33 -48 -54.5 -120t-21.5 -137q0 -93 48 -93q46 0 91 94q46 97 96 293zM315 703l119 -161l-1 -2l-242 161l-1 2h125z" />
    <glyph glyph-name="aacute" unicode="&#xe1;" horiz-adv-x="492" 
d="M351 78q0 -32 26 -32q33 0 60 53q23 44 41 121h2q-13 -96 -54 -162t-98 -66q-59 0 -59 71q0 39 23 129h-2q-35 -100 -74.5 -150t-90.5 -50q-45 0 -72 37.5t-27 110.5q0 84 34 166t92.5 135.5t123.5 53.5q69 0 82 -57l99 57l2 -1l-100 -368q-8 -32 -8 -48zM354 434
q-14 30 -57 30q-56 0 -102 -67q-33 -48 -54.5 -120t-21.5 -137q0 -93 48 -93q46 0 91 94q46 97 96 293zM385 703h125v-2l-241 -161l-2 2z" />
    <glyph glyph-name="acircumflex" unicode="&#xe2;" horiz-adv-x="492" 
d="M351 78q0 -32 26 -32q33 0 60 53q23 44 41 121h2q-13 -96 -54 -162t-98 -66q-59 0 -59 71q0 39 23 129h-2q-35 -100 -74.5 -150t-90.5 -50q-45 0 -72 37.5t-27 110.5q0 84 34 166t92.5 135.5t123.5 53.5q69 0 82 -57l99 57l2 -1l-100 -368q-8 -32 -8 -48zM354 434
q-14 30 -57 30q-56 0 -102 -67q-33 -48 -54.5 -120t-21.5 -137q0 -93 48 -93q46 0 91 94q46 97 96 293zM345 620l-160 -83l-1 2l177 173h2l105 -173l-2 -2z" />
    <glyph glyph-name="atilde" unicode="&#xe3;" horiz-adv-x="492" 
d="M351 78q0 -32 26 -32q33 0 60 53q23 44 41 121h2q-13 -96 -54 -162t-98 -66q-59 0 -59 71q0 39 23 129h-2q-35 -100 -74.5 -150t-90.5 -50q-45 0 -72 37.5t-27 110.5q0 84 34 166t92.5 135.5t123.5 53.5q69 0 82 -57l99 57l2 -1l-100 -368q-8 -32 -8 -48zM354 434
q-14 30 -57 30q-56 0 -102 -67q-33 -48 -54.5 -120t-21.5 -137q0 -93 48 -93q46 0 91 94q46 97 96 293zM396 561q-22 0 -61.5 23.5t-60.5 23.5q-41 0 -70 -48l-2 1q10 48 35.5 79t60.5 31q22 0 61 -23.5t60 -23.5q42 0 71 48l2 -1q-10 -48 -35.5 -79t-60.5 -31z" />
    <glyph glyph-name="adieresis" unicode="&#xe4;" horiz-adv-x="492" 
d="M351 78q0 -32 26 -32q33 0 60 53q23 44 41 121h2q-13 -96 -54 -162t-98 -66q-59 0 -59 71q0 39 23 129h-2q-35 -100 -74.5 -150t-90.5 -50q-45 0 -72 37.5t-27 110.5q0 84 34 166t92.5 135.5t123.5 53.5q69 0 82 -57l99 57l2 -1l-100 -368q-8 -32 -8 -48zM354 434
q-14 30 -57 30q-56 0 -102 -67q-33 -48 -54.5 -120t-21.5 -137q0 -93 48 -93q46 0 91 94q46 97 96 293zM266 676q21 0 34 -13t13 -34q0 -23 -17 -40.5t-43 -17.5q-20 0 -33 13t-13 34q0 23 17 40.5t42 17.5zM429 676q21 0 34 -13t13 -34q0 -23 -17 -40.5t-43 -17.5
q-20 0 -33 13t-13 34q0 23 17 40.5t42 17.5z" />
    <glyph glyph-name="aring" unicode="&#xe5;" horiz-adv-x="492" 
d="M351 78q0 -32 26 -32q33 0 60 53q23 44 41 121h2q-13 -96 -54 -162t-98 -66q-59 0 -59 71q0 39 23 129h-2q-35 -100 -74.5 -150t-90.5 -50q-45 0 -72 37.5t-27 110.5q0 84 34 166t92.5 135.5t123.5 53.5q69 0 82 -57l99 57l2 -1l-100 -368q-8 -32 -8 -48zM354 434
q-14 30 -57 30q-56 0 -102 -67q-33 -48 -54.5 -120t-21.5 -137q0 -93 48 -93q46 0 91 94q46 97 96 293zM333 542q-30 0 -49.5 19.5t-19.5 48.5q0 39 27.5 66t66.5 27q30 0 49.5 -19.5t19.5 -48.5q0 -39 -27.5 -66t-66.5 -27zM335 560q29 0 51 22t22 52q0 22 -14.5 36.5
t-37.5 14.5q-29 0 -51 -22t-22 -52q0 -22 14.5 -36.5t37.5 -14.5z" />
    <glyph glyph-name="ae" unicode="&#xe6;" horiz-adv-x="684" 
d="M674 399q0 -71 -79 -118t-172 -47q-23 0 -42 3q-4 -24 -4 -52q0 -61 25.5 -97t76.5 -36q58 0 102.5 44t62.5 131h2q-6 -65 -27 -113t-51 -73.5t-61.5 -37t-64.5 -11.5q-66 0 -112 46t-49 129h-1q-28 -91 -65 -133t-90 -42q-45 0 -72 37.5t-27 110.5q0 84 34 166
t92.5 135.5t123.5 53.5q37 0 64 -21.5t36 -62.5q79 84 177 84q53 0 87 -27.5t34 -68.5zM167 47q31 0 61 40.5t53 106.5q6 118 88 210q-23 60 -72 60q-56 0 -102 -67q-33 -48 -54.5 -120t-21.5 -137q0 -93 48 -93zM541 480q-50 0 -96.5 -72.5t-62.5 -161.5q6 -1 19 -1
q77 0 128 48t51 122q0 65 -39 65z" />
    <glyph glyph-name="ccedilla" unicode="&#xe7;" horiz-adv-x="404" 
d="M264 -125q0 -46 -37.5 -78.5t-92.5 -32.5q-45 0 -69 25t-22 60l2 1q3 -25 21.5 -40.5t43.5 -15.5q31 0 55.5 20.5t24.5 52.5q0 21 -14.5 34t-39.5 13q-19 0 -39 -7l-1 2l78 83q-65 2 -107.5 50t-42.5 136q0 123 80.5 220t197.5 97q58 0 107 -23l-61 -162h-2l-33 151
q-3 13 -6 16t-12 3q-52 0 -93.5 -50.5t-61.5 -117t-20 -128.5q0 -67 26 -99t68 -32q51 0 95 46t62 134h2q-14 -121 -66 -180.5t-126 -60.5l-20 -55q13 3 26 3q34 0 55.5 -18.5t21.5 -46.5z" />
    <glyph glyph-name="egrave" unicode="&#xe8;" horiz-adv-x="427" 
d="M185 -8q-68 0 -114.5 49t-46.5 137q0 77 36.5 150.5t100 120t135.5 46.5q53 0 87 -27.5t34 -68.5q0 -71 -79 -118t-172 -47q-22 0 -42 3q-4 -24 -4 -52q0 -61 25.5 -97t76.5 -36q52 0 99.5 45t65.5 130h2q-11 -86 -45.5 -141t-74 -74.5t-84.5 -19.5zM323 415q0 65 -39 65
q-50 0 -96.5 -72.5t-62.5 -161.5q6 -1 19 -1q77 0 128 48t51 122zM294 703l119 -161l-1 -2l-242 161l-1 2h125z" />
    <glyph glyph-name="eacute" unicode="&#xe9;" horiz-adv-x="427" 
d="M185 -8q-68 0 -114.5 49t-46.5 137q0 77 36.5 150.5t100 120t135.5 46.5q53 0 87 -27.5t34 -68.5q0 -71 -79 -118t-172 -47q-22 0 -42 3q-4 -24 -4 -52q0 -61 25.5 -97t76.5 -36q52 0 99.5 45t65.5 130h2q-11 -86 -45.5 -141t-74 -74.5t-84.5 -19.5zM323 415q0 65 -39 65
q-50 0 -96.5 -72.5t-62.5 -161.5q6 -1 19 -1q77 0 128 48t51 122zM364 703h125v-2l-241 -161l-2 2z" />
    <glyph glyph-name="ecircumflex" unicode="&#xea;" horiz-adv-x="427" 
d="M185 -8q-68 0 -114.5 49t-46.5 137q0 77 36.5 150.5t100 120t135.5 46.5q53 0 87 -27.5t34 -68.5q0 -71 -79 -118t-172 -47q-22 0 -42 3q-4 -24 -4 -52q0 -61 25.5 -97t76.5 -36q52 0 99.5 45t65.5 130h2q-11 -86 -45.5 -141t-74 -74.5t-84.5 -19.5zM323 415q0 65 -39 65
q-50 0 -96.5 -72.5t-62.5 -161.5q6 -1 19 -1q77 0 128 48t51 122zM324 620l-160 -83l-1 2l177 173h2l105 -173l-2 -2z" />
    <glyph glyph-name="edieresis" unicode="&#xeb;" horiz-adv-x="427" 
d="M185 -8q-68 0 -114.5 49t-46.5 137q0 77 36.5 150.5t100 120t135.5 46.5q53 0 87 -27.5t34 -68.5q0 -71 -79 -118t-172 -47q-22 0 -42 3q-4 -24 -4 -52q0 -61 25.5 -97t76.5 -36q52 0 99.5 45t65.5 130h2q-11 -86 -45.5 -141t-74 -74.5t-84.5 -19.5zM323 415q0 65 -39 65
q-50 0 -96.5 -72.5t-62.5 -161.5q6 -1 19 -1q77 0 128 48t51 122zM245 676q21 0 34 -13t13 -34q0 -23 -17 -40.5t-43 -17.5q-20 0 -33 13t-13 34q0 23 17 40.5t42 17.5zM408 676q21 0 34 -13t13 -34q0 -23 -17 -40.5t-43 -17.5q-20 0 -33 13t-13 34q0 23 17 40.5t42 17.5z
" />
    <glyph glyph-name="igrave" unicode="&#xec;" horiz-adv-x="273" 
d="M149 162q-18 -63 -18 -85q0 -29 24 -29q26 0 50 35q33 50 48 136h2q-5 -82 -49 -154.5t-104 -72.5q-27 0 -44 16.5t-17 49.5q0 32 14 83l78 286q4 15 -12 20l-86 30v2l206 16zM178 703l119 -161l-1 -2l-242 161l-1 2h125z" />
    <glyph glyph-name="iacute" unicode="&#xed;" horiz-adv-x="273" 
d="M149 162q-18 -63 -18 -85q0 -29 24 -29q26 0 50 35q33 50 48 136h2q-5 -82 -49 -154.5t-104 -72.5q-27 0 -44 16.5t-17 49.5q0 32 14 83l78 286q4 15 -12 20l-86 30v2l206 16zM248 703h125v-2l-241 -161l-2 2z" />
    <glyph glyph-name="icircumflex" unicode="&#xee;" horiz-adv-x="267" 
d="M137 162q-18 -63 -18 -85q0 -29 24 -29q26 0 50 35q33 50 48 136h2q-5 -82 -49 -154.5t-104 -72.5q-27 0 -44 16.5t-17 49.5q0 32 14 83l78 286q4 15 -12 20l-86 30v2l206 16zM184 620l-160 -83l-1 2l177 173h2l105 -173l-2 -2z" />
    <glyph glyph-name="idieresis" unicode="&#xef;" horiz-adv-x="267" 
d="M137 162q-18 -63 -18 -85q0 -29 24 -29q26 0 50 35q33 50 48 136h2q-5 -82 -49 -154.5t-104 -72.5q-27 0 -44 16.5t-17 49.5q0 32 14 83l78 286q4 15 -12 20l-86 30v2l206 16zM117 676q21 0 34 -13t13 -34q0 -23 -17 -40.5t-43 -17.5q-20 0 -33 13t-13 34q0 23 17 40.5
t42 17.5zM280 676q21 0 34 -13t13 -34q0 -23 -17 -40.5t-43 -17.5q-20 0 -33 13t-13 34q0 23 17 40.5t42 17.5z" />
    <glyph glyph-name="eth" unicode="&#xf0;" horiz-adv-x="475" 
d="M177 538l-7 15l150 78q-29 52 -84 80l1 2q12 -3 28 -8q58 -19 94 -54l120 62l6 -14l-114 -59q78 -82 78 -269q0 -98 -36.5 -185.5t-99.5 -141.5t-137 -54q-73 0 -111.5 51.5t-38.5 136.5q0 70 32.5 141.5t88 119.5t114.5 48q64 0 93 -50q-2 121 -27 179zM180 4
q46 0 87 65.5t64 162t23 190.5v4q-22 31 -63 31q-70 0 -118.5 -103.5t-48.5 -215.5q0 -134 56 -134z" />
    <glyph glyph-name="ntilde" unicode="&#xf1;" horiz-adv-x="519" 
d="M446 301l-48 -152q-16 -50 -16 -71q0 -30 25 -30q27 0 51 36q31 47 47 135h2q-9 -105 -56 -166t-103 -61q-27 0 -44 16t-17 49q0 31 24 105l51 159q19 59 19 87q0 34 -36 34q-64 0 -117 -94q-56 -98 -112 -348h-88l104 424q3 12 1.5 15.5t-10.5 6.5l-88 31v2l206 16
l-57 -215h2q36 102 91 158.5t116 56.5q37 0 58.5 -21t21.5 -56q0 -31 -27 -117zM393 561q-22 0 -61.5 23.5t-60.5 23.5q-41 0 -70 -48l-2 1q10 48 35.5 79t60.5 31q22 0 61 -23.5t60 -23.5q42 0 71 48l2 -1q-10 -48 -35.5 -79t-60.5 -31z" />
    <glyph glyph-name="ograve" unicode="&#xf2;" horiz-adv-x="460" 
d="M174 -10q-66 0 -107 44t-41 133q0 82 34 157.5t94 123t130 47.5q67 0 108.5 -45t41.5 -133q0 -126 -77 -226.5t-183 -100.5zM182 4q42 0 79 60.5t57 142.5t20 154q0 120 -59 120q-42 0 -79 -60.5t-57 -142.5t-20 -154q0 -120 59 -120zM288 703l119 -161l-1 -2l-242 161
l-1 2h125z" />
    <glyph glyph-name="oacute" unicode="&#xf3;" horiz-adv-x="460" 
d="M174 -10q-66 0 -107 44t-41 133q0 82 34 157.5t94 123t130 47.5q67 0 108.5 -45t41.5 -133q0 -126 -77 -226.5t-183 -100.5zM182 4q42 0 79 60.5t57 142.5t20 154q0 120 -59 120q-42 0 -79 -60.5t-57 -142.5t-20 -154q0 -120 59 -120zM358 703h125v-2l-241 -161l-2 2z
" />
    <glyph glyph-name="ocircumflex" unicode="&#xf4;" horiz-adv-x="460" 
d="M174 -10q-66 0 -107 44t-41 133q0 82 34 157.5t94 123t130 47.5q67 0 108.5 -45t41.5 -133q0 -126 -77 -226.5t-183 -100.5zM182 4q42 0 79 60.5t57 142.5t20 154q0 120 -59 120q-42 0 -79 -60.5t-57 -142.5t-20 -154q0 -120 59 -120zM318 620l-160 -83l-1 2l177 173h2
l105 -173l-2 -2z" />
    <glyph glyph-name="otilde" unicode="&#xf5;" horiz-adv-x="460" 
d="M174 -10q-66 0 -107 44t-41 133q0 82 34 157.5t94 123t130 47.5q67 0 108.5 -45t41.5 -133q0 -126 -77 -226.5t-183 -100.5zM182 4q42 0 79 60.5t57 142.5t20 154q0 120 -59 120q-42 0 -79 -60.5t-57 -142.5t-20 -154q0 -120 59 -120zM369 561q-22 0 -61.5 23.5
t-60.5 23.5q-41 0 -70 -48l-2 1q10 48 35.5 79t60.5 31q22 0 61 -23.5t60 -23.5q42 0 71 48l2 -1q-10 -48 -35.5 -79t-60.5 -31z" />
    <glyph glyph-name="odieresis" unicode="&#xf6;" horiz-adv-x="460" 
d="M174 -10q-66 0 -107 44t-41 133q0 82 34 157.5t94 123t130 47.5q67 0 108.5 -45t41.5 -133q0 -126 -77 -226.5t-183 -100.5zM182 4q42 0 79 60.5t57 142.5t20 154q0 120 -59 120q-42 0 -79 -60.5t-57 -142.5t-20 -154q0 -120 59 -120zM239 676q21 0 34 -13t13 -34
q0 -23 -17 -40.5t-43 -17.5q-20 0 -33 13t-13 34q0 23 17 40.5t42 17.5zM402 676q21 0 34 -13t13 -34q0 -23 -17 -40.5t-43 -17.5q-20 0 -33 13t-13 34q0 23 17 40.5t42 17.5z" />
    <glyph glyph-name="divide" unicode="&#xf7;" horiz-adv-x="540" 
d="M262 409q-23 0 -38 15t-15 39q0 26 19.5 46t48.5 20q23 0 38 -15t15 -39q0 -26 -19.5 -46t-48.5 -20zM262 89q-23 0 -38 15t-15 39q0 26 19.5 46t48.5 20q23 0 38 -15t15 -39q0 -26 -19.5 -46t-48.5 -20zM50 304v17h440v-17h-440z" />
    <glyph glyph-name="oslash" unicode="&#xf8;" horiz-adv-x="460" 
d="M174 -10q-25 0 -46 6l-34 -77l-18 6l34 78q-84 37 -84 164q0 82 34 157.5t94 123t130 47.5q19 0 42 -5l27 61l17 -6l-27 -61q91 -35 91 -167q0 -126 -77 -226.5t-183 -100.5zM182 4q42 0 79 60.5t57 142.5t20 154q0 53 -13 83l-183 -417q15 -23 40 -23zM123 124
q0 -45 8 -73l183 413q-14 17 -35 17q-42 0 -79 -60.5t-57 -142.5t-20 -154z" />
    <glyph glyph-name="ugrave" unicode="&#xf9;" horiz-adv-x="524" 
d="M389 76q0 -29 24 -29q30 0 54 39q27 42 46 133h2q-15 -126 -71 -187q-35 -40 -78 -40q-27 0 -44 17.5t-17 53.5q0 46 26 144h-2q-35 -101 -89.5 -158t-110.5 -57q-37 0 -58.5 21t-21.5 56q0 31 27 117l48 152q16 50 16 71q0 30 -25 30q-27 0 -51 -36q-31 -47 -47 -135h-2
q9 105 56 166t103 61q27 0 44 -16t17 -48t-24 -106l-51 -159q-19 -59 -19 -87q0 -36 38 -36q53 0 108 96q50 85 112 348h88l-92 -368q-6 -22 -6 -43zM321 703l119 -161l-1 -2l-242 161l-1 2h125z" />
    <glyph glyph-name="uacute" unicode="&#xfa;" horiz-adv-x="524" 
d="M389 76q0 -29 24 -29q30 0 54 39q27 42 46 133h2q-15 -126 -71 -187q-35 -40 -78 -40q-27 0 -44 17.5t-17 53.5q0 46 26 144h-2q-35 -101 -89.5 -158t-110.5 -57q-37 0 -58.5 21t-21.5 56q0 31 27 117l48 152q16 50 16 71q0 30 -25 30q-27 0 -51 -36q-31 -47 -47 -135h-2
q9 105 56 166t103 61q27 0 44 -16t17 -48t-24 -106l-51 -159q-19 -59 -19 -87q0 -36 38 -36q53 0 108 96q50 85 112 348h88l-92 -368q-6 -22 -6 -43zM391 703h125v-2l-241 -161l-2 2z" />
    <glyph glyph-name="ucircumflex" unicode="&#xfb;" horiz-adv-x="524" 
d="M389 76q0 -29 24 -29q30 0 54 39q27 42 46 133h2q-15 -126 -71 -187q-35 -40 -78 -40q-27 0 -44 17.5t-17 53.5q0 46 26 144h-2q-35 -101 -89.5 -158t-110.5 -57q-37 0 -58.5 21t-21.5 56q0 31 27 117l48 152q16 50 16 71q0 30 -25 30q-27 0 -51 -36q-31 -47 -47 -135h-2
q9 105 56 166t103 61q27 0 44 -16t17 -48t-24 -106l-51 -159q-19 -59 -19 -87q0 -36 38 -36q53 0 108 96q50 85 112 348h88l-92 -368q-6 -22 -6 -43zM351 620l-160 -83l-1 2l177 173h2l105 -173l-2 -2z" />
    <glyph glyph-name="udieresis" unicode="&#xfc;" horiz-adv-x="524" 
d="M389 76q0 -29 24 -29q30 0 54 39q27 42 46 133h2q-15 -126 -71 -187q-35 -40 -78 -40q-27 0 -44 17.5t-17 53.5q0 46 26 144h-2q-35 -101 -89.5 -158t-110.5 -57q-37 0 -58.5 21t-21.5 56q0 31 27 117l48 152q16 50 16 71q0 30 -25 30q-27 0 -51 -36q-31 -47 -47 -135h-2
q9 105 56 166t103 61q27 0 44 -16t17 -48t-24 -106l-51 -159q-19 -59 -19 -87q0 -36 38 -36q53 0 108 96q50 85 112 348h88l-92 -368q-6 -22 -6 -43zM272 676q21 0 34 -13t13 -34q0 -23 -17 -40.5t-43 -17.5q-20 0 -33 13t-13 34q0 23 17 40.5t42 17.5zM435 676q21 0 34 -13
t13 -34q0 -23 -17 -40.5t-43 -17.5q-20 0 -33 13t-13 34q0 23 17 40.5t42 17.5z" />
    <glyph glyph-name="yacute" unicode="&#xfd;" horiz-adv-x="425" 
d="M360 338q0 72 -47 114v2l118 41q-14 -134 -66 -265t-125 -235q-75 -106 -156.5 -168.5t-142.5 -62.5q-15 0 -23 4l48 140h2l61 -80q10 -13 25 -3q44 28 102 88q6 7 6 22v25q0 124 -16 255.5t-33 181.5q-12 36 -32 36q-36 0 -79 -137l-2 1q49 198 131 198q47 0 70 -74
q20 -65 31.5 -175.5t8.5 -221.5h2q44 66 72 131q45 104 45 183zM330 703h125v-2l-241 -161l-2 2z" />
    <glyph glyph-name="thorn" unicode="&#xfe;" horiz-adv-x="453" 
d="M255 720l-97 -425h2q64 200 166 200q46 0 73 -39t27 -111q0 -141 -80 -247t-174 -106q-53 0 -78 22l-35 -173q-2 -9 -2 -12.5t2.5 -5.5t8.5 -4l119 -45v-2h-291v2l54 34q17 11 21 27l177 814q3 12 1.5 15.5t-10.5 6.5l-88 31v2zM182 324q-44 -97 -87 -303q20 -11 46 -11
q71 0 126 87q65 104 65 260q0 39 -12.5 61.5t-32.5 22.5q-53 0 -105 -117z" />
    <glyph glyph-name="ydieresis" unicode="&#xff;" horiz-adv-x="425" 
d="M360 338q0 72 -47 114v2l118 41q-14 -134 -66 -265t-125 -235q-75 -106 -156.5 -168.5t-142.5 -62.5q-15 0 -23 4l48 140h2l61 -80q10 -13 25 -3q44 28 102 88q6 7 6 22v25q0 124 -16 255.5t-33 181.5q-12 36 -32 36q-36 0 -79 -137l-2 1q49 198 131 198q47 0 70 -74
q20 -65 31.5 -175.5t8.5 -221.5h2q44 66 72 131q45 104 45 183zM211 676q21 0 34 -13t13 -34q0 -23 -17 -40.5t-43 -17.5q-20 0 -33 13t-13 34q0 23 17 40.5t42 17.5zM374 676q21 0 34 -13t13 -34q0 -23 -17 -40.5t-43 -17.5q-20 0 -33 13t-13 34q0 23 17 40.5t42 17.5z" />
    <glyph glyph-name="Amacron" unicode="&#x100;" horiz-adv-x="611" 
d="M515 82q3 -24 15 -38l34 -42v-2h-239v2l83 54q12 7 9 25l-21 165h-237l-78 -143q-6 -13 -5 -17t13 -16l70 -68v-2h-225v2l95 68q22 16 33 36l273 498q8 16 7.5 21t-7.5 16l-42 60v2h143zM352 598l-183 -334h225zM514 807h-246v18h246v-18z" />
    <glyph glyph-name="amacron" unicode="&#x101;" horiz-adv-x="492" 
d="M351 78q0 -32 26 -32q33 0 60 53q23 44 41 121h2q-13 -96 -54 -162t-98 -66q-59 0 -59 71q0 39 23 129h-2q-35 -100 -74.5 -150t-90.5 -50q-45 0 -72 37.5t-27 110.5q0 84 34 166t92.5 135.5t123.5 53.5q69 0 82 -57l99 57l2 -1l-100 -368q-8 -32 -8 -48zM354 434
q-14 30 -57 30q-56 0 -102 -67q-33 -48 -54.5 -120t-21.5 -137q0 -93 48 -93q46 0 91 94q46 97 96 293zM463 591h-246v18h246v-18z" />
    <glyph glyph-name="Abreve" unicode="&#x102;" horiz-adv-x="611" 
d="M515 82q3 -24 15 -38l34 -42v-2h-239v2l83 54q12 7 9 25l-21 165h-237l-78 -143q-6 -13 -5 -17t13 -16l70 -68v-2h-225v2l95 68q22 16 33 36l273 498q8 16 7.5 21t-7.5 16l-42 60v2h143zM352 598l-183 -334h225zM384 758q-43 0 -74 23.5t-31 69.5q0 30 14 65h2
q-8 -45 18.5 -71.5t73.5 -26.5q48 0 85 26.5t48 71.5h2q-3 -80 -42.5 -119t-95.5 -39z" />
    <glyph glyph-name="abreve" unicode="&#x103;" horiz-adv-x="492" 
d="M351 78q0 -32 26 -32q33 0 60 53q23 44 41 121h2q-13 -96 -54 -162t-98 -66q-59 0 -59 71q0 39 23 129h-2q-35 -100 -74.5 -150t-90.5 -50q-45 0 -72 37.5t-27 110.5q0 84 34 166t92.5 135.5t123.5 53.5q69 0 82 -57l99 57l2 -1l-100 -368q-8 -32 -8 -48zM354 434
q-14 30 -57 30q-56 0 -102 -67q-33 -48 -54.5 -120t-21.5 -137q0 -93 48 -93q46 0 91 94q46 97 96 293zM333 542q-43 0 -74 23.5t-31 69.5q0 30 14 65h2q-8 -45 18.5 -71.5t73.5 -26.5q48 0 85 26.5t48 71.5h2q-3 -80 -42.5 -119t-95.5 -39z" />
    <glyph glyph-name="Aogonek" unicode="&#x104;" horiz-adv-x="611" 
d="M257 -236q-32 0 -56.5 21t-24.5 57q0 55 45.5 98.5t107.5 63.5l79 52q12 7 9 25l-21 165h-237l-78 -143q-6 -13 -5 -17t13 -16l70 -68v-2h-225v2l95 68q22 16 33 36l273 498q8 16 7.5 21t-7.5 16l-42 60v2h143l79 -621q3 -24 15 -38l34 -42v-2h-225q-39 -13 -68 -50
t-29 -79q0 -27 17 -41.5t44 -14.5q47 0 79 35l2 -1q-54 -85 -127 -85zM352 598l-183 -334h225z" />
    <glyph glyph-name="aogonek" unicode="&#x105;" horiz-adv-x="492" 
d="M262 -236q-32 0 -56.5 21t-24.5 57q0 53 42 91.5t103 58.5q-57 2 -57 71q0 39 23 129h-2q-35 -100 -74.5 -150t-90.5 -50q-45 0 -72 37.5t-27 110.5q0 84 34 166t92.5 135.5t123.5 53.5q69 0 82 -57l99 57l2 -1l-100 -368q-8 -32 -8 -48q0 -32 26 -32q33 0 60 53
q23 44 41 121h2q-12 -88 -48 -152t-87 -74q-40 -17 -69 -50.5t-29 -72.5q0 -27 17 -41.5t44 -14.5q47 0 79 35l2 -1q-54 -85 -127 -85zM354 434q-14 30 -57 30q-56 0 -102 -67q-33 -48 -54.5 -120t-21.5 -137q0 -93 48 -93q46 0 91 94q46 97 96 293z" />
    <glyph glyph-name="Cacute" unicode="&#x106;" horiz-adv-x="571" 
d="M146 230q0 -63 14.5 -112t50 -81.5t88.5 -32.5q17 0 38 3q19 2 29 16l139 205h2l-43 -214q-92 -24 -170 -24q-122 0 -188.5 77t-66.5 197q0 117 48 219.5t136 166t195 63.5q98 0 186 -25l-47 -214h-2l-60 198q-3 10 -6.5 14.5t-6.5 6t-10 2.5q-21 3 -40 3q-69 0 -126 -48
t-90.5 -121t-51.5 -151t-18 -148zM514 919h125v-2l-241 -161l-2 2z" />
    <glyph glyph-name="cacute" unicode="&#x107;" horiz-adv-x="404" 
d="M179 -8q-66 0 -110.5 48.5t-44.5 137.5q0 123 80.5 220t197.5 97q58 0 107 -23l-61 -162h-2l-33 151q-3 13 -6 16t-12 3q-52 0 -93.5 -50.5t-61.5 -117t-20 -128.5q0 -67 26 -99t68 -32q51 0 95 46t62 134h2q-14 -122 -66.5 -181.5t-127.5 -59.5zM366 703h125v-2
l-241 -161l-2 2z" />
    <glyph glyph-name="Ccircumflex" unicode="&#x108;" horiz-adv-x="571" 
d="M146 230q0 -63 14.5 -112t50 -81.5t88.5 -32.5q17 0 38 3q19 2 29 16l139 205h2l-43 -214q-92 -24 -170 -24q-122 0 -188.5 77t-66.5 197q0 117 48 219.5t136 166t195 63.5q98 0 186 -25l-47 -214h-2l-60 198q-3 10 -6.5 14.5t-6.5 6t-10 2.5q-21 3 -40 3q-69 0 -126 -48
t-90.5 -121t-51.5 -151t-18 -148zM474 836l-160 -83l-1 2l177 173h2l105 -173l-2 -2z" />
    <glyph glyph-name="ccircumflex" unicode="&#x109;" horiz-adv-x="404" 
d="M179 -8q-66 0 -110.5 48.5t-44.5 137.5q0 123 80.5 220t197.5 97q58 0 107 -23l-61 -162h-2l-33 151q-3 13 -6 16t-12 3q-52 0 -93.5 -50.5t-61.5 -117t-20 -128.5q0 -67 26 -99t68 -32q51 0 95 46t62 134h2q-14 -122 -66.5 -181.5t-127.5 -59.5zM326 620l-160 -83l-1 2
l177 173h2l105 -173l-2 -2z" />
    <glyph glyph-name="Cdotaccent" unicode="&#x10a;" horiz-adv-x="571" 
d="M146 230q0 -63 14.5 -112t50 -81.5t88.5 -32.5q17 0 38 3q19 2 29 16l139 205h2l-43 -214q-92 -24 -170 -24q-122 0 -188.5 77t-66.5 197q0 117 48 219.5t136 166t195 63.5q98 0 186 -25l-47 -214h-2l-60 198q-3 10 -6.5 14.5t-6.5 6t-10 2.5q-21 3 -40 3q-69 0 -126 -48
t-90.5 -121t-51.5 -151t-18 -148zM463 771q-23 0 -38 15t-15 39q0 26 19.5 46t48.5 20q23 0 38 -15t15 -39q0 -26 -19.5 -46t-48.5 -20z" />
    <glyph glyph-name="cdotaccent" unicode="&#x10b;" horiz-adv-x="404" 
d="M179 -8q-66 0 -110.5 48.5t-44.5 137.5q0 123 80.5 220t197.5 97q58 0 107 -23l-61 -162h-2l-33 151q-3 13 -6 16t-12 3q-52 0 -93.5 -50.5t-61.5 -117t-20 -128.5q0 -67 26 -99t68 -32q51 0 95 46t62 134h2q-14 -122 -66.5 -181.5t-127.5 -59.5zM315 555q-23 0 -38 15
t-15 39q0 26 19.5 46t48.5 20q23 0 38 -15t15 -39q0 -26 -19.5 -46t-48.5 -20z" />
    <glyph glyph-name="Ccaron" unicode="&#x10c;" horiz-adv-x="571" 
d="M146 230q0 -63 14.5 -112t50 -81.5t88.5 -32.5q17 0 38 3q19 2 29 16l139 205h2l-43 -214q-92 -24 -170 -24q-122 0 -188.5 77t-66.5 197q0 117 48 219.5t136 166t195 63.5q98 0 186 -25l-47 -214h-2l-60 198q-3 10 -6.5 14.5t-6.5 6t-10 2.5q-21 3 -40 3q-69 0 -126 -48
t-90.5 -121t-51.5 -151t-18 -148zM457 745h-2l-105 173l2 2l123 -75l158 75l1 -2z" />
    <glyph glyph-name="ccaron" unicode="&#x10d;" horiz-adv-x="404" 
d="M179 -8q-66 0 -110.5 48.5t-44.5 137.5q0 123 80.5 220t197.5 97q58 0 107 -23l-61 -162h-2l-33 151q-3 13 -6 16t-12 3q-52 0 -93.5 -50.5t-61.5 -117t-20 -128.5q0 -67 26 -99t68 -32q51 0 95 46t62 134h2q-14 -122 -66.5 -181.5t-127.5 -59.5zM309 529h-2l-105 173
l2 2l123 -75l158 75l1 -2z" />
    <glyph glyph-name="Dcaron" unicode="&#x10e;" horiz-adv-x="648" 
d="M645 434q0 -177 -121.5 -305.5t-286.5 -128.5h-283v2l96 47q15 7 18 20l119 565q2 13 -9 20l-76 47v2h274q116 0 192.5 -73.5t76.5 -195.5zM310 685q-9 0 -13.5 -4t-6.5 -16l-131 -623q-4 -16 -0.5 -20t22.5 -4h21q124 0 204 80t113 207q21 77 21 170q0 103 -49 156.5
t-129 53.5h-52zM385 745h-2l-105 173l2 2l123 -75l158 75l1 -2z" />
    <glyph glyph-name="dcaron" unicode="&#x10f;" horiz-adv-x="482" 
d="M406 30q-33 -38 -72 -38q-63 0 -64 70q0 41 23 130h-2q-68 -200 -165 -200q-43 0 -71.5 40t-28.5 108q0 142 78 248.5t172 106.5q58 0 75 -47l47 201q3 12 1.5 15.5t-10.5 6.5l-88 31v2l204 16l-146 -600q-6 -28 -6 -40q0 -34 26 -34q61 0 98 174h2q-16 -128 -73 -190z
M262 147q39 90 86 289l1 5q-18 24 -52 24q-60 0 -109 -74q-34 -53 -51.5 -121.5t-17.5 -129.5q0 -93 48 -93q25 0 51 29t44 71zM564 703h96l-139 -191h-1z" />
    <glyph glyph-name="Dcroat" unicode="&#x110;" horiz-adv-x="669" 
d="M40 347v18h104l57 269q2 13 -9 20l-76 47v2h274q116 0 192.5 -73.5t76.5 -195.5q0 -177 -121.5 -305.5t-286.5 -128.5h-283v2l96 47q15 7 18 20l58 278h-100zM324 685q-9 0 -13.5 -4t-6.5 -16l-63 -300h117v-18h-121l-64 -305q-4 -16 -0.5 -20t22.5 -4h21q124 0 204 80
t113 207q21 77 21 170q0 103 -49 156.5t-129 53.5h-52z" />
    <glyph glyph-name="dcroat" unicode="&#x111;" horiz-adv-x="485" 
d="M334 -8q-63 0 -64 70q0 41 23 130h-2q-68 -200 -165 -200q-43 0 -71.5 40t-28.5 108q0 142 78 248.5t172 106.5q58 0 75 -47l26 114h-131v17h135l17 70q3 12 1.5 15.5t-10.5 6.5l-88 31v2l204 16l-35 -141h71v-17h-75l-107 -442q-6 -28 -6 -40q0 -34 26 -34q61 0 98 174
h2q-16 -128 -73 -190q-33 -38 -72 -38zM262 147q39 90 86 289l1 5q-18 24 -52 24q-60 0 -109 -74q-34 -53 -51.5 -121.5t-17.5 -129.5q0 -93 48 -93q25 0 51 29t44 71z" />
    <glyph glyph-name="Emacron" unicode="&#x112;" horiz-adv-x="588" 
d="M621 703l-45 -216h-2l-47 180q-3 11 -8.5 14.5t-16.5 3.5h-178q-10 0 -13.5 -4.5t-6.5 -18.5l-62 -294h123q15 1 32 19l82 89h2l-49 -234h-2l-45 90q-9 18 -25 18h-122l-65 -309q-3 -14 -1 -18.5t12 -4.5h178q25 0 37 13l127 182h2l-45 -213h-515v2l96 47q15 7 18 20
l119 565q2 13 -9 20l-76 47v2h505zM543 807h-246v18h246v-18z" />
    <glyph glyph-name="emacron" unicode="&#x113;" horiz-adv-x="427" 
d="M185 -8q-68 0 -114.5 49t-46.5 137q0 77 36.5 150.5t100 120t135.5 46.5q53 0 87 -27.5t34 -68.5q0 -71 -79 -118t-172 -47q-22 0 -42 3q-4 -24 -4 -52q0 -61 25.5 -97t76.5 -36q52 0 99.5 45t65.5 130h2q-11 -86 -45.5 -141t-74 -74.5t-84.5 -19.5zM323 415q0 65 -39 65
q-50 0 -96.5 -72.5t-62.5 -161.5q6 -1 19 -1q77 0 128 48t51 122zM442 591h-246v18h246v-18z" />
    <glyph glyph-name="Ebreve" unicode="&#x114;" horiz-adv-x="588" 
d="M621 703l-45 -216h-2l-47 180q-3 11 -8.5 14.5t-16.5 3.5h-178q-10 0 -13.5 -4.5t-6.5 -18.5l-62 -294h123q15 1 32 19l82 89h2l-49 -234h-2l-45 90q-9 18 -25 18h-122l-65 -309q-3 -14 -1 -18.5t12 -4.5h178q25 0 37 13l127 182h2l-45 -213h-515v2l96 47q15 7 18 20
l119 565q2 13 -9 20l-76 47v2h505zM413 758q-43 0 -74 23.5t-31 69.5q0 30 14 65h2q-8 -45 18.5 -71.5t73.5 -26.5q48 0 85 26.5t48 71.5h2q-3 -80 -42.5 -119t-95.5 -39z" />
    <glyph glyph-name="ebreve" unicode="&#x115;" horiz-adv-x="427" 
d="M185 -8q-68 0 -114.5 49t-46.5 137q0 77 36.5 150.5t100 120t135.5 46.5q53 0 87 -27.5t34 -68.5q0 -71 -79 -118t-172 -47q-22 0 -42 3q-4 -24 -4 -52q0 -61 25.5 -97t76.5 -36q52 0 99.5 45t65.5 130h2q-11 -86 -45.5 -141t-74 -74.5t-84.5 -19.5zM323 415q0 65 -39 65
q-50 0 -96.5 -72.5t-62.5 -161.5q6 -1 19 -1q77 0 128 48t51 122zM312 542q-43 0 -74 23.5t-31 69.5q0 30 14 65h2q-8 -45 18.5 -71.5t73.5 -26.5q48 0 85 26.5t48 71.5h2q-3 -80 -42.5 -119t-95.5 -39z" />
    <glyph glyph-name="Edotaccent" unicode="&#x116;" horiz-adv-x="588" 
d="M621 703l-45 -216h-2l-47 180q-3 11 -8.5 14.5t-16.5 3.5h-178q-10 0 -13.5 -4.5t-6.5 -18.5l-62 -294h123q15 1 32 19l82 89h2l-49 -234h-2l-45 90q-9 18 -25 18h-122l-65 -309q-3 -14 -1 -18.5t12 -4.5h178q25 0 37 13l127 182h2l-45 -213h-515v2l96 47q15 7 18 20
l119 565q2 13 -9 20l-76 47v2h505zM414 771q-23 0 -38 15t-15 39q0 26 19.5 46t48.5 20q23 0 38 -15t15 -39q0 -26 -19.5 -46t-48.5 -20z" />
    <glyph glyph-name="edotaccent" unicode="&#x117;" horiz-adv-x="427" 
d="M185 -8q-68 0 -114.5 49t-46.5 137q0 77 36.5 150.5t100 120t135.5 46.5q53 0 87 -27.5t34 -68.5q0 -71 -79 -118t-172 -47q-22 0 -42 3q-4 -24 -4 -52q0 -61 25.5 -97t76.5 -36q52 0 99.5 45t65.5 130h2q-11 -86 -45.5 -141t-74 -74.5t-84.5 -19.5zM323 415q0 65 -39 65
q-50 0 -96.5 -72.5t-62.5 -161.5q6 -1 19 -1q77 0 128 48t51 122zM313 555q-23 0 -38 15t-15 39q0 26 19.5 46t48.5 20q23 0 38 -15t15 -39q0 -26 -19.5 -46t-48.5 -20z" />
    <glyph glyph-name="Eogonek" unicode="&#x118;" horiz-adv-x="588" 
d="M306 -236q-32 0 -56.5 21t-24.5 57q0 55 44.5 97.5t105.5 60.5h-407v2l96 47q15 7 18 20l119 565q2 13 -9 20l-76 47v2h505l-45 -216h-2l-47 180q-3 11 -8.5 14.5t-16.5 3.5h-178q-10 0 -13.5 -4.5t-6.5 -18.5l-62 -294h123q15 1 32 19l82 89h2l-49 -234h-2l-45 90
q-9 18 -25 18h-122l-65 -309q-3 -14 -1 -18.5t12 -4.5h178q25 0 37 13l127 182h2l-45 -213h-94q-41 -20 -69.5 -54.5t-28.5 -74.5q0 -27 17 -41.5t44 -14.5q47 0 79 35l2 -1q-54 -85 -127 -85z" />
    <glyph glyph-name="eogonek" unicode="&#x119;" horiz-adv-x="427" 
d="M118 -236q-32 0 -56.5 21t-24.5 57q0 52 39.5 90.5t98.5 60.5q-65 3 -108 51.5t-43 133.5q0 77 36.5 150.5t100 120t135.5 46.5q53 0 87 -27.5t34 -68.5q0 -71 -79 -118t-172 -47q-22 0 -42 3q-4 -24 -4 -52q0 -61 25.5 -97t76.5 -36q52 0 99.5 45t65.5 130h2
q-9 -65 -30 -112.5t-50 -73t-59.5 -37.5t-63.5 -12q-83 -49 -83 -121q0 -27 17 -41.5t44 -14.5q47 0 79 35l2 -1q-54 -85 -127 -85zM284 480q-50 0 -96.5 -72.5t-62.5 -161.5q6 -1 19 -1q77 0 128 48t51 122q0 65 -39 65z" />
    <glyph glyph-name="Ecaron" unicode="&#x11a;" horiz-adv-x="588" 
d="M621 703l-45 -216h-2l-47 180q-3 11 -8.5 14.5t-16.5 3.5h-178q-10 0 -13.5 -4.5t-6.5 -18.5l-62 -294h123q15 1 32 19l82 89h2l-49 -234h-2l-45 90q-9 18 -25 18h-122l-65 -309q-3 -14 -1 -18.5t12 -4.5h178q25 0 37 13l127 182h2l-45 -213h-515v2l96 47q15 7 18 20
l119 565q2 13 -9 20l-76 47v2h505zM408 745h-2l-105 173l2 2l123 -75l158 75l1 -2z" />
    <glyph glyph-name="ecaron" unicode="&#x11b;" horiz-adv-x="427" 
d="M185 -8q-68 0 -114.5 49t-46.5 137q0 77 36.5 150.5t100 120t135.5 46.5q53 0 87 -27.5t34 -68.5q0 -71 -79 -118t-172 -47q-22 0 -42 3q-4 -24 -4 -52q0 -61 25.5 -97t76.5 -36q52 0 99.5 45t65.5 130h2q-11 -86 -45.5 -141t-74 -74.5t-84.5 -19.5zM323 415q0 65 -39 65
q-50 0 -96.5 -72.5t-62.5 -161.5q6 -1 19 -1q77 0 128 48t51 122zM307 529h-2l-105 173l2 2l123 -75l158 75l1 -2z" />
    <glyph glyph-name="Gcircumflex" unicode="&#x11c;" horiz-adv-x="642" 
d="M634 691l-44 -211h-2l-59 192q-4 12 -8 15.5t-15 5.5q-23 4 -48 4q-70 0 -126 -34t-90 -86t-56.5 -117.5t-31 -124t-8.5 -110.5q0 -103 41.5 -161t119.5 -58q47 0 98 18l45 212q2 13 1.5 16.5t-7.5 7.5l-69 48v2h277v-2l-88 -47q-13 -6 -17 -25l-52 -246l-85 19
q-63 -19 -108 -19q-127 0 -195 77t-68 204q0 120 50.5 220.5t144.5 161t213 60.5q98 0 187 -22zM466 836l-160 -83l-1 2l177 173h2l105 -173l-2 -2z" />
    <glyph glyph-name="gcircumflex" unicode="&#x11d;" horiz-adv-x="452" 
d="M475 436h-89q27 -37 27 -84q0 -82 -60 -132t-140 -50q-32 0 -60 11q-25 -5 -42 -18.5t-17 -28.5q0 -26 58 -40l111 -25q59 -13 89 -48t30 -82q0 -73 -69.5 -124t-165.5 -51q-47 0 -91 13.5t-76 45t-32 73.5q0 48 43 80t103 44q-33 10 -52 29t-19 43q0 34 31 59t88 34
q-36 17 -57.5 50t-21.5 77q0 82 60.5 132t140.5 50q57 0 103 -36q13 -10 22 0l118 138h2zM207 -6q-98 21 -106 24q-82 -39 -82 -116q0 -56 42 -89.5t99 -33.5q64 0 107 33.5t43 86.5q0 72 -103 95zM266 481q-53 0 -84.5 -64.5t-31.5 -137.5q0 -96 58 -96q54 0 85.5 64.5
t31.5 137.5q0 44 -15 70t-44 26zM295 620l-160 -83l-1 2l177 173h2l105 -173l-2 -2z" />
    <glyph glyph-name="Gbreve" unicode="&#x11e;" horiz-adv-x="642" 
d="M634 691l-44 -211h-2l-59 192q-4 12 -8 15.5t-15 5.5q-23 4 -48 4q-70 0 -126 -34t-90 -86t-56.5 -117.5t-31 -124t-8.5 -110.5q0 -103 41.5 -161t119.5 -58q47 0 98 18l45 212q2 13 1.5 16.5t-7.5 7.5l-69 48v2h277v-2l-88 -47q-13 -6 -17 -25l-52 -246l-85 19
q-63 -19 -108 -19q-127 0 -195 77t-68 204q0 120 50.5 220.5t144.5 161t213 60.5q98 0 187 -22zM454 758q-43 0 -74 23.5t-31 69.5q0 30 14 65h2q-8 -45 18.5 -71.5t73.5 -26.5q48 0 85 26.5t48 71.5h2q-3 -80 -42.5 -119t-95.5 -39z" />
    <glyph glyph-name="gbreve" unicode="&#x11f;" horiz-adv-x="452" 
d="M475 436h-89q27 -37 27 -84q0 -82 -60 -132t-140 -50q-32 0 -60 11q-25 -5 -42 -18.5t-17 -28.5q0 -26 58 -40l111 -25q59 -13 89 -48t30 -82q0 -73 -69.5 -124t-165.5 -51q-47 0 -91 13.5t-76 45t-32 73.5q0 48 43 80t103 44q-33 10 -52 29t-19 43q0 34 31 59t88 34
q-36 17 -57.5 50t-21.5 77q0 82 60.5 132t140.5 50q57 0 103 -36q13 -10 22 0l118 138h2zM207 -6q-98 21 -106 24q-82 -39 -82 -116q0 -56 42 -89.5t99 -33.5q64 0 107 33.5t43 86.5q0 72 -103 95zM266 481q-53 0 -84.5 -64.5t-31.5 -137.5q0 -96 58 -96q54 0 85.5 64.5
t31.5 137.5q0 44 -15 70t-44 26zM283 542q-43 0 -74 23.5t-31 69.5q0 30 14 65h2q-8 -45 18.5 -71.5t73.5 -26.5q48 0 85 26.5t48 71.5h2q-3 -80 -42.5 -119t-95.5 -39z" />
    <glyph glyph-name="Gdotaccent" unicode="&#x120;" horiz-adv-x="642" 
d="M634 691l-44 -211h-2l-59 192q-4 12 -8 15.5t-15 5.5q-23 4 -48 4q-70 0 -126 -34t-90 -86t-56.5 -117.5t-31 -124t-8.5 -110.5q0 -103 41.5 -161t119.5 -58q47 0 98 18l45 212q2 13 1.5 16.5t-7.5 7.5l-69 48v2h277v-2l-88 -47q-13 -6 -17 -25l-52 -246l-85 19
q-63 -19 -108 -19q-127 0 -195 77t-68 204q0 120 50.5 220.5t144.5 161t213 60.5q98 0 187 -22zM455 771q-23 0 -38 15t-15 39q0 26 19.5 46t48.5 20q23 0 38 -15t15 -39q0 -26 -19.5 -46t-48.5 -20z" />
    <glyph glyph-name="gdotaccent" unicode="&#x121;" horiz-adv-x="452" 
d="M475 436h-89q27 -37 27 -84q0 -82 -60 -132t-140 -50q-32 0 -60 11q-25 -5 -42 -18.5t-17 -28.5q0 -26 58 -40l111 -25q59 -13 89 -48t30 -82q0 -73 -69.5 -124t-165.5 -51q-47 0 -91 13.5t-76 45t-32 73.5q0 48 43 80t103 44q-33 10 -52 29t-19 43q0 34 31 59t88 34
q-36 17 -57.5 50t-21.5 77q0 82 60.5 132t140.5 50q57 0 103 -36q13 -10 22 0l118 138h2zM207 -6q-98 21 -106 24q-82 -39 -82 -116q0 -56 42 -89.5t99 -33.5q64 0 107 33.5t43 86.5q0 72 -103 95zM266 481q-53 0 -84.5 -64.5t-31.5 -137.5q0 -96 58 -96q54 0 85.5 64.5
t31.5 137.5q0 44 -15 70t-44 26zM284 555q-23 0 -38 15t-15 39q0 26 19.5 46t48.5 20q23 0 38 -15t15 -39q0 -26 -19.5 -46t-48.5 -20z" />
    <glyph glyph-name="Gcommaaccent" unicode="&#x122;" horiz-adv-x="642" 
d="M634 691l-44 -211h-2l-59 192q-4 12 -8 15.5t-15 5.5q-23 4 -48 4q-70 0 -126 -34t-90 -86t-56.5 -117.5t-31 -124t-8.5 -110.5q0 -103 41.5 -161t119.5 -58q47 0 98 18l45 212q2 13 1.5 16.5t-7.5 7.5l-69 48v2h277v-2l-88 -47q-13 -6 -17 -25l-52 -246l-85 19
q-63 -19 -108 -19q-127 0 -195 77t-68 204q0 120 50.5 220.5t144.5 161t213 60.5q98 0 187 -22zM313 -97q0 -38 -26.5 -72t-65.5 -57q-24 -14 -48 -21v2q22 10 37 27q20 22 32 57q4 11 -6 13q-34 7 -34 41q0 26 18.5 44.5t44.5 18.5q22 0 35 -14.5t13 -38.5z" />
    <glyph glyph-name="gcommaaccent" unicode="&#x123;" horiz-adv-x="452" 
d="M475 436h-89q27 -37 27 -84q0 -82 -60 -132t-140 -50q-32 0 -60 11q-25 -5 -42 -18.5t-17 -28.5q0 -26 58 -40l111 -25q59 -13 89 -48t30 -82q0 -73 -69.5 -124t-165.5 -51q-47 0 -91 13.5t-76 45t-32 73.5q0 48 43 80t103 44q-33 10 -52 29t-19 43q0 34 31 59t88 34
q-36 17 -57.5 50t-21.5 77q0 82 60.5 132t140.5 50q57 0 103 -36q13 -10 22 0l118 138h2zM207 -6q-98 21 -106 24q-82 -39 -82 -116q0 -56 42 -89.5t99 -33.5q64 0 107 33.5t43 86.5q0 72 -103 95zM266 481q-53 0 -84.5 -64.5t-31.5 -137.5q0 -96 58 -96q54 0 85.5 64.5
t31.5 137.5q0 44 -15 70t-44 26zM311 660q-4 -11 6 -13q34 -7 34 -41q0 -26 -18.5 -44.5t-44.5 -18.5q-22 0 -35 14.5t-13 38.5q0 66 73 117q29 21 67 33v-2q-30 -15 -47 -38q-14 -19 -22 -46z" />
    <glyph glyph-name="Hcircumflex" unicode="&#x124;" horiz-adv-x="730" 
d="M695 634l-119 -565q-4 -14 8 -20l76 -47v-2h-295v2l96 47q15 7 18 20l59 282h-300l-59 -282q-4 -14 8 -20l76 -47v-2h-295v2l96 47q16 8 18 20l119 565q2 13 -9 20l-76 47v2h295v-2l-96 -47q-11 -5 -13.5 -8.5t-3.5 -11.5l-56 -265h300l56 265q2 8 0.5 12t-9.5 8l-76 47
v2h295v-2l-96 -47q-11 -5 -13.5 -8.5t-3.5 -11.5zM496 836l-160 -83l-1 2l177 173h2l105 -173l-2 -2z" />
    <glyph glyph-name="hcircumflex" unicode="&#x125;" horiz-adv-x="490" 
d="M448 418q0 -31 -27 -117l-48 -152q-16 -50 -16 -71q0 -30 25 -30q27 0 51 36q31 47 47 135h2q-9 -105 -56 -166t-103 -61q-27 0 -44 16t-17 49q0 31 24 105l51 159q19 59 19 86q0 16 -9.5 25.5t-24.5 9.5q-66 0 -119 -94q-56 -98 -112 -348h-88l158 649q3 12 1.5 15.5
t-10.5 6.5l-88 31v2l204 16l-109 -440h2q36 102 91 158.5t116 56.5q37 0 58.5 -21t21.5 -56zM231 836l-160 -83l-1 2l177 173h2l105 -173l-2 -2z" />
    <glyph glyph-name="Hbar" unicode="&#x126;" horiz-adv-x="730" 
d="M170 487l31 147q2 13 -9 20l-76 47v2h295v-2l-96 -47q-11 -5 -13.5 -8.5t-3.5 -11.5l-31 -147h300l31 147q2 8 0.5 12t-9.5 8l-76 47v2h295v-2l-96 -47q-11 -5 -13.5 -8.5t-3.5 -11.5l-31 -147h76v-17h-80l-84 -401q-4 -14 8 -20l76 -47v-2h-295v2l96 47q15 7 18 20
l49 233h-300l-49 -233q-4 -14 8 -20l76 -47v-2h-295v2l96 47q16 8 18 20l84 401h-79v17h83zM532 320l31 150h-300l-31 -150h300z" />
    <glyph glyph-name="hbar" unicode="&#x127;" horiz-adv-x="490" 
d="M286 162l51 159q19 59 19 86q0 16 -9.5 25.5t-24.5 9.5q-66 0 -119 -94q-56 -98 -112 -348h-88l136 561h-78v17h82l18 71q3 12 1.5 15.5t-10.5 6.5l-88 31v2l204 16l-36 -142h148v-17h-152l-69 -281h2q36 102 91 158.5t116 56.5q37 0 58.5 -21t21.5 -56q0 -31 -27 -117
l-48 -152q-16 -50 -16 -71q0 -30 25 -30q27 0 51 36q31 47 47 135h2q-9 -105 -56 -166t-103 -61q-27 0 -44 16t-17 49q0 31 24 105z" />
    <glyph glyph-name="Itilde" unicode="&#x128;" horiz-adv-x="333" 
d="M298 634l-119 -565q-4 -14 8 -20l76 -47v-2h-295v2l96 47q16 8 18 20l119 565q2 13 -9 20l-76 47v2h295v-2l-96 -47q-15 -7 -17 -20zM339 777q-22 0 -61.5 23.5t-60.5 23.5q-41 0 -70 -48l-2 1q10 48 35.5 79t60.5 31q22 0 61 -23.5t60 -23.5q42 0 71 48l2 -1
q-10 -48 -35.5 -79t-60.5 -31z" />
    <glyph glyph-name="itilde" unicode="&#x129;" horiz-adv-x="273" 
d="M137 162q-18 -63 -18 -85q0 -29 24 -29q26 0 50 35q33 50 48 136h2q-5 -82 -49 -154.5t-104 -72.5q-27 0 -44 16.5t-17 49.5q0 32 14 83l78 286q4 15 -12 20l-86 30v2l206 16zM247 561q-22 0 -61.5 23.5t-60.5 23.5q-41 0 -70 -48l-2 1q10 48 35.5 79t60.5 31
q22 0 61 -23.5t60 -23.5q42 0 71 48l2 -1q-10 -48 -35.5 -79t-60.5 -31z" />
    <glyph glyph-name="Imacron" unicode="&#x12a;" horiz-adv-x="333" 
d="M298 634l-119 -565q-4 -14 8 -20l76 -47v-2h-295v2l96 47q16 8 18 20l119 565q2 13 -9 20l-76 47v2h295v-2l-96 -47q-15 -7 -17 -20zM406 807h-246v18h246v-18z" />
    <glyph glyph-name="imacron" unicode="&#x12b;" horiz-adv-x="273" 
d="M149 162q-18 -63 -18 -85q0 -29 24 -29q26 0 50 35q33 50 48 136h2q-5 -82 -49 -154.5t-104 -72.5q-27 0 -44 16.5t-17 49.5q0 32 14 83l78 286q4 15 -12 20l-86 30v2l206 16zM326 591h-246v18h246v-18z" />
    <glyph glyph-name="Ibreve" unicode="&#x12c;" horiz-adv-x="333" 
d="M298 634l-119 -565q-4 -14 8 -20l76 -47v-2h-295v2l96 47q16 8 18 20l119 565q2 13 -9 20l-76 47v2h295v-2l-96 -47q-15 -7 -17 -20zM276 758q-43 0 -74 23.5t-31 69.5q0 30 14 65h2q-8 -45 18.5 -71.5t73.5 -26.5q48 0 85 26.5t48 71.5h2q-3 -80 -42.5 -119t-95.5 -39z
" />
    <glyph glyph-name="ibreve" unicode="&#x12d;" horiz-adv-x="273" 
d="M149 162q-18 -63 -18 -85q0 -29 24 -29q26 0 50 35q33 50 48 136h2q-5 -82 -49 -154.5t-104 -72.5q-27 0 -44 16.5t-17 49.5q0 32 14 83l78 286q4 15 -12 20l-86 30v2l206 16zM196 542q-43 0 -74 23.5t-31 69.5q0 30 14 65h2q-8 -45 18.5 -71.5t73.5 -26.5q48 0 85 26.5
t48 71.5h2q-3 -80 -42.5 -119t-95.5 -39z" />
    <glyph glyph-name="Iogonek" unicode="&#x12e;" horiz-adv-x="333" 
d="M59 -236q-32 0 -56.5 21t-24.5 57q0 55 44.5 97.5t105.5 60.5h-160v2l96 47q16 8 18 20l119 565q2 13 -9 20l-76 47v2h295v-2l-96 -47q-11 -5 -13.5 -8.5t-3.5 -11.5l-119 -565q-4 -14 8 -20l76 -47v-2h-121q-41 -20 -69.5 -54.5t-28.5 -74.5q0 -27 17 -41.5t44 -14.5
q47 0 79 35l2 -1q-54 -85 -127 -85z" />
    <glyph glyph-name="iogonek" unicode="&#x12f;" horiz-adv-x="273" 
d="M96 -185q47 0 79 35l2 -1q-54 -85 -127 -85q-32 0 -56.5 21t-24.5 57q0 52 39.5 90.5t97.5 59.5h-4q-27 0 -44 16.5t-17 49.5q0 32 14 83l78 286q4 15 -12 20l-86 30v2l206 16l-92 -333q-18 -63 -18 -85q0 -29 24 -29q26 0 50 35q33 50 48 136h2q-5 -74 -42.5 -143
t-90.5 -81q-38 -21 -62.5 -54t-24.5 -70q0 -27 17 -41.5t44 -14.5zM228 684q23 0 38 -15t15 -39q0 -26 -19.5 -46t-48.5 -20q-23 0 -38 15t-15 39q0 26 19.5 46t48.5 20z" />
    <glyph glyph-name="Idotaccent" unicode="&#x130;" horiz-adv-x="333" 
d="M298 634l-119 -565q-4 -14 8 -20l76 -47v-2h-295v2l96 47q16 8 18 20l119 565q2 13 -9 20l-76 47v2h295v-2l-96 -47q-15 -7 -17 -20zM277 771q-23 0 -38 15t-15 39q0 26 19.5 46t48.5 20q23 0 38 -15t15 -39q0 -26 -19.5 -46t-48.5 -20z" />
    <glyph glyph-name="dotlessi" unicode="&#x131;" horiz-adv-x="273" 
d="M149 162q-18 -63 -18 -85q0 -29 24 -29q26 0 50 35q33 50 48 136h2q-5 -82 -49 -154.5t-104 -72.5q-27 0 -44 16.5t-17 49.5q0 32 14 83l78 286q4 15 -12 20l-86 30v2l206 16z" />
    <glyph glyph-name="IJ" unicode="&#x132;" horiz-adv-x="629" 
d="M298 634l-119 -565q-4 -14 8 -20l76 -47v-2h-295v2l96 47q16 8 18 20l119 565q2 13 -9 20l-76 47v2h295v-2l-96 -47q-15 -7 -17 -20zM612 634l-127 -603q-22 -103 -90 -164t-175 -78l-1 2q129 56 165 223l131 620q2 13 -9 20l-76 47v2h295v-2l-96 -47q-11 -5 -13.5 -8.5
t-3.5 -11.5z" />
    <glyph glyph-name="ij" unicode="&#x133;" horiz-adv-x="523" 
d="M241 495l-92 -333q-18 -63 -18 -85q0 -29 24 -29q26 0 50 35q33 50 48 136h2q-5 -82 -49 -154.5t-104 -72.5q-27 0 -44 16.5t-17 49.5q0 32 14 83l78 286q4 15 -12 20l-86 30v2zM281 630q0 -26 -19.5 -46t-48.5 -20q-23 0 -38 15t-15 39q0 26 19.5 46t48.5 20
q23 0 38 -15t15 -39zM508 495l-91 -386q-15 -65 -37 -122t-54 -109.5t-77 -83t-98 -30.5q-41 0 -64 20l57 156h2l34 -135q4 -17 17 -17q8 0 16 5q62 45 126 343l61 291q4 15 -12 20l-86 30v2zM433 618q0 26 19.5 46t48.5 20q23 0 38 -15t15 -39q0 -26 -19.5 -46t-48.5 -20
q-23 0 -38 15t-15 39z" />
    <glyph glyph-name="Jcircumflex" unicode="&#x134;" horiz-adv-x="306" 
d="M289 634l-127 -603q-22 -103 -90 -164t-175 -78l-1 2q129 56 165 223l131 620q2 13 -9 20l-76 47v2h295v-2l-96 -47q-11 -5 -13.5 -8.5t-3.5 -11.5zM283 836l-160 -83l-1 2l177 173h2l105 -173l-2 -2z" />
    <glyph glyph-name="jcircumflex" unicode="&#x135;" horiz-adv-x="250" 
d="M144 109q-15 -65 -37 -122t-54 -109.5t-77 -83t-98 -30.5q-41 0 -64 20l57 156h2l34 -135q4 -17 17 -17q8 0 16 5q62 45 126 343l61 291q4 15 -12 20l-86 30v2l206 16zM193 620l-160 -83l-1 2l177 173h2l105 -173l-2 -2z" />
    <glyph glyph-name="Kcommaaccent" unicode="&#x136;" horiz-adv-x="636" 
d="M298 634l-119 -565q-4 -14 8 -20l76 -47v-2h-295v2l96 47q16 8 18 20l119 565q2 13 -9 20l-76 47v2h295v-2l-96 -47q-15 -7 -17 -20zM521 58l58 -56v-2h-144l-187 353l313 264q17 15 2 26l-74 58v2h262v-2l-123 -60q-28 -13 -48 -30l-248 -211l164 -310q11 -18 25 -32z
M360 -97q0 -38 -26.5 -72t-65.5 -57q-24 -14 -48 -21v2q22 10 37 27q20 22 32 57q4 11 -6 13q-34 7 -34 41q0 26 18.5 44.5t44.5 18.5q22 0 35 -14.5t13 -38.5z" />
    <glyph glyph-name="kcommaaccent" unicode="&#x137;" horiz-adv-x="458" 
d="M297 114q5 -36 15 -51t27 -15q28 0 54 42q28 48 43 129h2q-9 -107 -57.5 -167t-99.5 -60q-36 0 -48 20t-19 71l-22 158q-3 21 -12 25.5t-28 -4.5l-61 -262h-87l150 649q3 12 1.5 15.5t-10.5 6.5l-88 31v2l203 16l-106 -452l176 133q18 14 18 20q0 5 -15 17l-51 39v2h217
v-2l-95 -49q-43 -23 -56 -33l-83 -62zM206 -97q0 -38 -26.5 -72t-65.5 -57q-24 -14 -48 -21v2q22 10 37 27q20 22 32 57q4 11 -6 13q-34 7 -34 41q0 26 18.5 44.5t44.5 18.5q22 0 35 -14.5t13 -38.5z" />
    <glyph glyph-name="kgreenlandic" unicode="&#x138;" horiz-adv-x="484" 
d="M323 114q5 -36 15 -51t27 -15q35 0 64 61q20 42 33 110h2q-9 -107 -57.5 -167t-99.5 -60q-36 0 -48 20t-19 71l-22 158q-3 20 -12 25.5t-27 -1.5l-62 -265h-87l99 426q3 12 1.5 15.5t-9.5 6.5l-93 30v2l206 15l-54 -226l176 132q18 14 18 20q0 5 -15 17l-51 39v2h217v-2
l-95 -49q-43 -23 -56 -33l-83 -62z" />
    <glyph glyph-name="Lacute" unicode="&#x139;" horiz-adv-x="550" 
d="M298 634l-125 -593q-3 -14 -1 -18.5t12 -4.5h158q27 0 36 13l135 193h2l-47 -224h-500v2l96 47q16 8 18 20l119 565q2 13 -9 20l-76 47v2h295v-2l-96 -47q-15 -7 -17 -20zM333 919h125v-2l-241 -161l-2 2z" />
    <glyph glyph-name="lacute" unicode="&#x13a;" horiz-adv-x="254" 
d="M126 159q-15 -62 -15 -81q0 -30 23 -30q26 0 49 35q34 51 48 136h2q-9 -103 -58 -168q-44 -59 -95 -59q-29 0 -45 17.5t-16 46.5q0 27 14 85l118 508q3 12 1.5 15.5t-10.5 6.5l-88 31v2l204 16zM268 919h125v-2l-241 -161l-2 2z" />
    <glyph glyph-name="Lcommaaccent" unicode="&#x13b;" horiz-adv-x="550" 
d="M298 634l-125 -593q-3 -14 -1 -18.5t12 -4.5h158q27 0 36 13l135 193h2l-47 -224h-500v2l96 47q16 8 18 20l119 565q2 13 -9 20l-76 47v2h295v-2l-96 -47q-15 -7 -17 -20zM292 -97q0 -38 -26.5 -72t-65.5 -57q-24 -14 -48 -21v2q22 10 37 27q20 22 32 57q4 11 -6 13
q-34 7 -34 41q0 26 18.5 44.5t44.5 18.5q22 0 35 -14.5t13 -38.5z" />
    <glyph glyph-name="lcommaaccent" unicode="&#x13c;" horiz-adv-x="254" 
d="M126 159q-15 -62 -15 -81q0 -30 23 -30q26 0 49 35q34 51 48 136h2q-9 -103 -58 -168q-44 -59 -95 -59q-29 0 -45 17.5t-16 46.5q0 27 14 85l118 508q3 12 1.5 15.5t-10.5 6.5l-88 31v2l204 16zM111 -97q0 -38 -26.5 -72t-65.5 -57q-24 -14 -48 -21v2q22 10 37 27
q20 22 32 57q4 11 -6 13q-34 7 -34 41q0 26 18.5 44.5t44.5 18.5q22 0 35 -14.5t13 -38.5z" />
    <glyph glyph-name="Lcaron" unicode="&#x13d;" horiz-adv-x="550" 
d="M298 634l-125 -593q-3 -14 -1 -18.5t12 -4.5h158q27 0 36 13l135 193h2l-47 -224h-500v2l96 47q16 8 18 20l119 565q2 13 -9 20l-76 47v2h295v-2l-96 -47q-15 -7 -17 -20zM482 703h96l-139 -191h-1z" />
    <glyph glyph-name="lcaron" unicode="&#x13e;" horiz-adv-x="254" 
d="M126 159q-15 -62 -15 -81q0 -30 23 -30q26 0 49 35q34 51 48 136h2q-9 -103 -58 -168q-44 -59 -95 -59q-29 0 -45 17.5t-16 46.5q0 27 14 85l118 508q3 12 1.5 15.5t-10.5 6.5l-88 31v2l204 16zM318 703h96l-139 -191h-1z" />
    <glyph glyph-name="Ldot" unicode="&#x13f;" horiz-adv-x="550" 
d="M298 634l-125 -593q-3 -14 -1 -18.5t12 -4.5h158q27 0 36 13l135 193h2l-47 -224h-500v2l96 47q16 8 18 20l119 565q2 13 -9 20l-76 47v2h295v-2l-96 -47q-15 -7 -17 -20zM436 324q-23 0 -38 15t-15 39q0 26 19.5 46t48.5 20q23 0 38 -15t15 -39q0 -26 -19.5 -46
t-48.5 -20z" />
    <glyph glyph-name="ldot" unicode="&#x140;" horiz-adv-x="349" 
d="M126 159q-15 -62 -15 -81q0 -30 23 -30q26 0 49 35q34 51 48 136h2q-9 -103 -58 -168q-44 -59 -95 -59q-29 0 -45 17.5t-16 46.5q0 27 14 85l118 508q3 12 1.5 15.5t-10.5 6.5l-88 31v2l204 16zM291 291q-23 0 -38 15t-15 39q0 26 19.5 46t48.5 20q23 0 38 -15t15 -39
q0 -26 -19.5 -46t-48.5 -20z" />
    <glyph glyph-name="Lslash" unicode="&#x141;" horiz-adv-x="529" 
d="M284 634l-55 -260l110 47l6 -16l-120 -52l-66 -312q-3 -14 -1 -18.5t12 -4.5h158q27 0 36 13l135 193h2l-47 -224h-500v2l96 47q16 8 18 20l50 238l-97 -41l-6 16l108 46l64 306q2 13 -9 20l-76 47v2h295v-2l-96 -47q-15 -7 -17 -20z" />
    <glyph glyph-name="lslash" unicode="&#x142;" 
d="M107 -8q-29 0 -45 17.5t-16 46.5q0 27 14 85l39 168l-100 -43l-6 16l111 47l74 320q3 12 1.5 15.5t-10.5 6.5l-88 31v2l204 16l-82 -348l114 49l6 -16l-125 -54l-45 -192q-15 -62 -15 -81q0 -30 23 -30q26 0 49 35q34 51 48 136h2q-9 -103 -58 -168q-44 -59 -95 -59z" />
    <glyph glyph-name="Nacute" unicode="&#x143;" horiz-adv-x="676" 
d="M648 602l-127 -602h-64l-241 601l-105 -500q-4 -19 10 -30l80 -69v-2h-241v2l110 69q18 11 22 30l107 507q5 23 -6 34l-71 59v2h156l244 -608l107 507q4 18 -10 30l-80 69v2h241v-2l-110 -69q-18 -11 -22 -30zM479 919h125v-2l-241 -161l-2 2z" />
    <glyph glyph-name="nacute" unicode="&#x144;" horiz-adv-x="519" 
d="M446 301l-48 -152q-16 -50 -16 -71q0 -30 25 -30q27 0 51 36q31 47 47 135h2q-9 -105 -56 -166t-103 -61q-27 0 -44 16t-17 49q0 31 24 105l51 159q19 59 19 87q0 34 -36 34q-64 0 -117 -94q-56 -98 -112 -348h-88l104 424q3 12 1.5 15.5t-10.5 6.5l-88 31v2l206 16
l-57 -215h2q36 102 91 158.5t116 56.5q37 0 58.5 -21t21.5 -56q0 -31 -27 -117zM382 703h125v-2l-241 -161l-2 2z" />
    <glyph glyph-name="Ncommaaccent" unicode="&#x145;" horiz-adv-x="676" 
d="M648 602l-127 -602h-64l-241 601l-105 -500q-4 -19 10 -30l80 -69v-2h-241v2l110 69q18 11 22 30l107 507q5 23 -6 34l-71 59v2h156l244 -608l107 507q4 18 -10 30l-80 69v2h241v-2l-110 -69q-18 -11 -22 -30zM323 -97q0 -38 -26.5 -72t-65.5 -57q-24 -14 -48 -21v2
q22 10 37 27q20 22 32 57q4 11 -6 13q-34 7 -34 41q0 26 18.5 44.5t44.5 18.5q22 0 35 -14.5t13 -38.5z" />
    <glyph glyph-name="ncommaaccent" unicode="&#x146;" horiz-adv-x="519" 
d="M446 301l-48 -152q-16 -50 -16 -71q0 -30 25 -30q27 0 51 36q31 47 47 135h2q-9 -105 -56 -166t-103 -61q-27 0 -44 16t-17 49q0 31 24 105l51 159q19 59 19 87q0 34 -36 34q-64 0 -117 -94q-56 -98 -112 -348h-88l104 424q3 12 1.5 15.5t-10.5 6.5l-88 31v2l206 16
l-57 -215h2q36 102 91 158.5t116 56.5q37 0 58.5 -21t21.5 -56q0 -31 -27 -117zM250 -97q0 -38 -26.5 -72t-65.5 -57q-24 -14 -48 -21v2q22 10 37 27q20 22 32 57q4 11 -6 13q-34 7 -34 41q0 26 18.5 44.5t44.5 18.5q22 0 35 -14.5t13 -38.5z" />
    <glyph glyph-name="Ncaron" unicode="&#x147;" horiz-adv-x="676" 
d="M648 602l-127 -602h-64l-241 601l-105 -500q-4 -19 10 -30l80 -69v-2h-241v2l110 69q18 11 22 30l107 507q5 23 -6 34l-71 59v2h156l244 -608l107 507q4 18 -10 30l-80 69v2h241v-2l-110 -69q-18 -11 -22 -30zM422 745h-2l-105 173l2 2l123 -75l158 75l1 -2z" />
    <glyph glyph-name="ncaron" unicode="&#x148;" horiz-adv-x="519" 
d="M446 301l-48 -152q-16 -50 -16 -71q0 -30 25 -30q27 0 51 36q31 47 47 135h2q-9 -105 -56 -166t-103 -61q-27 0 -44 16t-17 49q0 31 24 105l51 159q19 59 19 87q0 34 -36 34q-64 0 -117 -94q-56 -98 -112 -348h-88l104 424q3 12 1.5 15.5t-10.5 6.5l-88 31v2l206 16
l-57 -215h2q36 102 91 158.5t116 56.5q37 0 58.5 -21t21.5 -56q0 -31 -27 -117zM325 529h-2l-105 173l2 2l123 -75l158 75l1 -2z" />
    <glyph glyph-name="napostrophe" unicode="&#x149;" horiz-adv-x="546" 
d="M473 301l-48 -152q-16 -50 -16 -71q0 -30 25 -30q27 0 51 36q31 47 47 135h2q-9 -105 -56 -166t-103 -61q-27 0 -44 16t-17 49q0 31 24 105l51 159q19 59 19 87q0 34 -36 34q-64 0 -117 -94q-56 -98 -112 -348h-88l104 424q3 12 1.5 15.5t-10.5 6.5l-88 31v2l206 16
l-57 -215h2q36 102 91 158.5t116 56.5q37 0 58.5 -21t21.5 -56q0 -31 -27 -117zM140 660q0 -38 -26.5 -72t-65.5 -57q-24 -13 -48 -21v2q22 10 37 27q20 22 32 57q4 11 -6 13q-34 7 -34 41q0 26 18.5 44.5t44.5 18.5q22 0 35 -14.5t13 -38.5z" />
    <glyph glyph-name="Eng" unicode="&#x14a;" horiz-adv-x="676" 
d="M627 512l-98 -468q-24 -117 -98 -185t-178 -68v2q133 27 167 192l105 505q7 31 7 59q0 105 -114 105q-42 0 -97 -29.5t-81 -64.5l-103 -491q-4 -14 8 -20l76 -47v-2h-295v2l96 47q16 8 18 20l119 565q2 13 -9 20l-76 47v2h196l-29 -138q30 64 101 105.5t131 41.5
q69 0 114.5 -37.5t45.5 -110.5q0 -24 -6 -52z" />
    <glyph glyph-name="eng" unicode="&#x14b;" horiz-adv-x="491" 
d="M287 27l62 236q32 119 32 145q0 34 -36 34q-64 0 -117 -94q-31 -54 -67 -174q-23 -78 -45 -174h-88l104 424q3 12 1.5 15.5t-10.5 6.5l-88 31v2l206 16l-57 -215h2q36 102 91 158.5t116 56.5q37 0 58.5 -21t21.5 -56q0 -43 -19 -117l-69 -257q-55 -208 -265 -241l-1 2
q123 53 168 222z" />
    <glyph glyph-name="Omacron" unicode="&#x14c;" horiz-adv-x="666" 
d="M405 713q119 0 189 -77.5t70 -201.5q0 -119 -49 -221.5t-133 -162.5t-182 -60q-119 0 -189 77.5t-70 201.5q0 119 49 221.5t133 162.5t182 60zM295 5q72 0 134 73t96 181.5t34 219.5q0 219 -149 219q-72 0 -134 -73t-96 -181.5t-34 -219.5q0 -219 149 -219zM574 807h-246
v18h246v-18z" />
    <glyph glyph-name="omacron" unicode="&#x14d;" horiz-adv-x="460" 
d="M174 -10q-66 0 -107 44t-41 133q0 82 34 157.5t94 123t130 47.5q67 0 108.5 -45t41.5 -133q0 -126 -77 -226.5t-183 -100.5zM182 4q42 0 79 60.5t57 142.5t20 154q0 120 -59 120q-42 0 -79 -60.5t-57 -142.5t-20 -154q0 -120 59 -120zM436 591h-246v18h246v-18z" />
    <glyph glyph-name="Obreve" unicode="&#x14e;" horiz-adv-x="666" 
d="M405 713q119 0 189 -77.5t70 -201.5q0 -119 -49 -221.5t-133 -162.5t-182 -60q-119 0 -189 77.5t-70 201.5q0 119 49 221.5t133 162.5t182 60zM295 5q72 0 134 73t96 181.5t34 219.5q0 219 -149 219q-72 0 -134 -73t-96 -181.5t-34 -219.5q0 -219 149 -219zM444 758
q-43 0 -74 23.5t-31 69.5q0 30 14 65h2q-8 -45 18.5 -71.5t73.5 -26.5q48 0 85 26.5t48 71.5h2q-3 -80 -42.5 -119t-95.5 -39z" />
    <glyph glyph-name="obreve" unicode="&#x14f;" horiz-adv-x="460" 
d="M174 -10q-66 0 -107 44t-41 133q0 82 34 157.5t94 123t130 47.5q67 0 108.5 -45t41.5 -133q0 -126 -77 -226.5t-183 -100.5zM182 4q42 0 79 60.5t57 142.5t20 154q0 120 -59 120q-42 0 -79 -60.5t-57 -142.5t-20 -154q0 -120 59 -120zM306 542q-43 0 -74 23.5t-31 69.5
q0 30 14 65h2q-8 -45 18.5 -71.5t73.5 -26.5q48 0 85 26.5t48 71.5h2q-3 -80 -42.5 -119t-95.5 -39z" />
    <glyph glyph-name="Ohungarumlaut" unicode="&#x150;" horiz-adv-x="666" 
d="M405 713q119 0 189 -77.5t70 -201.5q0 -119 -49 -221.5t-133 -162.5t-182 -60q-119 0 -189 77.5t-70 201.5q0 119 49 221.5t133 162.5t182 60zM295 5q72 0 134 73t96 181.5t34 219.5q0 219 -149 219q-72 0 -134 -73t-96 -181.5t-34 -219.5q0 -219 149 -219zM444 919h102
v-2l-200 -169h-2zM581 919h102v-2l-200 -169h-2z" />
    <glyph glyph-name="ohungarumlaut" unicode="&#x151;" horiz-adv-x="460" 
d="M174 -10q-66 0 -107 44t-41 133q0 82 34 157.5t94 123t130 47.5q67 0 108.5 -45t41.5 -133q0 -126 -77 -226.5t-183 -100.5zM182 4q42 0 79 60.5t57 142.5t20 154q0 120 -59 120q-42 0 -79 -60.5t-57 -142.5t-20 -154q0 -120 59 -120zM306 703h102v-2l-200 -169h-2z
M443 703h102v-2l-200 -169h-2z" />
    <glyph glyph-name="OE" unicode="&#x152;" horiz-adv-x="941" 
d="M836 0h-432q-51 -10 -108 -10q-122 0 -188.5 77t-66.5 197q0 117 48 219.5t136 166t195 63.5q75 0 140 -10h414l-45 -216h-2l-47 180q-4 18 -25 18h-178q-10 0 -13.5 -4.5t-6.5 -18.5l-62 -294h123q15 1 32 19l82 89h2l-49 -234h-2l-45 90q-9 18 -25 18h-122l-65 -309
q-3 -14 -1 -18.5t12 -4.5h178q25 0 37 13l127 182h2zM545 654q-30 24 -53.5 34t-57.5 10q-69 0 -126 -48t-90.5 -121t-51.5 -151t-18 -148q0 -63 14.5 -112t50 -81.5t88.5 -32.5q25 0 46 6.5t33 14t37 24.5q17 12 19 25l117 555q3 16 -8 25z" />
    <glyph glyph-name="oe" unicode="&#x153;" horiz-adv-x="721" 
d="M711 399q0 -71 -79.5 -118.5t-172.5 -47.5q-22 0 -41 3q-4 -23 -4 -51q0 -61 25.5 -97t76.5 -36q58 0 102.5 44t62.5 131h2q-6 -65 -27 -113t-51 -73.5t-61.5 -37t-64.5 -11.5q-96 0 -138 86q-75 -88 -167 -88q-66 0 -107 44t-41 133q0 82 34 157.5t94 123t130 47.5
q91 0 128 -87q79 87 178 87q53 0 87 -27.5t34 -68.5zM182 4q42 0 79 60.5t57 142.5t20 154q0 120 -59 120q-42 0 -79 -60.5t-57 -142.5t-20 -154q0 -120 59 -120zM578 480q-50 0 -96 -72t-62 -161q6 -1 19 -1q77 0 127.5 47.5t50.5 121.5q0 65 -39 65z" />
    <glyph glyph-name="Racute" unicode="&#x154;" horiz-adv-x="617" 
d="M257 326h-36l-52 -249q-5 -23 6 -30l67 -45v-2h-274v2l92 51q3 2 5 3.5t3 4.5t1.5 5t1.5 7.5t2 8.5l115 544q5 23 -6 30l-67 45v2h286q93 0 148 -44.5t55 -116.5q0 -87 -67.5 -146t-159.5 -67v-2l20 -32l14 -26l89 -191q9 -20 34 -40l42 -36v-2h-145l-147 310
q-7 16 -27 16zM292 659l-67 -317h88q77 0 130.5 57.5t53.5 151.5q0 136 -119 136h-61q-19 0 -25 -28zM452 919h125v-2l-241 -161l-2 2z" />
    <glyph glyph-name="racute" unicode="&#x155;" horiz-adv-x="371" 
d="M311 436q-3 10 -9 10q-11 0 -26 -15q-25 -25 -53 -80q-24 -48 -44 -114t-57 -237h-88l94 423q3 13 1.5 16.5t-12.5 7.5l-86 30v2l205 16l-50 -202h1q41 106 78.5 154t89.5 48q29 0 49 -12l-65 -173h-2zM317 703h125v-2l-241 -161l-2 2z" />
    <glyph glyph-name="Rcommaaccent" unicode="&#x156;" horiz-adv-x="617" 
d="M257 326h-36l-52 -249q-5 -23 6 -30l67 -45v-2h-274v2l92 51q3 2 5 3.5t3 4.5t1.5 5t1.5 7.5t2 8.5l115 544q5 23 -6 30l-67 45v2h286q93 0 148 -44.5t55 -116.5q0 -87 -67.5 -146t-159.5 -67v-2l20 -32l14 -26l89 -191q9 -20 34 -40l42 -36v-2h-145l-147 310
q-7 16 -27 16zM292 659l-67 -317h88q77 0 130.5 57.5t53.5 151.5q0 136 -119 136h-61q-19 0 -25 -28zM349 -97q0 -38 -26.5 -72t-65.5 -57q-24 -14 -48 -21v2q22 10 37 27q20 22 32 57q4 11 -6 13q-34 7 -34 41q0 26 18.5 44.5t44.5 18.5q22 0 35 -14.5t13 -38.5z" />
    <glyph glyph-name="rcommaaccent" unicode="&#x157;" horiz-adv-x="371" 
d="M311 436q-3 10 -9 10q-11 0 -26 -15q-25 -25 -53 -80q-24 -48 -44 -114t-57 -237h-88l94 423q3 13 1.5 16.5t-12.5 7.5l-86 30v2l205 16l-50 -202h1q41 106 78.5 154t89.5 48q29 0 49 -12l-65 -173h-2zM114 -97q0 -38 -26.5 -72t-65.5 -57q-24 -14 -48 -21v2q22 10 37 27
q20 22 32 57q4 11 -6 13q-34 7 -34 41q0 26 18.5 44.5t44.5 18.5q22 0 35 -14.5t13 -38.5z" />
    <glyph glyph-name="Rcaron" unicode="&#x158;" horiz-adv-x="617" 
d="M257 326h-36l-52 -249q-5 -23 6 -30l67 -45v-2h-274v2l92 51q3 2 5 3.5t3 4.5t1.5 5t1.5 7.5t2 8.5l115 544q5 23 -6 30l-67 45v2h286q93 0 148 -44.5t55 -116.5q0 -87 -67.5 -146t-159.5 -67v-2l20 -32l14 -26l89 -191q9 -20 34 -40l42 -36v-2h-145l-147 310
q-7 16 -27 16zM292 659l-67 -317h88q77 0 130.5 57.5t53.5 151.5q0 136 -119 136h-61q-19 0 -25 -28zM395 745h-2l-105 173l2 2l123 -75l158 75l1 -2z" />
    <glyph glyph-name="rcaron" unicode="&#x159;" horiz-adv-x="371" 
d="M311 436q-3 10 -9 10q-11 0 -26 -15q-25 -25 -53 -80q-24 -48 -44 -114t-57 -237h-88l94 423q3 13 1.5 16.5t-12.5 7.5l-86 30v2l205 16l-50 -202h1q41 106 78.5 154t89.5 48q29 0 49 -12l-65 -173h-2zM260 529h-2l-105 173l2 2l123 -75l158 75l1 -2z" />
    <glyph glyph-name="Sacute" unicode="&#x15a;" horiz-adv-x="509" 
d="M466 201q0 -88 -76 -149.5t-181 -61.5q-127 0 -199 36l50 199h2l53 -192q4 -17 20 -21q28 -7 62 -7q70 0 120.5 39.5t50.5 113.5q0 81 -85 144l-79 58q-91 67 -91 164q0 81 62 135t155 54q96 0 192 -27l-43 -199h-2l-55 187q-3 16 -19 19q-34 6 -51 6q-67 0 -112 -34.5
t-45 -96.5q0 -76 104 -151l78 -57q89 -63 89 -159zM420 919h125v-2l-241 -161l-2 2z" />
    <glyph glyph-name="sacute" unicode="&#x15b;" horiz-adv-x="373" 
d="M366 467l-56 -156h-2l-33 156q-3 14 -16 15q-6 1 -15 1q-50 0 -77 -25t-27 -62q0 -54 92 -120q45 -33 69 -63.5t24 -69.5q0 -54 -47.5 -102.5t-136.5 -48.5q-32 0 -74 11.5t-68 26.5l62 161h3l28 -168q1 -8 3.5 -10.5t10.5 -4.5q16 -4 38 -4q51 0 76.5 28t25.5 70
q0 29 -19.5 53t-68.5 63q-47 38 -69.5 68t-22.5 70q0 57 48 98t126 41q68 0 126 -28zM301 703h125v-2l-241 -161l-2 2z" />
    <glyph glyph-name="Scircumflex" unicode="&#x15c;" horiz-adv-x="509" 
d="M466 201q0 -88 -76 -149.5t-181 -61.5q-127 0 -199 36l50 199h2l53 -192q4 -17 20 -21q28 -7 62 -7q70 0 120.5 39.5t50.5 113.5q0 81 -85 144l-79 58q-91 67 -91 164q0 81 62 135t155 54q96 0 192 -27l-43 -199h-2l-55 187q-3 16 -19 19q-34 6 -51 6q-67 0 -112 -34.5
t-45 -96.5q0 -76 104 -151l78 -57q89 -63 89 -159zM380 836l-160 -83l-1 2l177 173h2l105 -173l-2 -2z" />
    <glyph glyph-name="scircumflex" unicode="&#x15d;" horiz-adv-x="373" 
d="M366 467l-56 -156h-2l-33 156q-3 14 -16 15q-6 1 -15 1q-50 0 -77 -25t-27 -62q0 -54 92 -120q45 -33 69 -63.5t24 -69.5q0 -54 -47.5 -102.5t-136.5 -48.5q-32 0 -74 11.5t-68 26.5l62 161h3l28 -168q1 -8 3.5 -10.5t10.5 -4.5q16 -4 38 -4q51 0 76.5 28t25.5 70
q0 29 -19.5 53t-68.5 63q-47 38 -69.5 68t-22.5 70q0 57 48 98t126 41q68 0 126 -28zM261 620l-160 -83l-1 2l177 173h2l105 -173l-2 -2z" />
    <glyph glyph-name="Scedilla" unicode="&#x15e;" horiz-adv-x="509" 
d="M300 -125q0 -46 -37.5 -78.5t-92.5 -32.5q-45 0 -69 25t-22 60l2 1q3 -25 21.5 -40.5t43.5 -15.5q31 0 55.5 20.5t24.5 52.5q0 21 -14.5 34t-39.5 13q-19 0 -39 -7l-1 2l76 81q-126 0 -198 36l50 199h2l53 -192q4 -17 20 -21q28 -7 62 -7q70 0 120.5 39.5t50.5 113.5
q0 81 -85 144l-79 58q-91 67 -91 164q0 81 62 135t155 54q96 0 192 -27l-43 -199h-2l-55 187q-3 16 -19 19q-34 6 -51 6q-67 0 -112 -34.5t-45 -96.5q0 -76 104 -151l78 -57q89 -63 89 -159q0 -86 -73.5 -147.5t-176.5 -63.5l-19 -53q13 3 26 3q34 0 55.5 -18.5t21.5 -46.5z
" />
    <glyph glyph-name="scedilla" unicode="&#x15f;" horiz-adv-x="373" 
d="M221 -125q0 -46 -37.5 -78.5t-92.5 -32.5q-45 0 -69 25t-22 60l2 1q3 -25 21.5 -40.5t43.5 -15.5q31 0 55.5 20.5t24.5 52.5q0 21 -14.5 34t-39.5 13q-19 0 -39 -7l-1 2l78 83q-79 6 -132 38l62 161h3l28 -168q1 -8 3.5 -10.5t10.5 -4.5q16 -4 38 -4q51 0 76.5 28
t25.5 70q0 29 -19.5 53t-68.5 63q-47 38 -69.5 68t-22.5 70q0 57 48 98t126 41q68 0 126 -28l-56 -156h-2l-33 156q-3 14 -16 15q-6 1 -15 1q-50 0 -77 -25t-27 -62q0 -54 92 -120q45 -33 69 -63.5t24 -69.5q0 -54 -47.5 -102.5t-136.5 -48.5h-3l-20 -55q14 3 26 3
q34 0 55.5 -18.5t21.5 -46.5z" />
    <glyph glyph-name="Scaron" unicode="&#x160;" horiz-adv-x="509" 
d="M466 201q0 -88 -76 -149.5t-181 -61.5q-127 0 -199 36l50 199h2l53 -192q4 -17 20 -21q28 -7 62 -7q70 0 120.5 39.5t50.5 113.5q0 81 -85 144l-79 58q-91 67 -91 164q0 81 62 135t155 54q96 0 192 -27l-43 -199h-2l-55 187q-3 16 -19 19q-34 6 -51 6q-67 0 -112 -34.5
t-45 -96.5q0 -76 104 -151l78 -57q89 -63 89 -159zM363 745h-2l-105 173l2 2l123 -75l158 75l1 -2z" />
    <glyph glyph-name="scaron" unicode="&#x161;" horiz-adv-x="373" 
d="M366 467l-56 -156h-2l-33 156q-3 14 -16 15q-6 1 -15 1q-50 0 -77 -25t-27 -62q0 -54 92 -120q45 -33 69 -63.5t24 -69.5q0 -54 -47.5 -102.5t-136.5 -48.5q-32 0 -74 11.5t-68 26.5l62 161h3l28 -168q1 -8 3.5 -10.5t10.5 -4.5q16 -4 38 -4q51 0 76.5 28t25.5 70
q0 29 -19.5 53t-68.5 63q-47 38 -69.5 68t-22.5 70q0 57 48 98t126 41q68 0 126 -28zM244 529h-2l-105 173l2 2l123 -75l158 75l1 -2z" />
    <glyph glyph-name="Tcommaaccent" unicode="&#x162;" horiz-adv-x="595" 
d="M671 703l-48 -228h-2l-47 191q-3 12 -6.5 15.5t-15.5 3.5h-114l-130 -616q-2 -8 -0.5 -12t9.5 -8l81 -47v-2h-305v2l101 47q15 7 17 20l130 616h-114q-12 0 -16.5 -3t-13.5 -16l-127 -191h-2l48 228h555zM278 -97q0 -38 -26.5 -72t-65.5 -57q-24 -14 -48 -21v2
q22 10 37 27q20 22 32 57q4 11 -6 13q-34 7 -34 41q0 26 18.5 44.5t44.5 18.5q22 0 35 -14.5t13 -38.5z" />
    <glyph glyph-name="tcommaaccent" unicode="&#x163;" horiz-adv-x="286" 
d="M348 479v-18h-128l-72 -302q-16 -66 -16 -81q0 -30 24 -30q25 0 46 29q38 52 52 142h2q-10 -110 -64 -175q-43 -52 -91 -52q-26 0 -43.5 17t-17.5 44q0 28 15 88l77 320h-86v18h84q12 0 16 6l124 192h2l-47 -198h123zM131 -97q0 -38 -26.5 -72t-65.5 -57q-24 -14 -48 -21
v2q22 10 37 27q20 22 32 57q4 11 -6 13q-34 7 -34 41q0 26 18.5 44.5t44.5 18.5q22 0 35 -14.5t13 -38.5z" />
    <glyph glyph-name="Tcaron" unicode="&#x164;" horiz-adv-x="595" 
d="M671 703l-48 -228h-2l-47 191q-3 12 -6.5 15.5t-15.5 3.5h-114l-130 -616q-2 -8 -0.5 -12t9.5 -8l81 -47v-2h-305v2l101 47q15 7 17 20l130 616h-114q-12 0 -16.5 -3t-13.5 -16l-127 -191h-2l48 228h555zM405 745h-2l-105 173l2 2l123 -75l158 75l1 -2z" />
    <glyph glyph-name="tcaron" unicode="&#x165;" horiz-adv-x="286" 
d="M348 479v-18h-128l-72 -302q-16 -66 -16 -81q0 -30 24 -30q25 0 46 29q38 52 52 142h2q-10 -110 -64 -175q-43 -52 -91 -52q-26 0 -43.5 17t-17.5 44q0 28 15 88l77 320h-86v18h84q12 0 16 6l124 192h2l-47 -198h123zM358 703h96l-139 -191h-1z" />
    <glyph glyph-name="Tbar" unicode="&#x166;" horiz-adv-x="595" 
d="M398 0h-305v2l101 47q15 7 17 20l59 282h-131v18h135l67 316h-114q-12 0 -16.5 -3t-13.5 -16l-127 -191h-2l48 228h555l-48 -228h-2l-47 191q-3 12 -6.5 15.5t-15.5 3.5h-114l-67 -316h132v-18h-136l-59 -282q-2 -8 -0.5 -12t9.5 -8l81 -47v-2z" />
    <glyph glyph-name="tbar" unicode="&#x167;" horiz-adv-x="300" 
d="M199 44q-43 -52 -91 -52q-26 0 -43.5 17t-17.5 44q0 28 15 88l46 191h-93v17h97l27 112h-86v18h84q12 0 16 6l124 192h2l-47 -198h123v-18h-128l-27 -112h118v-17h-122l-41 -173q-16 -66 -16 -81q0 -30 24 -30q25 0 46 29q38 52 52 142h2q-10 -110 -64 -175z" />
    <glyph glyph-name="Utilde" unicode="&#x168;" horiz-adv-x="645" 
d="M623 607l-76 -359q-27 -126 -87 -192t-185 -66q-91 0 -140 49t-49 125q0 30 5 51l87 416q2 12 -9 20l-68 50v2h286v-2l-95 -50q-15 -7 -17 -20l-85 -405q-8 -36 -8 -74q0 -136 132 -136q165 0 214 231l76 360q4 19 -10 30l-81 64v2h242v-2l-110 -64q-18 -10 -22 -30z
M528 777q-22 0 -61.5 23.5t-60.5 23.5q-41 0 -70 -48l-2 1q10 48 35.5 79t60.5 31q22 0 61 -23.5t60 -23.5q42 0 71 48l2 -1q-10 -48 -35.5 -79t-60.5 -31z" />
    <glyph glyph-name="utilde" unicode="&#x169;" horiz-adv-x="524" 
d="M389 76q0 -29 24 -29q30 0 54 39q27 42 46 133h2q-15 -126 -71 -187q-35 -40 -78 -40q-27 0 -44 17.5t-17 53.5q0 46 26 144h-2q-35 -101 -89.5 -158t-110.5 -57q-37 0 -58.5 21t-21.5 56q0 31 27 117l48 152q16 50 16 71q0 30 -25 30q-27 0 -51 -36q-31 -47 -47 -135h-2
q9 105 56 166t103 61q27 0 44 -16t17 -48t-24 -106l-51 -159q-19 -59 -19 -87q0 -36 38 -36q53 0 108 96q50 85 112 348h88l-92 -368q-6 -22 -6 -43zM402 561q-22 0 -61.5 23.5t-60.5 23.5q-41 0 -70 -48l-2 1q10 48 35.5 79t60.5 31q22 0 61 -23.5t60 -23.5q42 0 71 48
l2 -1q-10 -48 -35.5 -79t-60.5 -31z" />
    <glyph glyph-name="Umacron" unicode="&#x16a;" horiz-adv-x="645" 
d="M623 607l-76 -359q-27 -126 -87 -192t-185 -66q-91 0 -140 49t-49 125q0 30 5 51l87 416q2 12 -9 20l-68 50v2h286v-2l-95 -50q-15 -7 -17 -20l-85 -405q-8 -36 -8 -74q0 -136 132 -136q165 0 214 231l76 360q4 19 -10 30l-81 64v2h242v-2l-110 -64q-18 -10 -22 -30z
M595 807h-246v18h246v-18z" />
    <glyph glyph-name="umacron" unicode="&#x16b;" horiz-adv-x="524" 
d="M389 76q0 -29 24 -29q30 0 54 39q27 42 46 133h2q-15 -126 -71 -187q-35 -40 -78 -40q-27 0 -44 17.5t-17 53.5q0 46 26 144h-2q-35 -101 -89.5 -158t-110.5 -57q-37 0 -58.5 21t-21.5 56q0 31 27 117l48 152q16 50 16 71q0 30 -25 30q-27 0 -51 -36q-31 -47 -47 -135h-2
q9 105 56 166t103 61q27 0 44 -16t17 -48t-24 -106l-51 -159q-19 -59 -19 -87q0 -36 38 -36q53 0 108 96q50 85 112 348h88l-92 -368q-6 -22 -6 -43zM469 591h-246v18h246v-18z" />
    <glyph glyph-name="Ubreve" unicode="&#x16c;" horiz-adv-x="645" 
d="M623 607l-76 -359q-27 -126 -87 -192t-185 -66q-91 0 -140 49t-49 125q0 30 5 51l87 416q2 12 -9 20l-68 50v2h286v-2l-95 -50q-15 -7 -17 -20l-85 -405q-8 -36 -8 -74q0 -136 132 -136q165 0 214 231l76 360q4 19 -10 30l-81 64v2h242v-2l-110 -64q-18 -10 -22 -30z
M465 758q-43 0 -74 23.5t-31 69.5q0 30 14 65h2q-8 -45 18.5 -71.5t73.5 -26.5q48 0 85 26.5t48 71.5h2q-3 -80 -42.5 -119t-95.5 -39z" />
    <glyph glyph-name="ubreve" unicode="&#x16d;" horiz-adv-x="524" 
d="M389 76q0 -29 24 -29q30 0 54 39q27 42 46 133h2q-15 -126 -71 -187q-35 -40 -78 -40q-27 0 -44 17.5t-17 53.5q0 46 26 144h-2q-35 -101 -89.5 -158t-110.5 -57q-37 0 -58.5 21t-21.5 56q0 31 27 117l48 152q16 50 16 71q0 30 -25 30q-27 0 -51 -36q-31 -47 -47 -135h-2
q9 105 56 166t103 61q27 0 44 -16t17 -48t-24 -106l-51 -159q-19 -59 -19 -87q0 -36 38 -36q53 0 108 96q50 85 112 348h88l-92 -368q-6 -22 -6 -43zM339 542q-43 0 -74 23.5t-31 69.5q0 30 14 65h2q-8 -45 18.5 -71.5t73.5 -26.5q48 0 85 26.5t48 71.5h2q-3 -80 -42.5 -119
t-95.5 -39z" />
    <glyph glyph-name="Uring" unicode="&#x16e;" horiz-adv-x="645" 
d="M623 607l-76 -359q-27 -126 -87 -192t-185 -66q-91 0 -140 49t-49 125q0 30 5 51l87 416q2 12 -9 20l-68 50v2h286v-2l-95 -50q-15 -7 -17 -20l-85 -405q-8 -36 -8 -74q0 -136 132 -136q165 0 214 231l76 360q4 19 -10 30l-81 64v2h242v-2l-110 -64q-18 -10 -22 -30z
M465 758q-30 0 -49.5 19.5t-19.5 48.5q0 39 27.5 66t66.5 27q30 0 49.5 -19.5t19.5 -48.5q0 -39 -27.5 -66t-66.5 -27zM467 776q29 0 51 22t22 52q0 22 -14.5 36.5t-37.5 14.5q-29 0 -51 -22t-22 -52q0 -22 14.5 -36.5t37.5 -14.5z" />
    <glyph glyph-name="uring" unicode="&#x16f;" horiz-adv-x="524" 
d="M389 76q0 -29 24 -29q30 0 54 39q27 42 46 133h2q-15 -126 -71 -187q-35 -40 -78 -40q-27 0 -44 17.5t-17 53.5q0 46 26 144h-2q-35 -101 -89.5 -158t-110.5 -57q-37 0 -58.5 21t-21.5 56q0 31 27 117l48 152q16 50 16 71q0 30 -25 30q-27 0 -51 -36q-31 -47 -47 -135h-2
q9 105 56 166t103 61q27 0 44 -16t17 -48t-24 -106l-51 -159q-19 -59 -19 -87q0 -36 38 -36q53 0 108 96q50 85 112 348h88l-92 -368q-6 -22 -6 -43zM339 542q-30 0 -49.5 19.5t-19.5 48.5q0 39 27.5 66t66.5 27q30 0 49.5 -19.5t19.5 -48.5q0 -39 -27.5 -66t-66.5 -27z
M341 560q29 0 51 22t22 52q0 22 -14.5 36.5t-37.5 14.5q-29 0 -51 -22t-22 -52q0 -22 14.5 -36.5t37.5 -14.5z" />
    <glyph glyph-name="Uhungarumlaut" unicode="&#x170;" horiz-adv-x="645" 
d="M623 607l-76 -359q-27 -126 -87 -192t-185 -66q-91 0 -140 49t-49 125q0 30 5 51l87 416q2 12 -9 20l-68 50v2h286v-2l-95 -50q-15 -7 -17 -20l-85 -405q-8 -36 -8 -74q0 -136 132 -136q165 0 214 231l76 360q4 19 -10 30l-81 64v2h242v-2l-110 -64q-18 -10 -22 -30z
M465 919h102v-2l-200 -169h-2zM602 919h102v-2l-200 -169h-2z" />
    <glyph glyph-name="uhungarumlaut" unicode="&#x171;" horiz-adv-x="524" 
d="M389 76q0 -29 24 -29q30 0 54 39q27 42 46 133h2q-15 -126 -71 -187q-35 -40 -78 -40q-27 0 -44 17.5t-17 53.5q0 46 26 144h-2q-35 -101 -89.5 -158t-110.5 -57q-37 0 -58.5 21t-21.5 56q0 31 27 117l48 152q16 50 16 71q0 30 -25 30q-27 0 -51 -36q-31 -47 -47 -135h-2
q9 105 56 166t103 61q27 0 44 -16t17 -48t-24 -106l-51 -159q-19 -59 -19 -87q0 -36 38 -36q53 0 108 96q50 85 112 348h88l-92 -368q-6 -22 -6 -43zM339 703h102v-2l-200 -169h-2zM476 703h102v-2l-200 -169h-2z" />
    <glyph glyph-name="Uogonek" unicode="&#x172;" horiz-adv-x="645" 
d="M221 -236q-32 0 -56.5 21t-24.5 57q0 50 37.5 88t94.5 60q-90 1 -138 49.5t-48 124.5q0 30 5 51l87 416q2 12 -9 20l-68 50v2h286v-2l-95 -50q-15 -7 -17 -20l-85 -405q-8 -36 -8 -74q0 -136 132 -136q165 0 214 231l76 360q4 19 -10 30l-81 64v2h242v-2l-110 -64
q-18 -10 -22 -30l-76 -359q-26 -123 -84.5 -189t-177.5 -69q-79 -49 -79 -119q0 -27 17 -41.5t44 -14.5q47 0 79 35l2 -1q-54 -85 -127 -85z" />
    <glyph glyph-name="uogonek" unicode="&#x173;" horiz-adv-x="524" 
d="M359 -185q47 0 79 35l2 -1q-54 -85 -127 -85q-32 0 -56.5 21t-24.5 57q0 52 39.5 90.5t97.5 59.5h-3q-27 0 -44 17.5t-17 53.5q0 46 26 144h-2q-35 -101 -89.5 -158t-110.5 -57q-37 0 -58.5 21t-21.5 56q0 31 27 117l48 152q16 50 16 71q0 30 -25 30q-27 0 -51 -36
q-31 -47 -47 -135h-2q9 105 56 166t103 61q27 0 44 -16t17 -48t-24 -106l-51 -159q-19 -59 -19 -87q0 -36 38 -36q53 0 108 96q50 85 112 348h88l-92 -368q-6 -22 -6 -43q0 -29 24 -29q30 0 54 39q27 42 46 133h2q-15 -126 -71 -187q-27 -30 -59 -38q-37 -20 -62 -52.5
t-25 -70.5q0 -27 17 -41.5t44 -14.5z" />
    <glyph glyph-name="Wcircumflex" unicode="&#x174;" horiz-adv-x="946" 
d="M948 597l-318 -597h-56l-55 476l-255 -476h-56l-79 621q-3 23 -15 38l-34 42v2h238v-2l-82 -54q-12 -7 -9 -24l67 -530l222 414l-13 114q-2 19 -15 38l-28 42v2h232v-2l-83 -54q-11 -7 -10 -22l61 -531l267 501q6 13 4.5 20t-10.5 16l-72 70v2h225v-2l-90 -65
q-25 -19 -36 -39zM590 836l-160 -83l-1 2l177 173h2l105 -173l-2 -2z" />
    <glyph glyph-name="wcircumflex" unicode="&#x175;" horiz-adv-x="649" 
d="M588 314q0 77 -34 121l-13 17v2l114 41q2 -68 -19 -154t-57 -164t-91.5 -131.5t-115.5 -53.5q-34 0 -56.5 22t-22.5 69q0 38 16 90h-2q-54 -181 -160 -181q-48 0 -71.5 29t-23.5 74q0 42 25 122l35 112q16 52 16 78q0 30 -23 30q-48 0 -99 -138l-2 1q30 104 71.5 149.5
t86.5 45.5q61 0 61 -67q0 -32 -30 -127l-35 -110q-18 -56 -18 -90q0 -28 13.5 -44.5t33.5 -16.5q62 0 112 135q43 115 71 305l91 15q-16 -125 -72 -324q-11 -40 -11 -64q0 -67 52 -67q53 0 105.5 90.5t52.5 183.5zM442 620l-160 -83l-1 2l177 173h2l105 -173l-2 -2z" />
    <glyph glyph-name="Ycircumflex" unicode="&#x176;" horiz-adv-x="585" 
d="M568 593l-200 -270q-10 -13 -15 -36l-46 -218q-2 -8 -0.5 -12t9.5 -8l81 -47v-2h-305v2l101 47q13 7 17 20l43 207q4 16 -1 30l-111 317q-6 20 -19 33l-42 45v2h245v-2l-76 -51q-11 -8 -8 -18l106 -307l206 278q11 15 2 24l-69 74v2h227v-2l-102 -69q-28 -19 -43 -39z
M431 836l-160 -83l-1 2l177 173h2l105 -173l-2 -2z" />
    <glyph glyph-name="ycircumflex" unicode="&#x177;" horiz-adv-x="425" 
d="M360 338q0 72 -47 114v2l118 41q-14 -134 -66 -265t-125 -235q-75 -106 -156.5 -168.5t-142.5 -62.5q-15 0 -23 4l48 140h2l61 -80q10 -13 25 -3q44 28 102 88q6 7 6 22v25q0 124 -16 255.5t-33 181.5q-12 36 -32 36q-36 0 -79 -137l-2 1q49 198 131 198q47 0 70 -74
q20 -65 31.5 -175.5t8.5 -221.5h2q44 66 72 131q45 104 45 183zM290 620l-160 -83l-1 2l177 173h2l105 -173l-2 -2z" />
    <glyph glyph-name="Ydieresis" unicode="&#x178;" horiz-adv-x="585" 
d="M568 593l-200 -270q-10 -13 -15 -36l-46 -218q-2 -8 -0.5 -12t9.5 -8l81 -47v-2h-305v2l101 47q13 7 17 20l43 207q4 16 -1 30l-111 317q-6 20 -19 33l-42 45v2h245v-2l-76 -51q-11 -8 -8 -18l106 -307l206 278q11 15 2 24l-69 74v2h227v-2l-102 -69q-28 -19 -43 -39z
M352 892q21 0 34 -13t13 -34q0 -23 -17 -40.5t-43 -17.5q-20 0 -33 13t-13 34q0 23 17 40.5t42 17.5zM515 892q21 0 34 -13t13 -34q0 -23 -17 -40.5t-43 -17.5q-20 0 -33 13t-13 34q0 23 17 40.5t42 17.5z" />
    <glyph glyph-name="Zacute" unicode="&#x179;" horiz-adv-x="551" 
d="M638 703v-2l-548 -683h245q27 0 36 13l145 198h2l-48 -229h-501v2l545 683h-223q-27 0 -36 -13l-142 -201h-2l49 232h478zM468 919h125v-2l-241 -161l-2 2z" />
    <glyph glyph-name="zacute" unicode="&#x17a;" horiz-adv-x="375" 
d="M341 399l-250 -277q31 -4 81.5 -24.5t79.5 -20.5q15 0 27 4.5t27.5 17.5t29.5 43.5t26 76.5h2q-7 -47 -25.5 -92.5t-36.5 -71.5q-41 -63 -93 -63q-30 0 -72 19q-62 28 -84 28q-42 0 -49 -54h-2q-2 12 -2 20q0 40 44 90l241 265q-35 5 -82 30q-48 23 -76 23t-49.5 -24
t-40.5 -96h-2q19 108 54 155t75 47q31 0 87 -28q50 -25 73 -25q25 0 44 17t24 50h2q-1 -32 -12.5 -55t-40.5 -55zM309 703h125v-2l-241 -161l-2 2z" />
    <glyph glyph-name="Zdotaccent" unicode="&#x17b;" horiz-adv-x="551" 
d="M638 703v-2l-548 -683h245q27 0 36 13l145 198h2l-48 -229h-501v2l545 683h-223q-27 0 -36 -13l-142 -201h-2l49 232h478zM417 771q-23 0 -38 15t-15 39q0 26 19.5 46t48.5 20q23 0 38 -15t15 -39q0 -26 -19.5 -46t-48.5 -20z" />
    <glyph glyph-name="zdotaccent" unicode="&#x17c;" horiz-adv-x="375" 
d="M341 399l-250 -277q31 -4 81.5 -24.5t79.5 -20.5q15 0 27 4.5t27.5 17.5t29.5 43.5t26 76.5h2q-7 -47 -25.5 -92.5t-36.5 -71.5q-41 -63 -93 -63q-30 0 -72 19q-62 28 -84 28q-42 0 -49 -54h-2q-2 12 -2 20q0 40 44 90l241 265q-35 5 -82 30q-48 23 -76 23t-49.5 -24
t-40.5 -96h-2q19 108 54 155t75 47q31 0 87 -28q50 -25 73 -25q25 0 44 17t24 50h2q-1 -32 -12.5 -55t-40.5 -55zM258 555q-23 0 -38 15t-15 39q0 26 19.5 46t48.5 20q23 0 38 -15t15 -39q0 -26 -19.5 -46t-48.5 -20z" />
    <glyph glyph-name="Zcaron" unicode="&#x17d;" horiz-adv-x="551" 
d="M638 703v-2l-548 -683h245q27 0 36 13l145 198h2l-48 -229h-501v2l545 683h-223q-27 0 -36 -13l-142 -201h-2l49 232h478zM411 745h-2l-105 173l2 2l123 -75l158 75l1 -2z" />
    <glyph glyph-name="zcaron" unicode="&#x17e;" horiz-adv-x="375" 
d="M341 399l-250 -277q31 -4 81.5 -24.5t79.5 -20.5q15 0 27 4.5t27.5 17.5t29.5 43.5t26 76.5h2q-7 -47 -25.5 -92.5t-36.5 -71.5q-41 -63 -93 -63q-30 0 -72 19q-62 28 -84 28q-42 0 -49 -54h-2q-2 12 -2 20q0 40 44 90l241 265q-35 5 -82 30q-48 23 -76 23t-49.5 -24
t-40.5 -96h-2q19 108 54 155t75 47q31 0 87 -28q50 -25 73 -25q25 0 44 17t24 50h2q-1 -32 -12.5 -55t-40.5 -55zM252 529h-2l-105 173l2 2l123 -75l158 75l1 -2z" />
    <glyph glyph-name="florin" unicode="&#x192;" horiz-adv-x="397" 
d="M46 284v18h99l28 133q27 135 79.5 206.5t142.5 71.5q64 0 113 -20l-55 -144h-2l-40 131q-4 13 -7.5 15.5t-16.5 2.5q-26 0 -46 -19t-35.5 -64t-21 -66.5t-17.5 -78.5q-1 -5 -2 -8l-33 -160h117v-18h-121l-24 -119q-23 -116 -57.5 -202t-88 -142.5t-119.5 -56.5
q-45 0 -69 20l56 156h2l33 -130q5 -22 18 -22t25 12q9 9 17 21.5t15 29.5t13 31.5t12.5 38.5t11 40t11 45.5t10 45.5t10.5 51l10 50l27 131h-95z" />
    <glyph glyph-name="uni01B5" unicode="&#x1b5;" horiz-adv-x="575" 
d="M510 334h-167l-253 -316h245q27 0 36 13l145 198h2l-48 -229h-501v2l265 332h-153v17h166l267 334h-223q-27 0 -36 -13l-142 -201h-2l49 232h478v-2l-281 -350h153v-17z" />
    <glyph glyph-name="uni01B6" unicode="&#x1b6;" horiz-adv-x="375" 
d="M4 -15h-2q-2 12 -2 20q0 40 44 90l129 142h-105v17h120l97 106q-35 5 -82 30q-48 23 -76 23t-49.5 -24t-40.5 -96h-2q19 108 54 155t75 47q31 0 87 -28q50 -25 73 -25q25 0 44 17t24 50h2q-1 -32 -12.5 -55t-40.5 -55l-131 -145h101v-17h-117l-103 -115q31 -4 81.5 -24.5
t79.5 -20.5q15 0 27 4.5t27.5 17.5t29.5 43.5t26 76.5h2q-7 -47 -25.5 -92.5t-36.5 -71.5q-41 -63 -93 -63q-30 0 -72 19q-62 28 -84 28q-42 0 -49 -54z" />
    <glyph glyph-name="Aringacute" unicode="&#x1fa;" horiz-adv-x="621" 
d="M382 967h121v-2l-146 -99q-30 -20 -36 -30q28 27 66 27q32 0 56.5 -17t24.5 -45t-24.5 -45t-56.5 -17t-56.5 17t-24.5 45q0 16 9 32zM324 801q0 -21 19 -33t44 -12t44 12t19 33t-19 33t-44 12t-44 -12t-19 -33zM417 81l-21 165h-237l-78 -143q-6 -13 -5 -17t13 -16
l70 -68v-2h-225v2l95 68q22 16 33 36l273 498q8 16 7.5 21t-7.5 16l-42 60v2h143l79 -621q3 -24 15 -38l34 -42v-2h-239v2l83 54q12 7 9 25zM352 598l-183 -334h225z" />
    <glyph glyph-name="aringacute" unicode="&#x1fb;" horiz-adv-x="492" 
d="M324 750h121v-2l-146 -99q-30 -20 -36 -30q28 27 66 27q32 0 56 -17t24 -45t-24 -45t-56 -17t-56.5 17t-24.5 45q0 16 9 32zM266 584q0 -21 19 -33t44 -12t43.5 12t18.5 33t-18.5 33t-43.5 12t-44 -12t-19 -33zM459 494l-100 -368q-8 -32 -8 -48q0 -32 26 -32q33 0 60 53
q23 44 41 121h2q-13 -96 -54 -162t-98 -66q-59 0 -59 71q0 39 23 129h-2q-35 -100 -74.5 -150t-90.5 -50q-45 0 -72 37.5t-27 110.5q0 84 34 166t92.5 135.5t123.5 53.5q69 0 82 -57l99 57zM258 141q46 97 96 293q-14 30 -57 30q-56 0 -102 -67q-33 -48 -54.5 -120
t-21.5 -137q0 -93 48 -93q46 0 91 94z" />
    <glyph glyph-name="AEacute" unicode="&#x1fc;" horiz-adv-x="894" 
d="M790 0h-514v2l96 47q15 7 17 20l37 176h-237l-110 -136q-14 -17 -15.5 -23.5t7.5 -16.5l70 -67v-2h-225v2l86 58q33 22 47 39l411 505q13 16 14.5 21.5t-6.5 15.5l-50 60v2h509l-45 -216h-2l-47 180q-3 11 -8.5 14.5t-16.5 3.5h-178q-10 0 -14 -4.5t-7 -18.5l-62 -294
h124q17 1 32 19l83 89h2l-49 -234h-2l-46 90q-9 18 -25 18h-122l-64 -309q-3 -14 -1 -18.5t12 -4.5h178q25 0 37 13l127 182h2zM430 263l79 375l-305 -375h226zM707 922h125v-2l-241 -161l-2 2z" />
    <glyph glyph-name="aeacute" unicode="&#x1fd;" horiz-adv-x="684" 
d="M674 399q0 -71 -79 -118t-172 -47q-23 0 -42 3q-4 -24 -4 -52q0 -61 25.5 -97t76.5 -36q58 0 102.5 44t62.5 131h2q-6 -65 -27 -113t-51 -73.5t-61.5 -37t-64.5 -11.5q-66 0 -112 46t-49 129h-1q-28 -91 -65 -133t-90 -42q-45 0 -72 37.5t-27 110.5q0 84 34 166
t92.5 135.5t123.5 53.5q37 0 64 -21.5t36 -62.5q79 84 177 84q53 0 87 -27.5t34 -68.5zM167 47q31 0 61 40.5t53 106.5q6 118 88 210q-23 60 -72 60q-56 0 -102 -67q-33 -48 -54.5 -120t-21.5 -137q0 -93 48 -93zM541 480q-50 0 -96.5 -72.5t-62.5 -161.5q6 -1 19 -1
q77 0 128 48t51 122q0 65 -39 65zM468 703h125v-2l-241 -161l-2 2z" />
    <glyph glyph-name="Oslashacute" unicode="&#x1fe;" horiz-adv-x="666" 
d="M405 713q50 0 92 -15l36 81l16 -7l-35 -80q71 -31 110.5 -99t39.5 -159q0 -119 -49 -221.5t-133 -162.5t-182 -60q-48 0 -90 14l-38 -86l-17 7l38 85q-72 30 -112 98t-40 161q0 119 49 221.5t133 162.5t182 60zM146 224q0 -135 58 -188l283 640q-33 22 -77 22
q-72 0 -134 -73t-96 -181.5t-34 -219.5zM295 5q72 0 134 73t96 181.5t34 219.5q0 132 -57 186l-283 -640q32 -20 76 -20zM517 919h125v-2l-242 -161l-1 2z" />
    <glyph glyph-name="oslashacute" unicode="&#x1ff;" horiz-adv-x="460" 
d="M174 -10q-25 0 -46 6l-34 -77l-18 6l34 78q-84 37 -84 164q0 82 34 157.5t94 123t130 47.5q19 0 42 -5l27 61l17 -6l-27 -61q91 -35 91 -167q0 -126 -77 -226.5t-183 -100.5zM338 361q0 53 -13 83l-183 -417q15 -23 40 -23q42 0 79 60.5t57 142.5t20 154zM123 124
q0 -45 8 -73l183 413q-14 17 -35 17q-42 0 -79 -60.5t-57 -142.5t-20 -154zM386 703h125v-2l-242 -161l-1 2z" />
    <glyph glyph-name="Scommaaccent" unicode="&#x218;" horiz-adv-x="509" 
d="M466 201q0 -88 -76 -149.5t-181 -61.5q-127 0 -199 36l50 199h2l53 -192q4 -17 20 -21q28 -7 62 -7q70 0 120.5 39.5t50.5 113.5q0 81 -85 144l-79 58q-91 67 -91 164q0 81 62 135t155 54q96 0 192 -27l-43 -199h-2l-55 187q-3 16 -19 19q-34 6 -51 6q-67 0 -112 -34.5
t-45 -96.5q0 -76 104 -151l78 -57q89 -63 89 -159zM247 -97q0 -38 -26.5 -72t-65.5 -57q-24 -14 -48 -21v2q22 10 37 27q20 22 32 57q4 11 -6 13q-34 7 -34 41q0 26 18.5 44.5t44.5 18.5q22 0 35 -14.5t13 -38.5z" />
    <glyph glyph-name="scommaaccent" unicode="&#x219;" horiz-adv-x="373" 
d="M366 467l-56 -156h-2l-33 156q-3 14 -16 15q-6 1 -15 1q-50 0 -77 -25t-27 -62q0 -54 92 -120q45 -33 69 -63.5t24 -69.5q0 -54 -47.5 -102.5t-136.5 -48.5q-32 0 -74 11.5t-68 26.5l62 161h3l28 -168q1 -8 3.5 -10.5t10.5 -4.5q16 -4 38 -4q51 0 76.5 28t25.5 70
q0 29 -19.5 53t-68.5 63q-47 38 -69.5 68t-22.5 70q0 57 48 98t126 41q68 0 126 -28zM168 -97q0 -38 -26.5 -72t-65.5 -57q-24 -14 -48 -21v2q22 10 37 27q20 22 32 57q4 11 -6 13q-34 7 -34 41q0 26 18.5 44.5t44.5 18.5q22 0 35 -14.5t13 -38.5z" />
    <glyph glyph-name="uni021A" unicode="&#x21a;" horiz-adv-x="595" 
d="M671 703l-48 -228h-2l-47 191q-3 12 -6.5 15.5t-15.5 3.5h-114l-130 -616q-2 -8 -0.5 -12t9.5 -8l81 -47v-2h-305v2l101 47q15 7 17 20l130 616h-114q-12 0 -16.5 -3t-13.5 -16l-127 -191h-2l48 228h555zM278 -97q0 -38 -26.5 -72t-65.5 -57q-24 -14 -48 -21v2
q22 10 37 27q20 22 32 57q4 11 -6 13q-34 7 -34 41q0 26 18.5 44.5t44.5 18.5q22 0 35 -14.5t13 -38.5z" />
    <glyph glyph-name="uni021B" unicode="&#x21b;" horiz-adv-x="286" 
d="M348 479v-18h-128l-72 -302q-16 -66 -16 -81q0 -30 24 -30q25 0 46 29q38 52 52 142h2q-10 -110 -64 -175q-43 -52 -91 -52q-26 0 -43.5 17t-17.5 44q0 28 15 88l77 320h-86v18h84q12 0 16 6l124 192h2l-47 -198h123zM131 -97q0 -38 -26.5 -72t-65.5 -57q-24 -14 -48 -21
v2q22 10 37 27q20 22 32 57q4 11 -6 13q-34 7 -34 41q0 26 18.5 44.5t44.5 18.5q22 0 35 -14.5t13 -38.5z" />
    <glyph glyph-name="dotlessj" unicode="&#x237;" horiz-adv-x="250" 
d="M144 109q-15 -65 -37 -122t-54 -109.5t-77 -83t-98 -30.5q-41 0 -64 20l57 156h2l34 -135q4 -17 17 -17q8 0 16 5q62 45 126 343l61 291q4 15 -12 20l-86 30v2l206 16z" />
    <glyph glyph-name="circumflex" unicode="&#x2c6;" horiz-adv-x="384" 
d="M211 620l-160 -83l-1 2l177 173h2l105 -173l-2 -2z" />
    <glyph glyph-name="caron" unicode="&#x2c7;" horiz-adv-x="384" 
d="M156 529h-2l-105 173l2 2l123 -75l158 75l1 -2z" />
    <glyph glyph-name="uni02C9" unicode="&#x2c9;" horiz-adv-x="349" 
d="M356 591h-246v18h246v-18z" />
    <glyph glyph-name="breve" unicode="&#x2d8;" horiz-adv-x="343" 
d="M155 542q-43 0 -74 23.5t-31 69.5q0 30 14 65h2q-8 -45 18.5 -71.5t73.5 -26.5q48 0 85 26.5t48 71.5h2q-3 -80 -42.5 -119t-95.5 -39z" />
    <glyph glyph-name="dotaccent" unicode="&#x2d9;" horiz-adv-x="221" 
d="M103 555q-23 0 -38 15t-15 39q0 26 19.5 46t48.5 20q23 0 38 -15t15 -39q0 -26 -19.5 -46t-48.5 -20z" />
    <glyph glyph-name="ring" unicode="&#x2da;" horiz-adv-x="264" 
d="M120 542q-30 0 -49.5 19.5t-19.5 48.5q0 39 27.5 66t66.5 27q30 0 49.5 -19.5t19.5 -48.5q0 -39 -27.5 -66t-66.5 -27zM122 560q29 0 51 22t22 52q0 22 -14.5 36.5t-37.5 14.5q-29 0 -51 -22t-22 -52q0 -22 14.5 -36.5t37.5 -14.5z" />
    <glyph glyph-name="ogonek" unicode="&#x2db;" horiz-adv-x="308" 
d="M116 -129q0 -27 17 -41.5t44 -14.5q47 0 79 35l2 -1q-54 -85 -127 -85q-32 0 -56.5 21t-24.5 57q0 57 48 98t114 60h2q-41 -20 -69.5 -54.5t-28.5 -74.5z" />
    <glyph glyph-name="tilde" unicode="&#x2dc;" horiz-adv-x="390" 
d="M244 561q-22 0 -61.5 23.5t-60.5 23.5q-41 0 -70 -48l-2 1q10 48 35.5 79t60.5 31q22 0 61 -23.5t60 -23.5q42 0 71 48l2 -1q-10 -48 -35.5 -79t-60.5 -31z" />
    <glyph glyph-name="hungarumlaut" unicode="&#x2dd;" horiz-adv-x="439" 
d="M150 703h102v-2l-200 -169h-2zM287 703h102v-2l-200 -169h-2z" />
    <glyph glyph-name="uni0394" unicode="&#x394;" horiz-adv-x="526" 
d="M476 0h-521v2l331 602q8 16 7.5 21t-7.5 16l-42 60v2h143zM303 598l-317 -580h390z" />
    <glyph glyph-name="uni03A9" unicode="&#x3a9;" horiz-adv-x="710" 
d="M444 699q-70 0 -131.5 -62.5t-95.5 -156t-34 -189.5q0 -170 107 -196l-19 -95h-274l42 203h2l53 -172q6 -13 31 -13h132l13 66q-90 18 -141.5 86t-51.5 160q0 101 49 189.5t134 141t184 52.5q117 0 185 -73.5t68 -182.5q0 -150 -92 -257t-232 -121l-13 -61h132
q26 0 37 13l125 172h2l-43 -203h-275l20 92q67 12 121 74.5t83 150t29 179.5q0 203 -147 203z" />
    <glyph glyph-name="uni03BC" unicode="&#x3bc;" horiz-adv-x="547" 
d="M389 76q0 -29 24 -29q31 0 57.5 45t42.5 127h2q-15 -126 -71 -187q-35 -40 -78 -40q-27 0 -44 17.5t-17 53.5q0 53 26 144h-2q-35 -100 -89.5 -157.5t-110.5 -57.5q-8 0 -14 1l-41 -152q-3 -12 -1.5 -15.5t10.5 -6.5l119 -45v-2h-293v2l54 34q17 11 21 27l140 503
q14 49 14 71q0 30 -23 30q-27 0 -51 -36q-31 -47 -47 -135h-2q9 105 56 166t103 61q59 0 59 -64q0 -32 -22 -106l-46 -159q-19 -65 -19 -87q0 -36 33 -36q50 0 108 96q34 56 69 176q19 67 43 172h88l-92 -368q-6 -22 -6 -43z" />
    <glyph glyph-name="pi" unicode="&#x3c0;" horiz-adv-x="583" 
d="M516 412l-73 -348q-4 -16 6 -22l60 -40v-2h-253v2l75 41q10 5 12 8.5t5 12.5l85 405h-189l-85 -405q-4 -14 7 -21l59 -41v-2h-252v2l75 40q12 6 16 22l73 348q3 15 -6 23l-58 50v2h537v-2l-78 -50q-12 -7 -16 -23z" />
    <glyph glyph-name="Wgrave" unicode="&#x1e80;" horiz-adv-x="946" 
d="M948 597l-318 -597h-56l-55 476l-255 -476h-56l-79 621q-3 23 -15 38l-34 42v2h238v-2l-82 -54q-12 -7 -9 -24l67 -530l222 414l-13 114q-2 19 -15 38l-28 42v2h232v-2l-83 -54q-11 -7 -10 -22l61 -531l267 501q6 13 4.5 20t-10.5 16l-72 70v2h225v-2l-90 -65
q-25 -19 -36 -39zM560 919l119 -161l-1 -2l-242 161l-1 2h125z" />
    <glyph glyph-name="wgrave" unicode="&#x1e81;" horiz-adv-x="649" 
d="M588 314q0 77 -34 121l-13 17v2l114 41q2 -68 -19 -154t-57 -164t-91.5 -131.5t-115.5 -53.5q-34 0 -56.5 22t-22.5 69q0 38 16 90h-2q-54 -181 -160 -181q-48 0 -71.5 29t-23.5 74q0 42 25 122l35 112q16 52 16 78q0 30 -23 30q-48 0 -99 -138l-2 1q30 104 71.5 149.5
t86.5 45.5q61 0 61 -67q0 -32 -30 -127l-35 -110q-18 -56 -18 -90q0 -28 13.5 -44.5t33.5 -16.5q62 0 112 135q43 115 71 305l91 15q-16 -125 -72 -324q-11 -40 -11 -64q0 -67 52 -67q53 0 105.5 90.5t52.5 183.5zM412 703l119 -161l-1 -2l-242 161l-1 2h125z" />
    <glyph glyph-name="Wacute" unicode="&#x1e82;" horiz-adv-x="946" 
d="M948 597l-318 -597h-56l-55 476l-255 -476h-56l-79 621q-3 23 -15 38l-34 42v2h238v-2l-82 -54q-12 -7 -9 -24l67 -530l222 414l-13 114q-2 19 -15 38l-28 42v2h232v-2l-83 -54q-11 -7 -10 -22l61 -531l267 501q6 13 4.5 20t-10.5 16l-72 70v2h225v-2l-90 -65
q-25 -19 -36 -39zM630 919h125v-2l-241 -161l-2 2z" />
    <glyph glyph-name="wacute" unicode="&#x1e83;" horiz-adv-x="649" 
d="M588 314q0 77 -34 121l-13 17v2l114 41q2 -68 -19 -154t-57 -164t-91.5 -131.5t-115.5 -53.5q-34 0 -56.5 22t-22.5 69q0 38 16 90h-2q-54 -181 -160 -181q-48 0 -71.5 29t-23.5 74q0 42 25 122l35 112q16 52 16 78q0 30 -23 30q-48 0 -99 -138l-2 1q30 104 71.5 149.5
t86.5 45.5q61 0 61 -67q0 -32 -30 -127l-35 -110q-18 -56 -18 -90q0 -28 13.5 -44.5t33.5 -16.5q62 0 112 135q43 115 71 305l91 15q-16 -125 -72 -324q-11 -40 -11 -64q0 -67 52 -67q53 0 105.5 90.5t52.5 183.5zM482 703h125v-2l-241 -161l-2 2z" />
    <glyph glyph-name="Wdieresis" unicode="&#x1e84;" horiz-adv-x="946" 
d="M948 597l-318 -597h-56l-55 476l-255 -476h-56l-79 621q-3 23 -15 38l-34 42v2h238v-2l-82 -54q-12 -7 -9 -24l67 -530l222 414l-13 114q-2 19 -15 38l-28 42v2h232v-2l-83 -54q-11 -7 -10 -22l61 -531l267 501q6 13 4.5 20t-10.5 16l-72 70v2h225v-2l-90 -65
q-25 -19 -36 -39zM511 892q21 0 34 -13t13 -34q0 -23 -17 -40.5t-43 -17.5q-20 0 -33 13t-13 34q0 23 17 40.5t42 17.5zM674 892q21 0 34 -13t13 -34q0 -23 -17 -40.5t-43 -17.5q-20 0 -33 13t-13 34q0 23 17 40.5t42 17.5z" />
    <glyph glyph-name="wdieresis" unicode="&#x1e85;" horiz-adv-x="649" 
d="M588 314q0 77 -34 121l-13 17v2l114 41q2 -68 -19 -154t-57 -164t-91.5 -131.5t-115.5 -53.5q-34 0 -56.5 22t-22.5 69q0 38 16 90h-2q-54 -181 -160 -181q-48 0 -71.5 29t-23.5 74q0 42 25 122l35 112q16 52 16 78q0 30 -23 30q-48 0 -99 -138l-2 1q30 104 71.5 149.5
t86.5 45.5q61 0 61 -67q0 -32 -30 -127l-35 -110q-18 -56 -18 -90q0 -28 13.5 -44.5t33.5 -16.5q62 0 112 135q43 115 71 305l91 15q-16 -125 -72 -324q-11 -40 -11 -64q0 -67 52 -67q53 0 105.5 90.5t52.5 183.5zM363 676q21 0 34 -13t13 -34q0 -23 -17 -40.5t-43 -17.5
q-20 0 -33 13t-13 34q0 23 17 40.5t42 17.5zM526 676q21 0 34 -13t13 -34q0 -23 -17 -40.5t-43 -17.5q-20 0 -33 13t-13 34q0 23 17 40.5t42 17.5z" />
    <glyph glyph-name="uni1E8A" unicode="&#x1e8a;" horiz-adv-x="640" 
d="M572 611l-187 -210l138 -325q8 -18 25 -33l47 -41v-2h-251v2l67 40q12 7 13.5 12.5t-3.5 14.5l-106 250l-202 -228q-16 -19 -5 -26l83 -63l-1 -2h-249v2l105 57q28 15 44 33l217 245l-122 290q-8 18 -25 33l-47 41v2h251v-2l-67 -40q-12 -7 -13.5 -12.5t3.5 -14.5
l91 -216l171 194q10 12 11 16.5t-5 9.5l-83 63v2h249v-2l-104 -57q-29 -15 -45 -33zM436 771q-23 0 -38 15t-15 39q0 26 19.5 46t48.5 20q23 0 38 -15t15 -39q0 -26 -19.5 -46t-48.5 -20z" />
    <glyph glyph-name="uni1E8B" unicode="&#x1e8b;" horiz-adv-x="476" 
d="M494 476l-62 -165h-2l-24 128q-2 9 -8 9t-17 -8q-48 -37 -111 -154l34 -176q12 -59 37 -59q28 0 55 42.5t44 113.5h2q-11 -94 -57.5 -154.5t-94.5 -60.5q-28 0 -43.5 18t-23.5 63l-21 111l-26 -52q-39 -76 -70.5 -108t-71.5 -32q-36 0 -56 19l62 165h2l24 -128q2 -9 8 -9
t17 8q48 37 109 149l-35 183q-10 58 -38 58t-55.5 -41t-44.5 -110h-2q11 91 58 150t95 59q29 0 44.5 -18t23.5 -62l22 -117q25 53 28 58q38 75 70.5 107t71.5 32q36 0 56 -19zM322 555q-23 0 -38 15t-15 39q0 26 19.5 46t48.5 20q23 0 38 -15t15 -39q0 -26 -19.5 -46
t-48.5 -20z" />
    <glyph glyph-name="Ygrave" unicode="&#x1ef2;" horiz-adv-x="585" 
d="M568 593l-200 -270q-10 -13 -15 -36l-46 -218q-2 -8 -0.5 -12t9.5 -8l81 -47v-2h-305v2l101 47q13 7 17 20l43 207q4 16 -1 30l-111 317q-6 20 -19 33l-42 45v2h245v-2l-76 -51q-11 -8 -8 -18l106 -307l206 278q11 15 2 24l-69 74v2h227v-2l-102 -69q-28 -19 -43 -39z
M401 919l119 -161l-1 -2l-242 161l-1 2h125z" />
    <glyph glyph-name="ygrave" unicode="&#x1ef3;" horiz-adv-x="425" 
d="M360 338q0 72 -47 114v2l118 41q-14 -134 -66 -265t-125 -235q-75 -106 -156.5 -168.5t-142.5 -62.5q-15 0 -23 4l48 140h2l61 -80q10 -13 25 -3q44 28 102 88q6 7 6 22v25q0 124 -16 255.5t-33 181.5q-12 36 -32 36q-36 0 -79 -137l-2 1q49 198 131 198q47 0 70 -74
q20 -65 31.5 -175.5t8.5 -221.5h2q44 66 72 131q45 104 45 183zM260 703l119 -161l-1 -2l-242 161l-1 2h125z" />
    <glyph glyph-name="endash" unicode="&#x2013;" horiz-adv-x="500" 
d="M495 234h-490v17h490v-17z" />
    <glyph glyph-name="emdash" unicode="&#x2014;" horiz-adv-x="1000" 
d="M995 234h-990v17h990v-17z" />
    <glyph glyph-name="quoteleft" unicode="&#x2018;" horiz-adv-x="197" 
d="M180 611q14 -3 24.5 -17.5t10.5 -32.5q0 -26 -17 -43t-41 -17t-40 15.5t-16 42.5q0 36 25 70.5t62 58.5q32 20 57 28l1 -2q-28 -14 -47 -38q-17 -21 -25 -51q-4 -11 6 -14z" />
    <glyph glyph-name="quoteright" unicode="&#x2019;" horiz-adv-x="200" 
d="M93 498l-1 2q30 14 49 41q14 18 23 48q4 11 -6 14q-14 3 -24.5 17.5t-10.5 32.5q0 26 17 43t41 17t40 -15.5t16 -42.5q0 -66 -75 -121q-35 -26 -69 -36z" />
    <glyph glyph-name="quotesinglbase" unicode="&#x201a;" horiz-adv-x="200" 
d="M123 75q0 -68 -82 -126q-31 -22 -62 -31l-1 2q30 15 49 40q15 21 23 49q4 11 -6 14q-14 3 -24.5 17.5t-10.5 32.5q0 26 17 43t41 17t40 -15.5t16 -42.5z" />
    <glyph glyph-name="quotedblleft" unicode="&#x201c;" horiz-adv-x="360" 
d="M180 608q14 -3 24.5 -17.5t10.5 -32.5q0 -26 -17 -43t-41 -17t-40 15.5t-16 42.5q0 67 74 121q31 24 70 36l1 -2q-34 -16 -53 -46q-12 -18 -19 -43q-4 -11 6 -14zM340 608q14 -3 24.5 -17.5t10.5 -32.5q0 -26 -17 -43t-41 -17t-40 15.5t-16 42.5q0 67 79 124q30 21 65 33
l1 -2q-32 -16 -51 -43q-15 -20 -21 -46q-4 -11 6 -14z" />
    <glyph glyph-name="quotedblright" unicode="&#x201d;" horiz-adv-x="359" 
d="M164 589q4 11 -6 14q-14 3 -24.5 17.5t-10.5 32.5q0 26 17 43t41 17t40 -15.5t16 -42.5q0 -68 -76 -122q-33 -24 -68 -35l-1 2q32 15 50 41q13 19 22 48zM324 589q4 11 -6 14q-14 3 -24.5 17.5t-10.5 32.5q0 26 17 43t41 17t40 -15.5t16 -42.5q0 -67 -79 -124
q-30 -21 -65 -33l-1 2q32 15 50 41q13 19 22 48z" />
    <glyph glyph-name="quotedblbase" unicode="&#x201e;" horiz-adv-x="360" 
d="M123 75q0 -66 -71 -119q-34 -27 -73 -38l-1 2q33 16 54 49q9 14 18 40q4 11 -6 14q-14 3 -24.5 17.5t-10.5 32.5q0 26 17 43t41 17t40 -15.5t16 -42.5zM210 9q4 11 -6 14q-14 3 -24.5 17.5t-10.5 32.5q0 26 17 43t41 17t40 -15.5t16 -42.5q0 -63 -70 -117
q-34 -27 -74 -40l-1 2q32 15 52 45q11 16 20 44z" />
    <glyph glyph-name="dagger" unicode="&#x2020;" horiz-adv-x="429" 
d="M432 515h-153l-77 -385l-17 3l76 382h-150v17h154l35 174l17 -3l-35 -171h150v-17z" />
    <glyph glyph-name="daggerdbl" unicode="&#x2021;" horiz-adv-x="429" 
d="M432 515h-153l-39 -196h149v-17h-153l-34 -172l-17 3l34 169h-151v17h154l40 196h-151v17h154l35 174l17 -3l-35 -171h150v-17z" />
    <glyph glyph-name="bullet" unicode="&#x2022;" horiz-adv-x="348" 
d="M292 356q0 -42 -28.5 -69t-70.5 -27q-40 0 -66.5 24.5t-26.5 63.5q0 41 30 69t70 28q39 0 65.5 -25.5t26.5 -63.5z" />
    <glyph glyph-name="ellipsis" unicode="&#x2026;" horiz-adv-x="617" 
d="M63 -9q-23 0 -38 14.5t-15 36.5q0 31 21.5 53t52.5 22q23 0 38 -14.5t15 -36.5q0 -32 -20.5 -53.5t-53.5 -21.5zM258 -9q-23 0 -38 14.5t-15 36.5q0 31 21.5 53t52.5 22q23 0 38 -14.5t15 -36.5q0 -32 -20.5 -53.5t-53.5 -21.5zM453 -9q-23 0 -38 14.5t-15 36.5
q0 31 21.5 53t52.5 22q23 0 38 -14.5t15 -36.5q0 -32 -20.5 -53.5t-53.5 -21.5z" />
    <glyph glyph-name="perthousand" unicode="&#x2030;" horiz-adv-x="895" 
d="M284 699q-28 0 -51 -38t-33.5 -85.5t-10.5 -88.5q0 -56 39 -56q29 0 52 41t33 89t10 84q0 54 -39 54zM287 713q45 0 71.5 -30.5t26.5 -77.5q0 -77 -44 -132.5t-116 -55.5q-46 0 -72 30.5t-26 78.5q0 77 44 132t116 55zM458 272q-28 0 -51 -38t-33.5 -85.5t-10.5 -88.5
q0 -56 39 -56q29 0 52 41t33 89t10 84q0 54 -39 54zM461 286q45 0 71.5 -30.5t26.5 -77.5q0 -77 -44 -132.5t-116 -55.5q-46 0 -72 30.5t-26 78.5q0 77 44 132t116 55zM23 -10l-13 13l651 710l14 -12zM750 272q-28 0 -51 -38t-33.5 -85.5t-10.5 -88.5q0 -56 39 -56
q29 0 52 41t33 89t10 84q0 54 -39 54zM753 286q45 0 71.5 -30.5t26.5 -77.5q0 -77 -44 -132.5t-116 -55.5q-46 0 -72 30.5t-26 78.5q0 77 44 132t116 55z" />
    <glyph glyph-name="guilsinglleft" unicode="&#x2039;" horiz-adv-x="263" 
d="M136 241l58 -190l-2 -1l-160 199v2l244 199l1 -1z" />
    <glyph glyph-name="guilsinglright" unicode="&#x203a;" horiz-adv-x="263" 
d="M131 259l-58 190l2 1l160 -199v-2l-244 -199l-1 1z" />
    <glyph glyph-name="fraction" unicode="&#x2044;" horiz-adv-x="48" 
d="M-285 -10l-13 13l651 710l14 -12z" />
    <glyph glyph-name="Euro" unicode="&#x20ac;" horiz-adv-x="639" 
d="M439 285h-223q-2 -19 -2 -55q0 -63 14.5 -112t50 -81.5t88.5 -32.5q17 0 38 3q19 2 29 16l139 205h2l-43 -214q-92 -24 -170 -24q-122 0 -188.5 77t-66.5 197v21h-93v20h94q5 50 16 94h-87v20h93q40 129 136 211.5t220 82.5q98 0 186 -25l-47 -214h-2l-60 198
q-3 10 -6.5 14.5t-6.5 6t-10 2.5q-21 3 -40 3q-93 0 -158.5 -79.5t-99.5 -199.5h220v-20h-226q-13 -51 -17 -94h220v-20z" />
    <glyph glyph-name="trademark" unicode="&#x2122;" horiz-adv-x="898" 
d="M513 408q0 -9 8 -14l45 -29v-2h-123v2l46 29q7 5 7 14v259q0 9 -5 12l-43 22v2h119l94 -231l90 231h118v-2l-43 -21q-7 -4 -7 -10v-273q0 -7 7 -10l43 -22v-2h-167v2l43 22q6 3 6 10v231q0 12 2 32l-117 -300h-1l-112 269q-1 3 -10 29v-250zM302 397q0 -6 5 -10l39 -22
v-2h-160v2l41 22q6 4 6 10v289h-52q-10 0 -14 -8l-45 -87h-2l5 112h284l5 -112h-2l-45 87q-5 8 -15 8h-50v-289z" />
    <glyph glyph-name="Omega" unicode="&#x2126;" horiz-adv-x="710" 
d="M697 457q0 -150 -92 -257t-232 -121l-13 -61h132q26 0 37 13l125 172h2l-43 -203h-275l20 92q67 12 121 74.5t83 150t29 179.5q0 203 -147 203q-70 0 -131.5 -62.5t-95.5 -156t-34 -189.5q0 -170 107 -196l-19 -95h-274l42 203h2l53 -172q6 -13 31 -13h132l13 66
q-90 18 -141.5 86t-51.5 160q0 101 49 189.5t134 141t184 52.5q117 0 185 -73.5t68 -182.5z" />
    <glyph glyph-name="estimated" unicode="&#x212e;" horiz-adv-x="664" 
d="M609 233h-509q3 -101 73 -163t171 -62q81 0 144 43.5t87 116.5l21 -7q-26 -79 -94.5 -125t-157.5 -46q-112 0 -188 69t-76 183t75.5 183.5t188.5 69.5t189 -69.5t76 -183.5v-9zM344 477q-100 0 -170 -62.5t-74 -162.5h489q-4 100 -74.5 162.5t-170.5 62.5z" />
    <glyph glyph-name="uni2153" unicode="&#x2153;" horiz-adv-x="456" 
d="M84 344v17h335v-17h-335zM351 423v-2h-206v2l73 31q8 3 9 8l42 193q2 7 -5 9l-67 24v2l143 25l-55 -253q-1 -4 6 -8zM313 92q0 -50 -46.5 -73.5t-113.5 -23.5q-45 0 -97 18l65 94h2l3 -88q0 -6 8 -8q9 -2 20 -2q40 0 68 24t28 64q0 51 -76 54v2q96 12 96 78q0 46 -49 46
q-12 0 -19 -1q-5 -1 -12 -10l-53 -85h-2l-14 91q59 19 100 19q50 0 79.5 -18.5t29.5 -48.5q0 -61 -88 -69v-2q33 -3 52 -20t19 -41z" />
    <glyph glyph-name="uni2154" unicode="&#x2154;" horiz-adv-x="456" 
d="M419 361v-17h-335v17h335zM330 224q0 -61 -88 -69v-2q33 -3 52 -20t19 -41q0 -50 -46.5 -73.5t-113.5 -23.5q-45 0 -97 18l65 94h2l3 -88q0 -6 8 -8q9 -2 20 -2q40 0 68 24t28 64q0 51 -76 54v2q96 12 96 78q0 46 -49 46q-12 0 -19 -1q-5 -1 -12 -10l-53 -85h-2l-14 91
q59 19 100 19q50 0 79.5 -18.5t29.5 -48.5zM307 713q108 0 108 -74q0 -13 -3.5 -25t-12.5 -23.5t-17 -21t-23.5 -20t-24.5 -17t-28.5 -17t-27.5 -14.5t-29 -14t-26 -12v-2h99q19 0 27 7l46 38h2l-30 -97h-231v1q108 82 125 96q90 70 90 135q0 46 -53 46q-8 0 -16 -2
q-7 -1 -11 -8l-53 -86h-1l-14 91q59 19 104 19z" />
    <glyph glyph-name="uni2155" unicode="&#x2155;" horiz-adv-x="456" 
d="M419 361v-17h-335v17h335zM150 234l-21 -81q45 32 87 32q45 0 71.5 -24.5t26.5 -63.5q0 -47 -43.5 -74.5t-108.5 -27.5q-53 0 -103 18l65 94h2l3 -85q0 -10 11 -11q14 -2 25 -2q35 0 59.5 24t24.5 59q0 64 -70 64q-32 0 -66 -22l-2 1l37 152q33 -3 92 -3q34 0 50 1
q35 2 45 11l9 8h2l-11 -33q-8 -22 -16 -30.5t-23 -9.5q-20 -1 -47 -1q-11 0 -99 4zM351 423v-2h-206v2l73 31q8 3 9 8l42 193q2 7 -5 9l-67 25v1l143 25l-55 -253q-1 -4 6 -8z" />
    <glyph glyph-name="uni2156" unicode="&#x2156;" horiz-adv-x="456" 
d="M419 361v-17h-335v17h335zM150 234l-21 -81q45 32 87 32q45 0 71.5 -24.5t26.5 -63.5q0 -47 -43.5 -74.5t-108.5 -27.5q-53 0 -103 18l65 94h2l3 -85q0 -10 11 -11q14 -2 25 -2q35 0 59.5 24t24.5 59q0 64 -70 64q-32 0 -66 -22l-2 1l37 152q48 -3 92 -3q34 0 50 1
q35 2 45 11l9 8h2l-11 -33q-8 -22 -16 -30.5t-23 -9.5q-20 -1 -47 -1q-11 0 -99 4zM307 713q108 0 108 -74q0 -13 -3.5 -25t-12.5 -23.5t-17 -21t-23.5 -20t-24.5 -17t-28.5 -17t-27.5 -14.5t-29 -14t-26 -12v-2h99q19 0 27 7l46 38h2l-30 -97h-231v1q108 82 125 96
q90 70 90 135q0 46 -53 46q-8 0 -16 -2q-7 -1 -11 -8l-53 -86h-1l-14 91q59 19 104 19z" />
    <glyph glyph-name="uni2157" unicode="&#x2157;" horiz-adv-x="456" 
d="M84 344v17h335v-17h-335zM400 514q0 -50 -46.5 -73.5t-113.5 -23.5q-45 0 -97 18l65 94h2l3 -88q0 -6 8 -8q9 -2 20 -2q40 0 68 24t28 64q0 51 -76 54v2q96 12 96 78q0 46 -49 46q-12 0 -19 -1q-5 -1 -12 -10l-53 -85h-2l-14 91q59 19 100 19q50 0 79.5 -18.5t29.5 -48.5
q0 -61 -88 -69v-2q33 -3 52 -20t19 -41zM335 296l9 8h2l-11 -33q-8 -22 -16 -30.5t-23 -9.5q-20 -1 -47 -1q-11 0 -99 4l-21 -81q45 32 87 32q45 0 71.5 -24.5t26.5 -63.5q0 -47 -43.5 -74.5t-108.5 -27.5q-53 0 -103 18l65 94h2l3 -85q0 -10 11 -11q14 -2 25 -2
q35 0 59.5 24t24.5 59q0 64 -70 64q-32 0 -66 -22l-2 1l37 152q30 -3 92 -3q34 0 50 1q35 2 45 11z" />
    <glyph glyph-name="uni2158" unicode="&#x2158;" horiz-adv-x="456" 
d="M419 361v-17h-335v17h335zM209 423l54 27q8 4 9 10l7 34h-141v2l200 213h46l-43 -201h15q13 0 18 8l61 84h2l-29 -106h-70l-7 -34q-1 -5 5 -10l39 -27v-2h-166v2zM169 508h113l35 158zM150 234l-21 -81q45 32 87 32q45 0 71.5 -24.5t26.5 -63.5q0 -47 -43.5 -74.5
t-108.5 -27.5q-53 0 -103 18l65 94h2l3 -85q0 -10 11 -11q14 -2 25 -2q35 0 59.5 24t24.5 59q0 64 -70 64q-32 0 -66 -22l-2 1l37 152q36 -3 92 -3q34 0 50 1q35 2 45 11l9 8h2l-11 -33q-8 -22 -16 -30.5t-23 -9.5q-20 -1 -47 -1q-11 0 -99 4z" />
    <glyph glyph-name="uni2159" unicode="&#x2159;" horiz-adv-x="456" 
d="M419 361v-17h-335v17h335zM238 277q-39 0 -64 -41t-35 -99q36 46 87 46q36 0 59 -22.5t23 -57.5q0 -45 -38.5 -76.5t-95.5 -31.5q-47 0 -75 28.5t-28 77.5q0 78 45 134t122 56q54 0 99 -15l-47 -80h-2l-23 72q-4 9 -27 9zM137 128q-5 -29 -5 -60q0 -59 43 -59
q27 0 48 30.5t21 64.5q0 55 -42 55q-34 0 -65 -31zM291 454l60 -30v-3h-206v3l73 30q8 3 9 8l42 193q2 7 -5 9l-67 24v2l143 25l-55 -253q-1 -4 6 -8z" />
    <glyph glyph-name="uni215A" unicode="&#x215a;" horiz-adv-x="456" 
d="M84 344v17h335v-17h-335zM234 656l-21 -81q45 32 87 32q45 0 71.5 -24.5t26.5 -63.5q0 -47 -43.5 -74.5t-108.5 -27.5q-53 0 -103 18l65 94h2l3 -85q0 -10 11 -11q14 -2 25 -2q35 0 59.5 24t24.5 59q0 64 -70 64q-32 0 -66 -22l-2 1l37 152q48 -3 92 -3q34 0 50 1
q35 2 45 11l9 8h2l-11 -33q-8 -22 -16 -30.5t-23 -9.5q-20 -1 -47 -1q-11 0 -99 4zM174 -5q-47 0 -75 28.5t-28 77.5q0 78 45 134t122 56q54 0 99 -15l-47 -80h-2l-23 72q-4 9 -27 9q-39 0 -64 -41t-35 -99q36 46 87 46q36 0 59 -22.5t23 -57.5q0 -45 -38.5 -76.5
t-95.5 -31.5zM137 128q-5 -29 -5 -60q0 -59 43 -59q27 0 48 30.5t21 64.5q0 55 -42 55q-34 0 -65 -31z" />
    <glyph glyph-name="uni215B" unicode="&#x215b;" horiz-adv-x="456" 
d="M84 344v17h335v-17h-335zM351 423v-2h-206v2l73 31q8 3 9 8l42 193q2 7 -5 9l-67 25v1l143 25l-55 -253q-1 -4 6 -8zM181 -5q-45 0 -76 19.5t-31 48.5t27.5 47.5t65.5 23.5q-47 24 -47 69q0 39 34.5 63.5t83.5 24.5q39 0 64 -19t25 -45q0 -33 -24.5 -49t-61.5 -17l24 -11
q48 -22 48 -67q0 -39 -41 -63.5t-91 -24.5zM221 108l-48 23q-45 -18 -45 -67q0 -27 16 -41t42 -14q25 0 45.5 16.5t20.5 40.5q0 26 -31 42zM176 221q0 -30 30 -44l27 -13q41 30 41 67q0 21 -11 33.5t-29 12.5q-26 0 -42 -16t-16 -40z" />
    <glyph glyph-name="uni215C" unicode="&#x215c;" horiz-adv-x="456" 
d="M419 361v-17h-335v17h335zM400 514q0 -50 -46.5 -73.5t-113.5 -23.5q-45 0 -97 18l65 94h2l3 -88q0 -6 8 -8q9 -2 20 -2q40 0 68 24t28 64q0 51 -76 54v2q96 12 96 78q0 46 -49 46q-12 0 -19 -1q-5 -1 -12 -10l-53 -85h-2l-14 91q59 19 100 19q50 0 79.5 -18.5
t29.5 -48.5q0 -61 -88 -69v-2q33 -3 52 -20t19 -41zM181 -5q-45 0 -76 19.5t-31 48.5t27.5 47.5t65.5 23.5q-47 24 -47 69q0 39 34.5 63.5t83.5 24.5q39 0 64 -19t25 -45q0 -33 -24.5 -49t-61.5 -17l24 -11q48 -22 48 -67q0 -39 -41 -63.5t-91 -24.5zM221 108l-48 23
q-45 -18 -45 -67q0 -27 16 -41t42 -14q25 0 45.5 16.5t20.5 40.5q0 26 -31 42zM176 221q0 -30 30 -44l27 -13q41 30 41 67q0 21 -11 33.5t-29 12.5q-26 0 -42 -16t-16 -40z" />
    <glyph glyph-name="uni215D" unicode="&#x215d;" horiz-adv-x="456" 
d="M419 361v-17h-335v17h335zM234 656l-21 -81q45 32 87 32q45 0 71.5 -24.5t26.5 -63.5q0 -47 -43.5 -74.5t-108.5 -27.5q-53 0 -103 18l65 94h2l3 -85q0 -10 11 -11q14 -2 25 -2q35 0 59.5 24t24.5 59q0 64 -70 64q-32 0 -66 -22l-2 1l37 152q60 -3 92 -3q34 0 50 1
q35 2 45 11l9 8h2l-11 -33q-8 -22 -16 -30.5t-23 -9.5q-20 -1 -47 -1q-11 0 -99 4zM181 -5q-45 0 -76 19.5t-31 48.5t27.5 47.5t65.5 23.5q-47 24 -47 69q0 39 34.5 63.5t83.5 24.5q39 0 64 -19t25 -45q0 -33 -24.5 -49t-61.5 -17l24 -11q48 -22 48 -67q0 -39 -41 -63.5
t-91 -24.5zM221 108l-48 23q-45 -18 -45 -67q0 -27 16 -41t42 -14q25 0 45.5 16.5t20.5 40.5q0 26 -31 42zM176 221q0 -30 30 -44l27 -13q41 30 41 67q0 21 -11 33.5t-29 12.5q-26 0 -42 -16t-16 -40z" />
    <glyph glyph-name="uni215E" unicode="&#x215e;" horiz-adv-x="456" 
d="M419 361v-17h-335v17h335zM181 -5q-45 0 -76 19.5t-31 48.5t27.5 47.5t65.5 23.5q-47 24 -47 69q0 39 34.5 63.5t83.5 24.5q39 0 64 -19t25 -45q0 -33 -24.5 -49t-61.5 -17l24 -11q48 -22 48 -67q0 -39 -41 -63.5t-91 -24.5zM221 108l-48 23q-45 -18 -45 -67
q0 -27 16 -41t42 -14q25 0 45.5 16.5t20.5 40.5q0 26 -31 42zM176 221q0 -30 30 -44l27 -13q41 30 41 67q0 21 -11 33.5t-29 12.5q-26 0 -42 -16t-16 -40zM416 681q-8 -5 -13 -12q-41 -56 -138 -248h-80v2q127 163 198 238v2h-145q-14 0 -22 -8l-30 -30h-2l27 84h242v-2z
" />
    <glyph glyph-name="uni2190" unicode="&#x2190;" horiz-adv-x="706" 
d="M651 241h-562l229 -229l-12 -14l-251 251l251 251l13 -13l-230 -229h562v-17z" />
    <glyph glyph-name="uni2191" unicode="&#x2191;" horiz-adv-x="612" 
d="M314 -49h-18v562l-228 -230l-13 13l251 251l251 -251l-13 -13l-230 230v-562z" />
    <glyph glyph-name="uni2192" unicode="&#x2192;" horiz-adv-x="706" 
d="M55 258h562l-230 229l13 13l251 -251l-251 -251l-12 14l229 229h-562v17z" />
    <glyph glyph-name="uni2193" unicode="&#x2193;" horiz-adv-x="612" 
d="M296 530h18v-562l230 230l13 -13l-251 -251l-251 251l13 13l228 -230v562z" />
    <glyph glyph-name="uni2196" unicode="&#x2196;" horiz-adv-x="539" 
d="M474 32l-396 396v-325h-18v356h354v-17h-324l398 -397z" />
    <glyph glyph-name="uni2197" unicode="&#x2197;" horiz-adv-x="539" 
d="M479 103h-18v325l-396 -396l-14 13l398 397h-324v17h354v-356z" />
    <glyph glyph-name="uni2198" unicode="&#x2198;" horiz-adv-x="539" 
d="M51 445l14 13l396 -396v325h18v-356h-354v17h324z" />
    <glyph glyph-name="uni2199" unicode="&#x2199;" horiz-adv-x="539" 
d="M474 458l14 -13l-398 -397h324v-17h-354v356h18v-325z" />
    <glyph glyph-name="partialdiff" unicode="&#x2202;" horiz-adv-x="475" 
d="M176 -10q-73 0 -111.5 51.5t-38.5 136.5q0 70 32.5 141.5t88 119.5t114.5 48q64 0 93 -50q-1 110 -25 175t-93 99l2 2q23 -6 41 -13q97 -38 133.5 -120t36.5 -209q0 -98 -36.5 -185.5t-99.5 -141.5t-137 -54zM180 4q46 0 87 65.5t64 162t23 190.5v4q-22 31 -63 31
q-70 0 -118.5 -103.5t-48.5 -215.5q0 -134 56 -134z" />
    <glyph glyph-name="Delta" unicode="&#x2206;" horiz-adv-x="526" 
d="M244 703h143l89 -703h-521v2l331 602q8 16 7.5 21t-7.5 16l-42 60v2zM303 598l-317 -580h390z" />
    <glyph glyph-name="product" unicode="&#x220f;" horiz-adv-x="730" 
d="M479 69l129 616h-300l-129 -616q-4 -14 8 -20l76 -47v-2h-295v2l96 47q16 8 18 20l119 565q2 13 -9 20l-76 47v2h692v-2l-96 -47q-11 -5 -13.5 -8.5t-3.5 -11.5l-119 -565q-4 -14 8 -20l76 -47v-2h-295v2l96 47q15 7 18 20z" />
    <glyph glyph-name="summation" unicode="&#x2211;" horiz-adv-x="573" 
d="M373 345l-384 -327h358q26 0 37 13l125 172h2l-43 -203h-523v2l342 292l-114 343q-4 11 -23 22l-69 42v2h517l-32 -206h-2l-60 170q-4 12 -9 15t-16 3h-220z" />
    <glyph glyph-name="minus" unicode="&#x2212;" horiz-adv-x="540" 
d="M70 314v17h440v-17h-440z" />
    <glyph glyph-name="uni2215" unicode="&#x2215;" horiz-adv-x="48" 
d="M-285 -10l-13 13l651 710l14 -12z" />
    <glyph glyph-name="uni2219" unicode="&#x2219;" horiz-adv-x="205" 
d="M139 488q24 0 39.5 -15.5t15.5 -40.5q0 -27 -20 -47.5t-50 -20.5q-24 0 -39.5 15.5t-15.5 40.5q0 27 20 47.5t50 20.5z" />
    <glyph glyph-name="radical" unicode="&#x221a;" horiz-adv-x="540" 
d="M117 451l141 -400l247 704l17 -5l-263 -750h-2l-157 444z" />
    <glyph glyph-name="infinity" unicode="&#x221e;" horiz-adv-x="762" 
d="M70 325q0 55 37.5 98t94.5 43q23 0 43.5 -6t43.5 -23t34.5 -26.5t40.5 -38t37 -36.5l37 37t40 38t34.5 26.5t43 22.5t44.5 6q57 0 94.5 -43t37.5 -98t-37.5 -98t-94.5 -43q-24 0 -44.5 6.5t-42.5 22.5t-35 27t-39.5 37.5t-37.5 36.5q-11 -10 -37.5 -36.5t-39.5 -37.5
t-35 -27t-43 -22.5t-44 -6.5q-57 0 -94.5 43t-37.5 98zM600 201q51 0 82.5 37.5t31.5 86.5t-31.5 86.5t-82.5 37.5q-22 0 -41 -5.5t-40 -21t-32 -25.5t-37.5 -36.5t-36.5 -35.5q10 -9 36.5 -35.5t37.5 -36.5t32 -25.5t40 -21t41 -5.5zM88 325q0 -49 31.5 -86.5t82.5 -37.5
q21 0 40 5.5t40.5 21.5t32.5 25t38 36l36 36q-12 11 -37 36t-37.5 36t-32.5 25.5t-39 20.5t-41 6q-51 0 -82.5 -37.5t-31.5 -86.5z" />
    <glyph glyph-name="integral" unicode="&#x222b;" horiz-adv-x="397" 
d="M114 153l59 282q27 135 79.5 206.5t142.5 71.5q64 0 113 -20l-55 -144h-2l-40 131q-4 13 -7.5 15.5t-16.5 2.5q-26 0 -46 -19t-35.5 -64t-21 -66.5t-17.5 -78.5q-1 -5 -2 -8l-61 -297q-23 -116 -57.5 -202t-88 -142.5t-119.5 -56.5q-45 0 -69 20l56 156h2l33 -130
q5 -22 18 -22t25 12q9 9 17 21.5t15 29.5t13 31.5t12.5 38.5t11 40t11 45.5t10 45.5t10.5 51z" />
    <glyph glyph-name="approxequal" unicode="&#x2248;" horiz-adv-x="540" 
d="M402 370q-46 0 -116.5 33t-110.5 33q-61 0 -97 -59l-15 9q40 67 112 67q46 0 116.5 -33t110.5 -33q62 0 98 59l15 -9q-40 -67 -113 -67zM402 192q-46 0 -116.5 33t-110.5 33q-61 0 -97 -59l-15 9q40 67 112 67q46 0 116.5 -33t110.5 -33q62 0 98 59l15 -9
q-40 -67 -113 -67z" />
    <glyph glyph-name="notequal" unicode="&#x2260;" horiz-adv-x="540" 
d="M70 404v17h264l57 103l16 -9l-52 -94h155v-17h-165l-89 -161h254v-17h-264l-59 -107l-16 9l54 98h-155v17h165l89 161h-254z" />
    <glyph glyph-name="lessequal" unicode="&#x2264;" horiz-adv-x="540" 
d="M484 261l-6 -17l-387 128v2l387 128l6 -17l-345 -112zM510 123v-17h-440v17h440z" />
    <glyph glyph-name="greaterequal" unicode="&#x2265;" horiz-adv-x="540" 
d="M102 502l387 -128v-2l-387 -128l-6 17l345 112l-345 112zM510 123v-17h-440v17h440z" />
    <glyph glyph-name="lozenge" unicode="&#x25ca;" horiz-adv-x="540" 
d="M510 324l-219 -405h-2l-219 405l219 405h2zM290 691l-199 -367l199 -367l199 367z" />
    <glyph glyph-name="commaaccent" unicode="&#xf6c3;" horiz-adv-x="240" 
d="M189 -97q0 -38 -26.5 -72t-65.5 -57q-24 -14 -48 -21v2q22 10 37 27q20 22 32 57q4 11 -6 13q-34 7 -34 41q0 26 18.5 44.5t44.5 18.5q22 0 35 -14.5t13 -38.5z" />
    <glyph glyph-name="apple" unicode="&#xf8ff;" horiz-adv-x="1254" 
d="M666 340q-11 0 -41 1.5t-39 1.5q-53 0 -82.5 -24t-52.5 -75q-26 -57 -64 -89t-102 -32q-13 0 -42.5 2t-40.5 2q-57 0 -92 -30t-35 -75q0 -16 1 -22h-20q-1 7 -1 22q0 54 41.5 89.5t106.5 35.5q12 0 42.5 -2t40.5 -2q102 0 147 109q46 111 153 111q11 0 41 -1.5t39 -1.5
q52 0 82.5 25t53.5 76q25 57 63 88t102 31q13 0 42.5 -2t40.5 -2q56 0 92.5 31t36.5 74q0 16 -1 22h20q1 -7 1 -22q0 -53 -42.5 -89t-107.5 -36q-12 0 -42.5 2t-40.5 2q-55 0 -89 -27t-57 -80q-47 -113 -154 -113z" />
    <glyph glyph-name="Iacute_Jacute" horiz-adv-x="639" 
d="M298 634l-119 -565q-4 -14 8 -20l76 -47v-2h-295v2l96 47q16 8 18 20l119 565q2 13 -9 20l-76 47v2h295v-2l-96 -47q-15 -7 -17 -20zM328 919h125v-2l-241 -161l-2 2zM622 634l-127 -603q-22 -103 -90 -164t-175 -78l-1 2q129 56 165 223l131 620q2 13 -9 20l-76 47v2
h295v-2l-96 -47q-11 -5 -13.5 -8.5t-3.5 -11.5zM688 917h125v-2l-241 -161l-2 2z" />
    <glyph glyph-name="Jacute" horiz-adv-x="306" 
d="M289 634l-127 -603q-22 -103 -90 -164t-175 -78l-1 2q129 56 165 223l131 620q2 13 -9 20l-76 47v2h295v-2l-96 -47q-11 -5 -13.5 -8.5t-3.5 -11.5zM355 917h125v-2l-241 -161l-2 2z" />
    <glyph glyph-name="caronslovak" horiz-adv-x="240" 
d="M94 703h96l-139 -191h-1z" />
    <glyph glyph-name="commatop" horiz-adv-x="240" 
d="M121 660q-4 -11 6 -13q34 -7 34 -41q0 -26 -18.5 -44.5t-44.5 -18.5q-22 0 -35 14.5t-13 38.5q0 66 73 117q29 21 67 33v-2q-30 -15 -47 -38q-14 -19 -22 -46z" />
    <glyph glyph-name="jacute" horiz-adv-x="250" 
d="M144 109q-15 -65 -37 -122t-54 -109.5t-77 -83t-98 -30.5q-41 0 -64 20l57 156h2l34 -135q4 -17 17 -17q8 0 16 5q62 45 126 343l61 291q4 15 -12 20l-86 30v2l206 16zM245 703h125v-2l-241 -161l-2 2z" />
    <glyph glyph-name="smiley" horiz-adv-x="794" 
d="M392 -4q-155 0 -249 89t-94 229q0 163 115.5 278t276.5 115q149 0 244.5 -88.5t95.5 -230.5q0 -164 -111.5 -278t-277.5 -114zM392 13q157 0 264 109t107 265q0 134 -90 218.5t-231 84.5q-152 0 -263.5 -109t-111.5 -265q0 -133 89 -218t236 -85zM398 84
q-100 0 -165.5 53.5t-66.5 134.5h-2q-33 0 -35 36l2 1q11 -16 33 -16q41 0 59 30h2q-6 -42 -42 -49q2 -76 61.5 -124.5t155.5 -48.5q88 0 148.5 47.5t75.5 123.5q-33 4 -33 33q0 7 3 18h2q3 -30 45 -30q23 0 39 16l2 -1q-16 -34 -41 -36q-16 -86 -83 -137t-160 -51zM489 456
q15 73 31.5 116.5t27.5 43.5q10 0 10 -31q0 -42 -18 -129q-32 -154 -58 -154q-9 0 -9 32q0 43 16 122zM326 456q15 74 31.5 117t28.5 43q9 0 9 -31q0 -42 -18 -129q-14 -70 -30.5 -112t-26.5 -42t-10 33q0 44 16 121z" />
    <glyph glyph-name="backslash.case" horiz-adv-x="380" 
d="M161 797l112 -889l-17 -2l-113 888z" />
    <glyph glyph-name="bar.case" horiz-adv-x="218" 
d="M232 798l-208 -996l-17 4l208 996z" />
    <glyph glyph-name="braceleft.case" horiz-adv-x="351" 
d="M264 618l-16 -169q-4 -37 -32 -65t-63 -38l-1 -2q30 -9 46 -43.5t4 -70.5l-52 -162q-10 -23 -6.5 -50t14 -50t40.5 -37t73 -11l-1 -2q-35 -8 -66 -8q-69 0 -114 53.5t-21 127.5l52 159q12 37 -6 63.5t-62 30.5l1 2q45 4 73.5 27t31.5 56l15 166q6 63 41 107t79 61t91 17
q32 0 64 -8l-1 -2q-80 6 -129 -45.5t-55 -106.5z" />
    <glyph glyph-name="braceright.case" horiz-adv-x="351" 
d="M267 440q-12 -37 6 -63.5t62 -30.5l-1 -2q-45 -4 -73.5 -27t-31.5 -56l-15 -166q-6 -63 -41 -107t-79 -61t-91 -17q-32 0 -64 8l1 2q80 -6 129 45.5t55 106.5l16 169q4 37 32 65t63 38l1 2q-30 9 -46 43.5t-4 70.5l52 162q10 23 6.5 50t-14 50t-40.5 37t-73 11l1 2
q35 8 66 8q69 0 114 -53.5t21 -127.5z" />
    <glyph glyph-name="bracketleft.case" horiz-adv-x="340" 
d="M253 705l-151 -721q-1 -9 0 -11t9 -4l149 -43v-2l-249 -15l181 871l243 -15v-2l-167 -43q-9 -2 -11.5 -4t-3.5 -11z" />
    <glyph glyph-name="bracketright.case" horiz-adv-x="340" 
d="M367 780l-181 -871l-243 15v2l167 43q9 2 11.5 4t3.5 11l151 721q1 9 0 11t-9 4l-149 43v2z" />
    <glyph glyph-name="emdash.case" horiz-adv-x="1000" 
d="M1015 339h-990v17h990v-17z" />
    <glyph glyph-name="endash.case" horiz-adv-x="500" 
d="M515 339h-490v17h490v-17z" />
    <glyph glyph-name="exclamdown.case" horiz-adv-x="230" 
d="M177 489l-41 -489h-130l169 489h2zM203 587q-24 0 -39.5 15.5t-15.5 40.5q0 27 20 47.5t50 20.5q24 0 39.5 -15.5t15.5 -40.5q0 -27 -20 -47.5t-50 -20.5z" />
    <glyph glyph-name="guillemotleft.case" horiz-adv-x="433" 
d="M52 331l244 199l1 -1l-141 -208l58 -190l-2 -1l-160 199v2zM222 331l244 199l1 -1l-141 -208l58 -190l-2 -1l-160 199v2z" />
    <glyph glyph-name="guillemotright.case" horiz-adv-x="433" 
d="M255 329l-244 -199l-1 1l141 208l-58 190l2 1l160 -199v-2zM425 329l-244 -199l-1 1l141 208l-58 190l2 1l160 -199v-2z" />
    <glyph glyph-name="guilsinglleft.case" horiz-adv-x="263" 
d="M156 321l58 -190l-2 -1l-160 199v2l244 199l1 -1z" />
    <glyph glyph-name="guilsinglright.case" horiz-adv-x="263" 
d="M151 339l-58 190l2 1l160 -199v-2l-244 -199l-1 1z" />
    <glyph glyph-name="hyphen.case" horiz-adv-x="351" 
d="M326 339h-260v18h260v-18z" />
    <glyph glyph-name="parenleft.case" horiz-adv-x="318" 
d="M139 182q0 -186 95 -282l-3 -2q-170 102 -170 318q0 160 62.5 299.5t171.5 215.5q44 30 123 59l1 -2q-65 -47 -100 -84q-85 -88 -132.5 -239.5t-47.5 -282.5z" />
    <glyph glyph-name="parenright.case" horiz-adv-x="318" 
d="M59 -45q-44 -30 -123 -59l-1 2q65 47 100 84q85 88 132.5 239.5t47.5 282.5q0 186 -95 282l3 2q170 -102 170 -318q0 -160 -62.5 -299.5t-171.5 -215.5z" />
    <glyph glyph-name="questiondown.case" horiz-adv-x="442" 
d="M304 494q28 -2 42.5 -22t14.5 -46q0 -37 -25 -68t-61 -54.5t-72.5 -48.5t-61.5 -60t-25 -78q0 -107 91 -107q25 0 44 4q18 4 27 18l99 154h2l21 -149q-93 -45 -208 -45q-82 0 -130 37.5t-48 100.5q0 38 17.5 71t48 59t61.5 47t69.5 46t61.5 45q43 37 43 68q0 17 -12 26z
M351 589q-24 0 -39.5 15.5t-15.5 40.5q0 27 20 47.5t50 20.5q24 0 39.5 -15.5t15.5 -40.5q0 -27 -20 -47.5t-50 -20.5z" />
    <glyph glyph-name="slash.case" horiz-adv-x="380" 
d="M458 791l-480 -885l-15 8l480 883z" />
    <glyph glyph-name="braceleft.salt" horiz-adv-x="245" 
d="M165 388q0 -37 -20.5 -63.5t-56.5 -31.5v-1q48 -10 48 -54q0 -24 -16 -58l-76 -155q-24 -50 -24 -83q0 -66 85 -66q20 0 53 7v-17q-33 -7 -55 -7q-101 0 -101 80q0 40 26 92l73 149q17 34 17 54q0 50 -78 50l3 17q104 3 104 88q0 8 -1 16l-15 149q-2 18 -2 34
q0 66 40.5 102t104.5 36q21 0 51 -7l-6 -16q-26 6 -51 6q-53 0 -87 -31.5t-34 -87.5q0 -8 2 -30l15 -155q1 -10 1 -17z" />
    <glyph glyph-name="braceright.salt" horiz-adv-x="245" 
d="M221 301l-3 -17q-104 -3 -104 -88q0 -8 1 -16l15 -149q2 -18 2 -34q0 -66 -40.5 -102t-104.5 -36q-21 0 -51 7l6 16q25 -6 51 -6q53 0 87 31.5t34 87.5q0 8 -2 30l-15 155q-1 10 -1 17q0 37 20.5 63.5t56.5 31.5v1q-48 10 -48 54q0 24 16 58l76 155q24 50 24 83
q0 66 -85 66q-20 0 -53 -7v17q33 7 55 7q101 0 101 -80q0 -40 -26 -92l-73 -149q-17 -34 -17 -54q0 -50 78 -50z" />
    <glyph glyph-name="bracketleft.salt" horiz-adv-x="257" 
d="M165 -122v-17h-165l179 859h163v-17h-148l-173 -825h144z" />
    <glyph glyph-name="bracketright.salt" horiz-adv-x="257" 
d="M110 703v17h165l-179 -859h-163v17h147l173 825h-143z" />
    <glyph glyph-name="guillemotleft.salt" horiz-adv-x="429" 
d="M32 254l237 198l11 -14l-224 -187l145 -187l-14 -11zM216 251l145 -187l-14 -11l-155 201l237 198l11 -14z" />
    <glyph glyph-name="guillemotright.salt" horiz-adv-x="431" 
d="M399 250l-237 -198l-11 14l224 187l-145 187l14 11zM239 250l-237 -198l-11 14l224 187l-145 187l14 11z" />
    <glyph glyph-name="guilsinglleft.salt" horiz-adv-x="269" 
d="M56 251l145 -187l-14 -11l-155 201l237 198l11 -14z" />
    <glyph glyph-name="guilsinglright.salt" horiz-adv-x="271" 
d="M239 250l-237 -198l-11 14l224 187l-145 187l14 11z" />
    <glyph glyph-name="parenleft.salt" horiz-adv-x="275" 
d="M76 206q0 -95 31 -187.5t95 -158.5l-12 -14q-66 68 -99 164t-33 200q0 56 9 108q22 127 97.5 244.5t183.5 169.5l6 -15q-105 -55 -176.5 -167t-92.5 -236q-9 -52 -9 -108z" />
    <glyph glyph-name="parenright.salt" horiz-adv-x="275" 
d="M242 264q-22 -127 -97.5 -244.5t-183.5 -169.5l-6 15q105 55 176.5 167t92.5 236q9 52 9 108q0 95 -31 187.5t-95 158.5l12 14q66 -68 99 -164t33 -200q0 -56 -9 -108z" />
    <glyph glyph-name="braceleft.salt.case" horiz-adv-x="245" 
d="M145 291q0 -24 -16 -58l-76 -155q-24 -50 -24 -83q0 -66 85 -66q20 0 53 7v-17q-33 -7 -55 -7q-101 0 -101 80q0 40 26 92l73 149q17 34 17 54q0 50 -78 50l3 17q104 3 104 88q0 8 -1 16l-15 149q-2 18 -2 34q0 66 40.5 102t104.5 36q21 0 51 -7l-6 -16q-26 6 -51 6
q-53 0 -87 -31.5t-34 -87.5q0 -8 2 -30l15 -155q1 -10 1 -17q0 -37 -20.5 -63.5t-56.5 -31.5v-1q48 -10 48 -54z" />
    <glyph glyph-name="braceright.salt.case" horiz-adv-x="245" 
d="M232 354l-3 -17q-104 -3 -104 -88q0 -8 1 -16l15 -149q2 -18 2 -34q0 -66 -40.5 -102t-104.5 -36q-21 0 -51 7l6 16q25 -6 51 -6q53 0 87 31.5t34 87.5q0 8 -2 30l-15 155q-1 10 -1 17q0 37 20.5 63.5t56.5 31.5v1q-48 10 -48 54q0 24 16 58l76 155q24 50 24 83
q0 66 -85 66q-20 0 -53 -7v17q33 7 55 7q101 0 101 -80q0 -40 -26 -92l-73 -149q-17 -34 -17 -54q0 -50 78 -50z" />
    <glyph glyph-name="bracketleft.salt.case" horiz-adv-x="257" 
d="M178 -70v-17h-165l179 859h163v-17h-148l-173 -825h144z" />
    <glyph glyph-name="bracketright.salt.case" horiz-adv-x="257" 
d="M107 -87h-163v17h148l173 825h-144v17h165z" />
    <glyph glyph-name="guillemotleft.salt.case" horiz-adv-x="429" 
d="M51 344l237 198l11 -14l-224 -187l145 -187l-14 -11zM211 344l237 198l11 -14l-224 -187l145 -187l-14 -11z" />
    <glyph glyph-name="guillemotright.salt.case" horiz-adv-x="429" 
d="M415 341l-237 -198l-11 14l224 187l-145 187l14 11zM255 341l-237 -198l-11 14l224 187l-145 187l14 11z" />
    <glyph glyph-name="guilsinglleft.salt.case" horiz-adv-x="269" 
d="M51 344l237 198l11 -14l-224 -187l145 -187l-14 -11z" />
    <glyph glyph-name="guilsinglright.salt.case" horiz-adv-x="269" 
d="M255 341l-237 -198l-11 14l224 187l-145 187l14 11z" />
    <glyph glyph-name="parenleft.salt.case" horiz-adv-x="275" 
d="M78 370q22 127 97.5 244.5t183.5 169.5l6 -15q-105 -55 -176.5 -167t-92.5 -236q-9 -52 -9 -108q0 -95 31 -187.5t95 -158.5l-12 -14q-66 68 -99 164t-33 200q0 56 9 108z" />
    <glyph glyph-name="parenright.salt.case" horiz-adv-x="275" 
d="M251 316q-22 -127 -97.5 -244.5t-183.5 -169.5l-6 15q105 55 176.5 167t92.5 236q9 52 9 108q0 95 -31 187.5t-95 158.5l12 14q66 -68 99 -164t33 -200q0 -56 -9 -108z" />
    <glyph glyph-name="eight.subs" 
d="M93 -5q-45 0 -76 19.5t-31 48.5t27.5 47.5t65.5 23.5q-47 24 -47 69q0 39 34.5 63.5t83.5 24.5q39 0 64 -19t25 -45q0 -33 -24.5 -49t-61.5 -17l24 -11q48 -22 48 -67q0 -39 -41 -63.5t-91 -24.5zM133 108l-48 23q-45 -18 -45 -67q0 -27 16 -41t42 -14q25 0 45.5 16.5
t20.5 40.5q0 26 -31 42zM88 221q0 -30 30 -44l27 -13q41 30 41 67q0 21 -11 33.5t-29 12.5q-26 0 -42 -16t-16 -40z" />
    <glyph glyph-name="five.subs" 
d="M62 234l-21 -81q45 32 87 32q45 0 71.5 -24.5t26.5 -63.5q0 -47 -43.5 -74.5t-108.5 -27.5q-53 0 -103 18l65 94h2l3 -85q0 -10 11 -11q14 -2 25 -2q35 0 59.5 24t24.5 59q0 64 -70 64q-32 0 -66 -22l-2 1l37 152q24 -3 92 -3q34 0 50 1q35 2 45 11l9 8h2l-11 -33
q-8 -22 -16 -30.5t-23 -9.5q-20 -1 -67 -1q-15 0 -45.5 2t-33.5 2z" />
    <glyph glyph-name="four.subs" 
d="M38 1l54 27q8 4 9 10l7 34h-141v2l200 213h46l-43 -201h15q13 0 18 8l61 84h2l-29 -106h-70l-7 -34q-1 -5 5 -10l39 -27v-2h-166v2zM-2 86h113l35 158z" />
    <glyph glyph-name="nine.subs" 
d="M271 185q0 -78 -45 -134t-122 -56q-54 0 -99 15l47 80h2l23 -72q3 -7 11 -8q6 -1 16 -1q38 0 63 41t35 98q-37 -45 -86 -45q-36 0 -59 22.5t-23 57.5q0 45 38.5 76.5t95.5 31.5q47 0 75 -28.5t28 -77.5zM167 277q-27 0 -48 -30.5t-21 -64.5q0 -55 42 -55q34 0 64 30
q6 33 6 61q0 59 -43 59z" />
    <glyph glyph-name="one.subs" horiz-adv-x="240" 
d="M177 1v-2h-206v2l73 31q8 3 9 8l42 193q2 7 -5 9l-67 24v2l143 25l-55 -253q-1 -4 6 -8z" />
    <glyph glyph-name="parenleft.subs" horiz-adv-x="177" 
d="M60 88q0 -95 42 -152l-2 -2q-48 24 -74 70.5t-26 102.5q0 35 6 66q13 73 58 122.5t119 61.5l1 -2q-99 -62 -119 -194q-5 -37 -5 -73z" />
    <glyph glyph-name="parenright.subs" horiz-adv-x="177" 
d="M88 203q0 96 -41 152l1 2q48 -24 74 -70.5t26 -102.5q0 -34 -6 -67q-14 -73 -58.5 -122.5t-118.5 -60.5l-1 2q100 64 119 197q5 37 5 70z" />
    <glyph glyph-name="seven.subs" 
d="M240 259q-8 -5 -13 -12q-41 -56 -138 -248h-80v2q125 160 198 238v2h-145q-14 0 -22 -8l-30 -30h-2l27 84h242v-2z" />
    <glyph glyph-name="six.subs" 
d="M230 103q0 -45 -38.5 -76.5t-95.5 -31.5q-47 0 -75 28.5t-28 77.5q0 78 45 134t122 56q54 0 99 -15l-47 -80h-2l-23 72q-4 9 -27 9q-39 0 -64 -41t-35 -99q36 46 87 46q36 0 59 -22.5t23 -57.5zM59 128q-5 -29 -5 -60q0 -59 43 -59q27 0 48 30.5t21 64.5q0 55 -42 55
q-34 0 -65 -31z" />
    <glyph glyph-name="three.subs" 
d="M225 92q0 -50 -46.5 -73.5t-113.5 -23.5q-45 0 -97 18l64 94h2l4 -88q0 -6 8 -8q9 -2 20 -2q40 0 68 24t28 64q0 51 -76 54v2q96 12 96 78q0 46 -49 46q-12 0 -19 -1q-5 -1 -12 -10l-54 -85h-2l-13 91q59 19 100 19q50 0 79.5 -18.5t29.5 -48.5q0 -61 -88 -69v-2
q33 -3 52 -20t19 -41z" />
    <glyph glyph-name="two.subs" 
d="M133 291q108 0 108 -74q0 -13 -3.5 -25t-12.5 -23.5t-17 -21t-23.5 -20t-24.5 -17t-28.5 -17t-27.5 -14.5t-29 -14t-26 -12v-2h99q19 0 27 7l46 38h2l-30 -97h-231v1q108 82 125 96q90 70 90 135q0 46 -53 46q-8 0 -16 -2q-7 -1 -11 -8l-53 -86h-1l-14 91q59 19 104 19z
" />
    <glyph glyph-name="zero.subs" 
d="M148 277q-28 0 -51 -38t-33.5 -85.5t-10.5 -88.5q0 -56 39 -56q29 0 52 41t33 89t10 84q0 54 -39 54zM151 291q45 0 71.5 -30.5t26.5 -77.5q0 -77 -44 -132.5t-116 -55.5q-46 0 -72 30.5t-26 78.5q0 77 44 132t116 55z" />
    <glyph glyph-name="eight.sups" 
d="M181 417q-45 0 -76 19.5t-31 48.5t27.5 47.5t65.5 23.5q-47 24 -47 69q0 39 34.5 63.5t83.5 24.5q39 0 64 -19t25 -45q0 -33 -24.5 -49t-61.5 -17l24 -11q48 -22 48 -67q0 -39 -41 -63.5t-91 -24.5zM221 530l-48 23q-45 -18 -45 -67q0 -27 16 -41t42 -14q25 0 45.5 16.5
t20.5 40.5q0 26 -31 42zM176 643q0 -30 30 -44l27 -13q41 30 41 67q0 21 -11 33.5t-29 12.5q-26 0 -42 -16t-16 -40z" />
    <glyph glyph-name="five.sups" 
d="M146 656l-21 -81q45 32 87 32q45 0 71.5 -24.5t26.5 -63.5q0 -47 -43.5 -74.5t-108.5 -27.5q-53 0 -103 18l65 94h2l3 -85q0 -10 11 -11q14 -2 25 -2q35 0 59.5 24t24.5 59q0 64 -70 64q-32 0 -66 -22l-2 1l37 152q24 -3 92 -3q34 0 50 1q35 2 45 11l9 8h2l-11 -33
q-8 -22 -16 -30.5t-23 -9.5q-20 -1 -67 -1q-15 0 -45.5 2t-33.5 2z" />
    <glyph glyph-name="four.sups" 
d="M121 423l54 27q8 4 9 10l7 34h-141v2l200 213h46l-43 -201h15q13 0 18 8l61 84h2l-29 -106h-70l-7 -34q-1 -5 5 -10l39 -27v-2h-166v2zM81 508h113l35 158z" />
    <glyph glyph-name="nine.sups" 
d="M335 607q0 -78 -45 -134t-122 -56q-54 0 -99 15l47 80h2l23 -72q3 -7 11 -8q6 -1 16 -1q38 0 63 41t35 98q-37 -45 -86 -45q-36 0 -59 22.5t-23 57.5q0 45 38.5 76.5t95.5 31.5q47 0 75 -28.5t28 -77.5zM231 699q-27 0 -48 -30.5t-21 -64.5q0 -55 42 -55q34 0 64 30
q6 33 6 61q0 59 -43 59z" />
    <glyph glyph-name="one.sups" horiz-adv-x="240" 
d="M263 423v-2h-206v2l73 31q8 3 9 8l42 193q2 7 -5 9l-67 24v2l143 25l-55 -253q-1 -4 6 -8z" />
    <glyph glyph-name="parenleft.sups" horiz-adv-x="177" 
d="M144 501q0 -95 42 -152l-2 -2q-48 24 -74 70.5t-26 102.5q0 50 12 94q39 135 171 156l1 -2q-94 -60 -117 -179q-7 -36 -7 -88z" />
    <glyph glyph-name="parenright.sups" horiz-adv-x="177" 
d="M172 616q0 95 -42 152l2 2q48 -24 74 -70.5t26 -102.5q0 -37 -8 -75q-15 -70 -59 -116.5t-116 -58.5l-1 2q100 63 119 196q5 37 5 71z" />
    <glyph glyph-name="seven.sups" 
d="M328 681q-8 -5 -13 -12q-41 -56 -138 -248h-80v2q125 160 198 238v2h-145q-14 0 -22 -8l-30 -30h-2l27 84h242v-2z" />
    <glyph glyph-name="six.sups" 
d="M315 525q0 -45 -38.5 -76.5t-95.5 -31.5q-47 0 -75 28.5t-28 77.5q0 78 45 134t122 56q54 0 99 -15l-47 -80h-2l-23 72q-4 9 -27 9q-39 0 -64 -41t-35 -99q36 46 87 46q36 0 59 -22.5t23 -57.5zM144 550q-5 -29 -5 -60q0 -59 43 -59q27 0 48 30.5t21 64.5q0 55 -42 55
q-34 0 -65 -31z" />
    <glyph glyph-name="three.sups" 
d="M312 514q0 -50 -46.5 -73.5t-113.5 -23.5q-45 0 -97 18l64 94h2l4 -88q0 -6 8 -8q9 -2 20 -2q40 0 68 24t28 64q0 51 -76 54v2q96 12 96 78q0 46 -49 46q-12 0 -19 -1q-5 -1 -12 -10l-54 -85h-2l-13 91q59 19 100 19q50 0 79.5 -18.5t29.5 -48.5q0 -61 -88 -69v-2
q33 -3 52 -20t19 -41z" />
    <glyph glyph-name="two.sups" 
d="M219 713q108 0 108 -74q0 -13 -3.5 -25t-12.5 -23.5t-17 -21t-23.5 -20t-24.5 -17t-28.5 -17t-27.5 -14.5t-29 -14t-26 -12v-2h99q19 0 27 7l46 38h2l-30 -97h-231v1q108 82 125 96q90 70 90 135q0 46 -53 46q-8 0 -16 -2q-7 -1 -11 -8l-53 -86h-1l-14 91q59 19 104 19z
" />
    <glyph glyph-name="zero.sups" 
d="M235 699q-28 0 -51 -38t-33.5 -85.5t-10.5 -88.5q0 -56 39 -56q29 0 52 41t33 89t10 84q0 54 -39 54zM238 713q45 0 71.5 -30.5t26.5 -77.5q0 -77 -44 -132.5t-116 -55.5q-46 0 -72 30.5t-26 78.5q0 77 44 132t116 55z" />
    <glyph glyph-name="i.trk" horiz-adv-x="273" 
d="M131 77q0 -29 24 -29q26 0 50 35q33 50 48 136h2q-5 -82 -49 -154.5t-104 -72.5q-27 0 -44 16.5t-17 49.5q0 32 14 83l78 286q4 15 -12 20l-86 30v2l206 16l-92 -333q-18 -63 -18 -85zM228 684q23 0 38 -15t15 -39q0 -26 -19.5 -46t-48.5 -20q-23 0 -38 15t-15 39
q0 26 19.5 46t48.5 20z" />
    </font>
</defs>
</svg>
