<?xml version="1.0" encoding="UTF-8"?>
<svg width="960px" height="540px" viewBox="0 0 960 540" version="1.1" xmlns="http://www.w3.org/2000/svg" xmlns:xlink="http://www.w3.org/1999/xlink">
    <!-- Generator: Sketch 53.2 (72643) - https://sketchapp.com -->
    <title>arctap</title>
    <desc>Created with Sketch.</desc>
    <g id="arctap" stroke="none" stroke-width="1" fill="none" fill-rule="evenodd">
        <g id="bw" transform="translate(310.000000, 100.000000)">
            <circle id="Oval-5" stroke="#1D1D1F" stroke-width="6.8" cx="170" cy="170" r="170"></circle>
            <path d="M265.2,310.693899 L265.2,169.679717 C265.2,117.281574 222.579983,74.8 170,74.8 C117.420017,74.8 74.8,117.281574 74.8,169.679717 L74.8,310.693899 C106.609476,329.984096 138.328541,339.601562 170,339.601562 C201.671459,339.601562 233.390524,329.984096 265.2,310.693899 Z" id="Shape" stroke="#1D1D1F" stroke-width="6.8"></path>
            <path d="M103.751297,233.497668 C104.060965,235.984237 106.349237,238 108.853317,238 L232.291789,238 C234.167465,238 235.878048,236.497209 236.110337,234.626172 C236.110337,234.626172 241.4,193.621053 241.4,173.578947 C241.399998,134.046984 209.433133,102 170,102 C130.566867,102 98.6,134.046984 98.6,173.578947 C98.6,193.621053 103.751297,233.497668 103.751297,233.497668 Z" id="Oval-2" fill="#1D1D1F" opacity="0.3"></path>
            <path d="M209.706149,198.413619 C202.770703,192.640749 195.81875,186.887322 188.870681,181.130006 C182.502265,175.852953 176.136762,170.573956 169.762521,165.300791 C168.828474,164.526927 167.916758,163.709315 166.89921,163.057947 C166.431215,162.760456 165.970017,162.640877 165.55057,162.672959 C164.731094,162.790594 164.240768,163.319466 164.042695,164.073886 C163.894141,164.635813 163.84171,165.23371 163.823262,165.818969 C163.786366,167.07504 163.792192,168.333055 163.792192,169.591071 C163.791221,171.124216 163.799959,172.659306 163.811611,174.191479 C163.812582,174.356751 163.789279,174.505497 163.745587,174.639659 C162.685317,174.00579 159.141374,171.897108 158.347143,171.420734 C155.4615,169.686345 152.575857,167.953901 149.690214,166.219512 C142.628545,161.975898 135.566876,157.729367 128.494526,153.502281 C128.072166,153.249511 127.567276,153.065767 127.081804,153.00938 C126.196304,152.908272 125.588494,153.639359 125.869096,154.489054 C126.019592,154.942096 126.334178,155.405831 126.701194,155.712071 C134.400773,162.123671 142.115887,168.513883 149.83003,174.906039 C151.34373,176.160166 154.870196,178.974659 156.384867,180.229758 C156.504293,180.334754 156.609155,180.430029 156.718871,180.51947 C160.379327,183.552707 164.034928,186.590804 167.706063,189.612374 C168.373101,190.160689 169.082861,190.657479 169.796504,191.142602 C170.020792,191.295236 170.316929,191.382734 170.589764,191.41676 C170.761621,191.438148 170.919885,191.43426 171.06941,191.409955 C171.777228,191.258293 172.33552,190.666229 172.534564,189.732925 C172.62389,189.057253 172.660786,188.37283 172.666612,187.690352 C172.671466,187.102176 172.67535,186.510112 172.67535,185.921936 L172.67535,184.704753 C172.680205,183.434099 172.680205,182.164418 172.684089,180.893764 C172.684089,180.748908 172.688943,180.603079 172.692827,180.459195 C172.69574,180.376558 172.701566,180.303644 172.710304,180.236563 C172.715159,180.179204 172.715159,180.121844 172.721956,180.063513 C172.753026,179.757273 172.931679,179.65422 173.213253,179.775744 C173.408412,179.859353 173.596775,179.962405 173.7764,180.072263 C181.664341,184.810722 189.551312,189.550153 197.439254,194.289585 C200.855032,196.339936 204.271781,198.389315 207.687558,200.439666 C208.120599,200.700213 208.566262,200.927706 209.064356,201.035619 C209.569246,201.144504 210.055689,201.134782 210.410083,200.697296 C210.759622,200.265643 210.668354,199.798992 210.455717,199.340117 C210.272209,198.991101 210.000345,198.660556 209.706149,198.413619 Z" id="Shape" fill="#1D1D1F" opacity="0.85" transform="translate(168.300000, 176.800000) scale(-1, -1) translate(-168.300000, -176.800000) "></path>
            <rect id="Rectangle-2" fill="#1D1D1F" x="129.2" y="295.8" width="85" height="3.4"></rect>
            <rect id="Rectangle-2" fill="#1D1D1F" x="129.2" y="309.4" width="85" height="3.4"></rect>
            <rect id="Rectangle-2" fill="#1D1D1F" x="115.6" y="302.6" width="108.8" height="3.4"></rect>
        </g>
    </g>
</svg>