<?xml version="1.0" encoding="UTF-8"?>
<svg width="960px" height="540px" viewBox="0 0 960 540" version="1.1" xmlns="http://www.w3.org/2000/svg" xmlns:xlink="http://www.w3.org/1999/xlink">
    <!-- Generator: Sketch 53.2 (72643) - https://sketchapp.com -->
    <title>beachhair</title>
    <desc>Created with Sketch.</desc>
    <g id="beachhair" stroke="none" stroke-width="1" fill="none" fill-rule="evenodd">
        <path d="M849,440 L798.029796,440 C798.029796,424.539304 794.187033,417.840784 777.943236,400.867838 C766.400971,388.807466 761.2283,382.679882 755.638943,372.943016 C747.845084,359.365825 743.797499,344.258793 743.797499,326.666667 C743.797499,309.031315 747.849928,293.891265 755.65374,280.288033 C761.252041,270.529343 766.434376,264.388922 778.040893,252.261414 C794.202695,235.374144 798.029796,228.707193 798.029796,213.333333 C798.029796,197.935116 794.192843,191.251537 777.981504,174.292171 C766.41278,162.18964 761.251582,156.072107 755.657685,146.32811 C747.852272,132.731879 743.797499,117.608501 743.797499,100 L794.767703,100 C794.767703,115.398218 798.604655,122.081797 814.815994,139.041162 C826.384719,151.143693 831.545917,157.261226 837.139814,167.005224 C844.945226,180.601455 849,195.724832 849,213.333333 C849,230.925459 844.952414,246.032492 837.158555,259.609683 C831.569198,269.346549 826.396527,275.474133 814.805434,287.585525 C798.610465,304.50745 794.767703,311.20597 794.767703,326.666667 C794.767703,342.040526 798.594804,348.707477 814.805434,365.645768 C826.363122,377.722255 831.545458,383.862676 837.143759,393.621367 C844.94757,407.224598 849,422.364649 849,440 Z M733.467537,440 L682.497333,440 C682.497333,424.539304 678.65457,417.840784 662.410773,400.867838 C650.868509,388.807466 645.695837,382.679882 640.106481,372.943016 C632.312622,359.365825 628.265036,344.258793 628.265036,326.666667 C628.265036,309.031315 632.317465,293.891265 640.121277,280.288033 C645.719578,270.529343 650.901914,264.388922 662.50843,252.261414 C678.670232,235.374144 682.497333,228.707193 682.497333,213.333333 C682.497333,197.935116 678.660381,191.251537 662.449042,174.292171 C650.880317,162.18964 645.719119,156.072107 640.125222,146.32811 C632.31981,132.731879 628.265036,117.608501 628.265036,100 L679.23524,100 C679.23524,115.398218 683.072192,122.081797 699.283531,139.041162 C710.852256,151.143693 716.013454,157.261226 721.607351,167.005224 C729.412764,180.601455 733.467537,195.724832 733.467537,213.333333 C733.467537,230.925459 729.419952,246.032492 721.626092,259.609683 C716.036736,269.346549 710.864064,275.474133 699.272971,287.585525 C683.078003,304.50745 679.23524,311.20597 679.23524,326.666667 C679.23524,342.040526 683.062341,348.707477 699.272971,365.645768 C710.83066,377.722255 716.012995,383.862676 721.611296,393.621367 C729.415108,407.224598 733.467537,422.364649 733.467537,440 Z M617.935074,440 L566.96487,440 C566.96487,424.539304 563.122108,417.840784 546.87831,400.867838 C535.336046,388.807466 530.163375,382.679882 524.574018,372.943016 C516.780159,359.365825 512.732573,344.258793 512.732573,326.666667 C512.732573,309.031315 516.785003,293.891265 524.588814,280.288033 C530.187115,270.529343 535.369451,264.388922 546.975968,252.261414 C563.13777,235.374144 566.96487,228.707193 566.96487,213.333333 C566.96487,197.935116 563.127918,191.251537 546.916579,174.292171 C535.347854,162.18964 530.186657,156.072107 524.592759,146.32811 C516.787347,132.731879 512.732573,117.608501 512.732573,100 L563.702777,100 C563.702777,115.398218 567.53973,122.081797 583.751069,139.041162 C595.319793,151.143693 600.480991,157.261226 606.074888,167.005224 C613.880301,180.601455 617.935074,195.724832 617.935074,213.333333 C617.935074,230.925459 613.887489,246.032492 606.09363,259.609683 C600.504273,269.346549 595.331602,275.474133 583.740509,287.585525 C567.54554,304.50745 563.702777,311.20597 563.702777,326.666667 C563.702777,342.040526 567.529878,348.707477 583.740509,365.645768 C595.298197,377.722255 600.480532,383.862676 606.078833,393.621367 C613.882645,407.224598 617.935074,422.364649 617.935074,440 Z M110,383.679 L110,332.679 C127.625048,332.679 142.756254,336.733799 156.351538,344.542172 C166.104526,350.143745 172.24136,355.329111 184.361783,366.942412 C201.239186,383.113662 207.902243,386.943 223.26712,386.943 C238.718784,386.943 245.413391,383.097991 262.37642,366.844698 C274.429746,355.295686 280.55375,350.119991 290.284927,344.527367 C303.854186,336.728952 318.952393,332.679 336.534241,332.679 C354.159289,332.679 369.290494,336.733799 382.885778,344.542172 C392.638767,350.143745 398.775601,355.329111 410.896023,366.942412 C427.773427,383.113662 434.436483,386.943 449.801361,386.943 L449.801361,437.943 C432.219513,437.943 417.121306,433.893048 403.552048,426.094633 C393.82087,420.502009 387.696866,415.326314 375.59255,403.728445 C358.680511,387.524009 351.985904,383.679 336.534241,383.679 C321.169363,383.679 314.506307,387.508338 297.577912,403.728445 C285.50848,415.292889 279.371647,420.478255 269.618658,426.079828 C256.023374,433.888201 240.892169,437.943 223.26712,437.943 C205.685272,437.943 190.587066,433.893048 177.017807,426.094633 C167.28663,420.502009 161.162626,415.326314 149.058309,403.728445 C132.14627,387.524009 125.451664,383.679 110,383.679 Z M110,268.368 L110,217.368 C127.625048,217.368 142.756254,221.422799 156.351538,229.231172 C166.104526,234.832745 172.24136,240.018111 184.361783,251.631412 C201.239186,267.802662 207.902243,271.632 223.26712,271.632 C238.718784,271.632 245.413391,267.786991 262.37642,251.533698 C274.429746,239.984686 280.55375,234.808991 290.284927,229.216367 C303.854186,221.417952 318.952393,217.368 336.534241,217.368 C354.159289,217.368 369.290494,221.422799 382.885778,229.231172 C392.638767,234.832745 398.775601,240.018111 410.896023,251.631412 C427.773427,267.802662 434.436483,271.632 449.801361,271.632 L449.801361,322.632 C432.219513,322.632 417.121306,318.582048 403.552048,310.783633 C393.82087,305.191009 387.696866,300.015314 375.59255,288.417445 C358.680511,272.213009 351.985904,268.368 336.534241,268.368 C321.169363,268.368 314.506307,272.197338 297.577912,288.417445 C285.50848,299.981889 279.371647,305.167255 269.618658,310.768828 C256.023374,318.577201 240.892169,322.632 223.26712,322.632 C205.685272,322.632 190.587066,318.582048 177.017807,310.783633 C167.28663,305.191009 161.162626,300.015314 149.058309,288.417445 C132.14627,272.213009 125.451664,268.368 110,268.368 Z M110,153.057 L110,102.057 C127.625048,102.057 142.756254,106.111799 156.351538,113.920172 C166.104526,119.521745 172.24136,124.707111 184.361783,136.320412 C201.239186,152.491662 207.902243,156.321 223.26712,156.321 C238.718784,156.321 245.413391,152.475991 262.37642,136.222698 C274.429746,124.673686 280.55375,119.497991 290.284927,113.905367 C303.854186,106.106952 318.952393,102.057 336.534241,102.057 C354.159289,102.057 369.290494,106.111799 382.885778,113.920172 C392.638767,119.521745 398.775601,124.707111 410.896023,136.320412 C427.773427,152.491662 434.436483,156.321 449.801361,156.321 L449.801361,207.321 C432.219513,207.321 417.121306,203.271048 403.552048,195.472633 C393.82087,189.880009 387.696866,184.704314 375.59255,173.106445 C358.680511,156.902009 351.985904,153.057 336.534241,153.057 C321.169363,153.057 314.506307,156.886338 297.577912,173.106445 C285.50848,184.670889 279.371647,189.856255 269.618658,195.457828 C256.023374,203.266201 240.892169,207.321 223.26712,207.321 C205.685272,207.321 190.587066,203.271048 177.017807,195.472633 C167.28663,189.880009 161.162626,184.704314 149.058309,173.106445 C132.14627,156.902009 125.451664,153.057 110,153.057 Z" id="bw" fill="#1D1D1F" fill-rule="nonzero"></path>
        <path d="M849,440 L798.029796,440 C798.029796,424.539304 794.187033,417.840784 777.943236,400.867838 C766.400971,388.807466 761.2283,382.679882 755.638943,372.943016 C747.845084,359.365825 743.797499,344.258793 743.797499,326.666667 C743.797499,309.031315 747.849928,293.891265 755.65374,280.288033 C761.252041,270.529343 766.434376,264.388922 778.040893,252.261414 C794.202695,235.374144 798.029796,228.707193 798.029796,213.333333 C798.029796,197.935116 794.192843,191.251537 777.981504,174.292171 C766.41278,162.18964 761.251582,156.072107 755.657685,146.32811 C747.852272,132.731879 743.797499,117.608501 743.797499,100 L794.767703,100 C794.767703,115.398218 798.604655,122.081797 814.815994,139.041162 C826.384719,151.143693 831.545917,157.261226 837.139814,167.005224 C844.945226,180.601455 849,195.724832 849,213.333333 C849,230.925459 844.952414,246.032492 837.158555,259.609683 C831.569198,269.346549 826.396527,275.474133 814.805434,287.585525 C798.610465,304.50745 794.767703,311.20597 794.767703,326.666667 C794.767703,342.040526 798.594804,348.707477 814.805434,365.645768 C826.363122,377.722255 831.545458,383.862676 837.143759,393.621367 C844.94757,407.224598 849,422.364649 849,440 Z M733.467537,440 L682.497333,440 C682.497333,424.539304 678.65457,417.840784 662.410773,400.867838 C650.868509,388.807466 645.695837,382.679882 640.106481,372.943016 C632.312622,359.365825 628.265036,344.258793 628.265036,326.666667 C628.265036,309.031315 632.317465,293.891265 640.121277,280.288033 C645.719578,270.529343 650.901914,264.388922 662.50843,252.261414 C678.670232,235.374144 682.497333,228.707193 682.497333,213.333333 C682.497333,197.935116 678.660381,191.251537 662.449042,174.292171 C650.880317,162.18964 645.719119,156.072107 640.125222,146.32811 C632.31981,132.731879 628.265036,117.608501 628.265036,100 L679.23524,100 C679.23524,115.398218 683.072192,122.081797 699.283531,139.041162 C710.852256,151.143693 716.013454,157.261226 721.607351,167.005224 C729.412764,180.601455 733.467537,195.724832 733.467537,213.333333 C733.467537,230.925459 729.419952,246.032492 721.626092,259.609683 C716.036736,269.346549 710.864064,275.474133 699.272971,287.585525 C683.078003,304.50745 679.23524,311.20597 679.23524,326.666667 C679.23524,342.040526 683.062341,348.707477 699.272971,365.645768 C710.83066,377.722255 716.012995,383.862676 721.611296,393.621367 C729.415108,407.224598 733.467537,422.364649 733.467537,440 Z M617.935074,440 L566.96487,440 C566.96487,424.539304 563.122108,417.840784 546.87831,400.867838 C535.336046,388.807466 530.163375,382.679882 524.574018,372.943016 C516.780159,359.365825 512.732573,344.258793 512.732573,326.666667 C512.732573,309.031315 516.785003,293.891265 524.588814,280.288033 C530.187115,270.529343 535.369451,264.388922 546.975968,252.261414 C563.13777,235.374144 566.96487,228.707193 566.96487,213.333333 C566.96487,197.935116 563.127918,191.251537 546.916579,174.292171 C535.347854,162.18964 530.186657,156.072107 524.592759,146.32811 C516.787347,132.731879 512.732573,117.608501 512.732573,100 L563.702777,100 C563.702777,115.398218 567.53973,122.081797 583.751069,139.041162 C595.319793,151.143693 600.480991,157.261226 606.074888,167.005224 C613.880301,180.601455 617.935074,195.724832 617.935074,213.333333 C617.935074,230.925459 613.887489,246.032492 606.09363,259.609683 C600.504273,269.346549 595.331602,275.474133 583.740509,287.585525 C567.54554,304.50745 563.702777,311.20597 563.702777,326.666667 C563.702777,342.040526 567.529878,348.707477 583.740509,365.645768 C595.298197,377.722255 600.480532,383.862676 606.078833,393.621367 C613.882645,407.224598 617.935074,422.364649 617.935074,440 Z M110,383.679 L110,332.679 C127.625048,332.679 142.756254,336.733799 156.351538,344.542172 C166.104526,350.143745 172.24136,355.329111 184.361783,366.942412 C201.239186,383.113662 207.902243,386.943 223.26712,386.943 C238.718784,386.943 245.413391,383.097991 262.37642,366.844698 C274.429746,355.295686 280.55375,350.119991 290.284927,344.527367 C303.854186,336.728952 318.952393,332.679 336.534241,332.679 C354.159289,332.679 369.290494,336.733799 382.885778,344.542172 C392.638767,350.143745 398.775601,355.329111 410.896023,366.942412 C427.773427,383.113662 434.436483,386.943 449.801361,386.943 L449.801361,437.943 C432.219513,437.943 417.121306,433.893048 403.552048,426.094633 C393.82087,420.502009 387.696866,415.326314 375.59255,403.728445 C358.680511,387.524009 351.985904,383.679 336.534241,383.679 C321.169363,383.679 314.506307,387.508338 297.577912,403.728445 C285.50848,415.292889 279.371647,420.478255 269.618658,426.079828 C256.023374,433.888201 240.892169,437.943 223.26712,437.943 C205.685272,437.943 190.587066,433.893048 177.017807,426.094633 C167.28663,420.502009 161.162626,415.326314 149.058309,403.728445 C132.14627,387.524009 125.451664,383.679 110,383.679 Z M110,268.368 L110,217.368 C127.625048,217.368 142.756254,221.422799 156.351538,229.231172 C166.104526,234.832745 172.24136,240.018111 184.361783,251.631412 C201.239186,267.802662 207.902243,271.632 223.26712,271.632 C238.718784,271.632 245.413391,267.786991 262.37642,251.533698 C274.429746,239.984686 280.55375,234.808991 290.284927,229.216367 C303.854186,221.417952 318.952393,217.368 336.534241,217.368 C354.159289,217.368 369.290494,221.422799 382.885778,229.231172 C392.638767,234.832745 398.775601,240.018111 410.896023,251.631412 C427.773427,267.802662 434.436483,271.632 449.801361,271.632 L449.801361,322.632 C432.219513,322.632 417.121306,318.582048 403.552048,310.783633 C393.82087,305.191009 387.696866,300.015314 375.59255,288.417445 C358.680511,272.213009 351.985904,268.368 336.534241,268.368 C321.169363,268.368 314.506307,272.197338 297.577912,288.417445 C285.50848,299.981889 279.371647,305.167255 269.618658,310.768828 C256.023374,318.577201 240.892169,322.632 223.26712,322.632 C205.685272,322.632 190.587066,318.582048 177.017807,310.783633 C167.28663,305.191009 161.162626,300.015314 149.058309,288.417445 C132.14627,272.213009 125.451664,268.368 110,268.368 Z M110,153.057 L110,102.057 C127.625048,102.057 142.756254,106.111799 156.351538,113.920172 C166.104526,119.521745 172.24136,124.707111 184.361783,136.320412 C201.239186,152.491662 207.902243,156.321 223.26712,156.321 C238.718784,156.321 245.413391,152.475991 262.37642,136.222698 C274.429746,124.673686 280.55375,119.497991 290.284927,113.905367 C303.854186,106.106952 318.952393,102.057 336.534241,102.057 C354.159289,102.057 369.290494,106.111799 382.885778,113.920172 C392.638767,119.521745 398.775601,124.707111 410.896023,136.320412 C427.773427,152.491662 434.436483,156.321 449.801361,156.321 L449.801361,207.321 C432.219513,207.321 417.121306,203.271048 403.552048,195.472633 C393.82087,189.880009 387.696866,184.704314 375.59255,173.106445 C358.680511,156.902009 351.985904,153.057 336.534241,153.057 C321.169363,153.057 314.506307,156.886338 297.577912,173.106445 C285.50848,184.670889 279.371647,189.856255 269.618658,195.457828 C256.023374,203.266201 240.892169,207.321 223.26712,207.321 C205.685272,207.321 190.587066,203.271048 177.017807,195.472633 C167.28663,189.880009 161.162626,184.704314 149.058309,173.106445 C132.14627,156.902009 125.451664,153.057 110,153.057 Z" id="symbol" fill="#1C1F2A" fill-rule="nonzero"></path>
    </g>
</svg>