<?xml version="1.0" encoding="UTF-8"?>
<svg width="960px" height="544px" viewBox="0 0 960 544" version="1.1" xmlns="http://www.w3.org/2000/svg" xmlns:xlink="http://www.w3.org/1999/xlink">
    <!-- Generator: Sketch 53.2 (72643) - https://sketchapp.com -->
    <title>brianrevak</title>
    <desc>Created with Sketch.</desc>
    <g id="brianrevak" stroke="none" stroke-width="1" fill="none" fill-rule="evenodd">
        <g id="bw" transform="translate(310.000000, 117.000000)">
            <ellipse id="Oval-1" stroke="#1D1D1F" stroke-width="7.28051392" cx="145.610278" cy="145.5" rx="141.970021" ry="141.859743"></ellipse>
            <path d="M158.7966,103.244617 C158.7966,98.03208 160.325507,94.364025 163.664351,92.24118 C167.000283,90.1205175 172.846535,89.0583675 181.341439,89.0583675 C190.925507,89.0583675 198.779726,90.8771175 204.968163,94.5146175 C212.004051,98.8796175 215.508163,105.185587 215.508163,113.429617 C215.508163,121.190587 212.646921,127.314683 206.944822,131.798992 C201.72615,135.800242 195.346964,137.801595 187.824737,137.801595 L158.7966,137.801595 L158.7966,103.244617 Z M102.711161,139.984095 C96.767349,139.984095 91.4889764,137.378918 86.8760428,132.20712 C82.2660214,127.034595 79.9595546,120.790462 79.9595546,113.48709 C79.9595546,98.397285 91.0026381,90.84438 113.085893,90.84438 C121.094458,90.84438 126.356814,91.9392675 129.206407,94.1304975 C132.058912,96.321 133.314801,99.7264275 133.314801,104.34969 L133.314801,139.984095 L102.711161,139.984095 Z M129.479426,207.239287 C126.325507,209.421787 120.526578,210.513037 111.909362,210.513037 C101.233216,210.513037 92.7492334,207.99807 86.3787837,202.965225 C80.008334,197.93529 76.8442227,190.506788 76.8442227,180.685538 C76.8442227,172.320015 79.4339015,165.458962 84.5899615,159.880492 C89.7489336,154.304932 96.4033233,151.624095 104.531289,151.624095 L133.314801,151.624095 L133.314801,197.963662 C133.314801,202.450883 132.149919,205.542757 129.479426,207.239287 Z M65.6256788,90.010665 C58.3451649,96.075105 54.7857216,103.975027 54.7857216,113.796277 C54.7857216,128.346277 62.6938158,138.977235 78.7109465,145.766265 C59.7816103,153.95064 50.9634518,165.59064 50.9634518,181.231163 C50.9634518,192.143663 54.3219529,201.419288 61.1161285,209.058038 C68.7606681,217.668728 79.2351435,221.971163 92.7040942,221.971163 L176.269833,221.94861 L176.269833,213.400485 C164.621011,211.217985 158.068548,205.70208 158.068548,196.84986 L158.068548,150.896595 L172.505807,150.896595 L219.893944,227.257178 C230.316728,244.26249 241.527991,256.89189 253.526278,264.90894 C266.250433,273.530543 280.734287,277.905 296.979298,277.905 C309.702724,277.905 320.367949,273.812085 328.973516,265.568055 C336.245293,258.412365 339.883366,251.093715 339.883366,243.577185 C339.883366,240.422745 338.850989,237.852488 336.789148,235.851863 C334.724394,233.851238 332.116514,232.85529 328.962595,232.85529 C322.410133,232.85529 318.252231,236.313825 316.494715,243.225075 C314.734287,250.136325 313.551203,255.10806 312.945465,258.14028 C310.880711,264.07959 305.0563,267.05361 295.472231,267.05361 C282.122681,267.05361 269.504094,257.83764 257.613559,239.40861 L200.82555,151.018088 C212.35206,150.17055 221.694415,147.13833 228.855529,141.924338 C237.34752,135.62055 241.596428,126.76833 241.596428,115.370587 C241.596428,104.094337 236.983495,95.3948925 227.763452,89.271525 C218.540497,83.1496125 205.043152,80.0868375 187.569191,80.0868375 L99.4800685,80.26944 C84.7996403,80.26944 73.5148437,83.463165 65.6256788,90.010665 Z" id="logo" fill="#1D1D1F"></path>
        </g>
    </g>
</svg>