<?xml version="1.0" encoding="UTF-8"?>
<svg width="960px" height="540px" viewBox="0 0 960 540" version="1.1" xmlns="http://www.w3.org/2000/svg" xmlns:xlink="http://www.w3.org/1999/xlink">
    <!-- Generator: Sketch 53.2 (72643) - https://sketchapp.com -->
    <title>cdm</title>
    <desc>Created with Sketch.</desc>
    <g id="cdm" stroke="none" stroke-width="1" fill="none" fill-rule="evenodd">
        <g id="bw" transform="translate(311.000000, 102.000000)" fill="#C7A04A">
            <g id="Group">
                <path d="M150.065789,336.426878 C65.8987596,326.580449 0.584795322,255.157169 0.584795322,168.5 C0.584795322,81.842831 65.8987596,10.4195512 150.065789,0.573121995 L150.065789,20.6213868 C76.901624,30.3453564 20.4678363,92.8515006 20.4678363,168.5 C20.4678363,244.148499 76.901624,306.654644 150.065789,316.378613 L150.065789,336.426878 Z M189.934211,0.573121995 C274.10124,10.4195512 339.415205,81.842831 339.415205,168.5 C339.415205,255.157169 274.10124,326.580449 189.934211,336.426878 L189.934211,316.378613 C263.098376,306.654644 319.532164,244.148499 319.532164,168.5 C319.532164,92.8515006 263.098376,30.3453564 189.934211,20.6213868 L189.934211,0.573121995 Z" id="Combined-Shape" fill-rule="nonzero"></path>
                <rect id="Rectangle-8" x="160.032895" y="0.210625" width="19.9342105" height="336.57875" rx="3.97660819"></rect>
                <rect id="Rectangle-6" x="120.164474" y="108.822917" width="19.9342105" height="119.354167" rx="3.97660819"></rect>
                <rect id="Rectangle-7" x="199.901316" y="108.822917" width="19.9342105" height="119.354167" rx="3.97660819"></rect>
            </g>
        </g>
        <g id="340" transform="translate(311.000000, 102.000000)" fill="#1D1D1F">
            <g id="Group">
                <path d="M150.065789,336.426878 C65.8987596,326.580449 0.584795322,255.157169 0.584795322,168.5 C0.584795322,81.842831 65.8987596,10.4195512 150.065789,0.573121995 L150.065789,20.6213868 C76.901624,30.3453564 20.4678363,92.8515006 20.4678363,168.5 C20.4678363,244.148499 76.901624,306.654644 150.065789,316.378613 L150.065789,336.426878 Z M189.934211,0.573121995 C274.10124,10.4195512 339.415205,81.842831 339.415205,168.5 C339.415205,255.157169 274.10124,326.580449 189.934211,336.426878 L189.934211,316.378613 C263.098376,306.654644 319.532164,244.148499 319.532164,168.5 C319.532164,92.8515006 263.098376,30.3453564 189.934211,20.6213868 L189.934211,0.573121995 Z" id="Combined-Shape" fill-rule="nonzero"></path>
                <rect id="Rectangle-8" x="160.032895" y="0.210625" width="19.9342105" height="336.57875" rx="3.97660819"></rect>
                <rect id="Rectangle-6" x="120.164474" y="108.822917" width="19.9342105" height="119.354167" rx="3.97660819"></rect>
                <rect id="Rectangle-7" x="199.901316" y="108.822917" width="19.9342105" height="119.354167" rx="3.97660819"></rect>
            </g>
        </g>
    </g>
</svg>