<?xml version="1.0" encoding="UTF-8"?>
<svg width="960px" height="540px" viewBox="0 0 960 540" version="1.1" xmlns="http://www.w3.org/2000/svg" xmlns:xlink="http://www.w3.org/1999/xlink">
    <!-- Generator: Sketch 53.2 (72643) - https://sketchapp.com -->
    <title>freeken</title>
    <desc>Created with Sketch.</desc>
    <g id="freeken" stroke="none" stroke-width="1" fill="none" fill-rule="evenodd">
        <path d="M711.562798,100 C716.643905,100 722.135901,100.559942 728.038951,101.679842 C733.942001,102.799742 739.433997,104.666214 744.515103,107.279315 C749.59621,109.892415 753.780588,113.401383 757.068362,117.806324 C760.356137,122.211265 762,127.698694 762,134.268775 C762,142.332056 759.646287,149.648628 754.938792,156.218709 C750.231296,162.78879 743.618485,168.425536 735.100159,173.129117 C726.581833,177.832698 716.382412,181.490984 704.50159,184.104084 C692.620767,186.717185 679.507226,188.023715 665.160572,188.023715 C649.020587,188.023715 631.535865,186.903832 612.705882,184.664032 C609.268663,195.415074 606.690788,207.435155 604.972178,220.724638 C603.253569,234.01412 602.319556,248.796581 602.170111,265.072464 C607.848995,264.923144 613.639875,264.811155 619.542925,264.736495 C625.445975,264.661835 631.53574,264.624506 637.812401,264.624506 C646.181282,264.624506 654.624759,264.736494 663.143084,264.960474 C671.66141,265.184454 680.254329,265.44576 688.922099,265.744401 C691.462652,265.893721 693.442759,266.826957 694.86248,268.544137 C696.282201,270.261317 696.992051,272.239778 696.992051,274.479578 C696.992051,276.868699 696.17012,278.80983 694.526232,280.30303 C692.882345,281.796231 690.939598,282.542819 688.697933,282.542819 C680.179608,282.542819 671.69877,282.393502 663.255167,282.094862 C654.811564,281.796222 646.480168,281.646904 638.260731,281.646904 C631.98407,281.646904 625.856946,281.684233 619.879173,281.758893 C613.901401,281.833553 607.998439,281.945542 602.170111,282.094862 C602.170111,284.185342 602.207472,286.201132 602.282194,288.142292 C602.356916,290.083453 602.394277,292.099243 602.394277,294.189723 C602.394277,317.483647 598.882388,338.20149 591.858506,356.343874 C584.834623,374.486257 574.560481,389.754 561.035771,402.147563 C547.511061,414.541125 530.885631,423.948145 511.158983,430.368906 C491.432334,436.789668 468.791861,440 443.236884,440 C424.406901,440 407.70675,438.320175 393.13593,434.960474 C378.56511,431.600774 365.787813,427.15857 354.803657,421.633729 C343.8195,416.108888 334.40465,409.87487 326.558824,402.931489 C318.712997,395.988108 312.174907,388.970172 306.944356,381.87747 C301.713805,374.784769 297.529427,367.916151 294.391097,361.27141 C291.252767,354.626669 288.936414,348.915263 287.441971,344.137022 C287.292527,343.689062 287.180446,343.278438 287.105723,342.905138 C287.031001,342.531838 286.993641,342.121214 286.993641,341.673254 C286.993641,339.433454 287.815572,337.454993 289.459459,335.737813 C291.103347,334.020633 293.195536,333.162055 295.736089,333.162055 C297.529421,333.162055 299.135923,333.684668 300.555644,334.729908 C301.975365,335.775148 302.984099,337.193667 303.581876,338.985507 C304.926875,343.166468 306.944343,348.168614 309.63434,353.992095 C312.324338,359.815576 316.023029,365.825617 320.730525,372.022398 C325.43802,378.219179 331.266261,384.378538 338.215421,390.500659 C345.164582,396.62278 353.608058,402.072879 363.546105,406.85112 C373.484151,411.629361 384.991191,415.511623 398.067568,418.498024 C411.143945,421.484424 426.200233,422.977602 443.236884,422.977602 C490.162397,422.977602 525.617527,412.077404 549.603339,390.27668 C573.58915,368.475956 585.581876,336.297973 585.581876,293.741765 C585.581876,291.949925 585.544515,290.120782 585.469793,288.254282 C585.395071,286.387782 585.357711,284.558639 585.357711,282.766798 C570.263836,283.364079 556.365723,284.073338 543.662957,284.894598 C530.960191,285.715858 519.864117,286.537106 510.374404,287.358366 C500.88469,288.179626 493.225784,288.851556 487.397456,289.374177 C481.569128,289.896797 477.982519,290.158103 476.63752,290.158103 C474.096967,290.158103 471.855336,289.448843 469.91256,288.030303 C467.969784,286.611763 466.99841,284.483984 466.99841,281.646904 C466.99841,279.556423 467.745621,277.727281 469.240064,276.15942 C470.734507,274.59156 472.527811,273.658324 474.620032,273.359684 C474.769476,273.359684 477.646236,273.061048 483.250397,272.463768 C488.854559,271.866488 496.588186,271.157229 506.45151,270.335968 C516.314835,269.514708 527.971316,268.69346 541.421304,267.8722 C554.871291,267.05094 569.516614,266.341681 585.357711,265.744401 C585.656599,232.744675 589.093767,204.971566 595.669316,182.424242 C579.379887,180.035122 562.791817,177.160755 545.90461,173.801054 C529.017404,170.441353 512.205171,166.895056 495.467409,163.162055 C478.729646,159.429055 462.253658,155.733439 446.038951,152.075099 C429.824243,148.416758 414.244908,145.094437 399.300477,142.108037 C384.356046,139.121636 370.308492,136.732552 357.157393,134.940711 C344.006294,133.148871 332.050928,132.252964 321.290938,132.252964 C306.197063,132.252964 292.149509,133.783472 279.147854,136.844532 C266.146199,139.905593 254.900683,144.347797 245.41097,150.171278 C235.921256,155.994759 228.449153,163.124683 222.994436,171.561265 C217.539718,179.997846 214.812401,189.591514 214.812401,200.342556 C214.812401,207.360597 216.120019,213.669274 218.735294,219.268775 C221.35057,224.868276 224.30205,229.646445 227.589825,233.603426 C230.8776,237.560406 233.941162,240.621421 236.780604,242.786561 C239.620046,244.951702 241.189188,246.108914 241.488076,246.258235 C242.833075,247.004835 243.804449,248.050059 244.402226,249.393939 C245.000003,250.73782 245.298887,252.08168 245.298887,253.42556 C245.298887,255.964 244.439595,258.01712 242.720986,259.58498 C241.002376,261.152841 239.09699,261.936759 237.004769,261.936759 C235.360882,261.936759 233.79174,261.414147 232.297297,260.368906 C228.710634,257.979786 224.899861,254.844113 220.864865,250.961792 C216.829869,247.079471 213.131177,242.637267 209.76868,237.635046 C206.406184,232.632825 203.604145,226.996079 201.36248,220.724638 C199.120816,214.453197 198,207.659237 198,200.342556 C198,186.903754 201.175644,174.958331 207.527027,164.505929 C213.87841,154.053527 222.583411,145.169119 233.642289,137.852437 C244.701168,130.535756 257.739988,124.973669 272.759141,121.166008 C287.778294,117.358347 304.030119,115.454545 321.515103,115.454545 C331.826761,115.454545 343.557963,116.387782 356.709062,118.254282 C369.860161,120.120782 384.019797,122.547196 399.188394,125.533597 C414.356992,128.519997 430.272572,131.879648 446.935612,135.612648 C463.598652,139.345649 480.597688,143.115923 497.933227,146.923584 C515.268767,150.731244 532.678768,154.352201 550.163752,157.786561 C567.648736,161.220922 584.759853,164.132619 601.497615,166.521739 C605.682056,154.874777 611.697099,144.833156 619.542925,136.396574 C627.388751,127.959993 636.317915,121.054045 646.330684,115.678524 C656.343452,110.303003 666.9912,106.346082 678.274245,103.807642 C689.55729,101.269201 700.653364,100 711.562798,100 Z M744.963434,133.820817 C744.963434,130.237136 743.805258,127.362769 741.488871,125.197628 C739.172484,123.032488 736.295725,121.315334 732.858506,120.046113 C729.421286,118.776893 725.797316,117.918316 721.986486,117.470356 C718.175657,117.022396 714.701129,116.798419 711.562798,116.798419 C704.389471,116.798419 696.431681,117.545008 687.689189,119.038208 C678.946697,120.531408 670.279057,123.219129 661.68601,127.101449 C653.092962,130.98377 645.02309,136.284551 637.476153,143.003953 C629.929215,149.723354 623.76473,158.309126 618.982512,168.761528 C635.57083,170.553369 650.888642,171.449275 664.936407,171.449275 C676.443619,171.449275 687.091366,170.516039 696.879968,168.649539 C706.66857,166.783039 715.112047,164.207307 722.210652,160.922266 C729.309256,157.637226 734.875973,153.680304 738.91097,149.051383 C742.945966,144.422463 744.963434,139.345658 744.963434,133.820817 Z" id="bw" fill="#1D1D1F"></path>
    </g>
</svg>