<?xml version="1.0" encoding="UTF-8"?>
<svg width="960px" height="540px" viewBox="0 0 960 540" version="1.1" xmlns="http://www.w3.org/2000/svg" xmlns:xlink="http://www.w3.org/1999/xlink">
    <!-- Generator: Sketch 53.2 (72643) - https://sketchapp.com -->
    <title>garagecreatures</title>
    <desc>Created with Sketch.</desc>
    <g id="garagecreatures" stroke="none" stroke-width="1" fill="none" fill-rule="evenodd">
        <g id="bw" transform="translate(131.000000, 100.000000)" fill="#1D1D1F">
            <path d="M133.123865,307.610542 L133.123865,321.701544 L84.1163462,339.166448 C84.1163462,339.166448 52.5689961,327.457024 52.5689961,307.213612 L52.5689961,228.82001 L101.378104,179.600735 C101.378104,179.600735 124.790602,188.134723 131.338166,203.416513 L109.909777,225.049178 L109.909777,219.889093 C109.909777,212.545895 102.171748,205.798091 95.4257735,201.2334 L71.0212197,225.843038 L75.7830839,230.606193 L75.7830839,298.87809 C75.7830839,311.976768 100.386049,320.113825 100.386049,320.113825 L133.123865,307.610542 Z M182.726616,222.667601 L202.369306,242.315617 L202.369306,252.040393 L181.139328,271.093016 L181.139328,251.246534 L172.806066,242.911012 L168.044202,247.872632 L170.028312,249.85728 L170.028312,315.747599 L178.758396,324.480051 L163.67916,339.761842 L148.798334,324.678516 L148.798334,258.391268 L140.06825,249.658816 L154.949075,234.57549 L162.885516,242.514082 L182.726616,222.667601 Z M248.400659,222.667601 L267.844938,242.315617 L267.844938,252.635788 L230.74208,289.748709 L230.74208,311.381373 L239.075342,319.518431 L246.813371,311.778303 L246.813371,296.496512 L267.844938,275.459242 L267.844938,300.862738 L229.154792,339.761842 L209.710513,320.113825 L209.710513,261.566705 L248.400659,222.667601 Z M230.74208,279.627003 L246.813371,263.551353 L246.813371,251.246534 L238.480109,242.911012 L225.384983,256.208155 L230.74208,261.765169 L230.74208,279.627003 Z M334.312625,315.946064 L343.04271,324.678516 L328.161884,339.761842 L313.281059,324.678516 L313.281059,322.098474 L295.622479,339.761842 L276.1782,320.113825 L276.1782,261.566705 L314.868347,222.667601 L334.312625,242.315617 L334.312625,315.946064 Z M305.543029,319.518431 L313.281059,311.778303 L313.281059,251.246534 L304.947796,242.911012 L291.85267,256.208155 L297.209767,261.765169 L297.209767,311.381373 L305.543029,319.518431 Z M395.224804,265.536001 L377.169403,265.536001 L377.169403,311.182909 L385.502665,319.518431 L393.042283,311.778303 L393.042283,300.465809 L414.272261,279.428538 L414.272261,300.862738 L375.582115,339.761842 L355.939425,320.113825 L355.939425,242.117153 L351.574383,237.552462 L366.653619,222.667601 L381.534445,237.552462 L377.169403,242.117153 L377.169403,246.483379 L414.272261,246.483379 L395.224804,265.536001 Z M488.279566,315.946064 L497.009651,324.678516 L482.128825,339.761842 L467.049589,324.678516 L467.049589,322.098474 L449.58942,339.761842 L430.145141,320.113825 L430.145141,246.483379 L421.216646,237.750927 L436.295883,222.667601 L451.176708,237.750927 L451.176708,311.182909 L459.50997,319.518431 L467.049589,311.778303 L467.049589,246.483379 L458.319504,237.750927 L473.20033,222.667601 L488.279566,237.750927 L488.279566,315.946064 Z M547.207635,222.667601 L566.850325,242.315617 L566.850325,252.040393 L545.620347,271.093016 L545.620347,251.246534 L537.287085,242.911012 L532.525221,247.872632 L534.509331,249.85728 L534.509331,315.747599 L543.239415,324.480051 L528.160179,339.761842 L513.279353,324.678516 L513.279353,258.391268 L504.549269,249.658816 L519.430094,234.57549 L527.366534,242.514082 L547.207635,222.667601 Z M612.881678,222.667601 L632.325957,242.315617 L632.325957,252.635788 L595.223099,289.748709 L595.223099,311.381373 L603.556361,319.518431 L611.29439,311.778303 L611.29439,296.496512 L632.325957,275.459242 L632.325957,300.862738 L593.635811,339.761842 L574.191532,320.113825 L574.191532,261.566705 L612.881678,222.667601 Z M595.223099,279.627003 L611.29439,263.551353 L611.29439,251.246534 L602.961128,242.911012 L589.866002,256.208155 L595.223099,261.765169 L595.223099,279.627003 Z M697.007945,293.321075 L697.007945,300.862738 L658.51621,339.761842 L638.87352,320.113825 L638.87352,314.358346 L660.103498,295.702653 L660.103498,311.182909 L668.238349,319.518431 L679.547776,308.205936 L643.040151,271.489945 L643.040151,257.398943 L677.563666,222.667601 L693.436547,239.53711 L693.436547,243.704871 L675.976378,258.986662 L675.976378,251.246534 L667.643116,242.911012 L656.5321,254.223506 L697.007945,293.321075 Z" id="Creatures"></path>
            <path d="M81.2393866,87.7115256 L81.2393866,170.471354 L58.0252988,193.890202 L58.0252988,149.037154 L32.231868,160.548113 C32.231868,160.548113 0.684517972,148.838689 0.684517972,128.595278 L0.684517972,50.2016753 L49.4936255,0.982400841 C49.4936255,0.982400841 72.9061243,9.51638794 79.4536875,24.7981788 L58.0252988,46.4308438 L58.0252988,41.2707585 C58.0252988,33.9275603 50.2872696,27.1797566 43.5412954,22.6150658 L19.1367416,47.224703 L23.8986057,51.9878586 L23.8986057,118.870502 L72.5093023,70.0481569 C77.4695775,74.8113125 81.2393866,80.765257 81.2393866,87.7115256 Z M44.5333504,143.480139 L58.0252988,136.732335 L58.0252988,100.214809 L28.4620589,129.786067 C35.6048551,137.129265 44.5333504,143.480139 44.5333504,143.480139 Z M149.095951,137.32773 L157.826035,146.060182 L142.94521,161.143508 L128.064384,146.060182 L128.064384,143.480139 L110.405805,161.143508 L90.9615259,141.495491 L90.9615259,82.94837 L129.651672,44.049266 L149.095951,63.6972828 L149.095951,137.32773 Z M120.326355,140.900096 L128.064384,133.159968 L128.064384,72.6281995 L119.731122,64.2926772 L106.635995,77.5898199 L111.993093,83.1468348 L111.993093,132.763039 L120.326355,140.900096 Z M207.428787,44.049266 L227.071476,63.6972828 L227.071476,73.4220588 L205.841499,92.4746811 L205.841499,72.6281995 L197.508236,64.2926772 L192.746372,69.2542976 L194.730482,71.2389458 L194.730482,137.129265 L203.460567,145.861717 L188.38133,161.143508 L173.500505,146.060182 L173.500505,79.7729329 L164.77042,71.040481 L179.651246,55.9571549 L187.587686,63.8957476 L207.428787,44.049266 Z M292.94393,137.32773 L301.674015,146.060182 L286.793189,161.143508 L271.912364,146.060182 L271.912364,143.480139 L254.253784,161.143508 L234.809506,141.495491 L234.809506,82.94837 L273.499652,44.049266 L292.94393,63.6972828 L292.94393,137.32773 Z M264.174334,140.900096 L271.912364,133.159968 L271.912364,72.6281995 L263.579101,64.2926772 L250.483975,77.5898199 L255.841072,83.1468348 L255.841072,132.763039 L264.174334,140.900096 Z M347.705368,44.049266 L367.149647,63.6972828 L367.149647,166.502058 L332.030899,201.828795 L314.173908,183.768497 L329.054734,168.685171 L341.951449,181.585384 L346.11808,177.616087 L346.11808,138.716983 L328.459501,156.380352 L309.015222,136.732335 L309.015222,82.94837 L347.705368,44.049266 Z M338.380051,136.136941 L346.11808,128.396813 L346.11808,72.6281995 L337.784818,64.2926772 L324.689691,77.5898199 L330.046789,83.1468348 L330.046789,127.999883 L338.380051,136.136941 Z M414.768288,44.049266 L434.212567,63.6972828 L434.212567,74.0174532 L397.109709,111.130374 L397.109709,132.763039 L405.442971,140.900096 L413.181,133.159968 L413.181,117.878178 L434.212567,96.8409071 L434.212567,122.244404 L395.522421,161.143508 L376.078142,141.495491 L376.078142,82.94837 L414.768288,44.049266 Z M397.109709,101.008668 L413.181,84.9330181 L413.181,72.6281995 L404.847738,64.2926772 L391.752612,77.5898199 L397.109709,83.1468348 L397.109709,101.008668 Z" id="Garage"></path>
            <path d="M515.799173,120.815457 C515.799173,117.659866 517.465825,115.218749 520.203897,112.003619 C522.763399,109.026647 525.203855,107.180924 523.953865,107.180924 C522.406259,107.180924 511.573018,117.421709 505.263548,127.364796 C504.430222,128.793743 500.204068,124.8046 500.204068,123.316114 C500.204068,122.720719 502.108813,118.850655 506.573061,111.765461 C509.965889,106.466451 512.168251,102.596387 513.061101,102.596387 C513.894427,102.596387 518.656291,104.561188 518.656291,105.632898 C518.656291,105.990135 516.632499,108.66941 515.442033,110.157896 C515.263463,110.455593 515.02537,110.693751 514.8468,110.931909 C514.48966,111.348685 514.192044,111.825001 513.834904,112.301316 C518.596768,107.5977 523.775295,103.906255 527.406217,103.906255 C528.953823,103.906255 531.870464,106.764148 531.870464,108.133555 C531.870464,109.205265 531.215708,109.860199 528.894299,112.599014 C521.69198,120.934536 522.227689,123.971047 523.834819,123.971047 C525.977657,123.971047 528.715729,120.934536 533.834733,114.325657 C535.501386,112.182237 536.513282,115.337828 535.679956,116.588156 C531.572848,123.018416 527.941926,127.602954 523.537202,127.602954 C518.953908,127.602954 515.799173,124.625981 515.799173,120.815457 Z M536.751375,129.508216 C534.846629,129.508216 532.763314,127.186178 532.763314,125.935849 C532.763314,123.971047 535.977572,120.874996 537.941841,120.874996 C539.965633,120.874996 542.227519,122.958877 542.227519,124.923679 C542.227519,126.94802 538.775167,129.508216 536.751375,129.508216 Z M575.143905,103.906255 C576.215324,103.906255 579.965292,105.632898 579.965292,106.645069 C579.965292,108.014476 578.65578,109.919738 573.001066,117.778945 C563.655908,130.758544 556.870251,135.938476 552.16791,135.938476 C550.025071,135.938476 547.048906,134.39045 547.048906,132.30657 C547.048906,131.830254 547.227476,131.532557 547.644139,131.532557 C548.239372,131.532557 549.132222,132.604267 550.620304,132.604267 C552.52505,132.604267 554.667889,131.17532 558.774997,126.054928 C558.001194,126.352625 557.286914,126.471704 556.572635,126.471704 C554.429796,126.471704 552.227434,124.625981 552.227434,121.172694 C552.227434,114.563815 560.679742,103.489478 562.584488,103.489478 C563.715431,103.549018 567.524922,105.216122 567.524922,106.287832 C567.524922,107.5977 567.048736,107.954937 564.072571,111.94408 C558.29881,119.684207 557.346438,123.316114 558.774997,123.316114 C561.215452,123.316114 566.810643,114.325657 571.63203,107.5977 C573.239159,105.156583 574.191532,103.906255 575.143905,103.906255 Z M580.560525,129.508216 C578.65578,129.508216 576.572464,127.186178 576.572464,125.935849 C576.572464,123.971047 579.786722,120.874996 581.750991,120.874996 C583.774784,120.874996 586.036669,122.958877 586.036669,124.923679 C586.036669,126.94802 582.584318,129.508216 580.560525,129.508216 Z M609.607897,111.94408 C614.131668,108.907568 615.857843,106.168753 615.08404,106.168753 C610.560269,106.168753 603.417473,114.563815 603.417473,120.041444 C603.417473,121.649009 603.89366,123.971047 606.869825,123.971047 C610.857886,123.971047 614.726901,120.815457 619.726858,114.325657 C621.39351,112.182237 622.345883,115.337828 621.57208,116.588156 C617.345926,123.197035 611.750736,127.781572 606.215068,127.781572 C600.143692,127.781572 596.215154,123.911508 596.215154,119.267431 C596.215154,112.479935 604.250799,103.31086 614.191191,103.31086 C617.405449,103.31086 619.072102,105.51382 619.072102,108.788489 C619.072102,111.586843 614.786424,114.682894 610.976933,114.682894 C609.13171,114.682894 608.298384,112.777632 609.607897,111.94408 Z M622.583976,129.508216 C620.679231,129.508216 618.595915,127.186178 618.595915,125.935849 C618.595915,123.971047 621.810174,120.874996 623.774443,120.874996 C625.798235,120.874996 628.06012,122.958877 628.06012,124.923679 C628.06012,126.94802 624.607769,129.508216 622.583976,129.508216 Z" id="n.y.c."></path>
        </g>
    </g>
</svg>