<?xml version="1.0" encoding="UTF-8"?>
<svg width="960px" height="540px" viewBox="0 0 960 540" version="1.1" xmlns="http://www.w3.org/2000/svg" xmlns:xlink="http://www.w3.org/1999/xlink">
    <!-- Generator: Sketch 53.2 (72643) - https://sketchapp.com -->
    <title>googleaddon</title>
    <desc>Created with Sketch.</desc>
    <g id="googleaddon" stroke="none" stroke-width="1" fill="none" fill-rule="evenodd">
        <g id="bw" transform="translate(99.000000, 99.000000)" fill="#1D1D1F">
            <g id="Sheet-2">
                <path d="M0.978064516,11.9458065 C0.978064516,6.46193548 6.46193548,0.978064516 11.9458065,0.978064516 L330.010323,0.978064516 C335.494194,0.978064516 340.978065,6.46193548 340.978065,11.9458065 L340.978065,330.010323 C340.978065,335.494194 335.494194,340.978065 330.010323,340.978065 L11.9458065,340.978065 C6.46193548,340.978065 0.978064516,335.494194 0.978064516,330.010323 L0.978064516,11.9458065 Z M242.268387,11.9458065 L242.268387,22.9135484 C242.268387,37.1716129 228.55871,41.0103226 220.332903,33.8812903 C206.623226,21.8167742 188.526452,28.3974194 187.429677,50.3329032 C188.526452,72.2683871 206.623226,78.8490323 220.332903,66.7845161 C228.55871,59.6554839 242.268387,63.4941935 242.268387,77.7522581 L242.268387,264.203871 C242.268387,278.461935 255.978065,282.300645 264.203871,275.171613 C277.913548,263.107097 296.010323,269.687742 297.107097,291.623226 C296.010323,313.55871 277.913548,320.139355 264.203871,308.074839 C255.978065,300.945806 242.268387,304.784516 242.268387,319.042581 L242.268387,330.010323 L330.010323,330.010323 L330.010323,11.9458065 L242.268387,11.9458065 Z M313.55871,176.461935 L291.623226,176.461935 L291.623226,198.397419 L280.655484,198.397419 L280.655484,176.461935 L258.72,176.461935 L258.72,165.494194 L280.655484,165.494194 L280.655484,143.55871 L291.623226,143.55871 L291.623226,165.494194 L313.55871,165.494194 L313.55871,176.461935 Z M33.8812903,110.655484 L33.8812903,231.300645 L209.365161,231.300645 L209.365161,110.655484 L33.8812903,110.655484 Z M88.72,214.849032 L50.3329032,214.849032 L50.3329032,192.913548 L88.72,192.913548 L88.72,214.849032 Z M88.72,181.945806 L50.3329032,181.945806 L50.3329032,160.010323 L88.72,160.010323 L88.72,181.945806 Z M88.72,149.042581 L50.3329032,149.042581 L50.3329032,127.107097 L88.72,127.107097 L88.72,149.042581 Z M192.913548,214.849032 L105.171613,214.849032 L105.171613,192.913548 L192.913548,192.913548 L192.913548,214.849032 Z M192.913548,181.945806 L105.171613,181.945806 L105.171613,160.010323 L192.913548,160.010323 L192.913548,181.945806 Z M192.913548,149.042581 L105.171613,149.042581 L105.171613,127.107097 L192.913548,127.107097 L192.913548,149.042581 Z" id="Combined-Shape"></path>
            </g>
            <g id="Doc-2" transform="translate(420.000000, 0.000000)">
                <path d="M0.978064516,11.9458065 C0.978064516,6.46193548 6.46193548,0.978064516 11.9458065,0.978064516 L330.010323,0.978064516 C335.494194,0.978064516 340.978065,6.46193548 340.978065,11.9458065 L340.978065,330.010323 C340.978065,335.494194 335.494194,340.978065 330.010323,340.978065 L11.9458065,340.978065 C6.46193548,340.978065 0.978064516,335.494194 0.978064516,330.010323 L0.978064516,11.9458065 Z M242.268387,11.9458065 L242.268387,22.9135484 C242.268387,37.1716129 228.55871,41.0103226 220.332903,33.8812903 C206.623226,21.8167742 188.526452,28.3974194 187.429677,50.3329032 C188.526452,72.2683871 206.623226,78.8490323 220.332903,66.7845161 C228.55871,59.6554839 242.268387,63.4941935 242.268387,77.7522581 L242.268387,264.203871 C242.268387,278.461935 255.978065,282.300645 264.203871,275.171613 C277.913548,263.107097 296.010323,269.687742 297.107097,291.623226 C296.010323,313.55871 277.913548,320.139355 264.203871,308.074839 C255.978065,300.945806 242.268387,304.784516 242.268387,319.042581 L242.268387,330.010323 L330.010323,330.010323 L330.010323,11.9458065 L242.268387,11.9458065 Z M313.55871,176.461935 L291.623226,176.461935 L291.623226,198.397419 L280.655484,198.397419 L280.655484,176.461935 L258.72,176.461935 L258.72,165.494194 L280.655484,165.494194 L280.655484,143.55871 L291.623226,143.55871 L291.623226,165.494194 L313.55871,165.494194 L313.55871,176.461935 Z M36.6232258,118.88129 L36.6232258,135.332903 L206.623226,135.332903 L206.623226,118.88129 L36.6232258,118.88129 Z M36.6232258,157.268387 L36.6232258,173.72 L206.623226,173.72 L206.623226,157.268387 L36.6232258,157.268387 Z M36.6232258,195.655484 L36.6232258,212.107097 L206.623226,212.107097 L206.623226,195.655484 L36.6232258,195.655484 Z M36.6232258,234.042581 L36.6232258,250.494194 L135.332903,250.494194 L135.332903,234.042581 L36.6232258,234.042581 Z" id="Combined-Shape"></path>
            </g>
        </g>
    </g>
</svg>