<?xml version="1.0" encoding="UTF-8"?>
<svg width="960px" height="540px" viewBox="0 0 960 540" version="1.1" xmlns="http://www.w3.org/2000/svg" xmlns:xlink="http://www.w3.org/1999/xlink">
    <!-- Generator: Sketch 53.2 (72643) - https://sketchapp.com -->
    <title>gradespotter</title>
    <desc>Created with Sketch.</desc>
    <g id="gradespotter" stroke="none" stroke-width="1" fill="none" fill-rule="evenodd">
        <path d="M555.126251,211.52 L599.798489,211.52 C578.135528,167.225763 532.630267,136.72 480,136.72 C406.391485,136.72 346.72,196.391485 346.72,270 C346.72,343.608515 406.391485,403.28 480,403.28 C553.608515,403.28 613.28,343.608515 613.28,270 C613.28,263.063478 612.7501,256.25072 611.728571,249.6 L573.009179,249.6 L534.82342,249.6 C526.544972,227.361371 505.122463,211.52 480,211.52 C447.702386,211.52 421.52,237.702386 421.52,270 C421.52,302.297614 447.702386,328.48 480,328.48 C506.135192,328.48 528.266116,311.335701 535.759874,287.68 L573.561378,287.68 C565.273712,331.80964 526.536227,365.2 480,365.2 C427.422489,365.2 384.8,322.577511 384.8,270 C384.8,217.422489 427.422489,174.8 480,174.8 C510.531038,174.8 537.705277,189.172155 555.126251,211.52 Z M480,440 C386.111588,440 310,363.888412 310,270 C310,176.111588 386.111588,100 480,100 C573.888412,100 650,176.111588 650,270 C650,363.888412 573.888412,440 480,440 Z M480,290.4 C468.733391,290.4 459.6,281.266609 459.6,270 C459.6,258.733391 468.733391,249.6 480,249.6 C491.266609,249.6 500.4,258.733391 500.4,270 C500.4,281.266609 491.266609,290.4 480,290.4 Z" id="bw" fill="#1D1D1F"></path>
    </g>
</svg>