<?xml version="1.0" encoding="UTF-8"?>
<svg width="960px" height="540px" viewBox="0 0 960 540" version="1.1" xmlns="http://www.w3.org/2000/svg" xmlns:xlink="http://www.w3.org/1999/xlink">
    <!-- Generator: Sketch 53.2 (72643) - https://sketchapp.com -->
    <title>hackerunion</title>
    <desc>Created with Sketch.</desc>
    <g id="hackerunion" stroke="none" stroke-width="1" fill="none" fill-rule="evenodd">
        <path d="M480.5,425 C395.172006,425 326,355.827994 326,270.5 C326,185.172006 395.172006,116 480.5,116 C565.827994,116 635,185.172006 635,270.5 C635,355.827994 565.827994,425 480.5,425 Z M457.95,227 C456.3,227 455.1,228.35 455.1,229.85 L455.1,269.6 L406.2,269.6 L406.2,229.85 C406.2,228.35 405,227 403.35,227 L378,227 C375.790861,227 374,228.790861 374,231 L374,240 C374,242.209139 375.790861,244 378,244 L386.55,244 L386.55,329.15 C386.55,330.65 387.9,332 389.4,332 L403.35,332 C405,332 406.2,330.65 406.2,329.15 L406.2,287.75 L455.1,287.75 L455.1,329.15 C455.1,330.65 456.3,332 457.95,332 L471.75,332 C473.25,332 474.6,330.65 474.6,329.15 L474.6,244 L491.4,244 L491.4,292.25 C491.4,315.05 509.55,333.5 533.1,333.5 C556.8,333.5 574.95,315.05 574.95,292.25 L574.95,244 L583,244 C585.209139,244 587,242.209139 587,240 L587,231 C587,228.790861 585.209139,227 583,227 L557.85,227 C556.2,227 555,228.35 555,229.85 L555,291.35 C555,303.95 546.15,314 533.1,314 C520.05,314 511.35,303.95 511.35,291.2 L511.35,229.85 C511.35,228.35 510.15,227 508.5,227 L457.95,227 Z" id="Combined-Shape" fill="#1D1D1F" fill-rule="nonzero"></path>
    </g>
</svg>