<?xml version="1.0" encoding="UTF-8"?>
<svg width="960px" height="540px" viewBox="0 0 960 540" version="1.1" xmlns="http://www.w3.org/2000/svg" xmlns:xlink="http://www.w3.org/1999/xlink">
    <!-- Generator: Sketch 53.2 (72643) - https://sketchapp.com -->
    <title>helm</title>
    <desc>Created with Sketch.</desc>
    <g id="helm" stroke="none" stroke-width="1" fill="none" fill-rule="evenodd">
        <g id="bw" transform="translate(310.000000, 100.000000)">
            <circle id="Oval-1" stroke="#1D1D1F" stroke-width="25.84" cx="170" cy="170" r="122.4"></circle>
            <circle id="Oval-2" fill="#1D1D1F" cx="170" cy="170" r="34"></circle>
            <rect id="Rectangle-1" fill="#1D1D1F" x="164.56" y="0" width="10.88" height="340" rx="5.44"></rect>
            <rect id="Rectangle-3" fill="#1D1D1F" transform="translate(170.000000, 170.000000) rotate(-315.000000) translate(-170.000000, -170.000000) " x="164.56" y="0" width="10.88" height="340" rx="5.44"></rect>
            <rect id="Rectangle-2" fill="#1D1D1F" x="0" y="164.56" width="340" height="10.88" rx="5.44"></rect>
            <rect id="Rectangle-4" fill="#1D1D1F" transform="translate(170.000000, 170.000000) rotate(-315.000000) translate(-170.000000, -170.000000) " x="0" y="164.56" width="340" height="10.88" rx="5.44"></rect>
            <rect id="Rectangle-5" fill="#1D1D1F" x="158.44" y="28.56" width="23.12" height="24.48" rx="2.72"></rect>
            <rect id="Rectangle-7" fill="#1D1D1F" x="286.96" y="158.44" width="24.48" height="23.12" rx="2.72"></rect>
            <rect id="Rectangle-9" fill="#1D1D1F" transform="translate(262.480000, 78.880000) rotate(-45.000000) translate(-262.480000, -78.880000) " x="250.24" y="67.32" width="24.48" height="23.12" rx="2.72"></rect>
            <rect id="Rectangle-10" fill="#1D1D1F" transform="translate(78.880000, 261.120000) rotate(-45.000000) translate(-78.880000, -261.120000) " x="66.64" y="249.56" width="24.48" height="23.12" rx="2.72"></rect>
            <rect id="Rectangle-8" fill="#1D1D1F" x="28.56" y="158.44" width="24.48" height="23.12" rx="2.72"></rect>
            <rect id="Rectangle-6" fill="#1D1D1F" x="158.44" y="284.24" width="23.12" height="24.48" rx="2.72"></rect>
            <rect id="Rectangle-11" fill="#1D1D1F" transform="translate(262.480000, 261.120000) rotate(-45.000000) translate(-262.480000, -261.120000) " x="250.92" y="248.88" width="23.12" height="24.48" rx="2.72"></rect>
            <rect id="Rectangle-12" fill="#1D1D1F" transform="translate(78.200000, 78.880000) rotate(-45.000000) translate(-78.200000, -78.880000) " x="66.64" y="66.64" width="23.12" height="24.48" rx="2.72"></rect>
        </g>
    </g>
</svg>