<?xml version="1.0" encoding="UTF-8"?>
<svg width="960px" height="540px" viewBox="0 0 960 540" version="1.1" xmlns="http://www.w3.org/2000/svg" xmlns:xlink="http://www.w3.org/1999/xlink">
    <!-- Generator: Sketch 53.2 (72643) - https://sketchapp.com -->
    <title>hivington</title>
    <desc>Created with Sketch.</desc>
    <g id="hivington" stroke="none" stroke-width="1" fill="none" fill-rule="evenodd">
        <path d="M762.211678,221.735034 C763.871475,219.257981 765.752729,216.616941 767.863563,213.803795 C790.218662,184.149978 794.815038,178.302747 798.993561,178.302747 C801.291749,178.302747 805.470272,180.182214 809.022017,182.68817 C814.663023,186.655935 816.125506,187.908913 816.125506,191.667847 C816.125506,193.964974 814.663023,197.932738 811.946983,203.77997 C820.095103,196.262101 826.78074,190.832529 831.586042,187.908913 C835.973491,185.194127 838.898458,184.149978 841.196645,184.149978 C843.703759,184.149978 847.255504,185.820616 852.060806,189.370721 C856.239329,192.294336 857.075034,197.723909 852.687584,207.121245 C847.673356,217.77156 837.853827,229.883682 831.16819,243.666442 C831.794968,243.875272 832.421747,244.084102 833.257451,244.084102 C837.227048,244.084102 846.419799,241.160486 858.119665,233.016128 C859.373222,232.180809 860,232.807298 860,234.269106 C860,236.775062 859.582148,239.698678 857.492886,241.578146 C847.46443,250.140163 831.794968,259.32867 821.766512,259.32867 C815.080875,259.32867 808.81309,255.152076 806.305976,251.184312 C803.38101,246.590058 803.38101,241.578146 805.261346,236.983892 C811.738057,222.365813 820.512955,212.550817 823.437922,204.824118 C812.573761,211.297839 797.94893,224.24528 780.608059,248.469526 C776.638461,253.899098 774.131348,255.778565 772.042086,255.778565 C769.326046,255.778565 764.520744,254.107927 759.506516,252.854949 C755.327993,251.810801 752.403027,248.678355 752.403027,244.292932 C752.403027,241.227742 753.480304,237.413488 755.745743,232.739336 C753.89783,233.322485 752.032571,233.786648 750.161354,234.110843 C742.848939,252.279026 724.672363,271.491359 703.988673,271.491359 C695.004848,271.491359 688.945989,268.150084 683.513909,262.094022 C680.512357,258.693834 678.320007,254.9318 677.168011,250.794331 C665.961326,264.499292 645.562551,283.418352 630.436521,283.418352 C625.840146,283.418352 619.781287,281.956544 613.931354,276.318143 C609.78611,272.463882 607.331128,268.520701 607.202649,263.380822 C602.126765,273.128107 594.17052,286.531698 583.633779,301.593413 C589.06586,301.384583 593.871161,301.384583 597.422906,301.593413 C599.094315,301.802242 599.512168,302.637561 597.631832,305.770007 C595.960423,308.693623 592.199752,309.737771 589.06586,309.946601 C585.723041,310.15543 581.544518,310.36426 576.739216,310.990749 C565.457203,325.817658 553.13056,339.182759 542.057473,348.580095 C522.836266,364.868812 505.286469,369.880724 494.004456,369.880724 C486.900967,369.880724 479.170699,366.539449 476.245732,364.242323 C472.276135,361.109877 469.977948,355.262646 469.977948,351.086052 C469.977948,338.55627 480.006403,327.070636 495.258013,320.179256 C511.76318,312.661387 530.775461,308.902452 550.832372,305.352347 C554.384117,300.549264 557.935862,295.746181 561.27868,290.525439 C555.219821,295.328522 549.369889,298.460967 544.98244,299.922775 C540.177138,301.593413 535.16291,301.175753 530.566534,297.834478 C526.899687,296.185159 524.117742,293.892571 522.150105,291.274244 C511.882051,303.164459 497.494795,315.592715 485.096978,315.592715 C480.08275,315.592715 475.695301,313.086758 471.725704,308.701335 C466.711476,303.062933 464.622214,297.215701 467.965033,289.906662 C473.188187,278.838688 483.634495,269.232522 490.111206,259.417526 C481.545233,265.264757 470.054294,274.453264 459.190134,283.850601 C448.5349,299.721658 441.640336,309.745483 436.626108,314.757396 C434.118995,317.263352 432.865438,318.098671 431.402954,318.098671 C427.85121,318.098671 424.090539,316.010374 420.74772,313.295588 C418.924787,311.878406 417.298219,310.215881 416.105978,308.308014 C405.846095,319.321602 393.720484,329.055792 384.580455,329.055792 C379.984079,329.055792 375.387704,326.758665 371.835959,324.252709 C368.284214,321.537923 365.568174,318.823137 364.314617,316.108351 C360.136094,308.172822 363.269986,298.775486 375.59663,282.486769 C387.087569,267.242201 394.60891,255.756568 397.533877,250.118166 C400.040991,245.523912 400.667769,244.897423 403.383809,245.732742 C409.024816,247.821039 415.2926,249.074017 418.00864,250.535825 C423.231795,253.250611 424.067499,259.515502 416.96401,269.121668 C406.935554,282.277939 390.639313,303.996228 388.967904,315.690691 C395.660303,314.836737 403.808384,310.975763 414.07355,300.934499 C414.373959,294.818601 420.547105,284.610403 429.104767,273.409116 C442.267115,256.076251 451.877718,242.919979 454.593758,238.116896 C455.429463,236.655088 456.265168,236.237429 457.518725,236.237429 C461.906174,236.237429 469.427516,239.787534 474.65067,244.799447 C477.993488,248.140722 479.664898,251.273167 477.784562,255.867421 C488.857649,250.020189 498.0504,246.052425 502.646776,246.052425 C506.19852,246.052425 509.541339,247.514233 512.466305,250.229019 C517.271607,254.614443 517.480533,258.373377 514.137714,265.473587 C509.123487,276.332731 495.961138,292.830278 493.454024,302.645273 C500.86099,300.912529 509.337834,296.09045 519.243233,285.57984 C518.708566,283.834129 518.448817,282.049033 518.448817,280.292783 C518.448817,272.357255 523.254119,259.827473 536.625393,247.088861 C549.578815,234.976739 567.755391,228.503018 582.171296,228.503018 C589.274786,228.503018 592.617604,229.755996 593.662235,233.514931 C593.871161,234.35025 594.289014,235.812058 594.915792,237.273865 C597.422906,237.482695 600.974651,238.109184 604.526396,239.362162 C609.101316,241.096676 612.008581,243.188379 613.158247,245.457467 C614.339349,243.362963 615.707854,241.126115 617.274173,238.728797 C622.706253,230.375609 627.511555,223.066569 631.899004,216.175189 C629.182964,216.175189 628.138333,215.5487 626.466924,214.086892 C623.750884,211.580936 621.452696,207.404342 621.452696,205.733704 C621.452696,204.898385 622.079475,204.271896 625.422293,203.854237 C630.436521,203.227748 636.077528,202.392429 641.718534,201.76594 C649.448802,190.489136 656.552291,180.465311 664.491486,170.023826 C670.75927,161.670638 673.266384,160 674.937794,160 C677.86276,160 678.907391,163.341275 682.668062,166.68255 C691.44296,173.99159 689.562625,178.794673 676.609203,198.842324 C682.668062,198.633494 688.100142,198.424665 692.278665,198.424665 C694.367927,198.424665 694.576853,199.051154 694.576853,199.886473 C694.576853,202.183599 692.696517,204.271896 690.189403,204.689556 C687.68229,205.107215 687.473363,206.360193 679.743095,208.239661 L668.878935,210.745617 C645.688131,246.246666 636.704306,260.864745 635.241823,268.382614 C650.206263,267.423798 662.528111,260.477871 676.251746,243.502322 C676.382652,236.325709 679.408642,228.200946 686.229949,219.075104 C697.720888,203.830536 718.82243,191.300754 731.149074,191.300754 C735.954375,191.300754 739.715046,191.927243 743.89357,194.4332 C749.952428,198.192134 751.414911,200.489261 751.414911,201.742239 C751.414911,202.577558 751.205985,203.204047 749.116724,204.457025 C751.832764,208.00713 753.504173,212.810213 753.504173,218.657445 C753.504173,220.536912 753.295247,222.416379 753.086321,224.295847 C756.164441,223.810052 759.214645,222.933609 762.211678,221.735034 Z M175.473496,371.378102 C171.769958,372.030834 167.267765,371.76407 168.478426,369.006081 C178.030522,347.389751 190.028294,319.192895 201.687121,291.479879 C189.559672,294.889595 176.851247,298.613758 164.00963,302.785497 C155.244765,320.446159 146.443621,337.901165 138.708019,351.775553 C133.575137,361.16225 131.299436,363.895896 124.267083,368.528137 C119.897581,371.418754 112.99842,375.603418 104.041738,380.150711 C101.342607,381.686677 98.764743,381.50486 100.641368,376.508986 C108.3899,356.694885 117.058354,336.082497 126.440977,314.708086 C125.133905,314.51435 123.754274,313.909298 122.229524,312.481619 C119.700368,310.170706 118.091133,307.061506 117.873455,305.827564 C117.728337,305.004935 118.067281,304.521095 119.265514,304.097861 L133.60803,298.81339 C145.726567,272.503711 158.861938,244.742512 173.256176,215.699187 C174.842061,212.663016 176.923936,211.235838 179.344254,212.92978 C186.472013,218.459184 191.760432,221.980199 194.543546,225.730712 C197.496133,229.239305 197.217319,232.469214 193.549056,240.537522 C188.197995,252.295236 180.78891,268.020538 172.738214,284.919178 C186.499754,279.949152 199.09934,275.608019 210.089189,271.762646 C224.133058,238.327996 236.397215,209.235986 240.634529,199.583026 C241.542525,197.514535 242.087222,196.994432 244.568173,197.829482 C248.428755,199.269584 254.951687,202.573022 259.925515,205.513329 C263.967495,207.981717 265.903247,212.94183 262.840314,219.631144 C253.457691,241.005555 215.394929,324.688546 200.056416,355.594705 C197.8652,360.00987 195.795251,362.707253 190.905406,365.053426 C184.647855,368.064752 179.177034,370.72537 175.473496,371.378102 Z M277.335495,246.258139 C276.499791,245.63165 276.499791,244.378672 277.335495,242.499205 C280.469388,235.816654 285.274689,229.134104 289.453213,224.539851 C292.587105,220.989746 294.467441,219.736768 296.13885,220.154427 C300.526299,221.407405 305.749453,224.122191 308.047641,226.210488 C310.136903,227.881126 311.181533,229.134104 309.510124,230.804742 C304.078044,236.234314 298.019185,241.872716 295.512071,244.378672 C292.169253,248.137607 289.244286,248.555266 286.110394,248.555266 C283.185428,248.555266 278.797978,247.302288 277.335495,246.258139 Z M253.343765,350.033139 C247.284906,350.033139 244.35994,347.944842 238.510007,343.141759 C229.10833,334.579741 228.690478,329.776658 244.35994,305.552413 C253.134839,292.187312 263.581147,277.778063 268.177522,272.557321 C269.013227,271.513172 269.848931,271.095513 271.520341,271.095513 C276.743495,271.095513 289.905843,272.139661 289.905843,280.07519 C289.905843,284.251784 285.72732,291.560823 278.414904,301.793479 C266.923965,318.082195 260.029402,329.150169 257.522288,336.668038 C265.670408,335.83272 274.236381,331.029637 281.757723,323.094108 C282.175575,322.676449 282.802353,322.676449 283.01128,323.094108 C283.220206,323.720597 283.429132,325.391235 283.429132,326.226553 C283.429132,327.061872 283.220206,328.31485 281.757723,330.194318 C276.325642,338.129846 264.625777,350.033139 253.343765,350.033139 Z M310.781641,341.366621 C305.558487,341.366621 297.619293,337.398857 292.605065,334.057582 C288.844394,331.551625 286.546206,327.792691 289.05332,320.901311 C294.4854,305.865572 309.945936,278.717711 315.378017,262.428995 C316.004795,260.131868 316.631574,258.87889 318.511909,258.87889 C320.601171,258.87889 322.899358,260.340698 328.122512,262.220165 C333.972445,264.308462 338.359894,267.023248 338.359894,274.123458 C338.359894,281.223668 333.763519,293.54462 320.601171,317.351206 C339.404525,302.315467 361.341772,280.388349 377.011234,262.011335 C378.473717,260.340698 379.518348,260.758357 380.562979,262.220165 C382.025462,264.308462 382.234388,265.352611 379.727274,269.111545 C371.579154,281.223668 337.942042,322.363118 324.361842,334.266411 C318.720835,339.278324 314.751238,341.366621 310.781641,341.366621 Z M408.60738,223.096207 C407.771676,222.260888 407.771676,221.00791 409.025233,219.546102 C414.248387,213.281211 421.351876,202.839726 425.112547,196.783665 C425.739325,195.739516 426.157178,195.530687 427.201809,195.948346 C432.424963,198.036643 436.812412,201.377918 438.692747,204.719193 C440.155231,207.22515 439.946304,209.522276 437.439191,212.445892 C432.633889,217.457805 428.873218,221.00791 426.992882,222.260888 C423.441138,224.558015 420.307245,224.975674 415.919796,224.975674 C413.830534,224.975674 409.652011,224.140355 408.60738,223.096207 Z M543.489571,274.69784 C555.189436,271.774224 567.098227,264.465184 578.38024,252.144232 C581.723058,245.670511 584.856951,239.196791 587.572991,232.72307 C569.605341,236.273175 548.294872,258.826783 543.489571,274.69784 Z M528.928937,339.979148 C536.450279,334.967236 546.478735,325.15224 556.925043,312.413628 C525.586119,320.975646 505.320281,332.04362 502.813167,351.882441 C511.170214,350.002974 520.571891,345.408721 528.928937,339.979148 Z M707.81359,251.348884 C720.34916,250.095906 733.92936,240.28091 742.077481,229.004106 C733.92936,226.915809 730.168689,221.068578 729.541911,214.177198 C716.379563,224.827512 706.351107,238.192613 707.81359,251.348884 Z" id="bw" fill="#1D1D1F"></path>
        <path d="M762.211678,221.735034 C763.871475,219.257981 765.752729,216.616941 767.863563,213.803795 C790.218662,184.149978 794.815038,178.302747 798.993561,178.302747 C801.291749,178.302747 805.470272,180.182214 809.022017,182.68817 C814.663023,186.655935 816.125506,187.908913 816.125506,191.667847 C816.125506,193.964974 814.663023,197.932738 811.946983,203.77997 C820.095103,196.262101 826.78074,190.832529 831.586042,187.908913 C835.973491,185.194127 838.898458,184.149978 841.196645,184.149978 C843.703759,184.149978 847.255504,185.820616 852.060806,189.370721 C856.239329,192.294336 857.075034,197.723909 852.687584,207.121245 C847.673356,217.77156 837.853827,229.883682 831.16819,243.666442 C831.794968,243.875272 832.421747,244.084102 833.257451,244.084102 C837.227048,244.084102 846.419799,241.160486 858.119665,233.016128 C859.373222,232.180809 860,232.807298 860,234.269106 C860,236.775062 859.582148,239.698678 857.492886,241.578146 C847.46443,250.140163 831.794968,259.32867 821.766512,259.32867 C815.080875,259.32867 808.81309,255.152076 806.305976,251.184312 C803.38101,246.590058 803.38101,241.578146 805.261346,236.983892 C811.738057,222.365813 820.512955,212.550817 823.437922,204.824118 C812.573761,211.297839 797.94893,224.24528 780.608059,248.469526 C776.638461,253.899098 774.131348,255.778565 772.042086,255.778565 C769.326046,255.778565 764.520744,254.107927 759.506516,252.854949 C755.327993,251.810801 752.403027,248.678355 752.403027,244.292932 C752.403027,241.227742 753.480304,237.413488 755.745743,232.739336 C753.89783,233.322485 752.032571,233.786648 750.161354,234.110843 C742.848939,252.279026 724.672363,271.491359 703.988673,271.491359 C695.004848,271.491359 688.945989,268.150084 683.513909,262.094022 C680.512357,258.693834 678.320007,254.9318 677.168011,250.794331 C665.961326,264.499292 645.562551,283.418352 630.436521,283.418352 C625.840146,283.418352 619.781287,281.956544 613.931354,276.318143 C609.78611,272.463882 607.331128,268.520701 607.202649,263.380822 C602.126765,273.128107 594.17052,286.531698 583.633779,301.593413 C589.06586,301.384583 593.871161,301.384583 597.422906,301.593413 C599.094315,301.802242 599.512168,302.637561 597.631832,305.770007 C595.960423,308.693623 592.199752,309.737771 589.06586,309.946601 C585.723041,310.15543 581.544518,310.36426 576.739216,310.990749 C565.457203,325.817658 553.13056,339.182759 542.057473,348.580095 C522.836266,364.868812 505.286469,369.880724 494.004456,369.880724 C486.900967,369.880724 479.170699,366.539449 476.245732,364.242323 C472.276135,361.109877 469.977948,355.262646 469.977948,351.086052 C469.977948,338.55627 480.006403,327.070636 495.258013,320.179256 C511.76318,312.661387 530.775461,308.902452 550.832372,305.352347 C554.384117,300.549264 557.935862,295.746181 561.27868,290.525439 C555.219821,295.328522 549.369889,298.460967 544.98244,299.922775 C540.177138,301.593413 535.16291,301.175753 530.566534,297.834478 C526.899687,296.185159 524.117742,293.892571 522.150105,291.274244 C511.882051,303.164459 497.494795,315.592715 485.096978,315.592715 C480.08275,315.592715 475.695301,313.086758 471.725704,308.701335 C466.711476,303.062933 464.622214,297.215701 467.965033,289.906662 C473.188187,278.838688 483.634495,269.232522 490.111206,259.417526 C481.545233,265.264757 470.054294,274.453264 459.190134,283.850601 C448.5349,299.721658 441.640336,309.745483 436.626108,314.757396 C434.118995,317.263352 432.865438,318.098671 431.402954,318.098671 C427.85121,318.098671 424.090539,316.010374 420.74772,313.295588 C418.924787,311.878406 417.298219,310.215881 416.105978,308.308014 C405.846095,319.321602 393.720484,329.055792 384.580455,329.055792 C379.984079,329.055792 375.387704,326.758665 371.835959,324.252709 C368.284214,321.537923 365.568174,318.823137 364.314617,316.108351 C360.136094,308.172822 363.269986,298.775486 375.59663,282.486769 C387.087569,267.242201 394.60891,255.756568 397.533877,250.118166 C400.040991,245.523912 400.667769,244.897423 403.383809,245.732742 C409.024816,247.821039 415.2926,249.074017 418.00864,250.535825 C423.231795,253.250611 424.067499,259.515502 416.96401,269.121668 C406.935554,282.277939 390.639313,303.996228 388.967904,315.690691 C395.660303,314.836737 403.808384,310.975763 414.07355,300.934499 C414.373959,294.818601 420.547105,284.610403 429.104767,273.409116 C442.267115,256.076251 451.877718,242.919979 454.593758,238.116896 C455.429463,236.655088 456.265168,236.237429 457.518725,236.237429 C461.906174,236.237429 469.427516,239.787534 474.65067,244.799447 C477.993488,248.140722 479.664898,251.273167 477.784562,255.867421 C488.857649,250.020189 498.0504,246.052425 502.646776,246.052425 C506.19852,246.052425 509.541339,247.514233 512.466305,250.229019 C517.271607,254.614443 517.480533,258.373377 514.137714,265.473587 C509.123487,276.332731 495.961138,292.830278 493.454024,302.645273 C500.86099,300.912529 509.337834,296.09045 519.243233,285.57984 C518.708566,283.834129 518.448817,282.049033 518.448817,280.292783 C518.448817,272.357255 523.254119,259.827473 536.625393,247.088861 C549.578815,234.976739 567.755391,228.503018 582.171296,228.503018 C589.274786,228.503018 592.617604,229.755996 593.662235,233.514931 C593.871161,234.35025 594.289014,235.812058 594.915792,237.273865 C597.422906,237.482695 600.974651,238.109184 604.526396,239.362162 C609.101316,241.096676 612.008581,243.188379 613.158247,245.457467 C614.339349,243.362963 615.707854,241.126115 617.274173,238.728797 C622.706253,230.375609 627.511555,223.066569 631.899004,216.175189 C629.182964,216.175189 628.138333,215.5487 626.466924,214.086892 C623.750884,211.580936 621.452696,207.404342 621.452696,205.733704 C621.452696,204.898385 622.079475,204.271896 625.422293,203.854237 C630.436521,203.227748 636.077528,202.392429 641.718534,201.76594 C649.448802,190.489136 656.552291,180.465311 664.491486,170.023826 C670.75927,161.670638 673.266384,160 674.937794,160 C677.86276,160 678.907391,163.341275 682.668062,166.68255 C691.44296,173.99159 689.562625,178.794673 676.609203,198.842324 C682.668062,198.633494 688.100142,198.424665 692.278665,198.424665 C694.367927,198.424665 694.576853,199.051154 694.576853,199.886473 C694.576853,202.183599 692.696517,204.271896 690.189403,204.689556 C687.68229,205.107215 687.473363,206.360193 679.743095,208.239661 L668.878935,210.745617 C645.688131,246.246666 636.704306,260.864745 635.241823,268.382614 C650.206263,267.423798 662.528111,260.477871 676.251746,243.502322 C676.382652,236.325709 679.408642,228.200946 686.229949,219.075104 C697.720888,203.830536 718.82243,191.300754 731.149074,191.300754 C735.954375,191.300754 739.715046,191.927243 743.89357,194.4332 C749.952428,198.192134 751.414911,200.489261 751.414911,201.742239 C751.414911,202.577558 751.205985,203.204047 749.116724,204.457025 C751.832764,208.00713 753.504173,212.810213 753.504173,218.657445 C753.504173,220.536912 753.295247,222.416379 753.086321,224.295847 C756.164441,223.810052 759.214645,222.933609 762.211678,221.735034 Z M175.473496,371.378102 C171.769958,372.030834 167.267765,371.76407 168.478426,369.006081 C178.030522,347.389751 190.028294,319.192895 201.687121,291.479879 C189.559672,294.889595 176.851247,298.613758 164.00963,302.785497 C155.244765,320.446159 146.443621,337.901165 138.708019,351.775553 C133.575137,361.16225 131.299436,363.895896 124.267083,368.528137 C119.897581,371.418754 112.99842,375.603418 104.041738,380.150711 C101.342607,381.686677 98.764743,381.50486 100.641368,376.508986 C108.3899,356.694885 117.058354,336.082497 126.440977,314.708086 C125.133905,314.51435 123.754274,313.909298 122.229524,312.481619 C119.700368,310.170706 118.091133,307.061506 117.873455,305.827564 C117.728337,305.004935 118.067281,304.521095 119.265514,304.097861 L133.60803,298.81339 C145.726567,272.503711 158.861938,244.742512 173.256176,215.699187 C174.842061,212.663016 176.923936,211.235838 179.344254,212.92978 C186.472013,218.459184 191.760432,221.980199 194.543546,225.730712 C197.496133,229.239305 197.217319,232.469214 193.549056,240.537522 C188.197995,252.295236 180.78891,268.020538 172.738214,284.919178 C186.499754,279.949152 199.09934,275.608019 210.089189,271.762646 C224.133058,238.327996 236.397215,209.235986 240.634529,199.583026 C241.542525,197.514535 242.087222,196.994432 244.568173,197.829482 C248.428755,199.269584 254.951687,202.573022 259.925515,205.513329 C263.967495,207.981717 265.903247,212.94183 262.840314,219.631144 C253.457691,241.005555 215.394929,324.688546 200.056416,355.594705 C197.8652,360.00987 195.795251,362.707253 190.905406,365.053426 C184.647855,368.064752 179.177034,370.72537 175.473496,371.378102 Z M277.335495,246.258139 C276.499791,245.63165 276.499791,244.378672 277.335495,242.499205 C280.469388,235.816654 285.274689,229.134104 289.453213,224.539851 C292.587105,220.989746 294.467441,219.736768 296.13885,220.154427 C300.526299,221.407405 305.749453,224.122191 308.047641,226.210488 C310.136903,227.881126 311.181533,229.134104 309.510124,230.804742 C304.078044,236.234314 298.019185,241.872716 295.512071,244.378672 C292.169253,248.137607 289.244286,248.555266 286.110394,248.555266 C283.185428,248.555266 278.797978,247.302288 277.335495,246.258139 Z M253.343765,350.033139 C247.284906,350.033139 244.35994,347.944842 238.510007,343.141759 C229.10833,334.579741 228.690478,329.776658 244.35994,305.552413 C253.134839,292.187312 263.581147,277.778063 268.177522,272.557321 C269.013227,271.513172 269.848931,271.095513 271.520341,271.095513 C276.743495,271.095513 289.905843,272.139661 289.905843,280.07519 C289.905843,284.251784 285.72732,291.560823 278.414904,301.793479 C266.923965,318.082195 260.029402,329.150169 257.522288,336.668038 C265.670408,335.83272 274.236381,331.029637 281.757723,323.094108 C282.175575,322.676449 282.802353,322.676449 283.01128,323.094108 C283.220206,323.720597 283.429132,325.391235 283.429132,326.226553 C283.429132,327.061872 283.220206,328.31485 281.757723,330.194318 C276.325642,338.129846 264.625777,350.033139 253.343765,350.033139 Z M310.781641,341.366621 C305.558487,341.366621 297.619293,337.398857 292.605065,334.057582 C288.844394,331.551625 286.546206,327.792691 289.05332,320.901311 C294.4854,305.865572 309.945936,278.717711 315.378017,262.428995 C316.004795,260.131868 316.631574,258.87889 318.511909,258.87889 C320.601171,258.87889 322.899358,260.340698 328.122512,262.220165 C333.972445,264.308462 338.359894,267.023248 338.359894,274.123458 C338.359894,281.223668 333.763519,293.54462 320.601171,317.351206 C339.404525,302.315467 361.341772,280.388349 377.011234,262.011335 C378.473717,260.340698 379.518348,260.758357 380.562979,262.220165 C382.025462,264.308462 382.234388,265.352611 379.727274,269.111545 C371.579154,281.223668 337.942042,322.363118 324.361842,334.266411 C318.720835,339.278324 314.751238,341.366621 310.781641,341.366621 Z M408.60738,223.096207 C407.771676,222.260888 407.771676,221.00791 409.025233,219.546102 C414.248387,213.281211 421.351876,202.839726 425.112547,196.783665 C425.739325,195.739516 426.157178,195.530687 427.201809,195.948346 C432.424963,198.036643 436.812412,201.377918 438.692747,204.719193 C440.155231,207.22515 439.946304,209.522276 437.439191,212.445892 C432.633889,217.457805 428.873218,221.00791 426.992882,222.260888 C423.441138,224.558015 420.307245,224.975674 415.919796,224.975674 C413.830534,224.975674 409.652011,224.140355 408.60738,223.096207 Z M543.489571,274.69784 C555.189436,271.774224 567.098227,264.465184 578.38024,252.144232 C581.723058,245.670511 584.856951,239.196791 587.572991,232.72307 C569.605341,236.273175 548.294872,258.826783 543.489571,274.69784 Z M528.928937,339.979148 C536.450279,334.967236 546.478735,325.15224 556.925043,312.413628 C525.586119,320.975646 505.320281,332.04362 502.813167,351.882441 C511.170214,350.002974 520.571891,345.408721 528.928937,339.979148 Z M707.81359,251.348884 C720.34916,250.095906 733.92936,240.28091 742.077481,229.004106 C733.92936,226.915809 730.168689,221.068578 729.541911,214.177198 C716.379563,224.827512 706.351107,238.192613 707.81359,251.348884 Z" id="Combined-Shape-Copy-2" fill="#1D1D1F"></path>
    </g>
</svg>