<?xml version="1.0" encoding="UTF-8"?>
<svg width="960px" height="540px" viewBox="0 0 960 540" version="1.1" xmlns="http://www.w3.org/2000/svg" xmlns:xlink="http://www.w3.org/1999/xlink">
    <!-- Generator: Sketch 53.2 (72643) - https://sketchapp.com -->
    <title>in</title>
    <desc>Created with Sketch.</desc>
    <g id="in" stroke="none" stroke-width="1" fill="none" fill-rule="evenodd">
        <path d="M532.526268,420.20886 C526.84908,420.280677 518.236105,422.589413 513.27958,425.370655 L490.921544,437.916363 C485.969079,440.695327 477.944797,440.699726 472.98974,437.921104 L450.638329,425.387217 C445.687332,422.610872 437.076171,420.30447 431.394366,420.235599 L405.764717,419.924932 C400.087567,419.856117 393.138255,415.847834 390.237688,410.963244 L377.153725,388.929696 C374.255534,384.049107 367.95354,377.745566 363.068891,374.845035 L341.035072,361.761236 C336.154424,358.863081 332.142147,351.916133 332.073273,346.234397 L331.762596,320.605058 C331.693778,314.927976 329.389567,306.316325 326.61091,301.361329 L314.076866,279.010191 C311.300486,274.059255 311.300329,266.03507 314.081603,261.078605 L326.627457,238.720836 C329.406454,233.76843 331.717435,225.156153 331.789311,219.47438 L332.113529,193.844873 C332.185345,188.167754 336.19735,181.216407 341.083533,178.313293 L363.124267,165.21784 C368.006446,162.317104 374.313396,156.011854 377.216544,151.12573 L390.31215,129.08526 C393.21292,124.203138 400.162073,120.187236 405.843915,120.11536 L431.473732,119.79114 C437.15092,119.719323 445.763895,117.410587 450.72042,114.629345 L473.078456,102.083637 C478.030921,99.3046732 486.055203,99.3002743 491.01026,102.078896 L513.361671,114.612783 C518.312668,117.389128 526.923829,119.69553 532.605634,119.764401 L558.235283,120.075068 C563.912433,120.143883 570.861745,124.152166 573.762312,129.036756 L586.846275,151.070304 C589.744466,155.950893 596.04646,162.254434 600.931109,165.154965 L622.964928,178.238764 C627.845576,181.136919 631.857853,188.083867 631.926727,193.765603 L632.237404,219.394942 C632.306222,225.072024 634.610433,233.683675 637.38909,238.638671 L649.923134,260.989809 C652.699514,265.940745 652.699671,273.96493 649.918397,278.921395 L637.372543,301.279164 C634.593546,306.23157 632.282565,314.843847 632.210689,320.52562 L631.886471,346.155127 C631.814655,351.832246 627.80265,358.783593 622.916467,361.686707 L600.875733,374.78216 C595.993554,377.682896 589.686604,383.988146 586.783456,388.87427 L573.68785,410.91474 C570.78708,415.796862 563.837927,419.812764 558.156085,419.88464 L532.526268,420.20886 Z M482,410.844677 C559.798326,410.844677 622.86633,347.786367 622.86633,270 C622.86633,192.213633 559.798326,129.155323 482,129.155323 C404.201674,129.155323 341.13367,192.213633 341.13367,270 C341.13367,347.786367 404.201674,410.844677 482,410.844677 Z M482,401.930457 C409.125619,401.930457 350.04926,342.863179 350.04926,270 C350.04926,197.136821 409.125619,138.069543 482,138.069543 C554.874381,138.069543 613.95074,197.136821 613.95074,270 C613.95074,342.863179 554.874381,401.930457 482,401.930457 Z M460.850926,198.686239 L460.850926,332.39954 L489.380816,332.39954 L489.380816,280.697064 L555.356186,339.530917 L555.356186,202.251927 L526.826296,202.251927 L526.826296,261.08578 L460.850926,198.686239 Z M405.574265,204.034771 L405.574265,332.39954 L434.104155,332.39954 L434.104155,204.034771 L405.574265,204.034771 Z" id="bw" fill="#E0473D"></path>
        <path d="M532.526268,420.20886 C526.84908,420.280677 518.236105,422.589413 513.27958,425.370655 L490.921544,437.916363 C485.969079,440.695327 477.944797,440.699726 472.98974,437.921104 L450.638329,425.387217 C445.687332,422.610872 437.076171,420.30447 431.394366,420.235599 L405.764717,419.924932 C400.087567,419.856117 393.138255,415.847834 390.237688,410.963244 L377.153725,388.929696 C374.255534,384.049107 367.95354,377.745566 363.068891,374.845035 L341.035072,361.761236 C336.154424,358.863081 332.142147,351.916133 332.073273,346.234397 L331.762596,320.605058 C331.693778,314.927976 329.389567,306.316325 326.61091,301.361329 L314.076866,279.010191 C311.300486,274.059255 311.300329,266.03507 314.081603,261.078605 L326.627457,238.720836 C329.406454,233.76843 331.717435,225.156153 331.789311,219.47438 L332.113529,193.844873 C332.185345,188.167754 336.19735,181.216407 341.083533,178.313293 L363.124267,165.21784 C368.006446,162.317104 374.313396,156.011854 377.216544,151.12573 L390.31215,129.08526 C393.21292,124.203138 400.162073,120.187236 405.843915,120.11536 L431.473732,119.79114 C437.15092,119.719323 445.763895,117.410587 450.72042,114.629345 L473.078456,102.083637 C478.030921,99.3046732 486.055203,99.3002743 491.01026,102.078896 L513.361671,114.612783 C518.312668,117.389128 526.923829,119.69553 532.605634,119.764401 L558.235283,120.075068 C563.912433,120.143883 570.861745,124.152166 573.762312,129.036756 L586.846275,151.070304 C589.744466,155.950893 596.04646,162.254434 600.931109,165.154965 L622.964928,178.238764 C627.845576,181.136919 631.857853,188.083867 631.926727,193.765603 L632.237404,219.394942 C632.306222,225.072024 634.610433,233.683675 637.38909,238.638671 L649.923134,260.989809 C652.699514,265.940745 652.699671,273.96493 649.918397,278.921395 L637.372543,301.279164 C634.593546,306.23157 632.282565,314.843847 632.210689,320.52562 L631.886471,346.155127 C631.814655,351.832246 627.80265,358.783593 622.916467,361.686707 L600.875733,374.78216 C595.993554,377.682896 589.686604,383.988146 586.783456,388.87427 L573.68785,410.91474 C570.78708,415.796862 563.837927,419.812764 558.156085,419.88464 L532.526268,420.20886 Z M482,410.844677 C559.798326,410.844677 622.86633,347.786367 622.86633,270 C622.86633,192.213633 559.798326,129.155323 482,129.155323 C404.201674,129.155323 341.13367,192.213633 341.13367,270 C341.13367,347.786367 404.201674,410.844677 482,410.844677 Z M482,401.930457 C409.125619,401.930457 350.04926,342.863179 350.04926,270 C350.04926,197.136821 409.125619,138.069543 482,138.069543 C554.874381,138.069543 613.95074,197.136821 613.95074,270 C613.95074,342.863179 554.874381,401.930457 482,401.930457 Z M460.850926,198.686239 L460.850926,332.39954 L489.380816,332.39954 L489.380816,280.697064 L555.356186,339.530917 L555.356186,202.251927 L526.826296,202.251927 L526.826296,261.08578 L460.850926,198.686239 Z M405.574265,204.034771 L405.574265,332.39954 L434.104155,332.39954 L434.104155,204.034771 L405.574265,204.034771 Z" fill="#1D1D1F"></path>
    </g>
</svg>