<?xml version="1.0" encoding="UTF-8"?>
<svg width="960px" height="540px" viewBox="0 0 960 540" version="1.1" xmlns="http://www.w3.org/2000/svg" xmlns:xlink="http://www.w3.org/1999/xlink">
    <!-- Generator: Sketch 53.2 (72643) - https://sketchapp.com -->
    <title>k</title>
    <desc>Created with Sketch.</desc>
    <g id="k" stroke="none" stroke-width="1" fill="none" fill-rule="evenodd">
        <path d="M859.990731,212.841686 C859.741185,222.1407 853.70292,225.901336 846.510579,226.54403 C775.702059,233.108202 301.051717,336.393664 210.978355,352.409163 C210.118387,392.437246 208.680121,419.364679 208.662728,420.166823 C208.579426,422.167289 207.566293,429.120292 197.860379,427.844961 C189.110099,426.687279 188.287934,421.519049 188.608132,418.904318 C190.094697,407.42516 191.882989,384.240546 193.554126,355.411494 C154.399635,362.253325 125.566369,366.666088 117.325028,365.973207 C106.525626,365.045825 98.7423365,361.272611 100.168672,349.625183 C101.808473,336.234597 143.321718,300.889652 198.192068,263.408956 C200.933332,198.116558 202.940478,133.538068 202.707102,113 C208.247499,156.872334 210.643991,207.274493 211.408587,254.499885 C277.761213,210.389904 359.415345,165.429123 414.049302,151.002385 C371.865689,166.077181 281.165589,223.516763 211.585397,272.859411 C211.781974,294.35809 211.617168,314.847138 211.376392,333.316116 C304.830914,313.454152 787.131293,203.148043 839.66265,197.309619 C845.81002,196.618706 860.420247,197.452235 859.990731,212.841686 Z M120.374491,348.332582 C120.394255,351.47174 150.736584,345.957895 194.690307,336.891894 C195.552792,319.947175 196.490888,301.724906 197.308524,283.166089 C153.405833,314.919287 120.960334,341.56826 120.374491,348.332582 Z" id="bw" fill="#1D1D1F" fill-rule="nonzero"></path>
    </g>
</svg>