<?xml version="1.0" encoding="UTF-8"?>
<svg width="960px" height="540px" viewBox="0 0 960 540" version="1.1" xmlns="http://www.w3.org/2000/svg" xmlns:xlink="http://www.w3.org/1999/xlink">
    <!-- Generator: Sketch 53.2 (72643) - https://sketchapp.com -->
    <title>kennedysgarage</title>
    <desc>Created with Sketch.</desc>
    <g id="kennedysgarage" stroke="none" stroke-width="1" fill="none" fill-rule="evenodd">
        <path d="M486.627109,123.845157 L648.985936,408.591468 C651.073059,412.251883 649.797654,416.911183 646.137239,418.998306 C644.985932,419.654767 643.683479,420 642.358168,420 L317.640514,420 C313.426879,420 310.011053,416.584174 310.011053,412.370539 C310.011053,411.045228 310.356286,409.742775 311.012747,408.591468 L473.371574,123.845157 C475.458697,120.184742 480.117998,118.909338 483.778412,120.996461 C484.96606,121.673643 485.949927,122.65751 486.627109,123.845157 Z M406.941966,313.587509 C405.575343,315.950545 405.575343,318.863669 406.941966,321.226705 L441.610214,381.171819 C442.973819,383.529639 445.490972,384.981682 448.214708,384.981682 L517.573696,384.981682 C520.297431,384.981682 522.814585,383.529639 524.17819,381.171819 L558.846438,321.226705 C560.21306,318.863669 560.21306,315.950545 558.846438,313.587509 L524.17819,253.642396 C522.814585,251.284576 520.297431,249.832533 517.573696,249.832533 L448.214708,249.832533 C445.490972,249.832533 442.973819,251.284576 441.610214,253.642396 L406.941966,313.587509 Z" id="bw" stroke="#1D1D1F" stroke-width="7.072502"></path>
    </g>
</svg>