<?xml version="1.0" encoding="UTF-8"?>
<svg width="960px" height="540px" viewBox="0 0 960 540" version="1.1" xmlns="http://www.w3.org/2000/svg" xmlns:xlink="http://www.w3.org/1999/xlink">
    <!-- Generator: Sketch 53.2 (72643) - https://sketchapp.com -->
    <title>kenvak</title>
    <desc>Created with Sketch.</desc>
    <g id="kenvak" stroke="none" stroke-width="1" fill="none" fill-rule="evenodd">
        <g id="bw" transform="translate(148.000000, 173.000000)" fill="#1D1D1F">
            <path d="M0,190.991657 C0,192.653119 1.33569396,194 2.99701548,194 L661.002985,194 C662.65819,194 664,192.657573 664,190.991657 L664,3.00834278 C664,1.34688094 662.664306,0 661.002985,0 L2.99701548,0 C1.34180954,0 0,1.34242699 0,3.00834278 L0,190.991657 Z M650,180 L14,180 L14,14 L650,14 L650,180 L650,180 Z" id="Shape"></path>
            <path d="M52.6,143.2 C50.9,143.2 49.6,141.9 49.6,140.2 L49.6,53.8 C49.6,52.1 50.9,50.8 52.6,50.8 L72.2,50.8 C73.9,50.8 75.2,52.1 75.2,53.8 L75.2,85.3 C75.2,87 76.1,87.3 77.1,86 L105,53.1 C106.1,51.8 108.3,50.8 109.9,50.8 L134.3,50.8 C136,50.8 136.4,51.8 135.3,53 L104.3,88.2 C103.2,89.4 103.1,91.6 104,92.9 L136.8,140.6 C137.7,142 137.2,143.1 135.5,143.1 L110.8,143.1 C109.1,143.1 107,142 106.1,140.6 L86.2,111.2 C85.3,109.8 83.6,109.7 82.5,111 L77.1,117 C76,118.2 75.1,120.6 75.1,122.2 L75.1,140.1 C75.1,141.8 73.8,143.1 72.1,143.1 L52.6,143.1 L52.6,143.2 Z M149,143.2 C147.3,143.2 146,141.9 146,140.2 L146,53.8 C146,52.1 147.3,50.8 149,50.8 L217.3,50.8 C219,50.8 220.3,52.1 220.3,53.8 L220.3,69.6 C220.3,71.3 219,72.6 217.3,72.6 L174.3,72.6 C172.6,72.6 171.3,73.9 171.3,75.6 L171.3,83.6 C171.3,85.3 172.7,86.6 174.3,86.6 L212.7,86.6 C214.4,86.6 215.7,87.9 215.7,89.6 L215.7,103.8 C215.7,105.5 214.3,106.8 212.7,106.8 L174.3,106.8 C172.6,106.8 171.3,108.2 171.3,109.8 L171.3,118.5 C171.3,120.2 172.6,121.5 174.3,121.5 L217.9,121.5 C219.6,121.5 220.9,122.8 220.9,124.5 L220.9,140.3 C220.9,142 219.6,143.3 217.9,143.3 L149,143.3 L149,143.2 Z M237,143.2 C235.3,143.2 234,141.9 234,140.2 L234,53.8 C234,52.1 235.4,50.8 237,50.8 L254.9,50.8 C256.6,50.8 258.7,51.9 259.7,53.2 L294,97.3 C295,98.6 295.8,98.3 295.8,96.7 L295.8,53.9 C295.8,52.2 297.1,50.9 298.8,50.9 L318.1,50.9 C319.8,50.9 321.1,52.2 321.1,53.9 L321.1,140.3 C321.1,142 319.8,143.3 318.1,143.3 L301.7,143.3 C300,143.3 297.9,142.2 296.9,140.9 L261.1,94.9 C260.1,93.6 259.3,93.9 259.3,95.5 L259.3,140.2 C259.3,141.9 258,143.2 256.3,143.2 L237,143.2 L237,143.2 Z M370.7,143.9 C369,143.9 367.2,142.7 366.6,141.1 L331.4,53.6 C330.8,52.1 331.6,50.8 333.3,50.8 L355.9,50.8 C357.6,50.8 359.4,52.1 359.9,53.6 L378.9,106.4 C379.5,108 380.4,108 380.9,106.4 L399.9,53.6 C400.5,52 402.2,50.8 403.9,50.8 L426,50.8 C427.7,50.8 428.5,52 427.9,53.6 L392.7,141.1 C392.1,142.6 390.2,143.9 388.6,143.9 L370.7,143.9 L370.7,143.9 Z M417.3,143.2 C415.6,143.2 414.8,142 415.5,140.4 L452.5,52.9 C453.1,51.4 455,50.1 456.7,50.1 L475.4,50.1 C477.1,50.1 478.9,51.3 479.6,52.9 L516.6,140.4 C517.2,141.9 516.4,143.2 514.8,143.2 L493.3,143.2 C491.6,143.2 489.8,142 489.2,140.4 L484.7,129.5 C484.1,128 482.2,126.7 480.6,126.7 L451,126.7 C449.3,126.7 447.5,127.9 446.9,129.5 L442.5,140.4 C441.9,141.9 440.1,143.2 438.4,143.2 L417.3,143.2 L417.3,143.2 Z M456.5,104 C455.9,105.5 456.7,106.8 458.4,106.8 L473.1,106.8 C474.8,106.8 475.6,105.6 475,104 L466.9,83.3 C466.3,81.8 465.3,81.8 464.7,83.3 L456.5,104 L456.5,104 Z M529.7,143.2 C528,143.2 526.7,141.9 526.7,140.2 L526.7,53.8 C526.7,52.1 528,50.8 529.7,50.8 L549.3,50.8 C551,50.8 552.3,52.1 552.3,53.8 L552.3,85.3 C552.3,87 553.2,87.3 554.2,86 L582.1,53.1 C583.2,51.8 585.4,50.8 587,50.8 L611.4,50.8 C613.1,50.8 613.5,51.8 612.4,53 L581.4,88.2 C580.3,89.4 580.2,91.6 581.1,92.9 L613.9,140.6 C614.8,142 614.3,143.1 612.6,143.1 L587.9,143.1 C586.2,143.1 584.1,142 583.2,140.6 L563.3,111.2 C562.4,109.8 560.7,109.7 559.6,111 L554.2,117 C553.1,118.2 552.2,120.6 552.2,122.2 L552.2,140.1 C552.2,141.8 550.9,143.1 549.2,143.1 L529.7,143.1 L529.7,143.2 Z" id="Shape"></path>
        </g>
    </g>
</svg>