<?xml version="1.0" encoding="UTF-8"?>
<svg width="960px" height="540px" viewBox="0 0 960 540" version="1.1" xmlns="http://www.w3.org/2000/svg" xmlns:xlink="http://www.w3.org/1999/xlink">
    <!-- Generator: Sketch 53.2 (72643) - https://sketchapp.com -->
    <title>labachtechnologylaw</title>
    <desc>Created with Sketch.</desc>
    <g id="labachtechnologylaw" stroke="none" stroke-width="1" fill="none" fill-rule="evenodd">
        <g id="bw" transform="translate(324.000000, 101.000000)" fill="#252429" fill-rule="nonzero">
            <path d="M150.670807,300.010293 L150.670807,25.1136364 L39.986785,25.1136364 C37.8202911,33.9845663 29.8202366,40.5681818 20.2826087,40.5681818 C9.08083323,40.5681818 0,31.486685 0,20.2840909 C0,9.08149684 9.08083323,0 20.2826087,0 C29.8202366,0 37.8202911,6.58361551 39.986785,15.4545455 L271.013215,15.4545455 C273.179709,6.58361551 281.179763,0 290.717391,0 C301.919167,0 311,9.08149684 311,20.2840909 C311,31.486685 301.919167,40.5681818 290.717391,40.5681818 C281.179763,40.5681818 273.179709,33.9845663 271.013215,25.1136364 L160.329193,25.1136364 L160.329193,300.010293 C169.199474,302.176945 175.782609,310.177584 175.782609,319.715909 C175.782609,330.918503 166.701775,340 155.5,340 C144.298225,340 135.217391,330.918503 135.217391,319.715909 C135.217391,310.177584 141.800526,302.176945 150.670807,300.010293 Z M20.2826087,32.8409091 C27.2170411,32.8409091 32.8385093,27.2190301 32.8385093,20.2840909 C32.8385093,13.3491517 27.2170411,7.72727273 20.2826087,7.72727273 C13.3481763,7.72727273 7.72670807,13.3491517 7.72670807,20.2840909 C7.72670807,27.2190301 13.3481763,32.8409091 20.2826087,32.8409091 Z M290.717391,32.8409091 C297.651824,32.8409091 303.273292,27.2190301 303.273292,20.2840909 C303.273292,13.3491517 297.651824,7.72727273 290.717391,7.72727273 C283.782959,7.72727273 278.161491,13.3491517 278.161491,20.2840909 C278.161491,27.2190301 283.782959,32.8409091 290.717391,32.8409091 Z M155.5,332.272727 C162.434432,332.272727 168.055901,326.650848 168.055901,319.715909 C168.055901,312.78097 162.434432,307.159091 155.5,307.159091 C148.565568,307.159091 142.944099,312.78097 142.944099,319.715909 C142.944099,326.650848 148.565568,332.272727 155.5,332.272727 Z" id="Combined-Shape"></path>
            <path d="M110.10559,76.6942526 C101.235308,74.5276004 94.6521739,66.5269613 94.6521739,56.9886364 C94.6521739,45.7860423 103.733007,36.7045455 114.934783,36.7045455 C126.136558,36.7045455 135.217391,45.7860423 135.217391,56.9886364 C135.217391,66.5269613 128.634257,74.5276004 119.763975,76.6942526 L119.763975,314.886364 L119.763975,324.545455 L39.986785,324.545455 C37.8202911,333.416384 29.8202366,340 20.2826087,340 C9.08083323,340 0,330.918503 0,319.715909 C0,308.513315 9.08083323,299.431818 20.2826087,299.431818 C29.8202366,299.431818 37.8202911,306.015434 39.986785,314.886364 L110.10559,314.886364 L110.10559,76.6942526 Z M20.2826087,332.272727 C27.2170411,332.272727 32.8385093,326.650848 32.8385093,319.715909 C32.8385093,312.78097 27.2170411,307.159091 20.2826087,307.159091 C13.3481763,307.159091 7.72670807,312.78097 7.72670807,319.715909 C7.72670807,326.650848 13.3481763,332.272727 20.2826087,332.272727 Z M114.934783,69.5454545 C121.869215,69.5454545 127.490683,63.9235756 127.490683,56.9886364 C127.490683,50.0536972 121.869215,44.4318182 114.934783,44.4318182 C108.00035,44.4318182 102.378882,50.0536972 102.378882,56.9886364 C102.378882,63.9235756 108.00035,69.5454545 114.934783,69.5454545 Z" id="Combined-Shape"></path>
            <path d="M200.89441,76.6942526 L200.89441,314.886364 L271.013215,314.886364 C273.179709,306.015434 281.179763,299.431818 290.717391,299.431818 C301.919167,299.431818 311,308.513315 311,319.715909 C311,330.918503 301.919167,340 290.717391,340 C281.179763,340 273.179709,333.416384 271.013215,324.545455 L191.236025,324.545455 L191.236025,314.886364 L191.236025,76.6942526 C182.365743,74.5276004 175.782609,66.5269613 175.782609,56.9886364 C175.782609,45.7860423 184.863442,36.7045455 196.065217,36.7045455 C207.266993,36.7045455 216.347826,45.7860423 216.347826,56.9886364 C216.347826,66.5269613 209.764692,74.5276004 200.89441,76.6942526 Z M290.717391,332.272727 C297.651824,332.272727 303.273292,326.650848 303.273292,319.715909 C303.273292,312.78097 297.651824,307.159091 290.717391,307.159091 C283.782959,307.159091 278.161491,312.78097 278.161491,319.715909 C278.161491,326.650848 283.782959,332.272727 290.717391,332.272727 Z M196.065217,69.5454545 C202.99965,69.5454545 208.621118,63.9235756 208.621118,56.9886364 C208.621118,50.0536972 202.99965,44.4318182 196.065217,44.4318182 C189.130785,44.4318182 183.509317,50.0536972 183.509317,56.9886364 C183.509317,63.9235756 189.130785,69.5454545 196.065217,69.5454545 Z" id="Combined-Shape"></path>
        </g>
    </g>
</svg>