<?xml version="1.0" encoding="UTF-8"?>
<svg width="960px" height="540px" viewBox="0 0 960 540" version="1.1" xmlns="http://www.w3.org/2000/svg" xmlns:xlink="http://www.w3.org/1999/xlink">
    <!-- Generator: Sketch 53.2 (72643) - https://sketchapp.com -->
    <title>locatetime</title>
    <desc>Created with Sketch.</desc>
    <g id="locatetime" stroke="none" stroke-width="1" fill="none" fill-rule="evenodd">
        <g id="bw" transform="translate(310.000000, 100.000000)" fill="#1D1D1F">
            <path d="M339.998525,169.630499 L309.841041,156.0482 C306.89167,125.386985 294.063861,97.6161388 274.576182,75.9520174 L280.998568,59.0021692 L264.04872,65.4245553 C242.383861,45.9361388 214.613015,33.1083297 183.952538,30.1589588 L170.368764,0.00147505423 L156.785727,30.1589588 C126.122299,33.1083297 98.3492408,45.9383514 76.6836443,65.4289805 L59.7514967,59.0132321 L66.1672451,75.9461171 C46.6766161,97.6102386 33.8473319,125.38256 30.8964859,156.044512 L0.730889371,169.631974 L30.8964859,183.218698 C33.8473319,213.882126 46.6780911,241.655184 66.1709328,263.320043 L59.7507592,280.263254 L76.6954447,273.84308 C98.3573536,293.327809 126.125249,306.153406 156.782039,309.103514 L170.369501,339.268373 L183.955488,309.103514 C214.61154,306.153406 242.379436,293.328547 264.042082,273.843818 L281.000043,280.269892 L274.574707,263.311931 C294.063861,241.647072 306.89167,213.875488 309.841041,183.215011 L339.998525,169.630499 L339.998525,169.630499 Z M170.391627,295.010846 C101.159957,295.010846 45.0348807,238.876182 45.0348807,169.631236 C45.0348807,100.386291 101.159957,44.2516269 170.391627,44.2516269 C239.62256,44.2516269 295.747636,100.386291 295.747636,169.631236 C295.747636,238.876182 239.62256,295.010846 170.391627,295.010846 L170.391627,295.010846 Z" id="Mask"></path>
            <path d="M170.368026,63.7872451 C165.777657,63.7872451 161.71757,166.566074 161.737484,168.6518 C161.58039,170.983861 162.383557,171.730976 162.383557,171.730976 C162.383557,171.730976 217.691453,234.285813 219.950499,232.027505 C222.910195,229.067072 187.693275,179.563514 179.338568,167.653189 C178.681432,150.889935 174.648633,63.7872451 170.368026,63.7872451" id="Fill-4"></path>
        </g>
    </g>
</svg>