<?xml version="1.0" encoding="UTF-8"?>
<svg width="960px" height="540px" viewBox="0 0 960 540" version="1.1" xmlns="http://www.w3.org/2000/svg" xmlns:xlink="http://www.w3.org/1999/xlink">
    <!-- Generator: Sketch 53.2 (72643) - https://sketchapp.com -->
    <title>lonnie</title>
    <desc>Created with Sketch.</desc>
    <g id="lonnie" stroke="none" stroke-width="1" fill="none" fill-rule="evenodd">
        <g id="bw" transform="translate(100.000000, 159.000000)" fill="#1D1D1F" fill-rule="nonzero">
            <path d="M99.9382833,78.9199584 L84.2530385,131.874597 L82.6668901,131.522739 C82.6668901,128.004141 79.847099,126.244868 74.2074322,126.244868 L45.1280458,126.244868 C43.1306638,126.244868 40.1052629,126.215547 36.0517524,126.156904 C31.9982419,126.09826 29.0903323,126.068939 27.3279365,126.068939 C25.4480475,126.068939 22.4813923,126.09826 18.4278818,126.156904 C14.3743713,126.215547 11.3489704,126.244868 9.35158846,126.244868 L0.0109370446,126.244868 L0.0109370446,124.309649 L0.892130574,124.309649 C4.1819362,124.309649 6.76674471,122.90223 8.64663363,120.087352 C10.5265226,117.272473 11.4664529,113.519358 11.4664529,108.827894 L11.4664529,23.6782422 C11.4664529,19.1040645 10.5265226,15.4095918 8.64663363,12.5947132 C6.76674471,9.77983461 4.1819362,8.37241642 0.892130574,8.37241642 L0.0109370446,8.37241642 L0.0109370446,6.43719707 L9.35158846,6.43719707 C11.3489704,6.43719707 14.3743713,6.5251607 18.4278818,6.70109062 C22.4813923,6.87702053 25.4480475,6.96498416 27.3279365,6.96498416 C29.0903323,6.96498416 31.9982419,6.87702053 36.0517524,6.70109062 C40.1052629,6.5251607 43.1306638,6.43719707 45.1280458,6.43719707 L54.4686972,6.43719707 L54.4686972,8.37241642 L53.5875036,8.37241642 C50.297698,8.37241642 47.7128895,9.77983461 45.8330006,12.5947132 C43.9531117,15.4095918 43.0131813,19.1040645 43.0131813,23.6782422 L43.0131813,123.957791 L55.173652,123.957791 C60.9308118,123.957791 65.3954811,122.550372 68.5677936,119.735494 C70.3301895,118.093481 72.5625241,115.425251 75.2648645,111.730723 C77.9672048,108.036195 81.932536,102.377201 87.1609771,94.7535713 C92.3894182,87.1299417 96.1785125,81.6175539 98.5283737,78.2162422 L99.9382833,78.9199584 Z M175.968187,121.142926 C179.257993,124.309665 183.193951,125.89301 187.77618,125.89301 C192.35841,125.89301 196.294368,124.280343 199.584174,121.054962 C202.873979,117.82958 205.400042,113.314113 207.162438,107.508426 C208.924834,101.702739 210.217238,95.4279996 211.03969,88.6840196 C211.862141,81.9400397 212.273361,74.4631306 212.273361,66.253068 C212.273361,26.6101946 204.107715,6.78905513 187.77618,6.78905513 C183.193951,6.78905513 179.287366,8.4017218 176.056306,11.6271035 C172.825247,14.8524852 170.328557,19.3386307 168.566161,25.0856745 C166.803766,30.8327183 165.511361,37.0781365 164.68891,43.8221164 C163.866459,50.5660964 163.455239,58.0430055 163.455239,66.253068 C163.455239,74.4631306 163.866459,81.9400397 164.68891,88.6840196 C165.511361,95.4279996 166.803766,101.702739 168.566161,107.508426 C170.328557,113.314113 172.795875,117.858901 175.968187,121.142926 Z M187.77618,128.004158 C177.906764,128.004158 168.566206,125.62914 159.754226,120.879033 C150.942247,116.128925 143.628414,108.945228 137.812507,99.3277261 C131.996601,89.7102242 129.088691,78.6854485 129.088691,66.253068 C129.088691,47.721784 134.992629,32.8266082 146.800681,21.5670938 C158.608734,10.3075795 172.267097,4.67790674 187.77618,4.67790674 C195.178243,4.67790674 202.345212,6.08532493 209.277303,8.90020352 C216.209393,11.7150821 222.465804,15.6734458 228.046725,20.7754132 C233.627645,25.8773806 238.092314,32.3866897 241.440866,40.3035358 C244.789419,48.2203818 246.463669,56.8701394 246.463669,66.253068 C246.463669,84.7843521 240.559732,99.7088491 228.75168,111.027007 C216.943627,122.345164 203.285264,128.004158 187.77618,128.004158 Z M391.579146,126.244868 C388.876806,126.244868 385.293321,126.215547 380.828585,126.156904 C376.363849,126.09826 373.77904,126.068939 373.074082,126.068939 C371.194193,126.068939 368.198165,126.09826 364.085908,126.156904 C359.973651,126.215547 356.860132,126.244868 354.745256,126.244868 L292.532993,27.3727519 L292.532993,99.8555132 C292.532993,105.48527 294.412854,110.968337 298.172632,116.304878 C301.93241,121.641418 305.985859,124.309649 310.333103,124.309649 L311.038057,124.309649 L311.038057,126.244868 L309.27567,126.244868 C307.278288,126.244868 304.252888,126.156904 300.199377,125.980974 C296.145867,125.805045 293.179211,125.717081 291.299322,125.717081 C289.419433,125.717081 286.452778,125.805045 282.399268,125.980974 C278.345757,126.156904 275.320356,126.244868 273.322974,126.244868 L271.560587,126.244868 L271.560587,124.309649 L272.265542,124.309649 C276.612785,124.309649 280.695608,121.641418 284.514132,116.304878 C288.332657,110.968337 290.24189,105.48527 290.24189,99.8555132 L290.24189,23.8541713 C287.069578,17.8725543 284.367278,13.7969058 282.13491,11.6271035 C279.902542,9.45730127 277.258987,8.37241642 274.204168,8.37241642 L272.61802,8.37241642 L272.61802,6.43719707 L280.372523,6.43719707 C282.369905,6.43719707 285.395305,6.49583949 289.448816,6.6131261 C293.502326,6.73041271 296.821456,6.78905513 299.406303,6.78905513 C302.578615,6.78905513 305.662762,6.73041271 308.658835,6.6131261 C311.654908,6.49583949 314.034107,6.43719707 315.796502,6.43719707 L376.775095,101.438874 L376.775095,32.8265519 C376.775095,27.1967947 374.865861,21.7137281 371.047337,16.3771874 C367.228812,11.0406467 363.14599,8.37241642 358.798747,8.37241642 L358.093792,8.37241642 L358.093792,6.43719707 L359.856179,6.43719707 C361.853561,6.43719707 364.878962,6.5251607 368.932472,6.70109062 C372.985983,6.87702053 375.952638,6.96498416 377.832527,6.96498416 C379.712416,6.96498416 382.679071,6.87702053 386.732582,6.70109062 C390.786092,6.5251607 393.811493,6.43719707 395.808875,6.43719707 L397.571262,6.43719707 L397.571262,8.37241642 L396.866307,8.37241642 C392.519064,8.37241642 388.465614,11.0406467 384.705836,16.3771874 C380.946059,21.7137281 379.066198,27.1967947 379.066198,32.8265519 L379.066198,105.133384 L391.579146,126.244868 Z M538.985726,126.244868 C536.283385,126.244868 532.699901,126.215547 528.235165,126.156904 C523.770428,126.09826 521.18562,126.068939 520.480662,126.068939 C518.600773,126.068939 515.604745,126.09826 511.492488,126.156904 C507.380231,126.215547 504.266711,126.244868 502.151836,126.244868 L439.939573,27.3727519 L439.939573,99.8555132 C439.939573,105.48527 441.819434,110.968337 445.579212,116.304878 C449.338989,121.641418 453.392439,124.309649 457.739682,124.309649 L458.444637,124.309649 L458.444637,126.244868 L456.68225,126.244868 C454.684868,126.244868 451.659467,126.156904 447.605957,125.980974 C443.552446,125.805045 440.585791,125.717081 438.705902,125.717081 C436.826013,125.717081 433.859358,125.805045 429.805847,125.980974 C425.752337,126.156904 422.726936,126.244868 420.729554,126.244868 L418.967167,126.244868 L418.967167,124.309649 L419.672122,124.309649 C424.019365,124.309649 428.102188,121.641418 431.920712,116.304878 C435.739236,110.968337 437.64847,105.48527 437.64847,99.8555132 L437.64847,23.8541713 C434.476157,17.8725543 431.773857,13.7969058 429.541489,11.6271035 C427.309121,9.45730127 424.665567,8.37241642 421.610748,8.37241642 L420.024599,8.37241642 L420.024599,6.43719707 L427.779102,6.43719707 C429.776484,6.43719707 432.801885,6.49583949 436.855396,6.6131261 C440.908906,6.73041271 444.228035,6.78905513 446.812883,6.78905513 C449.985195,6.78905513 453.069342,6.73041271 456.065415,6.6131261 C459.061488,6.49583949 461.440686,6.43719707 463.203082,6.43719707 L524.181674,101.438874 L524.181674,32.8265519 C524.181674,27.1967947 522.272441,21.7137281 518.453916,16.3771874 C514.635392,11.0406467 510.55257,8.37241642 506.205326,8.37241642 L505.500372,8.37241642 L505.500372,6.43719707 L507.262759,6.43719707 C509.260141,6.43719707 512.285542,6.5251607 516.339052,6.70109062 C520.392563,6.87702053 523.359218,6.96498416 525.239107,6.96498416 C527.118996,6.96498416 530.085651,6.87702053 534.139161,6.70109062 C538.192672,6.5251607 541.218073,6.43719707 543.215455,6.43719707 L544.977842,6.43719707 L544.977842,8.37241642 L544.272887,8.37241642 C539.925644,8.37241642 535.872194,11.0406467 532.112416,16.3771874 C528.352638,21.7137281 526.472778,27.1967947 526.472778,32.8265519 L526.472778,105.133384 L538.985726,126.244868 Z M613.077004,108.827894 C613.077004,113.519358 614.016934,117.272473 615.896823,120.087352 C617.776712,122.90223 620.361521,124.309649 623.651326,124.309649 L624.53252,124.309649 L624.53252,126.244868 L615.191868,126.244868 C613.194486,126.244868 610.169085,126.156904 606.115575,125.980974 C602.062064,125.805045 599.095409,125.717081 597.21552,125.717081 C595.453124,125.717081 592.545215,125.805045 588.491704,125.980974 C584.438194,126.156904 581.412793,126.244868 579.415411,126.244868 L570.07476,126.244868 L570.07476,124.309649 L570.955953,124.309649 C574.245759,124.309649 576.830567,122.90223 578.710456,120.087352 C580.590345,117.272473 581.530275,113.519358 581.530275,108.827894 L581.530275,23.6782422 C581.530275,19.1040645 580.590345,15.4095918 578.710456,12.5947132 C576.830567,9.77983461 574.245759,8.37241642 570.955953,8.37241642 L570.07476,8.37241642 L570.07476,6.43719707 L579.415411,6.43719707 C581.412793,6.43719707 584.438194,6.5251607 588.491704,6.70109062 C592.545215,6.87702053 595.453124,6.96498416 597.21552,6.96498416 C599.095409,6.96498416 602.062064,6.87702053 606.115575,6.70109062 C610.169085,6.5251607 613.194486,6.43719707 615.191868,6.43719707 L624.53252,6.43719707 L624.53252,8.37241642 L623.651326,8.37241642 C620.361521,8.37241642 617.776712,9.77983461 615.896823,12.5947132 C614.016934,15.4095918 613.077004,19.1040645 613.077004,23.6782422 L613.077004,108.827894 Z M743.564668,131.874597 L741.978519,131.522739 C741.978519,128.004141 739.158728,126.244868 733.519061,126.244868 L698.800036,126.244868 C696.802654,126.244868 693.777254,126.215547 689.723743,126.156904 C685.670233,126.09826 682.762323,126.068939 680.999927,126.068939 C679.120038,126.068939 676.153383,126.09826 672.099872,126.156904 C668.046362,126.215547 665.020961,126.244868 663.023579,126.244868 L653.682928,126.244868 L653.682928,124.309649 L654.564121,124.309649 C657.853927,124.309649 660.438735,122.90223 662.318624,120.087352 C664.198513,117.272473 665.138444,113.519358 665.138444,108.827894 L665.138444,23.6782422 C665.138444,19.1040645 664.198513,15.4095918 662.318624,12.5947132 C660.438735,9.77983461 657.853927,8.37241642 654.564121,8.37241642 L653.682928,8.37241642 L653.682928,6.43719707 L663.023579,6.43719707 C665.020961,6.43719707 668.046362,6.46651828 672.099872,6.52516158 C676.153383,6.58380489 679.120038,6.6131261 680.999927,6.6131261 C682.762323,6.6131261 686.522044,6.58380489 692.279204,6.52516158 C698.036364,6.46651828 701.913577,6.43719707 703.910959,6.43719707 L732.990345,6.43719707 C738.747505,6.43719707 741.626042,4.67792434 741.626042,1.1593261 L743.21219,0.807468035 L755.725138,46.5490164 L754.315229,47.2527326 C739.74609,27.3140092 730.816751,15.820094 727.526945,12.7706422 C725.41207,10.8940565 723.385346,9.75052923 721.44671,9.3400261 C719.508075,8.92952297 716.482674,8.72427449 712.370417,8.72427449 L696.685172,8.72427449 L696.685172,64.4937777 L709.726836,64.4937777 C720.888677,64.4937777 727.644426,55.9906262 729.994287,38.984068 L731.756674,38.984068 L731.756674,92.8183519 L729.994287,92.8183519 C728.819357,84.8428626 726.733886,78.5094807 723.737813,73.8180164 C720.74174,69.1265521 716.071461,66.7808551 709.726836,66.7808551 L696.685172,66.7808551 L696.685172,123.957791 L712.722894,123.957791 C716.835151,123.957791 719.860552,123.752542 721.799188,123.342039 C723.737823,122.931536 725.764548,121.788009 727.879423,119.911423 C732.109173,115.923678 742.095933,103.198272 757.840003,81.7348229 L759.249913,82.438539 L743.564668,131.874597 Z" id="LONNIE"></path>
            <path d="M185.563991,215.669333 L185.658686,215.669333 L185.658686,187.310623 L189.067722,187.310623 L189.067722,220.7739 L184.806427,220.7739 L164.825693,192.131604 L164.730998,192.131604 L164.730998,220.7739 L161.321962,220.7739 L161.321962,187.310623 L165.583256,187.310623 L185.563991,215.669333 Z M208.932717,217.654442 L226.8775,217.654442 L226.8775,220.7739 L205.523682,220.7739 L205.523682,187.310623 L226.309327,187.310623 L226.309327,190.430081 L208.932717,190.430081 L208.932717,201.820829 L225.172982,201.820829 L225.172982,204.940287 L208.932717,204.940287 L208.932717,217.654442 Z M248.257622,215.95292 L248.352318,215.95292 L256.78021,187.310623 L260.852114,187.310623 L269.280006,215.95292 L269.374702,215.95292 L277.329117,187.310623 L281.116934,187.310623 L271.221263,220.7739 L267.244055,220.7739 L258.816162,192.131604 L258.721467,192.131604 L250.293574,220.7739 L246.316366,220.7739 L236.420694,187.310623 L240.208511,187.310623 L248.257622,215.95292 Z M324.303308,220.7739 L320.894273,220.7739 L320.894273,206.358223 L308.347129,187.310623 L312.608423,187.310623 L322.598791,203.096971 L332.589158,187.310623 L336.850452,187.310623 L324.303308,206.358223 L324.303308,220.7739 Z M377.074964,204.042262 C377.074964,202.120162 376.759315,200.284741 376.128009,198.535945 C375.496703,196.78715 374.589215,195.251068 373.405516,193.927655 C372.221817,192.604242 370.777727,191.548678 369.0732,190.760933 C367.368674,189.973187 365.44322,189.57932 363.296779,189.57932 C361.150339,189.57932 359.224885,189.973187 357.520359,190.760933 C355.815832,191.548678 354.371742,192.604242 353.188043,193.927655 C352.004344,195.251068 351.096856,196.78715 350.46555,198.535945 C349.834244,200.284741 349.518595,202.120162 349.518595,204.042262 C349.518595,205.964362 349.834244,207.799782 350.46555,209.548578 C351.096856,211.297374 352.004344,212.833455 353.188043,214.156868 C354.371742,215.480281 355.815832,216.535845 357.520359,217.323591 C359.224885,218.111336 361.150339,218.505204 363.296779,218.505204 C365.44322,218.505204 367.368674,218.111336 369.0732,217.323591 C370.777727,216.535845 372.221817,215.480281 373.405516,214.156868 C374.589215,212.833455 375.496703,211.297374 376.128009,209.548578 C376.759315,207.799782 377.074964,205.964362 377.074964,204.042262 Z M380.768085,204.042262 C380.768085,206.594558 380.326178,208.942006 379.442349,211.084674 C378.558521,213.227343 377.335384,215.078518 375.772902,216.638255 C374.210419,218.197992 372.363877,219.41898 370.233219,220.301255 C368.102562,221.183531 365.790438,221.624662 363.296779,221.624662 C360.803121,221.624662 358.490997,221.183531 356.36034,220.301255 C354.229682,219.41898 352.38314,218.197992 350.820657,216.638255 C349.258175,215.078518 348.035038,213.227343 347.15121,211.084674 C346.267381,208.942006 345.825474,206.594558 345.825474,204.042262 C345.825474,201.489965 346.267381,199.142517 347.15121,196.999849 C348.035038,194.85718 349.258175,193.006005 350.820657,191.446268 C352.38314,189.886531 354.229682,188.665543 356.36034,187.783268 C358.490997,186.900993 360.803121,186.459862 363.296779,186.459862 C365.790438,186.459862 368.102562,186.900993 370.233219,187.783268 C372.363877,188.665543 374.210419,189.886531 375.772902,191.446268 C377.335384,193.006005 378.558521,194.85718 379.442349,196.999849 C380.326178,199.142517 380.768085,201.489965 380.768085,204.042262 Z M398.360391,202.104416 L404.420898,202.104416 C405.936032,202.104416 407.222299,201.94687 408.279736,201.631771 C409.337174,201.316673 410.181533,200.899174 410.812839,200.379262 C411.444145,199.859349 411.901835,199.244917 412.185922,198.535945 C412.47001,197.826974 412.612052,197.062872 412.612052,196.243616 C412.612052,195.455871 412.47001,194.707523 412.185922,193.998552 C411.901835,193.289581 411.444145,192.667271 410.812839,192.131604 C410.181533,191.595936 409.337174,191.178437 408.279736,190.879094 C407.222299,190.57975 405.936032,190.430081 404.420898,190.430081 L398.360391,190.430081 L398.360391,202.104416 Z M398.360391,220.7739 L394.951355,220.7739 L394.951355,187.310623 L405.273157,187.310623 C408.682209,187.310623 411.37311,188.051093 413.345941,189.532055 C415.318773,191.013017 416.305173,193.250182 416.305173,196.243616 C416.305173,198.575344 415.571291,200.536802 414.103505,202.128049 C412.635718,203.719295 410.512984,204.640944 407.735238,204.893023 L417.394171,220.7739 L413.227572,220.7739 L404.042116,205.223874 L398.360391,205.223874 L398.360391,220.7739 Z M433.802783,201.820829 L434.27626,201.820829 L450.043049,187.310623 L454.919863,187.310623 L438.01673,202.482533 L455.866817,220.7739 L450.84796,220.7739 L434.370956,203.522352 L433.802783,203.522352 L433.802783,220.7739 L430.393748,220.7739 L430.393748,187.310623 L433.802783,187.310623 L433.802783,201.820829 Z M515.719586,215.480274 C515.15141,216.33104 514.449093,217.134529 513.612613,217.890765 C512.776132,218.647001 511.821296,219.30082 510.748076,219.852242 C509.674856,220.403664 508.514848,220.836918 507.268019,221.152016 C506.02119,221.467115 504.703358,221.624662 503.314485,221.624662 C500.820827,221.624662 498.508703,221.183531 496.378045,220.301255 C494.247388,219.41898 492.400845,218.197992 490.838363,216.638255 C489.275881,215.078518 488.052744,213.227343 487.168915,211.084674 C486.285087,208.942006 485.843179,206.594558 485.843179,204.042262 C485.843179,201.489965 486.285087,199.142517 487.168915,196.999849 C488.052744,194.85718 489.275881,193.006005 490.838363,191.446268 C492.400845,189.886531 494.247388,188.665543 496.378045,187.783268 C498.508703,186.900993 500.820827,186.459862 503.314485,186.459862 C505.397795,186.459862 507.481073,186.869483 509.564383,187.688739 C511.647693,188.507995 513.431106,189.862897 514.914675,191.753487 L511.931769,193.97492 C511.58455,193.439252 511.111078,192.903593 510.511337,192.367926 C509.911597,191.832259 509.225062,191.359618 508.451712,190.949991 C507.678362,190.540363 506.849785,190.209514 505.965957,189.957436 C505.082129,189.705357 504.198314,189.57932 503.314485,189.57932 C501.168045,189.57932 499.24259,189.973187 497.538064,190.760933 C495.833538,191.548678 494.389447,192.604242 493.205749,193.927655 C492.02205,195.251068 491.114561,196.78715 490.483255,198.535945 C489.851949,200.284741 489.536301,202.120162 489.536301,204.042262 C489.536301,205.964362 489.851949,207.799782 490.483255,209.548578 C491.114561,211.297374 492.02205,212.833455 493.205749,214.156868 C494.389447,215.480281 495.833538,216.535845 497.538064,217.323591 C499.24259,218.111336 501.168045,218.505204 503.314485,218.505204 C504.198314,218.505204 505.074237,218.42643 505.942283,218.268881 C506.810329,218.111332 507.662579,217.843502 508.49906,217.465384 C509.33554,217.087266 510.124661,216.575239 510.866445,215.929287 C511.60823,215.283336 512.294765,214.47197 512.926071,213.495165 L515.719586,215.480274 Z M532.222894,220.7739 L528.813858,220.7739 L528.813858,187.310623 L532.222894,187.310623 L532.222894,220.7739 Z M559.426785,220.7739 L556.017749,220.7739 L556.017749,190.430081 L544.796342,190.430081 L544.796342,187.310623 L570.648192,187.310623 L570.648192,190.430081 L559.426785,190.430081 L559.426785,220.7739 Z M593.969571,220.7739 L590.560536,220.7739 L590.560536,206.358223 L578.013392,187.310623 L582.274686,187.310623 L592.265053,203.096971 L602.25542,187.310623 L606.516714,187.310623 L593.969571,206.358223 L593.969571,220.7739 Z" id="NEWYORKCITY"></path>
        </g>
    </g>
</svg>