<?xml version="1.0" encoding="UTF-8"?>
<svg width="960px" height="540px" viewBox="0 0 960 540" version="1.1" xmlns="http://www.w3.org/2000/svg" xmlns:xlink="http://www.w3.org/1999/xlink">
    <!-- Generator: Sketch 53.2 (72643) - https://sketchapp.com -->
    <title>quinnsvoice</title>
    <desc>Created with Sketch.</desc>
    <g id="quinnsvoice" stroke="none" stroke-width="1" fill="none" fill-rule="evenodd">
        <path d="M611.797466,376.818125 L645.829765,410.7436 C651.393562,416.289933 651.387891,425.287969 645.825869,430.832532 L640.803019,435.839616 C635.23707,441.388093 626.208979,441.384202 620.650831,435.843499 L586.641163,401.940586 C557.466297,425.556543 520.311166,439.702639 479.852024,439.702639 C386.045342,439.702639 310,363.657613 310,269.85132 C310,176.045026 386.045342,100 479.852024,100 C573.658707,100 649.704049,176.045026 649.704049,269.85132 C649.704049,310.392673 635.500229,347.61656 611.797466,376.818125 Z M479.852024,403.543815 C553.688657,403.543815 613.545074,343.687646 613.545074,269.85132 C613.545074,196.014993 553.688657,136.158824 479.852024,136.158824 C406.015392,136.158824 346.158974,196.014993 346.158974,269.85132 C346.158974,343.687646 406.015392,403.543815 479.852024,403.543815 Z" id="bw" fill="#1D1D1F"></path>
    </g>
</svg>