<?xml version="1.0" encoding="UTF-8"?>
<svg width="960px" height="540px" viewBox="0 0 960 540" version="1.1" xmlns="http://www.w3.org/2000/svg" xmlns:xlink="http://www.w3.org/1999/xlink">
    <!-- Generator: Sketch 53.2 (72643) - https://sketchapp.com -->
    <title>rfclub</title>
    <desc>Created with Sketch.</desc>
    <g id="rfclub" stroke="none" stroke-width="1" fill="none" fill-rule="evenodd">
        <g id="bw" transform="translate(310.109203, 122.272236)" fill="#1D1D1F" fill-rule="nonzero">
            <path d="M169.890797,262.727764 C106.378051,262.727764 54.8907975,211.24051 54.8907975,147.727764 C54.8907975,84.2150179 106.378051,32.7277641 169.890797,32.7277641 C233.403544,32.7277641 284.890797,84.2150179 284.890797,147.727764 C284.890797,211.24051 233.403544,262.727764 169.890797,262.727764 Z M169.890797,250.727764 C226.776127,250.727764 272.890797,204.613093 272.890797,147.727764 C272.890797,90.8424349 226.776127,44.7277641 169.890797,44.7277641 C113.005468,44.7277641 66.8907975,90.8424349 66.8907975,147.727764 C66.8907975,204.613093 113.005468,250.727764 169.890797,250.727764 Z" id="Combined-Shape"></path>
            <path d="M47.6488331,168.652408 C52.7113781,198.441697 68.3984559,224.612733 90.6743975,243.12985 L1.5845103e-12,295.478185 L2.48689958e-13,196.160605 L47.6488331,168.652408 Z M249.123234,52.3390149 L339.783228,-5.1159077e-13 L340,99.1886542 L292.13591,126.821653 C287.077937,97.031836 271.395287,70.8591973 249.123234,52.3390115 Z" id="Combined-Shape"></path>
            <path d="M159.890797,130.727764 L99.8907975,130.727764 L99.8907975,110.727764 L159.890797,110.727764 L159.890797,62.7277641 L179.890797,62.7277641 L179.890797,110.727764 L239.890797,110.727764 L239.890797,130.727764 L179.890797,130.727764 L179.890797,164.727764 L239.890797,164.727764 L239.890797,184.727764 L179.890797,184.727764 L179.890797,232.727764 L159.890797,232.727764 L159.890797,184.727764 L99.8907975,184.727764 L99.8907975,164.727764 L159.890797,164.727764 L159.890797,130.727764 Z" id="Combined-Shape"></path>
        </g>
    </g>
</svg>