<?xml version="1.0" encoding="UTF-8"?>
<svg width="960px" height="540px" viewBox="0 0 960 540" version="1.1" xmlns="http://www.w3.org/2000/svg" xmlns:xlink="http://www.w3.org/1999/xlink">
    <!-- Generator: Sketch 53.2 (72643) - https://sketchapp.com -->
    <title>statuschart</title>
    <desc>Created with Sketch.</desc>
    <g id="statuschart" stroke="none" stroke-width="1" fill="none" fill-rule="evenodd">
        <g id="bw" transform="translate(310.000000, 100.000000)" fill="#252429">
            <polygon id="Fill-1" points="100.866667 249.9 240.266667 249.9 240.266667 273.133333 100.866667 273.133333"></polygon>
            <polygon id="Fill-2" points="77.6333333 203.433333 263.5 203.433333 263.5 227.233333 77.6333333 227.233333"></polygon>
            <polygon id="Fill-3" points="54.9666667 157.533333 286.166667 157.533333 286.166667 181.333333 54.9666667 181.333333"></polygon>
            <polygon id="Fill-4" points="77.6333333 111.633333 263.5 111.633333 263.5 135.433333 77.6333333 135.433333"></polygon>
            <polygon id="Fill-5" points="100.866667 65.7333333 240.266667 65.7333333 240.266667 88.9666667 100.866667 88.9666667"></polygon>
            <path d="M170,0 C76.1112667,0 0,76.1118333 0,170 C0,263.888167 76.1112667,340 170,340 C263.888167,340 340,263.888167 340,170 C340,76.1118333 263.888167,0 170,0 L170,0 Z M276.985533,276.985533 C263.084633,290.886433 246.901767,301.798167 228.886867,309.417567 C210.2458,317.302167 190.434,321.3 170,321.3 C149.566,321.3 129.753633,317.302167 111.112567,309.417567 C93.0982333,301.798167 76.9159333,290.886433 63.0150333,276.985533 C49.1135667,263.084633 38.2018333,246.901767 30.5824333,228.886867 C22.6978333,210.2458 18.7,190.434 18.7,170 C18.7,149.566 22.6978333,129.753633 30.5824333,111.112567 C38.2018333,93.0988 49.1135667,76.9159333 63.0150333,63.0150333 C76.9159333,49.1135667 93.0982333,38.2018333 111.112567,30.5824333 C129.753633,22.6978333 149.566,18.7 170,18.7 C190.434,18.7 210.2458,22.6978333 228.886867,30.5824333 C246.901767,38.2018333 263.084633,49.1135667 276.985533,63.0150333 C290.886433,76.9159333 301.798167,93.0988 309.417567,111.112567 C317.302167,129.753633 321.3,149.566 321.3,170 C321.3,190.434 317.302167,210.2458 309.417567,228.886867 C301.798167,246.901767 290.886433,263.084633 276.985533,276.985533 L276.985533,276.985533 Z" id="Fill-6"></path>
        </g>
    </g>
</svg>