<?xml version="1.0" encoding="UTF-8"?>
<svg width="960px" height="540px" viewBox="0 0 960 540" version="1.1" xmlns="http://www.w3.org/2000/svg" xmlns:xlink="http://www.w3.org/1999/xlink">
    <!-- Generator: Sketch 53.2 (72643) - https://sketchapp.com -->
    <title>stonedrepublic</title>
    <desc>Created with Sketch.</desc>
    <g id="stonedrepublic" stroke="none" stroke-width="1" fill="none" fill-rule="evenodd">
        <g id="bw" transform="translate(100.000000, 224.000000)" fill="#1D1D1F" fill-rule="nonzero">
            <path d="M0.733313533,70.2955102 C0.0561820435,69.6163422 -0.320002117,69.2390267 0.357129372,68.031617 L3.06565533,63.3529042 C3.66754999,62.2964207 4.94657613,62.2964207 5.62370762,62.8246625 C5.99989178,63.0510518 12.0940752,67.5033752 16.9844693,67.5033752 C20.8967845,67.5033752 23.831021,64.9376295 23.831021,61.6927159 C23.831021,57.8440973 20.5958372,55.2028885 14.2759433,52.6371429 C7.2036811,49.7695447 0.131418876,45.2417582 0.131418876,36.3371115 C0.131418876,29.6208948 5.0970498,21.8481947 17.0597061,21.8481947 C24.733863,21.8481947 30.6023359,25.7722763 32.1070725,26.9042229 C32.8594409,27.3570016 33.0851514,28.6398744 32.5584935,29.3945055 L29.6994939,33.6959027 C29.0975992,34.60146 27.9690468,35.2051648 27.0662048,34.60146 C26.4643101,34.2241444 20.7463109,30.450989 16.6082851,30.450989 C12.3197857,30.450989 9.98744389,33.3185871 9.98744389,35.7334066 C9.98744389,39.2801727 12.7712067,41.6949922 18.8653901,44.1852747 C26.1633628,47.1283359 34.589888,51.5051962 34.589888,61.2399372 C34.589888,69.0126374 27.8938099,76.1816327 17.2854166,76.1816327 C7.80557575,76.1816327 2.23805018,71.7293093 0.733313533,70.2955102 Z M51.2924647,73.9932025 L51.2924647,31.6583987 L39.7812294,31.6583987 C38.9536243,31.6583987 38.3517296,30.9792308 38.3517296,30.2245997 L38.3517296,24.0366248 C38.3517296,23.2819937 38.9536243,22.6028257 39.7812294,22.6028257 L72.6597251,22.6028257 C73.4873302,22.6028257 74.0892249,23.2819937 74.0892249,24.0366248 L74.0892249,30.2245997 C74.0892249,30.9792308 73.4873302,31.6583987 72.6597251,31.6583987 L61.1484897,31.6583987 L61.1484897,73.9932025 C61.1484897,74.7478336 60.4713582,75.4270016 59.7189899,75.4270016 L52.7219645,75.4270016 C51.9695962,75.4270016 51.2924647,74.7478336 51.2924647,73.9932025 Z M78.1520138,49.0903768 C78.1520138,33.9977551 90.1146701,21.8481947 105.162037,21.8481947 C120.209403,21.8481947 132.247296,33.9977551 132.247296,49.0903768 C132.247296,64.1829984 120.209403,76.1816327 105.162037,76.1816327 C90.1146701,76.1816327 78.1520138,64.1829984 78.1520138,49.0903768 Z M87.932802,49.0903768 C87.932802,58.5987284 95.6821957,66.3714286 105.162037,66.3714286 C114.641877,66.3714286 122.466508,58.5987284 122.466508,49.0903768 C122.466508,39.5820251 114.641877,31.6583987 105.162037,31.6583987 C95.6821957,31.6583987 87.932802,39.5820251 87.932802,49.0903768 Z M142.103321,73.9932025 L142.103321,23.2065306 C142.103321,22.4518995 142.780453,21.8481947 143.532821,21.8481947 L145.413742,21.8481947 L176.712264,55.2028885 L176.787501,55.2028885 L176.787501,24.0366248 C176.787501,23.2819937 177.389395,22.6028257 178.217001,22.6028257 L185.138789,22.6028257 C185.891157,22.6028257 186.568289,23.2819937 186.568289,24.0366248 L186.568289,74.8232967 C186.568289,75.5779278 185.891157,76.1816327 185.138789,76.1816327 L183.333105,76.1816327 L151.884109,41.5440659 L151.808872,41.5440659 L151.808872,73.9932025 C151.808872,74.7478336 151.206978,75.4270016 150.379373,75.4270016 L143.532821,75.4270016 C142.780453,75.4270016 142.103321,74.7478336 142.103321,73.9932025 Z M200.261392,73.9932025 L200.261392,24.0366248 C200.261392,23.2819937 200.863287,22.6028257 201.690892,22.6028257 L232.312283,22.6028257 C233.139888,22.6028257 233.741783,23.2819937 233.741783,24.0366248 L233.741783,30.2245997 C233.741783,30.9792308 233.139888,31.6583987 232.312283,31.6583987 L210.042181,31.6583987 L210.042181,44.0343485 L228.625678,44.0343485 C229.378046,44.0343485 230.055178,44.7135165 230.055178,45.4681476 L230.055178,51.7315856 C230.055178,52.5616797 229.378046,53.1653846 228.625678,53.1653846 L210.042181,53.1653846 L210.042181,66.3714286 L232.312283,66.3714286 C233.139888,66.3714286 233.741783,67.0505965 233.741783,67.8052276 L233.741783,73.9932025 C233.741783,74.7478336 233.139888,75.4270016 232.312283,75.4270016 L201.690892,75.4270016 C200.863287,75.4270016 200.261392,74.7478336 200.261392,73.9932025 Z M244.50065,73.9932025 L244.50065,24.0366248 C244.50065,23.2819937 245.102544,22.6028257 245.854913,22.6028257 L263.686042,22.6028257 C278.20675,22.6028257 290.09417,34.4505338 290.09417,48.9394505 C290.09417,63.5792936 278.20675,75.4270016 263.686042,75.4270016 L245.854913,75.4270016 C245.102544,75.4270016 244.50065,74.7478336 244.50065,73.9932025 Z M254.206201,66.2205024 L262.7832,66.2205024 C272.563988,66.2205024 279.711487,58.8251177 279.711487,48.9394505 C279.711487,39.1292465 272.563988,31.7338619 262.7832,31.7338619 L254.206201,31.7338619 L254.206201,66.2205024 Z M416.416811,73.9932025 L416.416811,24.0366248 C416.416811,23.2819937 417.018706,22.6028257 417.846311,22.6028257 L439.364045,22.6028257 C448.392465,22.6028257 455.765674,29.8472841 455.765674,38.827394 C455.765674,45.77 451.176228,51.4297331 444.630623,54.0709419 L454.938069,73.2385714 C455.464727,74.2195918 454.938069,75.4270016 453.659043,75.4270016 L445.759176,75.4270016 C445.082044,75.4270016 444.70586,75.049686 444.555386,74.7478336 L434.548888,54.7501099 L426.197599,54.7501099 L426.197599,73.9932025 C426.197599,74.7478336 425.520468,75.4270016 424.768099,75.4270016 L417.846311,75.4270016 C417.018706,75.4270016 416.416811,74.7478336 416.416811,73.9932025 Z M426.272836,46.6755573 L438.53644,46.6755573 C442.523992,46.6755573 445.984886,43.2042543 445.984886,38.9783203 C445.984886,34.9787755 442.523992,31.6583987 438.53644,31.6583987 L426.272836,31.6583987 L426.272836,46.6755573 Z M466.524541,73.9932025 L466.524541,24.0366248 C466.524541,23.2819937 467.126436,22.6028257 467.954041,22.6028257 L498.575432,22.6028257 C499.403037,22.6028257 500.004932,23.2819937 500.004932,24.0366248 L500.004932,30.2245997 C500.004932,30.9792308 499.403037,31.6583987 498.575432,31.6583987 L476.305329,31.6583987 L476.305329,44.0343485 L494.888827,44.0343485 C495.641195,44.0343485 496.318327,44.7135165 496.318327,45.4681476 L496.318327,51.7315856 C496.318327,52.5616797 495.641195,53.1653846 494.888827,53.1653846 L476.305329,53.1653846 L476.305329,66.3714286 L498.575432,66.3714286 C499.403037,66.3714286 500.004932,67.0505965 500.004932,67.8052276 L500.004932,73.9932025 C500.004932,74.7478336 499.403037,75.4270016 498.575432,75.4270016 L467.954041,75.4270016 C467.126436,75.4270016 466.524541,74.7478336 466.524541,73.9932025 Z M510.763799,73.9932025 L510.763799,24.0366248 C510.763799,23.2819937 511.365693,22.6028257 512.193298,22.6028257 L529.873954,22.6028257 C539.128084,22.6028257 546.727004,30.1491366 546.727004,39.2801727 C546.727004,48.6375981 539.128084,56.2593721 529.949191,56.2593721 L520.544587,56.2593721 L520.544587,73.9932025 C520.544587,74.7478336 519.867455,75.4270016 519.115087,75.4270016 L512.193298,75.4270016 C511.365693,75.4270016 510.763799,74.7478336 510.763799,73.9932025 Z M520.544587,47.0528728 L529.272059,47.0528728 C533.485322,47.0528728 537.021453,43.657033 537.021453,39.2047096 C537.021453,35.0542386 533.485322,31.8847881 529.272059,31.8847881 L520.544587,31.8847881 L520.544587,47.0528728 Z M554.551635,55.4292779 L554.551635,24.0366248 C554.551635,23.2819937 555.228766,22.6028257 555.981135,22.6028257 L563.128634,22.6028257 C563.956239,22.6028257 564.558134,23.2819937 564.558134,24.0366248 L564.558134,54.9010361 C564.558134,61.3154003 568.92187,66.3714286 575.467474,66.3714286 C582.013079,66.3714286 586.452052,61.3154003 586.452052,54.9764992 L586.452052,24.0366248 C586.452052,23.2819937 587.053946,22.6028257 587.881552,22.6028257 L595.029051,22.6028257 C595.781419,22.6028257 596.45855,23.2819937 596.45855,24.0366248 L596.45855,55.4292779 C596.45855,66.8996703 587.354894,76.1816327 575.467474,76.1816327 C563.655292,76.1816327 554.551635,66.8996703 554.551635,55.4292779 Z M609.399285,73.9932025 L609.399285,24.0366248 C609.399285,23.2819937 610.00118,22.6028257 610.828785,22.6028257 L628.05802,22.6028257 C637.011203,22.6028257 643.932991,28.6398744 643.932991,36.5635008 C643.932991,42.3741601 639.193071,46.9019466 635.65694,48.562135 C639.644492,49.8450078 645.437728,53.9200157 645.437728,60.8626217 C645.437728,69.3144898 638.214992,75.4270016 629.036099,75.4270016 L610.828785,75.4270016 C610.00118,75.4270016 609.399285,74.7478336 609.399285,73.9932025 Z M619.104837,44.7889796 L627.155178,44.7889796 C630.992256,44.7889796 633.625545,41.7704553 633.625545,37.9972998 C633.625545,34.2241444 630.992256,31.5829356 627.155178,31.5829356 L619.104837,31.5829356 L619.104837,44.7889796 Z M619.104837,66.5223548 L628.208494,66.5223548 C631.970335,66.5223548 634.979808,63.5792936 634.979808,59.6552119 C634.979808,55.8820565 631.217967,53.0899215 627.305652,53.0899215 L619.104837,53.0899215 L619.104837,66.5223548 Z M655.820411,73.9932025 L655.820411,24.0366248 C655.820411,23.2819937 656.422306,22.6028257 657.249911,22.6028257 L664.171699,22.6028257 C664.924068,22.6028257 665.601199,23.2819937 665.601199,24.0366248 L665.601199,66.3714286 L684.786591,66.3714286 C685.614196,66.3714286 686.216091,67.0505965 686.216091,67.8052276 L686.216091,73.9932025 C686.216091,74.7478336 685.614196,75.4270016 684.786591,75.4270016 L657.249911,75.4270016 C656.422306,75.4270016 655.820411,74.7478336 655.820411,73.9932025 Z M693.815011,73.9932025 L693.815011,24.0366248 C693.815011,23.2819937 694.492143,22.6028257 695.244511,22.6028257 L702.241536,22.6028257 C702.993905,22.6028257 703.671036,23.2819937 703.671036,24.0366248 L703.671036,73.9932025 C703.671036,74.7478336 702.993905,75.4270016 702.241536,75.4270016 L695.244511,75.4270016 C694.492143,75.4270016 693.815011,74.7478336 693.815011,73.9932025 Z M713.527061,49.0903768 C713.527061,33.9977551 725.640191,21.8481947 740.687558,21.8481947 C748.286478,21.8481947 753.778766,24.2630141 758.894871,28.8662637 C759.572002,29.4699686 759.572002,30.3755259 758.970108,30.9792308 L754.380661,35.7334066 C753.854003,36.3371115 753.101635,36.3371115 752.49974,35.7334066 C749.339793,32.9412716 745.126531,31.2810832 740.913268,31.2810832 C731.282954,31.2810832 724.135454,39.3556358 724.135454,48.8639874 C724.135454,58.296876 731.35819,66.2959655 740.988505,66.2959655 C745.502715,66.2959655 749.339793,64.560314 752.49974,61.9945683 C753.101635,61.4663265 753.92924,61.5417896 754.380661,61.9945683 L759.045345,66.8242072 C759.647239,67.352449 759.496766,68.3334694 758.970108,68.8617111 C753.854003,73.8422763 747.383636,76.1816327 740.687558,76.1816327 C725.640191,76.1816327 713.527061,64.1829984 713.527061,49.0903768 Z" id="Combined-Shape"></path>
            <polygon id="Star-3" points="352.260312 63.130654 325.458433 82.7357851 335.765876 51.1107028 308.893961 31.6022578 342.06619 31.6620131 352.260312 1.70530257e-13 362.454435 31.6620131 395.626664 31.6022578 368.754749 51.1107028 379.062191 82.7357851"></polygon>
        </g>
    </g>
</svg>