<?xml version="1.0" encoding="UTF-8"?>
<svg width="960px" height="540px" viewBox="0 0 960 540" version="1.1" xmlns="http://www.w3.org/2000/svg" xmlns:xlink="http://www.w3.org/1999/xlink">
    <!-- Generator: Sketch 53.2 (72643) - https://sketchapp.com -->
    <title>suitandaxe</title>
    <desc>Created with Sketch.</desc>
    <g id="suitandaxe" stroke="none" stroke-width="1" fill="none" fill-rule="evenodd">
        <g id="340" transform="translate(313.000000, 100.000000)" fill="#1D1D1F">
            <path d="M167,221.940001 C169.87813,217.503839 174.020283,211.208384 178.305518,204.692602 C185.745505,193.383858 193.611385,181.421842 196.039435,177.391221 C228.136601,124.161658 221.977459,123.227809 224.048014,117.274785 C226.120191,111.31895 230.157954,91.6613184 230.993317,89.8956875 C231.82262,88.1340514 237.568708,82.905908 238.928201,80.9408757 C239.050524,80.7679765 239.258057,80.434467 239.527758,79.960762 C233.850916,77.3983587 228.737851,75.2439271 228.737851,75.2439271 C228.737851,75.2439271 230.497202,69.1149486 232.738668,65.3100405 C234.978512,61.5079425 242.676468,48.328707 242.676468,48.328707 C242.676468,48.328707 247.455718,50.3203544 251.143914,52.082881 C251.707414,52.3483199 252.736146,52.8674141 254.084192,53.5484121 C254.793014,52.2230054 255.230748,51.4192096 255.230748,51.4192096 C255.230748,51.4192096 265.738172,56.5798885 269.880676,58.6084954 C274.024371,60.6415374 284.057304,66.9557075 284.057304,66.9557075 C284.057304,66.9557075 283.724147,67.5913436 283.158501,68.6622252 C288.084813,71.413192 301.910861,79.8801798 310.337089,83.6667531 C319.104051,87.5976255 333.746514,93.7597614 333.746514,93.7597614 C333.746514,93.7597614 328.729146,102.282387 327.206178,104.868636 C325.68321,107.454884 324.672659,109.523995 314.188321,123.844325 C303.705606,138.161844 292.15839,148.466456 292.15839,148.466456 C292.15839,148.466456 285.161602,132.459402 283.099989,122.022179 C281.037183,111.58052 277.217522,102.368642 275.929532,100.381016 C274.64035,98.3889547 272.356578,98.0743276 270.074215,96.7301808 C269.729668,96.5274805 269.220266,96.2333329 268.59266,95.87093 C267.944286,97.0851216 267.39701,98.0916776 267.005124,98.8095483 C264.110735,104.077048 247.689045,134.65017 232.034113,160.8853 C223.12246,175.829008 208.894973,197.751718 197.266701,215.555311 C189.172463,227.941605 182.334601,238.33917 179.418535,242.985403 C188.784683,259.478848 202.712746,284.417864 207.838042,295.450449 C215.393488,311.698068 225.888162,328.473989 225.830108,331.175137 C225.771625,333.869041 225.97571,338.044874 223.235464,339.668406 C220.494787,341.284694 193.827332,336.080543 192.127984,333.195249 C190.425392,330.304336 189.362516,322.93768 188.239051,316.831171 C187.124459,310.727032 184.361089,297.781891 181.522868,291.474105 C178.608202,284.997123 172.684342,274.142099 167,264.138282 C161.315658,274.142099 155.391798,284.997123 152.477132,291.474105 C149.638911,297.781891 146.875541,310.727032 145.760949,316.831171 C144.637484,322.93768 143.574608,330.304336 141.872016,333.195249 C140.172668,336.080543 113.505213,341.284694 110.764536,339.668406 C108.02429,338.044874 108.228375,333.869041 108.169892,331.175137 C108.111838,328.473989 118.606512,311.698068 126.161958,295.450449 C131.287254,284.417864 145.215317,259.478848 154.581465,242.985403 C151.665399,238.33917 144.827537,227.941605 136.733299,215.555311 C125.105027,197.751718 110.87754,175.829008 101.965887,160.8853 C86.3109546,134.65017 69.8892649,104.077048 66.9948756,98.8095483 C66.6029898,98.0916776 66.055714,97.0851216 65.4073401,95.87093 C64.7797339,96.2333329 64.2703315,96.5274805 63.9257852,96.7301808 C61.6434223,98.0743276 59.3596504,98.3889547 58.070468,100.381016 C56.7824779,102.368642 52.9628166,111.58052 50.9000112,122.022179 C48.8383981,132.459402 41.8416097,148.466456 41.8416097,148.466456 C41.8416097,148.466456 30.2943945,138.161844 19.8116786,123.844325 C9.32734055,109.523995 8.31679029,107.454884 6.79382238,104.868636 C5.27085447,102.282387 0.253485618,93.7597614 0.253485618,93.7597614 C0.253485618,93.7597614 14.8959488,87.5976255 23.6629108,83.6667531 C32.0891386,79.8801798 45.9151871,71.413192 50.8414994,68.6622252 C50.2758532,67.5913436 49.942696,66.9557075 49.942696,66.9557075 C49.942696,66.9557075 59.9756287,60.6415374 64.1193244,58.6084954 C68.2618278,56.5798885 78.7692517,51.4192096 78.7692517,51.4192096 C78.7692517,51.4192096 79.2069864,52.2230054 79.9158082,53.5484121 C81.2638543,52.8674141 82.2925862,52.3483199 82.8560861,52.082881 C86.5442824,50.3203544 91.3235318,48.328707 91.3235318,48.328707 C91.3235318,48.328707 99.0214881,61.5079425 101.261332,65.3100405 C103.502798,69.1149486 105.262149,75.2439271 105.262149,75.2439271 C105.262149,75.2439271 100.149084,77.3983587 94.4722424,79.960762 C94.7419427,80.434467 94.9494757,80.7679765 95.0717992,80.9408757 C96.4312915,82.905908 102.17738,88.1340514 103.006683,89.8956875 C103.842046,91.6613184 107.879809,111.31895 109.951986,117.274785 C112.022541,123.227809 105.863399,124.161658 137.960565,177.391221 C140.388615,181.421842 148.254495,193.383858 155.694482,204.692602 C159.979717,211.208384 164.12187,217.503839 167,221.940001 Z M167,79.7803433 C161.893936,79.7803433 157.754653,75.6533392 157.754653,70.5624215 C157.754653,65.4715038 161.893936,61.3444997 167,61.3444997 C172.106064,61.3444997 176.245347,65.4715038 176.245347,70.5624215 C176.245347,75.6533392 172.106064,79.7803433 167,79.7803433 Z M152.207444,17.1083148 C152.207444,16.0846968 153.029598,15.2548905 154.058126,15.2548905 L179.941874,15.2548905 C180.963977,15.2548905 181.792556,16.074985 181.792556,17.1083148 L181.792556,33.6808943 C181.792556,34.7045122 180.970402,35.5343185 179.941874,35.5343185 L154.058126,35.5343185 C153.036023,35.5343185 152.207444,34.714224 152.207444,33.6808943 L152.207444,17.1083148 Z M167,125.869953 C161.893936,125.869953 157.754653,121.742948 157.754653,116.652031 C157.754653,111.561113 161.893936,107.434109 167,107.434109 C172.106064,107.434109 176.245347,111.561113 176.245347,116.652031 C176.245347,121.742948 172.106064,125.869953 167,125.869953 Z M167,171.959562 C161.893936,171.959562 157.754653,167.832558 157.754653,162.74164 C157.754653,157.650722 161.893936,153.523718 167,153.523718 C172.106064,153.523718 176.245347,157.650722 176.245347,162.74164 C176.245347,167.832558 172.106064,171.959562 167,171.959562 Z M215.50033,0.380475386 C217.308298,-0.568263769 218.773945,0.32132742 218.773945,2.3585188 L218.773945,48.4306902 C218.773945,50.4718726 217.309081,51.3578841 215.50033,50.4087336 L185.27732,34.5490726 C184.373951,34.0750254 183.641625,32.8679214 183.641625,31.8516764 L183.641625,18.9375326 C183.641625,17.921849 184.375414,16.7134161 185.27732,16.2401365 L215.50033,0.380475386 Z M115.226055,48.4306902 L115.226055,2.3585188 C115.226055,0.32132742 116.691702,-0.568263769 118.49967,0.380475386 L148.72268,16.2401365 C149.624586,16.7134161 150.358375,17.921849 150.358375,18.9375326 L150.358375,31.8516764 C150.358375,32.8679214 149.626049,34.0750254 148.72268,34.5490726 L118.49967,50.4087336 C116.690919,51.3578841 115.226055,50.4718726 115.226055,48.4306902 Z" id="bw"></path>
        </g>
    </g>
</svg>