<?xml version="1.0" encoding="UTF-8"?>
<svg width="960px" height="540px" viewBox="0 0 960 540" version="1.1" xmlns="http://www.w3.org/2000/svg" xmlns:xlink="http://www.w3.org/1999/xlink">
    <!-- Generator: Sketch 53.2 (72643) - https://sketchapp.com -->
    <title>theronmoto</title>
    <desc>Created with Sketch.</desc>
    <g id="theronmoto" stroke="none" stroke-width="1" fill="none" fill-rule="evenodd">
        <g id="bw" transform="translate(311.000000, 136.000000)">
            <path d="M0,39.1665652 C0,35.0769204 2.60944534,29.7230591 6.04746759,27.5222875 C6.04746759,27.5222875 32.0109275,0.50848338 170,0.50848338 C307.989072,0.50848338 333.966261,27.5304219 333.966261,27.5304219 C337.298603,29.8672415 340,35.0785537 340,39.1665652 L340,203.306722 C340,207.396367 336.969929,212.035242 333.216539,213.656446 C333.216539,213.656446 213.066365,266.768871 170,266.768871 C126.933635,266.768871 6.78346082,213.656446 6.78346082,213.656446 C3.03705886,212.030096 0,207.394734 0,203.306722 L0,39.1665652 Z" id="Rectangle-17" stroke="#1D1D1F" stroke-width="2.21852073"></path>
            <path d="M163.820516,218.925208 C162.967753,218.925208 161.929114,219.523159 161.504146,220.254899 L155.5366,230.53181 C155.110089,231.266369 155.111889,232.459452 155.5366,233.191192 L161.504146,243.468359 C161.930656,244.202663 162.965953,244.797794 163.820516,244.797794 L175.755352,244.797794 C176.608116,244.797794 177.646498,244.199843 178.071465,243.468359 L184.038755,233.191192 C184.465008,232.456889 184.463465,231.26355 184.038755,230.53181 L178.071208,220.254899 C177.644698,219.520596 176.609658,218.925208 175.754838,218.925208 L163.820516,218.925208 L163.820516,218.925208 Z M169.787806,239.13123 C165.778762,239.13123 162.528645,235.88338 162.528645,231.877392 C162.528645,227.871403 165.779019,224.62381 169.787806,224.62381 C173.796592,224.62381 177.046709,227.871403 177.046709,231.877392 C177.046452,235.88338 173.796592,239.13123 169.787806,239.13123 L169.787806,239.13123 Z" id="O-4" fill="#1D1D1F"></path>
            <path d="M89.8358641,188.399065 L90.6211902,171.626337 L92.9280856,171.626337 L98.0327051,180.356505 L103.137325,171.626337 L105.395137,171.626337 L106.168193,188.399065 L103.812214,188.399065 L103.260032,175.51869 L98.5358047,183.450742 L97.3332741,183.450742 L92.6826712,175.629199 L92.1059473,188.399065 L89.8358641,188.399065 Z M115.336922,180.000422 C115.336922,178.772544 115.555748,177.626542 115.993406,176.562381 C116.431064,175.49822 117.030278,174.56914 117.791066,173.775112 C118.551855,172.981085 119.455789,172.35283 120.502895,171.890329 C121.550002,171.427828 122.678897,171.196581 123.889614,171.196581 C125.092151,171.196581 126.216955,171.427828 127.264062,171.890329 C128.311169,172.35283 129.221238,172.981085 129.994297,173.775112 C130.767357,174.56914 131.370661,175.49822 131.804229,176.562381 C132.237796,177.626542 132.454577,178.772544 132.454577,180.000422 C132.454577,181.2283 132.237796,182.378395 131.804229,183.450742 C131.370661,184.523089 130.767357,185.456262 129.994297,186.25029 C129.221238,187.044317 128.311169,187.672572 127.264062,188.135073 C126.216955,188.597574 125.092151,188.82882 123.889614,188.82882 C122.687077,188.82882 121.564318,188.597574 120.521301,188.135073 C119.478285,187.672572 118.572306,187.044317 117.803337,186.25029 C117.034368,185.456262 116.431064,184.521042 115.993406,183.444603 C115.555748,182.368163 115.336922,181.220114 115.336922,180.000422 L115.336922,180.000422 Z M117.85242,179.975865 C117.85242,180.868123 117.995577,181.711253 118.281895,182.505281 C118.568213,183.299308 118.975188,183.997142 119.502832,184.598802 C120.030475,185.200462 120.662411,185.677281 121.398658,186.029273 C122.134905,186.381264 122.965215,186.557258 123.889614,186.557258 C124.814013,186.557258 125.648414,186.381264 126.392841,186.029273 C127.137268,185.677281 127.773294,185.200462 128.300938,184.598802 C128.828582,183.997142 129.233511,183.297262 129.515739,182.499141 C129.797967,181.701021 129.939079,180.859937 129.939079,179.975865 C129.939079,179.067235 129.797967,178.215919 129.515739,177.421891 C129.233511,176.627864 128.828582,175.927984 128.300938,175.322231 C127.773294,174.716478 127.135223,174.241705 126.386706,173.897899 C125.638188,173.554094 124.805832,173.382193 123.889614,173.382193 C122.965215,173.382193 122.134905,173.554094 121.398658,173.897899 C120.662411,174.241705 120.030475,174.716478 119.502832,175.322231 C118.975188,175.927984 118.568213,176.627864 118.281895,177.421891 C117.995577,178.215919 117.85242,179.067235 117.85242,179.975865 L117.85242,179.975865 Z M138.739687,173.738276 L138.739687,171.626337 L153.145512,171.626337 L153.145512,173.738276 L147.157401,173.738276 L147.157401,188.399065 L144.75234,188.399065 L144.75234,173.738276 L138.739687,173.738276 Z M159.418352,180.000422 C159.418352,178.772544 159.637178,177.626542 160.074836,176.562381 C160.512493,175.49822 161.111708,174.56914 161.872496,173.775112 C162.633285,172.981085 163.537219,172.35283 164.584325,171.890329 C165.631432,171.427828 166.760327,171.196581 167.971044,171.196581 C169.173581,171.196581 170.298385,171.427828 171.345492,171.890329 C172.392599,172.35283 173.302668,172.981085 174.075727,173.775112 C174.848786,174.56914 175.452091,175.49822 175.885658,176.562381 C176.319226,177.626542 176.536007,178.772544 176.536007,180.000422 C176.536007,181.2283 176.319226,182.378395 175.885658,183.450742 C175.452091,184.523089 174.848786,185.456262 174.075727,186.25029 C173.302668,187.044317 172.392599,187.672572 171.345492,188.135073 C170.298385,188.597574 169.173581,188.82882 167.971044,188.82882 C166.768507,188.82882 165.645748,188.597574 164.602731,188.135073 C163.559715,187.672572 162.653736,187.044317 161.884767,186.25029 C161.115798,185.456262 160.512493,184.521042 160.074836,183.444603 C159.637178,182.368163 159.418352,181.220114 159.418352,180.000422 L159.418352,180.000422 Z M161.93385,179.975865 C161.93385,180.868123 162.077007,181.711253 162.363325,182.505281 C162.649643,183.299308 163.056618,183.997142 163.584262,184.598802 C164.111905,185.200462 164.743841,185.677281 165.480088,186.029273 C166.216335,186.381264 167.046645,186.557258 167.971044,186.557258 C168.895443,186.557258 169.729843,186.381264 170.474271,186.029273 C171.218698,185.677281 171.854724,185.200462 172.382368,184.598802 C172.910011,183.997142 173.314941,183.297262 173.597169,182.499141 C173.879397,181.701021 174.020509,180.859937 174.020509,179.975865 C174.020509,179.067235 173.879397,178.215919 173.597169,177.421891 C173.314941,176.627864 172.910011,175.927984 172.382368,175.322231 C171.854724,174.716478 171.216653,174.241705 170.468136,173.897899 C169.719618,173.554094 168.887262,173.382193 167.971044,173.382193 C167.046645,173.382193 166.216335,173.554094 165.480088,173.897899 C164.743841,174.241705 164.111905,174.716478 163.584262,175.322231 C163.056618,175.927984 162.649643,176.627864 162.363325,177.421891 C162.077007,178.215919 161.93385,179.067235 161.93385,179.975865 L161.93385,179.975865 Z M195.928748,180.074095 C195.928748,178.846217 196.135303,177.696122 196.548419,176.623775 C196.961535,175.551428 197.536208,174.614162 198.272455,173.811948 C199.008702,173.009735 199.892185,172.377387 200.922931,171.914886 C201.953676,171.452386 203.094842,171.221139 204.346462,171.221139 C205.238139,171.221139 206.035727,171.3296 206.739252,171.546525 C207.442777,171.76345 208.058352,172.035626 208.585996,172.36306 C209.113639,172.690494 209.565606,173.048619 209.94191,173.437447 C210.318214,173.826276 210.624979,174.19668 210.862214,174.548671 L209.156584,175.99756 C208.952071,175.711055 208.710749,175.414323 208.432612,175.107353 C208.154474,174.800384 207.823168,174.520022 207.438683,174.266261 C207.054199,174.0125 206.610412,173.801717 206.10731,173.633907 C205.604208,173.466097 205.025445,173.382193 204.371003,173.382193 C203.446604,173.382193 202.622429,173.558186 201.898453,173.910178 C201.174477,174.26217 200.556857,174.741035 200.045574,175.346788 C199.534292,175.952541 199.143678,176.656514 198.873721,177.458728 C198.603763,178.260941 198.468787,179.11635 198.468787,180.02498 C198.468787,180.933609 198.607854,181.784925 198.885991,182.578953 C199.164129,183.372981 199.554743,184.064675 200.057845,184.654056 C200.560947,185.243438 201.172432,185.703885 201.892318,186.035412 C202.612204,186.366939 203.413883,186.5327 204.297379,186.5327 C205.049987,186.5327 205.700328,186.436518 206.248423,186.24415 C206.796518,186.051783 207.258711,185.822582 207.635015,185.556542 C208.011319,185.290502 208.320129,185.018326 208.561454,184.740007 C208.802779,184.461688 209.009334,184.232488 209.181125,184.052399 L210.862214,185.452173 C210.674062,185.75505 210.387748,186.09885 210.003264,186.483585 C209.618779,186.86832 209.150451,187.232585 208.598266,187.576391 C208.046081,187.920197 207.410055,188.21079 206.690169,188.44818 C205.970283,188.68557 205.172695,188.804263 204.297379,188.804263 C203.05394,188.804263 201.923,188.585295 200.904525,188.147352 C199.88605,187.709408 199.008702,187.101618 198.272455,186.323962 C197.536208,185.546306 196.961535,184.625411 196.548419,183.56125 C196.135303,182.49709 195.928748,181.334716 195.928748,180.074095 L195.928748,180.074095 Z M218.717977,180.000422 C218.717977,178.772544 218.936802,177.626542 219.37446,176.562381 C219.812118,175.49822 220.411332,174.56914 221.172121,173.775112 C221.932909,172.981085 222.836843,172.35283 223.88395,171.890329 C224.931056,171.427828 226.059951,171.196581 227.270669,171.196581 C228.473205,171.196581 229.59801,171.427828 230.645117,171.890329 C231.692223,172.35283 232.602293,172.981085 233.375352,173.775112 C234.148411,174.56914 234.751715,175.49822 235.185283,176.562381 C235.618851,177.626542 235.835631,178.772544 235.835631,180.000422 C235.835631,181.2283 235.618851,182.378395 235.185283,183.450742 C234.751715,184.523089 234.148411,185.456262 233.375352,186.25029 C232.602293,187.044317 231.692223,187.672572 230.645117,188.135073 C229.59801,188.597574 228.473205,188.82882 227.270669,188.82882 C226.068132,188.82882 224.945372,188.597574 223.902356,188.135073 C222.859339,187.672572 221.95336,187.044317 221.184391,186.25029 C220.415422,185.456262 219.812118,184.521042 219.37446,183.444603 C218.936802,182.368163 218.717977,181.220114 218.717977,180.000422 L218.717977,180.000422 Z M221.233474,179.975865 C221.233474,180.868123 221.376631,181.711253 221.662949,182.505281 C221.949268,183.299308 222.356242,183.997142 222.883886,184.598802 C223.41153,185.200462 224.043465,185.677281 224.779712,186.029273 C225.515959,186.381264 226.34627,186.557258 227.270669,186.557258 C228.195067,186.557258 229.029468,186.381264 229.773895,186.029273 C230.518323,185.677281 231.154349,185.200462 231.681992,184.598802 C232.209636,183.997142 232.614566,183.297262 232.896794,182.499141 C233.179022,181.701021 233.320134,180.859937 233.320134,179.975865 C233.320134,179.067235 233.179022,178.215919 232.896794,177.421891 C232.614566,176.627864 232.209636,175.927984 231.681992,175.322231 C231.154349,174.716478 230.516278,174.241705 229.76776,173.897899 C229.019242,173.554094 228.186887,173.382193 227.270669,173.382193 C226.34627,173.382193 225.515959,173.554094 224.779712,173.897899 C224.043465,174.241705 223.41153,174.716478 222.883886,175.322231 C222.356242,175.927984 221.949268,176.627864 221.662949,177.421891 C221.376631,178.215919 221.233474,179.067235 221.233474,179.975865 L221.233474,179.975865 Z M245.053444,188.423623 L245.053444,185.611796 L247.900251,185.611796 L247.900251,188.423623 L245.053444,188.423623 Z" id="MOTO-CO." fill="#1D1D1F"></path>
            <g id="Theron" transform="translate(22.173913, 51.772853)" fill="#1D1D1F">
                <path d="M1.68521739,89.078892 C4.05043478,89.078892 6.88869565,88.0138504 12.8017391,87.7771745 C15.64,87.7771745 17.6504348,87.1854848 20.4886957,83.5170083 C36.3356522,62.807867 60.5791304,26.9514681 68.3843478,14.4076454 C79.0278261,12.7509141 87.8973913,11.4491967 92.2730435,10.8575069 C93.2191304,10.739169 93.6921739,10.3841551 93.6921739,9.91080332 C93.6921739,9.08243767 92.6278261,8.37240997 89.7895652,6.47900277 C87.4243478,4.94060942 85.413913,3.87556787 82.2208696,3.87556787 C78.3182609,3.87556787 73.1147826,4.11224377 67.4382609,4.46725762 C65.3095652,3.04720222 63.1808696,1.74548476 61.6434783,0.917119114 C59.5147826,-0.147922438 58.9234783,-0.0295844875 57.7408696,1.74548476 C57.1495652,2.69218837 56.44,3.87556787 55.3756522,5.41396122 C46.2695652,6.24232687 37.6365217,7.18903047 33.4973913,7.89905817 C28.1756522,8.72742382 26.4017391,10.2658172 24.3913043,12.7509141 C23.0904348,14.4076454 22.2626087,17.2477562 20.7252174,20.6795568 C20.2521739,21.6262604 20.6069565,22.0996122 22.6173913,21.7445983 C30.186087,20.4428809 38.7008696,19.0228255 47.0973913,17.721108 C27.9391304,45.7672022 10.4365217,71.9198892 0.975652174,87.6588366 C0.266086957,88.8422161 0.975652174,89.078892 1.68521739,89.078892 L1.68521739,89.078892 Z" id="Path"></path>
                <path d="M89.4347826,85.5287535 C96.5304348,85.5287535 108.711304,75.3516898 116.989565,61.6244875 L117.344348,61.0327978 C117.817391,60.2044321 117.935652,59.6127424 117.107826,58.7843767 L116.753043,58.4293629 C116.398261,58.074349 116.161739,58.192687 115.333913,59.2577285 L114.97913,59.7310803 C106.227826,71.4465374 99.8417391,76.4167313 94.1652174,77.9551247 C94.9930435,72.274903 103.98087,60.3227701 106.70087,53.9325208 C108.474783,49.9090305 108.356522,47.7789474 105.518261,45.2938504 C103.744348,43.6371191 101.970435,42.9270914 100.196522,42.9270914 C97.0034783,42.9270914 89.3165217,47.4239335 80.92,53.459169 C89.6713043,38.7852632 95.7026087,29.673241 100.669565,22.8096399 C108.001739,12.6325762 108.356522,6.47900277 105.636522,4.70393352 C104.217391,3.75722992 101.26087,2.57385042 98.3043478,1.74548476 C97.24,1.39047091 96.7669565,1.39047091 95.5843478,3.04720222 C85.1773913,19.2595014 70.5130435,41.0336842 58.3321739,59.7310803 C52.4191304,68.8431025 49.8173913,73.3399446 49.8173913,76.5350693 C49.8173913,79.0201662 51.2365217,80.6768975 55.0208696,82.3336288 C57.9773913,83.6353463 60.2243478,84.227036 61.5252174,84.227036 C63.2991304,84.227036 64.2452174,82.9253186 67.9113043,76.2983934 C69.093913,74.0499723 70.3947826,71.9198892 71.5773913,69.7898061 C79.2643478,61.6244875 86.8330435,55.1159003 92.0365217,51.5657618 C88.7252174,57.8376731 82.693913,64.9379501 79.7373913,71.3281994 C77.9634783,75.4700277 78.9095652,79.0201662 81.866087,81.978615 C84.4678261,84.4637119 86.36,85.5287535 89.4347826,85.5287535 L89.4347826,85.5287535 Z" id="Path"></path>
                <path d="M160.746087,61.6244875 C152.586087,75.2333518 137.566957,86.1204432 125.622609,86.1204432 C121.128696,86.1204432 117.462609,84.4637119 112.377391,78.4284765 C108.238261,73.5766205 106.70087,66.0029917 115.333913,54.6425485 C121.483478,46.5955679 132.245217,39.8503047 139.932174,39.8503047 C142.297391,39.8503047 144.189565,40.6786704 145.963478,41.8620499 C147.737391,43.0454294 148.683478,43.6371191 149.747826,45.1755125 C151.994783,46.9505817 153.768696,49.6723546 153.768696,52.1574515 C153.768696,55.70759 151.64,59.1393906 143.716522,64.2279224 C139.577391,66.8313573 133.191304,69.6714681 124.794783,72.5115789 C124.44,74.4049861 124.321739,75.9433795 124.794783,77.126759 C125.85913,77.7184488 127.16,77.9551247 128.697391,77.9551247 C137.566957,77.9551247 150.457391,70.7365097 158.735652,59.7310803 L159.090435,59.2577285 C159.918261,58.192687 160.154783,58.074349 160.509565,58.4293629 L160.864348,58.7843767 C161.692174,59.6127424 161.573913,60.2044321 161.10087,61.0327978 L160.746087,61.6244875 Z M140.405217,59.6127424 C144.78087,56.4176177 147.61913,52.5124654 146.436522,48.3706371 C139.932174,49.7906925 131.18087,58.5477008 127.041739,66.7130194 C132.363478,64.4645983 137.212174,61.9795014 140.405217,59.6127424 Z" id="Path"></path>
                <path d="M162.283478,83.7536842 C163.584348,83.7536842 164.648696,82.8069806 169.37913,75.7067036 C180.732174,58.4293629 194.923478,44.8204986 206.867826,37.3652078 C207.222609,37.1285319 207.45913,36.891856 207.45913,36.6551801 C207.45913,36.4185042 206.749565,35.9451524 206.394783,35.5901385 C205.566957,34.8801108 205.330435,34.2884211 204.384348,34.2884211 C203.438261,34.2884211 201.782609,34.8801108 199.18087,36.1818283 C193.85913,38.6669252 187.827826,42.8087535 181.086957,48.9623269 C181.56,47.3055956 181.796522,45.7672022 181.796522,44.4654848 C181.796522,42.8087535 181.323478,41.3886981 179.904348,40.5603324 C178.248696,39.6136288 176.829565,39.4952909 174.81913,38.7852632 C174.109565,38.5485873 173.163478,38.5485873 172.808696,39.3769529 C171.034783,42.8087535 163.347826,53.6958449 158.735652,59.7310803 C152.822609,67.4230471 150.575652,72.9849307 150.575652,76.4167313 C150.575652,80.3218837 153.650435,81.3869252 157.198261,82.3336288 C160.509565,83.2803324 161.455652,83.7536842 162.283478,83.7536842 L162.283478,83.7536842 Z" id="Path"></path>
                <path d="M207.222609,85.0554017 C202.137391,85.0554017 198.826087,83.0436565 195.633043,79.7301939 C190.429565,74.0499723 189.365217,65.292964 196.697391,55.5892521 C202.610435,47.6606094 212.662609,39.8503047 220.704348,39.8503047 C224.606957,39.8503047 229.21913,42.2170637 230.756522,44.5838227 C233.949565,45.8855402 235.486957,49.4356787 235.486957,53.6958449 C235.486957,54.6425485 235.368696,55.5892521 235.250435,56.5359557 C243.055652,55.9442659 248.495652,52.2757895 253.58087,47.1872576 L254.053913,46.7139058 C255,45.7672022 255.354783,45.8855402 255.709565,46.358892 L255.946087,46.7139058 C256.41913,47.4239335 256.41913,48.0156233 255.827826,48.725651 L255.354783,49.3173407 C251.215652,54.5242105 243.410435,60.6777839 233.949565,61.5061496 C233.121739,63.9912465 231.93913,66.4763435 230.638261,68.7247645 C224.961739,78.5468144 216.328696,85.0554017 207.222609,85.0554017 Z M210.533913,65.174626 C207.932174,69.1981163 206.394783,73.2216066 206.986087,76.6534072 C214.909565,74.641662 222.714783,68.0147368 227.208696,61.0327978 C222.241739,59.8494183 220.231304,56.5359557 220.231304,53.340831 C216.92,56.4176177 213.490435,60.441108 210.533913,65.174626 Z" id="Path"></path>
                <path d="M225.316522,50.5007202 C225.316522,50.0273684 225.434783,49.6723546 225.434783,49.4356787 C226.735652,48.607313 227.918261,48.1339612 228.982609,47.7789474 C230.046957,48.1339612 230.638261,49.4356787 230.638261,51.09241 C230.638261,52.6308033 230.283478,54.2875346 229.692174,56.0626039 C226.49913,55.1159003 225.316522,52.9858172 225.316522,50.5007202 L225.316522,50.5007202 Z" id="Path"></path>
                <path d="M274.394783,85.5287535 C280.071304,85.5287535 288.94087,80.3218837 294.617391,75.4700277 C295.8,74.4049861 296.036522,72.7482548 296.036522,71.3281994 C296.036522,70.4998338 295.681739,70.1448199 294.972174,70.6181717 C288.349565,75.2333518 283.146087,76.8900831 280.89913,76.8900831 C280.426087,76.8900831 280.071304,76.7717452 279.716522,76.6534072 C283.50087,68.8431025 289.05913,61.9795014 291.897391,55.9442659 C294.38087,50.6190582 293.907826,47.5422715 291.542609,45.8855402 C288.822609,43.873795 286.812174,42.9270914 285.393043,42.9270914 C284.092174,42.9270914 282.436522,43.5187812 279.953043,45.0571745 C277.233043,46.7139058 273.448696,49.7906925 268.836522,54.0508587 C270.373913,50.7373961 271.201739,48.4889751 271.201739,47.1872576 C271.201739,45.0571745 270.373913,44.3471468 267.18087,42.0987258 C265.170435,40.6786704 262.805217,39.6136288 261.504348,39.6136288 C259.13913,39.6136288 256.537391,42.9270914 243.883478,59.7310803 C237.852174,67.7780609 235.132174,73.3399446 235.132174,77.0084211 C235.132174,79.493518 236.787826,81.2685873 239.153043,81.860277 C241.991304,82.5703047 244.711304,83.5170083 246.248696,83.5170083 C247.431304,83.5170083 248.850435,82.4519668 251.097391,79.3751801 C260.913043,65.6479778 269.191304,58.3110249 275.34087,54.6425485 C273.685217,59.0210526 268.718261,64.5829363 265.052174,72.8665928 C263.987826,75.4700277 263.987826,78.3101385 265.643478,80.9135734 C267.062609,83.1619945 270.610435,85.5287535 274.394783,85.5287535 L274.394783,85.5287535 Z" id="Path"></path>
            </g>
        </g>
    </g>
</svg>