<?xml version="1.0" encoding="UTF-8"?>
<svg width="960px" height="540px" viewBox="0 0 960 540" version="1.1" xmlns="http://www.w3.org/2000/svg" xmlns:xlink="http://www.w3.org/1999/xlink">
    <!-- Generator: Sketch 53.2 (72643) - https://sketchapp.com -->
    <title>theronstudios</title>
    <desc>Created with Sketch.</desc>
    <g id="theronstudios" stroke="none" stroke-width="1" fill="none" fill-rule="evenodd">
        <g id="bw" transform="translate(100.000000, 214.000000)" fill="#FFFFFF">
            <path d="M1.37677812,109.328653 C4.24121581,109.328653 7.67854103,108.041837 14.8396353,107.755878 C18.2769605,107.755878 20.7117325,107.04098 24.1490578,102.608612 C43.3407903,77.5871837 72.7012766,34.2643673 82.153921,19.1085306 C95.0438906,17.1068163 105.785532,15.5340408 111.084742,14.8191429 C112.230517,14.6761633 112.803404,14.2472245 112.803404,13.6753061 C112.803404,12.674449 111.514407,11.8165714 108.077082,9.52889796 C105.212644,7.67016327 102.777872,6.38334694 98.9108815,6.38334694 C94.1845593,6.38334694 87.8827964,6.66930612 81.0081459,7.0982449 C78.430152,5.3824898 75.8521581,3.80971429 73.9902736,2.80885714 C71.4122796,1.52204082 70.6961702,1.66502041 69.2639514,3.80971429 C68.5478419,4.95355102 67.6885106,6.38334694 66.3995137,8.24208163 C55.3714286,9.24293878 44.916231,10.3867755 39.903465,11.2446531 C33.4584802,12.2455102 31.310152,14.1042449 28.8753799,17.1068163 C27.2999392,19.1085306 26.297386,22.5400408 24.4355015,26.686449 C23.862614,27.8302857 24.2922796,28.4022041 26.7270517,27.9732653 C35.8932523,26.4004898 46.205228,24.6847347 56.3739818,23.1119592 C33.1720365,56.9981224 11.9751976,88.5966122 0.517446809,107.612898 C-0.341884498,109.042694 0.517446809,109.328653 1.37677812,109.328653 L1.37677812,109.328653 Z" id="Path"></path>
            <path d="M107.647416,105.039265 C116.240729,105.039265 130.992584,92.7430204 141.018116,76.1573878 L141.447781,75.4424898 C142.020669,74.4416327 142.163891,73.7267347 141.161337,72.7258776 L140.731672,72.2969388 C140.302006,71.868 140.015562,72.0109796 139.013009,73.2977959 L138.583343,73.8697143 C127.984924,88.0246939 120.250942,94.0298367 113.376292,95.8885714 C114.378845,89.025551 125.263708,74.5846122 128.557812,66.8637143 C130.70614,62.0024082 130.562918,59.4287755 127.125593,56.4262041 C124.977264,54.4244898 122.828936,53.5666122 120.680608,53.5666122 C116.813617,53.5666122 107.504195,58.9998367 97.3354407,66.2917959 C107.93386,48.5623265 115.238176,37.552898 121.253495,29.2600816 C130.133252,16.9638367 130.562918,9.52889796 127.268815,7.38420408 C125.550152,6.24036735 121.969605,4.81057143 118.389058,3.80971429 C117.100061,3.38077551 116.527173,3.38077551 115.094954,5.3824898 C102.491429,24.9706939 84.7319149,51.2789388 69.9800608,73.8697143 C62.8189666,84.8791429 59.6680851,90.3123673 59.6680851,94.1728163 C59.6680851,97.1753878 61.3867477,99.177102 65.969848,101.178816 C69.5503951,102.751592 72.2716109,103.46649 73.8470517,103.46649 C75.9953799,103.46649 77.141155,101.893714 81.5810334,93.8868571 C83.0132523,91.1702449 84.588693,88.5966122 86.0209119,86.0229796 C95.3303343,76.1573878 104.496535,68.2935102 110.798298,64.0041224 C106.788085,71.5820408 99.483769,80.1608163 95.9032219,87.8817143 C93.7548936,92.886 94.9006687,97.1753878 98.4812158,100.749878 C101.632097,103.752449 103.923647,105.039265 107.647416,105.039265 L107.647416,105.039265 Z" id="Path"></path>
            <path d="M151.473313,105.754163 C146.030881,105.754163 141.591003,103.752449 135.432462,96.4604898 C130.419696,90.5983265 128.557812,81.4476327 139.013009,67.7215918 C146.460547,57.9989796 159.493739,49.8491429 168.803161,49.8491429 C171.667599,49.8491429 173.959149,50.85 176.107477,52.2797959 C178.255805,53.7095918 179.401581,54.4244898 180.690578,56.2832245 C183.411793,58.4279184 185.560122,61.716449 185.560122,64.7190204 C185.560122,69.0084082 182.982128,73.1548163 173.386261,79.3029388 C168.373495,82.4484898 160.639514,85.88 150.47076,89.3115102 C150.041094,91.5991837 149.897872,93.4579184 150.47076,94.8877143 C151.759757,95.6026122 153.335198,95.8885714 155.197082,95.8885714 C165.938723,95.8885714 181.549909,87.1668163 191.575441,73.8697143 L192.005106,73.2977959 C193.00766,72.0109796 193.294103,71.868 193.723769,72.2969388 L194.153435,72.7258776 C195.155988,73.7267347 195.012766,74.4416327 194.439878,75.4424898 L194.010213,76.1573878 C184.127903,92.6000408 165.938723,105.754163 151.473313,105.754163 Z M169.376049,73.7267347 C174.675258,69.8662857 178.112584,65.1479592 176.680365,60.1436735 C168.803161,61.8594286 158.204742,72.4399184 153.191976,82.3055102 C159.63696,79.588898 165.509058,76.5863265 169.376049,73.7267347 Z" id="Path"></path>
            <path d="M195.872097,102.894571 C197.447538,102.894571 198.736535,101.750735 204.46541,93.1719592 C218.214711,72.2969388 235.401337,55.8542857 249.866748,46.8465714 C250.296413,46.5606122 250.582857,46.2746531 250.582857,45.9886939 C250.582857,45.7027347 249.723526,45.1308163 249.29386,44.7018776 C248.291307,43.844 248.004863,43.129102 246.859088,43.129102 C245.713313,43.129102 243.708207,43.844 240.557325,45.4167755 C234.11234,48.4193469 226.808024,53.4236327 218.644377,60.8585714 C219.217264,58.8568571 219.503708,56.9981224 219.503708,55.4253469 C219.503708,53.4236327 218.930821,51.7078776 217.212158,50.7070204 C215.207052,49.5631837 213.488389,49.4202041 211.053617,48.5623265 C210.194286,48.2763673 209.048511,48.2763673 208.618845,49.2772245 C206.470517,53.4236327 197.161094,66.5777551 191.575441,73.8697143 C184.414347,83.1633878 181.693131,89.8834286 181.693131,94.0298367 C181.693131,98.7481633 185.4169,100.03498 189.713556,101.178816 C193.723769,102.322653 194.869544,102.894571 195.872097,102.894571 L195.872097,102.894571 Z" id="Path"></path>
            <path d="M250.296413,104.467347 C244.137872,104.467347 240.12766,102.036694 236.260669,98.0332653 C229.958906,91.1702449 228.669909,80.5897551 237.549666,68.8654286 C244.71076,59.2857959 256.88462,49.8491429 266.623708,49.8491429 C271.35003,49.8491429 276.935684,52.7087347 278.797568,55.5683265 C282.664559,57.141102 284.526444,61.4304898 284.526444,66.5777551 C284.526444,67.7215918 284.383222,68.8654286 284.24,70.0092653 C293.692644,69.2943673 300.280851,64.862 306.439392,58.7138776 L307.01228,58.1419592 C308.158055,56.9981224 308.58772,57.141102 309.017386,57.7130204 L309.30383,58.1419592 C309.876717,58.9998367 309.876717,59.7147347 309.160608,60.5726122 L308.58772,61.2875102 C303.574954,67.5786122 294.12231,75.013551 282.664559,76.0144082 C281.662006,79.0169796 280.229787,82.019551 278.654347,84.7361633 C271.779696,96.6034694 261.324498,104.467347 250.296413,104.467347 Z M254.306626,80.4467755 C251.155745,85.3080816 249.29386,90.1693878 250.00997,94.3157959 C259.605836,91.8851429 269.05848,83.8782857 274.500912,75.4424898 C268.485593,74.0126939 266.050821,70.0092653 266.050821,66.1488163 C262.040608,69.8662857 257.887173,74.7275918 254.306626,80.4467755 Z" id="Path"></path>
            <path d="M272.209362,62.7173061 C272.209362,62.1453878 272.352584,61.716449 272.352584,61.4304898 C273.928024,60.4296327 275.360243,59.8577143 276.64924,59.4287755 C277.938237,59.8577143 278.654347,61.4304898 278.654347,63.4322041 C278.654347,65.2909388 278.224681,67.2926531 277.508571,69.4373469 C273.641581,68.2935102 272.209362,65.7198776 272.209362,62.7173061 L272.209362,62.7173061 Z" id="Path"></path>
            <path d="M331.646444,105.039265 C338.521094,105.039265 349.262736,98.7481633 356.137386,92.886 C357.569605,91.5991837 357.856049,89.5974694 357.856049,87.8817143 C357.856049,86.8808571 357.426383,86.4519184 356.567052,87.0238367 C348.546626,92.6000408 342.244863,94.6017551 339.523647,94.6017551 C338.95076,94.6017551 338.521094,94.4587755 338.091429,94.3157959 C342.674529,84.8791429 349.405957,76.5863265 352.843283,69.2943673 C355.850942,62.8602857 355.278055,59.1428163 352.413617,57.141102 C349.119514,54.710449 346.684742,53.5666122 344.966079,53.5666122 C343.390638,53.5666122 341.385532,54.2815102 338.377872,56.1402449 C335.083769,58.1419592 330.500669,61.8594286 324.915015,67.0066939 C326.7769,63.0032653 327.779453,60.2866531 327.779453,58.7138776 C327.779453,56.1402449 326.7769,55.2823673 322.909909,52.5657551 C320.475137,50.85 317.610699,49.5631837 316.035258,49.5631837 C313.170821,49.5631837 310.019939,53.5666122 294.695198,73.8697143 C287.390881,83.5923265 284.096778,90.3123673 284.096778,94.7447347 C284.096778,97.7473061 286.101884,99.892 288.966322,100.606898 C292.403647,101.464776 295.697751,102.608612 297.559635,102.608612 C298.991854,102.608612 300.710517,101.321796 303.431733,97.6043265 C315.319149,81.0186939 325.344681,72.1539592 332.792219,67.7215918 C330.787112,73.0118367 324.771793,79.7318776 320.331915,89.740449 C319.042918,92.886 319.042918,96.3175102 321.048024,99.4630612 C322.766687,102.179673 327.063343,105.039265 331.646444,105.039265 L331.646444,105.039265 Z" id="Path"></path>
            <path d="M419.727903,62.5743265 C424.597447,66.0058367 426.745775,68.4364898 426.745775,72.4399184 C426.745775,81.5906122 409.988815,91.1702449 380.055441,96.031551 C377.477447,96.4604898 377.334225,100.177959 383.349544,106.183102 C387.073313,109.900571 390.367416,112.045265 395.380182,112.045265 C401.681945,112.045265 413.569362,108.899714 425.6,101.321796 C434.622979,95.6026122 440.638298,88.3106531 440.638298,80.4467755 C440.638298,70.8671429 433.19076,64.7190204 425.456778,59.1428163 C420.873678,55.8542857 418.438906,53.5666122 418.438906,50.4210612 C418.438906,45.5597551 423.30845,39.2686531 441.497629,30.546898 C452.096049,25.5426122 465.415684,20.5383265 480.31076,16.534898 C481.742979,16.1059592 481.742979,13.8182857 478.305653,9.38591837 C474.438663,4.23865306 471.144559,2.09395918 465.558906,2.09395918 C457.395258,2.09395918 439.778967,8.24208163 425.456778,17.3927755 C413.139696,25.2566531 405.119271,33.4064898 405.119271,44.7018776 C405.119271,52.8517143 411.850699,56.9981224 419.727903,62.5743265 L419.727903,62.5743265 Z" id="Path"></path>
            <path d="M461.978359,104.467347 C474.868328,104.467347 493.343951,84.4502041 498.356717,76.1573878 L498.786383,75.4424898 C499.359271,74.4416327 499.502492,73.7267347 498.499939,72.7258776 L498.070274,72.2969388 C497.640608,71.868 497.354164,72.0109796 496.351611,73.2977959 L495.921945,73.8697143 C485.466748,87.8817143 476.443769,93.4579184 465.272462,94.1728163 C466.275015,89.025551 472.433556,79.0169796 488.331185,54.710449 L495.778723,52.9946939 C501.077933,51.7078776 501.221155,50.85 502.939818,50.5640408 C504.65848,50.2780816 505.947477,48.8482857 505.947477,47.2755102 C505.947477,46.7035918 505.804255,46.2746531 504.372036,46.2746531 C501.507599,46.2746531 497.78383,46.4176327 493.630395,46.5606122 C502.510152,32.8345714 503.799149,29.5460408 497.78383,24.5417551 C495.205836,22.2540816 494.489726,19.9664082 492.48462,19.9664082 C491.338845,19.9664082 489.620182,21.1102449 485.323526,26.8294286 C479.881094,33.9784082 475.01155,40.8414286 469.71234,48.5623265 C465.84535,48.9912653 461.978359,49.5631837 458.541033,49.9921224 C456.249483,50.2780816 455.819818,50.7070204 455.819818,51.2789388 C455.819818,52.4227755 457.395258,55.2823673 459.257143,56.9981224 C460.402918,57.9989796 461.119027,58.4279184 462.980912,58.4279184 C459.973252,63.1462449 456.679149,68.1505306 452.95538,73.8697143 C443.789179,87.8817143 444.505289,93.8868571 450.66383,99.6060408 C454.674043,103.46649 458.827477,104.467347 461.978359,104.467347 L461.978359,104.467347 Z" id="Path"></path>
            <path d="M529.292644,98.4622041 C531.584195,100.03498 534.162188,101.321796 536.883404,101.321796 C548.341155,101.321796 562.090456,84.4502041 567.103222,76.1573878 L567.532888,75.4424898 C568.105775,74.5846122 568.248997,73.7267347 567.246444,72.7258776 L566.816778,72.2969388 C566.387112,71.868 566.100669,72.0109796 565.098116,73.2977959 L564.66845,73.8697143 C554.499696,87.4527755 547.625046,91.7421633 542.325836,92.3140816 C543.328389,84.0212653 552.49459,70.4382041 555.215805,65.0049796 C557.937021,59.7147347 556.648024,57.4270612 550.489483,56.5691837 C547.625046,56.1402449 542.898723,55.7113061 541.180061,55.7113061 C540.034286,55.7113061 539.318176,56.2832245 538.458845,57.9989796 C525.998541,82.1625306 514.970456,90.1693878 508.955137,91.3132245 C512.24924,84.0212653 518.407781,78.0161224 526.571429,64.2900816 C529.72231,58.9998367 530.868085,53.4236327 525.425653,51.564898 C522.417994,50.5640408 516.975562,49.8491429 514.970456,49.8491429 C513.108571,49.8491429 512.24924,50.7070204 511.246687,52.5657551 C510.244134,54.5674694 505.088146,61.716449 495.921945,73.8697143 C490.336292,81.3046531 487.758298,86.8808571 487.758298,91.3132245 C487.758298,94.8877143 489.047295,97.7473061 493.343951,100.749878 C496.781277,103.037551 499.502492,104.181388 502.36693,104.181388 C508.525471,104.181388 516.545897,97.7473061 524.709544,87.4527755 C523.706991,91.7421633 524.709544,95.3166531 529.292644,98.4622041 L529.292644,98.4622041 Z" id="Path"></path>
            <path d="M592.596717,95.0306939 C592.02383,93.7438776 591.880608,91.7421633 592.02383,89.5974694 C584.719514,98.1762449 577.128754,104.038408 571.256657,104.038408 C568.248997,104.038408 565.384559,102.322653 562.233678,98.4622041 C559.36924,96.3175102 556.075137,92.171102 556.075137,86.594898 C556.075137,82.3055102 557.793799,77.1582449 562.090456,71.5820408 C572.688875,57.5700408 588.300061,49.4202041 596.750152,49.4202041 C599.61459,49.4202041 603.051915,51.4219184 605.773131,54.4244898 C616.228328,37.8388571 632.269179,13.5323265 641.292158,1.52204082 C642.294711,0.23522449 643.297264,0.092244898 644.299818,0.807142857 C646.448146,2.37991837 649.455805,5.09653061 651.890578,7.38420408 C654.468571,9.81485714 654.755015,14.3902041 651.031246,20.1093878 C645.445593,28.4022041 637.281945,40.8414286 630.120851,52.5657551 C618.233435,72.0109796 612.504559,83.3063673 612.361337,92.0281224 C618.090213,89.740449 624.821641,84.3072245 632.698845,73.8697143 L633.128511,73.2977959 C634.131064,72.0109796 634.417508,71.868 634.847173,72.2969388 L635.276839,72.7258776 C636.279392,73.7267347 636.13617,74.5846122 635.563283,75.4424898 L635.133617,76.1573878 C629.977629,84.8791429 614.796109,102.322653 601.333252,102.322653 C597.179818,102.322653 594.172158,99.0341224 592.596717,95.0306939 Z M572.975319,93.7438776 C580.279635,91.0272653 587.727173,85.165102 594.31538,77.5871837 C595.890821,72.4399184 598.325593,66.8637143 601.619696,61.001551 C586.008511,66.8637143 572.402432,83.1633878 572.975319,93.7438776 Z" id="Path"></path>
            <path d="M660.913556,39.1256735 C661.916109,39.8405714 664.923769,40.698449 666.928875,40.698449 C669.077204,40.698449 671.08231,40.4124898 673.37386,37.8388571 C675.092523,36.123102 679.245957,32.2626531 682.969726,28.5451837 C684.115502,27.4013469 683.399392,26.5434694 681.967173,25.3996327 C680.391733,23.9698367 676.811185,22.111102 673.803526,21.2532245 C672.657751,20.9672653 671.368754,21.8251429 669.220426,24.2557959 C666.355988,27.4013469 663.061884,31.9766939 660.913556,36.5520408 C660.340669,37.8388571 660.340669,38.6967347 660.913556,39.1256735 L660.913556,39.1256735 Z" id="Path"></path>
            <path d="M638.857386,104.324367 C649.599027,104.324367 665.926322,86.8808571 672.371307,76.1573878 L672.800973,75.4424898 C673.37386,74.4416327 673.517082,73.7267347 672.514529,72.7258776 L672.084863,72.2969388 C671.655198,71.868 671.368754,72.0109796 670.366201,73.2977959 L669.936535,73.8697143 C657.476231,90.4553469 648.453252,94.6017551 641.721824,95.1736735 C643.440486,90.0264082 648.166809,82.4484898 656.044012,71.2960816 C661.056778,64.2900816 663.921216,59.2857959 663.921216,56.4262041 C663.921216,50.9929796 654.898237,50.2780816 651.31769,50.2780816 C650.171915,50.2780816 649.599027,50.5640408 649.02614,51.2789388 C645.875258,54.8534286 638.714164,64.7190204 632.698845,73.8697143 C621.957204,90.4553469 622.243647,93.7438776 628.688632,99.6060408 C632.698845,102.894571 634.703951,104.324367 638.857386,104.324367 L638.857386,104.324367 Z" id="Path"></path>
            <path d="M682.110395,104.467347 C675.951854,104.467347 671.941641,102.036694 668.07465,98.0332653 C661.772888,91.1702449 660.483891,80.5897551 669.363647,68.8654286 C676.524742,59.2857959 688.698602,49.8491429 698.43769,49.8491429 C703.164012,49.8491429 708.749666,52.7087347 710.61155,55.5683265 C714.478541,57.141102 716.340426,61.4304898 716.340426,66.5777551 C716.340426,67.7215918 716.197204,68.8654286 716.053982,70.0092653 C725.506626,69.2943673 732.094833,64.862 738.253374,58.7138776 L738.826261,58.1419592 C739.972036,56.9981224 740.401702,57.141102 740.831368,57.7130204 L741.117812,58.1419592 C741.690699,58.9998367 741.690699,59.7147347 740.97459,60.5726122 L740.401702,61.2875102 C735.388936,67.5786122 725.936292,75.013551 714.478541,76.0144082 C713.475988,79.0169796 712.043769,82.019551 710.468328,84.7361633 C703.593678,96.6034694 693.13848,104.467347 682.110395,104.467347 Z M686.120608,80.4467755 C682.969726,85.3080816 681.107842,90.1693878 681.823951,94.3157959 C691.419818,91.8851429 700.872462,83.8782857 706.314894,75.4424898 C700.299574,74.0126939 697.864802,70.0092653 697.864802,66.1488163 C693.85459,69.8662857 689.701155,74.7275918 686.120608,80.4467755 Z" id="Path"></path>
            <path d="M704.023343,62.7173061 C704.023343,62.1453878 704.166565,61.716449 704.166565,61.4304898 C705.742006,60.4296327 707.174225,59.8577143 708.463222,59.4287755 C709.752219,59.8577143 710.468328,61.4304898 710.468328,63.4322041 C710.468328,65.2909388 710.038663,67.2926531 709.322553,69.4373469 C705.455562,68.2935102 704.023343,65.7198776 704.023343,62.7173061 L704.023343,62.7173061 Z" id="Path"></path>
            <path d="M745.987356,92.7430204 C745.987356,83.1633878 737.394043,79.588898 737.394043,74.8705714 C737.394043,72.0109796 740.25848,70.7241633 745.55769,68.8654286 C755.010334,65.576898 759.450213,62.4313469 759.450213,57.4270612 C759.450213,55.5683265 758.590881,52.2797959 755.44,48.2763673 C753.291672,45.5597551 751.716231,45.1308163 750.8569,45.8457143 C741.404255,51.8508571 725.79307,53.5666122 725.79307,66.8637143 C725.79307,75.4424898 734.099939,77.5871837 734.099939,82.734449 C734.099939,89.8834286 721.639635,98.1762449 713.332766,100.892857 C711.900547,101.321796 712.473435,103.46649 715.051429,105.754163 C718.20231,108.470776 721.782857,110.186531 726.652401,110.186531 C731.378723,110.186531 735.102492,108.470776 738.253374,106.183102 C743.552584,102.179673 745.987356,97.4613469 745.987356,92.7430204 L745.987356,92.7430204 Z" id="Path"></path>
        </g>
        <g transform="translate(100.000000, 214.000000)" fill="#1D1D1F" id="Path">
            <path d="M1.37677812,109.328653 C4.24121581,109.328653 7.67854103,108.041837 14.8396353,107.755878 C18.2769605,107.755878 20.7117325,107.04098 24.1490578,102.608612 C43.3407903,77.5871837 72.7012766,34.2643673 82.153921,19.1085306 C95.0438906,17.1068163 105.785532,15.5340408 111.084742,14.8191429 C112.230517,14.6761633 112.803404,14.2472245 112.803404,13.6753061 C112.803404,12.674449 111.514407,11.8165714 108.077082,9.52889796 C105.212644,7.67016327 102.777872,6.38334694 98.9108815,6.38334694 C94.1845593,6.38334694 87.8827964,6.66930612 81.0081459,7.0982449 C78.430152,5.3824898 75.8521581,3.80971429 73.9902736,2.80885714 C71.4122796,1.52204082 70.6961702,1.66502041 69.2639514,3.80971429 C68.5478419,4.95355102 67.6885106,6.38334694 66.3995137,8.24208163 C55.3714286,9.24293878 44.916231,10.3867755 39.903465,11.2446531 C33.4584802,12.2455102 31.310152,14.1042449 28.8753799,17.1068163 C27.2999392,19.1085306 26.297386,22.5400408 24.4355015,26.686449 C23.862614,27.8302857 24.2922796,28.4022041 26.7270517,27.9732653 C35.8932523,26.4004898 46.205228,24.6847347 56.3739818,23.1119592 C33.1720365,56.9981224 11.9751976,88.5966122 0.517446809,107.612898 C-0.341884498,109.042694 0.517446809,109.328653 1.37677812,109.328653 L1.37677812,109.328653 Z"></path>
            <path d="M107.647416,105.039265 C116.240729,105.039265 130.992584,92.7430204 141.018116,76.1573878 L141.447781,75.4424898 C142.020669,74.4416327 142.163891,73.7267347 141.161337,72.7258776 L140.731672,72.2969388 C140.302006,71.868 140.015562,72.0109796 139.013009,73.2977959 L138.583343,73.8697143 C127.984924,88.0246939 120.250942,94.0298367 113.376292,95.8885714 C114.378845,89.025551 125.263708,74.5846122 128.557812,66.8637143 C130.70614,62.0024082 130.562918,59.4287755 127.125593,56.4262041 C124.977264,54.4244898 122.828936,53.5666122 120.680608,53.5666122 C116.813617,53.5666122 107.504195,58.9998367 97.3354407,66.2917959 C107.93386,48.5623265 115.238176,37.552898 121.253495,29.2600816 C130.133252,16.9638367 130.562918,9.52889796 127.268815,7.38420408 C125.550152,6.24036735 121.969605,4.81057143 118.389058,3.80971429 C117.100061,3.38077551 116.527173,3.38077551 115.094954,5.3824898 C102.491429,24.9706939 84.7319149,51.2789388 69.9800608,73.8697143 C62.8189666,84.8791429 59.6680851,90.3123673 59.6680851,94.1728163 C59.6680851,97.1753878 61.3867477,99.177102 65.969848,101.178816 C69.5503951,102.751592 72.2716109,103.46649 73.8470517,103.46649 C75.9953799,103.46649 77.141155,101.893714 81.5810334,93.8868571 C83.0132523,91.1702449 84.588693,88.5966122 86.0209119,86.0229796 C95.3303343,76.1573878 104.496535,68.2935102 110.798298,64.0041224 C106.788085,71.5820408 99.483769,80.1608163 95.9032219,87.8817143 C93.7548936,92.886 94.9006687,97.1753878 98.4812158,100.749878 C101.632097,103.752449 103.923647,105.039265 107.647416,105.039265 L107.647416,105.039265 Z"></path>
            <path d="M151.473313,105.754163 C146.030881,105.754163 141.591003,103.752449 135.432462,96.4604898 C130.419696,90.5983265 128.557812,81.4476327 139.013009,67.7215918 C146.460547,57.9989796 159.493739,49.8491429 168.803161,49.8491429 C171.667599,49.8491429 173.959149,50.85 176.107477,52.2797959 C178.255805,53.7095918 179.401581,54.4244898 180.690578,56.2832245 C183.411793,58.4279184 185.560122,61.716449 185.560122,64.7190204 C185.560122,69.0084082 182.982128,73.1548163 173.386261,79.3029388 C168.373495,82.4484898 160.639514,85.88 150.47076,89.3115102 C150.041094,91.5991837 149.897872,93.4579184 150.47076,94.8877143 C151.759757,95.6026122 153.335198,95.8885714 155.197082,95.8885714 C165.938723,95.8885714 181.549909,87.1668163 191.575441,73.8697143 L192.005106,73.2977959 C193.00766,72.0109796 193.294103,71.868 193.723769,72.2969388 L194.153435,72.7258776 C195.155988,73.7267347 195.012766,74.4416327 194.439878,75.4424898 L194.010213,76.1573878 C184.127903,92.6000408 165.938723,105.754163 151.473313,105.754163 Z M169.376049,73.7267347 C174.675258,69.8662857 178.112584,65.1479592 176.680365,60.1436735 C168.803161,61.8594286 158.204742,72.4399184 153.191976,82.3055102 C159.63696,79.588898 165.509058,76.5863265 169.376049,73.7267347 Z"></path>
            <path d="M195.872097,102.894571 C197.447538,102.894571 198.736535,101.750735 204.46541,93.1719592 C218.214711,72.2969388 235.401337,55.8542857 249.866748,46.8465714 C250.296413,46.5606122 250.582857,46.2746531 250.582857,45.9886939 C250.582857,45.7027347 249.723526,45.1308163 249.29386,44.7018776 C248.291307,43.844 248.004863,43.129102 246.859088,43.129102 C245.713313,43.129102 243.708207,43.844 240.557325,45.4167755 C234.11234,48.4193469 226.808024,53.4236327 218.644377,60.8585714 C219.217264,58.8568571 219.503708,56.9981224 219.503708,55.4253469 C219.503708,53.4236327 218.930821,51.7078776 217.212158,50.7070204 C215.207052,49.5631837 213.488389,49.4202041 211.053617,48.5623265 C210.194286,48.2763673 209.048511,48.2763673 208.618845,49.2772245 C206.470517,53.4236327 197.161094,66.5777551 191.575441,73.8697143 C184.414347,83.1633878 181.693131,89.8834286 181.693131,94.0298367 C181.693131,98.7481633 185.4169,100.03498 189.713556,101.178816 C193.723769,102.322653 194.869544,102.894571 195.872097,102.894571 L195.872097,102.894571 Z"></path>
            <path d="M250.296413,104.467347 C244.137872,104.467347 240.12766,102.036694 236.260669,98.0332653 C229.958906,91.1702449 228.669909,80.5897551 237.549666,68.8654286 C244.71076,59.2857959 256.88462,49.8491429 266.623708,49.8491429 C271.35003,49.8491429 276.935684,52.7087347 278.797568,55.5683265 C282.664559,57.141102 284.526444,61.4304898 284.526444,66.5777551 C284.526444,67.7215918 284.383222,68.8654286 284.24,70.0092653 C293.692644,69.2943673 300.280851,64.862 306.439392,58.7138776 L307.01228,58.1419592 C308.158055,56.9981224 308.58772,57.141102 309.017386,57.7130204 L309.30383,58.1419592 C309.876717,58.9998367 309.876717,59.7147347 309.160608,60.5726122 L308.58772,61.2875102 C303.574954,67.5786122 294.12231,75.013551 282.664559,76.0144082 C281.662006,79.0169796 280.229787,82.019551 278.654347,84.7361633 C271.779696,96.6034694 261.324498,104.467347 250.296413,104.467347 Z M254.306626,80.4467755 C251.155745,85.3080816 249.29386,90.1693878 250.00997,94.3157959 C259.605836,91.8851429 269.05848,83.8782857 274.500912,75.4424898 C268.485593,74.0126939 266.050821,70.0092653 266.050821,66.1488163 C262.040608,69.8662857 257.887173,74.7275918 254.306626,80.4467755 Z"></path>
            <path d="M272.209362,62.7173061 C272.209362,62.1453878 272.352584,61.716449 272.352584,61.4304898 C273.928024,60.4296327 275.360243,59.8577143 276.64924,59.4287755 C277.938237,59.8577143 278.654347,61.4304898 278.654347,63.4322041 C278.654347,65.2909388 278.224681,67.2926531 277.508571,69.4373469 C273.641581,68.2935102 272.209362,65.7198776 272.209362,62.7173061 L272.209362,62.7173061 Z"></path>
            <path d="M331.646444,105.039265 C338.521094,105.039265 349.262736,98.7481633 356.137386,92.886 C357.569605,91.5991837 357.856049,89.5974694 357.856049,87.8817143 C357.856049,86.8808571 357.426383,86.4519184 356.567052,87.0238367 C348.546626,92.6000408 342.244863,94.6017551 339.523647,94.6017551 C338.95076,94.6017551 338.521094,94.4587755 338.091429,94.3157959 C342.674529,84.8791429 349.405957,76.5863265 352.843283,69.2943673 C355.850942,62.8602857 355.278055,59.1428163 352.413617,57.141102 C349.119514,54.710449 346.684742,53.5666122 344.966079,53.5666122 C343.390638,53.5666122 341.385532,54.2815102 338.377872,56.1402449 C335.083769,58.1419592 330.500669,61.8594286 324.915015,67.0066939 C326.7769,63.0032653 327.779453,60.2866531 327.779453,58.7138776 C327.779453,56.1402449 326.7769,55.2823673 322.909909,52.5657551 C320.475137,50.85 317.610699,49.5631837 316.035258,49.5631837 C313.170821,49.5631837 310.019939,53.5666122 294.695198,73.8697143 C287.390881,83.5923265 284.096778,90.3123673 284.096778,94.7447347 C284.096778,97.7473061 286.101884,99.892 288.966322,100.606898 C292.403647,101.464776 295.697751,102.608612 297.559635,102.608612 C298.991854,102.608612 300.710517,101.321796 303.431733,97.6043265 C315.319149,81.0186939 325.344681,72.1539592 332.792219,67.7215918 C330.787112,73.0118367 324.771793,79.7318776 320.331915,89.740449 C319.042918,92.886 319.042918,96.3175102 321.048024,99.4630612 C322.766687,102.179673 327.063343,105.039265 331.646444,105.039265 L331.646444,105.039265 Z"></path>
            <path d="M419.727903,62.5743265 C424.597447,66.0058367 426.745775,68.4364898 426.745775,72.4399184 C426.745775,81.5906122 409.988815,91.1702449 380.055441,96.031551 C377.477447,96.4604898 377.334225,100.177959 383.349544,106.183102 C387.073313,109.900571 390.367416,112.045265 395.380182,112.045265 C401.681945,112.045265 413.569362,108.899714 425.6,101.321796 C434.622979,95.6026122 440.638298,88.3106531 440.638298,80.4467755 C440.638298,70.8671429 433.19076,64.7190204 425.456778,59.1428163 C420.873678,55.8542857 418.438906,53.5666122 418.438906,50.4210612 C418.438906,45.5597551 423.30845,39.2686531 441.497629,30.546898 C452.096049,25.5426122 465.415684,20.5383265 480.31076,16.534898 C481.742979,16.1059592 481.742979,13.8182857 478.305653,9.38591837 C474.438663,4.23865306 471.144559,2.09395918 465.558906,2.09395918 C457.395258,2.09395918 439.778967,8.24208163 425.456778,17.3927755 C413.139696,25.2566531 405.119271,33.4064898 405.119271,44.7018776 C405.119271,52.8517143 411.850699,56.9981224 419.727903,62.5743265 L419.727903,62.5743265 Z"></path>
            <path d="M461.978359,104.467347 C474.868328,104.467347 493.343951,84.4502041 498.356717,76.1573878 L498.786383,75.4424898 C499.359271,74.4416327 499.502492,73.7267347 498.499939,72.7258776 L498.070274,72.2969388 C497.640608,71.868 497.354164,72.0109796 496.351611,73.2977959 L495.921945,73.8697143 C485.466748,87.8817143 476.443769,93.4579184 465.272462,94.1728163 C466.275015,89.025551 472.433556,79.0169796 488.331185,54.710449 L495.778723,52.9946939 C501.077933,51.7078776 501.221155,50.85 502.939818,50.5640408 C504.65848,50.2780816 505.947477,48.8482857 505.947477,47.2755102 C505.947477,46.7035918 505.804255,46.2746531 504.372036,46.2746531 C501.507599,46.2746531 497.78383,46.4176327 493.630395,46.5606122 C502.510152,32.8345714 503.799149,29.5460408 497.78383,24.5417551 C495.205836,22.2540816 494.489726,19.9664082 492.48462,19.9664082 C491.338845,19.9664082 489.620182,21.1102449 485.323526,26.8294286 C479.881094,33.9784082 475.01155,40.8414286 469.71234,48.5623265 C465.84535,48.9912653 461.978359,49.5631837 458.541033,49.9921224 C456.249483,50.2780816 455.819818,50.7070204 455.819818,51.2789388 C455.819818,52.4227755 457.395258,55.2823673 459.257143,56.9981224 C460.402918,57.9989796 461.119027,58.4279184 462.980912,58.4279184 C459.973252,63.1462449 456.679149,68.1505306 452.95538,73.8697143 C443.789179,87.8817143 444.505289,93.8868571 450.66383,99.6060408 C454.674043,103.46649 458.827477,104.467347 461.978359,104.467347 L461.978359,104.467347 Z"></path>
            <path d="M529.292644,98.4622041 C531.584195,100.03498 534.162188,101.321796 536.883404,101.321796 C548.341155,101.321796 562.090456,84.4502041 567.103222,76.1573878 L567.532888,75.4424898 C568.105775,74.5846122 568.248997,73.7267347 567.246444,72.7258776 L566.816778,72.2969388 C566.387112,71.868 566.100669,72.0109796 565.098116,73.2977959 L564.66845,73.8697143 C554.499696,87.4527755 547.625046,91.7421633 542.325836,92.3140816 C543.328389,84.0212653 552.49459,70.4382041 555.215805,65.0049796 C557.937021,59.7147347 556.648024,57.4270612 550.489483,56.5691837 C547.625046,56.1402449 542.898723,55.7113061 541.180061,55.7113061 C540.034286,55.7113061 539.318176,56.2832245 538.458845,57.9989796 C525.998541,82.1625306 514.970456,90.1693878 508.955137,91.3132245 C512.24924,84.0212653 518.407781,78.0161224 526.571429,64.2900816 C529.72231,58.9998367 530.868085,53.4236327 525.425653,51.564898 C522.417994,50.5640408 516.975562,49.8491429 514.970456,49.8491429 C513.108571,49.8491429 512.24924,50.7070204 511.246687,52.5657551 C510.244134,54.5674694 505.088146,61.716449 495.921945,73.8697143 C490.336292,81.3046531 487.758298,86.8808571 487.758298,91.3132245 C487.758298,94.8877143 489.047295,97.7473061 493.343951,100.749878 C496.781277,103.037551 499.502492,104.181388 502.36693,104.181388 C508.525471,104.181388 516.545897,97.7473061 524.709544,87.4527755 C523.706991,91.7421633 524.709544,95.3166531 529.292644,98.4622041 L529.292644,98.4622041 Z"></path>
            <path d="M592.596717,95.0306939 C592.02383,93.7438776 591.880608,91.7421633 592.02383,89.5974694 C584.719514,98.1762449 577.128754,104.038408 571.256657,104.038408 C568.248997,104.038408 565.384559,102.322653 562.233678,98.4622041 C559.36924,96.3175102 556.075137,92.171102 556.075137,86.594898 C556.075137,82.3055102 557.793799,77.1582449 562.090456,71.5820408 C572.688875,57.5700408 588.300061,49.4202041 596.750152,49.4202041 C599.61459,49.4202041 603.051915,51.4219184 605.773131,54.4244898 C616.228328,37.8388571 632.269179,13.5323265 641.292158,1.52204082 C642.294711,0.23522449 643.297264,0.092244898 644.299818,0.807142857 C646.448146,2.37991837 649.455805,5.09653061 651.890578,7.38420408 C654.468571,9.81485714 654.755015,14.3902041 651.031246,20.1093878 C645.445593,28.4022041 637.281945,40.8414286 630.120851,52.5657551 C618.233435,72.0109796 612.504559,83.3063673 612.361337,92.0281224 C618.090213,89.740449 624.821641,84.3072245 632.698845,73.8697143 L633.128511,73.2977959 C634.131064,72.0109796 634.417508,71.868 634.847173,72.2969388 L635.276839,72.7258776 C636.279392,73.7267347 636.13617,74.5846122 635.563283,75.4424898 L635.133617,76.1573878 C629.977629,84.8791429 614.796109,102.322653 601.333252,102.322653 C597.179818,102.322653 594.172158,99.0341224 592.596717,95.0306939 Z M572.975319,93.7438776 C580.279635,91.0272653 587.727173,85.165102 594.31538,77.5871837 C595.890821,72.4399184 598.325593,66.8637143 601.619696,61.001551 C586.008511,66.8637143 572.402432,83.1633878 572.975319,93.7438776 Z"></path>
            <path d="M660.913556,39.1256735 C661.916109,39.8405714 664.923769,40.698449 666.928875,40.698449 C669.077204,40.698449 671.08231,40.4124898 673.37386,37.8388571 C675.092523,36.123102 679.245957,32.2626531 682.969726,28.5451837 C684.115502,27.4013469 683.399392,26.5434694 681.967173,25.3996327 C680.391733,23.9698367 676.811185,22.111102 673.803526,21.2532245 C672.657751,20.9672653 671.368754,21.8251429 669.220426,24.2557959 C666.355988,27.4013469 663.061884,31.9766939 660.913556,36.5520408 C660.340669,37.8388571 660.340669,38.6967347 660.913556,39.1256735 L660.913556,39.1256735 Z"></path>
            <path d="M638.857386,104.324367 C649.599027,104.324367 665.926322,86.8808571 672.371307,76.1573878 L672.800973,75.4424898 C673.37386,74.4416327 673.517082,73.7267347 672.514529,72.7258776 L672.084863,72.2969388 C671.655198,71.868 671.368754,72.0109796 670.366201,73.2977959 L669.936535,73.8697143 C657.476231,90.4553469 648.453252,94.6017551 641.721824,95.1736735 C643.440486,90.0264082 648.166809,82.4484898 656.044012,71.2960816 C661.056778,64.2900816 663.921216,59.2857959 663.921216,56.4262041 C663.921216,50.9929796 654.898237,50.2780816 651.31769,50.2780816 C650.171915,50.2780816 649.599027,50.5640408 649.02614,51.2789388 C645.875258,54.8534286 638.714164,64.7190204 632.698845,73.8697143 C621.957204,90.4553469 622.243647,93.7438776 628.688632,99.6060408 C632.698845,102.894571 634.703951,104.324367 638.857386,104.324367 L638.857386,104.324367 Z"></path>
            <path d="M682.110395,104.467347 C675.951854,104.467347 671.941641,102.036694 668.07465,98.0332653 C661.772888,91.1702449 660.483891,80.5897551 669.363647,68.8654286 C676.524742,59.2857959 688.698602,49.8491429 698.43769,49.8491429 C703.164012,49.8491429 708.749666,52.7087347 710.61155,55.5683265 C714.478541,57.141102 716.340426,61.4304898 716.340426,66.5777551 C716.340426,67.7215918 716.197204,68.8654286 716.053982,70.0092653 C725.506626,69.2943673 732.094833,64.862 738.253374,58.7138776 L738.826261,58.1419592 C739.972036,56.9981224 740.401702,57.141102 740.831368,57.7130204 L741.117812,58.1419592 C741.690699,58.9998367 741.690699,59.7147347 740.97459,60.5726122 L740.401702,61.2875102 C735.388936,67.5786122 725.936292,75.013551 714.478541,76.0144082 C713.475988,79.0169796 712.043769,82.019551 710.468328,84.7361633 C703.593678,96.6034694 693.13848,104.467347 682.110395,104.467347 Z M686.120608,80.4467755 C682.969726,85.3080816 681.107842,90.1693878 681.823951,94.3157959 C691.419818,91.8851429 700.872462,83.8782857 706.314894,75.4424898 C700.299574,74.0126939 697.864802,70.0092653 697.864802,66.1488163 C693.85459,69.8662857 689.701155,74.7275918 686.120608,80.4467755 Z"></path>
            <path d="M704.023343,62.7173061 C704.023343,62.1453878 704.166565,61.716449 704.166565,61.4304898 C705.742006,60.4296327 707.174225,59.8577143 708.463222,59.4287755 C709.752219,59.8577143 710.468328,61.4304898 710.468328,63.4322041 C710.468328,65.2909388 710.038663,67.2926531 709.322553,69.4373469 C705.455562,68.2935102 704.023343,65.7198776 704.023343,62.7173061 L704.023343,62.7173061 Z"></path>
            <path d="M745.987356,92.7430204 C745.987356,83.1633878 737.394043,79.588898 737.394043,74.8705714 C737.394043,72.0109796 740.25848,70.7241633 745.55769,68.8654286 C755.010334,65.576898 759.450213,62.4313469 759.450213,57.4270612 C759.450213,55.5683265 758.590881,52.2797959 755.44,48.2763673 C753.291672,45.5597551 751.716231,45.1308163 750.8569,45.8457143 C741.404255,51.8508571 725.79307,53.5666122 725.79307,66.8637143 C725.79307,75.4424898 734.099939,77.5871837 734.099939,82.734449 C734.099939,89.8834286 721.639635,98.1762449 713.332766,100.892857 C711.900547,101.321796 712.473435,103.46649 715.051429,105.754163 C718.20231,108.470776 721.782857,110.186531 726.652401,110.186531 C731.378723,110.186531 735.102492,108.470776 738.253374,106.183102 C743.552584,102.179673 745.987356,97.4613469 745.987356,92.7430204 L745.987356,92.7430204 Z"></path>
        </g>
    </g>
</svg>