<?xml version="1.0" encoding="UTF-8"?>
<svg width="960px" height="540px" viewBox="0 0 960 540" version="1.1" xmlns="http://www.w3.org/2000/svg" xmlns:xlink="http://www.w3.org/1999/xlink">
    <!-- Generator: Sketch 53.2 (72643) - https://sketchapp.com -->
    <title>theronindustries</title>
    <desc>Created with Sketch.</desc>
    <g id="theronindustries" stroke="none" stroke-width="1" fill="none" fill-rule="evenodd">
        <g id="bw" transform="translate(98.000000, 156.000000)" fill="#1D1D1F">
            <g id="Industries" transform="translate(0.502497, 161.317079)">
                <polygon id="---" points="0.062343624 64.679618 756.794952 64.679618 756.794952 66.5819597 0.062343624 66.5819597"></polygon>
                <polygon id="---" points="0.062343624 0 756.794952 0 756.794952 1.90234171 0.062343624 1.90234171"></polygon>
                <path d="M25.091394,45.8752153 L25.091394,20.462249 L26.911034,20.462249 L26.911034,45.8752153 L25.091394,45.8752153 Z M90.4870311,45.8752153 L90.4870311,20.462249 L92.39951,20.462249 L108.664864,43.1404378 L108.664864,20.462249 L110.447369,20.462249 L110.447369,45.8752153 L108.553458,45.8752153 L92.2695357,23.5132933 L92.2695357,45.8752153 L90.4870311,45.8752153 Z M174.023366,45.8752153 L174.023366,20.462249 L180.949139,20.462249 C183.028738,20.462249 184.935009,20.7102989 186.668008,21.2064061 C188.401007,21.7025134 189.895696,22.4652668 191.152121,23.4946893 C192.408545,24.5241119 193.386437,25.8387763 194.085826,27.4387222 C194.785215,29.038668 195.134904,30.942451 195.134904,33.1501282 C195.134904,35.3578054 194.785215,37.2615884 194.085826,38.8615342 C193.386437,40.4614801 192.408545,41.7823458 191.152121,42.824171 C189.895696,43.8659962 188.401007,44.6349509 186.668008,45.1310581 C184.935009,45.6271654 183.028738,45.8752153 180.949139,45.8752153 L174.023366,45.8752153 Z M175.843006,44.1636539 L181.320494,44.1636539 C183.115386,44.1636539 184.743143,43.940409 186.203814,43.4939124 C187.664485,43.0474159 188.914701,42.3683793 189.954501,41.4567823 C190.9943,40.5451852 191.792706,39.3948538 192.349741,38.0057535 C192.906777,36.6166533 193.18529,34.9981277 193.18529,33.1501282 C193.18529,31.2897261 192.900587,29.6743011 192.331173,28.3038048 C191.761759,26.9333086 190.950975,25.7922791 189.898797,24.880682 C188.846619,23.9690849 187.574741,23.2900484 186.083123,22.8435518 C184.591506,22.3970553 182.904952,22.1738104 181.02341,22.1738104 L175.843006,22.1738104 L175.843006,44.1636539 Z M257.374023,35.7360743 L257.374023,20.462249 L259.193663,20.462249 L259.193663,34.7872739 C259.193663,36.2383876 259.308163,37.5716558 259.537167,38.7871185 C259.76617,40.0025813 260.177751,41.0567933 260.771922,41.9497864 C261.366094,42.8427794 262.170688,43.5373191 263.185731,44.0334264 C264.200773,44.5295336 265.494314,44.7775835 267.066392,44.7775835 C268.63847,44.7775835 269.93201,44.5295336 270.947053,44.0334264 C271.962095,43.5373191 272.76669,42.8427794 273.360861,41.9497864 C273.955032,41.0567933 274.366613,40.0025813 274.595617,38.7871185 C274.82462,37.5716558 274.93912,36.2383876 274.93912,34.7872739 L274.93912,20.462249 L276.75876,20.462249 L276.75876,35.7360743 C276.75876,37.2367987 276.600936,38.6413812 276.285283,39.9498641 C275.969629,41.2583469 275.437359,42.3962758 274.688456,43.3636849 C273.939552,44.3310941 272.946187,45.0938475 271.708331,45.6519681 C270.470474,46.2100888 268.923177,46.4891449 267.066392,46.4891449 C265.209607,46.4891449 263.662309,46.2100888 262.424453,45.6519681 C261.186596,45.0938475 260.193231,44.3310941 259.444328,43.3636849 C258.695425,42.3962758 258.163154,41.2583469 257.847501,39.9498641 C257.531847,38.6413812 257.374023,37.2367987 257.374023,35.7360743 L257.374023,35.7360743 Z M338.663659,42.5265082 L340.000538,41.2242332 C340.867037,42.2660584 341.900632,43.1187299 343.101353,43.7822733 C344.302074,44.4458168 345.762723,44.7775835 347.483344,44.7775835 C348.473629,44.7775835 349.380345,44.6628604 350.20352,44.4334108 C351.026694,44.2039612 351.738451,43.8659932 352.338812,43.4194967 C352.939172,42.9730002 353.403361,42.4148879 353.731393,41.7451432 C354.059425,41.0753984 354.223439,40.2940412 354.223439,39.4010482 C354.223439,38.4584444 354.037763,37.6584835 353.666406,37.0011414 C353.295049,36.3437993 352.806103,35.7918883 352.199554,35.3453918 C351.593004,34.8988953 350.902909,34.5361223 350.129249,34.257062 C349.355588,33.9780016 348.578845,33.7206499 347.798995,33.4849989 C346.833467,33.2369453 345.867954,32.9547885 344.902425,32.6385202 C343.936897,32.3222518 343.073505,31.9036676 342.312223,31.382755 C341.550942,30.8618424 340.938212,30.2014095 340.474016,29.4014366 C340.009819,28.6014637 339.777725,27.5627547 339.777725,26.2852786 C339.777725,25.4170909 339.954117,24.592325 340.306906,23.8109561 C340.659695,23.0295872 341.173398,22.34745 341.84803,21.764524 C342.522661,21.181598 343.345824,20.7165044 344.317541,20.3692293 C345.289259,20.0219543 346.400218,19.8483194 347.650453,19.8483194 C348.71501,19.8483194 349.658861,19.9630424 350.482036,20.192492 C351.305211,20.4219416 352.026251,20.707199 352.64518,21.0482727 C353.264108,21.3893465 353.784,21.7645219 354.204871,22.1738104 C354.625742,22.5830989 354.972337,22.9799787 355.244666,23.3644618 L353.96349,24.4620936 C353.740676,24.1520266 353.449784,23.8264611 353.090806,23.4853874 C352.731827,23.1443136 352.298584,22.82805 351.791063,22.536587 C351.283542,22.245124 350.680096,22.0032754 349.980707,21.8110338 C349.281318,21.6187922 348.473628,21.5226729 347.557615,21.5226729 C346.517815,21.5226729 345.626572,21.662201 344.883858,21.9412613 C344.141144,22.2203216 343.528414,22.5892959 343.04565,23.048195 C342.562886,23.5070942 342.207007,24.0217978 341.978004,24.5923211 C341.749,25.1628444 341.6345,25.7519629 341.6345,26.3596943 C341.6345,27.2774927 341.844933,28.0340449 342.265804,28.6293736 C342.686675,29.2247023 343.237513,29.7208021 343.918334,30.1176879 C344.599155,30.5145737 345.36352,30.8401392 346.211452,31.0943941 C347.059384,31.3486491 347.916587,31.5873971 348.783086,31.8106454 C349.674343,32.0338936 350.562492,32.319151 351.447559,32.6664261 C352.332627,33.0137011 353.124843,33.4725934 353.824232,34.0431168 C354.523621,34.6136401 355.093027,35.3298842 355.532466,36.1918705 C355.971905,37.0538568 356.191621,38.123572 356.191621,39.4010482 C356.191621,40.4924841 355.965716,41.4753818 355.513898,42.3497708 C355.06208,43.2241598 354.44935,43.9683095 353.67569,44.5822423 C352.90203,45.196175 351.982935,45.6674698 350.918378,45.9961408 C349.853822,46.3248119 348.708822,46.4891449 347.483344,46.4891449 C346.418787,46.4891449 345.431611,46.3744218 344.521786,46.1449722 C343.611962,45.9155226 342.78261,45.6178628 342.033707,45.2519837 C341.284804,44.8861046 340.625655,44.4675204 340.056241,43.9962185 C339.486827,43.5249166 339.022638,43.0350181 338.663659,42.5265082 L338.663659,42.5265082 Z M415.181382,22.0993947 L415.181382,20.462249 L436.701412,20.462249 L436.701412,22.0993947 L426.860501,22.0993947 L426.860501,45.8752153 L425.040861,45.8752153 L425.040861,22.0993947 L415.181382,22.0993947 Z M497.956439,45.8752153 L497.956439,20.462249 L505.606355,20.462249 C507.252704,20.462249 508.645272,20.6389845 509.7841,20.992461 C510.922928,21.3459374 511.848212,21.8482384 512.559979,22.4993792 C513.271747,23.1505199 513.78545,23.9132734 514.101103,24.7876624 C514.416756,25.6620514 514.574581,26.6201441 514.574581,27.6619693 C514.574581,29.3115259 514.150621,30.7781209 513.30269,32.0617984 C512.454758,33.3454759 511.10242,34.2043487 509.245635,34.6384425 L515.298723,45.8752153 L513.200567,45.8752153 L507.314588,34.8616896 L499.776079,34.8616896 L499.776079,45.8752153 L497.956439,45.8752153 Z M499.776079,33.1501282 L506.367633,33.1501282 C510.551588,33.1501282 512.643534,31.3207602 512.643534,27.6619693 C512.643534,25.8387752 512.089602,24.4682995 510.98172,23.5505011 C509.873838,22.6327027 508.255365,22.1738104 506.126252,22.1738104 L499.776079,22.1738104 L499.776079,33.1501282 Z M577.649248,45.8752153 L577.649248,20.462249 L579.468889,20.462249 L579.468889,45.8752153 L577.649248,45.8752153 Z M643.044886,45.8752153 L643.044886,20.462249 L658.251878,20.462249 L658.251878,22.1738104 L644.864526,22.1738104 L644.864526,31.7734375 L655.33674,31.7734375 L655.33674,33.4849989 L644.864526,33.4849989 L644.864526,44.1636539 L659.254537,44.1636539 L659.254537,45.8752153 L643.044886,45.8752153 Z M719.191254,42.5265082 L720.528132,41.2242332 C721.394632,42.2660584 722.428226,43.1187299 723.628947,43.7822733 C724.829668,44.4458168 726.290317,44.7775835 728.010938,44.7775835 C729.001223,44.7775835 729.907939,44.6628604 730.731114,44.4334108 C731.554289,44.2039612 732.266045,43.8659932 732.866406,43.4194967 C733.466766,42.9730002 733.930956,42.4148879 734.258988,41.7451432 C734.58702,41.0753984 734.751033,40.2940412 734.751033,39.4010482 C734.751033,38.4584444 734.565357,37.6584835 734.194,37.0011414 C733.822643,36.3437993 733.333697,35.7918883 732.727148,35.3453918 C732.120598,34.8988953 731.430503,34.5361223 730.656843,34.257062 C729.883183,33.9780016 729.106439,33.7206499 728.32659,33.4849989 C727.361061,33.2369453 726.395548,32.9547885 725.43002,32.6385202 C724.464491,32.3222518 723.601099,31.9036676 722.839818,31.382755 C722.078536,30.8618424 721.465806,30.2014095 721.00161,29.4014366 C720.537414,28.6014637 720.305319,27.5627547 720.305319,26.2852786 C720.305319,25.4170909 720.481711,24.592325 720.8345,23.8109561 C721.187289,23.0295872 721.700992,22.34745 722.375624,21.764524 C723.050256,21.181598 723.873418,20.7165044 724.845135,20.3692293 C725.816853,20.0219543 726.927812,19.8483194 728.178047,19.8483194 C729.242604,19.8483194 730.186456,19.9630424 731.00963,20.192492 C731.832805,20.4219416 732.553846,20.707199 733.172774,21.0482727 C733.791702,21.3893465 734.311594,21.7645219 734.732465,22.1738104 C735.153337,22.5830989 735.499931,22.9799787 735.77226,23.3644618 L734.491084,24.4620936 C734.26827,24.1520266 733.977378,23.8264611 733.6184,23.4853874 C733.259422,23.1443136 732.826178,22.82805 732.318657,22.536587 C731.811136,22.245124 731.20769,22.0032754 730.508301,21.8110338 C729.808912,21.6187922 729.001223,21.5226729 728.085209,21.5226729 C727.045409,21.5226729 726.154166,21.662201 725.411452,21.9412613 C724.668738,22.2203216 724.056008,22.5892959 723.573244,23.048195 C723.09048,23.5070942 722.734601,24.0217978 722.505598,24.5923211 C722.276595,25.1628444 722.162095,25.7519629 722.162095,26.3596943 C722.162095,27.2774927 722.372527,28.0340449 722.793398,28.6293736 C723.214269,29.2247023 723.765107,29.7208021 724.445929,30.1176879 C725.12675,30.5145737 725.891115,30.8401392 726.739046,31.0943941 C727.586978,31.3486491 728.444181,31.5873971 729.310681,31.8106454 C730.201937,32.0338936 731.090086,32.319151 731.975154,32.6664261 C732.860221,33.0137011 733.652437,33.4725934 734.351826,34.0431168 C735.051215,34.6136401 735.620621,35.3298842 736.06006,36.1918705 C736.499499,37.0538568 736.719215,38.123572 736.719215,39.4010482 C736.719215,40.4924841 736.49331,41.4753818 736.041492,42.3497708 C735.589674,43.2241598 734.976945,43.9683095 734.203284,44.5822423 C733.429624,45.196175 732.510529,45.6674698 731.445973,45.9961408 C730.381416,46.3248119 729.236416,46.4891449 728.010938,46.4891449 C726.946381,46.4891449 725.959205,46.3744218 725.049381,46.1449722 C724.139556,45.9155226 723.310205,45.6178628 722.561301,45.2519837 C721.812398,44.8861046 721.153249,44.4675204 720.583835,43.9962185 C720.014421,43.5249166 719.550232,43.0350181 719.191254,42.5265082 L719.191254,42.5265082 Z" id="INDUSTRIES"></path>
            </g>
            <g id="Theron" transform="translate(0.062344, 0.000000)">
                <path d="M527.703739,0.836483615 C523.316443,0.836483615 517.972856,3.91243831 515.786482,7.67662633 L485.084664,60.5427023 C482.890355,64.3213934 482.899614,70.4587997 485.084664,74.2229878 L515.786482,127.090382 C517.980792,130.867755 523.307184,133.929206 527.703739,133.929206 L589.106051,133.929206 C593.493348,133.929206 598.835612,130.853252 601.021986,127.090382 L631.722481,74.2229878 C633.915468,70.4456152 633.907532,64.3068904 631.722481,60.5427023 L601.020663,7.67662633 C598.826354,3.89925376 593.501284,0.836483615 589.103406,0.836483615 L527.703739,0.836483615 L527.703739,0.836483615 Z M558.404234,104.779493 C537.778517,104.779493 521.057322,88.0720354 521.057322,67.4645892 C521.057322,46.8571431 537.77984,30.1510043 558.404234,30.1510043 C579.028628,30.1510043 595.749823,46.8571431 595.749823,67.4645892 C595.7485,88.0720354 579.028628,104.779493 558.404234,104.779493 L558.404234,104.779493 Z" id="O"></path>
                <path d="M645.067291,130.19572 L645.067291,3.31101404 L675.704089,3.31101404 L724.351609,74.0915013 L724.351609,3.31101404 L757.587892,3.31101404 L757.587892,130.19572 L728.900709,130.19572 L678.303574,57.3717012 L678.303574,130.19572 L645.067291,130.19572 Z M376.874624,130.879611 L376.874624,3.99490588 L429.328534,3.99490588 C436.198638,3.99490588 442.387829,4.87733095 447.89629,6.64220757 C453.404752,8.40708419 458.12401,11.0388783 462.054204,14.5376688 C465.984399,18.0364592 469.032575,22.38666 471.198824,27.5884016 C473.365073,32.7901433 474.448181,38.7968262 474.448181,45.6086307 C474.448181,53.9685726 472.606897,61.229228 468.924274,67.3908148 C465.241651,73.5524016 460.336718,78.4908857 454.209327,82.2064155 L481.41109,130.879611 L445.296805,130.879611 L423.851046,87.6867944 L409.739552,87.6867944 L409.739552,130.879611 L376.874624,130.879611 Z M409.739552,61.2137775 L426.079177,61.2137775 C430.535461,61.2137775 434.156137,59.851437 436.941314,57.1267152 C439.726492,54.4019934 441.119059,50.7794063 441.119059,46.2588451 C441.119059,41.4286565 439.788384,37.6202957 437.126992,34.8336484 C434.4656,32.0470011 430.72114,30.6536983 425.8935,30.6536983 L409.739552,30.6536983 L409.739552,61.2137775 Z M264.168345,130.879611 L264.168345,3.99490588 L355.428866,3.99490588 L355.428866,33.0687806 L297.775983,33.0687806 L297.775983,52.6681019 L345.123761,52.6681019 L345.123761,80.0699966 L297.775983,80.0699966 L297.775983,101.805737 L359.420933,101.805737 L359.420933,130.879611 L264.168345,130.879611 Z M127.323983,130.879611 L127.323983,3.99490588 L160.931622,3.99490588 L160.931622,50.4387952 L207.722367,50.4387952 L207.722367,3.99490588 L241.422844,3.99490588 L241.422844,130.879611 L207.722367,130.879611 L207.722367,81.1846499 L160.931622,81.1846499 L160.931622,130.879611 L127.323983,130.879611 Z M0.506210079,33.4403317 L0.506210079,3.99490588 L112.098424,3.99490588 L112.098424,33.4403317 L73.4774911,33.4403317 L73.4774911,130.879611 L39.4984976,130.879611 L39.4984976,33.4403317 L0.506210079,33.4403317 Z" id="THER"></path>
            </g>
        </g>
    </g>
</svg>