<?xml version="1.0" encoding="UTF-8"?>
<svg width="960px" height="540px" viewBox="0 0 960 540" version="1.1" xmlns="http://www.w3.org/2000/svg" xmlns:xlink="http://www.w3.org/1999/xlink">
    <!-- Generator: Sketch 53.2 (72643) - https://sketchapp.com -->
    <title>theronhotels</title>
    <desc>Created with Sketch.</desc>
    <g id="theronhotels" stroke="none" stroke-width="1" fill="none" fill-rule="evenodd" stroke-linecap="round" stroke-linejoin="round">
        <path d="M439.424498,184.426625 L457.680405,184.426625 L413.015117,436.273159 C413.015117,436.273159 401.786839,436.450028 379.235367,435.492339 C355.073033,434.46576 336,415.344485 336,391.109664 C336,366.900774 357.81747,356.657427 380.336273,347.829619 C403.13151,338.893056 556.597276,280.34494 577.917744,271.997621 C600.440413,263.179294 622.25421,253.070438 622.25421,228.717188 C622.25421,204.508105 603.201088,184.639294 579.019037,184.3349 C561.028932,184.108298 544.210872,184.330837 544.210872,184.330837 L499.326948,437.828799 L517.034626,437.828799 M506.842302,144.519488 L462.033963,397.613591 M407.715108,180.628184 C407.715108,200.399659 391.703735,216.427843 371.952567,216.427843 C352.201591,216.427843 336.190025,200.399659 336.190025,180.628184 C336.190025,160.856323 352.217636,144.509038 371.968611,144.509038 L600.881355,144.509038 C613.247656,144.509038 622.838396,134.793204 622.838396,122.414263 C622.838009,110.035128 612.813286,100 600.447179,100 C588.080878,100 578.056348,110.035128 578.056348,122.414263" id="bw" stroke="#1D1D1F" stroke-width="7.65"></path>
    </g>
</svg>