<?xml version="1.0" encoding="UTF-8"?>
<svg width="960px" height="540px" viewBox="0 0 960 540" version="1.1" xmlns="http://www.w3.org/2000/svg" xmlns:xlink="http://www.w3.org/1999/xlink">
    <!-- Generator: Sketch 53.2 (72643) - https://sketchapp.com -->
    <title>todaywegive</title>
    <desc>Created with Sketch.</desc>
    <g id="todaywegive" stroke="none" stroke-width="1" fill="none" fill-rule="evenodd">
        <g id="bw" transform="translate(311.000000, 101.000000)" fill="#1D1D1F">
            <path d="M222.648975,205.134567 L195.059699,177.54529 C195.820097,175.076632 196.229437,172.454084 196.229437,169.735931 C196.229437,165.385073 195.180653,161.279172 193.322106,157.657248 L219.645521,131.333833 L219.705256,131.393568 L262.315274,88.7835498 L338.999993,88.7835498 L258.047615,169.735927 L338.999993,250.688304 L268.20272,250.688312 L222.648975,205.134567 Z M208.07829,219.705252 L250.688312,262.315274 L250.688312,338.999986 L169.735927,258.047615 L88.7835498,338.999993 L88.7835498,262.315274 L131.393568,219.705256 L131.333833,219.645521 L157.657248,193.322106 C161.279172,195.180653 165.385073,196.229437 169.735931,196.229437 C174.05516,196.229437 178.13298,195.195846 181.735547,193.362509 L208.07829,219.705252 Z M71.149672,250.688312 L0.471868658,250.688312 L81.4242389,169.735927 L0.471861545,88.7835498 L77.1565875,88.7835498 L119.766602,131.393564 L146.109352,157.736314 C144.276015,161.338881 143.242424,165.416702 143.242424,169.735931 C143.242424,172.420537 143.641723,175.011882 144.384169,177.453815 L71.149672,250.688312 Z M134.337287,116.822879 L88.7835498,71.2691417 L88.7835498,0.471861415 L169.735927,81.4242388 L250.688305,0.471861415 L250.688312,71.149672 L177.453815,144.384169 C175.011882,143.641723 172.420537,143.242424 169.735931,143.242424 C167.017777,143.242424 164.39523,143.651764 161.926571,144.412163 L134.337287,116.822879 Z" id="Combined-Shape"></path>
        </g>
    </g>
</svg>