<?xml version="1.0" encoding="UTF-8"?>
<svg width="960px" height="540px" viewBox="0 0 960 540" version="1.1" xmlns="http://www.w3.org/2000/svg" xmlns:xlink="http://www.w3.org/1999/xlink">
    <!-- Generator: Sketch 53.2 (72643) - https://sketchapp.com -->
    <title>tootytwo</title>
    <desc>Created with Sketch.</desc>
    <g id="tootytwo" stroke="none" stroke-width="1" fill="none" fill-rule="evenodd">
        <path d="M114.542996,234.789392 C114.542996,230.913557 126.151277,230.913557 141.628987,231.155797 C153.962786,212.98782 165.08739,197 168.473139,197 C171.858888,197 183.950848,210.323183 183.950848,213.956778 C183.950848,215.652456 177.904868,223.646366 170.166013,233.335954 C181.532456,236.24283 188.787632,241.814343 188.787632,245.205699 C188.787632,249.808253 174.519119,250.777212 155.8975,251.019451 C151.302555,256.833204 146.949449,262.404717 144.289218,266.280552 C133.890132,280.814934 121.072654,306.007862 121.072654,311.579374 C121.072654,317.150887 123.974725,320.542243 129.053348,320.542243 C146.223932,320.542243 162.910837,310.125936 183.709009,280.814934 C190.722346,270.883106 197.252004,283.72181 192.898898,290.504521 C178.388546,313.275052 153.237269,337.741261 127.844152,337.741261 C112.124603,337.741261 101,321.753442 101,305.038903 C101,289.293323 118.896101,263.615915 129.537026,248.597054 C119.863458,245.447938 114.542996,240.118665 114.542996,234.789392 Z M241.992257,235.273871 C257.711806,235.273871 270.529284,251.261691 270.529284,265.311593 C270.529284,275.48566 265.934339,287.839885 257.953645,298.98291 C263.274108,298.740671 270.771123,295.107075 282.379405,280.088214 C289.150903,271.367586 293.02033,284.206289 289.87642,289.293323 C280.92837,303.100985 262.54859,314.001771 247.554559,311.337135 C234.97892,323.449119 218.533854,332.411988 200.154075,332.411988 C189.029471,332.411988 175.244636,321.268962 175.244636,305.038903 C175.244636,277.908057 210.311321,235.273871 241.992257,235.273871 Z M202.814306,316.908648 C209.102125,316.908648 218.775694,308.672498 227.723744,298.013952 C226.272709,293.653637 226.514548,288.566604 229.658458,282.510611 C233.286046,275.001181 241.992257,265.553833 250.940308,261.193518 C251.907665,258.528882 252.391343,256.348725 252.391343,254.410807 C252.391343,250.050493 249.731112,246.901377 245.619845,246.901377 C232.560528,246.901377 196.042808,289.293323 196.042808,308.914738 C196.042808,313.275052 199.428557,316.908648 202.814306,316.908648 Z M339.695297,235.273871 C355.414845,235.273871 368.232323,251.261691 368.232323,265.311593 C368.232323,275.48566 363.637378,287.839885 355.656684,298.98291 C360.977147,298.740671 368.474162,295.107075 380.082444,280.088214 C386.853942,271.367586 390.723369,284.206289 387.57946,289.293323 C378.631409,303.100985 360.251629,314.001771 345.257599,311.337135 C332.68196,323.449119 316.236894,332.411988 297.857114,332.411988 C286.732511,332.411988 272.947676,321.268962 272.947676,305.038903 C272.947676,277.908057 308.014361,235.273871 339.695297,235.273871 Z M300.517345,316.908648 C306.805165,316.908648 316.478733,308.672498 325.426784,298.013952 C323.975748,293.653637 324.217588,288.566604 327.361497,282.510611 C330.989085,275.001181 339.695297,265.553833 348.643347,261.193518 C349.610704,258.528882 350.094383,256.348725 350.094383,254.410807 C350.094383,250.050493 347.434151,246.901377 343.322885,246.901377 C330.263568,246.901377 293.745848,289.293323 293.745848,308.914738 C293.745848,313.275052 297.131596,316.908648 300.517345,316.908648 Z M382.984515,234.789392 C382.984515,230.913557 394.592797,230.913557 410.070506,231.155797 C422.404305,212.98782 433.528909,197 436.914658,197 C440.300407,197 452.392367,210.323183 452.392367,213.956778 C452.392367,215.652456 446.346387,223.646366 438.607532,233.335954 C449.973975,236.24283 457.229151,241.814343 457.229151,245.205699 C457.229151,249.808253 442.960638,250.777212 424.339019,251.019451 C419.744074,256.833204 415.390968,262.404717 412.730737,266.280552 C402.331651,280.814934 389.514173,306.007862 389.514173,311.579374 C389.514173,317.150887 392.416244,320.542243 397.494867,320.542243 C414.665451,320.542243 431.352356,310.125936 452.150528,280.814934 C459.163865,270.883106 465.693523,283.72181 461.340418,290.504521 C446.830065,313.275052 421.678788,337.741261 396.285671,337.741261 C380.566123,337.741261 369.441519,321.753442 369.441519,305.038903 C369.441519,289.293323 387.33762,263.615915 397.978546,248.597054 C388.304977,245.447938 382.984515,240.118665 382.984515,234.789392 Z M538.728964,237.696268 C543.082069,237.696268 553.481155,244.721219 553.481155,248.839294 C553.481155,254.410807 548.160693,262.162477 525.185968,294.138117 C475.125252,363.660908 447.313744,378.19529 426.757411,361.96523 C420.469592,356.878197 419.744074,345.250692 429.659482,352.275643 C435.705462,356.635957 449.248457,357.362676 473.190539,326.598235 C468.837433,328.536153 464.726167,329.505112 460.856739,329.505112 C452.150528,329.505112 445.620869,321.995681 445.620869,307.945779 C445.620869,293.895877 454.327081,274.758941 465.451684,259.255601 C475.85077,244.721219 483.347785,236.00059 487.700891,236.00059 C492.295836,236.00059 502.936761,243.025542 502.936761,247.385856 C502.936761,252.715129 501.002048,254.168567 488.910087,270.398627 C469.562951,296.318274 467.386398,302.132026 465.935363,308.914738 C464.968006,313.759532 467.386398,318.119846 471.739504,316.181929 C483.347785,310.852655 505.596992,278.877016 524.70229,252.47289 C530.990109,242.783302 534.859536,237.696268 538.728964,237.696268 Z M549.611728,234.789392 C549.611728,230.913557 561.22001,230.913557 576.697719,231.155797 C589.031519,212.98782 600.156122,197 603.541871,197 C606.92762,197 619.01958,210.323183 619.01958,213.956778 C619.01958,215.652456 612.9736,223.646366 605.234746,233.335954 C616.601188,236.24283 623.856364,241.814343 623.856364,245.205699 C623.856364,249.808253 609.587851,250.777212 590.966232,251.019451 C586.371287,256.833204 582.018182,262.404717 579.35795,266.280552 C568.958865,280.814934 556.141387,306.007862 556.141387,311.579374 C556.141387,317.150887 559.043457,320.542243 564.12208,320.542243 C581.292664,320.542243 597.979569,310.125936 618.777741,280.814934 C625.791078,270.883106 632.320737,283.72181 627.967631,290.504521 C613.457279,313.275052 588.306001,337.741261 562.912884,337.741261 C547.193336,337.741261 536.068732,321.753442 536.068732,305.038903 C536.068732,289.293323 553.964834,263.615915 564.605759,248.597054 C554.932191,245.447938 549.611728,240.118665 549.611728,234.789392 Z M655.537301,233.578194 C659.890406,233.578194 670.773171,240.603145 670.773171,244.963459 C670.773171,250.292732 664.72719,251.98841 653.844426,267.97623 C639.334074,289.051083 634.013611,301.163068 634.013611,311.579374 C634.013611,317.150887 638.608556,318.846565 642.961662,317.635367 C656.746497,314.001771 679.237543,284.933008 682.139613,252.47289 C683.10697,243.510021 708.258248,254.410807 705.839855,264.342634 C704.146981,270.640866 701.48675,277.181338 697.617322,283.47957 C690.362146,299.22515 688.427433,306.492341 688.185593,313.032813 C687.943754,317.635367 693.022378,322.480161 697.859162,320.057764 C715.997102,311.094895 726.396188,275.7279 726.396188,240.845384 C726.396188,229.944598 750.580109,241.087624 750.580109,253.199609 C750.580109,281.299413 728.089062,321.753442 701.244911,332.654228 C685.767201,338.71022 670.773171,334.107666 669.563974,315.939689 C661.82512,322.237921 653.844426,327.082715 646.347411,330.231831 C630.144184,336.772302 612.731761,329.505112 612.731761,307.703539 C612.731761,290.262282 621.437972,273.063263 633.046254,256.833204 C643.687179,242.298822 650.942356,233.578194 655.537301,233.578194 Z M812.007267,235.273871 C827.726816,235.273871 840.544293,251.261691 840.544293,265.311593 C840.544293,275.48566 835.949349,287.839885 827.968655,298.98291 C833.289117,298.740671 840.786133,295.107075 852.394415,280.088214 C859.165912,271.367586 863.03534,284.206289 859.89143,289.293323 C850.943379,303.100985 832.5636,314.001771 817.569569,311.337135 C804.99393,323.449119 788.548864,332.411988 770.169084,332.411988 C759.044481,332.411988 745.259646,321.268962 745.259646,305.038903 C745.259646,277.908057 780.326331,235.273871 812.007267,235.273871 Z M772.829316,316.908648 C779.117135,316.908648 788.790703,308.672498 797.738754,298.013952 C796.287719,293.653637 796.529558,288.566604 799.673468,282.510611 C803.301056,275.001181 812.007267,265.553833 820.955318,261.193518 C821.922675,258.528882 822.406353,256.348725 822.406353,254.410807 C822.406353,250.050493 819.746122,246.901377 815.634855,246.901377 C802.575538,246.901377 766.057818,289.293323 766.057818,308.914738 C766.057818,313.275052 769.443567,316.908648 772.829316,316.908648 Z" id="bw" fill="#1D1D1F" fill-rule="nonzero"></path>
    </g>
</svg>