<?xml version="1.0" encoding="UTF-8"?>
<svg width="960px" height="540px" viewBox="0 0 960 540" version="1.1" xmlns="http://www.w3.org/2000/svg" xmlns:xlink="http://www.w3.org/1999/xlink">
    <!-- Generator: Sketch 53.2 (72643) - https://sketchapp.com -->
    <title>transittrainer</title>
    <desc>Created with Sketch.</desc>
    <g id="transittrainer" stroke="none" stroke-width="1" fill="none" fill-rule="evenodd">
        <path d="M480,440 C386.111593,440 310,363.888407 310,270 C310,176.111593 386.111593,100 480,100 C573.888407,100 650,176.111593 650,270 C650,363.888407 573.888407,440 480,440 Z M480,379.65 C491.05,379.65 552.25,272.502573 552.25,232.6 C552.25,192.697427 519.902573,160.35 480,160.35 C440.097427,160.35 407.75,192.697427 407.75,232.6 C407.75,272.502573 468.95,379.65 480,379.65 Z M480,259.8 C464.977855,259.8 452.8,247.622145 452.8,232.6 C452.8,217.577855 464.977855,205.4 480,205.4 C495.022145,205.4 507.2,217.577855 507.2,232.6 C507.2,247.622145 495.022145,259.8 480,259.8 Z" id="bw" fill="#106DB2"></path>
        <path d="M480,440 C386.111593,440 310,363.888407 310,270 C310,176.111593 386.111593,100 480,100 C573.888407,100 650,176.111593 650,270 C650,363.888407 573.888407,440 480,440 Z M480,379.65 C491.05,379.65 552.25,272.502573 552.25,232.6 C552.25,192.697427 519.902573,160.35 480,160.35 C440.097427,160.35 407.75,192.697427 407.75,232.6 C407.75,272.502573 468.95,379.65 480,379.65 Z M480,259.8 C464.977855,259.8 452.8,247.622145 452.8,232.6 C452.8,217.577855 464.977855,205.4 480,205.4 C495.022145,205.4 507.2,217.577855 507.2,232.6 C507.2,247.622145 495.022145,259.8 480,259.8 Z" id="Combined-Shape-Copy" fill="#1D1D1F"></path>
    </g>
</svg>