<?xml version="1.0" encoding="UTF-8"?>
<svg width="960px" height="540px" viewBox="0 0 960 540" version="1.1" xmlns="http://www.w3.org/2000/svg" xmlns:xlink="http://www.w3.org/1999/xlink">
    <!-- Generator: Sketch 53.2 (72643) - https://sketchapp.com -->
    <title>wearethehits</title>
    <desc>Created with Sketch.</desc>
    <g id="wearethehits" stroke="none" stroke-width="1" fill="none" fill-rule="evenodd">
        <g id="Hit-Copy" transform="translate(318.095238, 108.095238)">
            <path d="M292.334194,66.9970585 C311.509473,93.5438087 322.809524,126.154651 322.809524,161.404762 C322.809524,250.54615 250.54615,322.809524 161.404762,322.809524 C126.154651,322.809524 93.5438087,311.509473 66.9970585,292.334194" id=")" stroke="#1D1D1F" stroke-width="16.1904762" stroke-linecap="round"></path>
            <path d="M255.812465,30.47533 C229.265715,11.3000513 196.654873,0 161.404762,0 C72.2633734,0 0,72.2633734 0,161.404762 C0,196.654873 11.3000513,229.265715 30.47533,255.812465" id="(" stroke="#1D1D1F" stroke-width="16.1904762" stroke-linecap="round"></path>
            <circle id="O" fill="#1D1D1F" cx="277.61619" cy="277.61619" r="32.2809524"></circle>
            <circle id="O" fill="#1D1D1F" cx="45.1933333" cy="45.1933333" r="32.2809524"></circle>
            <g id="O-+-Path" transform="translate(48.421429, 48.421429)" fill="#1D1D1F">
                <path d="M112.983333,225.966667 C50.5843614,225.966667 -1.98951966e-13,175.382305 -1.98951966e-13,112.983333 C-1.98951966e-13,50.5843614 50.5843614,2.55795385e-13 112.983333,2.55795385e-13 C175.382305,2.55795385e-13 225.966667,50.5843614 225.966667,112.983333 C225.966667,175.382305 175.382305,225.966667 112.983333,225.966667 Z M112.983333,129.12381 C121.897472,129.12381 129.12381,121.897472 129.12381,112.983333 C129.12381,104.069194 121.897472,96.8428571 112.983333,96.8428571 C104.069194,96.8428571 96.8428571,104.069194 96.8428571,112.983333 C96.8428571,121.897472 104.069194,129.12381 112.983333,129.12381 Z" id="Combined-Shape"></path>
            </g>
        </g>
    </g>
</svg>