<?xml version="1.0" encoding="UTF-8"?>
<svg width="960px" height="540px" viewBox="0 0 960 540" version="1.1" xmlns="http://www.w3.org/2000/svg" xmlns:xlink="http://www.w3.org/1999/xlink">
    <!-- Generator: Sketch 53.2 (72643) - https://sketchapp.com -->
    <title>whoworksat</title>
    <desc>Created with Sketch.</desc>
    <g id="whoworksat" stroke="none" stroke-width="1" fill="none" fill-rule="evenodd">
        <path d="M581.02214,368.421339 L602.942368,387.477749 C540.648691,452.774639 437.355922,458.123347 368.506217,398.268666 C297.632222,336.654164 290.094965,229.277904 351.671282,158.437075 C413.247598,87.5962471 520.619789,80.1168318 591.493783,141.731334 C654.375721,196.397919 667.399791,287.087574 626.531333,356.322248 L567.398717,304.915146 L460.350468,370.655442 L437.598541,350.875992 L467.963196,281.393039 L403.05547,320.845878 L380.469616,301.210803 L443.108764,158.553503 L468.683923,180.787338 L423.946556,276.350099 L487.90142,236.651748 L509.656912,255.564945 L479.270471,324.737527 L568.146229,267.255167 L572.139516,270.726743 L572.191984,270.666381 L615.698325,308.488738 C630.076082,257.578525 615.060784,200.635175 572.474256,163.612459 C513.690531,112.508666 424.634772,118.712181 373.562651,177.468398 C322.49053,236.224614 328.74202,325.283748 387.525744,376.387541 C444.28274,425.729391 529.260333,421.647463 581.02214,368.421339 L581.02214,368.421339 Z" id="bw" fill="#1D1D1F"></path>
    </g>
</svg>