<?xml version="1.0" encoding="UTF-8"?>
<svg width="960px" height="540px" viewBox="0 0 960 540" version="1.1" xmlns="http://www.w3.org/2000/svg" xmlns:xlink="http://www.w3.org/1999/xlink">
    <!-- Generator: Sketch 53.2 (72643) - https://sketchapp.com -->
    <title>williamalvarez</title>
    <desc>Created with Sketch.</desc>
    <g id="williamalvarez" stroke="none" stroke-width="1" fill="none" fill-rule="evenodd">
        <path d="M732.654462,122.666667 L724.308924,145.333333 L724.308924,145.333333 L633.069054,145.333333 L641.730179,122.666667 L732.654462,122.666667 L732.654462,122.666667 Z M734.740847,117 L741,100 L650.391304,100 L643.89546,117 L734.740847,117 L734.740847,117 Z M722.22254,151 L711.790618,179.333333 L620.077366,179.333333 L630.903772,151 L722.22254,151 L722.22254,151 L722.22254,151 Z M709.704233,185 L697.185927,219 L604.920396,219 L617.912084,185 L709.704233,185 L709.704233,185 Z M695.099542,224.666667 L680.494851,264.333333 L680.494851,264.333333 L587.598146,264.333333 L602.755115,224.666667 L695.099542,224.666667 L695.099542,224.666667 L695.099542,224.666667 Z M678.408467,270 L663.803776,309.666667 L582.681002,309.666667 L576.771739,292.666667 L585.432864,270 L678.408467,270 L678.408467,270 L678.408467,270 Z M661.717391,315.333333 L642.939931,366.333333 L642.939931,366.333333 L602.378544,366.333333 L584.650756,315.333333 L661.717391,315.333333 L661.717391,315.333333 L661.717391,315.333333 Z M640.853547,372 L622.076087,423 L604.348299,372 L640.853547,372 Z M508.815217,111.333333 L622.076087,440 L542.793478,440 L480.5,241.666667 L418.206522,440 L338.923913,440 L452.184783,111.333333 L508.815217,111.333333 Z M228.345538,122.666667 L319.269821,122.666667 L327.930946,145.333333 L236.691076,145.333333 L228.345538,122.666667 Z M226.259153,117 L220,100 L310.608696,100 L317.10454,117 L226.259153,117 L226.259153,117 Z M238.77746,151 L249.209382,179.333333 L249.209382,179.333333 L340.922634,179.333333 L330.096228,151 L238.77746,151 L238.77746,151 L238.77746,151 Z M251.295767,185 L263.814073,219 L263.814073,219 L356.079604,219 L343.087916,185 L251.295767,185 L251.295767,185 L251.295767,185 Z M265.900458,224.666667 L280.505149,264.333333 L280.505149,264.333333 L373.401854,264.333333 L358.244885,224.666667 L265.900458,224.666667 L265.900458,224.666667 L265.900458,224.666667 Z M282.591533,270 L297.196224,309.666667 L297.196224,309.666667 L378.318998,309.666667 L384.228261,292.666667 L375.567136,270 L282.591533,270 L282.591533,270 L282.591533,270 Z M299.282609,315.333333 L318.060069,366.333333 L318.060069,366.333333 L358.621456,366.333333 L376.349244,315.333333 L299.282609,315.333333 L299.282609,315.333333 L299.282609,315.333333 Z M320.146453,372 L338.923913,423 L356.651701,372 L320.146453,372 L320.146453,372 Z" id="williamalvarez-copy-2" fill="#FFFFFF"></path>
        <path d="M732.654462,122.666667 L724.308924,145.333333 L724.308924,145.333333 L633.069054,145.333333 L641.730179,122.666667 L732.654462,122.666667 L732.654462,122.666667 Z M734.740847,117 L741,100 L650.391304,100 L643.89546,117 L734.740847,117 L734.740847,117 Z M722.22254,151 L711.790618,179.333333 L620.077366,179.333333 L630.903772,151 L722.22254,151 L722.22254,151 L722.22254,151 Z M709.704233,185 L697.185927,219 L604.920396,219 L617.912084,185 L709.704233,185 L709.704233,185 Z M695.099542,224.666667 L680.494851,264.333333 L680.494851,264.333333 L587.598146,264.333333 L602.755115,224.666667 L695.099542,224.666667 L695.099542,224.666667 L695.099542,224.666667 Z M678.408467,270 L663.803776,309.666667 L582.681002,309.666667 L576.771739,292.666667 L585.432864,270 L678.408467,270 L678.408467,270 L678.408467,270 Z M661.717391,315.333333 L642.939931,366.333333 L642.939931,366.333333 L602.378544,366.333333 L584.650756,315.333333 L661.717391,315.333333 L661.717391,315.333333 L661.717391,315.333333 Z M640.853547,372 L622.076087,423 L604.348299,372 L640.853547,372 Z M508.815217,111.333333 L622.076087,440 L542.793478,440 L480.5,241.666667 L418.206522,440 L338.923913,440 L452.184783,111.333333 L508.815217,111.333333 Z M228.345538,122.666667 L319.269821,122.666667 L327.930946,145.333333 L236.691076,145.333333 L228.345538,122.666667 Z M226.259153,117 L220,100 L310.608696,100 L317.10454,117 L226.259153,117 L226.259153,117 Z M238.77746,151 L249.209382,179.333333 L249.209382,179.333333 L340.922634,179.333333 L330.096228,151 L238.77746,151 L238.77746,151 L238.77746,151 Z M251.295767,185 L263.814073,219 L263.814073,219 L356.079604,219 L343.087916,185 L251.295767,185 L251.295767,185 L251.295767,185 Z M265.900458,224.666667 L280.505149,264.333333 L280.505149,264.333333 L373.401854,264.333333 L358.244885,224.666667 L265.900458,224.666667 L265.900458,224.666667 L265.900458,224.666667 Z M282.591533,270 L297.196224,309.666667 L297.196224,309.666667 L378.318998,309.666667 L384.228261,292.666667 L375.567136,270 L282.591533,270 L282.591533,270 L282.591533,270 Z M299.282609,315.333333 L318.060069,366.333333 L318.060069,366.333333 L358.621456,366.333333 L376.349244,315.333333 L299.282609,315.333333 L299.282609,315.333333 L299.282609,315.333333 Z M320.146453,372 L338.923913,423 L356.651701,372 L320.146453,372 L320.146453,372 Z" id="williamalvarez-copy" fill="#1D1D1F"></path>
    </g>
</svg>