<?xml version="1.0" encoding="UTF-8" standalone="no"?>
<svg width="300px" height="300px" viewBox="0 0 300 300" version="1.1" xmlns="http://www.w3.org/2000/svg" xmlns:xlink="http://www.w3.org/1999/xlink">
    <!-- Generator: Sketch 39.1 (31720) - http://www.bohemiancoding.com/sketch -->
    <title>dribbble</title>
    <desc>Created with Sketch.</desc>
    <defs></defs>
    <g id="Icons" stroke="none" stroke-width="1" fill="none" fill-rule="evenodd">
        <g id="dribbble" fill="#A9ACB0">
            <path d="M150,0 C67.2906739,0.00309425088 0.00309425088,67.1978464 0,149.798874 C0.00309425088,232.399901 67.2906739,299.597747 150,299.597747 C232.709326,299.597747 299.996906,232.399901 300,149.798874 C299.996906,67.1978464 232.709326,0.00309425088 150,0 L150,0 Z M248.691132,70.7098212 C265.796151,91.9085339 276.205211,118.695464 276.687914,147.861873 C270.994492,146.710811 246.877901,142.199394 218.061142,142.199394 C208.766013,142.199394 198.981991,142.672814 189.173216,143.876478 C188.347051,141.871403 187.511603,139.853951 186.648307,137.830311 C184.098645,131.84603 181.366421,125.911257 178.51971,120.072405 C222.857231,101.800854 244.263259,76.443468 248.691132,70.7098212 L248.691132,70.7098212 Z M150,23.4420447 C181.957423,23.4420447 211.17334,35.3208738 233.489077,54.8827279 C229.952349,59.706665 210.798936,83.6406956 168.039483,99.8112507 C148.251748,63.6177981 126.576521,33.6685438 121.421499,26.7095736 C130.611424,24.5776348 140.172659,23.4420447 150,23.4420447 L150,23.4420447 Z M95.5659385,35.7385977 C99.9350207,41.7476329 121.625719,72.0186893 141.924005,107.924377 C87.4466242,122.238381 39.0649174,123.179033 27.3934031,123.179033 L26.1557027,123.179033 C34.5380283,84.5163686 60.6658828,52.3887617 95.5659385,35.7385977 L95.5659385,35.7385977 Z M23.2749551,149.993811 C23.2749551,148.954143 23.2997091,147.911381 23.3306516,146.868618 C24.0887431,146.880995 25.1995792,146.893372 26.6538771,146.893372 C42.3726716,146.893372 96.9614456,145.584504 153.211832,128.887926 C156.624791,135.571508 159.879943,142.347918 162.893743,149.118138 C161.485859,149.52658 160.077975,149.941209 158.685562,150.389876 C95.3555294,170.849062 60.53283,224.998453 55.179776,233.844916 C35.3394393,211.492048 23.2749551,182.130701 23.2749551,149.993811 L23.2749551,149.993811 Z M150,276.548673 C120.923324,276.548673 94.1178291,266.702766 72.7087072,250.201126 C76.3258865,243.102915 102.596076,195.791819 172.009407,171.631908 C172.058915,171.616437 172.108423,171.597871 172.154836,171.579306 C189.547621,216.897704 196.92122,254.929142 198.954143,266.708955 C183.885141,273.042886 167.343276,276.548673 150,276.548673 L150,276.548673 Z M221.768055,254.236029 C220.069311,244.489139 213.243394,208.843369 197.478186,165.372238 C206.321555,164.004579 214.926666,163.463086 222.990284,163.463086 C249.473977,163.459991 270.193081,169.258617 275.007736,170.722198 C269.283371,205.257132 249.517297,235.119748 221.768055,254.236029 L221.768055,254.236029 Z" id="Shape"></path>
        </g>
    </g>
</svg>