<?xml version="1.0" encoding="UTF-8" standalone="no"?>
<svg width="300px" height="300px" viewBox="0 0 300 300" version="1.1" xmlns="http://www.w3.org/2000/svg" xmlns:xlink="http://www.w3.org/1999/xlink">
    <!-- Generator: Sketch 39.1 (31720) - http://www.bohemiancoding.com/sketch -->
    <title>github</title>
    <desc>Created with Sketch.</desc>
    <defs></defs>
    <g id="Icons" stroke="none" stroke-width="1" fill="none" fill-rule="evenodd">
        <g id="github" fill="#A9ACB0">
            <path d="M150.000492,4 C67.1252203,4 0,71.1252203 0,154.000492 C0,220.37571 42.9376409,276.438394 102.562837,296.313459 C110.062861,297.625964 112.875371,293.125949 112.875371,289.188436 C112.875371,285.625924 112.68787,273.813386 112.68787,261.250844 C75.0002462,268.188367 65.2502142,252.063314 62.2502043,243.625787 C60.5626988,239.313272 53.2501748,226.000729 46.8751539,222.438217 C41.6251366,219.625708 34.125112,212.688185 46.6876532,212.500684 C58.500192,212.313184 66.9377197,223.37572 69.7502289,227.875735 C83.2502733,250.563309 104.812844,244.188288 113.437872,240.250775 C114.750377,230.500743 118.68789,223.938222 123.000404,220.18821 C89.6252942,216.438197 54.7501797,203.500655 54.7501797,146.125467 C54.7501797,129.812913 60.5626988,116.312869 70.1252302,105.812834 C68.6252253,102.062822 63.375208,86.6877714 71.6252351,66.0627037 C71.6252351,66.0627037 84.1877763,62.1251908 112.875371,81.4377542 C124.87541,78.0627431 137.625452,76.3752376 150.375494,76.3752376 C163.125535,76.3752376 175.875577,78.0627431 187.875617,81.4377542 C216.563211,61.9376902 229.125752,66.0627037 229.125752,66.0627037 C237.375779,86.6877714 232.125762,102.062822 230.625757,105.812834 C240.188288,116.312869 246.000807,129.625412 246.000807,146.125467 C246.000807,203.688155 210.938192,216.438197 177.563083,220.18821 C183.000601,224.875725 187.688116,233.875755 187.688116,247.938301 C187.688116,268.000867 187.500615,284.125919 187.500615,289.188436 C187.500615,293.125949 190.313125,297.813464 197.813149,296.313459 C258.871716,275.700698 299.984509,218.444532 300.000985,154.000492 C300.000985,71.1252203 232.875764,4 150.000492,4 L150.000492,4 Z" id="Shape"></path>
        </g>
    </g>
</svg>