<?xml version="1.0" encoding="UTF-8"?>
<svg width="49px" height="44px" viewBox="0 0 49 44" version="1.1" xmlns="http://www.w3.org/2000/svg" xmlns:xlink="http://www.w3.org/1999/xlink">
    <!-- Generator: Sketch 53.2 (72643) - https://sketchapp.com -->
    <title>logo-outline</title>
    <desc>Created with Sketch.</desc>
    <g id="layout" stroke="none" stroke-width="1" fill="none" fill-rule="evenodd">
        <g id="Artboard-Copy-17" transform="translate(-28.000000, -38.000000)" stroke="#1D1D1F" stroke-width="2.16565096">
            <path d="M53.9121076,40.8270416 L74.7881426,77.5734485 C75.231248,78.3534113 74.9581711,79.344904 74.1782083,79.7880094 C73.9336382,79.9269523 73.6571773,80 73.375895,80 L31.623825,80 C30.726783,80 29.9995868,79.2728038 29.9995868,78.3757618 C29.9995868,78.0944796 30.0726345,77.8180186 30.2115775,77.5734485 L51.0876125,40.8270416 C51.5307179,40.0470788 52.5222105,39.7740019 53.3021733,40.2171073 C53.5567414,40.3617301 53.7674847,40.5724735 53.9121076,40.8270416 Z M42.8167025,65.3027922 C42.5274724,65.8047301 42.5274724,66.4227204 42.8167025,66.9246582 L47.1511931,74.4468538 C47.4411558,74.9500632 47.9777351,75.2601591 48.5585088,75.2601591 L57.2220143,75.2601591 C57.802788,75.2601591 58.3393673,74.9500632 58.62933,74.4468538 L62.9638206,66.9246582 C63.2530507,66.4227204 63.2530507,65.8047301 62.9638206,65.3027922 L58.62933,57.7805966 C58.3393673,57.2773872 57.802788,56.9672914 57.2220143,56.9672914 L48.5585088,56.9672914 C47.9777351,56.9672914 47.4411558,57.2773872 47.1511931,57.7805966 L42.8167025,65.3027922 Z" id="logo-outline"></path>
        </g>
    </g>
</svg>