<?xml version="1.0" encoding="UTF-8"?>
<svg width="32px" height="28px" viewBox="0 0 32 28" version="1.1" xmlns="http://www.w3.org/2000/svg" xmlns:xlink="http://www.w3.org/1999/xlink">
    <!-- Generator: Sketch 58 (84663) - https://sketch.com -->
    <title>logo-outline</title>
    <desc>Created with Sketch.</desc>
    <g id="Site" stroke="none" stroke-width="1" fill="none" fill-rule="evenodd">
        <g id="View-Copy-13" transform="translate(-99.000000, -34.000000)" stroke="#1C1F2B" stroke-width="1.44095784">
            <path d="M115.544374,35.1406784 C115.705466,35.2346304 115.839504,35.3686689 115.933456,35.5297601 L129.84042,59.3748164 C130.141119,59.8904002 129.966922,60.5521287 129.451338,60.8528286 C129.286075,60.9492133 129.098188,61 128.906873,61 L101.092946,61 C100.496081,61 100.012227,60.5161459 100.012227,59.9192816 C100.012227,59.7279658 100.063014,59.540079 100.159399,59.3748164 L114.066362,35.5297601 C114.367062,35.0141764 115.028791,34.8399786 115.544374,35.1406784 Z M118.159945,46.032789 L112.360754,46.032789 C111.978735,46.032789 111.625099,46.2344728 111.430598,46.5632699 L111.430598,46.5632699 L108.553957,51.4261253 C108.353207,51.7654848 108.353207,52.187241 108.553957,52.5266005 L108.553957,52.5266005 L111.430598,57.3894559 C111.625099,57.718253 111.978735,57.9199368 112.360754,57.9199368 L112.360754,57.9199368 L118.159945,57.9199368 C118.541964,57.9199368 118.8956,57.718253 119.090101,57.3894559 L119.090101,57.3894559 L121.966742,52.5266005 C122.167492,52.187241 122.167492,51.7654848 121.966742,51.4261253 L121.966742,51.4261253 L119.090101,46.5632699 C118.8956,46.2344728 118.541964,46.032789 118.159945,46.032789 L118.159945,46.032789 Z" id="logo-outline"></path>
        </g>
    </g>
</svg>