<?xml version="1.0" encoding="UTF-8" standalone="no"?>
<svg width="300px" height="300px" viewBox="0 0 300 300" version="1.1" xmlns="http://www.w3.org/2000/svg" xmlns:xlink="http://www.w3.org/1999/xlink">
    <!-- Generator: Sketch 39.1 (31720) - http://www.bohemiancoding.com/sketch -->
    <title>twitter</title>
    <desc>Created with Sketch.</desc>
    <defs></defs>
    <g id="Icons" stroke="none" stroke-width="1" fill="none" fill-rule="evenodd">
        <g id="twitter" fill="#A9ACB0">
            <path d="M300.003871,56.8680437 C288.948977,61.7465193 277.088463,65.0585119 264.646112,66.5354816 C277.357003,58.9268499 287.113954,46.8425526 291.679133,32.4756657 C279.773862,39.5472175 266.615405,44.6494764 252.606572,47.4243891 C241.372651,35.4743617 225.394524,28 207.670888,28 C173.700586,28 146.130485,55.5701007 146.130485,89.5404033 C146.130485,94.3741222 146.667565,99.0735712 147.741725,103.549237 C96.5848656,100.998107 51.2463722,76.4714594 20.9013588,39.2339209 C15.6200733,48.3195222 12.5766206,58.8820933 12.5766206,70.1607708 C12.5766206,91.5096962 23.4524882,110.352249 39.9676946,121.362386 C29.8974468,121.04909 20.4090356,118.274177 12.0842974,113.664241 L12.0842974,114.425105 C12.0842974,144.233038 33.2989528,169.117739 61.45089,174.757078 C56.3038744,176.144534 50.8435623,176.905398 45.2489801,176.905398 C41.2656377,176.905398 37.4165652,176.502588 33.657006,175.786481 C41.489421,200.223616 64.2258027,218.036765 91.1245535,218.529089 C70.0441681,235.044295 43.5482272,244.890759 14.6801835,244.890759 C9.71219455,244.890759 4.83371895,244.577463 0,244.040383 C27.2120474,261.495479 59.5711104,271.699997 94.3470328,271.699997 C207.536618,271.699997 269.435075,177.934801 269.435075,96.6119551 C269.435075,93.9265556 269.390318,91.2859129 269.256048,88.6452701 C281.295589,79.9624787 291.72389,69.1313677 299.959115,56.7785304 L300.003871,56.8680437 Z" id="Shape"></path>
        </g>
    </g>
</svg>