<?xml version="1.0" encoding="UTF-8" standalone="no"?>
<svg width="300px" height="300px" viewBox="0 0 300 300" version="1.1" xmlns="http://www.w3.org/2000/svg" xmlns:xlink="http://www.w3.org/1999/xlink">
    <!-- Generator: Sketch 39.1 (31720) - http://www.bohemiancoding.com/sketch -->
    <title>wnw</title>
    <desc>Created with Sketch.</desc>
    <defs></defs>
    <g id="Icons" stroke="none" stroke-width="1" fill="none" fill-rule="evenodd">
        <g id="wnw" fill="#A9ACB0">
            <path d="M263.72258,220.344621 L193.383252,150.009979 L294.211605,49.1484266 C297.964101,45.3862018 299.980069,40.4763489 299.980069,35.2072384 C299.980069,29.9181691 297.964101,24.9883574 294.211605,21.236112 L278.762502,5.78803805 C275.069887,2.06573082 270.069886,0.00997937596 264.800425,0.00997937596 C259.550923,0.00997937596 254.610803,2.06573082 250.888248,5.78803805 L150.019975,106.629632 L49.1517013,5.77805868 C45.409186,2.05575145 40.4690658,0 35.1896242,0 C29.9401226,0 24.9700623,2.05575145 21.2574871,5.77805868 L5.81836383,21.2261327 C2.04590838,24.9683986 3.54562278e-14,29.9081897 3.54562278e-14,35.197259 C3.54562278e-14,40.4763489 2.04590838,45.3862018 5.81836383,49.1384472 L106.676657,150.009979 L36.2974087,220.344621 L35.1896242,221.48227 L0,300 L78.5329417,264.802741 L150.019975,193.370368 L221.536948,264.802741 L300.000029,300 L264.810405,221.48227 L263.72258,220.344621 L263.72258,220.344621 Z M263.303419,18.2422992 C263.902221,17.7632892 264.411203,17.6435367 264.800425,17.6435367 C265.209606,17.6435367 265.798429,17.7632892 266.317391,18.2422992 L281.786454,33.7203114 C282.824379,34.718249 282.824379,35.6563103 281.786454,36.684186 L271.706613,46.7234382 L253.303418,28.2915308 L263.303419,18.2422992 L263.303419,18.2422992 Z M243.303417,38.2210099 L261.786452,56.6728761 L251.566891,66.9416539 L233.083855,48.4997671 L243.303417,38.2210099 L243.303417,38.2210099 Z M223.173674,58.4292462 L241.526969,76.8411949 L180.888241,137.515801 L162.495026,119.123811 L223.173674,58.4292462 L223.173674,58.4292462 Z M18.2235547,36.684186 C17.2055905,35.6563103 17.2055905,34.7082696 18.2235547,33.7203114 L33.6626779,18.2422992 C34.2315402,17.7632892 34.8004026,17.6335573 35.1896242,17.6335573 C35.5788457,17.6335573 36.1477081,17.7533098 36.7165704,18.2422992 L46.7165714,28.2915308 L28.3033959,46.7234382 L18.2235547,36.684186 L18.2235547,36.684186 Z M38.2335366,56.6928348 L56.6966123,38.2409687 L66.9161741,48.5097465 L48.4730586,66.9616127 L38.2335366,56.6928348 L38.2335366,56.6928348 Z M60.3992074,254.394252 L27.9341344,272.067727 L45.6287469,239.614796 C45.8383278,239.814384 46.1177689,239.964074 46.2974097,240.123744 C46.6467111,240.35327 46.9361323,240.542878 47.2554936,240.692569 C47.5449148,240.83228 47.8942162,240.962012 48.1936174,241.031867 L55.9980094,244.03566 L59.0020017,251.86947 C59.1517023,252.288604 59.2914229,252.707737 59.5309439,253.086954 L59.7505048,253.506087 C59.9600856,253.795489 60.1796465,254.114829 60.4091875,254.364314 L60.3992074,254.394252 L60.3992074,254.394252 L60.3992074,254.394252 Z M75.7584903,242.708403 L70.5888292,242.708403 L66.9361342,233.048367 L57.3153748,229.425853 L57.3153748,224.256536 L119.171668,162.494179 L137.574864,180.906127 L75.7584903,242.708403 L75.7584903,242.708403 Z M229.44114,242.708403 L224.251519,242.708403 L58.4530994,76.8511742 L76.8363348,58.4392256 L242.704614,224.256536 L242.704614,229.425853 L233.023975,233.048367 L229.44114,242.708403 L229.44114,242.708403 Z M239.630762,254.394252 L239.630762,254.354334 C239.820382,254.10485 240.089844,253.78551 240.279464,253.496108 C240.339345,253.366376 240.409205,253.236644 240.528965,253.076974 C240.698626,252.697758 240.918187,252.278624 240.988047,251.85949 L244.03196,244.02568 L251.866292,241.021888 C252.075873,240.952032 252.435154,240.812321 252.694635,240.682589 C253.023976,240.532899 253.353318,240.363249 253.682659,240.113765 C253.90222,239.954095 254.141741,239.804404 254.351322,239.604817 L272.065895,272.057747 L239.630762,254.394252 L239.630762,254.394252 Z" id="Shape"></path>
        </g>
    </g>
</svg>